<svg xmlns="http://www.w3.org/2000/svg" xmlns:xlink="http://www.w3.org/1999/xlink" width="35" height="35" viewBox="0 0 35 35">
  <defs>
    <clipPath id="clip-path">
      <rect id="Rectangle_1702" data-name="Rectangle 1702" width="35" height="35" transform="translate(528 448)" fill="#e4e4e4"/>
    </clipPath>
  </defs>
  <g id="shopping-cart" transform="translate(-18.016 6)">
    <g id="Shop" transform="translate(-509.984 -454)" clip-path="url(#clip-path)">
      <g id="Group_27950" data-name="Group 27950" transform="translate(281.959 382.047)">
        <g id="Rectangle_6756" data-name="Rectangle 6756" transform="translate(247.041 68.953)" fill="none" stroke="#fff" stroke-width="1.5">
          <rect width="32" height="29" rx="3" stroke="none"/>
          <rect x="0.75" y="0.75" width="30.5" height="27.5" rx="2.25" fill="none"/>
        </g>
        <line id="Line_493" data-name="Line 493" x2="31.048" transform="translate(247.83 75.495)" fill="none" stroke="#fff" stroke-width="1"/>
        <line id="Line_494" data-name="Line 494" x2="10.146" transform="translate(250.42 73.172)" fill="none" stroke="#fff" stroke-width="0.75"/>
        <line id="Line_495" data-name="Line 495" x2="10.146" transform="translate(252.17 89.788)" fill="none" stroke="#fff" stroke-width="0.75"/>
        <line id="Line_496" data-name="Line 496" x2="6" transform="translate(267.541 89.787)" fill="none" stroke="#fff" stroke-width="0.75"/>
        <g id="Ellipse_805" data-name="Ellipse 805" transform="translate(268.041 71.953)" fill="#fff" stroke="#fff" stroke-width="3">
          <circle cx="0.75" cy="0.75" r="0.75" stroke="none"/>
          <circle cx="0.75" cy="0.75" r="0.75" fill="none"/>
        </g>
        <g id="Ellipse_806" data-name="Ellipse 806" transform="translate(271.041 71.953)" fill="#fff" stroke="#fff" stroke-width="3">
          <circle cx="0.75" cy="0.75" r="0.75" stroke="none"/>
          <circle cx="0.75" cy="0.75" r="0.75" fill="none"/>
        </g>
        <g id="Ellipse_807" data-name="Ellipse 807" transform="translate(274.041 71.953)" fill="#fff" stroke="#fff" stroke-width="3">
          <circle cx="0.75" cy="0.75" r="0.75" stroke="none"/>
          <circle cx="0.75" cy="0.75" r="0.75" fill="none"/>
        </g>
        <text id="Health" transform="translate(252.042 86.954)" fill="#fff" font-size="7" font-family="Raleway-Medium, Raleway" font-weight="500"><tspan x="0" y="0">Health</tspan></text>
      </g>
    </g>
  </g>
</svg>
