<svg xmlns="http://www.w3.org/2000/svg" xmlns:xlink="http://www.w3.org/1999/xlink" width="35" height="35" viewBox="0 0 35 35"><defs><style>.a{fill:#e4e4e4;}.b{clip-path:url(#a);}.c,.d{fill:#fff;}.d{stroke:#fff;stroke-width:0.5px;}</style><clipPath id="a"><rect class="a" width="35" height="35" transform="translate(458 81)"/></clipPath></defs><g transform="translate(5.984 2.971)"><g class="b" transform="translate(-463.984 -83.971)"><g transform="translate(460.881 82.467)"><g transform="translate(0 0)"><path class="c" d="M22.027,168.182c-.05.522-.086,1.017-.146,1.509a.7.7,0,0,1-.775.627.7.7,0,0,1-.642-.782q.21-2.4.424-4.8.2-2.239.389-4.484.127-1.454.258-2.907a.726.726,0,0,1,.517-.649.717.717,0,0,1,.808.3q1.218,1.664,2.432,3.332c.2.27.393.537.587.808a.722.722,0,0,1-.086,1.033c-1.013,1.013-2.029,2.023-3.039,3.039a1.211,1.211,0,0,0,.172,1.907,1.172,1.172,0,0,0,1.478-.106c.493-.456.959-.941,1.435-1.416q.954-.952,1.905-1.906a3.249,3.249,0,0,0,.833-1.2,2.307,2.307,0,0,0-.206-1.857c-.314-.613-.669-1.205-1.041-1.788-1.119-1.738-2.208-3.493-3.39-5.185a4.645,4.645,0,0,0-3.891-2.023c-.251-.005-.5.005-.753,0a.2.2,0,0,0-.22.146q-.995,2.411-2,4.811-.376.9-.753,1.808c-.027.064-.052.127-.086.212l.573.2c.379.13.484.339.344.708q-.6,1.621-1.213,3.24a.5.5,0,0,1-.7.327q-.978-.333-1.956-.67a.459.459,0,0,1-.315-.689c.334-.893.67-1.784,1-2.68a.393.393,0,0,0,0-.263q-1.447-3.492-2.9-6.982a.226.226,0,0,0-.25-.163,6.426,6.426,0,0,0-2.034.189,4.777,4.777,0,0,0-2.62,1.864c-1.321,2-2.612,4.025-3.915,6.046a5.081,5.081,0,0,0-.737,1.619A1.993,1.993,0,0,0,1.807,163a4.67,4.67,0,0,0,.529.636q1.645,1.66,3.3,3.306a1.218,1.218,0,0,0,2.066-.526,1.16,1.16,0,0,0-.325-1.192q-1.49-1.5-2.986-2.985a.769.769,0,0,1-.086-1.191q1.469-2.007,2.933-4.016a.724.724,0,0,1,1.348.338c.145,1.626.283,3.252.425,4.878l.344,3.9c.1,1.119.2,2.239.3,3.358A.709.709,0,0,1,9,170.33a.741.741,0,0,1-.775-.728c-.02-.232-.038-.463-.059-.694s-.043-.46-.066-.709c-.057.032-.1.053-.14.079a2.632,2.632,0,0,1-3.391-.365l-3.2-3.218A4.422,4.422,0,0,1,.12,162.707a3.7,3.7,0,0,1,.369-2.755c.462-.875.982-1.722,1.518-2.556,1.014-1.578,2.013-3.171,3.1-4.7a6.014,6.014,0,0,1,4.007-2.419,5.839,5.839,0,0,1,1.012-.073q4.957-.008,9.915,0a6.352,6.352,0,0,1,4.343,1.76,6.786,6.786,0,0,1,1.138,1.423q1.908,2.96,3.789,5.936a4.788,4.788,0,0,1,.807,2.457,3.552,3.552,0,0,1-1.027,2.556c-.763.817-1.568,1.595-2.356,2.388-.39.393-.783.782-1.174,1.173a2.629,2.629,0,0,1-3.435.354A.988.988,0,0,0,22.027,168.182ZM17.576,151.65H12.555c.836,2,1.664,3.993,2.511,6.021C15.913,155.637,16.74,153.655,17.576,151.65Zm6.791,9.843L22.841,159.4l-.041.016q-.178,2.007-.356,4.009ZM7.692,163.458c-.121-1.364-.241-2.706-.365-4.1l-1.572,2.153Z" transform="translate(0 -137.27)"/><path class="d" d="M114.016,11.5a5.748,5.748,0,1,1,5.751-5.757A5.748,5.748,0,0,1,114.016,11.5Zm0-10.061A4.305,4.305,0,1,0,117.067,2.7a4.314,4.314,0,0,0-3.052-1.261Z" transform="translate(-98.948 0)"/></g></g></g></g></svg>