<svg xmlns="http://www.w3.org/2000/svg" xmlns:xlink="http://www.w3.org/1999/xlink" width="35" height="35" viewBox="0 0 35 35">
  <defs>
    <clipPath id="clip-path">
      <rect id="Rectangle_1702" data-name="Rectangle 1702" width="35" height="35" transform="translate(528 448)" fill="#e4e4e4"/>
    </clipPath>
  </defs>
  <g id="questio-cart" transform="translate(3.984 6)">
    <g id="Shop" transform="translate(-531.984 -454)" clip-path="url(#clip-path)">
      <path id="Icon_open-question-mark" data-name="Icon open-question-mark" d="M7.355,0a7.7,7.7,0,0,0-5.6,1.965A6.5,6.5,0,0,0,0,5.777l2.978.387A3.608,3.608,0,0,1,3.9,4.109,4.422,4.422,0,0,1,7.355,2.978,5.254,5.254,0,0,1,10.987,3.99a2.489,2.489,0,0,1,.834,1.965c0,2.471-1.012,3.156-2.5,4.466a8.487,8.487,0,0,0-3.454,6.7v.744H8.844v-.744c0-2.471.923-3.156,2.412-4.466S14.8,9.439,14.8,5.955a5.72,5.72,0,0,0-1.757-4.2A8.23,8.23,0,0,0,7.355,0ZM5.866,20.843v2.978H8.844V20.843Z" transform="translate(538.101 453.589)" fill="#fff"/>
    </g>
  </g>
</svg>
