<svg xmlns="http://www.w3.org/2000/svg" xmlns:xlink="http://www.w3.org/1999/xlink" width="35" height="35" viewBox="0 0 35 35">
  <defs>
    <clipPath id="clip-path">
      <rect id="Rectangle_1702" data-name="Rectangle 1702" width="35" height="35" transform="translate(527 448)" fill="#e4e4e4"/>
    </clipPath>
  </defs>
  <g id="shopping-cart" transform="translate(4.984 6)">
    <g id="Shop" transform="translate(-531.984 -454)" clip-path="url(#clip-path)">
      <g id="Group_26757" data-name="Group 26757" transform="translate(359.198 389.285)">
        <g id="Ellipse_651" data-name="Ellipse 651" transform="translate(176.993 65)" fill="none" stroke="#fff" stroke-width="1.5">
          <circle cx="8.481" cy="8.481" r="8.481" stroke="none"/>
          <circle cx="8.481" cy="8.481" r="9.231" fill="none"/>
        </g>
        <path id="Path_14110" data-name="Path 14110" d="M-7930.213,1206.913l3.69,6.017h-3.122l-1.476,2.555-3.747-5.677Z" transform="translate(8123.69 -1126.755)" fill="none" stroke="#fff" stroke-linecap="round" stroke-linejoin="round" stroke-width="1.5"/>
        <path id="Path_14111" data-name="Path 14111" d="M-7931.178,1206.913l-3.69,6.017h3.122l1.476,2.555,3.748-5.677Z" transform="translate(8108.934 -1126.755)" fill="none" stroke="#fff" stroke-linecap="round" stroke-linejoin="round" stroke-width="1.5"/>
        <path id="Icon_ionic-md-star" data-name="Icon ionic-md-star" d="M4.3,6.033,5.985,7.048,5.54,5.134,7.025,3.847,5.068,3.679,4.3,1.875l-.764,1.8-1.957.168L3.066,5.134,2.622,7.048Z" transform="translate(181.197 69.019)" fill="#fff"/>
        <g id="Group_26762" data-name="Group 26762">
          <g id="Group_26758" data-name="Group 26758">
            <circle id="Ellipse_652" data-name="Ellipse 652" cx="0.5" cy="0.5" r="0.5" transform="translate(185 66)" fill="#fff"/>
          </g>
          <g id="Group_26760" data-name="Group 26760" transform="translate(-7 7)">
            <circle id="Ellipse_652-2" data-name="Ellipse 652" cx="0.5" cy="0.5" r="0.5" transform="translate(185 66)" fill="#fff"/>
          </g>
          <g id="Group_26761" data-name="Group 26761" transform="translate(7 7)">
            <circle id="Ellipse_652-3" data-name="Ellipse 652" cx="0.5" cy="0.5" r="0.5" transform="translate(185 66)" fill="#fff"/>
          </g>
          <g id="Group_26759" data-name="Group 26759" transform="translate(0 14)">
            <circle id="Ellipse_652-4" data-name="Ellipse 652" cx="0.5" cy="0.5" r="0.5" transform="translate(185 66)" fill="#fff"/>
          </g>
        </g>
        <g id="Group_26763" data-name="Group 26763" transform="matrix(0.966, -0.259, 0.259, 0.966, -12.702, 50.515)">
          <g id="Group_26758-2" data-name="Group 26758">
            <circle id="Ellipse_652-5" data-name="Ellipse 652" cx="0.5" cy="0.5" r="0.5" transform="translate(185 66)" fill="#fff"/>
          </g>
          <g id="Group_26760-2" data-name="Group 26760" transform="translate(-7 7)">
            <circle id="Ellipse_652-6" data-name="Ellipse 652" cx="0.5" cy="0.5" r="0.5" transform="translate(185 66)" fill="#fff"/>
          </g>
          <g id="Group_26761-2" data-name="Group 26761" transform="translate(7 7)">
            <circle id="Ellipse_652-7" data-name="Ellipse 652" cx="0.5" cy="0.5" r="0.5" transform="translate(185 66)" fill="#fff"/>
          </g>
          <g id="Group_26759-2" data-name="Group 26759" transform="translate(0 14)">
            <circle id="Ellipse_652-8" data-name="Ellipse 652" cx="0.5" cy="0.5" r="0.5" transform="translate(185 66)" fill="#fff"/>
          </g>
        </g>
        <g id="Group_26764" data-name="Group 26764" transform="translate(-11.898 102.597) rotate(-30)">
          <g id="Group_26758-3" data-name="Group 26758">
            <circle id="Ellipse_652-9" data-name="Ellipse 652" cx="0.5" cy="0.5" r="0.5" transform="translate(185 66)" fill="#fff"/>
          </g>
          <g id="Group_26760-3" data-name="Group 26760" transform="translate(-7 7)">
            <circle id="Ellipse_652-10" data-name="Ellipse 652" cx="0.5" cy="0.5" r="0.5" transform="translate(185 66)" fill="#fff"/>
          </g>
          <g id="Group_26761-3" data-name="Group 26761" transform="translate(7 7)">
            <circle id="Ellipse_652-11" data-name="Ellipse 652" cx="0.5" cy="0.5" r="0.5" transform="translate(185 66)" fill="#fff"/>
          </g>
          <g id="Group_26759-3" data-name="Group 26759" transform="translate(0 14)">
            <circle id="Ellipse_652-12" data-name="Ellipse 652" cx="0.5" cy="0.5" r="0.5" transform="translate(185 66)" fill="#fff"/>
          </g>
        </g>
        <g id="Group_26765" data-name="Group 26765" transform="translate(2.359 152.696) rotate(-45)">
          <g id="Group_26758-4" data-name="Group 26758">
            <circle id="Ellipse_652-13" data-name="Ellipse 652" cx="0.5" cy="0.5" r="0.5" transform="translate(185 66)" fill="#fff"/>
          </g>
          <g id="Group_26760-4" data-name="Group 26760" transform="translate(-7 7)">
            <circle id="Ellipse_652-14" data-name="Ellipse 652" cx="0.5" cy="0.5" r="0.5" transform="translate(185 66)" fill="#fff"/>
          </g>
          <g id="Group_26761-4" data-name="Group 26761" transform="translate(7 7)">
            <circle id="Ellipse_652-15" data-name="Ellipse 652" cx="0.5" cy="0.5" r="0.5" transform="translate(185 66)" fill="#fff"/>
          </g>
          <g id="Group_26759-4" data-name="Group 26759" transform="translate(0 14)">
            <circle id="Ellipse_652-16" data-name="Ellipse 652" cx="0.5" cy="0.5" r="0.5" transform="translate(185 66)" fill="#fff"/>
          </g>
        </g>
        <g id="Group_26766" data-name="Group 26766" transform="translate(29.097 197.398) rotate(-60)">
          <g id="Group_26758-5" data-name="Group 26758">
            <circle id="Ellipse_652-17" data-name="Ellipse 652" cx="0.5" cy="0.5" r="0.5" transform="translate(185 66)" fill="#fff"/>
          </g>
          <g id="Group_26760-5" data-name="Group 26760" transform="translate(-7 7)">
            <circle id="Ellipse_652-18" data-name="Ellipse 652" cx="0.5" cy="0.5" r="0.5" transform="translate(185 66)" fill="#fff"/>
          </g>
          <g id="Group_26761-5" data-name="Group 26761" transform="translate(7 7)">
            <circle id="Ellipse_652-19" data-name="Ellipse 652" cx="0.5" cy="0.5" r="0.5" transform="translate(185 66)" fill="#fff"/>
          </g>
          <g id="Group_26759-5" data-name="Group 26759" transform="translate(0 14)">
            <circle id="Ellipse_652-20" data-name="Ellipse 652" cx="0.5" cy="0.5" r="0.5" transform="translate(185 66)" fill="#fff"/>
          </g>
        </g>
        <g id="Group_26767" data-name="Group 26767" transform="matrix(0.259, -0.966, 0.966, 0.259, 66.494, 233.656)">
          <g id="Group_26758-6" data-name="Group 26758">
            <circle id="Ellipse_652-21" data-name="Ellipse 652" cx="0.5" cy="0.5" r="0.5" transform="translate(185 66)" fill="#fff"/>
          </g>
          <g id="Group_26760-6" data-name="Group 26760" transform="translate(-7 7)">
            <circle id="Ellipse_652-22" data-name="Ellipse 652" cx="0.5" cy="0.5" r="0.5" transform="translate(185 66)" fill="#fff"/>
          </g>
          <g id="Group_26761-6" data-name="Group 26761" transform="translate(7 7)">
            <circle id="Ellipse_652-23" data-name="Ellipse 652" cx="0.5" cy="0.5" r="0.5" transform="translate(185 66)" fill="#fff"/>
          </g>
          <g id="Group_26759-6" data-name="Group 26759" transform="translate(0 14)">
            <circle id="Ellipse_652-24" data-name="Ellipse 652" cx="0.5" cy="0.5" r="0.5" transform="translate(185 66)" fill="#fff"/>
          </g>
        </g>
      </g>
    </g>
  </g>
</svg>
