<svg xmlns="http://www.w3.org/2000/svg" width="60" height="60.499" viewBox="0 0 60 60.499"><defs><style>.a{fill:#ef5618;stroke:#707070;}.a,.c{opacity:0;}.b{fill:#fdfdfd;}.c{fill:#fff;}.d{stroke:none;}.e{fill:none;}</style></defs><g transform="translate(-10 -12.001)"><g transform="translate(10.004 12.479)"><g transform="translate(-0.004 -0.013)"><g class="a" transform="translate(0 -0.465)"><rect class="d" width="60" height="60"/><rect class="e" x="0.5" y="0.5" width="59" height="59"/></g><g transform="translate(5.385 4.906)"><g transform="translate(-0.003)"><path class="b" d="M133.676,91.73c-.221.419-.641.581-.995.836-.193.14-.663.165-.5.5.221.442.491-.021.713-.111a5.091,5.091,0,0,0,.85-.51c.124-.084.232-.144.317.012s-.072.164-.153.214c-.369.234-.741.466-1.105.7-.135.085-.311.138-.165.371s.282.085.41.014c.387-.213.764-.442,1.148-.663.086-.049.195-.148.274.006.07.135-.042.195-.137.25q-.686.407-1.374.809c.151.37.38.348.676.149s.631-.378.951-.562c.111-.062.234-.171.324,0s-.078.221-.181.277c-.347.209-.7.411-1.045.619-.123.073-.282.128-.141.332a.238.238,0,0,0,.371.073c.363-.221.731-.428,1.1-.643.1-.057.2-.128.286,0s-.035.195-.127.25c-.347.208-.7.413-1.043.62-.127.075-.275.133-.135.332.111.148.2.18.361.077.343-.221.7-.412,1.047-.615.093-.054.2-.138.281,0s-.029.2-.124.255c-.3.177-.6.356-.909.525-.138.076-.346.1-.23.332s.253.21.442.085c.308-.2.634-.374.951-.562.111-.066.213-.074.275.052s-.051.162-.125.207c-.3.179-.6.352-.9.532-.13.078-.332.119-.162.356.139.191.263.133.418.033a7.218,7.218,0,0,1,.715-.417c.125-.061.288-.3.409-.067.111.2-.164.246-.285.332-.228.155-.474.282-.712.421-.111.067-.229.13-.111.3.092.135.171.228.352.111.279-.179.569-.337.854-.505.111-.069.241-.149.324.018.07.141-.078.183-.164.237-.2.125-.428.221-.617.365-.127.1-.463.091-.29.4s.378.069.553-.018c.213-.111.41-.245.618-.363.094-.053.206-.119.272.033.049.111-.042.17-.117.221a5.714,5.714,0,0,1-.622.356c-.349.157-.332.332-.123.617.564.789.546.793,1.14-.006,3.026-4.083,6.145-8.093,9.3-12.072.094-.118.144-.3.343-.322.069.221-.1.349-.178.5-2.626,4.894-5.293,9.767-8.1,14.562a.815.815,0,0,0,.04,1.028c.839,1.209,1.585,2.479,2.3,3.766a.5.5,0,0,0,.5.332,3.806,3.806,0,0,1,4.1,4.845c.263.065.352-.158.468-.3a3.684,3.684,0,0,0,.806-2.244c.007-.177-.141-.442.282-.433.395.012.394.2.386.483a4.388,4.388,0,0,1-2.413,3.827,4.743,4.743,0,0,0-.721.5,3.82,3.82,0,0,1-5.825-4.786.6.6,0,0,0-.028-.774c-.652-.932-1.266-1.891-1.9-2.85-.694.995-1.366,1.99-2.065,2.951-.177.245-.058.4.046.59a3.8,3.8,0,0,1-2.779,5.643,3.578,3.578,0,0,1-3.7-1.585,3.626,3.626,0,0,1-.154-4.159,3.58,3.58,0,0,1,3.518-1.841.761.761,0,0,0,.852-.458,42.311,42.311,0,0,1,2.392-3.71.558.558,0,0,0,.042-.7c-2.892-5.062-5.369-10.349-8.272-15.406a1.32,1.32,0,0,1,.521-2.008c.426-.255.86-.5,1.286-.754.166-.1.282-.125.4.077s.145.319-.085.442c-.388.21-.765.442-1.145.663a2.619,2.619,0,0,0-.412.274c-.172.153-.332.406-.206.58.151.212.332-.055.485-.139.368-.2.734-.407,1.083-.638a.492.492,0,0,1,.482-.055c-.311.393-.794.493-1.164.762a4.664,4.664,0,0,1-.483.332c-.178.1-.238.191-.111.382s.246.094.37.021c.571-.332,1.14-.675,1.714-1,.111-.062.245-.25.368-.05s-.119.231-.221.291c-.533.332-1.079.632-1.616.954-.155.093-.421.135-.235.433.172.277.321.049.451-.023.562-.314,1.113-.648,1.669-.973.111-.063.245-.17.332-.014s-.087.213-.189.273c-.57.332-1.146.663-1.714,1-.126.075-.332.122-.179.364.135.221.27.122.411.04.553-.323,1.105-.654,1.668-.973.111-.064.261-.248.375-.07.149.232-.128.255-.243.332-.5.308-1.02.589-1.518.9-.141.088-.464.111-.306.411s.349.032.489-.04c.553-.284,1.089-.6,1.633-.9.1-.056.233-.2.332-.045.13.2-.092.241-.2.306-.456.275-.933.521-1.376.816-.177.118-.6.137-.454.457.195.428.465.042.67-.063.426-.221.822-.489,1.245-.713.154-.082.363-.346.5-.141.167.256-.192.284-.332.375-.43.281-.89.517-1.326.794-.136.087-.462.092-.286.408s.342.078.5-.011c.512-.291,1.015-.6,1.526-.884.1-.055.221-.2.332-.024s-.078.221-.179.282c-.442.266-.9.506-1.326.795-.156.111-.581.1-.379.449.213.368.442.017.641-.086.442-.231.856-.5,1.289-.745.092-.051.2-.221.325-.051.145.209-.077.246-.185.312-.487.294-.984.575-1.475.865-.111.069-.3.111-.161.319.117.183.231.186.407.077q.682-.421,1.382-.808c.126-.07.293-.3.416-.1.154.25-.161.274-.291.357-.387.248-.8.461-1.183.71-.124.08-.418.08-.277.364s.317.143.5.036c.411-.244.821-.493,1.244-.716.111-.061.267-.313.4-.073.111.209-.15.254-.274.332-.406.253-.823.486-1.231.735-.111.065-.318.085-.174.307a.253.253,0,0,0,.408.094c.452-.282.915-.546,1.376-.816.09-.052.193-.151.287-.023.119.166-.036.221-.143.284-.364.221-.739.413-1.089.652-.158.111-.568.116-.342.469.214.332.41-.017.59-.1A7.368,7.368,0,0,1,133.676,91.73Zm10.891,18.8a2.458,2.458,0,0,0-4.915-.1,2.458,2.458,0,1,0,4.915.1Zm-15.53-.193a2.455,2.455,0,1,0,2.431-2.425,2.443,2.443,0,0,0-2.431,2.425Zm6.806-7.06c.3-.514.573-.984.841-1.456.051-.088.171-.178.084-.288s-.23-.065-.355-.041a1.066,1.066,0,0,0-.57,1.785Zm.6.332c.934.036,1.494-.663,1.216-1.4-.036-.1-.06-.221-.183-.245s-.144.1-.187.172c-.276.472-.545.948-.846,1.477Z" transform="translate(-112.506 -74.242)"/></g></g></g></g><rect class="c" width="60" height="60" transform="translate(10 12.5)"/></g></svg>