<svg xmlns="http://www.w3.org/2000/svg" xmlns:xlink="http://www.w3.org/1999/xlink" width="35" height="35" viewBox="0 0 35 35"><defs><style>.a{fill:#e4e4e4;}.b{clip-path:url(#a);}.c,.d{fill:#fff;}.d{stroke:#707070;opacity:0;}.e{fill:#e1087e;}.f{stroke:none;}.g{fill:none;}</style><clipPath id="a"><rect class="a" width="35" height="35" transform="translate(528 139)"/></clipPath></defs><g class="b" transform="translate(-528 -139)"><g class="b"><g transform="translate(535.421 142.564)"><g transform="translate(0 0.01)"><path class="c" d="M9.963,27.532a28.632,28.632,0,0,1-3.474-3.2,27.947,27.947,0,0,1-4.056-5.492A20.167,20.167,0,0,1,.222,13.007,11.83,11.83,0,0,1,0,10.723C0,10.115,0,9.511.034,8.9A7.179,7.179,0,0,1,.463,6.949,9.975,9.975,0,0,1,6.028.853,9.958,9.958,0,0,1,9.056.05a9.589,9.589,0,0,1,1.891.014,9.027,9.027,0,0,1,2.38.486A10.01,10.01,0,0,1,19.9,7.907a10.392,10.392,0,0,1,.2,3.387,18.188,18.188,0,0,1-2.392,7.469,29.93,29.93,0,0,1-4.393,5.883,29.194,29.194,0,0,1-2.918,2.69c-.087.068-.179.131-.269.2ZM2.079,10a7.884,7.884,0,0,0,7.843,7.872A7.938,7.938,0,0,0,17.8,10.058,7.94,7.94,0,0,0,9.768,2.127,7.924,7.924,0,0,0,2.079,10Z" transform="translate(0 -0.01)"/><g transform="translate(4.056 4.877)"><g transform="translate(0.334 -0.14)"><g class="d"><rect class="f" width="11.38" height="11.38"/><rect class="g" x="0.5" y="0.5" width="10.38" height="10.38"/></g><g transform="translate(1.861 0.563)"><g transform="translate(0 0)"><path class="c" d="M42.3,159.588a3.512,3.512,0,0,1,.486-1.8,2.99,2.99,0,0,1,1.876-1.29.531.531,0,0,1,.624.188,8.046,8.046,0,0,0,1.087.9,5.527,5.527,0,0,1,1,.931,2.48,2.48,0,0,1,.346.6,1.536,1.536,0,0,1,.033,1.107,5.34,5.34,0,0,1-1.056,1.836,2.872,2.872,0,0,1-.851.708,1.642,1.642,0,0,1-1.851-.216A4.993,4.993,0,0,1,42.4,160.2,1.53,1.53,0,0,1,42.3,159.588Zm2.8,2.35c.024,0,.085,0,.144-.01a1.256,1.256,0,0,0,.6-.221c.024-.017.093-.044.038-.085a.781.781,0,0,0-.59-.243,1.291,1.291,0,0,1-.427,0,.647.647,0,0,0-.521.194c-.1.088-.113.085,0,.159A1.355,1.355,0,0,0,45.1,161.937Z" transform="translate(-41.278 -152.711)"/><path class="c" d="M0,31.392a4.179,4.179,0,0,1,.344-1.557,1.966,1.966,0,0,1,.573-.7,7.479,7.479,0,0,1,2.071-1.072,7.192,7.192,0,0,0,1.749-.882,2.7,2.7,0,0,0,.356-.32c.031-.034.058-.061.112-.048a2.318,2.318,0,0,1,1.248.668,1.545,1.545,0,0,1,.379,1.047.26.26,0,0,1-.114.233,2.726,2.726,0,0,1-.98.432c-.815.2-1.649.307-2.465.5a3.146,3.146,0,0,0-2.49,2.769,4.277,4.277,0,0,0-.043.466c0,.075-.022.081-.082.043a1.367,1.367,0,0,1-.578-.811A2.715,2.715,0,0,1,0,31.392Z" transform="translate(0 -26.169)"/><path class="c" d="M8.121,3.277a1.981,1.981,0,0,1,.035-.569,4.053,4.053,0,0,1,.744-1.7,2.53,2.53,0,0,1,1.88-1,3.788,3.788,0,0,1,1.415.1,1.7,1.7,0,0,1,.56.291c.066.051.062.084.007.138a3.841,3.841,0,0,1-1.042.7c-.568.277-1.173.464-1.747.726A5.883,5.883,0,0,0,8.7,2.693a2.739,2.739,0,0,0-.505.526C8.177,3.241,8.169,3.272,8.121,3.277Z" transform="translate(-7.919 0.012)"/><path class="c" d="M172.42,140.747a3.454,3.454,0,0,0-1.453-2,11.238,11.238,0,0,1-1.2-.988l-.095-.1c.259-.049.5-.1.744-.141.333-.062.668-.117,1-.2a.135.135,0,0,1,.112.015,2.429,2.429,0,0,1,1.131,1.43,3.814,3.814,0,0,1,.175,1.252.641.641,0,0,1-.132.4A3.114,3.114,0,0,1,172.42,140.747Z" transform="translate(-165.597 -134.008)"/><path class="c" d="M260.33,115.609a2.022,2.022,0,0,0,.677-.381c.06-.053.09-.016.127.024a1.963,1.963,0,0,1,.415.735,2.849,2.849,0,0,1,.112,1.638.906.906,0,0,1-.1.223A3.072,3.072,0,0,0,260.33,115.609Z" transform="translate(-254.081 -112.436)"/><path class="c" d="M179.168,265.24a1.609,1.609,0,0,1-1.588.108.89.89,0,0,0,1.588-.108Z" transform="translate(-173.318 -258.873)"/><path class="e" d="M125.218,361.453a1.364,1.364,0,0,1-.751-.2c-.117-.074-.108-.071,0-.159a.646.646,0,0,1,.521-.194,1.291,1.291,0,0,0,.427,0,.78.78,0,0,1,.59.243c.055.041-.013.067-.038.085a1.256,1.256,0,0,1-.6.221C125.3,361.45,125.243,361.451,125.218,361.453Z" transform="translate(-121.397 -352.227)"/><path class="e" d="M179.168,265.24a.89.89,0,0,1-1.588.108A1.609,1.609,0,0,0,179.168,265.24Z" transform="translate(-173.318 -258.873)"/><path class="e" d="M73.982,265.841a.814.814,0,0,1-.9.424.725.725,0,0,1-.677-.525A1.632,1.632,0,0,0,73.982,265.841Z" transform="translate(-70.662 -259.361)"/></g></g></g></g></g></g></g></g></svg>