<svg xmlns="http://www.w3.org/2000/svg" xmlns:xlink="http://www.w3.org/1999/xlink" width="35" height="35" viewBox="0 0 35 35"><defs><style>.a{fill:#e4e4e4;}.b{clip-path:url(#a);}.c{fill:#fff;}</style><clipPath id="a"><rect class="a" width="35" height="35" transform="translate(458 81)"/></clipPath></defs><g transform="translate(5.984 2.971)"><g class="b" transform="translate(-463.984 -83.971)"><g transform="translate(459.82 80.594)"><path class="c" d="M203.714.722A1.574,1.574,0,0,1,202.87,0h.844Z" transform="translate(-169.476)"/><path class="c" d="M31.7,37.587H.031A.965.965,0,0,1,0,37.4a27.408,27.408,0,0,1,.9-5.937,8.924,8.924,0,0,1,1.8-3.459A8.35,8.35,0,0,1,6.17,25.84c.586-.221,1.169-.461,1.76-.662a.424.424,0,0,0,.329-.487c-.091-2.766-.224-5.532-.219-8.3a17.61,17.61,0,0,1,1.073-6.358A7.451,7.451,0,0,1,11.824,6.4a7.3,7.3,0,0,1,3.737-1.213,8.923,8.923,0,0,1,4.421.681A6.859,6.859,0,0,1,23.417,9.5,15.608,15.608,0,0,1,24.6,14.417a50.641,50.641,0,0,1,.038,7.612c-.044.974-.087,1.947-.155,2.92-.021.284.094.389.362.486q1.372.46,2.686,1.051a6.413,6.413,0,0,1,3.264,3.948A19.162,19.162,0,0,1,31.7,35.7C31.727,36.309,31.7,36.931,31.7,37.587ZM10.123,24.532c-.087.011-.127,0-.153.02a21.041,21.041,0,0,1-3.854,1.661,7.214,7.214,0,0,0-4.662,4.673,21.8,21.8,0,0,0-.961,4.764c-.056.527-.076,1.057-.112,1.591H13.156A33.677,33.677,0,0,1,10.123,24.532Zm9.253,12.735H31c.2,0,.4.046.388-.263a25.652,25.652,0,0,0-.706-5.725,6.9,6.9,0,0,0-5.044-5.25c-.78-.232-1.541-.524-2.3-.795-.226-.078-.443-.175-.718-.287A34.94,34.94,0,0,1,19.376,37.268ZM10.756,12.8c-.03.264-.049.513-.089.759a3.99,3.99,0,0,1-.143.667,3.518,3.518,0,0,0-.082,2.135,1.16,1.16,0,0,0,.377.6.878.878,0,0,1,.352.53,8.691,8.691,0,0,0,1.481,3.027,4.787,4.787,0,0,0,2.925,1.913,4.3,4.3,0,0,0,4.081-1.488,8.34,8.34,0,0,0,1.858-3.5,1.423,1.423,0,0,1,.194-.367c.143-.218.388-.413.433-.645a5.649,5.649,0,0,0,.14-1.69c-.079-.662-.344-1.3-.387-1.979,0-.014-.031-.028-.067-.058-.255.071-.525.137-.79.22-.2.061-.306.015-.36-.178-.067-.237-.165-.461-.235-.7l-.076.012v1.062l-3.052.41c-.091-.472-.165-.874-.247-1.276a2.794,2.794,0,0,0-.234.922c-.021.294-.165.36-.451.34-.887-.061-1.774-.121-2.663-.161-.286-.014-.341-.121-.329-.367.023-.524,0-1.05,0-1.64-.207.533-.412,1.008-.578,1.494-.092.266-.206.369-.523.283C11.8,13,11.292,12.913,10.756,12.8Zm2.14,8.552a13.089,13.089,0,0,1-.2,1.6,9.014,9.014,0,0,0-.13,2.215,5.2,5.2,0,0,0,1.513,3.744,3.039,3.039,0,0,0,4.686-.037,5.148,5.148,0,0,0,1.4-3.747c0-.436.071-.876.031-1.308-.074-.816-.2-1.627-.314-2.439,0-.026-.033-.049-.064-.092A4.911,4.911,0,0,1,16.4,22.843,4.965,4.965,0,0,1,12.9,21.351Zm1.681,15.884c-.153-.493-.3-.962-.441-1.434a49.857,49.857,0,0,1-1.893-10.3,7.323,7.323,0,0,1,.137-2.735,3.259,3.259,0,0,0,.067-.566,1.565,1.565,0,0,0-1.975,1.5,26.437,26.437,0,0,0,.377,4.806,37.3,37.3,0,0,0,2.39,8.044C13.567,37.346,13.567,37.346,14.576,37.235Zm5.717-14.993c.038.254.077.49.109.727a12.138,12.138,0,0,1,.165,1.394c0,.512-.064,1.025-.105,1.537a48.3,48.3,0,0,1-2.1,10.724c-.063.2-.115.395-.173.593.714.141.8.118,1.016-.461.627-1.67,1.3-3.33,1.844-5.022a23.809,23.809,0,0,0,1.216-7.5,3.224,3.224,0,0,0-.28-1.266A1.457,1.457,0,0,0,20.293,22.243Z" transform="translate(0 -4.362)"/></g></g></g></svg>