<svg xmlns="http://www.w3.org/2000/svg" xmlns:xlink="http://www.w3.org/1999/xlink" width="35" height="35" viewBox="0 0 35 35"><defs><style>.a{fill:#e4e4e4;}.b{clip-path:url(#a);}.c{fill:#fff;stroke:#fff;stroke-width:0.5px;}</style><clipPath id="a"><rect class="a" width="35" height="35" transform="translate(528 200)"/></clipPath></defs><g transform="translate(-23.738 3.971)"><g transform="translate(29.21 0)"><g class="b" transform="translate(-533.473 -203.971)"><g transform="translate(504.094 204.368)"><g transform="translate(29.21 0)"><path class="c" d="M47.707,6.058a7.049,7.049,0,0,0-4.817.973,6.875,6.875,0,0,1,2-2.419A8.846,8.846,0,0,1,47,3.372a.772.772,0,0,0,.47-1.013A.834.834,0,0,0,46.4,1.911a10.378,10.378,0,0,0-3.769,2.62,5.14,5.14,0,0,0-.258-.852A7.651,7.651,0,0,0,38.685.072a.858.858,0,0,0-.639-.021.805.805,0,0,0-.461.423,7.12,7.12,0,0,0-.214,5.037,5.144,5.144,0,0,0,.3.613,7.135,7.135,0,0,0-2.562-.067,6.855,6.855,0,0,0-5.811,7.8A28.4,28.4,0,0,0,31.133,20.6a10.438,10.438,0,0,0,3.392,4.547,6.089,6.089,0,0,0,3.545,1.114,7.185,7.185,0,0,0,1.093-.086,5.06,5.06,0,0,0,2.244-.894,5.06,5.06,0,0,0,2.244.894,6.213,6.213,0,0,0,4.638-1.029A10.437,10.437,0,0,0,51.68,20.6a28.4,28.4,0,0,0,1.838-6.749A6.855,6.855,0,0,0,47.707,6.058Zm-8.892-4.1A5.288,5.288,0,0,1,40.845,4.24a5,5,0,0,1,.089,2.991A5.287,5.287,0,0,1,38.9,4.951,5,5,0,0,1,38.815,1.96ZM51.895,13.617c-.835,5.216-2.416,8.766-4.574,10.266a4.507,4.507,0,0,1-3.409.748,3.221,3.221,0,0,1-1.9-.936.848.848,0,0,0-1.206,0,3.221,3.221,0,0,1-1.9.936,4.508,4.508,0,0,1-3.409-.748c-2.158-1.5-3.74-5.05-4.574-10.266A5.273,5.273,0,0,1,35.367,7.6,5.493,5.493,0,0,1,36.2,7.54a5.349,5.349,0,0,1,3.163,1.033,3.5,3.5,0,0,0,4.08,0,5.361,5.361,0,0,1,4-.969h0A5.273,5.273,0,0,1,51.895,13.617Z" transform="translate(-29.21 0)"/></g></g></g></g></g></svg>