<svg xmlns="http://www.w3.org/2000/svg" xmlns:xlink="http://www.w3.org/1999/xlink" width="35" height="35" viewBox="0 0 35 35">
  <defs>
    <clipPath id="clip-path">
      <rect id="Rectangle_1697" data-name="Rectangle 1697" width="35" height="35" transform="translate(528 139)" fill="#e4e4e4"/>
    </clipPath>
  </defs>
  <g id="Nurse" transform="translate(-528 -139)" clip-path="url(#clip-path)">
    <g id="Layer_2" data-name="Layer 2" transform="translate(535.297 143.67)">
      <g id="Layer_1" data-name="Layer 1">
        <path id="Path_20979" data-name="Path 20979" d="M20.281,21.145v4.293c0,.666-.309.984-.969.985q-3.029,0-6.058,0a.858.858,0,0,1-.98-.98c0-1.032-.007-2.064,0-3.1,0-.207-.045-.293-.272-.288q-1.631.018-3.262,0c-.227,0-.277.077-.274.287.012.688.015,1.376,0,2.063-.005.242.053.329.311.324.677-.017,3.478-.041,4.154-.027.4.008.228.277.327.625.084.271,1.133,1.067.187,1.091H.884A.825.825,0,0,1,0,25.49q0-2.265,0-4.527V5.76C0,4.979.281,4.7,1.06,4.7c1.054,0,2.108-.009,3.162.005.271,0,.366-.064.359-.349-.015-1.1-.007-2.2-.006-3.295C4.576.308,4.877,0,5.617,0H8.579A.877.877,0,0,1,9.584,1c0,.6.006,1.2,0,1.8,0,.183.048.246.241.251.873.026.873.032.873-.849,0-.421-.006-.843,0-1.264a.85.85,0,0,1,.936-.925Q13.2,0,14.763,0a.861.861,0,0,1,.946.952c.005,1.132.01,2.263,0,3.4,0,.277.073.355.354.351,1.132-.015,2.263-.012,3.4,0a.805.805,0,0,1,.805.659.848.848,0,0,1-.448.952,1.093,1.093,0,0,1-.52.081c-1.076,0-2.153.009-3.228-.005-.267,0-.366.054-.359.343.017,1.109.007,2.219,0,3.328,0,.718-.317,1.025-1.042,1.025H11.7a.881.881,0,0,1-1.009-.994c-.006-.586-.01-1.177,0-1.764,0-.213-.053-.287-.278-.288-.838-.007-.838-.015-.838.82v1.264a.865.865,0,0,1-.973.961q-1.531.007-3.062,0a.861.861,0,0,1-.966-.964c0-1.132-.007-2.263.005-3.4,0-.248-.042-.351-.323-.343-.743.021-1.487.02-2.23,0-.272-.007-.346.077-.346.353q.015,5.258.007,10.517c0,2.38.006,4.759-.007,7.14,0,.286.085.347.354.345q2.214-.018,4.427,0c.282,0,.326-.1.323-.345-.011-1.021-.006-2.041,0-3.062a.858.858,0,0,1,.982-.974h5.258a.856.856,0,0,1,.952.943c.006,1.043.009,2.086,0,3.129,0,.232.064.3.293.3q2.013-.014,4.027,0c.242,0,.293-.083.293-.306-.008-1.718-.006-3.435-.006-5.152V5.54A.765.765,0,0,1,19.44,4.7a.751.751,0,0,1,.841.841v15.6ZM10.1,6.351V6.344c.443,0,.886,0,1.329,0a.868.868,0,0,1,.972.983c0,.586.012,1.176-.006,1.763-.007.24.073.3.3.293.354-.018.709-.013,1.064,0,.185.007.248-.048.247-.241q-.009-3.6,0-7.207c0-.172-.051-.236-.227-.232-.366.01-.732.016-1.1,0-.216-.01-.293.054-.286.276.014.586.021,1.176,0,1.763-.025.732-.308,1-1.025,1-.841,0-1.684,0-2.521,0A.852.852,0,0,1,7.9,3.867c-.03-.619-.026-1.245-.017-1.861,0-.22-.042-.319-.288-.3a8.792,8.792,0,0,1-1.03,0c-.24-.014-.293.073-.293.3.01,1.361,0,2.723.005,4.084,0,1,.009,2,0,3,0,.238.067.307.3.293.343-.018.688-.013,1.031,0,.208.008.293-.048.283-.275-.016-.609-.008-1.219,0-1.83a.837.837,0,0,1,.891-.925C9.214,6.339,9.657,6.351,10.1,6.351Z" fill="#fff"/>
        <path id="Path_20980" data-name="Path 20980" d="M205.611,225.868a1.179,1.179,0,0,1-1.151,1.062,1.161,1.161,0,0,1-1.14-1.151,1.147,1.147,0,1,1,2.291.089Z" transform="translate(-188.433 -208.192)" fill="#fff"/>
        <path id="Path_20981" data-name="Path 20981" d="M98.222,225.638a1.151,1.151,0,1,1-1.158-1.158A1.151,1.151,0,0,1,98.222,225.638Z" transform="translate(-88.897 -208.044)" fill="#fff"/>
        <path id="Path_20982" data-name="Path 20982" d="M149.679,225.644a1.154,1.154,0,1,1,.332.824A1.151,1.151,0,0,1,149.679,225.644Z" transform="translate(-138.72 -208.072)" fill="#fff"/>
        <path id="Path_20983" data-name="Path 20983" d="M44.527,225.747a1.151,1.151,0,1,1-1.147-1.138,1.139,1.139,0,0,1,1.147,1.138Z" transform="translate(-39.133 -208.164)" fill="#fff"/>
        <path id="Path_20984" data-name="Path 20984" d="M98.214,173.811a1.154,1.154,0,1,1-.329-.824A1.151,1.151,0,0,1,98.214,173.811Z" transform="translate(-88.89 -160)" fill="#fff"/>
        <path id="Path_20985" data-name="Path 20985" d="M151.95,173.833a1.15,1.15,0,1,1-1.123-1.158A1.15,1.15,0,0,1,151.95,173.833Z" transform="translate(-138.693 -160.033)" fill="#fff"/>
        <path id="Path_20986" data-name="Path 20986" d="M43.376,172.891a1.126,1.126,0,0,1,1.135,1.142,1.151,1.151,0,1,1-2.3-.03,1.128,1.128,0,0,1,1.167-1.112Z" transform="translate(-39.118 -160.232)" fill="#fff"/>
        <path id="Path_20987" data-name="Path 20987" d="M205.611,174.069a1.152,1.152,0,1,1-1.155-1.12A1.152,1.152,0,0,1,205.611,174.069Z" transform="translate(-188.421 -160.286)" fill="#fff"/>
        <path id="Path_20988" data-name="Path 20988" d="M43.342,278.52a1.163,1.163,0,0,1-1.144-1.181,1.205,1.205,0,0,1,1.232-1.13A1.18,1.18,0,0,1,44.5,277.39,1.158,1.158,0,0,1,43.342,278.52Z" transform="translate(-39.108 -255.985)" fill="#fff"/>
        <path id="Path_20989" data-name="Path 20989" d="M205.7,277.8a1.148,1.148,0,0,1-2.295-.089,1.114,1.114,0,0,1,1.191-1.078,1.128,1.128,0,0,1,1.1,1.166Z" transform="translate(-188.515 -256.377)" fill="#fff"/>
        <path id="Path_20990" data-name="Path 20990" d="M89.5,27.851c-.439,0-.885-.012-1.327,0a.838.838,0,0,0-.891.925c0,.61-.012,1.22,0,1.83.006.227-.073.283-.283.275-.343-.013-.688-.018-1.031,0-.231.012-.3-.057-.3-.293.013-1,0-2,0-3,0-1.361,0-2.723-.005-4.084,0-.228.053-.316.293-.3a8.791,8.791,0,0,0,1.03,0c.247-.015.293.082.288.3-.009.62-.013,1.245.017,1.861a.853.853,0,0,0,.946.873c.841,0,1.68.009,2.521,0,.72,0,1-.272,1.025-1,.02-.586.012-1.171,0-1.763-.005-.22.073-.286.286-.276.366.017.732.011,1.1,0,.176,0,.227.06.227.232q-.006,3.6,0,7.207c0,.193-.063.247-.247.241-.354-.012-.71-.016-1.064,0-.226.01-.308-.051-.3-.293.018-.586.007-1.176.006-1.763a.867.867,0,0,0-.972-.983c-.443-.005-.886,0-1.329,0Z" transform="translate(-79.397 -21.5)" fill="none"/>
      </g>
    </g>
  </g>
</svg>
