<svg xmlns="http://www.w3.org/2000/svg" xmlns:xlink="http://www.w3.org/1999/xlink" width="35" height="35" viewBox="0 0 35 35"><defs><style>.a{fill:#e4e4e4;}.b{clip-path:url(#a);}.c{fill:#fff;}</style><clipPath id="a"><rect class="a" width="35" height="35" transform="translate(528 262)"/></clipPath></defs><g transform="translate(0.113 -7.124)"><g class="b" transform="translate(-528.113 -254.876)"><path class="c" d="M33.908,33.447H31.847a3.359,3.359,0,0,0,1.085-1.866,4.544,4.544,0,0,0,.008-1.628,5.869,5.869,0,0,1,.041-2.132h0a1.4,1.4,0,0,0-.316-1.452c-.43-.378-1.133-.394-2.088-.047a2.393,2.393,0,0,0-.8.488,3.823,3.823,0,0,0-4.6,1.53,7.9,7.9,0,0,0-2.4-1.048.509.509,0,0,0-.257.985,6.752,6.752,0,0,1,2.193.976c-.016.043-.031.086-.045.129a3.68,3.68,0,0,0-.177,1.527,4.21,4.21,0,0,0,1.173,2.538h-4.98V31.864h1.353a.509.509,0,0,0,0-1.018H16.166v-1.9a1.887,1.887,0,0,0,.192-.1,7.7,7.7,0,0,1,3.884-.869h.008a.509.509,0,0,0,.008-1.018,10.5,10.5,0,0,0-1.7.11V24.363a4.293,4.293,0,0,0,1.207-1.329,3.818,3.818,0,0,0,.541-2.146c.006-.134.012-.281.02-.445,0,0,0-.009,0-.014s0-.009,0-.013V19.167a2.688,2.688,0,0,0-2.685-2.685h-.178a4.068,4.068,0,0,0,1.258-2.669V12.769a4.441,4.441,0,0,0-1.215-3.224,3.872,3.872,0,0,0-2.7-1.132h-.016a3.875,3.875,0,0,0-2.7,1.132,4.439,4.439,0,0,0-1.216,3.224v1.044a4.068,4.068,0,0,0,1.259,2.669h-.179A2.627,2.627,0,0,0,9.613,17.9L6.649,22.708c-.335-.6-1.166-1.9-2.149-1.972a.984.984,0,0,0-.845.241.928.928,0,0,0-.136.844L4.236,25.9a1.262,1.262,0,0,0,.353.842,1.087,1.087,0,0,0,.872.137l.233-.024a5.763,5.763,0,0,1,2.879.463,8.583,8.583,0,0,1,1.141.635v2.728H5.572c-.6,0-.615-.034-.692-.2-.1-.211-1.009-2.065-2.249-2.16a.983.983,0,0,0-.847.241.919.919,0,0,0-.134.848l.705,4.027H.834A.835.835,0,0,0,0,34.281v3.99a.836.836,0,0,0,.834.836H2.1v.945a1.965,1.965,0,0,0,1.963,1.963H30.677a1.965,1.965,0,0,0,1.963-1.963v-.945h1.268a.837.837,0,0,0,.836-.836v-3.99A.836.836,0,0,0,33.908,33.447Zm-3.571-3.026a2.987,2.987,0,0,1-.23-2.349,1.386,1.386,0,0,1,.819-.794,2.6,2.6,0,0,1,.848-.188.387.387,0,0,1,.22.043c.017.015.068.139-.005.465h0a6.9,6.9,0,0,0-.059,2.471,3.745,3.745,0,0,1,.012,1.275c-.289,1.214-.992,1.8-2.651,2.009l.013-.011C30.712,32.127,30.642,31.082,30.337,30.421Zm-4.846.38a2.655,2.655,0,0,1,.131-1.1,3.061,3.061,0,0,1,2.458-2.109,2.908,2.908,0,0,1,1.086.09,3.972,3.972,0,0,0,.246,3.164c.5,1.079-1.4,2.226-2,2.556a3.054,3.054,0,0,1-1.923-2.6Zm-5.837,1.063v1.583h-4.43a.793.793,0,0,1,.076-1.583Zm-2.116-4.587a6.921,6.921,0,0,0-1.693.689l-.027.016c-.057-.067-.13-.161-.2-.248-.083-.106-.186-.238-.31-.39a10.833,10.833,0,0,0-1.03-1.062l2.8-1.131c.146-.059.3-.125.454-.2v2.323Zm-4.42-1.623a.631.631,0,0,1-.468-1.173l.014-.006,2.571-1.114.6,1.195ZM14.8,9.43a2.943,2.943,0,0,1,2.864,2.724c-1.112-.212-3.38-.666-3.644-.734h0a1.639,1.639,0,0,0-.411-.055A1.889,1.889,0,0,0,12.5,11.8a2.826,2.826,0,0,1-.56.328A2.942,2.942,0,0,1,14.8,9.43Zm-2.905,4.383v-.607a3.225,3.225,0,0,0,1.184-.568c.334-.232.441-.3.686-.233h0c.183.047,2.822.587,3.939.793v.615a3.532,3.532,0,0,1-1.986,2.7l-.047.021c-.063.029-.127.056-.192.08a1.935,1.935,0,0,1-.679.14,1.96,1.96,0,0,1-.679-.139c-.062-.023-.123-.049-.185-.077a.517.517,0,0,0-.05-.023,3.534,3.534,0,0,1-1.992-2.706Zm4.08,3.7v.153A1.269,1.269,0,0,1,14.8,19.014a1.27,1.27,0,0,1-1.176-1.344v-.153q.072.03.145.058a2.725,2.725,0,0,0,2.062,0Q15.9,17.547,15.973,17.517Zm-5.494.912a1.607,1.607,0,0,1,1.477-.93h.649v.17A2.285,2.285,0,0,0,14.8,20.032a2.284,2.284,0,0,0,2.192-2.361V17.5h.649a1.669,1.669,0,0,1,1.667,1.667V20.4c-.008.162-.015.308-.02.442a2.822,2.822,0,0,1-.406,1.681,3.945,3.945,0,0,1-2.1,1.648l-.62-1.226a2.277,2.277,0,0,0,.644-.5.5.5,0,0,0,.067-.087l.614-1.01a.509.509,0,0,0-.87-.529l-.584.962a1.4,1.4,0,0,1-.576.376l-3.195,1.384a1.632,1.632,0,0,0-.707.551,6.54,6.54,0,0,0-1.45-.571l1.036-1.685a.509.509,0,1,0-.867-.533L9.049,23.3c-.492-.079-.985-.129-1.463-.167ZM7.138,25.877a6.917,6.917,0,0,0-1.537-.03c-.093.008-.306.031-.335.034-.01-.055-.719-4.1-.719-4.1a3.951,3.951,0,0,1,1.34,1.66.975.975,0,0,0,.659.634c.317.041.547.034.652.041l.409.032Zm3.594,2.891a3.991,3.991,0,0,1,1.186,1.744,3.8,3.8,0,0,1-1.186.156ZM6.462,31.7H9.667c1.976,0,2.656-.117,3.031-.52a.914.914,0,0,0,.239-.709c-.064-.939-1.36-2.884-3.938-4.076a6.026,6.026,0,0,0-.863-.316l.494-1.821a6.8,6.8,0,0,1,2.6.817,1.649,1.649,0,0,0,1.96,1.608,10.7,10.7,0,0,1,1.328,1.3c.116.142.211.264.295.371a4.243,4.243,0,0,0,.331.392v2.1a1.81,1.81,0,0,0-1.479,2.594H6.462Zm-2.5-.78a1.411,1.411,0,0,0,1.484.779v1.743H3.389l-.713-4.072a3.49,3.49,0,0,1,1.283,1.55Zm29.767,7.164H18.587a.509.509,0,1,0,0,1.018H31.622v.945a.946.946,0,0,1-.945.945H4.066a.946.946,0,0,1-.945-.945v-.945H16.348a.509.509,0,1,0,0-1.018H1.018V34.465H33.726Z" transform="translate(528.256 254.587)"/></g></g></svg>