<svg xmlns="http://www.w3.org/2000/svg" xmlns:xlink="http://www.w3.org/1999/xlink" width="42.668" height="42.082" viewBox="0 0 42.668 42.082">
  <defs>
    <linearGradient id="linear-gradient" x1="1.264" y1="-0.461" x2="0.031" y2="0.853" gradientUnits="objectBoundingBox">
      <stop offset="0" stop-color="#0095eb"/>
      <stop offset="1" stop-color="#46c0ff"/>
    </linearGradient>
  </defs>
  <g id="boxing" transform="translate(0)">
    <path id="Path_20484" data-name="Path 20484" d="M8-495.3v.7h9.118v2.1H13.786c-3.182,0-3.34.009-3.5.167a1,1,0,0,0-.219.465c-.044.281-.57,9.407-.772,13.265-.132,2.578-.132,11.029,0,13.764.175,3.63.6,9.293.772,10.284a1,1,0,0,0,.219.465c.167.166.351.166,7.531.166,7.25,0,7.364,0,7.54-.175.219-.219.228-.5.009-2.858-.149-1.587-.228-2.683-.491-6.724l-.053-.763h1.938c1.771,0,1.946-.018,2.1-.167a1,1,0,0,0,.2-.28c.026-.088.526-.062,2.621.166,2.762.307,3.156.324,3.4.193a6.971,6.971,0,0,0,.8-1.657,9.006,9.006,0,0,1,.9-1.894l.281-.324.552.745.544.745v.886c0,.824-.009.885-.175.885a.606.606,0,0,0-.351.175c-.158.158-.175.289-.175,1.613v1.438l-1.052,2.455L35.354-457v2.385h3.112c2.99,0,3.13.009,3.481.184.289.149.368.158.43.062a.4.4,0,0,0,.079-.184,37.968,37.968,0,0,1,4.787.026c.061.061.3.052.736-.044a5.665,5.665,0,0,0,.684-.175c.026-.026-.281-1.648-.666-3.612l-.719-3.577v-1.429c0-1.306-.018-1.438-.175-1.6a.606.606,0,0,0-.351-.175c-.167,0-.175-.061-.175-1.14,0-.964.263-4.55.395-5.392l.044-.263h.85a2.2,2.2,0,0,0,1.236-.2,2.844,2.844,0,0,0,1.552-2.209,3.9,3.9,0,0,0-.21-1.517c-.421-1.657-.535-1.78-2.99-3.183a21.5,21.5,0,0,1-2.13-1.324,2.985,2.985,0,0,0-3.612-.193,2.964,2.964,0,0,1-.6.324c-.868-1.122-1.9-2.586-3.025-4.278-.789-1.184-1.49-2.2-1.569-2.262a.987.987,0,0,0-.447-.105,52.719,52.719,0,0,0-6.207,2.341c-.228.307-.132.745.289,1.385a9,9,0,0,0,.64.868,2.431,2.431,0,0,0,1.438.666.946.946,0,0,1,.324.026c0,.018-.158.5-.351,1.07-.57,1.7-.473,2.06.6,2.06h.6l.158.491c.149.482.149.491-.018.675a3.361,3.361,0,0,0-.64,1.42,3.5,3.5,0,0,0-.026,1.99c.132.395.132.412-.088.745a3.481,3.481,0,0,0-.465,2.63l.123.465h-.491a14.756,14.756,0,0,0-1.692.254,5.3,5.3,0,0,1-1.21.175.616.616,0,0,0-.175-.254c-.158-.158-.289-.175-1.473-.175H26.1l-.254-.745c-.263-.772-.579-1.175-1.017-1.315l-.193-.061.053-2.165c.1-3.419.21-6,.535-11.511.368-6.137.368-6.234.132-6.47-.167-.167-.289-.175-3.507-.175H18.521v-2.1H28.34V-496H8Zm16.044,4.577a5.712,5.712,0,0,1-.053.7l-.061.333H11.419v-.245c0-.132.026-.447.053-.7l.061-.456H24.044Zm12.651,6.812a14.067,14.067,0,0,1,.815,1.306,2.422,2.422,0,0,1-.885-.4,4.812,4.812,0,0,1-.57-.622c-.465-.587-.6-.579-2.13.035a7.713,7.713,0,0,1-1.5.482.9.9,0,0,1-.772-.508,24.893,24.893,0,0,1,4.147-1.6C35.836-485.2,36.239-484.6,36.695-483.91ZM35.476-482.1a3.671,3.671,0,0,0,2.744.973l.359-.044.982,1.3a11.717,11.717,0,0,0,1.1,1.359c.307.114.544.026,1.333-.491.982-.649,1.482-.745,2.113-.43.438.228.649.552.894,1.359.631,2.1.728,3.972.395,7.531-.14,1.508-.228,3-.228,3.919v1.49H39.562v-2.341l-.719-.947-.71-.956.219-.394a4.093,4.093,0,0,0,.508-2.052c0-.693,0-.7.351-1.078.421-.456.465-.807.132-1.131s-.675-.289-1.131.131l-.377.351h-1.78v1.4h1.4v.377a2.241,2.241,0,0,1-.71,1.718,5.927,5.927,0,0,0-2.174,3.183,2.872,2.872,0,0,1-.491.947c-.07,0-1.166-.123-2.455-.263s-2.393-.263-2.464-.263c-.105,0-.123-.149-.105-.807l.026-.807,1.4-.289a12.537,12.537,0,0,1,2.218-.289c.745,0,.833-.018,1.026-.219.184-.175.219-.289.219-.763a3.227,3.227,0,0,0-.132-.9,2.358,2.358,0,0,1,.517-2.332c.359-.535.395-.833.14-1.149-.333-.43-.368-.666-.21-1.376.21-.965.412-1.14,1.7-1.455a11.2,11.2,0,0,0,1.166-.324,7.173,7.173,0,0,0,.921-1.692,11.3,11.3,0,0,0-1.192-.57,1.606,1.606,0,0,0-.324.526c-.263.552-.359.614-1.184.754l-.307.053-.245-.754c-.272-.833-.447-1.017-.956-1.017h-.324l.219-.631a4.359,4.359,0,0,0,.21-1.087v-.456l.552-.219c.3-.131.544-.228.552-.237S35.248-482.323,35.476-482.1Zm12.292,4.945c.736.421,1.043.754,1.175,1.263.053.2.132.509.184.675.324,1.227-.526,2.13-1.666,1.788l-.421-.123-.053-1.245a15.175,15.175,0,0,0-.237-2.087c-.1-.456-.175-.868-.175-.9s.132,0,.289.1S47.426-477.361,47.768-477.16Zm-1.894,14.124v.7H38.86v-1.4h7.014ZM23.9-456.443c.026.158.061.473.088.7l.053.421H17.767c-4.936,0-6.269-.026-6.295-.114a4.38,4.38,0,0,1-.088-.7l-.061-.587H23.86Z" transform="translate(-8 496)" fill="url(#linear-gradient)"/>
    <path id="Path_20485" data-name="Path 20485" d="M377.747-290.719c-.289.149-.535.272-.552.289a4.585,4.585,0,0,0,.237.6,15.2,15.2,0,0,1,1.236,7.136c-.053.622-.114,1.245-.14,1.4-.053.3-.044.307.894.421.535.07.5.175.658-1.692a16.292,16.292,0,0,0-.631-5.927,10.941,10.941,0,0,0-1.07-2.507A4.1,4.1,0,0,0,377.747-290.719Z" transform="translate(-337.466 312.041)" fill="url(#linear-gradient)"/>
  </g>
</svg>
