<svg xmlns="http://www.w3.org/2000/svg" xmlns:xlink="http://www.w3.org/1999/xlink" width="29.379" height="48.219" viewBox="0 0 29.379 48.219">
  <defs>
    <linearGradient id="linear-gradient" x1="1.264" y1="-0.461" x2="0.031" y2="0.853" gradientUnits="objectBoundingBox">
      <stop offset="0" stop-color="#0095eb"/>
      <stop offset="1" stop-color="#46c0ff"/>
    </linearGradient>
  </defs>
  <g id="dancing" transform="translate(0)">
    <path id="Path_20486" data-name="Path 20486" d="M116.4-511.813a2.27,2.27,0,0,0-1.328,2.232,2.751,2.751,0,0,0,.2.81l.141.292-.377.254a4.311,4.311,0,0,0-1.234,1.62,2.714,2.714,0,0,0-.217,1.394,2.7,2.7,0,0,0,.292,1.564,4.906,4.906,0,0,0,.735,1.074c.358.386.433.518.433.82v.358h-4.521v-2.289c0-2.185-.009-2.308-.207-2.7a2.581,2.581,0,0,0-.575-.7c-.339-.273-.424-.292-1.093-.292a1.641,1.641,0,0,0-1.62.782l-.226.339-.028,3.768c-.028,4.2-.019,4.257.584,4.879.64.659.754.688,3.617.716l2.562.028v.546a2.388,2.388,0,0,0,1.319,2.242c.311.179.33.217.537,1.215.113.565.207,1.083.217,1.14,0,.094-.527.122-2.336.122-2.637,0-3,.057-3.72.612a2.985,2.985,0,0,0-.678.753c-.141.226-.98,2.609-1.874,5.293l-1.63,4.879-2.543,1.46c-1.4.8-2.618,1.516-2.7,1.592a.854.854,0,0,0,.057,1.045.928.928,0,0,0,.254.188c.028,0,1.554.17,3.381.377,3.8.433,3.984.443,4.191.207.075-.085,1.1-2.562,2.279-5.51s2.157-5.341,2.185-5.341c.075,0,6.066,2.449,6.141,2.505.019.019-.358,1.309-.838,2.882s-.885,3.052-.914,3.3a3.117,3.117,0,0,0,.056.885c.066.245.735,2.063,1.488,4.031s1.422,3.749,1.5,3.937l.122.358h-1.469l-1.752-4.229-1.761-4.22v-3.165c0-3.146,0-3.165-.207-3.4a1.008,1.008,0,0,0-.518-.3.492.492,0,0,0-.537.179l-.245.245v3.183a24.822,24.822,0,0,0,.122,3.655c.066.264.876,2.289,1.8,4.5l1.686,4.031-1.432,1.441c-1.281,1.3-1.422,1.479-1.422,1.771a.817.817,0,0,0,.188.527c.2.207.217.207,3.579.207,3.268,0,3.4-.01,3.579-.188s.188-.311.188-1.969v-1.771l-1.742-4.568c-.961-2.515-1.742-4.709-1.742-4.87a65.137,65.137,0,0,1,1.893-6.235,1.89,1.89,0,0,1,.49-.122,4,4,0,0,0,1.865-1.064,4.889,4.889,0,0,0,.678-1.045,2.613,2.613,0,0,0,.3-1.526c-.009-1.055-.066-1.224-1.159-3.052a5.381,5.381,0,0,0-.98-1.366c-.254-.141-.264-.179-.264-.885,0-.443.038-.725.094-.725a.762.762,0,0,0,.33-.236c.235-.226.235-.254.235-1.884v-1.648h3.758l.028,2.327c.028,2.261.038,2.345.254,2.732a1.863,1.863,0,0,0,3.315-.094c.179-.339.179-.556.16-4.2l-.028-3.852-.283-.4a3.489,3.489,0,0,0-.7-.7l-.405-.283-4.182-.028-4.182-.028v-.348a.751.751,0,0,1,.292-.64,3.9,3.9,0,0,0,1.027-1.648,3.806,3.806,0,0,0-1.3-4.173l-.377-.254.151-.292a2.647,2.647,0,0,0,.113-1.63,2.477,2.477,0,0,0-1.168-1.375A3.131,3.131,0,0,0,116.4-511.813Zm1.827,6.047,1.337.433v.348a2.5,2.5,0,0,1-.8,1.564,2.224,2.224,0,0,1-2.939-.085,2.082,2.082,0,0,1-.782-1.582v-.452l.641-.32a3.4,3.4,0,0,1,.914-.339A11.3,11.3,0,0,1,118.229-505.766Zm-9.391-.151c.17.094.179.226.179,2.769s.009,2.675.2,2.92c.17.217.264.245.754.245h.556v1.6h-.895c-.829,0-.923-.019-1.13-.236l-.235-.226v-3.485c0-3.221.009-3.495.17-3.579C108.631-506.03,108.622-506.03,108.838-505.917Zm9.221,4.992c0,.48-.038.612-.235.8a.734.734,0,0,1-.518.235.734.734,0,0,1-.518-.235c-.2-.188-.235-.32-.235-.8v-.565h1.507Zm9.362,1.074a.691.691,0,0,1,.424.433,56,56,0,0,1,.009,6.885.442.442,0,0,1-.64.066,12.068,12.068,0,0,1-.113-2.779v-2.675l-.235-.226c-.188-.2-.32-.235-.754-.235h-.518v-1.6h.754A3.612,3.612,0,0,1,127.422-499.851Zm-12.141.16a2.475,2.475,0,0,0,1.027,1.045,2.5,2.5,0,0,0,2,.009c.414-.217,1.074-.914,1.074-1.13,0-.094.471-.122,2.355-.122h2.355v1.507h-1.648c-1.629,0-1.658,0-1.884.235l-.235.226v2.072a16.585,16.585,0,0,0,.094,2.317.643.643,0,0,0,.377.339c.283.1.283.1.283.848v.744h-1.648l-.414-1.177c-.443-1.272-.754-1.686-1.338-1.809a.631.631,0,0,1-.424-.32c-.188-.367-.4-.462-1.074-.462-.518,0-.612-.028-.857-.273-.264-.273-.273-.3-.273-1.281,0-.932-.019-1.008-.235-1.224s-.273-.235-1.507-.235h-1.272v-1.507h1.592C115.158-499.889,115.224-499.879,115.281-499.691Zm5.633,9.946c.122.2.433.716.688,1.149a2.156,2.156,0,0,1,.462,1.516,1.7,1.7,0,0,1-.283,1.187,2.548,2.548,0,0,1-.744.744,1.684,1.684,0,0,1-1.177.283c-.706,0-.744-.019-4.154-1.451-1.893-.8-3.56-1.451-3.7-1.451a.69.69,0,0,0-.443.179c-.094.094-.885,1.959-1.752,4.135s-1.582,3.975-1.6,3.994a3.234,3.234,0,0,1-.678-.226l-.659-.254,1.535-4.6c.848-2.534,1.611-4.728,1.7-4.879a1.784,1.784,0,0,1,.509-.48c.33-.188.443-.2,5.209-.2H120.7ZM106.8-478.451a5.064,5.064,0,0,1,.744.33,4.2,4.2,0,0,1-.509,1.526,31.751,31.751,0,0,1-3.956-.405c0-.066,2.845-1.686,2.967-1.7A7.084,7.084,0,0,1,106.8-478.451Zm13.61,12.518v.8h-3.626l.8-.8.8-.8h2.025Z" transform="translate(-99.973 511.939)" fill="url(#linear-gradient)"/>
  </g>
</svg>
