<svg xmlns="http://www.w3.org/2000/svg" xmlns:xlink="http://www.w3.org/1999/xlink" width="35" height="35" viewBox="0 0 35 35">
  <defs>
    <clipPath id="clip-path">
      <rect id="Rectangle_1702" data-name="Rectangle 1702" width="35" height="35" transform="translate(528 448)" fill="#e4e4e4"/>
    </clipPath>
  </defs>
  <g id="shopping-cart" transform="translate(3.984 6)">
    <g id="Shop" transform="translate(-531.984 -454)" clip-path="url(#clip-path)">
      <g id="Layer_2" data-name="Layer 2" transform="translate(533.512 452.305)">
        <g id="Layer_1" data-name="Layer 1">
          <path id="Path_21708" data-name="Path 21708" d="M4.268,0H20.682a8.385,8.385,0,0,1,1.2.381,4.035,4.035,0,0,1,2.438,3.813c.03,2.819.009,5.637.006,8.456a.338.338,0,0,0,.2.362.81.81,0,0,1,.036,1.425.413.413,0,0,0-.241.451q.006,4.644,0,9.288a4.157,4.157,0,0,1-4.216,4.216H4.808a3.879,3.879,0,0,1-1.915-.468,4.083,4.083,0,0,1-2.245-3.8q-.005-4.644,0-9.288c0-.144.02-.275-.167-.355A.757.757,0,0,1,0,13.74a.776.776,0,0,1,.475-.748.269.269,0,0,0,.176-.3c-.005-.98,0-1.959,0-2.939,0-1.941-.042-3.883.023-5.822A3.91,3.91,0,0,1,3.071.391,8.941,8.941,0,0,1,4.268,0ZM16.981,14.591c-.024.082-.049.16-.069.239a4.556,4.556,0,0,1-8.852,0c-.052-.211-.133-.257-.33-.257-1.71.007-3.419,0-5.129,0H2.323v9.631a2.473,2.473,0,0,0,2.455,2.514c1.007.023,2.015,0,3.021.008a.208.208,0,0,0,.245-.187,4.449,4.449,0,0,1,3.945-3.435,4.522,4.522,0,0,1,4.838,3.064c.059.181.105.366.159.556h.265c1.007,0,2.015,0,3.022-.009a2.111,2.111,0,0,0,.517-.083A2.475,2.475,0,0,0,22.648,24.1q.007-4.616,0-9.232c0-.088-.011-.177-.017-.278Zm0-1.7h5.667v-8.3c0-.222,0-.444-.017-.667a2.362,2.362,0,0,0-2.041-2.192c-1.193-.082-2.4-.019-3.617-.019-.008.024-.03.083-.046.143A4.454,4.454,0,0,1,12.973,5.28a4.511,4.511,0,0,1-4.92-3.391c-.046-.186-.115-.232-.292-.231-.952.007-1.9,0-2.856,0A2.493,2.493,0,0,0,2.322,4.249q0,4.172,0,8.344c0,.1.009.194.014.287a.755.755,0,0,0,.111.021q2.675,0,5.35.006c.191,0,.218-.1.255-.247a4.559,4.559,0,0,1,8.774-.324c.058.182.1.369.156.551Zm-1.766.006a2.844,2.844,0,0,0-3.085-2.025c-1.084.1-2.337,1.173-2.354,2.025Zm-5.464,1.7a2.846,2.846,0,0,0,5.462,0Zm0-12.915a2.747,2.747,0,0,0,2.727,1.955,2.742,2.742,0,0,0,2.734-1.955Zm.011,25.044h5.445A2.744,2.744,0,0,0,12.4,24.764a2.7,2.7,0,0,0-2.636,1.953Z" fill="#fafcfc"/>
        </g>
      </g>
    </g>
  </g>
</svg>
