<svg xmlns="http://www.w3.org/2000/svg" xmlns:xlink="http://www.w3.org/1999/xlink" width="35" height="35" viewBox="0 0 35 35">
  <defs>
    <clipPath id="clip-path">
      <rect id="Rectangle_1702" data-name="Rectangle 1702" width="35" height="35" transform="translate(528 448)" fill="#e4e4e4"/>
    </clipPath>
  </defs>
  <g id="shopping-cart" transform="translate(3.984 6)">
    <g id="Shop" transform="translate(-531.984 -454)" clip-path="url(#clip-path)">
      <g id="Layer_3" data-name="Layer 3" transform="translate(523.436 443.021)">
        <path id="Path_11421" data-name="Path 11421" d="M21.74,13.048h0m-.331.271L25.452,16.7l4.508,3.817v13.33H12.6V20.622c1.5-1.232,6.627-5.56,8.806-7.349m0-1.653a1.022,1.022,0,0,0-.616.21c-1.954,1.608-7.845,6.537-9.332,7.8a.947.947,0,0,0-.361.736V34.373a.977.977,0,0,0,.977.977H30.486a.977.977,0,0,0,.977-.977V20.321a1.037,1.037,0,0,0-.346-.751L22.1,11.891a.992.992,0,0,0-.631-.225Z" transform="translate(1.353 1.599)" fill="#fafdff"/>
        <line id="Line_10" data-name="Line 10" y1="12.053" x2="14.277" transform="translate(8.41 8.44)" fill="none" stroke="#fafdff" stroke-linecap="round" stroke-width="1.5"/>
        <line id="Line_11" data-name="Line 11" x1="14.277" y1="12.053" transform="translate(22.777 8.44)" fill="none" stroke="#fafdff" stroke-linecap="round" stroke-width="1.5"/>
        <path id="Path_11422" data-name="Path 11422" d="M22.34,10.768l2.374,2V9.761a.331.331,0,0,0-.331-.331H22.671a.331.331,0,0,0-.331.331Z" transform="translate(7.004 0.498)" fill="#fafdff"/>
        <g id="Group_27036" data-name="Group 27036" transform="translate(-1206.436 -6.916)">
          <path id="Rectangle_6459" data-name="Rectangle 6459" d="M2.5,0h0A2.5,2.5,0,0,1,5,2.5V3.75A1.25,1.25,0,0,1,3.75,5H2.5A2.5,2.5,0,0,1,0,2.5v0A2.5,2.5,0,0,1,2.5,0Z" transform="translate(1224 28.895)" fill="#fff"/>
          <g id="Rectangle_6460" data-name="Rectangle 6460" transform="translate(1230 28.895)" fill="#fff" stroke="#fafdff" stroke-width="1.5">
            <path d="M2.5,0h0A2.5,2.5,0,0,1,5,2.5v0A2.5,2.5,0,0,1,2.5,5H1.25A1.25,1.25,0,0,1,0,3.75V2.5A2.5,2.5,0,0,1,2.5,0Z" stroke="none"/>
            <path d="M2.5.75h0A1.75,1.75,0,0,1,4.25,2.5v0A1.75,1.75,0,0,1,2.5,4.25H1.423A.673.673,0,0,1,.75,3.577V2.5A1.75,1.75,0,0,1,2.5.75Z" fill="none"/>
          </g>
          <g id="Rectangle_6461" data-name="Rectangle 6461" transform="translate(1230 34.895)" fill="#fff" stroke="#fafdff" stroke-width="1.5">
            <path d="M1.25,0H2.5A2.5,2.5,0,0,1,5,2.5v0A2.5,2.5,0,0,1,2.5,5h0A2.5,2.5,0,0,1,0,2.5V1.25A1.25,1.25,0,0,1,1.25,0Z" stroke="none"/>
            <path d="M1.423.75H2.5A1.75,1.75,0,0,1,4.25,2.5v0A1.75,1.75,0,0,1,2.5,4.25h0A1.75,1.75,0,0,1,.75,2.5V1.423A.673.673,0,0,1,1.423.75Z" fill="none"/>
          </g>
          <g id="Rectangle_6462" data-name="Rectangle 6462" transform="translate(1224 34.895)" fill="#fff" stroke="#fafdff" stroke-width="1.5">
            <path d="M2.5,0H3.75A1.25,1.25,0,0,1,5,1.25V2.5A2.5,2.5,0,0,1,2.5,5h0A2.5,2.5,0,0,1,0,2.5v0A2.5,2.5,0,0,1,2.5,0Z" stroke="none"/>
            <path d="M2.5.75H3.577a.673.673,0,0,1,.673.673V2.5A1.75,1.75,0,0,1,2.5,4.25h0A1.75,1.75,0,0,1,.75,2.5v0A1.75,1.75,0,0,1,2.5.75Z" fill="none"/>
          </g>
        </g>
      </g>
    </g>
  </g>
</svg>
