<svg xmlns="http://www.w3.org/2000/svg" xmlns:xlink="http://www.w3.org/1999/xlink" width="35" height="35" viewBox="0 0 35 35">
  <defs>
    <clipPath id="clip-path">
      <rect id="Rectangle_1696" data-name="Rectangle 1696" width="35" height="35" transform="translate(458 81)" fill="#e4e4e4"/>
    </clipPath>
  </defs>
  <g id="Icon_metro-stethoscope" data-name="Icon metro-stethoscope" transform="translate(5.984 2.971)">
    <g id="doctors" transform="translate(-463.984 -83.971)" clip-path="url(#clip-path)">
      <g id="Layer_2" data-name="Layer 2" transform="translate(458.853 81.685)">
        <g id="Layer_3" data-name="Layer 3" transform="translate(0.506 0.512)">
          <path id="Path_21705" data-name="Path 21705" d="M15.507,21.066a2.606,2.606,0,0,1,.451,2.591c-.093.337-.412.783-.629.785a1.13,1.13,0,0,1-.836-.628,2.716,2.716,0,0,1,.184-2.443,1.588,1.588,0,0,0,.085-.872q-.225-1.092-.544-2.144c-.571-1.909-1.168-3.8-1.73-5.7-.23-.783-.411-1.589-.587-2.4-.2-.919-.242-.958-.966-.487a13.189,13.189,0,0,1,.69,6.342c-.225,1.853-1.183,3.1-2.508,3.282a1.648,1.648,0,0,1-1.02-.15c-.428-.239-.6-.017-.785.558.532.377,1.057.769,1.6,1.125a1.543,1.543,0,0,1,.673,1.523c-.054,1.221-.031,2.443-.067,3.664a.975.975,0,0,0,.392.954c1.112.843,1.084,3.195.022,4.173A1.9,1.9,0,0,0,9.582,32.3c-.078,1.047-.226,1.254-.915.729-1.514-1.148-3-2.364-4.462-3.625a1.963,1.963,0,0,1-.392-1.181,1.318,1.318,0,0,0-.471-1.12,9.608,9.608,0,0,1-2.63-3.475,2.68,2.68,0,0,1-.194-1.295,9.673,9.673,0,0,1,1.5-4.013Q3.56,15.8,5.1,13.26a5.4,5.4,0,0,1,3.242-2.73,11.123,11.123,0,0,0,1.11-.5Q10.955,9.5,12.471,9c.273-.089.566-.066.84-.157a1.489,1.489,0,0,0,1.1-1.647c-.009-.523.027-1.047.02-1.57C14.385,2.3,16.255.074,18.716.585a3.614,3.614,0,0,1,2.015.834A7.556,7.556,0,0,1,22.88,4.2l-1.786-.755c.092.982.163,1.689.221,2.4.022.286.1.679,0,.848a2.475,2.475,0,0,0-.153,2.179.577.577,0,0,1-.12.441c-.948.564-1.168,1.771-1.491,2.9a5.585,5.585,0,0,1-.392.822,6.661,6.661,0,0,1,1.227,1A5.053,5.053,0,0,1,21.5,17.1a11.191,11.191,0,0,0,.625,3.437,16.56,16.56,0,0,1,.381,1.617,6.718,6.718,0,0,0,1.02-3.2,7.271,7.271,0,0,1,.654-3.751,1.141,1.141,0,0,0-.22-.832,4.1,4.1,0,0,0-1.134-.621c-.785-.325-1.168-1.047-1.139-2.238.025-1.019.337-1.548,1.217-1.685a22.713,22.713,0,0,1,3.451-.288,3.909,3.909,0,0,0,2.931-1.221A5.573,5.573,0,0,1,30.464,7.4c.723-.412,1.253-.155,1.546.81a11.264,11.264,0,0,1-.088,6.708c-.243.787-.71.993-1.295.654a5.788,5.788,0,0,1-1-.8,3.388,3.388,0,0,0-3.139-1.085,3.1,3.1,0,0,0-.675.3,15.044,15.044,0,0,1,.774,1.827,11.556,11.556,0,0,1,.226,1.8,2.407,2.407,0,0,1-1,2.633,1.734,1.734,0,0,0-.485.949c-.415,1.623-.7,3.315-1.215,4.885a13.468,13.468,0,0,1-1.5,2.791.855.855,0,0,1-.627.453A.763.763,0,0,1,21.315,29a9.044,9.044,0,0,1-1.65-2.284c-.645-1.466-1.1-3.081-1.646-4.683a5.092,5.092,0,0,0-1.7,2.884,11.283,11.283,0,0,1-.785,2.268c-.273.752-.523,1.462-.772,2.2-.094.277-.157.574-.234.862l-.228-.113c.275-.883.537-1.773.825-2.648.357-1.08.711-2.165,1.112-3.217A4.178,4.178,0,0,1,17,22.831a5.239,5.239,0,0,0,1.548-3.847q.021-2.261-.149-4.515a5.589,5.589,0,0,0-.57-1.8C17.719,15.788,16.557,18.334,15.507,21.066Zm1.177-15.13-.8-.27a6.377,6.377,0,0,0-.131,1.471,3.066,3.066,0,0,0,.564.994l-.072.122-.806-.736c-.217.44-.366.773-.915.8s-1.117.74-1.746,1.2c.026.174.055.5.112.8.328,1.717.7,3.42.979,5.149A1.661,1.661,0,0,0,15,16.945a1.159,1.159,0,0,0,1.5-.492,6.6,6.6,0,0,0,.915-3.882L15.46,13.9c.229-1.324,1.755-.794,1.945-2.214l-.813-1.146a22.954,22.954,0,0,1,1.9,1.731c.409.391.748.291.889-.4.082-.408.114-.834.175-1.251.024-.164.026-.391.106-.475.392-.412.8-.785,1.27-1.232-.065-.277-.116-.559-.154-.844s-.09-.67.016-.822A3.147,3.147,0,0,0,21,4.94c-.073-.719-.112-1.417-.9-1.185-.144.042-.328-.124-.486-.213-.585-.328-.872-.085-1.034.719a5,5,0,0,1-.5,1.221,4.618,4.618,0,0,1-.523.778c-.17.215-.367.389-.553.583l-.335-.928.392.707a6.564,6.564,0,0,1,.617-.981,2.375,2.375,0,0,0,.785-1.778c.008-.616.628-1.111.959-.782.853.85,1.722-.091,2.593.174-.817-.6-1.272-1.931-2.381-1.858a2.024,2.024,0,0,1-.808-.27c-.234-.1-.46-.311-.693-.319-2-.079-3.459,1.848-3.5,4.557-.009.635-.084,1.272-.067,1.9A2.206,2.206,0,0,0,14.851,8l.262-.061a16.012,16.012,0,0,1,.364-1.965,3.294,3.294,0,0,1,.654-.9ZM7.852,18.864a4.662,4.662,0,0,0,.915.265,2.548,2.548,0,0,0,2.4-2.123,12.018,12.018,0,0,0-.221-6.558c-.184-.618-.49-.7-.943-.431a7.794,7.794,0,0,1-1.718.822,5.772,5.772,0,0,0-3.21,2.938c-.756,1.3-1.52,2.6-2.32,3.857A13.31,13.31,0,0,0,.832,21.741a2.651,2.651,0,0,0,.289,2.174,12.618,12.618,0,0,0,3.72,4.048A8,8,0,0,1,7.4,30.283a3.022,3.022,0,0,0,.8.747,1.167,1.167,0,0,0,1.249.168,1.793,1.793,0,0,0,.9-1.168c.353-1.127,0-2.4-.87-2.708.153.337.262.55.349.775s.288.612.235.7c-.14.215-.4.45-.591.413a3.481,3.481,0,0,1-.923-.506l.059-.15L9.79,28.9l.086-.349C9.307,28.029,8.9,27.1,8.1,27.191a1.492,1.492,0,0,1-1.478-.7,22.663,22.663,0,0,1-1.784-2.867c-.654-1.289-1.058-2.826-2.38-3.285l.141-.27L4.07,21.118v-3.9c.568.462,1,.822,1.438,1.176,1.653,1.336,1.65,1.333,2.728-.8a4.156,4.156,0,0,1,.488-.644l.085.124Zm11.891-.914a1.39,1.39,0,0,1,.013.26c-.131.194-.262.382-.392.576a4.732,4.732,0,0,0-.747,4.3Q19.3,25.2,20.156,27.2a5.17,5.17,0,0,0,1.112,1.445.729.729,0,0,0,1.283-.115,14.081,14.081,0,0,0,1.4-2.774c.48-1.486.792-3.074,1.129-4.637a1.661,1.661,0,0,1,.777-1.286,1.406,1.406,0,0,0,.73-1.406,16.939,16.939,0,0,0-.315-2.57,4.427,4.427,0,0,0-.582-1.132l-.216.094c.356.761.192,1.158-.392,1.253-.42.066-.485.454-.408.886a10.571,10.571,0,0,0,.343,1.3c.15.485.417.726.829.611a3.054,3.054,0,0,1,.437-.063c-.48.377-1.021.71-1.344-.106a9.338,9.338,0,0,1-.492-2.094c-.131-.925.638-.747.965-1.117-.324-.607-.612-.562-.953-.145a4.4,4.4,0,0,0-.671,2.736A8.644,8.644,0,0,1,20.9,24.7a2.84,2.84,0,0,1,.557-1c.959-.815.8-1.867.5-3.055a29.135,29.135,0,0,1-.654-3.425c-.3-2.355-1.177-3.664-2.746-3.934.12,1.837.242,3.685.366,5.6ZM4.381,17.857a18.6,18.6,0,0,0,.061,4.187,9.293,9.293,0,0,0,2.423,4.339,2.03,2.03,0,0,0,.807.523,15.086,15.086,0,0,0,1.662.291c0-1.418-.048-2.9.018-4.372a1.9,1.9,0,0,0-.817-1.863c-1.037-.731-2.06-1.5-3.085-2.268C5.1,18.437,4.755,18.15,4.381,17.857ZM30.562,7.609c-.326.277-.667.523-.974.837a4.265,4.265,0,0,1-3.292,1.4,14.812,14.812,0,0,0-1.76.047c-.785.065-1.177.588-1.255,1.631a3.691,3.691,0,0,0,1.242,3.132.679.679,0,0,0,.761-.248,1.36,1.36,0,0,1,1.265-1.022,3.616,3.616,0,0,1,3.139,1.094c.324.3.667.571,1,.853A11.21,11.21,0,0,1,30.562,7.609Zm-.217,2.5c.517.27,1.295-.2,1.415,1.068.145,1.53-.736,1.486-1.552,1.745a14.6,14.6,0,0,0,.643,1.806c.364.7.689.63.928-.155a10.235,10.235,0,0,0,.282-5.107,4.072,4.072,0,0,0-.785-1.745c-.225-.256-.853.951-.948,1.951a3.018,3.018,0,0,0,.016.438ZM9.26,31.71c-1.058,0-1.688-.916-2.413-1.645-.849-.855-1.76-1.6-2.7-2.443-.237.9-.078,1.382.343,1.722,1.355,1.1,2.71,2.195,4.07,3.277a4.364,4.364,0,0,0,.7.373Zm5.826-10.9.238.03,1.55-4.093-.131-.145c-.748.989-1.6.872-2.647.2Zm8.29-7.3a4.632,4.632,0,0,1,.026-3.425c-.973-.14-1.425.276-1.5,1.305C21.813,12.6,22.279,13.346,23.376,13.508ZM14.5,22.715c.027.644.092,1.263.67,1.295s.707-.6.714-1.2-.08-1.361-.654-1.387-.651.714-.73,1.293Zm-1.109-7.462.195-.058c-.345-1.846-.687-3.7-1.046-5.538-.026-.131-.208-.208-.316-.309-.052.159-.177.349-.146.473C12.5,11.632,12.945,13.438,13.386,15.253ZM30.941,12.37v-1.82h-.685v1.973Z" transform="translate(-0.506 -0.512)" fill="#fff" stroke="#fff" stroke-width="0.5"/>
        </g>
      </g>
    </g>
  </g>
</svg>
