<svg id="dancer" xmlns="http://www.w3.org/2000/svg" width="45.222" height="45.417" viewBox="0 0 45.222 45.417">
  <path id="Path_20499" data-name="Path 20499" d="M.194-511.949a.757.757,0,0,0-.194.514,11.959,11.959,0,0,0,.98,2.908A8.818,8.818,0,0,0,3.321-508c1.192.2,2.182.373,2.19.39s.945,1.72,2.076,3.8a31.217,31.217,0,0,1,2,3.946c-.018.1-.106.416-.185.709a3.762,3.762,0,0,0-.106,1.374,4.176,4.176,0,0,0,1.678,3.281c.442.346.645.63,1.537,2.111l1.025,1.711.742,11.59c.406,6.376.76,11.678.786,11.794a.844.844,0,0,0,.212.372c.159.16.3.177,1.643.177a8.45,8.45,0,0,0,1.616-.089c.238-.124.327-.417.715-2.35l.353-1.774.751-1.126c.98-1.481.98-1.446.026-2.891l-.715-1.091L20-481.9c.177-3.2.353-5.941.389-6.083.053-.222.318-.39,2.093-1.375,1.122-.621,5.927-3.281,10.687-5.924s9.38-5.161,10.263-5.6a9.76,9.76,0,0,0,1.7-.975,12.34,12.34,0,0,0,.088-2.04v-1.862l-.23-.177a.923.923,0,0,0-.486-.186,15.55,15.55,0,0,0-2.129.754l-1.881.754H38.951c-1.237,0-1.59.027-1.74.133a3.4,3.4,0,0,0-.548,1.224l-.371,1.1-6.4,2.855-6.412,2.864-.521-.23a6.5,6.5,0,0,0-3.8-.461c-1.1.2-1.051.231-1.051-.372v-.514l1.351-.656,1.343-.665,4.151-4.141,4.151-4.141,2.164-.364a20.787,20.787,0,0,0,2.341-.479,10.961,10.961,0,0,0,1.016-1.383c.919-1.392,1.007-1.676.618-2.084l-.2-.222H31.567c-3.295,0-3.5.009-3.957.186-.424.159-1.016.674-4.664,4.044C20.65-505.8,18.6-503.9,18.4-503.7l-.371.355.53-1.233a6.852,6.852,0,0,0,.786-2.58c0-.355.018-.381.247-.381a2.649,2.649,0,0,0,1.5-.585,2.3,2.3,0,0,0-.415-3.786,2.334,2.334,0,0,0-3.233,1.206l-.15.39-.442-.133a3.99,3.99,0,0,0-2.385.177,3.658,3.658,0,0,0-1.51,1.339c-.115.2-.406.842-.636,1.41a7.412,7.412,0,0,1-.486,1.046c-.035,0-.751-1.046-1.6-2.315a22.085,22.085,0,0,0-1.952-2.7c-.724-.656-.8-.665-4.575-.665H.38Zm6.748,1.419c.044.035-.212.355-.556.7l-.627.63-1.828-.3c-2-.328-1.872-.275-2.04-.931l-.053-.222,2.517.026C5.741-510.61,6.907-510.566,6.942-510.531ZM33.21-510.6a1.8,1.8,0,0,1-.654.8c-.283.062-3.913.665-4.019.665a3.5,3.5,0,0,1-.8-1.037c0-.053.168-.177.38-.284.344-.177.512-.186,2.738-.186C32.15-510.646,33.21-510.628,33.21-510.6Zm-18.575,3a8.477,8.477,0,0,0,1.864,2.013,2.3,2.3,0,0,1,.548.5,4.392,4.392,0,0,1-.309.718,1.684,1.684,0,0,1-1.625,1.162,1.732,1.732,0,0,1-1.643-.771A1.309,1.309,0,0,1,13.2-505a3.871,3.871,0,0,1,.521-1.862,8.406,8.406,0,0,1,.574-1.215A2.309,2.309,0,0,1,14.635-507.6Zm29.085,4.123v.683l-1.21.612c-1.025.506-3.392,1.791-5.2,2.811l-.45.248-.415-.576a3.035,3.035,0,0,1-.4-.6c.018-.018.318-.16.671-.319a3.435,3.435,0,0,0,.777-.443,5.906,5.906,0,0,0,.433-1.029l.291-.878,1.36-.053,1.36-.044,1.325-.55c.733-.293,1.351-.541,1.4-.55A1.959,1.959,0,0,1,43.721-503.481Zm-25.614,27.4c0,.488.026.55.671,1.516l.671,1-.662,1-.662,1-.336,1.649-.327,1.649h-.468c-.477,0-.477,0-.477-.275,0-.3-.415-6.855-.477-7.6L16-476.595h2.111Z" transform="translate(0 512.168)" fill="#23ca9d"/>
</svg>
