<svg xmlns="http://www.w3.org/2000/svg" width="39.783" height="47.721" viewBox="0 0 39.783 47.721">
  <g id="dumbbell_1_" data-name="dumbbell (1)" transform="translate(0 0)">
    <path id="Path_20487" data-name="Path 20487" d="M40.184-495.8c-.175.189-.184.328-.184,3.38s.009,3.191.184,3.38.3.2,2.026.2c2.2,0,2.21,0,2.21-.994v-.6h.368c.267,0,.368.04.368.149,0,.169,2.477,6.909,2.79,7.585.35.756.93,1.253,3.518,3L54-478v3.867l-1.427,10.07c-.792,5.527-1.446,10.15-1.473,10.269-.028.149-.58.557-1.833,1.362a14.438,14.438,0,0,0-1.842,1.322,9.861,9.861,0,0,0-.055,1.292c0,1.68-.4,1.531,4.052,1.531,4.374,0,4.052.1,4.052-1.223,0-.8.055-1.014,2.183-8.241,1.206-4.1,2.21-7.436,2.238-7.436s1.031,3.34,2.238,7.426c2.127,7.237,2.183,7.456,2.183,8.251,0,1.322-.322,1.223,4.052,1.223,4.448,0,4.052.149,4.052-1.531a9.864,9.864,0,0,0-.055-1.292,14.441,14.441,0,0,0-1.842-1.322c-1.252-.805-1.8-1.213-1.833-1.362-.028-.119-.681-4.742-1.473-10.269l-1.427-10.07v-3.857l2.523-1.7c2.588-1.75,3.177-2.247,3.527-3.012.313-.676,2.79-7.416,2.79-7.585,0-.109.1-.149.368-.149h.368v.6c0,.994.009.994,2.21.994,1.722,0,1.851-.01,2.026-.2s.184-.328.184-3.38-.009-3.191-.184-3.38-.3-.2-2.026-.2c-2.2,0-2.21,0-2.21.994v.6H68.732v-.6c0-.994-.009-.994-2.21-.994-1.722,0-1.851.01-2.026.2s-.184.328-.184,3.38.009,3.191.184,3.38.3.2,2.026.2c2.2,0,2.21,0,2.21-.994v-.6H69.1c.322,0,.368.03.368.219a13.7,13.7,0,0,1-.995,2.018l-.995,1.789-2.063.567c-1.142.318-2.183.6-2.321.626l-.258.07v-2.078c0-2.038-.009-2.088-.239-2.595a2.274,2.274,0,0,0-2.183-1.412,2.794,2.794,0,0,0-.93.139,17.767,17.767,0,0,0-2.422,1.73,7.648,7.648,0,0,0-.12,2.187v2.028l-.249-.07c-.147-.03-1.188-.308-2.33-.626l-2.063-.567-.995-1.789a13.706,13.706,0,0,1-.995-2.018c0-.189.046-.219.368-.219h.368v.6c0,.994.009.994,2.21.994,1.722,0,1.851-.01,2.026-.2s.184-.328.184-3.38-.009-3.191-.184-3.38-.3-.2-2.026-.2c-2.2,0-2.21,0-2.21.994v.6H44.42v-.6c0-.994-.009-.994-2.21-.994C40.488-496,40.359-495.99,40.184-495.8Zm2.763,3.38v1.988H41.473v-3.977h1.473Zm11.051,0v1.988H52.524v-3.977H54Zm13.261,0v1.988H65.785v-3.977h1.473Zm11.051,0v1.988H76.836v-3.977H78.31Zm-29.469,1.312v1.72l1.2,2.157a21.312,21.312,0,0,0,1.363,2.257,2.328,2.328,0,0,0,.506.159c.184.04.368.109.387.159a8.774,8.774,0,0,1-.47,1.471c-.589,1.6-.424,1.521-1.529.736a3.927,3.927,0,0,1-.82-.746c-.23-.338-2.754-7.1-2.754-7.367,0-.089.111-.646.239-1.213l.239-1.044h1.639Zm23.98-.666c.129.567.239,1.123.239,1.213,0,.278-2.523,7.029-2.763,7.386a3.61,3.61,0,0,1-.82.736c-1.105.765-.93.845-1.519-.746a8.775,8.775,0,0,1-.47-1.471c.018-.05.2-.119.387-.159a2.327,2.327,0,0,0,.506-.159,21.308,21.308,0,0,0,1.363-2.257l1.2-2.157v-3.43h1.639Zm-12.045,2.287a1.23,1.23,0,0,1,.589,1.143v.3H59.892c-1.823,0-1.869-.07-.663-.9C60.306-489.707,60.3-489.707,60.776-489.488Zm.589,3.986a3.665,3.665,0,0,1-.147,1.3,1.416,1.416,0,0,1-1.943.736c-.663-.358-.8-.686-.838-1.929l-.037-1.064h2.965Zm-5.728,1.75,1.538.408.46.547a2.747,2.747,0,0,0,2.256,1.113,2.747,2.747,0,0,0,2.256-1.113l.46-.547,1.63-.437a14.67,14.67,0,0,1,1.676-.388c.018.03.3.775.635,1.66l.6,1.6L66-480.134c-.635.427-1.271.875-1.418,1.014l-.267.239v4.354H55.471v-4.354l-.267-.239c-.147-.139-.783-.587-1.418-1.014l-1.142-.766.6-1.64a6.659,6.659,0,0,1,.728-1.63C54.035-484.17,54.79-483.981,55.637-483.752ZM64.4-472.907c0,.02.23,1.64.507,3.6s.5,3.579.479,3.6a37.36,37.36,0,0,1-3.6,1.243c-.018-.04-.313-.994-.645-2.127-.645-2.167-.746-2.366-1.252-2.366s-.608.2-1.252,2.366c-.332,1.133-.626,2.088-.645,2.127a37.36,37.36,0,0,1-3.6-1.243c-.018-.02.193-1.64.479-3.6s.506-3.579.506-3.6,2.035-.03,4.512-.03S64.4-472.926,64.4-472.907Zm-8.491,9.454a7.915,7.915,0,0,1,1.584.686c-.009.159-3.094,10.607-3.159,10.667a8.142,8.142,0,0,1-1.722-1.4c0-.06.332-2.436.737-5.269s.737-5.2.737-5.249.055-.07.12-.05S55.038-463.761,55.913-463.452Zm9.78-.537c0,.06.332,2.406.737,5.229s.737,5.189.737,5.259a7.389,7.389,0,0,1-1.713,1.412c-.064-.07-3.159-10.508-3.168-10.677a8.167,8.167,0,0,1,1.639-.706C65.739-464.138,65.693-464.128,65.693-463.989Zm-12.8,12.824c1.639,1.332,1.685,1.292-1.473,1.292-2.394,0-2.579-.01-2.579-.179,0-.109.451-.467,1.409-1.083.764-.507,1.437-.915,1.473-.925A13.606,13.606,0,0,1,52.893-451.165Zm16.632.02c.967.636,1.418.974,1.418,1.093,0,.169-.184.179-2.579.179-3.159,0-3.1.04-1.492-1.282a13.35,13.35,0,0,1,1.151-.895A16.245,16.245,0,0,1,69.524-451.145Z" transform="translate(-40 496)" fill="#23ca9d"/>
  </g>
</svg>
