<svg xmlns="http://www.w3.org/2000/svg" width="38.048" height="43.876" viewBox="0 0 38.048 43.876">
  <g id="workout-machine" transform="translate(0 0)">
    <path id="Path_20498" data-name="Path 20498" d="M59.66-495.655a3.8,3.8,0,0,0-2.113,1.72c-.7,1.088-.86,1.18-2.625,1.545-1.509.3-1.591.329-1.71.558a1.019,1.019,0,0,0,.073.979,19.181,19.181,0,0,0,3.878,1.4,6.29,6.29,0,0,0,1.308.036,6.906,6.906,0,0,0,2.3-.7c.384-.238.4-.228.4.174,0,.43-.265.7-.777.8a2.28,2.28,0,0,0-1.308.722,2.426,2.426,0,0,0-.8,1.381c-.055.32-.329.631-2.378,2.7-1.271,1.28-2.488,2.579-2.689,2.872a5.409,5.409,0,0,0-.018,5.78l.274.4H52.389c-1.546,0-1.463-.128-1.463,2.2,0,2.341-.11,2.195,1.646,2.195h1.28v2.716l-.8.046a5.521,5.521,0,0,0-4.71,3.5,3.8,3.8,0,0,0-.3,2.058,3.8,3.8,0,0,0,.3,2.058,6.11,6.11,0,0,0,1.527,2.186l.32.247v2.552H49.28c-1.308,0-1.28-.037-1.28,1.829,0,1.344.018,1.482.183,1.646.183.183.3.183,17.377.183H82.753l.192-.192c.174-.174.183-.284.165-1.774l-.018-1.591.439-.375a7.669,7.669,0,0,0,2.332-3.786,8.768,8.768,0,0,0,0-3.585,8.031,8.031,0,0,0-1.354-2.762,7.74,7.74,0,0,0-3.951-2.57,2.031,2.031,0,0,1-.75-.293c-.064-.128-3-12.182-3-12.337,0-.046.155-.128.348-.183.7-.183,1.363-.686,2.7-2,1.683-1.646,1.838-1.884,1.783-2.753a1.3,1.3,0,0,0-.311-.969,1.658,1.658,0,0,0-1.454-.677c-.741,0-1.061.21-2.561,1.729l-1.189,1.2H74.037l-.384-.357a2.7,2.7,0,0,0-1.7-.649,3.491,3.491,0,0,0-1.71.64l-.622.366H66.7l-1.1-1.1a6.782,6.782,0,0,1-.988-1.1,3.231,3.231,0,0,0,1.582-.823c.722-.732.823-1.125.823-3.2s-.1-2.469-.823-3.2a2.766,2.766,0,0,0-2.341-.8c-.677.018-.878,0-1.015-.119a2.676,2.676,0,0,0-1.9-.6A4.549,4.549,0,0,0,59.66-495.655Zm5.176,2.323a1.126,1.126,0,0,1,.338.311c.11.165.073.174-.64.174h-.75l-.585.567-.585.576.064-.457A1.44,1.44,0,0,1,63.73-493.5,1.6,1.6,0,0,1,64.837-493.332Zm.723,2.826a3.14,3.14,0,0,1-.146,1.2,1.453,1.453,0,0,1-1.93.677,1.509,1.509,0,0,1-.814-1c-.046-.229-.018-.274.165-.32a4.394,4.394,0,0,0,.9-.75l.677-.686h1.152Zm-4.051,2.881a24.258,24.258,0,0,1,2.36,2.195l2.113,2.094h4.2l.732-.457a2.1,2.1,0,0,1,1.1-.457.89.89,0,0,1,.732,1.463,35.457,35.457,0,0,1-6.9,1.582c-1.381.009-1.536-.091-3.905-2.433a14.191,14.191,0,0,1-2.14-2.332A1.325,1.325,0,0,1,61.508-487.625Zm18.584,1.491c.174.2.055.347-1.344,1.729-1.6,1.564-1.866,1.71-3.32,1.783l-1,.046v-.238c0-.512.018-.521,1.262-.521h1.152l1.472-1.463a18.154,18.154,0,0,1,1.573-1.463A.314.314,0,0,1,80.091-486.134Zm-22,5.167,1.646,1.646-.384.412c-.393.421-.476.722-.3,1.052a8.063,8.063,0,0,0,1.006.878,6.83,6.83,0,0,1,.924.768c0,.028-.549.6-1.225,1.281l-1.216,1.216-1.591-.933a16.206,16.206,0,0,1-1.985-1.308,3.8,3.8,0,0,1-1.043-3.174,4.216,4.216,0,0,1,1.491-2.515,12.629,12.629,0,0,1,.988-.96C56.432-482.6,57.2-481.863,58.1-480.967ZM78.29-468.383c1.7,7,3.091,12.749,3.091,12.786a1.525,1.525,0,0,1-.658.046l-.658-.027-3.091-12.712c-1.7-7-3.091-12.749-3.091-12.786a1.533,1.533,0,0,1,.658-.046l.658.027Zm-4.884-7.984c.613,2.533,1.116,4.628,1.116,4.664a15.989,15.989,0,0,1-1.847.091c-1.024.018-1.911.055-1.985.082a9.448,9.448,0,0,1-1.143-2.478c-1.134-2.826-1.317-3.174-1.948-3.759-1.079-1.015-1.674-1.18-4.134-1.18H61.581l.741-.741.741-.741.448.229c1.436.732,2.25.713,5.844-.11,1.509-.348,2.789-.631,2.844-.64S72.793-478.909,73.406-476.367Zm-8.057-.979a3.124,3.124,0,0,1,1.5,1.006,29.3,29.3,0,0,1,1.28,2.908l1.033,2.57-.32.229c-.174.128-.521.439-.777.677l-.476.439-.284-.448a1.525,1.525,0,0,1-.284-1.079,4.825,4.825,0,0,0-2.122-4.07l-.8-.631v-1.738h.393A3.81,3.81,0,0,1,65.349-477.345Zm-1.857,3.018c1.363,1.061,1.692,1.482,1.939,2.424a3.119,3.119,0,0,1-.238,2.241c-.219.448-.7.969-2.634,2.908l-2.369,2.369-1-.2c-.549-.11-1.015-.21-1.024-.229s.979-1.335,2.213-2.927c2.268-2.918,2.387-3.1,2.158-3.521a8.013,8.013,0,0,0-1.381-.914l-1.29-.759,1.171-1.171c.649-.649,1.189-1.18,1.2-1.18S62.815-474.858,63.492-474.327Zm-6.941,1.2c.649.375,1.2.7,1.225.732s-1.18.037-2.67.037H52.389v-1.463h2.972Zm4,2.36c.165.119-.018.384-2.094,3.018l-.21.265V-470.9h1.079A3.173,3.173,0,0,1,60.547-470.77Zm6.036,2.442c.11.174.11.265-.055.713a5.594,5.594,0,0,0-.219,1.39l-.037.869-1.18-.274-1.18-.274,1.079-1.1a15.954,15.954,0,0,0,1.2-1.317C66.327-468.575,66.419-468.575,66.583-468.328Zm7.2,1.482a7.187,7.187,0,0,0-2.369,5.46,6.917,6.917,0,0,0,1.994,5.048l.768.8H70.7l.046-4.865c.018-3.027.073-5.021.137-5.259a2.428,2.428,0,0,1,1.006-1.271,3.84,3.84,0,0,1,1.674-.3h.64Zm-18.117.576c.969.229,1.372.357,1.326.43a14.392,14.392,0,0,1-1.344,1.61c-.585.558-.558.613,1.363,3.3.933,1.3,1.692,2.387,1.692,2.414a56.02,56.02,0,0,1-5.762-.046,4.086,4.086,0,0,1-3.073-5.688,4.111,4.111,0,0,1,2.36-2.158C53.277-466.746,53.642-466.737,55.664-466.27Zm9.667,2.286c1.408.338,2.853.677,3.2.759l.64.147.027,2.314.018,2.3H60.776l.558-.585c.43-.448.567-.649.567-.851,0-.146-.146-.988-.32-1.856l-.32-1.591.613-.622a2.926,2.926,0,0,1,.759-.622C62.706-464.587,63.922-464.313,65.33-463.984Zm-6.877.759c.7.147,1.28.284,1.317.311s.174.658.32,1.4l.274,1.344-.284.274c-.155.155-.293.265-.311.238-.064-.064-2.579-3.594-2.661-3.722S56.971-463.527,58.453-463.225Zm-6.246,6.091a4.1,4.1,0,0,0,.8.137c.155,0,.293.018.293.046s-.155.348-.338.732l-.338.686h-.969v-.869a6.306,6.306,0,0,1,.027-.869C51.694-457.271,51.932-457.207,52.207-457.134Zm13.929.823c.183.384.338.713.338.732s-2.716.046-6.036.046-6.036-.018-6.036-.046.155-.348.338-.732l.338-.686H65.8Zm3.082.046v.732h-.969l-.338-.686c-.183-.384-.338-.713-.338-.732a3.64,3.64,0,0,1,.823-.046h.823ZM81.655-453.7v.366H49.463v-.732H81.655Z" transform="translate(-48 495.751)" fill="#23ca9d"/>
  </g>
</svg>
