<svg xmlns="http://www.w3.org/2000/svg" xmlns:xlink="http://www.w3.org/1999/xlink" width="35" height="35" viewBox="0 0 35 35">
  <defs>
    <clipPath id="clip-path">
      <rect id="Rectangle_1696" data-name="Rectangle 1696" width="35" height="35" transform="translate(458 81)" fill="#e4e4e4"/>
    </clipPath>
  </defs>
  <g id="Icon_metro-stethoscope" data-name="Icon metro-stethoscope" transform="translate(5.984 2.971)">
    <g id="doctors" transform="translate(-463.984 -83.971)" clip-path="url(#clip-path)">
      <g id="Layer_2" data-name="Layer 2" transform="translate(459.457 82.912)">
        <g id="Layer_3" data-name="Layer 3" transform="translate(0.5 0.499)">
          <path id="Path_21696" data-name="Path 21696" d="M89.856,20.2a4.558,4.558,0,0,1-1.144-2.928c0-.662.02-1.324.046-1.986a9.377,9.377,0,0,0-.193-2.383,2.881,2.881,0,0,0-1.973-2.219c-.712-.255-1.449-.431-2.17-.675a4.1,4.1,0,0,1-.966-.474A1.285,1.285,0,0,1,82.9,7.951c.215-.6.567-1.149.838-1.729a6.019,6.019,0,0,0,.638-1.541,3.323,3.323,0,0,0-1.324-3.323,2.592,2.592,0,0,0-3.682.568,3.371,3.371,0,0,0-.29,3.961c.3.522.6,1.05.876,1.584a2.129,2.129,0,0,1,.193.6,1.361,1.361,0,0,1-.791,1.584c-.575.276-1.211.443-1.817.665A16.759,16.759,0,0,0,75.787,11a2.5,2.5,0,0,0-1.266,1.628,9.438,9.438,0,0,0-.239,3.224c.026.451.029.9.026,1.356a4.632,4.632,0,0,1-1.168,3.014.608.608,0,0,1,0-.159,1,1,0,0,1,.121-.263,5.947,5.947,0,0,0,.833-3.725c-.01-.855-.029-1.713.032-2.565a3.424,3.424,0,0,1,2.74-3.277c.567-.159,1.122-.36,1.678-.553a2.414,2.414,0,0,0,.488-.255,1.211,1.211,0,0,0,.579-1.532A7.543,7.543,0,0,0,79.1,6.786a5.117,5.117,0,0,1-.442-4.2A2.992,2.992,0,0,1,81.622.5,2.852,2.852,0,0,1,84.2,2.2,4.642,4.642,0,0,1,84.3,5.948c-.129.368-.35.716-.518,1.076a7.289,7.289,0,0,0-.391.916,1.156,1.156,0,0,0,.532,1.419,8.416,8.416,0,0,0,1.3.586c.344.134.706.226,1.062.331A3.357,3.357,0,0,1,88.9,13.442c.071.882.04,1.774.039,2.661a7.791,7.791,0,0,0,.249,2.472,8.846,8.846,0,0,0,.468,1.013c.092.193.188.386.282.579Z" transform="translate(-66.12 -0.499)" fill="#fff" stroke="#fff" stroke-width="1"/>
          <path id="Path_21697" data-name="Path 21697" d="M141.153,186.6c.29-.092.579-.2.875-.286a25.449,25.449,0,0,1,7.117-1.232,5.407,5.407,0,0,0,2.682-.711,3.753,3.753,0,0,0,1.82-2.036,4.012,4.012,0,0,1,.45-.864,1.1,1.1,0,0,0-.021-1.474,2.025,2.025,0,0,0-1.34-.756,3.211,3.211,0,0,0-2.1.265c-1.341.67-2.682,1.34-4.006,2.04-1.791.947-3.556,1.934-5.351,2.878a14.784,14.784,0,0,1-1.706.679.855.855,0,0,1-.475.007c.295-.11.6-.2.883-.332a37.114,37.114,0,0,0,4.691-2.553,32.986,32.986,0,0,1,5-2.722,8.846,8.846,0,0,1,2.1-.611c-.112-.035-.224-.072-.338-.1a17.555,17.555,0,0,1-3.1-1.2,2.148,2.148,0,0,1-1.2-1.634c-.156-.8-.348-1.593-.555-2.382a8.357,8.357,0,0,1-.386-2.626c.085.4.158.792.256,1.185.281,1.13.573,2.258.859,3.387.073.29.121.588.221.869a1.814,1.814,0,0,0,.947,1.03,28.12,28.12,0,0,0,4.456,1.677,4.889,4.889,0,0,1,.737.261,1.979,1.979,0,0,0,1.868-.251.365.365,0,0,0,.121-.15c.17-.293.324-.6.506-.882a1.127,1.127,0,0,0,.118-.957c-.02-.076-.045-.151-.074-.246a.949.949,0,0,1,.237,1.039,2.6,2.6,0,0,1-.141.284c-.154.293-.29.593-.469.873a.751.751,0,0,1-.353.31c-.386.127-.79.209-1.193.311.015.016.059.066.108.113a1.022,1.022,0,0,1,.226,1.29.76.76,0,0,1-.1.169,5.112,5.112,0,0,0-.859,1.765,3.772,3.772,0,0,1-2.038,2,4.776,4.776,0,0,1-1.9.483c-1.31.066-2.621.133-3.926.258a29.442,29.442,0,0,0-4.4.847c-.076.019-.155.032-.231.049Z" transform="translate(-125.714 -155.248)" fill="#fff" stroke="#fff" stroke-width="1"/>
          <path id="Path_21698" data-name="Path 21698" d="M2.719,179.617c-.4-.1-.784-.2-1.173-.292a.589.589,0,0,1-.415-.386,5.733,5.733,0,0,0-.408-.768,1.044,1.044,0,0,1,.059-1.362c-.016.061-.03.123-.048.184a1.146,1.146,0,0,0,.248,1.2,3.87,3.87,0,0,1,.326.593c.072.119.156.276.275.32a8.949,8.949,0,0,0,1.108.325.779.779,0,0,0,.4-.043c.879-.29,1.762-.568,2.626-.893.92-.345,1.824-.73,2.729-1.111a1.947,1.947,0,0,0,1.149-1.421q.514-2.084,1.023-4.169c.074-.3.123-.614.2-.921a6.706,6.706,0,0,1-.259,2.1c-.212.838-.439,1.674-.65,2.512-.049.2-.05.4-.1.6a1.943,1.943,0,0,1-1.051,1.382,16.455,16.455,0,0,1-3.179,1.252c-.119.033-.237.071-.4.122a13.772,13.772,0,0,1,4.786,1.907c.966.54,1.889,1.136,2.832,1.707a.311.311,0,0,1,.139.155c-.085-.04-.172-.076-.254-.12-1.916-1.007-3.824-2.039-5.835-2.877a4.335,4.335,0,0,0-2.095-.492,3.148,3.148,0,0,0-1.286.335,1.589,1.589,0,0,0-.83,1.186.946.946,0,0,0,.105.508c.235.5.529.972.736,1.48a3.9,3.9,0,0,0,2.137,2,6.2,6.2,0,0,0,2.307.5c.944.062,1.881.2,2.821.3.139.015.276.041.414.062v.1c-.584,0-1.17.018-1.753,0-.744-.029-1.488-.071-2.229-.144a4.74,4.74,0,0,1-3.51-1.887,4.111,4.111,0,0,1-.474-1.035,4.055,4.055,0,0,0-.606-1.188,1.092,1.092,0,0,1-.1-1.474A3.183,3.183,0,0,1,2.719,179.617Z" transform="translate(-0.5 -155.176)" fill="#fff" stroke="#fff" stroke-width="1"/>
          <path id="Path_21699" data-name="Path 21699" d="M100.31,184.958c.269-.534.538-1.07.811-1.6.263-.513.564-1.013.79-1.539a3.775,3.775,0,0,0-.067-2.657,14.269,14.269,0,0,1-.71-2.79c-.009-.092-.014-.191-.023-.308.042.024.071.031.077.046.339.893.692,1.782,1.009,2.682a10.856,10.856,0,0,1,.45,1.581,2.509,2.509,0,0,1-.355,1.842c-.607.948-1.261,1.866-1.9,2.8Z" transform="translate(-90.67 -159.888)" fill="#fff" stroke="#fff" stroke-width="1"/>
          <path id="Path_21700" data-name="Path 21700" d="M197.146,185.258c-.621-.882-1.21-1.707-1.782-2.543A3.65,3.65,0,0,1,195,182a3.434,3.434,0,0,1,.1-2.531c.331-.88.7-1.75,1.041-2.623a2.96,2.96,0,0,1,.237-.564,4.529,4.529,0,0,1-.077.618c-.211.821-.428,1.641-.661,2.456a3.857,3.857,0,0,0-.067,2.657c.226.528.53,1.025.789,1.54s.5,1.022.747,1.534A.887.887,0,0,1,197.146,185.258Z" transform="translate(-176.036 -160.087)" fill="#fff" stroke="#fff" stroke-width="1"/>
          <path id="Path_21701" data-name="Path 21701" d="M69.234,336.655a3.856,3.856,0,0,0-.336.382c-.055.079-.107.213-.072.282a.336.336,0,0,0,.276.113,11.864,11.864,0,0,0,1.256-.177,14.137,14.137,0,0,1,5.515-.006.961.961,0,0,1,.138.06,1.732,1.732,0,0,1-.9.113,14.276,14.276,0,0,0-3.893-.006c-.633.068-1.248.16-1.868.239l-.05.006c-.234.008-.508.068-.637-.176-.137-.26.062-.461.237-.637a2.55,2.55,0,0,1,.29-.228Z" transform="translate(-62.038 -305.657)" fill="#fff" stroke="#fff" stroke-width="1"/>
          <path id="Path_21702" data-name="Path 21702" d="M199.85,337.4a3.051,3.051,0,0,1,.763-.146c.773.049,1.545.136,2.318.227.393.047.778.152,1.173.192a1.731,1.731,0,0,0,.512-.107c-.071-.146-.134-.3-.218-.438-.052-.085-.137-.151-.193-.238a.978.978,0,0,1,.553.521c.122.269,0,.479-.312.487a8.565,8.565,0,0,1-.931-.073l-3.477-.291c-.054,0-.108-.018-.162-.027Z" transform="translate(-180.596 -305.903)" fill="#fff" stroke="#fff" stroke-width="1"/>
          <path id="Path_21703" data-name="Path 21703" d="M9.347,222.619c-.193.124-.386.239-.565.377-.472.368-.931.747-1.405,1.105a2.4,2.4,0,0,1-.615.368.751.751,0,0,1-.869-.288.588.588,0,0,0-.567-.248,1.124,1.124,0,0,1-1.13-.5.173.173,0,0,0-.033-.037l-.317-.246c-.028.111-.055.222-.085.333,0,.014-.02.023-.046.051a.278.278,0,0,1-.122-.42.3.3,0,0,1,.2-.17.321.321,0,0,1,.266.049,1.117,1.117,0,0,1,.271.282,1.012,1.012,0,0,0,1.062.461.645.645,0,0,1,.579.225c.473.453.752.473,1.24.018a9.53,9.53,0,0,1,2.028-1.362c.027-.015.055-.026.083-.039Z" transform="translate(-3.25 -202.122)" fill="#fff" stroke="#fff" stroke-width="1"/>
          <path id="Path_21704" data-name="Path 21704" d="M256.09,223a7.611,7.611,0,0,1,2.1,1.35,1.542,1.542,0,0,0,.344.246.559.559,0,0,0,.79-.118.925.925,0,0,1,.886-.344.9.9,0,0,0,.858-.422,1.6,1.6,0,0,1,.3-.324.326.326,0,0,1,.253-.054.313.313,0,0,1,.209.146c.113.166.072.323-.134.449-.011-.06-.016-.111-.03-.161-.019-.073-.044-.145-.067-.217a1,1,0,0,0-.219.126c-.1.092-.187.208-.282.311a.942.942,0,0,1-.85.339.752.752,0,0,0-.734.276.817.817,0,0,1-1.159.127c-.193-.128-.344-.31-.529-.449-.524-.394-1.056-.779-1.586-1.167A1.047,1.047,0,0,0,256.09,223Z" transform="translate(-231.405 -202.504)" fill="#fff" stroke="#fff" stroke-width="1"/>
        </g>
      </g>
    </g>
  </g>
</svg>
