<svg xmlns="http://www.w3.org/2000/svg" xmlns:xlink="http://www.w3.org/1999/xlink" width="35" height="35" viewBox="0 0 35 35">
  <defs>
    <clipPath id="clip-path">
      <rect id="Rectangle_6759" data-name="Rectangle 6759" width="35" height="35" transform="translate(528 139)" fill="#e4e4e4"/>
    </clipPath>
  </defs>
  <g id="Nurse" transform="translate(-528 -139)" clip-path="url(#clip-path)">
    <g id="Nurse-2" data-name="Nurse" clip-path="url(#clip-path)">
      <g id="Layer_2" data-name="Layer 2" transform="translate(533.946 140.689)">
        <g id="Layer_1" data-name="Layer 1" transform="translate(-0.005 -0.006)">
          <path id="Path_21629" data-name="Path 21629" d="M11.393-.006A11.366,11.366,0,0,1,22.229,7.953a12.036,12.036,0,0,1,.485,4.422,20.868,20.868,0,0,1-3.17,9.491,34.8,34.8,0,0,1-7.86,8.9.407.407,0,0,1-.623.007A33.9,33.9,0,0,1,2.45,20.551,19.6,19.6,0,0,1,0,11.666,11.363,11.363,0,0,1,7.392.7a11.164,11.164,0,0,1,4-.709Zm-.132,2.369a8.858,8.858,0,1,0,8.841,9.1A8.864,8.864,0,0,0,11.261,2.364Z" transform="translate(0.005 0.006)" fill="#fbfdff"/>
          <path id="Path_21630" data-name="Path 21630" d="M77.429,93.87l2.552.309c-.16.418-.287.779-.437,1.13-.161.381-.332.76-.522,1.127-.1.194-.078.289.111.417.56.387,1.1.8,1.649,1.2.072.055.138.118.238.2-.323.258-.624.511-.94.746a9.842,9.842,0,0,1-3.261,1.763,2.85,2.85,0,0,1-2.1-.149c-.087-.044-.166-.1-.321-.19l1.931-.285,0-.111c-.472,0-.944,0-1.416,0-.175,0-.351-.045-.523-.031-.542.043-.766-.29-.929-.778.243.046.462.08.677.13.824.194,1.648.387,2.469.594a.929.929,0,0,0,.773-.13.4.4,0,0,0,.04-.7,2.253,2.253,0,0,0-.68-.352c-.67-.2-1.347-.37-2.028-.527a.291.291,0,0,1-.27-.328c-.03-.616-.083-1.23-.126-1.845,0-.059,0-.119,0-.255a4.326,4.326,0,0,0,2.8,2.468,7.493,7.493,0,0,1-.548-.768c-.411-.77-.84-1.535-1.185-2.335a2.331,2.331,0,0,0-3.553-1.05,1.912,1.912,0,0,0-.62.755A13.667,13.667,0,0,1,69.4,97.938a.362.362,0,0,0-.035.074,2.122,2.122,0,0,0,1.434-.685c.364-.4.68-.836,1.042-1.288-.059.723-.117,1.429-.174,2.131-.484.055-.943.078-1.393.161a3.635,3.635,0,0,0-.94.3c-.628.309-.671.916-.052,1.243a6.727,6.727,0,0,0,1.506.494,8.843,8.843,0,0,0,1.087.139c.008.029.017.055.024.087a8.111,8.111,0,0,1-.858.262,3.2,3.2,0,0,1-1.709-.189,12.456,12.456,0,0,1-3.772-2.36c-.012-.011-.014-.033-.041-.1.455-.345.919-.7,1.389-1.05a5.513,5.513,0,0,1,.578-.377c.159-.089.157-.178.087-.332-.292-.645-.569-1.3-.848-1.948-.035-.082-.055-.17-.1-.313.615-.08,1.2-.18,1.792-.228.763-.062.754-.045.829-.8.045-.448.127-.892.2-1.338a1.034,1.034,0,0,1,.069-.173c.526.216,1.045.421,1.557.642.419.18.395.173.663-.209.453-.648.936-1.276,1.4-1.912.039-.052.068-.111.131-.216.429.559.814,1.05,1.184,1.548a7.856,7.856,0,0,1,.513.786c.1.166.187.176.352.1.578-.255,1.161-.5,1.809-.769C77.228,92.414,77.329,93.138,77.429,93.87Zm-3.049-1.56a1.036,1.036,0,0,0-1.042-1.05,1.05,1.05,0,1,0,0,2.1,1.031,1.031,0,0,0,1.049-1.05Z" transform="translate(-61.899 -84.988)" fill="#fbfdff"/>
          <path id="Path_21631" data-name="Path 21631" d="M182.1,256.165c-.1.2-.166.356-.252.5-.122.209-.293.055-.411.011a3.484,3.484,0,0,1-.545-.326c.07-.063.137-.175.21-.18C181.414,256.152,181.73,256.165,182.1,256.165Z" transform="translate(-170.892 -242.003)" fill="#fbfdff"/>
        </g>
      </g>
    </g>
  </g>
</svg>
