<svg xmlns="http://www.w3.org/2000/svg" xmlns:xlink="http://www.w3.org/1999/xlink" width="22" height="22" viewBox="0 0 22 22"><defs><style>.a{fill:#fff;}.b{clip-path:url(#a);}.c{fill:#333;}.d{filter:url(#b);}</style><clipPath id="a"><rect class="a" width="22" height="22" transform="translate(97 750)"/></clipPath><filter id="b" x="-30" y="-22.142" width="82" height="77.285" filterUnits="userSpaceOnUse"><feOffset dy="6" input="SourceAlpha"/><feGaussianBlur stdDeviation="10" result="c"/><feFlood flood-color="#1f54c3" flood-opacity="0.149"/><feComposite operator="in" in2="c"/><feComposite in="SourceGraphic"/></filter></defs><g class="b" transform="translate(-97 -750)"><g class="d" transform="matrix(1, 0, 0, 1, 97, 750)"><path class="c" d="M-2885.035-375.573a1.878,1.878,0,0,1-1.289-.485l6.232-6.235.434.312q.7.517,1.137.8a6.864,6.864,0,0,0,1.16.59,3.534,3.534,0,0,0,1.348.3h.027a3.534,3.534,0,0,0,1.348-.3,7.018,7.018,0,0,0,1.16-.59q.439-.288,1.135-.8c.139-.1.283-.2.434-.31l6.23,6.233a1.873,1.873,0,0,1-1.287.485Zm14.543-7.72q1.755-1.225,4.264-2.923a6.735,6.735,0,0,0,1.229-1.068v9.483ZM-2887-387.284a6.585,6.585,0,0,0,1.236,1.068q2.613,1.772,4.254,2.921L-2887-377.8Zm11,5.426h-.014a1.948,1.948,0,0,1-.613-.11,3.636,3.636,0,0,1-.705-.331c-.25-.147-.463-.28-.641-.4s-.4-.273-.662-.466c-.137-.1-.25-.181-.336-.244s-.145-.1-.186-.13c-.344-.241-.758-.531-1.24-.866-.564-.394-1.219-.851-1.975-1.374q-2.1-1.455-2.516-1.75a6.021,6.021,0,0,1-1.437-1.417,2.865,2.865,0,0,1-.676-1.676,2.465,2.465,0,0,1,.51-1.6,1.751,1.751,0,0,1,1.455-.638h18.068a1.9,1.9,0,0,1,1.383.576,1.893,1.893,0,0,1,.584,1.389,3.251,3.251,0,0,1-.6,1.853,5.843,5.843,0,0,1-1.5,1.509l-4.5,3.127-1.244.863c-.039.027-.1.072-.182.132s-.2.144-.342.243c-.264.193-.486.347-.66.466s-.391.252-.639.4a3.648,3.648,0,0,1-.707.331,1.936,1.936,0,0,1-.611.11Z" transform="translate(2887 394.71)"/></g></g></svg>