<svg xmlns="http://www.w3.org/2000/svg" width="21.624" height="21.624" viewBox="0 0 21.624 21.624">
  <g id="Group_26583" data-name="Group 26583" transform="translate(-242.403 -10.403)">
    <g id="Group_1788" data-name="Group 1788" transform="translate(242.453 10.453)">
      <path id="Path_387" data-name="Path 387" d="M18.372,13.914a10.721,10.721,0,0,0-4.09-2.565,6.222,6.222,0,1,0-7.04,0A10.779,10.779,0,0,0,0,21.524H1.682a9.08,9.08,0,0,1,18.161,0h1.682A10.692,10.692,0,0,0,18.372,13.914Zm-7.61-3.152a4.54,4.54,0,1,1,4.54-4.54A4.545,4.545,0,0,1,10.762,10.762Z" transform="translate(0 0)" fill="#d91e15" stroke="#d91e15" stroke-width="0.1"/>
    </g>
  </g>
</svg>
