<svg xmlns="http://www.w3.org/2000/svg" width="50.911" height="52.375" viewBox="0 0 50.911 52.375"><defs><style>.a,.b{fill:#e22c24;}.b{fill-rule:evenodd;}</style></defs><g transform="translate(0 -21.663)"><g transform="translate(0 -0.262)"><g transform="translate(0 0)"><path class="a" d="M50.91,72.634A7.876,7.876,0,0,1,42.952,80.6h-.524a7.988,7.988,0,0,1-2.306-.314,16.6,16.6,0,0,0-2.62-.524,5.345,5.345,0,0,0-2.83.314A21.488,21.488,0,0,1,26.2,81.64a26.159,26.159,0,0,1-10.264-1.984,26.518,26.518,0,0,1-8.3-5.668A29.2,29.2,0,0,1,2.1,65.753,26.413,26.413,0,0,1,0,55.459,25.178,25.178,0,0,1,2.1,45.292,26.227,26.227,0,0,1,26.2,29.27,24.182,24.182,0,0,1,35.839,31.2,24.707,24.707,0,0,1,48.971,44.348a24.093,24.093,0,0,1,1.939,9.643ZM26.2,72.424a16.471,16.471,0,0,0,8.9-2.411,16.471,16.471,0,0,0,8.161-14.554A16.823,16.823,0,0,0,35.091,40.9,16.471,16.471,0,0,0,26.2,38.486a15.9,15.9,0,0,0-6.6,1.363,16.412,16.412,0,0,0-2.927,1.5,15.356,15.356,0,0,0-2.516,2.036,21.4,21.4,0,0,0-3.676,5.473,17.616,17.616,0,0,0-1.258,6.6,16.576,16.576,0,0,0,1.258,6.6,21.4,21.4,0,0,0,3.669,5.45,21.33,21.33,0,0,0,5.443,3.661A17.617,17.617,0,0,0,26.2,72.424Z" transform="translate(0 -7.344)"/><path class="b" d="M32.352,52.28a8.842,8.842,0,1,1-8.842,8.842A8.842,8.842,0,0,1,32.352,52.28Z" transform="translate(-5.908 -13.127)"/></g></g></g></svg>