<svg id="logo_k1p18f" xmlns="http://www.w3.org/2000/svg" xmlns:xlink="http://www.w3.org/1999/xlink" width="73.141" height="39.97" viewBox="0 0 73.141 39.97">
  <defs>
    <clipPath id="clip-path">
      <path id="Path_7069" data-name="Path 7069" d="M13.042,33.661H6.46V12.412H0V7.78a8.41,8.41,0,0,0,5-1.5,5.729,5.729,0,0,0,2.4-3.7h5.647Z" transform="translate(0 -2.58)" fill="none"/>
    </clipPath>
    <clipPath id="clip-path-2">
      <rect id="Rectangle_732" data-name="Rectangle 732" width="913.451" height="702.67" transform="translate(0 0)" fill="none"/>
    </clipPath>
    <clipPath id="clip-path-3">
      <rect id="Rectangle_731" data-name="Rectangle 731" width="24.458" height="42.782" transform="translate(0 0)" fill="none"/>
    </clipPath>
    <clipPath id="clip-path-4">
      <rect id="Rectangle_730" data-name="Rectangle 730" width="22.914" height="41.279" fill="none"/>
    </clipPath>
    <clipPath id="clip-path-5">
      <rect id="Rectangle_729" data-name="Rectangle 729" width="13.732" height="32.097" fill="none"/>
    </clipPath>
    <clipPath id="clip-path-6">
      <path id="Path_7070" data-name="Path 7070" d="M10.359,26.914H3.94V5.665h6.094v2.4a5.363,5.363,0,0,1,2.519-2.4,7.557,7.557,0,0,1,3.535-.853,6.3,6.3,0,0,1,6.176,3.332,7.516,7.516,0,0,1,6.5-3.332,8.126,8.126,0,0,1,5.525,2.031,8.126,8.126,0,0,1,2.4,6.3V26.873h-6.3V14.685a3.778,3.778,0,0,0-.853-2.6,3.128,3.128,0,0,0-2.478-1.016,3.25,3.25,0,0,0-2.56,1.016,4.063,4.063,0,0,0-.934,2.56V26.833H17.185V14.644A4.063,4.063,0,0,0,16.372,12a3.291,3.291,0,0,0-2.519-1.016,3.25,3.25,0,0,0-2.56,1.1,3.7,3.7,0,0,0-.894,2.6Z" transform="translate(-3.94 -4.783)" fill="none"/>
    </clipPath>
    <clipPath id="clip-path-8">
      <rect id="Rectangle_736" data-name="Rectangle 736" width="44.285" height="33.6" transform="translate(0)" fill="none"/>
    </clipPath>
    <clipPath id="clip-path-9">
      <rect id="Rectangle_735" data-name="Rectangle 735" width="42.497" height="31.975" fill="none"/>
    </clipPath>
    <clipPath id="clip-path-10">
      <rect id="Rectangle_734" data-name="Rectangle 734" width="33.6" height="22.914" fill="none"/>
    </clipPath>
    <clipPath id="clip-path-11">
      <path id="Path_7071" data-name="Path 7071" d="M12.58,28.3l5.769-1.585a4.063,4.063,0,0,0,1.544,2.519,4.347,4.347,0,0,0,3.047.975c3.535,0,5.282-2.316,5.282-5.891v-1.3a6.46,6.46,0,0,1-5.688,2.4,9.426,9.426,0,0,1-7.069-2.925,10.32,10.32,0,0,1-2.8-7.354,10.117,10.117,0,0,1,2.8-7.273,9.141,9.141,0,0,1,6.947-3.088,8.126,8.126,0,0,1,4.063.934,5.038,5.038,0,0,1,2.072,1.828V5.18H34.6V23.991A12.8,12.8,0,0,1,31.716,32.6a10.685,10.685,0,0,1-8.491,3.21,11.417,11.417,0,0,1-7.273-2.194A8.532,8.532,0,0,1,12.58,28.3Zm7.8-9.791a4.347,4.347,0,0,0,3.291,1.3,4.063,4.063,0,0,0,3.25-1.3,4.347,4.347,0,0,0,1.259-3.372,4.388,4.388,0,0,0-1.3-3.372,4.307,4.307,0,0,0-3.21-1.3,4.794,4.794,0,0,0-4.591,5,4.713,4.713,0,0,0,1.3,3.047Z" transform="translate(-12.58 -4.769)" fill="none"/>
    </clipPath>
    <clipPath id="clip-path-13">
      <rect id="Rectangle_741" data-name="Rectangle 741" width="33.6" height="42.782" transform="translate(0)" fill="none"/>
    </clipPath>
    <clipPath id="clip-path-14">
      <rect id="Rectangle_740" data-name="Rectangle 740" width="32.097" height="41.075" fill="none"/>
    </clipPath>
    <clipPath id="clip-path-15">
      <rect id="Rectangle_739" data-name="Rectangle 739" width="22.914" height="33.6" fill="none"/>
    </clipPath>
    <clipPath id="clip-path-16">
      <rect id="Rectangle_748" data-name="Rectangle 748" width="44.041" height="6.338" fill="none"/>
    </clipPath>
    <clipPath id="clip-path-18">
      <rect id="Rectangle_746" data-name="Rectangle 746" width="55.011" height="18.323" transform="translate(0 0)" fill="none"/>
    </clipPath>
    <clipPath id="clip-path-19">
      <rect id="Rectangle_745" data-name="Rectangle 745" width="54.483" height="15.845" fill="none"/>
    </clipPath>
    <clipPath id="clip-path-20">
      <rect id="Rectangle_744" data-name="Rectangle 744" width="45.829" height="9.182" fill="none"/>
    </clipPath>
    <clipPath id="clip-path-21">
      <rect id="Rectangle_754" data-name="Rectangle 754" width="57.083" height="6.338" fill="none"/>
    </clipPath>
    <clipPath id="clip-path-23">
      <rect id="Rectangle_752" data-name="Rectangle 752" width="68.743" height="18.323" transform="translate(0 0)" fill="none"/>
    </clipPath>
    <clipPath id="clip-path-24">
      <rect id="Rectangle_751" data-name="Rectangle 751" width="67.2" height="15.845" fill="none"/>
    </clipPath>
    <clipPath id="clip-path-25">
      <rect id="Rectangle_750" data-name="Rectangle 750" width="58.058" height="7.638" fill="none"/>
    </clipPath>
  </defs>
  <g id="Group_25670" data-name="Group 25670" clip-path="url(#clip-path)">
    <g id="Group_25669" data-name="Group 25669" transform="translate(-785.146 -67.2)" clip-path="url(#clip-path-2)">
      <g id="Group_25668" data-name="Group 25668" transform="translate(779.052 61.065)" clip-path="url(#clip-path-3)">
        <g id="Group_25667" data-name="Group 25667" transform="translate(1.178 1.016)" clip-path="url(#clip-path-4)">
          <g id="Group_25666" data-name="Group 25666" transform="translate(4.916 5.119)" clip-path="url(#clip-path-5)">
            <rect id="Rectangle_728" data-name="Rectangle 728" width="53.467" height="71.831" transform="translate(-20.192 -20.396)" fill="#9cd43b"/>
          </g>
        </g>
      </g>
    </g>
  </g>
  <g id="Group_25675" data-name="Group 25675" transform="translate(16.008 8.95)" clip-path="url(#clip-path-6)">
    <g id="Group_25674" data-name="Group 25674" transform="translate(-801.154 -76.149)" clip-path="url(#clip-path-2)">
      <g id="Group_25673" data-name="Group 25673" transform="translate(795.831 70.247)" clip-path="url(#clip-path-8)">
        <g id="Group_25672" data-name="Group 25672" transform="translate(0.366 1.097)" clip-path="url(#clip-path-9)">
          <g id="Group_25671" data-name="Group 25671" transform="translate(4.225 4.997)" clip-path="url(#clip-path-10)">
            <rect id="Rectangle_733" data-name="Rectangle 733" width="73.05" height="62.527" transform="translate(-19.502 -20.274)" fill="#9cd43b"/>
          </g>
        </g>
      </g>
    </g>
  </g>
  <g id="Group_25680" data-name="Group 25680" transform="translate(51.111 8.893)" clip-path="url(#clip-path-11)">
    <g id="Group_25679" data-name="Group 25679" transform="translate(-836.257 -76.093)" clip-path="url(#clip-path-2)">
      <g id="Group_25678" data-name="Group 25678" transform="translate(830.975 70.247)" clip-path="url(#clip-path-13)">
        <g id="Group_25677" data-name="Group 25677" transform="translate(0.244 0.853)" clip-path="url(#clip-path-14)">
          <g id="Group_25676" data-name="Group 25676" transform="translate(4.347 3.738)" clip-path="url(#clip-path-15)">
            <rect id="Rectangle_738" data-name="Rectangle 738" width="62.649" height="71.628" transform="translate(-19.624 -18.974)" fill="#9cd43b"/>
          </g>
        </g>
      </g>
    </g>
  </g>
  <g id="Group_25685" data-name="Group 25685" transform="translate(6.785 33.559)" clip-path="url(#clip-path-16)">
    <g id="Group_25684" data-name="Group 25684" transform="translate(-791.931 -100.759)" clip-path="url(#clip-path-2)">
      <g id="Group_25683" data-name="Group 25683" transform="translate(786.69 94.705)" clip-path="url(#clip-path-18)">
        <g id="Group_25682" data-name="Group 25682" transform="translate(0 1.259)" clip-path="url(#clip-path-19)">
          <g id="Group_25681" data-name="Group 25681" transform="translate(4.55 3.291)" clip-path="url(#clip-path-20)">
            <rect id="Rectangle_743" data-name="Rectangle 743" width="85.035" height="46.398" transform="translate(-19.827 -18.567)" fill="#9cd43b"/>
          </g>
        </g>
      </g>
    </g>
  </g>
  <g id="Group_25690" data-name="Group 25690" transform="translate(16.008 0)" clip-path="url(#clip-path-21)">
    <g id="Group_25689" data-name="Group 25689" transform="translate(-801.154 -67.2)" clip-path="url(#clip-path-2)">
      <g id="Group_25688" data-name="Group 25688" transform="translate(795.831 61.065)" clip-path="url(#clip-path-23)">
        <g id="Group_25687" data-name="Group 25687" transform="translate(0.284 1.381)" clip-path="url(#clip-path-24)">
          <g id="Group_25686" data-name="Group 25686" transform="translate(4.307 4.754)" clip-path="url(#clip-path-25)">
            <rect id="Rectangle_749" data-name="Rectangle 749" width="97.752" height="46.398" transform="translate(-19.583 -20.03)" fill="#9cd43b"/>
          </g>
        </g>
      </g>
    </g>
  </g>
</svg>
