<svg xmlns="http://www.w3.org/2000/svg" xmlns:xlink="http://www.w3.org/1999/xlink" width="70" height="70" viewBox="0 0 70 70">
  <defs>
    <filter id="Rectangle_929" x="0" y="0" width="70" height="70" filterUnits="userSpaceOnUse">
      <feOffset dy="3" input="SourceAlpha"/>
      <feGaussianBlur stdDeviation="3" result="blur"/>
      <feFlood flood-opacity="0.102"/>
      <feComposite operator="in" in2="blur"/>
      <feComposite in="SourceGraphic"/>
    </filter>
    <filter id="Rectangle_930" x="2" y="1" width="67" height="68" filterUnits="userSpaceOnUse">
      <feOffset dy="3" input="SourceAlpha"/>
      <feGaussianBlur stdDeviation="3" result="blur-2"/>
      <feFlood flood-opacity="0.102"/>
      <feComposite operator="in" in2="blur-2"/>
      <feComposite in="SourceGraphic"/>
    </filter>
    <filter id="Rectangle_931" x="3" y="3" width="65" height="65" filterUnits="userSpaceOnUse">
      <feOffset dy="3" input="SourceAlpha"/>
      <feGaussianBlur stdDeviation="3" result="blur-3"/>
      <feFlood flood-opacity="0.102"/>
      <feComposite operator="in" in2="blur-3"/>
      <feComposite in="SourceGraphic"/>
    </filter>
    <clipPath id="clip-path">
      <rect id="Rectangle_6747" data-name="Rectangle 6747" width="41" height="41" transform="translate(527.248 138.248)" fill="#fff"/>
    </clipPath>
    <clipPath id="clip-path-2">
      <rect id="Rectangle_6746" data-name="Rectangle 6746" width="41" height="41" transform="translate(-0.479 -0.479)" fill="#fff"/>
    </clipPath>
  </defs>
  <g id="Group_26186" data-name="Group 26186" transform="translate(9.168 6)">
    <g transform="matrix(1, 0, 0, 1, -9.17, -6)" filter="url(#Rectangle_929)">
      <rect id="Rectangle_929-2" data-name="Rectangle 929" width="52" height="52" rx="5" transform="translate(9 6)" fill="#fec56c" opacity="0.4"/>
    </g>
    <g transform="matrix(1, 0, 0, 1, -9.17, -6)" filter="url(#Rectangle_930)">
      <rect id="Rectangle_930-2" data-name="Rectangle 930" width="49" height="50" rx="5" transform="translate(11 7)" fill="#fec56c"/>
    </g>
    <g transform="matrix(1, 0, 0, 1, -9.17, -6)" filter="url(#Rectangle_931)">
      <rect id="Rectangle_931-2" data-name="Rectangle 931" width="47" height="47" rx="5" transform="translate(12 9)" fill="#fec56c"/>
    </g>
    <g id="Nurse" transform="translate(-521.416 -132.248)" clip-path="url(#clip-path)">
      <g id="Nurse-2" data-name="Nurse" transform="translate(527.727 138.727)" clip-path="url(#clip-path-2)">
        <g id="Layer_2" data-name="Layer 2" transform="translate(8.243 5.725)">
          <g id="Layer_1" data-name="Layer 1">
            <path id="Path_21589" data-name="Path 21589" d="M27.122,24.922A8.331,8.331,0,0,0,28,21.04V7.448c-5.912,2.088-11.5-1.508-11.5-1.508s-5.59,3.6-11.5,1.508V21.04a8.322,8.322,0,0,0,.874,3.881c1.24,2.465,4.114,6.411,10.491,9.243a21.222,21.222,0,0,0,4.73-2.5A18.607,18.607,0,0,0,27.122,24.922Z" transform="translate(-4.99 -5.94)" fill="none" stroke="#fff" stroke-width="2"/>
            <path id="Path_21590" data-name="Path 21590" d="M48.24,61.6a.707.707,0,0,1-.708-.689v-2.09a.707.707,0,0,0-.708-.689H44.67a.707.707,0,0,0-.708.689V60.9a.707.707,0,0,1-.708.689H41.1a.707.707,0,0,0-.708.689v2.085a.707.707,0,0,0,.708.689h2.143a.707.707,0,0,1,.708.689v2.085a.707.707,0,0,0,.708.7h2.155a.707.707,0,0,0,.708-.7V65.768a.707.707,0,0,1,.708-.689h2.161a.707.707,0,0,0,.708-.689v-2.1a.707.707,0,0,0-.708-.689Z" transform="translate(-34.24 -49.216)" fill="#fff"/>
          </g>
        </g>
      </g>
    </g>
  </g>
</svg>
