<svg xmlns="http://www.w3.org/2000/svg" xmlns:xlink="http://www.w3.org/1999/xlink" width="70" height="70" viewBox="0 0 70 70">
  <defs>
    <filter id="Rectangle_929" x="0" y="0" width="70" height="70" filterUnits="userSpaceOnUse">
      <feOffset dy="3" input="SourceAlpha"/>
      <feGaussianBlur stdDeviation="3" result="blur"/>
      <feFlood flood-opacity="0.102"/>
      <feComposite operator="in" in2="blur"/>
      <feComposite in="SourceGraphic"/>
    </filter>
    <filter id="Rectangle_930" x="2" y="1" width="67" height="68" filterUnits="userSpaceOnUse">
      <feOffset dy="3" input="SourceAlpha"/>
      <feGaussianBlur stdDeviation="3" result="blur-2"/>
      <feFlood flood-opacity="0.102"/>
      <feComposite operator="in" in2="blur-2"/>
      <feComposite in="SourceGraphic"/>
    </filter>
    <filter id="Rectangle_931" x="3" y="3" width="65" height="65" filterUnits="userSpaceOnUse">
      <feOffset dy="3" input="SourceAlpha"/>
      <feGaussianBlur stdDeviation="3" result="blur-3"/>
      <feFlood flood-opacity="0.102"/>
      <feComposite operator="in" in2="blur-3"/>
      <feComposite in="SourceGraphic"/>
    </filter>
  </defs>
  <g id="Group_26186" data-name="Group 26186" transform="translate(9.168 6)">
    <g transform="matrix(1, 0, 0, 1, -9.17, -6)" filter="url(#Rectangle_929)">
      <rect id="Rectangle_929-2" data-name="Rectangle 929" width="52" height="52" rx="5" transform="translate(9 6)" fill="#fec56c" opacity="0.4"/>
    </g>
    <g transform="matrix(1, 0, 0, 1, -9.17, -6)" filter="url(#Rectangle_930)">
      <rect id="Rectangle_930-2" data-name="Rectangle 930" width="49" height="50" rx="5" transform="translate(11 7)" fill="#fec56c"/>
    </g>
    <g transform="matrix(1, 0, 0, 1, -9.17, -6)" filter="url(#Rectangle_931)">
      <rect id="Rectangle_931-2" data-name="Rectangle 931" width="47" height="47" rx="5" transform="translate(12 9)" fill="#fec56c"/>
    </g>
    <g id="Group_27950" data-name="Group 27950">
      <g id="Layer_1" data-name="Layer 1" transform="translate(16.303 10.64)">
        <path id="Path_11597" data-name="Path 11597" d="M19.054,9.306A9.528,9.528,0,1,0,.795,13.1H.789L9.526,30.48,18.265,13.1h-.008a9.48,9.48,0,0,0,.8-3.8Z" transform="translate(0.003 0.241)" fill="none" stroke="#fafafa" stroke-width="2"/>
      </g>
      <circle id="Ellipse_805" data-name="Ellipse 805" cx="4" cy="4" r="4" transform="translate(21.832 16)" fill="#fff"/>
    </g>
  </g>
</svg>
