<svg xmlns="http://www.w3.org/2000/svg" xmlns:xlink="http://www.w3.org/1999/xlink" width="70" height="70" viewBox="0 0 70 70">
  <defs>
    <filter id="Rectangle_929" x="0" y="0" width="70" height="70" filterUnits="userSpaceOnUse">
      <feOffset dy="3" input="SourceAlpha"/>
      <feGaussianBlur stdDeviation="3" result="blur"/>
      <feFlood flood-opacity="0.102"/>
      <feComposite operator="in" in2="blur"/>
      <feComposite in="SourceGraphic"/>
    </filter>
    <filter id="Rectangle_930" x="2" y="1" width="67" height="68" filterUnits="userSpaceOnUse">
      <feOffset dy="3" input="SourceAlpha"/>
      <feGaussianBlur stdDeviation="3" result="blur-2"/>
      <feFlood flood-opacity="0.102"/>
      <feComposite operator="in" in2="blur-2"/>
      <feComposite in="SourceGraphic"/>
    </filter>
    <filter id="Rectangle_931" x="2" y="3" width="65" height="65" filterUnits="userSpaceOnUse">
      <feOffset dy="3" input="SourceAlpha"/>
      <feGaussianBlur stdDeviation="3" result="blur-3"/>
      <feFlood flood-opacity="0.102"/>
      <feComposite operator="in" in2="blur-3"/>
      <feComposite in="SourceGraphic"/>
    </filter>
  </defs>
  <g id="Group_26188" data-name="Group 26188" transform="translate(8.717 6)">
    <g transform="matrix(1, 0, 0, 1, -8.72, -6)" filter="url(#Rectangle_929)">
      <rect id="Rectangle_929-2" data-name="Rectangle 929" width="52" height="52" rx="5" transform="translate(9 6)" fill="#e0474e" opacity="0.4"/>
    </g>
    <g transform="matrix(1, 0, 0, 1, -8.72, -6)" filter="url(#Rectangle_930)">
      <rect id="Rectangle_930-2" data-name="Rectangle 930" width="49" height="50" rx="5" transform="translate(11 7)" fill="#e0474e"/>
    </g>
    <g transform="matrix(1, 0, 0, 1, -8.72, -6)" filter="url(#Rectangle_931)">
      <rect id="Rectangle_931-2" data-name="Rectangle 931" width="47" height="47" rx="5" transform="translate(11 9)" fill="#e0474e"/>
    </g>
    <path id="Icon_metro-lab" data-name="Icon metro-lab" d="M31.379,26.163,21.851,10.287V3.856h.964a.964.964,0,0,0,0-1.928h-9.64a.964.964,0,1,0,0,1.928h.964v6.431L4.611,26.163c-2.182,3.637-.5,6.613,3.744,6.613h19.28c4.242,0,5.927-2.976,3.744-6.613ZM9.832,21.208l6.235-10.391V3.856h3.856v6.961l6.235,10.391Z" transform="translate(7.789 9.148)" fill="#fafafa"/>
  </g>
</svg>
