<svg xmlns="http://www.w3.org/2000/svg" xmlns:xlink="http://www.w3.org/1999/xlink" width="27.3" height="25.99" viewBox="0 0 27.3 25.99">
  <defs>
    <clipPath id="clip-path">
      <rect id="Rectangle_6645" data-name="Rectangle 6645" width="27.3" height="25.99" transform="translate(0.301 -0.108)" fill="#fff" stroke="#707070" stroke-width="1"/>
    </clipPath>
  </defs>
  <g id="stethoscope" transform="translate(-0.301 0.108)" clip-path="url(#clip-path)">
    <g id="Group_27568" data-name="Group 27568" transform="translate(20.871 12.67)">
      <path id="Path_20830" data-name="Path 20830" d="M401.392,251.515a1.374,1.374,0,1,0,1.392,1.374A1.383,1.383,0,0,0,401.392,251.515Zm0,1.832a.458.458,0,1,1,.464-.458A.461.461,0,0,1,401.392,253.347Z" transform="translate(-399.205 -250.868)" fill="#475677"/>
      <path id="Path_20831" data-name="Path 20831" d="M23.774,24.207a2.777,2.777,0,0,0-2.352-2.352v-.721a3.5,3.5,0,0,0-3.372-3.61,3.515,3.515,0,0,0-3.372,3.5H14.7l-.023,0v7.818a4.362,4.362,0,0,1-4.166,4.529,4.364,4.364,0,0,1-4.166-4.529V28.17c.575,0,1.19-.417,1.19-1.587v-1A5.626,5.626,0,0,0,11.9,20.27v-.827h-.793l-.017-5.163a1.986,1.986,0,0,0-1.632-1.942,1.184,1.184,0,1,0-.027.809,1.19,1.19,0,0,1,.864,1.135l.018,5.161H9.521v.839a3.155,3.155,0,0,1-2.283,2.96,3.607,3.607,0,0,1-2.182,0,3.153,3.153,0,0,1-2.279-2.96v-.839H1.587V14.285a1.19,1.19,0,0,1,.881-1.144,1.2,1.2,0,1,0-.025-.806,1.984,1.984,0,0,0-1.65,1.95v5.157H0v.825a5.626,5.626,0,0,0,4.364,5.318v1c0,1.17.615,1.587,1.19,1.587v.677a5.155,5.155,0,0,0,4.959,5.322,5.157,5.157,0,0,0,4.959-5.322v-7.8a2.715,2.715,0,0,1,2.579-2.731,2.708,2.708,0,0,1,2.579,2.817v.72a2.777,2.777,0,1,0,3.145,2.352ZM8.331,13.1a.4.4,0,1,1,.4-.4A.4.4,0,0,1,8.331,13.1ZM3.57,12.3a.4.4,0,1,1-.4.4A.4.4,0,0,1,3.57,12.3ZM.793,20.268v-.032h1.19v.045A3.942,3.942,0,0,0,4.815,24,4.414,4.414,0,0,0,7.48,24a3.943,3.943,0,0,0,2.834-3.714v-.045h.793v.032a4.863,4.863,0,0,1-4.046,4.619,5.659,5.659,0,0,1-1.674.082,5.182,5.182,0,0,1-.548-.083A4.862,4.862,0,0,1,.793,20.268Zm4.761,7.109c-.357,0-.4-.555-.4-.793v-.842c.032,0,.064.006.1.009l.119.011c.188.017.377.028.568.028h.02c.19,0,.379-.012.566-.028l.123-.011c.031,0,.064,0,.1-.009v.842c0,.238-.04.793-.4.793Zm15.472-.793A1.984,1.984,0,1,1,23.009,24.6,1.984,1.984,0,0,1,21.026,26.584Z" transform="translate(-18.854 -22.591)" fill="#475677" stroke="#475677" stroke-width="0.3"/>
    </g>
  </g>
</svg>
