<svg xmlns="http://www.w3.org/2000/svg" xmlns:xlink="http://www.w3.org/1999/xlink" width="62" height="63" viewBox="0 0 62 63">
  <defs>
    <filter id="Rectangle_6250" x="-13.5" y="-10.5" width="89" height="90" filterUnits="userSpaceOnUse">
      <feOffset dy="3" input="SourceAlpha"/>
      <feGaussianBlur stdDeviation="4.5" result="blur"/>
      <feFlood flood-color="#7c60dc" flood-opacity="0.302"/>
      <feComposite operator="in" in2="blur"/>
      <feComposite in="SourceGraphic"/>
    </filter>
    <clipPath id="clip-path">
      <g transform="matrix(1, 0, 0, 1, 0, 0)" filter="url(#Rectangle_6250)">
        <path id="Rectangle_6250-2" data-name="Rectangle 6250" d="M31,0H55a7,7,0,0,1,7,7V32A31,31,0,0,1,31,63h0A31,31,0,0,1,0,32V31A31,31,0,0,1,31,0Z" transform="translate(265 65)" fill="#7c60dc"/>
      </g>
    </clipPath>
  </defs>
  <g id="Mask_Group_96" data-name="Mask Group 96" transform="translate(-265 -65)" clip-path="url(#clip-path)">
    <g id="Layer_2" data-name="Layer 2" transform="translate(271.39 72)">
      <g id="Capa_1" data-name="Capa 1">
        <rect id="Rectangle_6252" data-name="Rectangle 6252" width="2.975" height="2.711" transform="translate(25.598 69.921)" fill="#78abce"/>
        <rect id="Rectangle_6253" data-name="Rectangle 6253" width="2.975" height="1.355" transform="translate(25.598 80.268)" fill="#78abce"/>
        <rect id="Rectangle_6254" data-name="Rectangle 6254" width="2.075" height="7.636" transform="translate(26.048 72.632)" fill="#8bb8dc"/>
        <rect id="Rectangle_6255" data-name="Rectangle 6255" width="18.692" height="1.504" transform="translate(17.739 81.567)" fill="#78abce"/>
        <path id="Path_20542" data-name="Path 20542" d="M351.062,1754.67a1.4,1.4,0,1,0,1.4,1.4A1.4,1.4,0,0,0,351.062,1754.67Z" transform="translate(-333.322 -1672.68)" fill="#629abf"/>
        <path id="Path_20543" data-name="Path 20543" d="M751.082,1754.67a1.4,1.4,0,1,0,1.4,1.4A1.4,1.4,0,0,0,751.082,1754.67Z" transform="translate(-714.65 -1672.68)" fill="#629abf"/>
        <path id="Path_20544" data-name="Path 20544" d="M339.922,1356.54c-6.448,0-11.682,0-11.682,3.5,0,1.934,5.229,3.5,11.682,3.5s11.679-1.567,11.679-3.5C351.6,1356.54,346.372,1356.54,339.922,1356.54Z" transform="translate(-312.902 -1293.153)" fill="#8bb8dc"/>
        <rect id="Rectangle_6256" data-name="Rectangle 6256" width="2.87" height="8.922" transform="translate(11.188 6.687)" fill="#a0cfe6"/>
        <rect id="Rectangle_6257" data-name="Rectangle 6257" width="2.87" height="1.135" transform="translate(11.188 6.687)" fill="#8bb8dc"/>
        <rect id="Rectangle_6258" data-name="Rectangle 6258" width="2.87" height="0.868" transform="translate(11.188 14.742)" fill="#8bb8dc"/>
        <path id="Path_20545" data-name="Path 20545" d="M202.99,1612.25l-.86.038A.856.856,0,0,0,202.99,1612.25Z" transform="translate(-192.685 -1536.915)" fill="#fff"/>
        <path id="Path_20546" data-name="Path 20546" d="M6.019,889.878C-.654,891.311.3,903.948,0,915.586l1.05,4.357,8.394-.374c-.592-.339-1.208-1.667-.833-6.041a83.812,83.812,0,0,0,.461-10.641l7.609-17.308S8.56,889.332,6.019,889.878Z" transform="translate(0 -844.2)" fill="#fff"/>
        <path id="Path_20547" data-name="Path 20547" d="M171.6,1265.012l.921-.218-.184-11.774Z" transform="translate(-163.582 -1194.471)" fill="#e6e6e7"/>
        <path id="Path_20548" data-name="Path 20548" d="M253.372,2011.459l-.032,4.915h12.408l.169-5.284Z" transform="translate(-241.502 -1917.119)" fill="#343444"/>
        <path id="Path_20549" data-name="Path 20549" d="M554.08,2018.98l.157,4.915h12.418l-.029-4.546Z" transform="translate(-528.19 -1924.64)" fill="#343444"/>
        <path id="Path_20550" data-name="Path 20550" d="M872.6,1612.267l-.3-.017S872.466,1612.555,872.6,1612.267Z" transform="translate(-831.54 -1536.915)" fill="#f0f1f1"/>
        <path id="Path_20551" data-name="Path 20551" d="M706.993,889.849c-2.54-.545-10.664-4.3-10.664-4.3l7.61,17.313s.179,3.037.831,10.641c.368,4.285.252,5.647.08,6.019l7.111.394,1.05-4.359C712.716,903.92,713.666,891.282,706.993,889.849Z" transform="translate(-663.793 -844.171)" fill="#f0f1f1"/>
        <path id="Path_20552" data-name="Path 20552" d="M190.241,903.563l-10.884,4.226-.237,40.1,32.439.012.014-40.154-10.485-5.63Z" transform="translate(-170.75 -859.967)" fill="#d34a4a"/>
        <path id="Path_20553" data-name="Path 20553" d="M467.91,1037.58l-1.7,23.882,3.089,5.407,3.192-5.168-2.061-24.119Z" transform="translate(-444.426 -989.097)" fill="#3d3d77"/>
        <path id="Path_20554" data-name="Path 20554" d="M458.208,920.76s-2.519.051-3.131,1.181c-1.355,2.5,1.907,4.634,1.907,4.634H459.5s2.7-1.938,1.936-3.814C460.822,921.25,458.208,920.76,458.208,920.76Z" transform="translate(-433.499 -877.736)" fill="#262260"/>
        <path id="Path_20555" data-name="Path 20555" d="M347.15,810.482l3.9,5.381,4.733-4.661-7.914-5.161Z" transform="translate(-330.929 -768.376)" fill="#ea5e5e"/>
        <path id="Path_20556" data-name="Path 20556" d="M525.74,811.314l4.732,4.666,3.542-5.022-.356-4.8Z" transform="translate(-501.174 -768.491)" fill="#ea5e5e"/>
        <path id="Path_20557" data-name="Path 20557" d="M150.039,893.49l-8.046,3.633-1.577,9.716s-.588,27.712-.785,44.157h18.614l.526-25.226Z" transform="translate(-133.106 -851.74)" fill="#fff"/>
        <path id="Path_20558" data-name="Path 20558" d="M268.5,855.853l-2.1,8.635,3.392,3.327-.309,2.613,10.133,17.706-9.179-34.125Z" transform="translate(-253.952 -814.105)" fill="#f0f1f1"/>
        <path id="Path_20559" data-name="Path 20559" d="M215.59,1849.741l7.212,0v-.95l-7.212,0Z" transform="translate(-205.516 -1762.402)" fill="#d0d2d3"/>
        <path id="Path_20560" data-name="Path 20560" d="M523.116,897.246l-8.046-3.636-8.751,32.274.014,25.226h19.121c-.191-16.448-.768-44.146-.768-44.146Z" transform="translate(-482.661 -851.855)" fill="#f0f1f1"/>
        <path id="Path_20561" data-name="Path 20561" d="M517.459,855.985l-1.936-1.845-9.2,34.118,11.213-17.7-1.376-2.613,3.393-3.325Z" transform="translate(-482.661 -814.229)" fill="#fff"/>
        <path id="Path_20562" data-name="Path 20562" d="M536.094,1658.07a.713.713,0,1,0,.711.714A.713.713,0,0,0,536.094,1658.07Z" transform="translate(-510.363 -1580.594)" fill="#d0d2d3"/>
        <path id="Path_20563" data-name="Path 20563" d="M536.053,1818.28a.713.713,0,1,0,.713.712A.713.713,0,0,0,536.053,1818.28Z" transform="translate(-510.325 -1733.318)" fill="#d0d2d3"/>
        <path id="Path_20564" data-name="Path 20564" d="M537.024,1988.48a.713.713,0,1,0,.711.713.712.712,0,0,0-.711-.713Z" transform="translate(-511.25 -1895.565)" fill="#d0d2d3"/>
        <path id="Path_20565" data-name="Path 20565" d="M680.92,1849.92l7.211,0v-.953H680.92Z" transform="translate(-649.103 -1762.574)" fill="#d0d2d3"/>
        <path id="Path_20566" data-name="Path 20566" d="M348.78,1547.579l26.011,4.981v-2.214l-25.643-5.166Z" transform="translate(-332.483 -1472.979)" fill="#d0d2d3"/>
        <path id="Path_20567" data-name="Path 20567" d="M588.31,1435.84l.214,2.632,12.99,1.691-.063-2.331Z" transform="translate(-560.82 -1368.748)" fill="#d0d2d3"/>
        <path id="Path_20568" data-name="Path 20568" d="M854.14,1264.794l.922.218-.737-11.992Z" transform="translate(-814.229 -1194.471)" fill="#d0d2d3"/>
        <path id="Path_20569" data-name="Path 20569" d="M156.4,1375.88c-.337.753.9,1.536.9,1.536s-2.959-.8-4.022-.483a3.183,3.183,0,0,0-1.8,2.567,3.564,3.564,0,0,0,2.411,3.224c1.623.577,6.581,1.3,7.05.723s1.266-5.132,1.266-5.132l-3.959-2.674S156.744,1375.126,156.4,1375.88Z" transform="translate(-144.382 -1311.199)" fill="#ffba7f"/>
        <path id="Path_20570" data-name="Path 20570" d="M373.295,1413.164l-24.758-4.894-1.367,7.822s22.888,4.466,28.2,5.343,4.634-8.837,4.634-8.837Z" transform="translate(-330.948 -1342.466)" fill="#f0f1f1"/>
        <path id="Path_20571" data-name="Path 20571" d="M147.89,1550.346v2.214l26.013-4.981-.37-2.4Z" transform="translate(-140.98 -1472.979)" fill="#d0d2d3"/>
        <path id="Path_20572" data-name="Path 20572" d="M646.959,1411.931a8.724,8.724,0,0,0-4.579.764s.8,4.559,1.267,5.132,2.644-1.763,4.269-2.343a15.189,15.189,0,0,1,4.2-.467C653.052,1414.9,649.608,1412.108,646.959,1411.931Z" transform="translate(-612.364 -1345.932)" fill="#ffba7f"/>
        <path id="Path_20573" data-name="Path 20573" d="M9.629,1397.374l-6.71.171s-.682,9.714,4.633,8.837,28.2-5.343,28.2-5.343l-1.367-8.559Z" transform="translate(-2.756 -1327.414)" fill="#fff"/>
        <path id="Path_20574" data-name="Path 20574" d="M184.725,1307.833a2.094,2.094,0,0,1-3.058-2.273,76.253,76.253,0,0,1-.22-7.81l-.737.008a76.569,76.569,0,0,0,.224,7.9,2.764,2.764,0,0,0,3.889,2.907,11.387,11.387,0,0,0,1.4-.28l-.2-.71A10.775,10.775,0,0,1,184.725,1307.833Z" transform="translate(-172.266 -1237.11)" fill="#bbbdbf"/>
        <path id="Path_20575" data-name="Path 20575" d="M268.4,1501.509c-.5.107-.843.461-.774.794s.531.514,1.03.411.844-.462.774-.794S268.9,1501.4,268.4,1501.509Z" transform="translate(-255.116 -1431.32)" fill="#57585a"/>
        <path id="Path_20576" data-name="Path 20576" d="M371.07,1265.54l-.714.187a76.74,76.74,0,0,1,1.843,7.592,3.622,3.622,0,0,1-.11,2.112,3.563,3.563,0,0,1-2.243.885,11.575,11.575,0,0,1-1.326.1v.737a11.668,11.668,0,0,0,1.425-.1,4.1,4.1,0,0,0,2.757-1.2,4.053,4.053,0,0,0,.234-2.627A78.241,78.241,0,0,0,371.07,1265.54Z" transform="translate(-351.3 -1206.406)" fill="#bbbdbf"/>
        <path id="Path_20577" data-name="Path 20577" d="M358.675,1489.7c-.509.029-.906.327-.888.667s.448.59.957.561.9-.327.888-.667S359.183,1489.673,358.675,1489.7Z" transform="translate(-341.068 -1420.091)" fill="#57585a"/>
        <path id="Path_20578" data-name="Path 20578" d="M182.516,1129.554c-3.3.472-5.314,4.217-4.778,8.262l.955-.129h0a7.85,7.85,0,0,1,.831-4.864,4.013,4.013,0,0,1,6.739-.9,7.828,7.828,0,0,1,2.081,4.473l.956-.127C188.751,1132.225,185.824,1129.141,182.516,1129.554Z" transform="translate(-169.351 -1076.738)" fill="#57585a"/>
        <path id="Path_20579" data-name="Path 20579" d="M258.775,815.331a9.426,9.426,0,0,0-2.119,6.088,69.217,69.217,0,0,0,.691,7.245l.923-.27h0a9.379,9.379,0,0,0-.2-1.355,52.139,52.139,0,0,1-.492-5.619,8.489,8.489,0,0,1,1.926-5.525,5.25,5.25,0,0,1,2.307-1.911l-.224-.895A5.957,5.957,0,0,0,258.775,815.331Z" transform="translate(-244.663 -775.097)" fill="#57585a"/>
        <path id="Path_20580" data-name="Path 20580" d="M693.546,815.293a6,6,0,0,0-2.812-2.243l-.223.9a5.265,5.265,0,0,1,2.305,1.91,9.309,9.309,0,0,1,1.782,3.816,11.685,11.685,0,0,1,.144,2.015,52.175,52.175,0,0,1-.706,7.2l.91.159h0a52.7,52.7,0,0,0,.719-7.356,12.365,12.365,0,0,0-.161-2.184A10.217,10.217,0,0,0,693.546,815.293Z" transform="translate(-658.245 -775.059)" fill="#57585a"/>
        <path id="Path_20581" data-name="Path 20581" d="M687.091,1146.41a3.321,3.321,0,1,0,3.32,3.321A3.321,3.321,0,0,0,687.091,1146.41Z" transform="translate(-651.82 -1092.842)" fill="#929597"/>
        <path id="Path_20582" data-name="Path 20582" d="M722.2,1183.27a1.6,1.6,0,1,0,1.6,1.6A1.6,1.6,0,0,0,722.2,1183.27Z" transform="translate(-686.929 -1127.98)" fill="#d0d2d3"/>
        <path id="Path_20583" data-name="Path 20583" d="M149.9,461.3c-1.589.463-1.223,2.85-1.224,3.738s1.329,4.035,2.221,4.38c2.258.876,2.26-2.416,2.26-2.416v-3.832S151.49,460.839,149.9,461.3Z" transform="translate(-141.696 -439.688)" fill="#ffba7f"/>
        <path id="Path_20584" data-name="Path 20584" d="M802.028,462.134c-1.589-.462-3.258,1.866-3.258,1.866v3.832s0,3.394,2.256,2.419c.876-.38,2.223-3.491,2.224-4.38S803.618,462.6,802.028,462.134Z" transform="translate(-761.446 -440.482)" fill="#ffba7f"/>
        <path id="Path_20585" data-name="Path 20585" d="M234.949,103.29h-7.9c-5.734,0-10.383,6.057-10.387,13.537l0,10.3c0,7.48,7.793,12.724,10.378,13.547a13.234,13.234,0,0,0,7.9,0c2.718-.8,10.384-6.06,10.388-13.539l0-10.306C245.33,109.357,240.683,103.291,234.949,103.29Z" transform="translate(-206.536 -98.464)" fill="#ffba7f"/>
        <path id="Path_20586" data-name="Path 20586" d="M202.117,191.5c1.063-.856,3.707-15.262,3.843-16.023l-4.528,1.444S201.193,192.248,202.117,191.5Z" transform="translate(-191.993 -167.28)" fill="#3b2314"/>
        <path id="Path_20587" data-name="Path 20587" d="M757.89,194.91s2.682,14.727,3.515,15.428.628-13.17.628-13.17Z" transform="translate(-722.476 -185.803)" fill="#3b2314"/>
        <path id="Path_20588" data-name="Path 20588" d="M351.884,496.94a1.7,1.7,0,1,0,1.7,1.7A1.7,1.7,0,0,0,351.884,496.94Z" transform="translate(-333.817 -473.72)" fill="#221f1f"/>
        <path id="Path_20589" data-name="Path 20589" d="M629.253,497a1.7,1.7,0,1,0,1.7,1.7,1.7,1.7,0,0,0-1.7-1.7Z" transform="translate(-598.227 -473.777)" fill="#221f1f"/>
        <path id="Path_20590" data-name="Path 20590" d="M596.785,417.772c-1.98-1.326-5.763-.864-6.34-.806-.5.049-1.536.5-1.484,1s1.822.877,2.327.827a17.489,17.489,0,0,1,6.412.252C598.194,419.163,597.207,418.055,596.785,417.772Z" transform="translate(-561.439 -397.364)" fill="#3b2314"/>
        <path id="Path_20591" data-name="Path 20591" d="M284.48,418.635c-.576-.054-4.357-.521-6.341.8-.421.28-1.409,1.4-.914,1.275a15.988,15.988,0,0,1,6.41-.249c.5.051,2.28-.318,2.331-.823S284.986,418.687,284.48,418.635Z" transform="translate(-264.142 -398.956)" fill="#3b2314"/>
        <path id="Path_20592" data-name="Path 20592" d="M413.36,699.345c.828,1.718,2.048,4.519,5.743,4.514,3.874-.007,6.272-5.919,6.272-5.919C420.489,700.253,417.7,700.53,413.36,699.345Z" transform="translate(-394.045 -665.328)" fill="#d15c58"/>
        <path id="Path_20593" data-name="Path 20593" d="M434.2,711.343c.309,1.016,1.737,1.434,4.623,1.229,3.821-.274,4.673-1.215,5.145-2.3A17.467,17.467,0,0,1,434.2,711.343Z" transform="translate(-413.911 -677.081)" fill="#fff"/>
        <path id="Path_20594" data-name="Path 20594" d="M452.65,775.693a2.87,2.87,0,0,0-1.577-.573,10.981,10.981,0,0,0-2.463.536,4.762,4.762,0,0,0,3.985,1.763,5.192,5.192,0,0,0,3.854-1.924,13.949,13.949,0,0,0-2.535-.374A2.114,2.114,0,0,0,452.65,775.693Z" transform="translate(-427.648 -738.901)" fill="#f88976"/>
        <path id="Path_20595" data-name="Path 20595" d="M486.444,646.513c-1.48,1.234-3.578.86-4.194,0,0,0,.616,2.217,2.1,2.149S487.923,645.28,486.444,646.513Z" transform="translate(-459.716 -616.042)" fill="#f69d5e"/>
        <path id="Path_20596" data-name="Path 20596" d="M211.629.744c-6.564-1.517-10.205,1.021-10.205,1.021A1.26,1.26,0,0,1,201.2,0c-1.82.249-2.317,2.124-2.9,3.559a4.562,4.562,0,0,0-3.281.193,1.447,1.447,0,0,1-.11,2.427C190.5,9.82,192.6,14.065,192.6,14.065s1.625,4.044,2.4,3.227c2.9-3.062,5.172-4.675,5.669-6.992,0,0,3.078,3.988,7.225,4.923,3.419.773,7.652,1.435,9.445,1.075a9.344,9.344,0,0,1-1.986-4.469s4.913,9,7.28,2.317C225.145,7.06,216.325,1.83,211.629.744Z" transform="translate(-183.126)" fill="#3b2314"/>
        <path id="Path_20597" data-name="Path 20597" d="M272,490.357s0,3.787-1.814,4.7c-1.446.732-5.5.657-6.609-.378S262,490,262,490" transform="translate(-249.758 -467.104)" fill="none" stroke="#221f1f" stroke-width="0.75"/>
        <path id="Path_20598" data-name="Path 20598" d="M254.84,484.169s6.772-1.385,10.671.14" transform="translate(-242.932 -460.996)" fill="none" stroke="#221f1f" stroke-linecap="round" stroke-width="1.25"/>
        <line id="Line_266" data-name="Line 266" x1="3.567" y1="2.439" transform="translate(8.977 21.206)" fill="none" stroke="#221f1f" stroke-width="1.25"/>
        <path id="Path_20599" data-name="Path 20599" d="M575,490.357s0,3.8,1.822,4.723c1.451.734,5.52.659,6.635-.38s1.589-4.7,1.589-4.7" transform="translate(-548.132 -467.104)" fill="none" stroke="#221f1f" stroke-width="0.75"/>
        <path id="Path_20600" data-name="Path 20600" d="M567.88,485.433c4.205-1.4,10.712-.14,10.712-.14" transform="translate(-541.345 -462.12)" fill="none" stroke="#221f1f" stroke-linecap="round" stroke-width="1.25"/>
        <line id="Line_267" data-name="Line 267" y1="2.439" x2="3.57" transform="translate(36.607 21.206)" fill="none" stroke="#221f1f" stroke-width="1.25"/>
        <path id="Path_20601" data-name="Path 20601" d="M483.2,500.011a5.907,5.907,0,0,1,2.059-.621,4.25,4.25,0,0,1,1.9.512" transform="translate(-460.622 -476.055)" fill="none" stroke="#221f1f" stroke-linecap="square" stroke-width="1.25"/>
      </g>
    </g>
  </g>
</svg>
