<svg width="244" height="180" viewBox="0 0 244 180" fill="none" xmlns="http://www.w3.org/2000/svg">
<path d="M219.551 167.623H203.389V167.745H219.551V167.623Z" fill="#EBEBEB"/>
<path d="M161.635 168.951H157.395V169.073H161.635V168.951Z" fill="#EBEBEB"/>
<path d="M202.901 163.094H193.536V163.216H202.901V163.094Z" fill="#EBEBEB"/>
<path d="M46.6772 163.914H25.6005V164.036H46.6772V163.914Z" fill="#EBEBEB"/>
<path d="M54.1142 163.914H51.0252V164.036H54.1142V163.914Z" fill="#EBEBEB"/>
<path d="M109.873 165.974H64.1573V166.096H109.873V165.974Z" fill="#EBEBEB"/>
<path d="M116.339 138.006H22.1064C21.3674 138.006 20.6587 137.713 20.1361 137.19C19.6135 136.668 19.3199 135.959 19.3199 135.22V2.76208C19.3264 2.0273 19.6228 1.3248 20.1447 0.807496C20.6665 0.290195 21.3716 -2.81703e-05 22.1064 2.05084e-09H116.339C116.705 2.05085e-09 117.067 0.0720738 117.406 0.212108C117.744 0.352141 118.051 0.557393 118.31 0.816141C118.568 1.07489 118.774 1.38207 118.914 1.72014C119.054 2.05821 119.126 2.42055 119.126 2.78648V135.22C119.126 135.586 119.054 135.948 118.914 136.286C118.774 136.624 118.568 136.932 118.31 137.19C118.051 137.449 117.744 137.654 117.406 137.794C117.067 137.934 116.705 138.006 116.339 138.006ZM22.1064 0.0976004C21.4002 0.0988904 20.7232 0.380025 20.2238 0.879433C19.7244 1.37884 19.4432 2.05581 19.4419 2.76208V135.22C19.4432 135.926 19.7244 136.603 20.2238 137.103C20.7232 137.602 21.4002 137.883 22.1064 137.884H116.339C117.045 137.883 117.722 137.602 118.222 137.103C118.721 136.603 119.002 135.926 119.004 135.22V2.76208C119.002 2.05581 118.721 1.37884 118.222 0.879433C117.722 0.380025 117.045 0.0988904 116.339 0.0976004H22.1064Z" fill="#EBEBEB"/>
<path d="M221.894 138.006H127.661C126.922 138.006 126.213 137.713 125.691 137.19C125.168 136.668 124.874 135.959 124.874 135.22V2.76208C124.881 2.0273 125.177 1.3248 125.699 0.807496C126.221 0.290195 126.926 -2.81703e-05 127.661 2.05084e-09H221.894C222.633 2.05085e-09 223.341 0.293575 223.864 0.816141C224.387 1.33871 224.68 2.04746 224.68 2.78648V135.22C224.68 135.959 224.387 136.668 223.864 137.19C223.341 137.713 222.633 138.006 221.894 138.006ZM127.661 0.0976004C126.955 0.0988904 126.278 0.380025 125.778 0.879433C125.279 1.37884 124.998 2.05581 124.996 2.76208V135.22C124.998 135.926 125.279 136.603 125.778 137.103C126.278 137.602 126.955 137.883 127.661 137.884H221.894C222.6 137.883 223.277 137.602 223.776 137.103C224.276 136.603 224.557 135.926 224.558 135.22V2.76208C224.557 2.05581 224.276 1.37884 223.776 0.879433C223.277 0.380025 222.6 0.0988904 221.894 0.0976004H127.661Z" fill="#EBEBEB"/>
<path d="M244 159.771H0V159.893H244V159.771Z" fill="#EBEBEB"/>
<path d="M46.0623 25.5078C45.4084 25.5078 44.8813 26.191 44.8813 27.0401V29.7046H47.2433V27.0401C47.2433 26.191 46.7162 25.5078 46.0623 25.5078ZM46.0623 27.7477C45.9643 27.7719 45.8612 27.7651 45.7672 27.7283C45.6733 27.6914 45.593 27.6263 45.5376 27.542C45.4821 27.4576 45.4542 27.3581 45.4577 27.2572C45.4611 27.1564 45.4958 27.059 45.5569 26.9787C45.6179 26.8983 45.7024 26.8388 45.7987 26.8085C45.895 26.7782 45.9983 26.7784 46.0944 26.8093C46.1906 26.8401 46.2748 26.9 46.3354 26.9806C46.3961 27.0613 46.4302 27.1588 46.4332 27.2597C46.4472 27.3734 46.4162 27.488 46.3469 27.5791C46.2777 27.6703 46.1755 27.7308 46.0623 27.7477Z" fill="#E0E0E0"/>
<path d="M94.672 25.5078C94.0181 25.5078 93.4861 26.191 93.4861 27.0401V29.7046H95.8529V27.0401C95.8578 26.191 95.3259 25.5078 94.672 25.5078ZM94.672 27.7477C94.574 27.7719 94.4709 27.7651 94.3769 27.7283C94.2829 27.6914 94.2027 27.6263 94.1473 27.542C94.0918 27.4576 94.0639 27.3581 94.0674 27.2572C94.0708 27.1564 94.1055 27.059 94.1665 26.9787C94.2276 26.8983 94.3121 26.8388 94.4084 26.8085C94.5047 26.7782 94.608 26.7784 94.7041 26.8093C94.8002 26.8401 94.8844 26.9 94.9451 26.9806C95.0058 27.0613 95.0399 27.1588 95.0429 27.2597C95.0568 27.3734 95.0259 27.488 94.9566 27.5791C94.8873 27.6703 94.7852 27.7308 94.672 27.7477Z" fill="#E0E0E0"/>
<path d="M101.367 28.6846H39.3719V74.7225H101.367V28.6846Z" fill="#EBEBEB"/>
<path d="M99.6593 30.8953H41.0798V72.5119H99.6593V30.8953Z" fill="#FAFAFA"/>
<path d="M102.514 73.1606H38.2202V76.6596H102.514V73.1606Z" fill="#F0F0F0"/>
<path d="M59.1359 38.2104H48.0973V62.0297H92.6371V38.2104H59.1359ZM83.9995 49.9224H75.8889V46.36H83.9995V49.9224ZM83.9995 53.8264H75.8889V50.2543H83.9995V53.8264ZM83.9995 57.7304H75.8889V54.1583H83.9995V57.7304ZM51.3815 54.1583H58.8723V57.7304H51.3815V54.1583ZM51.3815 50.2543H58.8723V53.8264H51.3815V50.2543ZM51.3815 46.3503H58.8723V49.9224H51.3815V46.3503ZM51.3815 42.4463H58.8723V46.0233H51.3815V42.4463ZM75.64 49.9469H67.5099V46.36H75.64V49.9469ZM75.64 53.8509H67.5099V50.2787H75.64V53.8509ZM59.1505 50.2787H67.2464V53.8509H59.1359L59.1505 50.2787ZM67.2611 49.9371H59.1359V46.36H67.2464L67.2611 49.9371ZM59.1505 54.1924H67.2464V57.7646H59.1359L59.1505 54.1924ZM67.5246 54.1924H75.64V57.7646H67.5099L67.5246 54.1924ZM75.64 46.038H59.1359V42.456H75.64V46.038ZM48.3608 38.552H58.8723V42.1242H48.3608V38.552ZM48.3608 42.456H51.118V46.0331H48.3608V42.456ZM48.3608 46.36H51.118V49.9322H48.3608V46.36ZM48.3608 50.264H51.118V53.8362H48.3608V50.264ZM48.3608 54.168H51.118V57.7402H48.3608V54.168ZM51.118 61.654H48.3608V58.0818H51.118V61.654ZM58.8723 61.654H51.3815V58.0818H58.8723V61.654ZM67.2464 61.654H59.1359V58.0818H67.2464V61.654ZM75.6254 61.654H67.5099V58.0818H75.64L75.6254 61.654ZM83.9995 61.654H75.8889V58.0818H83.9995V61.654ZM92.3735 61.654H84.263V58.0818H92.3735V61.654ZM92.3735 57.75H84.263V54.1778H92.3735V57.75ZM92.3735 53.846H84.263V50.2738H92.3735V53.846ZM92.3735 49.942H84.263V46.36H92.3735V49.942ZM92.3735 46.038H75.8889V42.456H92.3735V46.038ZM75.8889 42.134H59.1359V38.552H92.3735V42.1242L75.8889 42.134Z" fill="#E0E0E0"/>
<path d="M197.64 134.805C197.64 134.805 201.847 130.838 201.778 128.237C201.71 125.636 199.153 131.76 199.104 130.447C199.055 129.135 202.032 125.484 202.134 122.966C202.237 120.448 199.114 127.48 198.948 126.299C198.782 125.118 201.832 119.887 201.807 118.057C201.783 116.227 199.143 122.693 198.753 121.551C198.362 120.409 200.953 116.134 200.29 112.933C199.626 109.732 198.226 118.125 198.016 117.061C197.806 115.998 199.587 110.532 198.323 108.346C197.059 106.159 197.415 114.26 196.986 113.318C196.557 112.377 196.293 107.736 194.683 106.155C193.072 104.573 195.107 110.83 194.614 111.147C194.121 111.464 191.828 106.809 191.198 107.692C190.569 108.575 194.453 113.572 194.492 114.768C194.531 115.963 191.364 112.772 191.076 114.07C190.788 115.368 195.468 117.403 195.717 118.643C195.966 119.882 191.813 117.667 191.838 118.945C191.862 120.224 195.781 120.897 196.015 122.361C196.249 123.825 192.169 121.312 192.394 123.015C192.618 124.718 195.361 124.381 195.673 126.06C195.986 127.739 192.843 125.826 192.96 127.422C193.077 129.017 196.22 129.193 196.552 130.408C196.884 131.623 193.551 129.842 193.624 131.135C193.697 132.429 196.986 132.585 197.64 134.805Z" fill="#E0E0E0"/>
<path d="M197.294 140.441C197.856 137.507 198.152 134.528 198.177 131.54C198.409 125.032 197.453 118.537 195.356 112.372C195.2 111.923 194.473 112.084 194.629 112.538C196.704 118.642 197.655 125.072 197.435 131.516C197.41 134.436 197.124 137.348 196.581 140.217C196.488 140.705 197.196 140.91 197.294 140.441Z" fill="#F0F0F0"/>
<path d="M192.682 137.987C192.682 137.987 194.971 132.677 193.873 130.315C192.775 127.953 192.848 134.571 192.287 133.414C191.725 132.258 192.98 127.7 192.096 125.343C191.213 122.986 191.12 130.686 190.496 129.666C189.871 128.646 190.593 122.639 189.847 120.965C189.1 119.291 189.242 126.28 188.431 125.382C187.621 124.484 188.3 119.526 186.426 116.866C184.552 114.207 186.587 122.449 185.972 121.556C185.357 120.663 184.82 114.943 182.795 113.435C180.77 111.928 184.308 119.223 183.542 118.53C182.776 117.837 180.692 113.704 178.608 112.869C176.524 112.035 180.853 116.988 180.526 117.476C180.199 117.964 176.246 114.597 176.026 115.656C175.807 116.715 181.351 119.765 181.858 120.848C182.366 121.932 178.198 120.253 178.442 121.556C178.686 122.859 183.81 122.869 184.523 123.913C185.235 124.957 180.55 124.562 181.077 125.728C181.604 126.895 185.469 125.967 186.265 127.192C187.06 128.417 182.317 127.758 183.2 129.232C184.083 130.706 186.465 129.31 187.421 130.725C188.378 132.141 184.728 131.633 185.469 133.053C186.211 134.473 189.163 133.385 189.949 134.371C190.735 135.356 186.967 135.039 187.568 136.186C188.168 137.333 191.203 136.21 192.682 137.987Z" fill="#F5F5F5"/>
<path d="M194.6 143.296C193.949 140.383 193.039 137.533 191.882 134.781C189.508 128.716 186.054 123.133 181.687 118.301C181.365 117.95 180.755 118.389 181.082 118.74C185.411 123.519 188.834 129.045 191.184 135.049C192.323 137.738 193.218 140.525 193.858 143.374C193.956 143.862 194.697 143.77 194.6 143.296Z" fill="#E6E6E6"/>
<path d="M202.154 137.67C202.154 137.67 199.226 132.077 200.168 128.285C201.11 124.494 201.783 133.322 202.217 131.213C202.652 129.105 200.851 124.996 202.53 121.941C204.208 118.886 202.652 127.661 203.769 125.738C204.887 123.815 203.584 118.906 205.141 117.032C206.697 115.158 205.629 121.073 206.385 120.141C207.141 119.209 206.941 114.856 208.122 113.86C209.303 112.865 208.249 118.028 208.869 117.032C209.489 116.037 210.918 111.498 212.91 110.942C214.901 110.386 211.607 113.738 212.91 113.426C214.212 113.113 217.199 112.45 217.448 113.802C217.697 115.153 211.167 116.661 210.426 118.34C209.684 120.019 213.407 117.032 214.09 118.276C214.774 119.521 208.376 121.258 207.888 123.127C207.4 124.996 213.173 121.57 213.051 123.498C212.929 125.426 206.4 125.797 206.087 127.475C205.775 129.154 211.455 125.611 211.245 127.29C211.036 128.969 205.389 130.276 205.028 132.077C204.667 133.878 209.196 130.398 209.318 131.828C209.44 133.258 202.154 137.67 202.154 137.67Z" fill="#EBEBEB"/>
<path d="M202.032 142.271C202.146 139.676 202.45 137.093 202.94 134.542C203.838 129.613 205.267 124.577 208.02 120.341C209.531 117.886 211.7 115.905 214.281 114.621C214.715 114.416 214.334 113.772 213.905 113.977C209.201 116.188 206.375 120.897 204.589 125.587C202.982 129.99 201.951 134.583 201.52 139.251C201.412 140.256 201.319 141.271 201.285 142.286C201.285 142.774 202.012 142.774 202.032 142.286V142.271Z" fill="#F5F5F5"/>
<path d="M204.838 139.295H189.422C189.422 139.295 191.784 151.622 191.784 155.789C191.656 157.125 191.453 158.453 191.174 159.766H203.11C202.832 158.453 202.628 157.125 202.5 155.789C202.466 151.622 204.838 139.295 204.838 139.295Z" fill="#EBEBEB"/>
<path d="M53.192 133.224H39.816C39.2437 133.224 38.677 133.111 38.1483 132.892C37.6196 132.673 37.1392 132.352 36.7345 131.948C36.3298 131.543 36.0088 131.063 35.7898 130.534C35.5708 130.005 35.4581 129.438 35.4581 128.866V109.312C35.4581 109.101 35.5419 108.899 35.6911 108.75C35.8403 108.6 36.0426 108.517 36.2536 108.517C36.4645 108.517 36.6669 108.6 36.816 108.75C36.9652 108.899 37.049 109.101 37.049 109.312V128.881C37.049 129.244 37.1206 129.604 37.2596 129.94C37.3987 130.275 37.6025 130.58 37.8594 130.837C38.1164 131.094 38.4214 131.298 38.7571 131.437C39.0928 131.576 39.4526 131.648 39.816 131.648H53.192V133.224Z" fill="#E0E0E0"/>
<path d="M57.0375 152.007V133.77L58.1062 133.434C58.6934 133.25 59.2065 132.883 59.5708 132.387C59.9351 131.891 60.1315 131.292 60.1314 130.677H50.0298C50.0301 131.291 50.2261 131.89 50.5894 132.385C50.9526 132.881 51.4642 133.248 52.0501 133.434L53.1237 133.77V152.007L44.7203 155.779V157.375L55.0806 153.754L65.4408 157.375V155.779L57.0375 152.007Z" fill="#EBEBEB"/>
<path d="M68.2908 131.648H41.8704C41.1094 131.648 40.3796 131.345 39.8414 130.807C39.3033 130.269 39.001 129.539 39.001 128.778C38.9997 128.401 39.073 128.027 39.2167 127.678C39.3604 127.329 39.5716 127.012 39.8383 126.745C40.1049 126.477 40.4217 126.266 40.7705 126.121C41.1192 125.977 41.493 125.903 41.8704 125.904H68.2908C69.0505 125.904 69.7791 126.206 70.3163 126.743C70.8535 127.28 71.1553 128.009 71.1553 128.768C71.1572 129.146 71.0846 129.52 70.9415 129.869C70.7984 130.218 70.5877 130.536 70.3215 130.803C70.0553 131.071 69.7389 131.283 69.3904 131.428C69.0419 131.573 68.6682 131.648 68.2908 131.648Z" fill="#F0F0F0"/>
<path d="M37.2101 116.193L35.7802 95.8041C35.7292 95.0461 35.9804 94.2988 36.4787 93.7254C36.9771 93.1521 37.6822 92.7993 38.4398 92.7443C39.1948 92.6974 39.9379 92.9504 40.5072 93.4485C41.0766 93.9466 41.4262 94.6494 41.4801 95.4039L42.9441 115.793C42.9706 116.168 42.9229 116.545 42.8035 116.902C42.6842 117.26 42.4956 117.59 42.2486 117.874C42.0016 118.158 41.701 118.391 41.364 118.559C41.0269 118.726 40.6601 118.826 40.2845 118.852C39.9076 118.882 39.5286 118.836 39.1695 118.718C38.8104 118.599 38.4783 118.411 38.1924 118.164C37.9065 117.917 37.6725 117.615 37.5039 117.277C37.3352 116.938 37.2354 116.57 37.2101 116.193Z" fill="#F0F0F0"/>
<path d="M46.5357 158.493C46.5357 158.852 46.4292 159.203 46.2297 159.501C46.0303 159.8 45.7468 160.032 45.415 160.17C45.0833 160.307 44.7183 160.343 44.3662 160.273C44.014 160.203 43.6906 160.03 43.4367 159.776C43.1828 159.522 43.0099 159.199 42.9399 158.847C42.8698 158.495 42.9058 158.13 43.0432 157.798C43.1806 157.466 43.4132 157.183 43.7118 156.983C44.0103 156.784 44.3613 156.677 44.7203 156.677C44.9587 156.677 45.1948 156.724 45.415 156.815C45.6353 156.907 45.8354 157.04 46.004 157.209C46.1726 157.378 46.3063 157.578 46.3975 157.798C46.4887 158.018 46.5357 158.254 46.5357 158.493Z" fill="#E0E0E0"/>
<path d="M67.2513 158.493C67.2513 158.852 67.1447 159.203 66.945 159.502C66.7453 159.8 66.4615 160.033 66.1295 160.17C65.7975 160.308 65.4322 160.343 65.0799 160.273C64.7277 160.202 64.4042 160.029 64.1505 159.775C63.8968 159.52 63.7243 159.196 63.6548 158.844C63.5853 158.491 63.622 158.126 63.7601 157.795C63.8983 157.463 64.1317 157.18 64.4309 156.981C64.7301 156.782 65.0815 156.676 65.4408 156.677C65.679 156.677 65.9148 156.724 66.1348 156.816C66.3547 156.907 66.5545 157.041 66.7227 157.209C66.8909 157.378 67.0242 157.578 67.1149 157.798C67.2056 158.018 67.2519 158.254 67.2513 158.493Z" fill="#E0E0E0"/>
<path d="M199.163 91.5586H199.963V29.2947H199.163V91.5586Z" fill="#E0E0E0"/>
<path d="M149.46 91.5586H150.26V29.2947H149.46V91.5586Z" fill="#E0E0E0"/>
<path d="M146.332 33.2084H203.091L204.287 30.417H145.136L146.332 33.2084Z" fill="#F0F0F0"/>
<path d="M146.332 37.044H203.091L204.287 34.2527H145.136L146.332 37.044Z" fill="#F0F0F0"/>
<path d="M146.332 40.8846H203.091L204.287 38.0884H145.136L146.332 40.8846Z" fill="#F0F0F0"/>
<path d="M146.332 44.7206H203.091L204.287 41.9243H145.136L146.332 44.7206Z" fill="#F0F0F0"/>
<path d="M146.332 48.556H203.091L204.287 45.7598H145.136L146.332 48.556Z" fill="#F0F0F0"/>
<path d="M146.332 52.3915H203.091L204.287 49.6001H145.136L146.332 52.3915Z" fill="#F0F0F0"/>
<path d="M146.332 56.2274H203.091L204.287 53.436H145.136L146.332 56.2274Z" fill="#F0F0F0"/>
<path d="M146.332 60.068H203.091L204.287 57.2717H145.136L146.332 60.068Z" fill="#F0F0F0"/>
<path d="M146.332 63.9037H203.091L204.287 61.1074H145.136L146.332 63.9037Z" fill="#F0F0F0"/>
<path d="M146.332 67.7394H203.091L204.287 64.9431H145.136L146.332 67.7394Z" fill="#F0F0F0"/>
<path d="M146.332 71.5751H203.091L204.287 68.7837H145.136L146.332 71.5751Z" fill="#F0F0F0"/>
<path d="M146.332 75.4107H203.091L204.287 72.6194H145.136L146.332 75.4107Z" fill="#F0F0F0"/>
<path d="M146.332 79.2511H203.091L204.287 76.4548H145.136L146.332 79.2511Z" fill="#F0F0F0"/>
<path d="M146.332 83.087H203.091L204.287 80.2908H145.136L146.332 83.087Z" fill="#F0F0F0"/>
<path d="M146.332 86.9225H203.091L204.287 84.1262H145.136L146.332 86.9225Z" fill="#F0F0F0"/>
<path d="M146.332 90.7582H203.091L204.287 87.9668H145.136L146.332 90.7582Z" fill="#F0F0F0"/>
<path d="M204.287 90.7583H145.136V92.3541H204.287V90.7583Z" fill="#E0E0E0"/>
<path d="M143.077 30.6462L206.351 30.6462V26.9179L143.077 26.9179V30.6462Z" fill="#E0E0E0"/>
<path d="M205.697 64.4162C205.868 64.4162 206.032 64.3483 206.152 64.2275C206.273 64.1067 206.341 63.9429 206.341 63.772V42.0463C206.34 41.8758 206.271 41.7127 206.151 41.5922C206.03 41.4717 205.867 41.4034 205.697 41.4021C205.527 41.4034 205.364 41.4718 205.244 41.5925C205.125 41.7132 205.058 41.8763 205.058 42.0463V63.7818C205.06 63.9501 205.128 64.1107 205.248 64.2293C205.367 64.3478 205.529 64.4149 205.697 64.4162Z" fill="#E0E0E0"/>
<path d="M205.468 42.8025H205.931V29.8949H205.468V42.8025Z" fill="#E0E0E0"/>
<path d="M122 179.931C174.256 179.931 216.618 177.457 216.618 174.406C216.618 171.356 174.256 168.882 122 168.882C69.7438 168.882 27.3817 171.356 27.3817 174.406C27.3817 177.457 69.7438 179.931 122 179.931Z" fill="#F5F5F5"/>
<path d="M92.9542 35.6728H85.1853C84.1621 35.6542 83.1468 35.8538 82.2068 36.2584C81.2668 36.6629 80.4239 37.2631 79.734 38.019C79.0442 38.7748 78.5234 39.669 78.2062 40.6419C77.889 41.6148 77.7828 42.6442 77.8946 43.6614L86.5663 142.76C86.7868 144.923 87.7925 146.931 89.3931 148.403C90.9938 149.875 93.0784 150.709 95.2527 150.748H103.022L92.9542 35.6728Z" fill="#263238"/>
<path d="M97.3755 150.748H165.456C166.48 150.768 167.496 150.57 168.437 150.166C169.378 149.762 170.222 149.162 170.913 148.406C171.603 147.65 172.125 146.755 172.442 145.781C172.759 144.808 172.865 143.777 172.752 142.76L164.075 43.6615C163.855 41.4981 162.849 39.4905 161.249 38.0184C159.648 36.5463 157.563 35.7119 155.389 35.673H87.3032C86.2816 35.6572 85.2685 35.8589 84.3309 36.2647C83.3933 36.6704 82.5527 37.271 81.865 38.0266C81.1773 38.7821 80.6582 39.6753 80.3422 40.6468C80.0262 41.6184 79.9204 42.646 80.032 43.6615L88.6988 142.76C88.9201 144.921 89.9247 146.927 91.5231 148.398C93.1215 149.87 95.2032 150.706 97.3755 150.748Z" fill="#263238"/>
<path opacity="0.6" d="M97.3755 150.748H165.456C166.48 150.768 167.496 150.57 168.437 150.166C169.378 149.762 170.222 149.162 170.913 148.406C171.603 147.65 172.125 146.755 172.442 145.781C172.759 144.808 172.865 143.777 172.752 142.76L164.075 43.6615C163.855 41.4981 162.849 39.4905 161.249 38.0184C159.648 36.5463 157.563 35.7119 155.389 35.673H87.3032C86.2816 35.6572 85.2685 35.8589 84.3309 36.2647C83.3933 36.6704 82.5527 37.271 81.865 38.0266C81.1773 38.7821 80.6582 39.6753 80.3422 40.6468C80.0262 41.6184 79.9204 42.646 80.032 43.6615L88.6988 142.76C88.9201 144.921 89.9247 146.927 91.5231 148.398C93.1215 149.87 95.2032 150.706 97.3755 150.748Z" fill="white"/>
<path d="M169.956 142.76L161.289 43.6616H82.8038L91.4707 142.76H169.956Z" fill="white"/>
<path d="M131.272 149.035C130.588 149.022 129.933 148.759 129.429 148.296C128.926 147.833 128.609 147.202 128.539 146.522C128.504 146.202 128.537 145.877 128.637 145.571C128.736 145.265 128.9 144.983 129.117 144.745C129.334 144.506 129.599 144.317 129.895 144.189C130.191 144.062 130.511 143.998 130.833 144.004C131.518 144.017 132.174 144.28 132.679 144.744C133.183 145.208 133.5 145.84 133.57 146.522C133.605 146.842 133.571 147.166 133.471 147.472C133.371 147.779 133.206 148.06 132.989 148.298C132.772 148.535 132.506 148.724 132.21 148.851C131.914 148.978 131.594 149.041 131.272 149.035ZM130.886 144.643C130.644 144.64 130.403 144.688 130.181 144.784C129.958 144.881 129.758 145.023 129.595 145.203C129.432 145.382 129.308 145.594 129.233 145.825C129.158 146.056 129.133 146.3 129.159 146.541C129.212 147.054 129.451 147.529 129.83 147.878C130.21 148.226 130.703 148.424 131.218 148.435C131.461 148.439 131.702 148.391 131.924 148.296C132.147 148.2 132.347 148.057 132.511 147.878C132.675 147.699 132.799 147.488 132.875 147.257C132.95 147.027 132.976 146.783 132.951 146.541C132.9 146.023 132.661 145.541 132.279 145.187C131.897 144.834 131.397 144.633 130.877 144.623L130.886 144.643Z" fill="#D91E15"/>
<path d="M157.887 53.2945H152.105L151.602 47.5166H157.38L157.887 53.2945Z" fill="#263238"/>
<path d="M104.617 53.2945H88.0986L87.5959 47.5166H104.115L104.617 53.2945Z" fill="#263238"/>
<path d="M161.679 96.6534H91.8953L88.7135 60.3169H158.502L161.679 96.6534Z" fill="#263238"/>
<path d="M135.844 136.484H95.3795L92.3295 101.606H132.794L135.844 136.484Z" fill="#263238"/>
<path d="M146.912 109.556H137.621L136.923 101.606H146.215L146.912 109.556Z" fill="#263238"/>
<path d="M159.869 104.29H149.704C149.338 104.285 148.986 104.145 148.716 103.898C148.446 103.651 148.277 103.313 148.24 102.948C148.221 102.778 148.239 102.605 148.292 102.441C148.346 102.278 148.433 102.128 148.549 102.001C148.665 101.874 148.806 101.773 148.964 101.705C149.122 101.637 149.293 101.603 149.465 101.606H159.63C159.995 101.613 160.346 101.753 160.616 102C160.886 102.247 161.056 102.585 161.094 102.948C161.112 103.119 161.095 103.292 161.041 103.456C160.988 103.619 160.9 103.769 160.785 103.896C160.669 104.023 160.527 104.124 160.369 104.192C160.211 104.26 160.041 104.294 159.869 104.29Z" fill="#263238"/>
<path d="M161.469 109.556H150.162C149.796 109.551 149.445 109.411 149.175 109.164C148.905 108.917 148.736 108.579 148.698 108.214C148.68 108.043 148.698 107.87 148.751 107.707C148.804 107.544 148.892 107.393 149.008 107.266C149.124 107.139 149.265 107.039 149.423 106.971C149.581 106.903 149.752 106.869 149.923 106.872H161.225C161.591 106.879 161.942 107.019 162.212 107.266C162.481 107.513 162.651 107.85 162.689 108.214C162.707 108.385 162.689 108.557 162.636 108.719C162.582 108.882 162.495 109.032 162.38 109.159C162.265 109.285 162.124 109.386 161.967 109.455C161.81 109.523 161.641 109.558 161.469 109.556Z" fill="#263238"/>
<path d="M160.791 114.822H139.422C139.055 114.816 138.704 114.677 138.434 114.429C138.164 114.182 137.995 113.844 137.958 113.48C137.939 113.309 137.957 113.136 138.01 112.972C138.063 112.809 138.151 112.659 138.267 112.532C138.383 112.405 138.524 112.304 138.682 112.236C138.84 112.168 139.011 112.135 139.182 112.138H160.552C160.918 112.143 161.269 112.283 161.539 112.53C161.809 112.777 161.979 113.115 162.016 113.48C162.035 113.651 162.017 113.823 161.963 113.987C161.91 114.15 161.823 114.301 161.707 114.427C161.591 114.554 161.449 114.655 161.291 114.723C161.133 114.791 160.963 114.825 160.791 114.822Z" fill="#263238"/>
<path d="M162.387 120.087H139.885C139.519 120.082 139.168 119.942 138.898 119.695C138.628 119.447 138.458 119.109 138.421 118.745C138.402 118.574 138.42 118.401 138.474 118.238C138.527 118.074 138.614 117.924 138.73 117.797C138.846 117.67 138.988 117.569 139.146 117.501C139.304 117.433 139.474 117.4 139.646 117.403H162.148C162.514 117.408 162.865 117.548 163.135 117.795C163.405 118.043 163.575 118.381 163.612 118.745C163.631 118.916 163.613 119.089 163.559 119.252C163.506 119.416 163.419 119.566 163.303 119.693C163.187 119.82 163.045 119.921 162.887 119.989C162.729 120.057 162.559 120.09 162.387 120.087Z" fill="#263238"/>
<path d="M159.957 125.352H140.344C139.978 125.347 139.626 125.207 139.356 124.96C139.087 124.713 138.917 124.375 138.88 124.01C138.861 123.84 138.879 123.667 138.932 123.503C138.986 123.34 139.073 123.19 139.189 123.063C139.305 122.936 139.447 122.835 139.604 122.767C139.762 122.699 139.933 122.665 140.105 122.668H159.722C160.088 122.674 160.44 122.813 160.71 123.061C160.98 123.308 161.149 123.646 161.186 124.01C161.205 124.182 161.187 124.355 161.134 124.519C161.08 124.683 160.992 124.833 160.876 124.96C160.759 125.087 160.617 125.188 160.458 125.256C160.3 125.323 160.129 125.356 159.957 125.352Z" fill="#263238"/>
<path d="M163.309 130.618H140.803C140.437 130.612 140.086 130.472 139.816 130.225C139.547 129.977 139.377 129.64 139.339 129.276C139.32 129.105 139.338 128.932 139.391 128.769C139.444 128.606 139.532 128.455 139.648 128.328C139.764 128.201 139.905 128.101 140.063 128.033C140.221 127.965 140.392 127.931 140.564 127.934H163.07C163.436 127.94 163.788 128.079 164.058 128.327C164.327 128.574 164.497 128.912 164.534 129.276C164.553 129.447 164.535 129.62 164.482 129.784C164.428 129.947 164.341 130.097 164.225 130.224C164.109 130.351 163.967 130.452 163.81 130.52C163.652 130.588 163.481 130.621 163.309 130.618Z" fill="#263238"/>
<path d="M156.775 135.883H141.266C140.9 135.878 140.549 135.739 140.279 135.491C140.009 135.244 139.839 134.906 139.802 134.541C139.787 134.372 139.808 134.201 139.863 134.041C139.918 133.88 140.007 133.732 140.123 133.608C140.239 133.484 140.38 133.385 140.537 133.319C140.693 133.253 140.862 133.22 141.032 133.224H156.541C156.907 133.229 157.258 133.369 157.528 133.616C157.798 133.864 157.968 134.202 158.005 134.566C158.02 134.735 157.999 134.906 157.944 135.067C157.889 135.228 157.8 135.375 157.684 135.499C157.568 135.624 157.427 135.722 157.27 135.788C157.114 135.854 156.945 135.887 156.775 135.883Z" fill="#263238"/>
<path opacity="0.9" d="M157.887 53.2945H152.105L151.602 47.5166H157.38L157.887 53.2945Z" fill="white"/>
<path opacity="0.9" d="M104.617 53.2945H88.0986L87.5959 47.5166H104.115L104.617 53.2945Z" fill="white"/>
<path opacity="0.9" d="M161.679 96.6534H91.8953L88.7135 60.3169H158.502L161.679 96.6534Z" fill="white"/>
<path opacity="0.9" d="M135.844 136.484H95.3795L92.3295 101.606H132.794L135.844 136.484Z" fill="white"/>
<path opacity="0.9" d="M146.912 109.556H137.621L136.923 101.606H146.215L146.912 109.556Z" fill="white"/>
<path opacity="0.9" d="M159.869 104.29H149.704C149.338 104.285 148.986 104.145 148.716 103.898C148.446 103.651 148.277 103.313 148.24 102.948C148.221 102.778 148.239 102.605 148.292 102.441C148.346 102.278 148.433 102.128 148.549 102.001C148.665 101.874 148.806 101.773 148.964 101.705C149.122 101.637 149.293 101.603 149.465 101.606H159.63C159.995 101.613 160.346 101.753 160.616 102C160.886 102.247 161.056 102.585 161.094 102.948C161.112 103.119 161.095 103.292 161.041 103.456C160.988 103.619 160.9 103.769 160.785 103.896C160.669 104.023 160.527 104.124 160.369 104.192C160.211 104.26 160.041 104.294 159.869 104.29Z" fill="white"/>
<path opacity="0.9" d="M161.469 109.556H150.162C149.796 109.551 149.445 109.411 149.175 109.164C148.905 108.917 148.736 108.579 148.698 108.214C148.68 108.043 148.698 107.87 148.751 107.707C148.804 107.544 148.892 107.393 149.008 107.266C149.124 107.139 149.265 107.039 149.423 106.971C149.581 106.903 149.752 106.869 149.923 106.872H161.225C161.591 106.879 161.942 107.019 162.212 107.266C162.481 107.513 162.651 107.85 162.689 108.214C162.707 108.385 162.689 108.557 162.636 108.719C162.582 108.882 162.495 109.032 162.38 109.159C162.265 109.285 162.124 109.386 161.967 109.455C161.81 109.523 161.641 109.558 161.469 109.556Z" fill="white"/>
<path opacity="0.9" d="M160.791 114.822H139.422C139.055 114.816 138.704 114.677 138.434 114.429C138.164 114.182 137.995 113.844 137.958 113.48C137.939 113.309 137.957 113.136 138.01 112.972C138.063 112.809 138.151 112.659 138.267 112.532C138.383 112.405 138.524 112.304 138.682 112.236C138.84 112.168 139.011 112.135 139.182 112.138H160.552C160.918 112.143 161.269 112.283 161.539 112.53C161.809 112.777 161.979 113.115 162.016 113.48C162.035 113.651 162.017 113.823 161.963 113.987C161.91 114.15 161.823 114.301 161.707 114.427C161.591 114.554 161.449 114.655 161.291 114.723C161.133 114.791 160.963 114.825 160.791 114.822Z" fill="white"/>
<path opacity="0.9" d="M162.387 120.087H139.885C139.519 120.082 139.168 119.942 138.898 119.695C138.628 119.447 138.458 119.109 138.421 118.745C138.402 118.574 138.42 118.401 138.474 118.238C138.527 118.074 138.614 117.924 138.73 117.797C138.846 117.67 138.988 117.569 139.146 117.501C139.304 117.433 139.474 117.4 139.646 117.403H162.148C162.514 117.408 162.865 117.548 163.135 117.795C163.405 118.043 163.575 118.381 163.612 118.745C163.631 118.916 163.613 119.089 163.559 119.252C163.506 119.416 163.419 119.566 163.303 119.693C163.187 119.82 163.045 119.921 162.887 119.989C162.729 120.057 162.559 120.09 162.387 120.087Z" fill="white"/>
<path opacity="0.9" d="M159.957 125.352H140.344C139.978 125.347 139.626 125.207 139.356 124.96C139.087 124.713 138.917 124.375 138.88 124.01C138.861 123.84 138.879 123.667 138.932 123.503C138.986 123.34 139.073 123.19 139.189 123.063C139.305 122.936 139.447 122.835 139.604 122.767C139.762 122.699 139.933 122.665 140.105 122.668H159.722C160.088 122.674 160.44 122.813 160.71 123.061C160.98 123.308 161.149 123.646 161.186 124.01C161.205 124.182 161.187 124.355 161.134 124.519C161.08 124.683 160.992 124.833 160.876 124.96C160.759 125.087 160.617 125.188 160.458 125.256C160.3 125.323 160.129 125.356 159.957 125.352Z" fill="white"/>
<path opacity="0.9" d="M163.309 130.618H140.803C140.437 130.612 140.086 130.472 139.816 130.225C139.547 129.977 139.377 129.64 139.339 129.276C139.32 129.105 139.338 128.932 139.391 128.769C139.444 128.606 139.532 128.455 139.648 128.328C139.764 128.201 139.905 128.101 140.063 128.033C140.221 127.965 140.392 127.931 140.564 127.934H163.07C163.436 127.94 163.788 128.079 164.058 128.327C164.327 128.574 164.497 128.912 164.534 129.276C164.553 129.447 164.535 129.62 164.482 129.784C164.428 129.947 164.341 130.097 164.225 130.224C164.109 130.351 163.967 130.452 163.81 130.52C163.652 130.588 163.481 130.621 163.309 130.618Z" fill="white"/>
<path opacity="0.9" d="M156.775 135.883H141.266C140.9 135.878 140.549 135.739 140.279 135.491C140.009 135.244 139.839 134.906 139.802 134.541C139.787 134.372 139.808 134.201 139.863 134.041C139.918 133.88 140.007 133.732 140.123 133.608C140.239 133.484 140.38 133.385 140.537 133.319C140.693 133.253 140.862 133.22 141.032 133.224H156.541C156.907 133.229 157.258 133.369 157.528 133.616C157.798 133.864 157.968 134.202 158.005 134.566C158.02 134.735 157.999 134.906 157.944 135.067C157.889 135.228 157.8 135.375 157.684 135.499C157.568 135.624 157.427 135.722 157.27 135.788C157.114 135.854 156.945 135.887 156.775 135.883Z" fill="white"/>
<path opacity="0.2" d="M149.011 95.2479H105.579C103.003 95.2016 100.534 94.2133 98.6373 92.4698C96.7409 90.7262 95.549 88.3483 95.2869 85.7856C95.1548 84.579 95.2816 83.3582 95.6587 82.2045C96.0359 81.0508 96.6548 79.9908 97.4741 79.0953C98.2934 78.1998 99.2943 77.4893 100.41 77.0113C101.526 76.5333 102.731 76.2987 103.944 76.3233H147.376C149.952 76.3696 152.421 77.3579 154.318 79.1014C156.214 80.845 157.406 83.2229 157.668 85.7856C157.8 86.9922 157.673 88.213 157.296 89.3667C156.919 90.5204 156.3 91.5804 155.481 92.4759C154.661 93.3714 153.661 94.0819 152.545 94.5599C151.429 95.0379 150.224 95.2725 149.011 95.2479Z" fill="black"/>
<path d="M148.84 93.2079H105.408C102.832 93.1626 100.363 92.1744 98.4672 90.4306C96.5714 88.6868 95.3808 86.3083 95.1209 83.7456C94.9869 82.5406 95.1112 81.3209 95.4857 80.1678C95.8601 79.0146 96.4761 77.9546 97.2926 77.0583C98.109 76.1619 99.1071 75.4499 100.22 74.9698C101.334 74.4896 102.537 74.2522 103.749 74.2735H147.181C149.756 74.3198 152.226 75.3082 154.122 77.0517C156.019 78.7952 157.211 81.1731 157.473 83.7359C157.606 84.9411 157.481 86.1609 157.106 87.314C156.731 88.4672 156.114 89.5272 155.298 90.4234C154.481 91.3196 153.482 92.0315 152.369 92.5116C151.255 92.9918 150.052 93.2292 148.84 93.2079Z" fill="#D91E15"/>
<path d="M190.091 66.6707C190.232 66.5243 190.374 66.373 190.51 66.2168C189.749 65.3287 189.661 63.9379 190.022 61.6101C190.828 56.2177 180.438 48.7123 178.057 55.9591C177.715 56.9936 169.79 58.2673 173.689 64.7431C173.479 63.5231 173.362 61.5711 174.465 60.6292C174.07 61.4872 173.875 62.4238 173.895 63.3682C173.915 64.3126 174.15 65.24 174.582 66.0802C176.671 70.0086 179.023 68.9057 179.389 70.7406C181.863 70.9998 184.359 70.5156 186.558 69.3498C186.435 69.0454 186.385 68.7165 186.412 68.3894C186.439 68.0623 186.542 67.7461 186.714 67.4661C186.701 68.014 186.873 68.5504 187.202 68.9887C188.04 68.4787 188.823 67.8834 189.539 67.2123C189.12 66.7667 188.804 66.2336 188.615 65.6514C188.426 65.0692 188.368 64.4523 188.446 63.8451C188.68 65.6849 189.481 66.3925 190.091 66.6707Z" fill="#263238"/>
<path d="M178.218 172.196H174.714L174.889 164.075H178.398L178.218 172.196Z" fill="#FFCCB0"/>
<path opacity="0.2" d="M174.889 164.081L174.797 168.263H178.305L178.398 164.081H174.889Z" fill="black"/>
<path d="M176.612 93.9107C176.612 93.9107 175.236 122.254 174.924 131.692C174.621 140.642 174.133 167.452 174.133 167.452H178.871C178.871 167.452 182.668 140.798 183.659 131.906C184.742 122.215 187.075 93.1543 187.075 93.1543L176.612 93.9107Z" fill="#D91E15"/>
<path opacity="0.2" d="M187.089 93.1543L184.898 93.3105C184.479 94.0319 184.116 94.784 183.81 95.5601C179.906 105.252 181.287 119.209 183.756 131.048C184.874 120.614 187.089 93.1543 187.089 93.1543Z" fill="black"/>
<path d="M174.558 170.205L178.462 170.727C178.529 170.736 178.59 170.768 178.636 170.818C178.681 170.868 178.708 170.932 178.71 171L178.74 174.152C178.739 174.231 178.722 174.308 178.689 174.379C178.657 174.45 178.61 174.513 178.552 174.565C178.493 174.617 178.425 174.656 178.35 174.68C178.276 174.704 178.198 174.712 178.12 174.704C176.763 174.499 176.119 174.333 174.401 174.104C173.342 173.962 170.297 173.664 168.838 173.469C167.379 173.274 167.491 171.825 168.116 171.776C170.917 171.551 172.947 171 173.972 170.351C174.146 170.239 174.352 170.188 174.558 170.205Z" fill="#263238"/>
<path d="M173.172 170.639C172.87 170.627 172.583 170.512 172.357 170.312C172.308 170.255 172.274 170.187 172.258 170.114C172.242 170.041 172.244 169.965 172.264 169.892C172.272 169.847 172.291 169.805 172.32 169.77C172.349 169.735 172.387 169.708 172.43 169.692C172.889 169.517 174.182 170.41 174.323 170.512C174.338 170.521 174.349 170.534 174.355 170.55C174.361 170.566 174.362 170.584 174.358 170.6C174.353 170.617 174.343 170.631 174.33 170.643C174.317 170.654 174.301 170.661 174.284 170.663C173.914 170.691 173.541 170.683 173.172 170.639ZM172.65 169.824C172.598 169.811 172.545 169.811 172.493 169.824C172.475 169.83 172.46 169.841 172.447 169.856C172.435 169.87 172.428 169.888 172.425 169.907C172.412 169.954 172.41 170.003 172.42 170.051C172.43 170.099 172.452 170.143 172.484 170.18C172.669 170.4 173.235 170.507 174.026 170.483C173.607 170.187 173.142 169.965 172.65 169.824Z" fill="#D91E15"/>
<path d="M174.265 170.663H174.236C173.845 170.424 173.123 169.56 173.26 169.199C173.289 169.107 173.372 168.999 173.601 169.004C173.769 169.012 173.926 169.086 174.04 169.209C174.298 169.632 174.418 170.125 174.382 170.619C174.38 170.633 174.375 170.647 174.368 170.659C174.36 170.67 174.35 170.68 174.338 170.688L174.265 170.663ZM173.626 169.141H173.577C173.425 169.141 173.406 169.199 173.401 169.214C173.333 169.448 173.806 170.112 174.196 170.424C174.215 170.025 174.112 169.63 173.899 169.292C173.829 169.21 173.732 169.156 173.626 169.141Z" fill="#D91E15"/>
<path d="M198.411 171.781H194.907L193.375 163.661H196.884L198.411 171.781Z" fill="#FFCCB0"/>
<path opacity="0.2" d="M193.375 163.666L194.165 167.848H197.674L196.884 163.666H193.375Z" fill="black"/>
<path d="M180.331 93.4959C180.331 93.4959 183.673 121.839 185.347 131.277C186.928 140.227 193.326 167.038 193.326 167.038H198.069C198.069 167.038 195.01 140.383 194.131 131.492C193.643 126.46 193.585 116.92 193.555 111.61C193.555 109.336 193.814 104.876 192.697 101.319C191.452 97.356 190.257 92.7395 190.257 92.7395L180.331 93.4959Z" fill="#D91E15"/>
<path opacity="0.2" d="M193.248 166.75H198.026C197.986 166.393 197.908 165.715 197.801 164.798L192.823 164.968L193.248 166.75Z" fill="black"/>
<path d="M173.069 73.3413C173.069 73.3413 171.444 74.0489 176.275 94.3253L190.476 93.2907C189.817 87.5275 189.549 83.9651 191.452 71.9017C189.433 71.6367 187.398 71.5176 185.362 71.5455C183.204 71.5531 181.05 71.7162 178.915 72.0335C176.168 72.4727 173.069 73.3413 173.069 73.3413Z" fill="#D91E15"/>
<path opacity="0.5" d="M173.069 73.3413C173.069 73.3413 171.444 74.0489 176.275 94.3253L190.476 93.2907C189.817 87.5275 189.549 83.9651 191.452 71.9017C189.433 71.6367 187.398 71.5176 185.362 71.5455C183.204 71.5531 181.05 71.7162 178.915 72.0335C176.168 72.4727 173.069 73.3413 173.069 73.3413Z" fill="white"/>
<path d="M184.196 64.3328C183.942 66.436 183.81 70.2668 185.362 71.5454C185.362 71.5454 184.947 73.6926 181.092 73.9854C176.856 74.2928 178.915 72.0334 178.915 72.0334C181.19 71.3112 181.004 69.5934 180.482 68.0172L184.196 64.3328Z" fill="#FFCCB0"/>
<path opacity="0.2" d="M182.683 65.8311L180.487 67.9978C180.612 68.3665 180.705 68.7453 180.765 69.1299C181.643 68.9347 182.785 67.8807 182.81 66.9486C182.835 66.5715 182.792 66.193 182.683 65.8311Z" fill="black"/>
<path d="M186.567 60.8291C185.772 64.2207 185.508 65.6701 183.478 67.1292C180.428 69.3301 176.441 67.6172 176.207 64.0548C175.997 60.8535 177.334 55.8515 180.916 55.061C181.705 54.8837 182.527 54.911 183.303 55.1403C184.078 55.3695 184.783 55.7931 185.349 56.3709C185.915 56.9487 186.324 57.6615 186.537 58.4417C186.75 59.2219 186.761 60.0437 186.567 60.8291Z" fill="#FFCCB0"/>
<path d="M178.413 55.671C177.276 57.257 188.368 63.1618 187.304 59.4286C186.24 55.6954 181.39 51.5327 178.413 55.671Z" fill="#263238"/>
<path d="M184.059 59.4823C183.791 61.1317 185.967 63.0837 185.967 63.0837C185.967 63.0837 188.763 61.0244 187.006 59.9264C185.25 58.8284 184.059 59.4823 184.059 59.4823Z" fill="#263238"/>
<path d="M180.731 60.8098C180.682 61.0879 180.497 61.2978 180.311 61.2587C180.126 61.2197 180.023 60.9757 180.067 60.6975C180.111 60.4194 180.301 60.2095 180.487 60.2486C180.672 60.2876 180.775 60.5121 180.731 60.8098Z" fill="#263238"/>
<path d="M177.578 60.268C177.53 60.5511 177.344 60.756 177.164 60.717C176.983 60.6779 176.871 60.434 176.92 60.1558C176.968 59.8776 177.154 59.6678 177.334 59.7068C177.515 59.7459 177.632 59.9899 177.578 60.268Z" fill="#263238"/>
<path d="M177.412 59.7362L176.773 59.4287C176.773 59.4287 177.032 60.0241 177.412 59.7362Z" fill="#263238"/>
<path d="M178.686 60.9365C178.332 61.531 177.897 62.0731 177.393 62.5469C177.519 62.6745 177.672 62.7726 177.841 62.8341C178.01 62.8957 178.19 62.9193 178.369 62.9032L178.686 60.9365Z" fill="#FFCCB0"/>
<path d="M179.687 64.2548C179.548 64.2508 179.409 64.2378 179.272 64.2158C179.261 64.214 179.25 64.2101 179.241 64.2042C179.231 64.1983 179.223 64.1906 179.217 64.1815C179.211 64.1724 179.206 64.1621 179.204 64.1512C179.201 64.1403 179.201 64.1291 179.203 64.1182C179.208 64.0976 179.22 64.0793 179.237 64.0667C179.254 64.0542 179.275 64.0482 179.296 64.0499C179.642 64.1178 180 64.1028 180.339 64.0061C180.678 63.9094 180.99 63.7338 181.248 63.4936C181.264 63.4792 181.285 63.4712 181.307 63.4712C181.328 63.4712 181.349 63.4792 181.365 63.4936C181.381 63.5099 181.39 63.5318 181.39 63.5546C181.39 63.5773 181.381 63.5992 181.365 63.6156C180.912 64.0419 180.309 64.2717 179.687 64.2548Z" fill="#263238"/>
<path d="M186.958 64.1282C186.619 64.7082 186.065 65.1309 185.416 65.3043C184.552 65.5239 184.137 64.7479 184.396 63.9427C184.625 63.2205 185.372 62.2299 186.211 62.3665C186.399 62.3988 186.575 62.4776 186.725 62.5959C186.874 62.7142 186.991 62.8681 187.065 63.0434C187.14 63.2188 187.169 63.41 187.15 63.5996C187.131 63.7891 187.065 63.9709 186.958 64.1282Z" fill="#FFCCB0"/>
<path d="M182.102 60.38C182.067 60.3795 182.033 60.3679 182.005 60.3469C181.977 60.3258 181.956 60.2964 181.946 60.2629C181.834 60.0164 181.672 59.7958 181.471 59.6151C181.269 59.4345 181.032 59.2978 180.775 59.2137C180.754 59.207 180.735 59.1962 180.718 59.182C180.701 59.1678 180.688 59.1505 180.678 59.131C180.668 59.1115 180.662 59.0903 180.66 59.0684C180.658 59.0466 180.661 59.0247 180.667 59.0039C180.674 58.983 180.685 58.9637 180.699 58.9471C180.713 58.9304 180.731 58.9167 180.75 58.9067C180.77 58.8967 180.791 58.8907 180.813 58.889C180.834 58.8872 180.856 58.8898 180.877 58.8965C181.186 58.9962 181.469 59.1611 181.708 59.38C181.947 59.5989 182.137 59.8668 182.263 60.1653C182.27 60.1861 182.273 60.2081 182.271 60.2299C182.269 60.2518 182.263 60.2731 182.253 60.2926C182.243 60.3121 182.229 60.3294 182.213 60.3436C182.196 60.3578 182.177 60.3685 182.156 60.3751L182.102 60.38Z" fill="#263238"/>
<path d="M176.88 58.6528C176.851 58.6534 176.823 58.646 176.798 58.6314C176.773 58.6167 176.753 58.5954 176.739 58.5698C176.728 58.551 176.72 58.53 176.717 58.5082C176.714 58.4864 176.715 58.4642 176.72 58.4428C176.726 58.4215 176.735 58.4014 176.749 58.3839C176.762 58.3663 176.778 58.3515 176.798 58.3404C177.024 58.2048 177.279 58.1251 177.542 58.1082C177.805 58.0912 178.069 58.1374 178.31 58.2428C178.33 58.2527 178.347 58.2663 178.362 58.2829C178.376 58.2996 178.387 58.3189 178.394 58.3398C178.401 58.3607 178.403 58.3827 178.401 58.4046C178.4 58.4265 178.394 58.4478 178.384 58.4673C178.363 58.5061 178.328 58.5353 178.286 58.549C178.244 58.5626 178.199 58.5596 178.159 58.5405C177.967 58.4583 177.758 58.4238 177.55 58.4399C177.342 58.4561 177.14 58.5224 176.963 58.6332C176.938 58.6471 176.909 58.6538 176.88 58.6528Z" fill="#263238"/>
<path d="M194.673 170.932H198.616C198.684 170.93 198.75 170.954 198.801 170.998C198.853 171.042 198.886 171.104 198.894 171.171L199.343 174.284C199.352 174.363 199.344 174.443 199.32 174.519C199.296 174.594 199.256 174.664 199.203 174.723C199.15 174.782 199.085 174.829 199.012 174.861C198.94 174.893 198.861 174.909 198.782 174.909C197.411 174.885 196.747 174.806 195.015 174.806C193.951 174.806 190.891 174.914 189.417 174.914C187.943 174.914 187.87 173.45 188.48 173.328C191.228 172.737 193.165 171.922 194.092 171.146C194.254 171.009 194.46 170.933 194.673 170.932Z" fill="#263238"/>
<path d="M193.355 171.542C193.056 171.569 192.757 171.493 192.506 171.327C192.452 171.276 192.409 171.213 192.383 171.142C192.357 171.072 192.347 170.997 192.355 170.922C192.358 170.877 192.372 170.832 192.397 170.794C192.422 170.756 192.456 170.724 192.496 170.703C192.926 170.468 194.326 171.191 194.483 171.264C194.497 171.272 194.51 171.284 194.517 171.298C194.525 171.313 194.528 171.33 194.527 171.347C194.524 171.364 194.516 171.38 194.503 171.392C194.491 171.404 194.475 171.412 194.458 171.415C194.096 171.494 193.726 171.536 193.355 171.542ZM192.731 170.8C192.676 170.797 192.622 170.809 192.575 170.834C192.558 170.842 192.544 170.854 192.534 170.87C192.525 170.886 192.52 170.904 192.521 170.922C192.514 170.971 192.52 171.022 192.537 171.068C192.554 171.115 192.582 171.157 192.618 171.191C192.828 171.381 193.409 171.415 194.185 171.283C193.731 171.042 193.239 170.879 192.731 170.8Z" fill="#D91E15"/>
<path d="M194.444 171.419H194.409C193.99 171.234 193.165 170.478 193.228 170.077C193.228 169.985 193.311 169.868 193.541 169.843C193.623 169.834 193.707 169.842 193.786 169.868C193.865 169.893 193.938 169.934 193.999 169.99C194.444 170.356 194.522 171.297 194.527 171.337C194.527 171.351 194.524 171.366 194.518 171.379C194.512 171.393 194.504 171.405 194.492 171.415C194.477 171.421 194.46 171.423 194.444 171.419ZM193.609 169.995H193.56C193.409 169.995 193.399 170.073 193.394 170.092C193.355 170.331 193.917 170.922 194.341 171.18C194.309 170.783 194.154 170.406 193.897 170.102C193.817 170.033 193.715 169.995 193.609 169.995Z" fill="#D91E15"/>
<path d="M180.56 60.2777L179.921 59.9702C179.921 59.9702 180.179 60.5509 180.56 60.2777Z" fill="#263238"/>
<path d="M174.563 78.0263C174.333 78.9047 174.075 79.8465 173.889 80.764C173.704 81.6814 173.479 82.5988 173.343 83.5016C173.196 84.326 173.133 85.1632 173.157 86.0002C173.163 86.1346 173.18 86.2684 173.206 86.4004C173.206 86.4882 173.24 86.4882 173.128 86.4004C173.016 86.3125 173.02 86.3516 173.128 86.4004C173.287 86.4566 173.45 86.5023 173.616 86.537C174.49 86.7067 175.376 86.803 176.266 86.8249C177.203 86.8737 178.164 86.8688 179.125 86.8786C180.087 86.8884 181.077 86.8542 182.053 86.82C183.029 86.7859 184.005 86.7615 184.981 86.7322L185.225 88.528C183.277 88.965 181.308 89.3021 179.325 89.5382C178.349 89.6651 177.325 89.748 176.3 89.8017C175.224 89.8647 174.144 89.8321 173.074 89.7041C172.744 89.6564 172.417 89.5829 172.098 89.4845C171.623 89.3471 171.186 89.0997 170.824 88.7623C170.46 88.4029 170.187 87.961 170.029 87.474C169.912 87.1362 169.827 86.7882 169.775 86.4345C169.701 85.8504 169.673 85.2613 169.692 84.6728C169.692 84.1165 169.746 83.5846 169.809 83.0576C170.053 81.0138 170.476 78.9954 171.073 77.0259L174.563 78.0263Z" fill="#FFCCB0"/>
<path d="M173.352 73.1561C171.888 73.3757 170.273 79.1878 170.273 79.1878L173.962 82.2817C173.962 82.2817 178.354 76.699 177.422 75.0105C176.436 73.2439 175.504 72.834 173.352 73.1561Z" fill="#D91E15"/>
<path opacity="0.5" d="M173.352 73.1561C171.888 73.3757 170.273 79.1878 170.273 79.1878L173.962 82.2817C173.962 82.2817 178.354 76.699 177.422 75.0105C176.436 73.2439 175.504 72.834 173.352 73.1561Z" fill="white"/>
<path d="M178.413 72.2775C179.079 71.8471 179.605 71.2313 179.926 70.5061C179.981 70.351 180.089 70.22 180.231 70.1355C180.372 70.051 180.539 70.0181 180.702 70.0425C181.801 70.1922 182.921 70.0228 183.927 69.5545C184.017 69.5111 184.115 69.4872 184.215 69.4844C184.315 69.4816 184.414 69.4999 184.506 69.5382C184.598 69.5764 184.681 69.6337 184.75 69.7064C184.818 69.779 184.87 69.8653 184.903 69.9595C184.997 70.2938 185.159 70.6052 185.378 70.8746C185.597 71.144 185.869 71.3657 186.177 71.526C186.177 71.526 184.972 74.8444 180.321 74.6443C175.67 74.4442 178.413 72.2775 178.413 72.2775Z" fill="#D91E15"/>
<path opacity="0.5" d="M178.413 72.2775C179.079 71.8471 179.605 71.2313 179.926 70.5061C179.981 70.351 180.089 70.22 180.231 70.1355C180.372 70.051 180.539 70.0181 180.702 70.0425C181.801 70.1922 182.921 70.0228 183.927 69.5545C184.017 69.5111 184.115 69.4872 184.215 69.4844C184.315 69.4816 184.414 69.4999 184.506 69.5382C184.598 69.5764 184.681 69.6337 184.75 69.7064C184.818 69.779 184.87 69.8653 184.903 69.9595C184.997 70.2938 185.159 70.6052 185.378 70.8746C185.597 71.144 185.869 71.3657 186.177 71.526C186.177 71.526 184.972 74.8444 180.321 74.6443C175.67 74.4442 178.413 72.2775 178.413 72.2775Z" fill="white"/>
<path opacity="0.2" d="M173.655 82.023C173.269 79.8416 173.045 78.2019 172.923 76.9771L172.752 81.2666L173.655 82.023Z" fill="black"/>
<path d="M180.775 95.3552C180.775 95.443 180.749 95.5289 180.7 95.6019C180.651 95.675 180.582 95.7319 180.501 95.7655C180.419 95.7991 180.33 95.8079 180.244 95.7908C180.158 95.7736 180.079 95.7313 180.017 95.6692C179.955 95.6071 179.912 95.528 179.895 95.4418C179.878 95.3557 179.887 95.2664 179.92 95.1853C179.954 95.1041 180.011 95.0348 180.084 94.986C180.157 94.9372 180.243 94.9111 180.331 94.9111C180.448 94.9124 180.56 94.9596 180.643 95.0426C180.726 95.1256 180.773 95.2378 180.775 95.3552Z" fill="#D91E15"/>
<path d="M181.37 99.7766C181.371 99.8656 181.346 99.9529 181.297 100.027C181.248 100.102 181.178 100.16 181.096 100.195C181.014 100.23 180.924 100.239 180.837 100.222C180.749 100.206 180.669 100.163 180.605 100.101C180.542 100.038 180.499 99.9581 180.481 99.8709C180.463 99.7837 180.472 99.6931 180.506 99.6108C180.54 99.5285 180.597 99.4581 180.671 99.4085C180.745 99.359 180.832 99.3325 180.921 99.3325C181.039 99.3325 181.153 99.3791 181.237 99.4623C181.321 99.5454 181.369 99.6584 181.37 99.7766Z" fill="#D91E15"/>
<g opacity="0.5">
<path d="M180.775 95.3552C180.775 95.443 180.749 95.5289 180.7 95.6019C180.651 95.675 180.582 95.7319 180.501 95.7655C180.419 95.7991 180.33 95.8079 180.244 95.7908C180.158 95.7736 180.079 95.7313 180.017 95.6692C179.955 95.6071 179.912 95.528 179.895 95.4418C179.878 95.3557 179.887 95.2664 179.92 95.1853C179.954 95.1041 180.011 95.0348 180.084 94.986C180.157 94.9372 180.243 94.9111 180.331 94.9111C180.448 94.9124 180.56 94.9596 180.643 95.0426C180.726 95.1256 180.773 95.2378 180.775 95.3552Z" fill="white"/>
<path d="M181.37 99.7766C181.371 99.8656 181.346 99.9529 181.297 100.027C181.248 100.102 181.178 100.16 181.096 100.195C181.014 100.23 180.924 100.239 180.837 100.222C180.749 100.206 180.669 100.163 180.605 100.101C180.542 100.038 180.499 99.9581 180.481 99.8709C180.463 99.7837 180.472 99.6931 180.506 99.6108C180.54 99.5285 180.597 99.4581 180.671 99.4085C180.745 99.359 180.832 99.3325 180.921 99.3325C181.039 99.3325 181.153 99.3791 181.237 99.4623C181.321 99.5454 181.369 99.6584 181.37 99.7766Z" fill="white"/>
</g>
<path opacity="0.2" d="M174.148 166.628H178.989C179.042 166.262 179.111 165.788 179.189 165.217H174.172C174.162 165.788 174.153 166.262 174.148 166.628Z" fill="black"/>
<path d="M179.267 167.623H173.704L173.484 165.847L179.735 165.632L179.267 167.623Z" fill="#D91E15"/>
<path d="M175.192 68.52L174.641 68.7152C174.614 68.7262 174.584 68.7281 174.557 68.7207C174.529 68.7134 174.504 68.6971 174.487 68.6744C174.469 68.6518 174.459 68.6239 174.459 68.5951C174.458 68.5664 174.467 68.5383 174.484 68.5151L174.811 68.0271L179.594 64.3183C179.645 64.2674 179.714 64.2388 179.786 64.2388C179.859 64.2388 179.928 64.2674 179.979 64.3183L180.048 64.4111C180.068 64.4404 180.082 64.4735 180.089 64.5084C180.096 64.5433 180.097 64.5793 180.09 64.6143C180.083 64.6493 180.069 64.6825 180.049 64.7121C180.03 64.7418 180.004 64.7671 179.974 64.7868L175.192 68.52Z" fill="#D91E15"/>
<path opacity="0.7" d="M175.192 68.52L174.641 68.7152C174.614 68.7262 174.584 68.7281 174.557 68.7207C174.529 68.7134 174.504 68.6971 174.487 68.6744C174.469 68.6518 174.459 68.6239 174.459 68.5951C174.458 68.5664 174.467 68.5383 174.484 68.5151L174.811 68.0271L179.594 64.3183C179.645 64.2674 179.714 64.2388 179.786 64.2388C179.859 64.2388 179.928 64.2674 179.979 64.3183L180.048 64.4111C180.068 64.4404 180.082 64.4735 180.089 64.5084C180.096 64.5433 180.097 64.5793 180.09 64.6143C180.083 64.6493 180.069 64.6825 180.049 64.7121C180.03 64.7418 180.004 64.7671 179.974 64.7868L175.192 68.52Z" fill="white"/>
<path d="M181.048 71.9605L178.95 68.2322L177.554 71.5115C177.554 71.5115 178.945 73.283 180.379 73.0292L181.048 71.9605Z" fill="#FFCCB0"/>
<path d="M176.749 66.8462L175.768 69.335L177.564 71.5115L178.959 68.2272L176.749 66.8462Z" fill="#FFCCB0"/>
<path d="M193.126 85.8566L188.868 84.5124C188.609 84.4304 188.332 84.5745 188.25 84.834L186.525 90.2974C186.443 90.557 186.587 90.8338 186.847 90.9158L191.105 92.26C191.364 92.3419 191.641 92.1979 191.723 91.9383L193.448 86.475C193.53 86.2154 193.386 85.9385 193.126 85.8566Z" fill="#D91E15"/>
<path d="M193.032 85.5485L188.774 84.2043C188.514 84.1223 188.237 84.2663 188.155 84.5259L186.43 89.9893C186.349 90.2489 186.493 90.5257 186.752 90.6077L191.01 91.9519C191.27 92.0338 191.547 91.8898 191.629 91.6302L193.353 86.1669C193.435 85.9073 193.291 85.6304 193.032 85.5485Z" fill="#D91E15"/>
<path opacity="0.8" d="M193.032 85.5485L188.774 84.2043C188.514 84.1223 188.237 84.2663 188.155 84.5259L186.43 89.9893C186.349 90.2489 186.493 90.5257 186.752 90.6077L191.01 91.9519C191.27 92.0338 191.547 91.8898 191.629 91.6302L193.353 86.1669C193.435 85.9073 193.291 85.6304 193.032 85.5485Z" fill="white"/>
<path d="M192.943 85.1969L188.685 83.8527C188.425 83.7708 188.148 83.9148 188.066 84.1744L186.342 89.6377C186.26 89.8973 186.404 90.1742 186.663 90.2561L190.921 91.6003C191.181 91.6823 191.458 91.5383 191.54 91.2787L193.264 85.8153C193.346 85.5557 193.202 85.2789 192.943 85.1969Z" fill="#263238"/>
<path d="M191.948 86.2016L188.774 85.1997L188.318 86.647L191.491 87.6489L191.948 86.2016Z" fill="white"/>
<path d="M187.836 84.9119C187.774 84.8728 187.725 84.8172 187.693 84.7514C187.662 84.6856 187.649 84.6123 187.657 84.5397C187.665 84.4671 187.693 84.3982 187.738 84.3409C187.784 84.2835 187.844 84.2399 187.913 84.2151C187.981 84.1903 188.055 84.1853 188.127 84.2005C188.198 84.2158 188.264 84.2508 188.316 84.3015C188.369 84.3522 188.406 84.4166 188.424 84.4874C188.442 84.5582 188.439 84.6326 188.417 84.7021L188.309 84.6679C188.349 84.5362 188.222 84.3703 188.026 84.3117C187.831 84.2531 187.631 84.3117 187.592 84.4386C187.553 84.5655 187.675 84.7363 187.87 84.7948L187.836 84.9119Z" fill="#263238"/>
<g opacity="0.6">
<path d="M187.836 84.9119C187.774 84.8728 187.725 84.8172 187.693 84.7514C187.662 84.6856 187.649 84.6123 187.657 84.5397C187.665 84.4671 187.693 84.3982 187.738 84.3409C187.784 84.2835 187.844 84.2399 187.913 84.2151C187.981 84.1903 188.055 84.1853 188.127 84.2005C188.198 84.2158 188.264 84.2508 188.316 84.3015C188.369 84.3522 188.406 84.4166 188.424 84.4874C188.442 84.5582 188.439 84.6326 188.417 84.7021L188.309 84.6679C188.349 84.5362 188.222 84.3703 188.026 84.3117C187.831 84.2531 187.631 84.3117 187.592 84.4386C187.553 84.5655 187.675 84.7363 187.87 84.7948L187.836 84.9119Z" fill="white"/>
</g>
<path d="M187.621 85.5853C187.56 85.5462 187.51 85.4906 187.479 85.4248C187.447 85.359 187.434 85.2856 187.442 85.213C187.45 85.1405 187.479 85.0716 187.524 85.0142C187.569 84.9568 187.629 84.9133 187.698 84.8885C187.767 84.8637 187.841 84.8586 187.912 84.8739C187.984 84.8891 188.049 84.9241 188.102 84.9748C188.154 85.0255 188.191 85.09 188.209 85.1608C188.227 85.2316 188.224 85.306 188.202 85.3754L188.095 85.3413C188.134 85.2095 188.007 85.0436 187.812 84.985C187.616 84.9265 187.416 84.985 187.377 85.1119C187.338 85.2388 187.465 85.4096 187.656 85.4682L187.621 85.5853Z" fill="#263238"/>
<g opacity="0.6">
<path d="M187.621 85.5853C187.56 85.5462 187.51 85.4906 187.479 85.4248C187.447 85.359 187.434 85.2856 187.442 85.213C187.45 85.1405 187.479 85.0716 187.524 85.0142C187.569 84.9568 187.629 84.9133 187.698 84.8885C187.767 84.8637 187.841 84.8586 187.912 84.8739C187.984 84.8891 188.049 84.9241 188.102 84.9748C188.154 85.0255 188.191 85.09 188.209 85.1608C188.227 85.2316 188.224 85.306 188.202 85.3754L188.095 85.3413C188.134 85.2095 188.007 85.0436 187.812 84.985C187.616 84.9265 187.416 84.985 187.377 85.1119C187.338 85.2388 187.465 85.4096 187.656 85.4682L187.621 85.5853Z" fill="white"/>
</g>
<path d="M187.392 86.2637C187.33 86.2246 187.281 86.169 187.249 86.1032C187.218 86.0374 187.205 85.9641 187.213 85.8915C187.221 85.8189 187.249 85.7501 187.294 85.6927C187.339 85.6353 187.4 85.5917 187.468 85.5669C187.537 85.5421 187.611 85.5371 187.683 85.5523C187.754 85.5676 187.82 85.6026 187.872 85.6533C187.925 85.704 187.962 85.7684 187.98 85.8392C187.998 85.91 187.995 85.9844 187.973 86.0539L187.865 86.0197C187.904 85.888 187.778 85.7221 187.582 85.6635C187.387 85.6049 187.187 85.6635 187.148 85.7904C187.109 85.9173 187.236 86.0881 187.426 86.1515L187.392 86.2637Z" fill="#263238"/>
<g opacity="0.6">
<path d="M187.392 86.2637C187.33 86.2246 187.281 86.169 187.249 86.1032C187.218 86.0374 187.205 85.9641 187.213 85.8915C187.221 85.8189 187.249 85.7501 187.294 85.6927C187.339 85.6353 187.4 85.5917 187.468 85.5669C187.537 85.5421 187.611 85.5371 187.683 85.5523C187.754 85.5676 187.82 85.6026 187.872 85.6533C187.925 85.704 187.962 85.7684 187.98 85.8392C187.998 85.91 187.995 85.9844 187.973 86.0539L187.865 86.0197C187.904 85.888 187.778 85.7221 187.582 85.6635C187.387 85.6049 187.187 85.6635 187.148 85.7904C187.109 85.9173 187.236 86.0881 187.426 86.1515L187.392 86.2637Z" fill="white"/>
</g>
<path d="M187.192 86.9422C187.13 86.9031 187.081 86.8475 187.049 86.7817C187.018 86.7159 187.005 86.6425 187.013 86.57C187.021 86.4974 187.049 86.4285 187.094 86.3711C187.139 86.3138 187.2 86.2702 187.268 86.2454C187.337 86.2206 187.411 86.2155 187.483 86.2308C187.554 86.2461 187.62 86.281 187.672 86.3317C187.725 86.3825 187.762 86.4469 187.78 86.5177C187.797 86.5885 187.795 86.6629 187.773 86.7324L187.665 86.6982C187.704 86.5665 187.577 86.4054 187.382 86.342C187.187 86.2785 186.987 86.342 186.948 86.4737C186.909 86.6055 187.036 86.7665 187.231 86.83L187.192 86.9422Z" fill="#263238"/>
<g opacity="0.6">
<path d="M187.192 86.9422C187.13 86.9031 187.081 86.8475 187.049 86.7817C187.018 86.7159 187.005 86.6425 187.013 86.57C187.021 86.4974 187.049 86.4285 187.094 86.3711C187.139 86.3138 187.2 86.2702 187.268 86.2454C187.337 86.2206 187.411 86.2155 187.483 86.2308C187.554 86.2461 187.62 86.281 187.672 86.3317C187.725 86.3825 187.762 86.4469 187.78 86.5177C187.797 86.5885 187.795 86.6629 187.773 86.7324L187.665 86.6982C187.704 86.5665 187.577 86.4054 187.382 86.342C187.187 86.2785 186.987 86.342 186.948 86.4737C186.909 86.6055 187.036 86.7665 187.231 86.83L187.192 86.9422Z" fill="white"/>
</g>
<path d="M186.977 87.6206C186.919 87.6173 186.861 87.6007 186.81 87.572C186.759 87.5434 186.715 87.5033 186.681 87.455C186.648 87.4067 186.626 87.3513 186.617 87.2932C186.608 87.2351 186.613 87.1758 186.631 87.1198C186.648 87.0637 186.679 87.0125 186.719 86.9699C186.76 86.9273 186.809 86.8946 186.864 86.8741C186.919 86.8537 186.979 86.8462 187.037 86.852C187.095 86.8579 187.152 86.8771 187.202 86.9081C187.465 86.991 187.621 87.2106 187.558 87.3961L187.451 87.3619C187.49 87.2302 187.363 87.0691 187.168 87.0057C186.972 86.9422 186.772 87.0057 186.733 87.1374C186.694 87.2692 186.821 87.4302 187.016 87.4937L186.977 87.6206Z" fill="#263238"/>
<g opacity="0.6">
<path d="M186.977 87.6206C186.919 87.6173 186.861 87.6007 186.81 87.572C186.759 87.5434 186.715 87.5033 186.681 87.455C186.648 87.4067 186.626 87.3513 186.617 87.2932C186.608 87.2351 186.613 87.1758 186.631 87.1198C186.648 87.0637 186.679 87.0125 186.719 86.9699C186.76 86.9273 186.809 86.8946 186.864 86.8741C186.919 86.8537 186.979 86.8462 187.037 86.852C187.095 86.8579 187.152 86.8771 187.202 86.9081C187.465 86.991 187.621 87.2106 187.558 87.3961L187.451 87.3619C187.49 87.2302 187.363 87.0691 187.168 87.0057C186.972 86.9422 186.772 87.0057 186.733 87.1374C186.694 87.2692 186.821 87.4302 187.016 87.4937L186.977 87.6206Z" fill="white"/>
</g>
<path d="M186.762 88.2988C186.702 88.2974 186.642 88.2818 186.588 88.2534C186.535 88.2249 186.488 88.1843 186.453 88.1348C186.418 88.0852 186.395 88.0282 186.386 87.9681C186.376 87.9081 186.381 87.8467 186.4 87.7888C186.418 87.731 186.45 87.6783 186.493 87.6349C186.535 87.5916 186.588 87.5587 186.645 87.5391C186.703 87.5194 186.764 87.5134 186.824 87.5216C186.884 87.5298 186.942 87.552 186.992 87.5863C187.25 87.6692 187.412 87.8888 187.348 88.0743L187.236 88.0401C187.275 87.9084 187.148 87.7473 186.953 87.6839C186.758 87.6204 186.558 87.6839 186.518 87.8156C186.479 87.9474 186.606 88.1084 186.802 88.1719L186.762 88.2988Z" fill="#263238"/>
<g opacity="0.6">
<path d="M186.762 88.2988C186.702 88.2974 186.642 88.2818 186.588 88.2534C186.535 88.2249 186.488 88.1843 186.453 88.1348C186.418 88.0852 186.395 88.0282 186.386 87.9681C186.376 87.9081 186.381 87.8467 186.4 87.7888C186.418 87.731 186.45 87.6783 186.493 87.6349C186.535 87.5916 186.588 87.5587 186.645 87.5391C186.703 87.5194 186.764 87.5134 186.824 87.5216C186.884 87.5298 186.942 87.552 186.992 87.5863C187.25 87.6692 187.412 87.8888 187.348 88.0743L187.236 88.0401C187.275 87.9084 187.148 87.7473 186.953 87.6839C186.758 87.6204 186.558 87.6839 186.518 87.8156C186.479 87.9474 186.606 88.1084 186.802 88.1719L186.762 88.2988Z" fill="white"/>
</g>
<path d="M186.548 88.9772C186.487 88.9758 186.427 88.9603 186.374 88.9318C186.32 88.9034 186.274 88.8627 186.238 88.8132C186.203 88.7637 186.18 88.7066 186.171 88.6466C186.161 88.5865 186.166 88.5251 186.185 88.4673C186.204 88.4095 186.235 88.3568 186.278 88.3134C186.321 88.27 186.373 88.2372 186.43 88.2175C186.488 88.1979 186.549 88.1919 186.609 88.2001C186.669 88.2083 186.727 88.2304 186.777 88.2647C187.041 88.3477 187.197 88.5673 187.133 88.7527L187.021 88.7186C187.065 88.5868 186.933 88.4258 186.738 88.3624C186.543 88.2989 186.348 88.3623 186.304 88.4941C186.26 88.6259 186.392 88.7869 186.587 88.8504L186.548 88.9772Z" fill="#263238"/>
<g opacity="0.6">
<path d="M186.548 88.9772C186.487 88.9758 186.427 88.9603 186.374 88.9318C186.32 88.9034 186.274 88.8627 186.238 88.8132C186.203 88.7637 186.18 88.7066 186.171 88.6466C186.161 88.5865 186.166 88.5251 186.185 88.4673C186.204 88.4095 186.235 88.3568 186.278 88.3134C186.321 88.27 186.373 88.2372 186.43 88.2175C186.488 88.1979 186.549 88.1919 186.609 88.2001C186.669 88.2083 186.727 88.2304 186.777 88.2647C187.041 88.3477 187.197 88.5673 187.133 88.7527L187.021 88.7186C187.065 88.5868 186.933 88.4258 186.738 88.3624C186.543 88.2989 186.348 88.3623 186.304 88.4941C186.26 88.6259 186.392 88.7869 186.587 88.8504L186.548 88.9772Z" fill="white"/>
</g>
<path d="M186.338 89.6555C186.279 89.6522 186.222 89.6357 186.171 89.607C186.119 89.5783 186.075 89.5382 186.042 89.4899C186.009 89.4416 185.987 89.3863 185.978 89.3282C185.969 89.2701 185.974 89.2107 185.991 89.1547C186.009 89.0986 186.039 89.0474 186.08 89.0048C186.12 88.9622 186.17 88.9295 186.225 88.909C186.28 88.8886 186.339 88.8811 186.398 88.8869C186.456 88.8928 186.512 88.912 186.562 88.943C186.826 89.0259 186.982 89.2455 186.919 89.431L186.806 89.3919C186.85 89.2602 186.719 89.0991 186.523 89.0357C186.328 88.9723 186.133 89.0357 186.089 89.1675C186.045 89.2992 186.177 89.4603 186.372 89.5237L186.338 89.6555Z" fill="#263238"/>
<g opacity="0.6">
<path d="M186.338 89.6555C186.279 89.6522 186.222 89.6357 186.171 89.607C186.119 89.5783 186.075 89.5382 186.042 89.4899C186.009 89.4416 185.987 89.3863 185.978 89.3282C185.969 89.2701 185.974 89.2107 185.991 89.1547C186.009 89.0986 186.039 89.0474 186.08 89.0048C186.12 88.9622 186.17 88.9295 186.225 88.909C186.28 88.8886 186.339 88.8811 186.398 88.8869C186.456 88.8928 186.512 88.912 186.562 88.943C186.826 89.0259 186.982 89.2455 186.919 89.431L186.806 89.3919C186.85 89.2602 186.719 89.0991 186.523 89.0357C186.328 88.9723 186.133 89.0357 186.089 89.1675C186.045 89.2992 186.177 89.4603 186.372 89.5237L186.338 89.6555Z" fill="white"/>
</g>
<path d="M181.492 87.352L184.806 85.5269L184.113 89.0209C184.113 89.0209 181.965 89.6993 180.921 88.6842L181.492 87.352Z" fill="#FFCCB0"/>
<path d="M187.719 85.9709L186.977 88.8648L184.113 88.9965L184.806 85.5024L187.719 85.9709Z" fill="#FFCCB0"/>
<path opacity="0.2" d="M186.904 81.9838L182.849 84.7068V86.1708C182.849 86.1708 186.079 87.3713 190.115 82.5254C190.203 81.2957 190.339 79.9293 190.525 78.3872L186.904 81.9838Z" fill="black"/>
<path d="M192.828 76.8113C191.714 78.8134 190.429 80.7155 188.988 82.4965C188.225 83.4552 187.363 84.3304 186.416 85.1073C185.834 85.5874 185.174 85.9638 184.464 86.2199C183.965 86.3959 183.434 86.4593 182.907 86.4054C182.346 86.3322 181.814 86.1116 181.365 85.7661C180.72 85.2499 180.216 84.5782 179.901 83.8141C179.648 83.2202 179.451 82.6044 179.311 81.9743C179.062 80.8261 178.91 79.6589 178.857 78.4851C178.745 76.2294 178.827 73.9681 179.101 71.7263L180.911 71.8093C180.975 72.8682 181.048 73.9614 181.16 75.0252C181.273 76.089 181.385 77.1578 181.56 78.1972C181.717 79.2089 181.943 80.2085 182.239 81.1886C182.37 81.6232 182.542 82.0447 182.751 82.4477C182.87 82.7058 183.049 82.9317 183.273 83.1065C183.317 83.1358 183.337 83.1065 183.234 83.1065C183.132 83.1065 183.2 83.1065 183.293 83.0479C183.606 82.8853 183.895 82.68 184.152 82.4379C184.865 81.7697 185.519 81.0398 186.104 80.2566C186.733 79.4416 187.329 78.573 187.904 77.6897C188.48 76.8064 189.056 75.889 189.583 75.0154L192.828 76.8113Z" fill="#FFCCB0"/>
<path d="M195 73.5515C195.39 74.9911 191.716 79.8955 191.716 79.8955L186.675 76.8845C186.675 76.8845 188.251 72.5852 190.13 72.1119C192.091 71.6092 194.556 71.9118 195 73.5515Z" fill="#D91E15"/>
<path opacity="0.5" d="M195 73.5515C195.39 74.9911 191.716 79.8955 191.716 79.8955L186.675 76.8845C186.675 76.8845 188.251 72.5852 190.13 72.1119C192.091 71.6092 194.556 71.9118 195 73.5515Z" fill="white"/>
<path d="M178.686 55.7686C178.686 55.7686 176.627 57.7206 180.399 58.7795C180.399 58.7795 178.32 57.1203 178.686 55.7686Z" fill="#263238"/>
<path d="M185.894 58.8087C185.967 58.7196 186.004 58.6061 185.997 58.4908C185.991 58.3756 185.941 58.2672 185.858 58.1871C185.774 58.1071 185.664 58.0613 185.549 58.0589C185.433 58.0566 185.321 58.0978 185.235 58.1744L183.771 59.37C183.723 59.4134 183.685 59.4658 183.657 59.5242C183.63 59.5826 183.615 59.6459 183.612 59.7103C183.609 59.7748 183.619 59.8391 183.642 59.8996C183.664 59.9601 183.698 60.0156 183.742 60.0629L184.074 60.3752C184.121 60.4206 184.177 60.4554 184.239 60.4773C184.3 60.4992 184.366 60.5077 184.431 60.5021C184.496 60.4966 184.559 60.4771 184.616 60.4452C184.673 60.4132 184.723 60.3694 184.762 60.3167L185.894 58.8087ZM184.088 60.2435L183.878 60.0434C183.851 60.007 183.83 59.9654 183.819 59.921C183.807 59.8767 183.804 59.8305 183.811 59.7851C183.817 59.7397 183.832 59.6961 183.856 59.6566C183.879 59.6172 183.91 59.5828 183.947 59.5554L185.064 58.5794C185.09 58.5477 185.122 58.5217 185.159 58.5031C185.195 58.4844 185.235 58.4735 185.276 58.471C185.317 58.4686 185.358 58.4745 185.397 58.4886C185.435 58.5027 185.47 58.5246 185.5 58.5528C185.53 58.5811 185.553 58.6152 185.569 58.653C185.585 58.6908 185.593 58.7315 185.592 58.7724C185.591 58.8134 185.582 58.8538 185.566 58.8911C185.549 58.9285 185.524 58.9619 185.494 58.9893L184.586 60.1507C184.561 60.1908 184.527 60.2252 184.488 60.2517C184.448 60.2783 184.404 60.2965 184.357 60.3052C184.311 60.3139 184.263 60.3129 184.216 60.3023C184.17 60.2916 184.126 60.2716 184.088 60.2435Z" fill="#D91E15"/>
<path d="M198.499 167.208H192.936L192.34 165.432L198.548 165.217L198.499 167.208Z" fill="#D91E15"/>
<path d="M79.1341 159.625C79.3781 161.987 80.3151 168.57 80.8372 170.19C79.8124 172.181 77.9092 172.215 77.0162 171.273C76.1231 170.331 74.176 162.157 74.176 162.157L79.1341 159.625Z" fill="#FFCCB0"/>
<path d="M67.832 132.609C65.026 115.817 57.6133 108.526 59.3262 99.2153L75.4594 99.0786C75.4594 99.0786 77.9775 122.747 78.1922 133.839C78.407 144.931 79.8173 163.016 79.8173 163.016L74.9373 165.217C74.9373 165.217 67.5685 145.595 67.832 132.609Z" fill="#263238"/>
<path d="M74.5859 167.257C75.6937 167.257 79.627 166.183 80.2662 165.705C80.9055 165.227 80.0174 162.445 80.0174 162.445C80.0174 162.445 74.4346 162.933 73.932 163.363C73.4294 163.792 74.5859 167.257 74.5859 167.257Z" fill="#263238"/>
<path opacity="0.6" d="M61.4539 111.947C63.3229 116.827 65.8751 122.552 67.4465 130.447C71.5945 118.95 68.7739 101.865 68.7739 101.865L61.4539 111.947Z" fill="black"/>
<path d="M55.105 161.04C54.7926 163.436 53.353 170.224 53.4653 172.02C52.055 173.484 50.6105 173.484 49.9956 172.157C49.3807 170.829 49.9175 161.308 49.9175 161.308L55.105 161.04Z" fill="#FFCCB0"/>
<path d="M53.192 134.688C54.6316 117.164 52.9919 107.414 53.5629 99.1713L69.2472 99.064C69.4668 102.182 70.2232 114.865 63.8792 134.493C60.2143 145.8 55.2514 165.168 55.2514 165.168L49.5759 163.661C49.5759 163.661 49.7272 148.352 53.192 134.688Z" fill="#263238"/>
<path d="M49.3369 166.735C50.3812 167.145 54.1144 167.604 54.9049 167.404C55.6955 167.204 55.9346 164.358 55.9346 164.358C55.9346 164.358 49.9517 162.436 49.3759 162.797C48.8001 163.158 49.3369 166.735 49.3369 166.735Z" fill="#263238"/>
<path d="M75.5717 99.064C75.712 97.7208 75.712 96.3666 75.5717 95.0234C75.5717 94.6037 55.9541 93.7985 54.3242 93.8619C52.2795 93.94 54.0167 103.275 55.6223 106.447C69.8426 107.394 75.152 101.533 75.5717 99.064Z" fill="#263238"/>
<path d="M91.9539 71.7849L95.9994 70.9894L93.7205 66.5974C93.7205 66.5974 90.1483 67.7637 90.4606 69.7645L91.9539 71.7849Z" fill="#FFCCB0"/>
<path d="M98.4101 67.4512L97.356 66.0458C97.1477 65.7807 96.8543 65.5956 96.5253 65.5218C96.1963 65.448 95.852 65.49 95.5504 65.6408L93.7204 66.6168L95.9994 71.0088L98.1075 69.4862C98.2643 69.375 98.397 69.2333 98.4976 69.0696C98.5982 68.9058 98.6646 68.7234 98.6929 68.5333C98.7212 68.3432 98.7107 68.1493 98.6621 67.9633C98.6135 67.7774 98.5278 67.6032 98.4101 67.4512Z" fill="#FFCCB0"/>
<path d="M94.184 70.7161C93.4273 69.8943 92.4384 69.3223 91.3487 69.0764L90.4605 68.8763C89.9725 68.769 89.8847 68.8763 89.831 68.9934L89.6065 69.335L89.1478 70.0231C88.8404 70.4818 88.5329 70.9406 88.2157 71.3846C87.6009 72.2923 86.9567 73.1658 86.3077 74.0003C85.7046 74.7958 85.0423 75.5445 84.3264 76.2402L84.2727 76.289C84.0482 76.0499 83.8286 75.801 83.6139 75.5375C82.9258 74.6933 82.2573 73.7856 81.6229 72.8438C80.9885 71.9019 80.3882 70.8918 79.8124 69.9158C79.5196 69.4278 79.2414 68.9056 78.9681 68.3981L78.5729 67.6319C78.4509 67.3879 78.3093 67.1 78.2215 66.9048C78.1991 66.8656 78.1795 66.8248 78.1629 66.7828C77.7229 65.9111 76.9546 65.2499 76.0271 64.9447C75.0995 64.6395 74.0887 64.7153 73.2171 65.1553C72.3454 65.5954 71.6842 66.3637 71.379 67.2912C71.0738 68.2187 71.1495 69.2295 71.5896 70.1012C71.775 70.4672 71.9214 70.7356 72.0776 71.043L72.5656 71.9166C72.8974 72.4973 73.239 73.0682 73.5904 73.6343C74.298 74.7665 75.0544 75.8645 75.8645 76.9478C76.6812 78.053 77.5644 79.1075 78.5094 80.1052C79.5054 81.1687 80.5966 82.139 81.7693 83.0039L81.9254 83.1162C82.3005 83.3926 82.7335 83.5802 83.1917 83.6647C83.6499 83.7493 84.1214 83.7286 84.5704 83.6042C85.5371 83.3233 86.438 82.8521 87.2202 82.2182C87.8112 81.7483 88.3614 81.2292 88.8648 80.6664C89.7358 79.6821 90.5288 78.6313 91.2365 77.5237C91.9197 76.4647 92.515 75.3911 93.0762 74.3078C93.3495 73.7612 93.613 73.2195 93.8619 72.6632L94.2279 71.8287L94.4085 71.4042C94.5012 71.248 94.5256 71.0821 94.184 70.7161ZM82.96 77.187H82.9941C82.96 77.2114 82.96 77.2065 82.9844 77.187H82.96Z" fill="#D91E15"/>
<path opacity="0.2" d="M79.3195 72.878L76.7527 70.438L74.2297 71.7605L73.7417 73.8052C74.4054 74.8642 75.1179 75.8938 75.8743 76.9089C76.691 78.0141 77.5742 79.0685 78.5192 80.0662C79.5152 81.1298 80.6064 82.1 81.7791 82.9649C79.139 80.4761 79.3195 72.878 79.3195 72.878Z" fill="black"/>
<path d="M71.5066 51.8989C71.5066 51.8989 71.941 54.3389 72.7706 55.4564C72.8134 55.5143 72.8376 55.5837 72.8402 55.6556C72.8428 55.7275 72.8235 55.7985 72.7849 55.8592C72.7464 55.92 72.6903 55.9676 72.6242 55.9959C72.558 56.0242 72.4849 56.0317 72.4143 56.0176C72.208 55.9493 72.0196 55.8359 71.8626 55.6856C71.7056 55.5354 71.584 55.3521 71.5066 55.149C71.7006 55.8844 72.0032 56.5867 72.4046 57.2328C72.4841 57.3743 72.5258 57.534 72.5258 57.6964C72.5258 57.8587 72.4841 58.0184 72.4046 58.16C72.3731 58.2402 72.3168 58.3084 72.2439 58.3545C72.171 58.4006 72.0854 58.4222 71.9993 58.4162C71.9133 58.4102 71.8315 58.3769 71.7657 58.3212C71.6999 58.2654 71.6536 58.1902 71.6335 58.1063C71.5489 57.6931 71.3186 57.3242 70.9845 57.0668C70.0622 56.3983 71.5066 51.8989 71.5066 51.8989Z" fill="#263238"/>
<path d="M57.8573 62.8252C62.6187 62.2979 67.4221 62.2668 72.1899 62.7325C74.1514 62.9402 75.9662 63.868 77.2831 65.3364C78.6001 66.8049 79.3257 68.7095 79.3196 70.682C79.3196 78.002 77.3676 80.3688 76.1573 91.6269C77.1675 92.9445 76.4209 94.838 75.5717 95.0429C68.4421 96.7363 57.8329 94.7111 54.3242 93.8815C52.7773 93.5155 53.6703 91.4415 53.6703 91.4415C53.6703 87.64 54.4267 87.9425 54.2217 83.2431C53.5873 78.6022 54.0802 75.1081 53.1725 68.9447C53.0705 68.2342 53.1113 67.5104 53.2926 66.8159C53.4739 66.1213 53.792 65.47 54.2284 64.9C54.6647 64.3301 55.2105 63.8529 55.8336 63.4967C56.4568 63.1404 57.1448 62.9121 57.8573 62.8252Z" fill="#D91E15"/>
<path d="M66.0508 65.5676C66.0508 65.5676 70.3842 66.1434 71.9653 65.0796L70.272 68.764C69.1609 67.3556 67.7077 66.2552 66.0508 65.5676Z" fill="#D91E15"/>
<path opacity="0.5" d="M66.0508 65.5676C66.0508 65.5676 70.3842 66.1434 71.9653 65.0796L70.272 68.764C69.1609 67.3556 67.7077 66.2552 66.0508 65.5676Z" fill="white"/>
<path d="M70.4916 62.5811C67.2046 62.359 63.9064 62.359 60.6194 62.5811C61.0124 63.77 61.7246 64.828 62.6781 65.6395C63.6317 66.4511 64.79 66.985 66.0264 67.1829C66.0264 67.1829 66.9097 64.5477 69.5644 66.6168C69.5644 66.6168 71.1651 64.0548 72.5803 66.5827C72.5803 66.568 74.1223 64.7478 70.4916 62.5811Z" fill="#D91E15"/>
<path opacity="0.8" d="M70.4916 62.5811C67.2046 62.359 63.9064 62.359 60.6194 62.5811C61.0124 63.77 61.7246 64.828 62.6781 65.6395C63.6317 66.4511 64.79 66.985 66.0264 67.1829C66.0264 67.1829 66.9097 64.5477 69.5644 66.6168C69.5644 66.6168 71.1651 64.0548 72.5803 66.5827C72.5803 66.568 74.1223 64.7478 70.4916 62.5811Z" fill="white"/>
<path d="M63.3326 54.3438C63.4049 57.155 62.8619 59.9481 61.7417 62.5275C61.6966 62.6237 61.6841 62.732 61.7062 62.8359C61.7282 62.9398 61.7835 63.0337 61.8637 63.1033C63.7534 64.7234 66.173 65.5919 68.6616 65.5433C71.6872 65.5873 71.5115 64.6405 70.799 63.5913C70.6942 63.4401 70.5577 63.3135 70.3989 63.2205C68.3297 61.9907 68.2566 60.3462 68.8324 59.3555L63.3326 54.3438Z" fill="#FFCCB0"/>
<path opacity="0.2" d="M63.3327 54.3438L68.8324 59.3604C68.6505 59.6777 68.5455 60.0334 68.526 60.3987C68.5065 60.764 68.573 61.1288 68.7202 61.4637C67.5588 61.4981 66.4274 61.0919 65.5531 60.3266C64.133 59.1213 63.6499 57.6963 63.2985 55.6906C63.3229 55.2661 63.3327 54.8171 63.3327 54.3438Z" fill="black"/>
<path d="M61.6881 51.7526C61.9321 55.4467 61.41 56.0421 63.2888 57.916C66.1143 60.7318 70.7112 61.2686 71.3603 57.5207C71.9459 54.1486 72.2728 48.0389 68.6421 46.6188C67.8381 46.3035 66.9673 46.1973 66.1111 46.3101C65.2549 46.423 64.4414 46.7513 63.7466 47.2642C63.0518 47.7771 62.4985 48.4579 62.1385 49.2429C61.7785 50.0279 61.6235 50.8914 61.6881 51.7526Z" fill="#FFCCB0"/>
<path d="M67.2073 52.3383C67.2073 52.6555 67.3635 52.6799 67.5733 52.6702C67.7832 52.6604 67.9686 52.6165 67.954 52.2993C67.9393 51.9821 67.7637 51.7381 67.5587 51.7478C67.3537 51.7576 67.1927 52.026 67.2073 52.3383Z" fill="#263238"/>
<path d="M70.2427 52.3383C70.2427 52.6555 70.3989 52.6799 70.6087 52.6702C70.8186 52.6604 71.004 52.6165 70.9894 52.2993C70.9747 51.9821 70.7991 51.7381 70.5941 51.7478C70.3891 51.7576 70.2281 52.026 70.2427 52.3383Z" fill="#263238"/>
<path d="M69.4229 52.2161C69.6983 52.9585 70.0744 53.6597 70.5405 54.2998C70.3734 54.4164 70.183 54.4951 69.9824 54.5305C69.7818 54.5659 69.5759 54.5571 69.379 54.5048L69.4229 52.2161Z" fill="#FFCCB0"/>
<path d="M66.7096 50.9473C66.685 50.9275 66.665 50.9025 66.6511 50.8741C66.6312 50.8294 66.6299 50.7787 66.6472 50.733C66.6646 50.6873 66.6993 50.6504 66.7438 50.6301C67.0083 50.4986 67.3005 50.4322 67.5959 50.4365C67.8913 50.4407 68.1814 50.5155 68.442 50.6545C68.4832 50.6806 68.5124 50.7219 68.5233 50.7694C68.5343 50.8169 68.5261 50.8668 68.5006 50.9083C68.4744 50.9493 68.4335 50.9787 68.3863 50.9905C68.3391 51.0023 68.2892 50.9956 68.2468 50.9717C68.0387 50.8639 67.8078 50.8076 67.5734 50.8076C67.339 50.8076 67.1081 50.8639 66.8999 50.9717C66.8689 50.9849 66.8349 50.9895 66.8015 50.9853C66.768 50.981 66.7363 50.9679 66.7096 50.9473Z" fill="#263238"/>
<path d="M71.6189 50.9326C71.5924 50.9459 71.5632 50.9529 71.5335 50.9529C71.5039 50.9529 71.4746 50.9459 71.4481 50.9326C71.2374 50.8339 71.0062 50.7869 70.7737 50.7953C70.5411 50.8038 70.314 50.8676 70.111 50.9814C70.0696 51.008 70.0193 51.017 69.9713 51.0064C69.9232 50.9959 69.8813 50.9667 69.8548 50.9253C69.8283 50.8839 69.8193 50.8336 69.8298 50.7856C69.8403 50.7375 69.8695 50.6956 69.9109 50.6691C70.1643 50.5209 70.4499 50.4364 70.7431 50.4228C71.0363 50.4092 71.3285 50.467 71.5945 50.591C71.639 50.6114 71.674 50.648 71.6922 50.6935C71.7104 50.7389 71.7103 50.7896 71.6921 50.835C71.6764 50.8732 71.6512 50.9068 71.6189 50.9326Z" fill="#263238"/>
<path d="M70.477 55.4953C69.3919 55.3665 68.2969 55.3436 67.2074 55.427C67.3625 55.8393 67.6548 56.1856 68.0351 56.4078C68.4155 56.63 68.8607 56.7144 69.296 56.647C69.4508 56.6551 69.6055 56.6312 69.7506 56.5765C69.8956 56.5219 70.0277 56.4379 70.1387 56.3297C70.2496 56.2215 70.3369 56.0915 70.3952 55.9479C70.4534 55.8043 70.4813 55.6502 70.477 55.4953Z" fill="#263238"/>
<path d="M68.7056 56.12C69.1779 56.0727 69.6531 56.1769 70.0622 56.4177C69.8394 56.5757 69.574 56.6624 69.3009 56.6666C68.8301 56.7146 68.3563 56.6103 67.9492 56.3689C68.1693 56.2094 68.4337 56.1224 68.7056 56.12Z" fill="#A02724"/>
<path d="M70.3647 55.4759C70.3462 55.5663 70.3024 55.6495 70.2385 55.716C70.1746 55.7826 70.0931 55.8296 70.0036 55.8517C69.2912 55.8788 68.5779 55.8462 67.871 55.7541C67.757 55.7508 67.6457 55.7186 67.5476 55.6606C67.4494 55.6026 67.3676 55.5205 67.3098 55.4222C68.328 55.3641 69.3492 55.382 70.3647 55.4759Z" fill="white"/>
<path d="M61.7662 53.6115C61.7662 53.6115 64.1281 54.5875 63.6889 52.0011C63.2497 49.4147 65.9533 51.8547 66.4657 48.8876C66.4657 48.8876 68.4177 49.2927 68.5299 47.9556C68.5299 47.9556 69.1497 48.751 68.4079 48.9999C68.2628 49.069 68.1369 49.1728 68.0416 49.3022C67.9462 49.4316 67.8843 49.5826 67.8613 49.7416C67.8416 49.8132 67.8457 49.8893 67.8731 49.9583C67.9005 50.0274 67.9496 50.0856 68.013 50.1242C68.0765 50.1628 68.1508 50.1797 68.2246 50.1723C68.2985 50.1649 68.368 50.1337 68.4225 50.0833C68.7152 49.7764 69.1121 49.5901 69.5352 49.5611C70.4673 49.5611 69.8182 47.8433 69.8182 47.8433C69.8182 47.8433 70.6039 48.0678 71.2383 49.7563C71.2383 49.7563 72.5803 46.0036 69.2863 45.5693C69.2863 45.5693 65.4701 42.49 62.2298 45.5693C58.9895 48.6485 58.8529 50.7176 58.8529 50.7176C58.8529 50.7176 58.9895 53.1576 57.8378 53.6456C57.2181 53.914 57.4718 54.5826 57.8378 55.1438C57.873 55.1886 57.9214 55.2212 57.9761 55.2371C58.0308 55.2531 58.0891 55.2515 58.1428 55.2327C58.1966 55.2139 58.2431 55.1787 58.2759 55.1322C58.3087 55.0856 58.3262 55.03 58.3258 54.973C58.3258 54.6656 58.3697 54.3923 58.5991 54.3533C59.1749 54.2508 59.4775 53.3773 59.4775 53.3773C59.5743 53.6695 59.6095 53.9787 59.581 54.2852C59.5524 54.5918 59.4607 54.8891 59.3116 55.1585C58.8236 56.2565 60.1363 56.1735 60.3266 57.3545C60.3721 57.636 60.4787 57.9042 60.6389 58.1401C60.6822 58.206 60.7472 58.2547 60.8227 58.2776C60.8982 58.3004 60.9793 58.2961 61.0519 58.2653C61.1244 58.2346 61.1839 58.1793 61.22 58.1091C61.256 58.039 61.2662 57.9584 61.2489 57.8815C61.1974 57.6971 61.2112 57.5006 61.288 57.3252C61.7299 57.7071 62.1001 58.1648 62.3811 58.6769C62.4188 58.7532 62.4801 58.8152 62.5558 58.8539C62.6316 58.8925 62.7178 58.9057 62.8016 58.8914C62.8855 58.8772 62.9625 58.8363 63.0212 58.7748C63.08 58.7133 63.1173 58.6345 63.1277 58.55C63.1808 57.9757 63.1074 57.3966 62.9127 56.8537C62.7179 56.3107 62.4065 55.817 62.0005 55.4073L61.7662 53.6115Z" fill="#263238"/>
<path d="M60.024 54.2267C60.343 55.0211 60.9517 55.6648 61.7272 56.0275C62.7032 56.452 63.2644 55.4809 63.0301 54.3731C62.8203 53.3971 62.0541 51.9575 61.0391 52.0063C60.024 52.0551 59.5946 53.2166 60.024 54.2267Z" fill="#FFCCB0"/>
<path opacity="0.2" d="M70.5795 88.7182L70.76 86.9712C70.7788 86.7821 70.7597 86.5912 70.7039 86.4096C70.648 86.228 70.5566 86.0594 70.4348 85.9136C70.313 85.7677 70.1634 85.6476 69.9947 85.5602C69.826 85.4729 69.6416 85.42 69.4522 85.4047L66.8609 85.1949L64.3282 86.1221L64.2257 85.7658C64.0891 85.2778 63.9232 85.2534 63.7377 85.2486L63.2497 85.1998L62.2737 85.0875C61.6247 85.0094 60.9756 84.9314 60.3217 84.8386C59.0383 84.6776 57.7695 84.4531 56.5544 84.2189C55.7541 84.0604 54.9638 83.8551 54.1876 83.604C54.3096 87.2396 53.8216 87.6886 53.6654 89.948C54.3144 90.0749 54.9488 90.1725 55.5832 90.2554C57.0198 90.4301 58.4648 90.5262 59.9118 90.5434C60.6243 90.5434 61.3319 90.5434 62.0395 90.5434L63.1033 90.4946L63.6352 90.4653C63.7253 90.4756 63.8163 90.4564 63.8946 90.4107C63.9729 90.3649 64.0343 90.2951 64.0696 90.2115C65.0848 90.4092 66.1299 90.3943 67.1391 90.1676L69.1984 90.0407C69.5516 90.0307 69.8885 89.8899 70.1437 89.6455C70.3989 89.4011 70.5542 89.0707 70.5795 88.7182Z" fill="black"/>
<path opacity="0.2" d="M59.087 70.4624L58.1598 69.1936L56.9886 69.8768L54.7194 73.244L53.7434 74.7422C53.8898 77.7531 53.8361 80.2468 54.2314 83.1992L55.2513 83.3456C53.2896 82.3647 59.087 70.4624 59.087 70.4624Z" fill="black"/>
<path d="M80.1393 88.777H66.9097C66.7805 88.7773 66.653 88.7485 66.5366 88.6927C66.4202 88.6369 66.3178 88.5555 66.2372 88.4547C66.1565 88.3539 66.0996 88.2362 66.0707 88.1103C66.0418 87.9845 66.0417 87.8538 66.0703 87.7279L67.9198 79.6173C67.9649 79.4245 68.0738 79.2527 68.2288 79.1295C68.3838 79.0064 68.5759 78.9393 68.7738 78.939H81.984C82.1131 78.9387 82.2406 78.9675 82.357 79.0233C82.4735 79.0791 82.5758 79.1605 82.6565 79.2613C82.7371 79.3621 82.794 79.4798 82.8229 79.6057C82.8518 79.7315 82.852 79.8623 82.8233 79.9882L81.008 88.0987C80.9632 88.2944 80.8523 88.4686 80.6941 88.5922C80.5359 88.7157 80.34 88.781 80.1393 88.777Z" fill="#263238"/>
<path d="M80.52 88.9626H67.2855C67.1563 88.9629 67.0288 88.934 66.9124 88.8782C66.796 88.8224 66.6936 88.7411 66.613 88.6403C66.5323 88.5394 66.4754 88.4217 66.4465 88.2959C66.4176 88.17 66.4175 88.0393 66.4461 87.9134L68.32 79.8028C68.3641 79.6105 68.4721 79.4387 68.6262 79.3155C68.7804 79.1924 68.9718 79.125 69.1691 79.1245H82.4037C82.5327 79.1241 82.6601 79.1528 82.7764 79.2087C82.8927 79.2645 82.9949 79.346 83.0752 79.4469C83.1555 79.5479 83.2118 79.6657 83.2401 79.7916C83.2683 79.9175 83.2677 80.0481 83.2382 80.1737L81.3935 88.2843C81.3477 88.4803 81.2359 88.6547 81.0769 88.7782C80.9179 88.9017 80.7213 88.9668 80.52 88.9626Z" fill="#263238"/>
<path opacity="0.5" d="M80.52 88.9626H67.2855C67.1563 88.9629 67.0288 88.934 66.9124 88.8782C66.796 88.8224 66.6936 88.7411 66.613 88.6403C66.5323 88.5394 66.4754 88.4217 66.4465 88.2959C66.4176 88.17 66.4175 88.0393 66.4461 87.9134L68.32 79.8028C68.3641 79.6105 68.4721 79.4387 68.6262 79.3155C68.7804 79.1924 68.9718 79.125 69.1691 79.1245H82.4037C82.5327 79.1241 82.6601 79.1528 82.7764 79.2087C82.8927 79.2645 82.9949 79.346 83.0752 79.4469C83.1555 79.5479 83.2118 79.6657 83.2401 79.7916C83.2683 79.9175 83.2677 80.0481 83.2382 80.1737L81.3935 88.2843C81.3477 88.4803 81.2359 88.6547 81.0769 88.7782C80.9179 88.9017 80.7213 88.9668 80.52 88.9626Z" fill="white"/>
<path d="M63.5376 85.9469L67.4123 84.5317L67.7393 89.4654C67.7393 89.4654 64.0744 90.3194 63.3082 88.4504L63.5376 85.9469Z" fill="#FFCCB0"/>
<path d="M71.3065 86.3081L71.1309 88.06C71.0958 88.3962 70.9427 88.7091 70.6988 88.9431C70.4549 89.1772 70.136 89.3173 69.7986 89.3385L67.7393 89.4654L67.4123 84.5317L70.0036 84.7416C70.1928 84.7568 70.377 84.8097 70.5455 84.8972C70.7139 84.9846 70.8632 85.1048 70.9846 85.2507C71.106 85.3966 71.197 85.5653 71.2523 85.7469C71.3075 85.9285 71.326 86.1193 71.3065 86.3081Z" fill="#FFCCB0"/>
<path d="M64.9723 85.8149L64.7771 85.1024C64.6356 84.6144 64.4697 84.6144 64.2891 84.6144L63.8011 84.5656L62.8251 84.4485C62.1761 84.3753 61.5319 84.2923 60.8731 84.1996C59.5896 84.0434 58.3257 83.8189 57.1106 83.5798C55.9969 83.3774 54.9075 83.0585 53.8605 82.6282C53.7449 82.5782 53.6325 82.5212 53.5238 82.4574C53.5568 82.1125 53.6205 81.7711 53.7141 81.4375C53.8479 80.91 54.0108 80.3903 54.2021 79.8808C54.6267 78.7925 55.144 77.6555 55.7149 76.5282C56.2859 75.4009 56.9203 74.2737 57.5644 73.1513C57.8865 72.5901 58.2184 72.0337 58.5405 71.4823C58.8625 70.9309 59.2334 70.3599 59.5555 69.8719V69.8426C59.57 69.8155 59.5863 69.7894 59.6043 69.7645C59.9623 68.9569 60.0177 68.0474 59.7605 67.2022C59.5033 66.3571 58.9506 65.6327 58.2034 65.1614C57.4562 64.6901 56.5643 64.5033 55.6908 64.6353C54.8173 64.7672 54.0204 65.2091 53.4457 65.8801C53.0358 66.5389 52.6942 67.1245 52.338 67.7491C51.9817 68.3737 51.6401 68.9837 51.2985 69.6133C50.6251 70.8625 49.9956 72.1411 49.3953 73.4636C48.77 74.8059 48.2257 76.1845 47.7654 77.5921C47.5161 78.3655 47.3108 79.1524 47.1505 79.9491C46.9503 80.8999 46.8732 81.8725 46.9212 82.8429C46.9537 83.5103 47.0886 84.1686 47.3213 84.7949L47.4336 85.0731C47.4824 85.1853 47.536 85.2927 47.5897 85.4001C47.6961 85.6025 47.8151 85.7981 47.946 85.9857C48.1779 86.3084 48.4411 86.6075 48.7317 86.8787C49.1758 87.2831 49.6674 87.6322 50.1957 87.9181C50.624 88.1438 51.0675 88.3395 51.523 88.5037C53.0234 89.0209 54.5766 89.3695 56.1541 89.5432C57.5908 89.7168 59.0357 89.8145 60.4827 89.836C61.1952 89.836 61.9028 89.836 62.6152 89.8116L63.6742 89.7677L64.211 89.7335C64.3916 89.7335 64.5624 89.7335 64.7625 89.2455C65.2065 88.1559 65.2802 86.9505 64.9723 85.8149Z" fill="#D91E15"/>
<path d="M80.9251 170.151L76.7917 170.703C76.7205 170.71 76.6546 170.743 76.6068 170.797C76.559 170.85 76.5327 170.919 76.5331 170.99L76.4989 174.323C76.5009 174.407 76.5205 174.489 76.5564 174.565C76.5923 174.64 76.6436 174.707 76.7072 174.762C76.7707 174.816 76.845 174.856 76.9251 174.88C77.0052 174.904 77.0895 174.91 77.1723 174.899C78.6363 174.68 79.2951 174.504 81.1105 174.26C82.228 174.114 85.4537 173.801 86.9958 173.596C88.5379 173.391 88.4207 171.849 87.7571 171.801C84.7949 171.561 82.6477 170.981 81.5692 170.293C81.3774 170.172 81.1497 170.122 80.9251 170.151Z" fill="#263238"/>
<path d="M81.213 170.629C81.1948 170.629 81.1774 170.622 81.1633 170.611C81.1492 170.599 81.1392 170.584 81.1349 170.566C81.1307 170.549 81.1316 170.531 81.1377 170.514C81.1438 170.498 81.1548 170.483 81.1691 170.473C81.3253 170.366 82.6917 169.419 83.1748 169.605C83.22 169.622 83.26 169.651 83.2907 169.689C83.3215 169.727 83.3421 169.771 83.3505 169.819C83.3715 169.896 83.3735 169.976 83.3565 170.053C83.3395 170.131 83.3039 170.203 83.2529 170.263C83.0131 170.474 82.7082 170.597 82.3891 170.61C81.9987 170.655 81.6047 170.661 81.213 170.629ZM81.4863 170.468C82.3208 170.498 82.921 170.38 83.1162 170.151C83.1505 170.112 83.1743 170.064 83.1853 170.013C83.1964 169.962 83.1945 169.909 83.1797 169.858C83.1779 169.839 83.1706 169.82 83.1585 169.804C83.1463 169.789 83.13 169.777 83.1113 169.77C83.0568 169.758 83 169.758 82.9454 169.77C82.4262 169.919 81.936 170.155 81.4961 170.468H81.4863Z" fill="#D91E15"/>
<path d="M81.1788 170.62C81.1656 170.613 81.1545 170.602 81.1467 170.589C81.139 170.576 81.1349 170.562 81.1349 170.547C81.1349 170.508 81.0812 169.507 81.496 169.058C81.5531 168.992 81.6234 168.939 81.7024 168.902C81.7815 168.865 81.8675 168.845 81.9547 168.844C82.1987 168.844 82.2866 168.951 82.3159 169.044C82.4379 169.454 81.6766 170.361 81.2667 170.62H81.2325C81.2153 170.627 81.1961 170.627 81.1788 170.62ZM81.6229 169.156C81.3959 169.514 81.2851 169.933 81.3057 170.356C81.7156 170.024 82.2231 169.322 82.1499 169.078C82.1499 169.078 82.1207 168.995 81.9596 169H81.9108C81.797 169.022 81.6949 169.084 81.6229 169.175V169.156Z" fill="#D91E15"/>
<path d="M53.68 170.688H49.5125C49.4406 170.687 49.3708 170.712 49.3161 170.759C49.2614 170.806 49.2254 170.871 49.2148 170.942L48.7268 174.241C48.7179 174.324 48.7265 174.407 48.7521 174.487C48.7777 174.566 48.8197 174.639 48.8754 174.701C48.9311 174.764 48.9992 174.813 49.0753 174.847C49.1514 174.882 49.2338 174.899 49.3173 174.899C50.7813 174.899 51.4742 174.792 53.3042 174.797C54.4315 174.797 57.6962 174.924 59.2285 174.924C60.7609 174.924 60.8731 173.387 60.2045 173.25C57.2765 172.616 55.2513 171.752 54.2705 170.927C54.1072 170.782 53.8985 170.697 53.68 170.688Z" fill="#263238"/>
<path d="M53.885 171.205C53.8678 171.201 53.8522 171.191 53.8401 171.179C53.828 171.166 53.8198 171.149 53.8166 171.132C53.8146 171.114 53.8177 171.096 53.8254 171.079C53.8332 171.063 53.8454 171.049 53.8606 171.039C54.0314 170.951 55.51 170.2 55.9638 170.449C56.0065 170.472 56.0425 170.505 56.0682 170.546C56.0939 170.587 56.1084 170.635 56.1102 170.683C56.1212 170.762 56.1128 170.842 56.0855 170.917C56.0583 170.992 56.0132 171.059 55.9541 171.112C55.6875 171.288 55.369 171.367 55.0513 171.337C54.6593 171.329 54.2688 171.285 53.885 171.205ZM54.1778 171.078C54.9976 171.215 55.6125 171.181 55.837 170.981C55.8761 170.946 55.906 170.901 55.9239 170.852C55.9418 170.803 55.9471 170.75 55.9394 170.698C55.9384 170.678 55.9325 170.66 55.9223 170.644C55.912 170.627 55.8978 170.614 55.8809 170.605C55.8294 170.58 55.7723 170.568 55.715 170.571C55.174 170.65 54.6507 170.822 54.168 171.078H54.1778Z" fill="#D91E15"/>
<path d="M53.8508 171.19C53.8386 171.182 53.829 171.17 53.8229 171.156C53.8169 171.142 53.8147 171.127 53.8166 171.112C53.8166 171.068 53.9045 170.068 54.373 169.683C54.4395 169.625 54.5172 169.582 54.6012 169.556C54.6852 169.53 54.7736 169.522 54.861 169.531C55.105 169.556 55.1733 169.683 55.1879 169.78C55.2562 170.2 54.3827 171 53.9386 171.2H53.9045C53.886 171.202 53.8674 171.199 53.8508 171.19ZM54.4852 169.819C54.2064 170.139 54.0356 170.539 53.9972 170.961C54.4462 170.688 55.0415 170.058 55.0025 169.809C55.0025 169.785 55.0025 169.722 54.8268 169.707H54.7731C54.6664 169.711 54.5644 169.752 54.4852 169.824V169.819Z" fill="#D91E15"/>
<path d="M102.828 86.6842L101.744 84.7243H101.28V86.6842H100.294V81.6548H102.139C102.519 81.6548 102.842 81.7245 103.11 81.8638C103.377 81.9983 103.577 82.1832 103.708 82.4186C103.844 82.6492 103.912 82.9086 103.912 83.1968C103.912 83.5282 103.818 83.8285 103.631 84.0975C103.443 84.3617 103.164 84.5442 102.793 84.6451L103.969 86.6842H102.828ZM101.28 83.9678H102.103C102.371 83.9678 102.57 83.9029 102.702 83.7732C102.833 83.6387 102.899 83.4538 102.899 83.2184C102.899 82.9878 102.833 82.8101 102.702 82.6852C102.57 82.5555 102.371 82.4907 102.103 82.4907H101.28V83.9678Z" fill="white"/>
<path d="M105.789 82.469V83.73H107.443V84.5298H105.789V85.8628H107.654V86.6842H104.804V81.6476H107.654V82.469H105.789Z" fill="white"/>
<path d="M112.21 87.5705L111.464 86.6554C111.257 86.7082 111.046 86.7347 110.83 86.7347C110.37 86.7347 109.948 86.6242 109.563 86.4032C109.178 86.1822 108.873 85.8772 108.648 85.4881C108.423 85.0942 108.31 84.6499 108.31 84.1551C108.31 83.6651 108.423 83.2256 108.648 82.8365C108.873 82.4426 109.178 82.1352 109.563 81.9142C109.948 81.6932 110.37 81.5828 110.83 81.5828C111.295 81.5828 111.717 81.6932 112.097 81.9142C112.482 82.1352 112.784 82.4426 113.005 82.8365C113.23 83.2256 113.343 83.6651 113.343 84.1551C113.343 84.6018 113.249 85.0102 113.061 85.38C112.878 85.7451 112.627 86.0429 112.308 86.2735L113.434 87.5705H112.21ZM109.324 84.1551C109.324 84.4914 109.387 84.7868 109.514 85.0414C109.641 85.296 109.817 85.4929 110.042 85.6322C110.272 85.7667 110.535 85.834 110.83 85.834C111.126 85.834 111.386 85.7667 111.611 85.6322C111.837 85.4929 112.013 85.296 112.139 85.0414C112.266 84.7868 112.329 84.4914 112.329 84.1551C112.329 83.8189 112.266 83.5258 112.139 83.276C112.013 83.0215 111.837 82.8269 111.611 82.6924C111.386 82.5579 111.126 82.4907 110.83 82.4907C110.535 82.4907 110.272 82.5579 110.042 82.6924C109.817 82.8269 109.641 83.0215 109.514 83.276C109.387 83.5258 109.324 83.8189 109.324 84.1551Z" fill="white"/>
<path d="M115.061 81.6548V84.7676C115.061 85.1086 115.148 85.3704 115.321 85.553C115.495 85.7307 115.739 85.8196 116.053 85.8196C116.373 85.8196 116.619 85.7307 116.793 85.553C116.966 85.3704 117.053 85.1086 117.053 84.7676V81.6548H118.045V84.7604C118.045 85.1879 117.954 85.5506 117.771 85.8484C117.593 86.1414 117.351 86.3624 117.046 86.5113C116.746 86.6602 116.41 86.7347 116.039 86.7347C115.673 86.7347 115.34 86.6602 115.04 86.5113C114.744 86.3624 114.51 86.1414 114.336 85.8484C114.162 85.5506 114.076 85.1879 114.076 84.7604V81.6548H115.061Z" fill="white"/>
<path d="M119.983 82.469V83.73H121.637V84.5298H119.983V85.8628H121.848V86.6842H118.997V81.6476H121.848V82.469H119.983Z" fill="white"/>
<path d="M124.44 86.7347C124.097 86.7347 123.788 86.6746 123.511 86.5545C123.239 86.4344 123.023 86.2615 122.863 86.0357C122.704 85.81 122.622 85.5434 122.617 85.2359H123.673C123.687 85.4425 123.757 85.6058 123.884 85.7259C124.015 85.846 124.193 85.906 124.419 85.906C124.649 85.906 124.829 85.8508 124.961 85.7403C125.092 85.625 125.158 85.4761 125.158 85.2936C125.158 85.1447 125.113 85.0222 125.024 84.9261C124.935 84.83 124.822 84.7556 124.686 84.7027C124.555 84.6451 124.372 84.5826 124.137 84.5154C123.818 84.4193 123.558 84.3256 123.356 84.2344C123.159 84.1383 122.988 83.9966 122.842 83.8092C122.701 83.6171 122.631 83.3625 122.631 83.0455C122.631 82.7476 122.704 82.4882 122.849 82.2673C122.995 82.0463 123.199 81.8782 123.461 81.7629C123.724 81.6428 124.025 81.5828 124.362 81.5828C124.869 81.5828 125.28 81.7101 125.594 81.9647C125.913 82.2144 126.089 82.5651 126.122 83.0166H125.038C125.029 82.8437 124.956 82.702 124.82 82.5915C124.689 82.4762 124.513 82.4186 124.292 82.4186C124.1 82.4186 123.945 82.469 123.827 82.5699C123.715 82.6708 123.659 82.8173 123.659 83.0094C123.659 83.1439 123.701 83.2568 123.785 83.3481C123.874 83.4346 123.982 83.5066 124.109 83.5643C124.24 83.6171 124.423 83.6795 124.658 83.7516C124.977 83.8477 125.238 83.9437 125.439 84.0398C125.641 84.1359 125.815 84.28 125.96 84.4721C126.106 84.6643 126.178 84.9165 126.178 85.2287C126.178 85.4977 126.11 85.7475 125.974 85.9781C125.838 86.2087 125.639 86.3936 125.376 86.5329C125.113 86.6674 124.801 86.7347 124.44 86.7347Z" fill="white"/>
<path d="M130.376 81.6548V82.469H129.067V86.6842H128.081V82.469H126.772V81.6548H130.376Z" fill="white"/>
<path d="M134.489 81.6548C135.006 81.6548 135.458 81.7581 135.848 81.9647C136.242 82.1712 136.545 82.4666 136.756 82.8509C136.972 83.2304 137.08 83.6723 137.08 84.1767C137.08 84.6811 136.972 85.123 136.756 85.5025C136.545 85.8772 136.242 86.1678 135.848 86.3744C135.458 86.5809 135.006 86.6842 134.489 86.6842H132.772V81.6548H134.489ZM134.454 85.8268C134.97 85.8268 135.369 85.6827 135.651 85.3944C135.932 85.1062 136.073 84.7003 136.073 84.1767C136.073 83.6531 135.932 83.2448 135.651 82.9518C135.369 82.654 134.97 82.5051 134.454 82.5051H133.757V85.8268H134.454Z" fill="white"/>
<path d="M138.803 82.469V83.73H140.457V84.5298H138.803V85.8628H140.668V86.6842H137.817V81.6476H140.668V82.469H138.803Z" fill="white"/>
<path d="M146.92 81.6548V86.6842H145.934V83.4129L144.618 86.6842H143.872L142.549 83.4129V86.6842H141.563V81.6548H142.682L144.245 85.3944L145.808 81.6548H146.92Z" fill="white"/>
<path d="M150.174 86.7347C149.715 86.7347 149.292 86.6242 148.907 86.4032C148.523 86.1822 148.218 85.8772 147.992 85.4881C147.767 85.0942 147.655 84.6499 147.655 84.1551C147.655 83.6651 147.767 83.2256 147.992 82.8365C148.218 82.4426 148.523 82.1352 148.907 81.9142C149.292 81.6932 149.715 81.5828 150.174 81.5828C150.639 81.5828 151.061 81.6932 151.441 81.9142C151.826 82.1352 152.129 82.4426 152.349 82.8365C152.575 83.2256 152.687 83.6651 152.687 84.1551C152.687 84.6499 152.575 85.0942 152.349 85.4881C152.129 85.8772 151.826 86.1822 151.441 86.4032C151.057 86.6242 150.634 86.7347 150.174 86.7347ZM150.174 85.834C150.47 85.834 150.73 85.7667 150.956 85.6322C151.181 85.4929 151.357 85.296 151.484 85.0414C151.61 84.7868 151.674 84.4914 151.674 84.1551C151.674 83.8189 151.61 83.5258 151.484 83.276C151.357 83.0215 151.181 82.8269 150.956 82.6924C150.73 82.5579 150.47 82.4907 150.174 82.4907C149.879 82.4907 149.616 82.5579 149.386 82.6924C149.161 82.8269 148.985 83.0215 148.858 83.276C148.731 83.5258 148.668 83.8189 148.668 84.1551C148.668 84.4914 148.731 84.7868 148.858 85.0414C148.985 85.296 149.161 85.4929 149.386 85.6322C149.616 85.7667 149.879 85.834 150.174 85.834Z" fill="white"/>
</svg>
