<svg xmlns="http://www.w3.org/2000/svg" xmlns:xlink="http://www.w3.org/1999/xlink" width="107.526" height="58.76" viewBox="0 0 107.526 58.76"><defs><style>.a{fill:none;}.b{clip-path:url(#a);}.c{clip-path:url(#b);}.d{clip-path:url(#c);}.e{clip-path:url(#d);}.f{clip-path:url(#e);}.g{fill:#010101;}.h{clip-path:url(#f);}.i{clip-path:url(#h);}.j{clip-path:url(#i);}.k{clip-path:url(#j);}.l{clip-path:url(#k);}.m{clip-path:url(#m);}.n{clip-path:url(#n);}.o{clip-path:url(#o);}.p{clip-path:url(#p);}.q{clip-path:url(#r);}.r{clip-path:url(#s);}.s{clip-path:url(#t);}.t{clip-path:url(#u);}.u{clip-path:url(#w);}.v{clip-path:url(#x);}.w{clip-path:url(#y);}</style><clipPath id="a"><path class="a" d="M19.173,48.272H9.5V17.034H0V10.225a12.364,12.364,0,0,0,7.347-2.21A8.422,8.422,0,0,0,10.871,2.58h8.3Z" transform="translate(0 -2.58)"/></clipPath><clipPath id="b"><rect class="a" width="1342.878" height="1033.006" transform="translate(0 0)"/></clipPath><clipPath id="c"><rect class="a" width="35.957" height="62.894" transform="translate(0 0)"/></clipPath><clipPath id="d"><rect class="a" width="33.687" height="60.684"/></clipPath><clipPath id="e"><rect class="a" width="20.188" height="47.186"/></clipPath><clipPath id="f"><path class="a" d="M13.377,37.318H3.94V6.08H12.9V9.6A7.884,7.884,0,0,1,16.6,6.08a11.11,11.11,0,0,1,5.2-1.254,9.258,9.258,0,0,1,9.079,4.9,11.05,11.05,0,0,1,9.557-4.9,11.946,11.946,0,0,1,8.123,2.986,11.946,11.946,0,0,1,3.524,9.258V37.258H42.823V19.34a5.555,5.555,0,0,0-1.254-3.823,4.6,4.6,0,0,0-3.643-1.493,4.778,4.778,0,0,0-3.763,1.493,5.973,5.973,0,0,0-1.374,3.763V37.2H23.412V19.28A5.973,5.973,0,0,0,22.217,15.4a4.838,4.838,0,0,0-3.7-1.493,4.778,4.778,0,0,0-3.763,1.613,5.435,5.435,0,0,0-1.314,3.823Z" transform="translate(-3.94 -4.783)"/></clipPath><clipPath id="h"><rect class="a" width="65.104" height="49.396" transform="translate(0)"/></clipPath><clipPath id="i"><rect class="a" width="62.476" height="47.006"/></clipPath><clipPath id="j"><rect class="a" width="49.396" height="33.687"/></clipPath><clipPath id="k"><path class="a" d="M12.58,39.358l8.481-2.329a5.973,5.973,0,0,0,2.27,3.7,6.391,6.391,0,0,0,4.48,1.433c5.2,0,7.765-3.4,7.765-8.661V31.594a9.5,9.5,0,0,1-8.362,3.524,13.857,13.857,0,0,1-10.393-4.3A15.171,15.171,0,0,1,12.7,20.006,14.872,14.872,0,0,1,16.821,9.315,13.439,13.439,0,0,1,27.034,4.776a11.946,11.946,0,0,1,5.973,1.374,7.406,7.406,0,0,1,3.046,2.688V5.373h8.9V33.027A18.815,18.815,0,0,1,40.712,45.69a15.709,15.709,0,0,1-12.483,4.719,16.784,16.784,0,0,1-10.691-3.225,12.543,12.543,0,0,1-4.957-7.824ZM24.048,24.964a6.391,6.391,0,0,0,4.838,1.911,5.973,5.973,0,0,0,4.778-1.911,6.391,6.391,0,0,0,1.852-4.957A6.451,6.451,0,0,0,33.6,15.049a6.331,6.331,0,0,0-4.719-1.911,7.048,7.048,0,0,0-6.749,7.347,6.929,6.929,0,0,0,1.911,4.48Z" transform="translate(-12.58 -4.769)"/></clipPath><clipPath id="m"><rect class="a" width="49.396" height="62.894" transform="translate(0)"/></clipPath><clipPath id="n"><rect class="a" width="47.186" height="60.386"/></clipPath><clipPath id="o"><rect class="a" width="33.687" height="49.396"/></clipPath><clipPath id="p"><rect class="a" width="64.746" height="9.318"/></clipPath><clipPath id="r"><rect class="a" width="80.872" height="26.938" transform="translate(0 0)"/></clipPath><clipPath id="s"><rect class="a" width="80.096" height="23.294"/></clipPath><clipPath id="t"><rect class="a" width="67.374" height="13.499"/></clipPath><clipPath id="u"><rect class="a" width="83.919" height="9.318"/></clipPath><clipPath id="w"><rect class="a" width="101.061" height="26.938" transform="translate(0 0)"/></clipPath><clipPath id="x"><rect class="a" width="98.791" height="23.294"/></clipPath><clipPath id="y"><rect class="a" width="85.352" height="11.229"/></clipPath></defs><g class="b"><g class="c" transform="translate(-1154.255 -98.791)"><g class="d" transform="translate(1145.296 89.772)"><g class="e" transform="translate(1.732 1.493)"><g class="f" transform="translate(7.227 7.526)"><rect class="g" width="78.603" height="105.6" transform="translate(-29.685 -29.984)"/></g></g></g></g></g><g class="h" transform="translate(23.533 13.157)"><g class="c" transform="translate(-1177.788 -111.948)"><g class="i" transform="translate(1169.964 103.271)"><g class="j" transform="translate(0.538 1.613)"><g class="k" transform="translate(6.212 7.347)"><rect class="g" width="107.392" height="91.922" transform="translate(-28.67 -29.805)"/></g></g></g></g></g><g class="l" transform="translate(75.139 13.074)"><g class="c" transform="translate(-1229.393 -111.865)"><g class="m" transform="translate(1221.629 103.271)"><g class="n" transform="translate(0.358 1.254)"><g class="o" transform="translate(6.391 5.495)"><rect class="g" width="92.101" height="105.301" transform="translate(-28.849 -27.893)"/></g></g></g></g></g><g class="p" transform="translate(9.975 49.336)"><g class="c" transform="translate(-1164.229 -148.127)"><g class="q" transform="translate(1156.525 139.227)"><g class="r" transform="translate(0 1.852)"><g class="s" transform="translate(6.69 4.838)"><rect class="g" width="125.012" height="68.21" transform="translate(-29.148 -27.296)"/></g></g></g></g></g><g class="t" transform="translate(23.533 0)"><g class="c" transform="translate(-1177.788 -98.791)"><g class="u" transform="translate(1169.964 89.772)"><g class="v" transform="translate(0.418 2.031)"><g class="w" transform="translate(6.331 6.988)"><rect class="g" width="143.707" height="68.21" transform="translate(-28.789 -29.446)"/></g></g></g></g></g></svg>