<svg xmlns="http://www.w3.org/2000/svg" width="33.346" height="34.304" viewBox="0 0 33.346 34.304"><defs><style>.a,.b{fill:#e22c24;}.b{fill-rule:evenodd;}</style></defs><g transform="translate(-819.328 -522.848)"><path class="a" d="M33.345,57.672a5.159,5.159,0,0,1-5.213,5.218h-.343a5.232,5.232,0,0,1-1.51-.206,10.871,10.871,0,0,0-1.716-.343,3.5,3.5,0,0,0-1.854.206,14.074,14.074,0,0,1-5.546,1.025,17.134,17.134,0,0,1-6.723-1.3,17.369,17.369,0,0,1-5.433-3.712,19.124,19.124,0,0,1-3.634-5.394A17.3,17.3,0,0,1,0,46.423a16.491,16.491,0,0,1,1.373-6.659A17.178,17.178,0,0,1,17.163,29.27a15.839,15.839,0,0,1,6.311,1.265,16.182,16.182,0,0,1,8.6,8.611,15.78,15.78,0,0,1,1.27,6.316Zm-16.182-.137a10.788,10.788,0,0,0,5.83-1.579,10.788,10.788,0,0,0,5.345-9.533,11.019,11.019,0,0,0-5.355-9.538,10.788,10.788,0,0,0-5.821-1.579,10.411,10.411,0,0,0-4.325.892,10.749,10.749,0,0,0-1.917.981,10.057,10.057,0,0,0-1.648,1.334A14.015,14.015,0,0,0,6.865,42.1a11.538,11.538,0,0,0-.824,4.325,10.857,10.857,0,0,0,.824,4.32,14.015,14.015,0,0,0,2.4,3.57,13.971,13.971,0,0,0,3.565,2.4A11.538,11.538,0,0,0,17.163,57.534Z" transform="translate(819.328 493.579)"/><path class="b" d="M29.3,52.28a5.791,5.791,0,1,1-5.791,5.791A5.791,5.791,0,0,1,29.3,52.28Z" transform="translate(807.346 481.852)"/></g></svg>