<svg xmlns="http://www.w3.org/2000/svg" width="54" height="54" viewBox="0 0 54 54"><defs><style>.a{fill:rgba(255,255,255,0.32);}.b{fill:#475677;}</style></defs><g transform="translate(13.554 13.138)"><circle class="a" cx="27" cy="27" r="27" transform="translate(-13.554 -13.138)"/><rect class="b" width="3.099" height="26.145" rx="1" transform="translate(0 16.023) rotate(-90)"/><path class="b" d="M3.16.175l1.3-.169A.534.534,0,0,1,5.1.627L2.782,18.1a1,1,0,0,1-.831.811l-1.3.169a.534.534,0,0,1-.641-.621L2.329.986A1,1,0,0,1,3.16.175Z" transform="translate(11.734 3.798) rotate(-48)"/><path class="b" d="M.662.006,1.989.171a1,1,0,0,1,.842.8L5.1,18.115a.538.538,0,0,1-.656.61L3.114,18.56a1,1,0,0,1-.842-.8L.006.616A.538.538,0,0,1,.662.006Z" transform="matrix(-0.616, -0.788, 0.788, -0.616, 14.394, 28.448)"/></g></svg>