<svg xmlns="http://www.w3.org/2000/svg" width="54" height="54" viewBox="0 0 54 54"><defs><style>.a{fill:rgba(255,255,255,0.32);}.b{fill:#475677;}</style></defs><g transform="translate(10.625 13.138)"><circle class="a" cx="27" cy="27" r="27" transform="translate(-10.625 -13.138)"/><rect class="b" width="3.099" height="26.145" rx="1" transform="translate(3.19 16.023) rotate(-90)"/><path class="b" d="M3.16,18.907l1.3.169a.534.534,0,0,0,.641-.621L2.782.986A1,1,0,0,0,1.951.175L.647.006A.534.534,0,0,0,.006.627L2.329,18.1A1,1,0,0,0,3.16,18.907Z" transform="translate(3.42 16.567) rotate(-132)"/><path class="b" d="M.662,18.724l1.327-.165a1,1,0,0,0,.842-.8L5.1.616a.538.538,0,0,0-.656-.61L3.114.171a1,1,0,0,0-.842.8L.006,18.115A.538.538,0,0,0,.662,18.724Z" transform="matrix(0.616, -0.788, 0.788, 0.616, 0.182, 16.916)"/></g></svg>