<svg xmlns="http://www.w3.org/2000/svg" xmlns:xlink="http://www.w3.org/1999/xlink" width="50.1" height="41.318" viewBox="0 0 50.1 41.318">
  <defs>
    <linearGradient id="linear-gradient" x1="1.264" y1="-0.461" x2="0.031" y2="0.853" gradientUnits="objectBoundingBox">
      <stop offset="0" stop-color="#7047ea"/>
      <stop offset="1" stop-color="#9847ea"/>
    </linearGradient>
  </defs>
  <g id="Layer_2" data-name="Layer 2" transform="translate(0.001 -0.02)">
    <g id="Layer_14" data-name="Layer 14" transform="translate(-0.001 0.02)">
      <path id="Path_20495" data-name="Path 20495" d="M49.674,22.523c-.047-.178-.094-.346-.147-.525-.11-.336-.231-.666-.367-.986l-.052-.136-.037-.068.068-.215a9.622,9.622,0,0,0,0-5.881,9.764,9.764,0,0,0-6.821-6.516L41.94,8.1l-.063-.383q-.094-.462-.22-.9a6.988,6.988,0,0,0-6.642-4.953,6.621,6.621,0,0,0-2.02.31l-.3.1L32.4,2.108A9.968,9.968,0,0,0,23.368.461a9.785,9.785,0,0,0-4.8,3.326l-.32.42L17.8,3.966A7.781,7.781,0,0,0,6.668,8.656l-.115.4-.409.037a7.172,7.172,0,0,0-1.39.278,6.737,6.737,0,0,0-4,3.426,7.125,7.125,0,0,0-.42,5.357,6.978,6.978,0,0,0,6.632,4.942,6.563,6.563,0,0,0,.9-.063l.525-.068.189.593a5.729,5.729,0,0,0,5.441,4.066,5.246,5.246,0,0,0,1.049-.094l.619-.121.1.614a5.918,5.918,0,0,0,.226.923,6.973,6.973,0,0,0,6.632,4.963,6.71,6.71,0,0,0,4.848-2.1l.3-.32.4.194a8.142,8.142,0,0,0,1.259.493l.189.058.042.052.079.1a10.918,10.918,0,0,0,1.427,1.574,11.364,11.364,0,0,0,7.7,3.064,11.138,11.138,0,0,0,9.968-6.175,11.668,11.668,0,0,0,.8-8.332Zm-8.227-5.829-1.259,1.275-3.436,2.854a1.574,1.574,0,0,1-2.03,0L31.28,17.969,30,16.694a3.589,3.589,0,0,1,5.073-5.073l.645.64.64-.64a3.591,3.591,0,1,1,5.084,5.073Z" transform="translate(0.001 -0.02)" fill="url(#linear-gradient)"/>
      <path id="Path_20496" data-name="Path 20496" d="M55.356,70.653c-2.046.666-5.247,1.013-6.9-.813-1.863-2.046-2.408-5.876-5.609-6.3h-.063c-.32-.037.168-.525.525-.661a.441.441,0,0,1,.215-.058h.042a3.672,3.672,0,0,1,1.081.294c1.7.719,2.691,2.539,3.578,4.2A5.543,5.543,0,0,0,54.653,70.3c-1.354-1.306-1.8-2.623-.567-4.286h0a1.868,1.868,0,0,1,.735-.388h0c.1,0,.173,0,.173.047a.3.3,0,0,1-.068.147,4.554,4.554,0,0,0-.273.4c-.881,1.542.058,2.707,1.333,3.825C56.18,70.191,55.44,70.627,55.356,70.653Z" transform="translate(-20.288 -29.872)" fill="url(#linear-gradient)"/>
    </g>
  </g>
</svg>
