<svg xmlns="http://www.w3.org/2000/svg" width="46" height="43.885" viewBox="0 0 46 43.885"><defs><style>.a{fill:#0a89ba;}.b{fill:#fff;}.c,.e{fill:#231f20;}.c{opacity:0.14;}.d{fill:none;stroke:#0693ea;stroke-miterlimit:10;stroke-width:2px;}</style></defs><rect class="a" width="44.754" height="43.885" rx="8.11"/><rect class="b" width="38.542" height="7.738" transform="translate(7.458 30.511)"/><rect class="c" width="2.483" height="5.073" transform="translate(11.035 30.511)"/><rect class="c" width="2.483" height="5.073" transform="translate(21.053 30.511)"/><rect class="c" width="2.483" height="5.073" transform="translate(31.054 30.511)"/><rect class="c" width="2.483" height="5.073" transform="translate(41 30.511)"/><rect class="c" width="2.471" height="2.538" transform="translate(16.061 30.511)"/><rect class="c" width="2.471" height="2.538" transform="translate(36.033 30.511)"/><rect class="c" width="2.471" height="2.538" transform="translate(26.024 30.511)"/><path class="b" d="M14.19,27.009,4.77,15.343s20.341-18.561,40.4,0L36.048,27.009Z" transform="translate(-2.749 -4.087)"/><rect class="c" width="2.589" height="5.365" transform="matrix(0.844, -0.536, 0.536, 0.844, 6.354, 8.436)"/><rect class="c" width="2.589" height="5.365" transform="translate(13.363 4.723) rotate(-13.07)"/><rect class="c" width="2.589" height="5.365" transform="translate(20.926 3.28)"/><rect class="c" width="2.589" height="5.365" transform="translate(28.83 3.737) rotate(18.77)"/><rect class="c" width="2.589" height="5.365" transform="matrix(0.884, 0.468, -0.468, 0.884, 35.656, 6.746)"/><path class="d" d="M14.19,27.009,4.77,15.343s20.341-18.561,40.4,0L36.048,27.009Z" transform="translate(-2.749 -4.087)"/><path class="e" d="M50.88,36.538,57.546,25.49l-2.2,11.048H50.88" transform="translate(-29.319 -14.688)"/></svg>