<svg xmlns="http://www.w3.org/2000/svg" width="49.694" height="43.625" viewBox="0 0 49.694 43.625"><defs><style>.a{fill:#0a89ba;}</style></defs><g transform="translate(-17.056 -3.262)"><g transform="translate(17.056 3.262)"><g transform="translate(0 0)"><path class="a" d="M9.691,14.647a.84.84,0,0,1,1.513.036l2.836,6.243h7.5a.833.833,0,0,1,.7.375l.72,1.09.687-1.078a.848.848,0,0,1,.708-.387H25.8l3.3-9.3a.84.84,0,0,1,1.616.115l2.7,13.5,2.973-11.161A.838.838,0,0,1,38,14.047l2.8,8.765L42.5,20.1a.845.845,0,0,1,.72-.394h6.243a19.28,19.28,0,0,0-2.024-11.99C44.906,3,40.678.042,36.4,0h-.1c-3.059,0-7.425,1.417-11.447,7.85C20.78,1.344,16.362-.028,13.3,0,9.019.042,4.79,3,2.254,7.712A19.186,19.186,0,0,0,.482,20.924H6.461Z" transform="translate(-0.002 0.002)"/><path class="a" d="M44.3,72.874a.84.84,0,0,1-1.513-.192l-2.466-7.749L37.16,76.8a.84.84,0,0,1-.812.624h-.026a.84.84,0,0,1-.8-.675L32.715,62.7l-2.478,6.99a.84.84,0,0,1-.792.56h-1.58l-1.133,1.775a.838.838,0,0,1-.7.387.828.828,0,0,1-.72-.375l-1.2-1.787H16.537a.843.843,0,0,1-.766-.48L13.43,64.607l-2.668,5.187A.848.848,0,0,1,10,70.25H4a18.116,18.116,0,0,0,1.952,4c4.025,6.2,11.077,11.711,21.559,16.84l.37.18.37-.18c10.482-5.129,17.53-10.638,21.559-16.84a17.912,17.912,0,0,0,2.324-5.22H46.717Z" transform="translate(-3.04 -47.643)"/></g></g></g></svg>