<svg xmlns="http://www.w3.org/2000/svg" width="49.366" height="48.688" viewBox="0 0 49.366 48.688"><defs><style>.a{fill:#0a89ba;}</style></defs><g transform="translate(0 0)"><path class="a" d="M8-495.189v.811H18.549v2.434H14.695c-3.682,0-3.865.01-4.047.193a1.154,1.154,0,0,0-.254.538c-.051.325-.659,10.884-.893,15.347-.152,2.982-.152,12.761,0,15.925.2,4.2.69,10.752.893,11.9a1.155,1.155,0,0,0,.254.538c.193.193.406.193,8.713.193,8.389,0,8.521,0,8.723-.2.254-.254.264-.578.01-3.307-.172-1.836-.264-3.1-.568-7.78l-.061-.882h2.242c2.049,0,2.252-.02,2.424-.193a1.16,1.16,0,0,0,.233-.324c.03-.1.609-.071,3.033.193,3.2.355,3.652.375,3.936.223a8.065,8.065,0,0,0,.923-1.917,10.42,10.42,0,0,1,1.045-2.191l.325-.375.639.862.629.862v1.025c0,.953-.01,1.025-.2,1.025a.7.7,0,0,0-.406.2c-.183.183-.2.335-.2,1.866v1.663l-1.217,2.84-1.217,2.84v2.759h3.6c3.459,0,3.621.01,4.027.213.335.173.426.183.5.071a.465.465,0,0,0,.091-.213,43.932,43.932,0,0,1,5.538.03c.071.071.345.061.852-.051a6.547,6.547,0,0,0,.791-.2c.03-.03-.325-1.907-.771-4.179l-.832-4.139v-1.653c0-1.511-.02-1.664-.2-1.846a.7.7,0,0,0-.406-.2c-.193,0-.2-.071-.2-1.319,0-1.116.3-5.264.456-6.238l.051-.3h.984a2.541,2.541,0,0,0,1.43-.233,3.291,3.291,0,0,0,1.8-2.556A4.516,4.516,0,0,0,57.1-472.7c-.487-1.917-.619-2.059-3.459-3.682a24.879,24.879,0,0,1-2.465-1.532A3.454,3.454,0,0,0,47-478.137a3.429,3.429,0,0,1-.7.375c-1-1.3-2.2-2.992-3.5-4.95-.913-1.369-1.724-2.546-1.816-2.617a1.142,1.142,0,0,0-.517-.122,60.993,60.993,0,0,0-7.182,2.708c-.264.355-.152.862.335,1.6a10.414,10.414,0,0,0,.74,1,2.812,2.812,0,0,0,1.664.771,1.094,1.094,0,0,1,.375.03c0,.02-.183.578-.406,1.237-.659,1.968-.548,2.384.69,2.384h.69l.183.568c.172.558.172.568-.02.781a3.889,3.889,0,0,0-.74,1.643,4.045,4.045,0,0,0-.03,2.3c.152.457.152.477-.1.862a4.028,4.028,0,0,0-.538,3.043l.142.538H35.7a17.071,17.071,0,0,0-1.958.294,6.133,6.133,0,0,1-1.4.2.713.713,0,0,0-.2-.294c-.183-.183-.335-.2-1.7-.2H28.946l-.294-.862c-.3-.893-.669-1.359-1.177-1.522l-.223-.071.061-2.505c.112-3.956.243-6.938.619-13.318.426-7.1.426-7.212.152-7.486-.193-.193-.335-.2-4.057-.2H20.172v-2.434H31.533V-496H8Zm18.563,5.295a6.609,6.609,0,0,1-.061.811l-.071.385H11.956v-.284c0-.152.03-.517.061-.811l.071-.528H26.563ZM41.2-482.012a16.273,16.273,0,0,1,.943,1.511,2.8,2.8,0,0,1-1.024-.466,5.568,5.568,0,0,1-.659-.72c-.538-.68-.69-.669-2.465.04a8.923,8.923,0,0,1-1.735.558,1.045,1.045,0,0,1-.893-.588,28.8,28.8,0,0,1,4.8-1.856C40.206-483.5,40.672-482.814,41.2-482.012Zm-1.41,2.09a4.248,4.248,0,0,0,3.175,1.126l.416-.051,1.136,1.5a13.558,13.558,0,0,0,1.278,1.572c.355.132.629.03,1.542-.568,1.136-.75,1.714-.862,2.445-.5.507.264.751.639,1.035,1.572.73,2.424.842,4.6.456,8.713-.162,1.745-.264,3.469-.264,4.534v1.724H44.517V-463l-.832-1.1-.822-1.106.254-.456a4.736,4.736,0,0,0,.588-2.374c0-.8,0-.811.406-1.248.487-.528.538-.933.152-1.308s-.781-.335-1.309.152l-.436.406H40.459v1.623h1.623v.436a2.593,2.593,0,0,1-.822,1.988,6.857,6.857,0,0,0-2.516,3.682,3.323,3.323,0,0,1-.568,1.1c-.081,0-1.349-.142-2.84-.3s-2.769-.3-2.85-.3c-.122,0-.142-.172-.122-.933l.03-.933,1.623-.335a14.506,14.506,0,0,1,2.566-.335c.862,0,.964-.021,1.187-.254.213-.2.254-.335.254-.883a3.734,3.734,0,0,0-.152-1.045,2.729,2.729,0,0,1,.6-2.7c.416-.619.456-.964.162-1.329-.385-.5-.426-.771-.243-1.592.243-1.116.477-1.319,1.968-1.684a12.961,12.961,0,0,0,1.349-.375,8.3,8.3,0,0,0,1.065-1.958,13.076,13.076,0,0,0-1.38-.659,1.858,1.858,0,0,0-.375.609c-.3.639-.416.71-1.369.872l-.355.061-.284-.872c-.314-.964-.517-1.177-1.106-1.177h-.375l.254-.73a5.044,5.044,0,0,0,.243-1.258v-.528l.639-.253c.345-.152.629-.264.639-.274S39.526-480.176,39.79-479.923ZM54.011-474.2c.852.487,1.207.872,1.359,1.461.061.233.152.589.213.781.375,1.42-.609,2.465-1.927,2.069l-.487-.142-.061-1.44a17.557,17.557,0,0,0-.274-2.414c-.112-.527-.2-1-.2-1.045s.152,0,.335.111S53.615-474.435,54.011-474.2ZM51.82-457.861v.812H43.705v-1.623H51.82ZM26.4-450.233c.03.183.071.548.1.811l.061.487H19.3c-5.711,0-7.253-.03-7.283-.132a5.068,5.068,0,0,1-.1-.811l-.071-.68H26.35Z" transform="translate(-8 496)"/><path class="a" d="M377.834-290.675c-.335.172-.619.315-.639.335a5.3,5.3,0,0,0,.274.69,17.58,17.58,0,0,1,1.43,8.257c-.061.72-.132,1.44-.162,1.623-.061.345-.051.355,1.035.487.619.081.578.2.761-1.958a18.85,18.85,0,0,0-.73-6.857,12.659,12.659,0,0,0-1.238-2.9A4.747,4.747,0,0,0,377.834-290.675Z" transform="translate(-331.229 315.344)"/></g></svg>