<svg xmlns="http://www.w3.org/2000/svg" width="18.176" height="18.176" viewBox="0 0 18.176 18.176"><defs><style>.a{fill:#481ca9;}</style></defs><path class="a" d="M2.13,1.42h.852V0H4.4V1.42h9.372V0h1.42V1.42h.852a2.132,2.132,0,0,1,2.13,2.13v12.5a2.132,2.132,0,0,1-2.13,2.13H2.13A2.132,2.132,0,0,1,0,16.046V3.55A2.132,2.132,0,0,1,2.13,1.42ZM1.42,16.046a.711.711,0,0,0,.71.71H16.046a.711.711,0,0,0,.71-.71V6.674H1.42Zm0-10.792H16.756V3.55a.711.711,0,0,0-.71-.71h-.852V4.26h-1.42V2.84H4.4V4.26H2.982V2.84H2.13a.711.711,0,0,0-.71.71Z"/><g transform="translate(13.849 8.136)"><g transform="translate(0 0)"><rect class="a" width="1.428" height="1.428"/></g></g><g transform="translate(10.992 8.136)"><g transform="translate(0 0)"><rect class="a" width="1.428" height="1.428"/></g></g><g transform="translate(8.612 8.136)"><g transform="translate(0 0)"><rect class="a" width="0.952" height="1.428"/></g></g><g transform="translate(5.755 8.136)"><g transform="translate(0 0)"><rect class="a" width="1.428" height="1.428"/></g></g><g transform="translate(2.898 8.136)"><g transform="translate(0 0)"><rect class="a" width="1.428" height="1.428"/></g></g><g transform="translate(13.849 10.992)"><g transform="translate(0 0)"><rect class="a" width="1.428" height="1.428"/></g></g><g transform="translate(10.992 10.992)"><g transform="translate(0 0)"><rect class="a" width="1.428" height="1.428"/></g></g><g transform="translate(8.612 10.992)"><g transform="translate(0 0)"><rect class="a" width="0.952" height="1.428"/></g></g><g transform="translate(5.755 10.992)"><g transform="translate(0 0)"><rect class="a" width="1.428" height="1.428"/></g></g><g transform="translate(13.849 13.849)"><g transform="translate(0 0)"><rect class="a" width="1.428" height="1.428"/></g></g><g transform="translate(10.992 13.849)"><g transform="translate(0 0)"><rect class="a" width="1.428" height="1.428"/></g></g><g transform="translate(8.612 13.849)"><g transform="translate(0 0)"><rect class="a" width="0.952" height="1.428"/></g></g><g transform="translate(5.755 13.849)"><g transform="translate(0 0)"><rect class="a" width="1.428" height="1.428"/></g></g><g transform="translate(2.898 10.992)"><g transform="translate(0 0)"><rect class="a" width="1.428" height="1.428"/></g></g></svg>