<svg xmlns="http://www.w3.org/2000/svg" xmlns:xlink="http://www.w3.org/1999/xlink" width="52.937" height="41.82" viewBox="0 0 52.937 41.82">
  <defs>
    <linearGradient id="linear-gradient" x1="1.264" y1="-0.461" x2="0.031" y2="0.853" gradientUnits="objectBoundingBox">
      <stop offset="0" stop-color="#7047ea"/>
      <stop offset="1" stop-color="#9847ea"/>
    </linearGradient>
  </defs>
  <g id="pediatric" transform="translate(-1.716 -1.36)">
    <g id="Layer_2" data-name="Layer 2" transform="translate(1.716 1.36)">
      <g id="Layer_10" data-name="Layer 10">
        <path id="Path_20475" data-name="Path 20475" d="M67.793,73.11a.894.894,0,0,1-.816-1.256,5.96,5.96,0,0,1,2.629-2.829.893.893,0,0,1,.842,1.576,4.165,4.165,0,0,0-1.837,1.977A.894.894,0,0,1,67.793,73.11Z" transform="translate(-40.501 -41.345)" fill="url(#linear-gradient)"/>
        <path id="Path_20483" data-name="Path 20483" d="M15.312,55.632a.893.893,0,0,1-.055-1.785c4.482-.28,8.534-3.17,9.678-4.056-.039-5.508,2.2-8.485,2.294-8.612a.893.893,0,0,1,1.419,1.085,8.81,8.81,0,0,0-1.017,2.022,15.592,15.592,0,0,0-.9,5.9l.012.427-.324.278a22.464,22.464,0,0,1-3.285,2.23,18.755,18.755,0,0,1-7.765,2.509Z" transform="translate(-10.3 -25.18)" fill="url(#linear-gradient)"/>
        <path id="Path_20490" data-name="Path 20490" d="M11.556,51.859l2.454-.085L19.1,49.651l3.337-2.241,1.392-8.359L15.708,37.34l-4.245,1.7L9.34,42.859l.229,5.009,1.987,3.99h0" transform="translate(-6.908 -22.703)" fill="url(#linear-gradient)"/>
        <path id="Line_3" data-name="Line 3" d="M.751.787H-.107A.893.893,0,0,1-1-.107.893.893,0,0,1-.107-1H.751a.893.893,0,0,1,.893.893A.893.893,0,0,1,.751.787Z" transform="translate(22.776 32.93)" fill="url(#linear-gradient)"/>
        <path id="Path_20477" data-name="Path 20477" d="M9.3,84.6a3.283,3.283,0,0,1-.874-.124,5.4,5.4,0,0,1-3.6-4.552,8.293,8.293,0,0,1,.813-5.228,7.151,7.151,0,0,1,3.26-3.2.893.893,0,1,1,.748,1.622,6.055,6.055,0,0,0-3.059,6.521,3.69,3.69,0,0,0,2.312,3.117c.412.114.7.048.793-.069.455-.539.272-2.1.006-2.986a.893.893,0,0,1,1.71-.518c.1.319.911,3.161-.35,4.656A2.245,2.245,0,0,1,9.3,84.6Z" transform="translate(-4.715 -42.778)" fill="url(#linear-gradient)"/>
        <path id="Path_20478" data-name="Path 20478" d="M59.12,26.484a.891.891,0,0,1-.331-.064c-2.28-.91-2.906-3.344-2.749-5.152a4.84,4.84,0,0,1,.92-2.308,4.222,4.222,0,0,1,2.707-1.73,2.555,2.555,0,0,1,2.1.447,2.964,2.964,0,0,1,1.015,2.008L61,19.8v.009a1.19,1.19,0,0,0-.34-.734.868.868,0,0,0-.682-.089A2.438,2.438,0,0,0,58.4,20.014a3.106,3.106,0,0,0-.583,1.408c-.023.266-.173,2.618,1.632,3.339a.893.893,0,0,1-.331,1.723Z" transform="translate(-34.239 -11.569)" fill="url(#linear-gradient)"/>
        <path id="Path_20479" data-name="Path 20479" d="M16.573,56.432a.894.894,0,0,1-.231-.031,12.134,12.134,0,0,1-3.9-2.031,10.222,10.222,0,0,1-4.051-8.083c-.077-3.345.84-5.857,2.727-7.468,1.922-1.641,4.8-2.214,8.095-1.612.685.123,1.756.43,3,.786,2.75.788,6.906,1.979,8.621,1.564a.893.893,0,1,1,.421,1.736c-2.174.527-6.255-.643-9.534-1.583-1.194-.342-2.225-.638-2.823-.745-2.762-.5-5.111-.073-6.617,1.213-1.458,1.245-2.165,3.286-2.1,6.068a8.373,8.373,0,0,0,3.311,6.674,10.523,10.523,0,0,0,3.313,1.756.894.894,0,0,1-.233,1.756Z" transform="translate(-6.83 -22.961)" fill="url(#linear-gradient)"/>
        <path id="Path_20480" data-name="Path 20480" d="M63.464,75.855a4.663,4.663,0,0,1-1.783-.346A4.9,4.9,0,0,1,59.374,73.5a5.342,5.342,0,0,1-.546-3.167,9.213,9.213,0,0,1,.88-3.136,7.984,7.984,0,0,1,2.2-2.737.893.893,0,1,1,1.111,1.4,6.187,6.187,0,0,0-1.705,2.124l0,.008c-.778,1.557-.963,3.657-.4,4.586a3.05,3.05,0,0,0,3.906,1.234,11.754,11.754,0,0,0,4.305-3.732.893.893,0,1,1,1.473,1.011,13.259,13.259,0,0,1-5.169,4.4A5.75,5.75,0,0,1,63.464,75.855Z" transform="translate(-35.836 -38.669)" fill="url(#linear-gradient)"/>
        <path id="Path_20481" data-name="Path 20481" d="M72.183,35.525c-2.774,0-5.444-1.585-7.916-3.3a11.175,11.175,0,0,1-4.836-10.469,3.061,3.061,0,0,1,.065-.5c.006-.033.013-.066.018-.1a26.272,26.272,0,0,1,3.585-9.4,17.15,17.15,0,0,1,6.506-6.485,12.239,12.239,0,0,1,5.425-1.311,13.667,13.667,0,0,1,8.163,2.971,15.368,15.368,0,0,1,4.863,6.524,11.881,11.881,0,0,1,.586,8.059,24.925,24.925,0,0,1-2.692,6.111,16.356,16.356,0,0,1-4.514,4.352,23.425,23.425,0,0,1-5.059,2.964,10.677,10.677,0,0,1-3.658.563l-.272.01C72.361,35.524,72.272,35.525,72.183,35.525ZM75.031,5.752A10.471,10.471,0,0,0,70.392,6.88,15.391,15.391,0,0,0,64.62,12.7a24.443,24.443,0,0,0-3.342,8.75l0,.013c-.008.045-.016.09-.025.134a1.712,1.712,0,0,0-.034.217v.051l-.006.05a9.361,9.361,0,0,0,4.062,8.834l.008.005c2.234,1.549,4.617,2.982,6.9,2.982.066,0,.132,0,.2,0l.273-.01c2.528-.1,3.38-.127,7.754-3.2,3.815-2.695,4.875-4.558,6.539-9.565,1.417-4.276-1.4-10.064-4.815-12.584A11.933,11.933,0,0,0,75.031,5.752Z" transform="translate(-36.164 -3.965)" fill="url(#linear-gradient)"/>
        <path id="Path_20482" data-name="Path 20482" d="M60.841,25.743a.335.335,0,0,1-.332-.292,2.208,2.208,0,0,1,1.608-2.69.335.335,0,0,1,.125.658h0a1.455,1.455,0,0,0-.627.341,1.766,1.766,0,0,0-.442,1.606.335.335,0,0,1-.29.375Z" transform="translate(-36.512 -14.485)" fill="url(#linear-gradient)"/>
        <path id="Path_20484" data-name="Path 20484" d="M24.138,76.637h-.011a16.645,16.645,0,0,1-9.318-3.084.893.893,0,0,1,1.007-1.476,14.872,14.872,0,0,0,8.312,2.773,9.087,9.087,0,0,0,6.187-2.143,3.66,3.66,0,0,0,1.378-3.51,8.754,8.754,0,0,0-1.458-3.066l-.064-.1c-1.247-1.884-4.422-3.529-4.454-3.546a.893.893,0,0,1,.815-1.59c.147.075,3.622,1.873,5.13,4.152l.065.1a10.354,10.354,0,0,1,1.723,3.728,5.386,5.386,0,0,1-1.931,5.15A10.853,10.853,0,0,1,24.138,76.637Z" transform="translate(-10.3 -36.672)" fill="url(#linear-gradient)"/>
        <path id="Path_20485" data-name="Path 20485" d="M79.556,61.877a3.151,3.151,0,0,1-2.065-.5c-.625-.519-.776-1.4-1.025-2.869l-.017-.1a.335.335,0,0,1,.66-.112l.017.1c.223,1.313.358,2.105.792,2.466.415.344,1.2.419,3.009.287a.335.335,0,0,1,.049.668C80.443,61.852,79.971,61.877,79.556,61.877Z" transform="translate(-45.701 -34.777)" fill="url(#linear-gradient)"/>
        <path id="Path_20486" data-name="Path 20486" d="M80.071,42.807a2.7,2.7,0,0,1-1.836-.61,3.208,3.208,0,0,1-.889-2.53.335.335,0,0,1,.667.066h0a2.57,2.57,0,0,0,.666,1.962,2.814,2.814,0,0,0,2.553.29.335.335,0,0,1,.155.652A5.705,5.705,0,0,1,80.071,42.807Z" transform="translate(-46.214 -24.044)" fill="url(#linear-gradient)"/>
        <path id="Path_20487" data-name="Path 20487" d="M84.779,56.8a.972.972,0,0,1-.954-1.156.335.335,0,0,1,.658.127.3.3,0,0,0,.416.334.335.335,0,1,1,.267.615A.973.973,0,0,1,84.779,56.8Z" transform="translate(-49.938 -33.258)" fill="url(#linear-gradient)"/>
        <path id="Path_20488" data-name="Path 20488" d="M99.832,57.6A2.7,2.7,0,0,1,98,56.988a3.211,3.211,0,0,1-.892-2.531.335.335,0,0,1,.667.066,2.57,2.57,0,0,0,.668,1.963,2.812,2.812,0,0,0,2.55.289.335.335,0,1,1,.156.652A5.7,5.7,0,0,1,99.832,57.6Z" transform="translate(-57.585 -32.555)" fill="url(#linear-gradient)"/>
        <path id="Path_20489" data-name="Path 20489" d="M98.974,34.885a.516.516,0,0,1-.34-.179,3.418,3.418,0,0,1-1.418-2.81,2.742,2.742,0,0,1,1.326-1.889.335.335,0,0,1,.327.585,2.091,2.091,0,0,0-.989,1.386,1.824,1.824,0,0,0,.252,1.084,1.335,1.335,0,0,1,.206-1,1.63,1.63,0,0,1,1.623-.415l.036.007.034.007a1.978,1.978,0,0,0-.18-.3.335.335,0,0,1,.549-.383c.22.315.485.774.245,1.12a.766.766,0,0,1-.795.212c-.5-.069-.85-.013-.98.158-.268.353.148,1.3.3,1.655.04.09.071.162.093.22a.369.369,0,0,1-.109.483A.33.33,0,0,1,98.974,34.885Z" transform="translate(-57.646 -18.635)" fill="url(#linear-gradient)"/>
      </g>
    </g>
  </g>
</svg>
