<svg xmlns="http://www.w3.org/2000/svg" width="30.198" height="49.563" viewBox="0 0 30.198 49.563"><defs><style>.a{fill:#0a89ba;}</style></defs><g transform="translate(0)"><path class="a" d="M116.86-511.81a2.333,2.333,0,0,0-1.365,2.295,2.828,2.828,0,0,0,.2.832l.145.3-.387.261a4.431,4.431,0,0,0-1.268,1.665,2.79,2.79,0,0,0-.223,1.433,2.78,2.78,0,0,0,.3,1.607,5.043,5.043,0,0,0,.755,1.1c.368.4.445.533.445.842v.368h-4.647v-2.353c0-2.246-.01-2.372-.213-2.779a2.653,2.653,0,0,0-.591-.716c-.349-.281-.436-.3-1.123-.3a1.687,1.687,0,0,0-1.665.8l-.232.349-.029,3.873c-.029,4.318-.019,4.376.6,5.015.658.678.775.707,3.718.736l2.633.029v.561a2.454,2.454,0,0,0,1.355,2.3c.319.184.339.223.552,1.249.116.581.213,1.113.223,1.172,0,.1-.542.126-2.4.126-2.711,0-3.079.058-3.824.629a3.067,3.067,0,0,0-.7.774c-.145.232-1.007,2.682-1.927,5.441l-1.675,5.015-2.614,1.5c-1.443.823-2.691,1.559-2.779,1.636a.877.877,0,0,0,.058,1.075.954.954,0,0,0,.261.193c.029,0,1.6.174,3.476.387,3.9.445,4.1.455,4.308.213.077-.087,1.133-2.633,2.343-5.664s2.217-5.489,2.246-5.489c.077,0,6.235,2.517,6.312,2.575.019.019-.368,1.346-.862,2.963s-.91,3.137-.939,3.388a3.2,3.2,0,0,0,.058.91c.068.252.755,2.12,1.53,4.144s1.462,3.853,1.539,4.047l.126.368h-1.51l-1.8-4.347-1.81-4.337v-3.253c0-3.234,0-3.253-.213-3.495a1.036,1.036,0,0,0-.532-.31.506.506,0,0,0-.552.184l-.252.252v3.272a25.511,25.511,0,0,0,.126,3.756c.068.271.9,2.353,1.849,4.628l1.733,4.143-1.472,1.481c-1.317,1.336-1.462,1.52-1.462,1.82a.84.84,0,0,0,.194.542c.2.213.223.213,3.679.213,3.359,0,3.5-.01,3.679-.194s.194-.32.194-2.023v-1.82l-1.791-4.7c-.988-2.585-1.791-4.841-1.791-5.005a66.954,66.954,0,0,1,1.946-6.409,1.944,1.944,0,0,1,.5-.126,4.107,4.107,0,0,0,1.917-1.094,5.024,5.024,0,0,0,.7-1.075,2.685,2.685,0,0,0,.31-1.568c-.01-1.084-.068-1.259-1.191-3.137a5.531,5.531,0,0,0-1.007-1.4c-.261-.145-.271-.184-.271-.91,0-.455.039-.745.1-.745a.783.783,0,0,0,.339-.242c.242-.232.242-.261.242-1.936v-1.694H126.3l.029,2.391c.029,2.324.039,2.411.261,2.808a1.915,1.915,0,0,0,3.408-.1c.184-.349.184-.571.165-4.318l-.029-3.96-.29-.416a3.588,3.588,0,0,0-.716-.716l-.416-.291-4.3-.029-4.3-.029v-.358a.772.772,0,0,1,.3-.658,4.007,4.007,0,0,0,1.055-1.694,3.912,3.912,0,0,0-1.336-4.289l-.387-.261.155-.3a2.721,2.721,0,0,0,.116-1.675,2.546,2.546,0,0,0-1.2-1.413A3.219,3.219,0,0,0,116.86-511.81Zm1.878,6.216,1.375.445v.358a2.568,2.568,0,0,1-.823,1.607,2.286,2.286,0,0,1-3.021-.087,2.14,2.14,0,0,1-.8-1.626v-.465l.658-.329a3.5,3.5,0,0,1,.939-.349A11.612,11.612,0,0,1,118.738-505.594Zm-9.652-.155c.174.1.184.232.184,2.846s.01,2.75.2,3c.174.223.271.252.775.252h.571V-498h-.92c-.852,0-.949-.019-1.162-.242l-.242-.232v-3.582c0-3.311.01-3.592.174-3.679C108.873-505.865,108.863-505.865,109.086-505.749Zm9.478,5.131c0,.494-.039.629-.242.823a.754.754,0,0,1-.532.242.754.754,0,0,1-.532-.242c-.2-.194-.242-.329-.242-.823v-.581h1.549Zm9.623,1.1a.711.711,0,0,1,.436.446,57.565,57.565,0,0,1,.01,7.077.454.454,0,0,1-.658.068,12.406,12.406,0,0,1-.116-2.856v-2.75l-.242-.232c-.194-.2-.329-.242-.775-.242h-.532v-1.646h.775A3.714,3.714,0,0,1,128.187-499.514Zm-12.479.165a2.544,2.544,0,0,0,1.055,1.075,2.565,2.565,0,0,0,2.052.01c.426-.223,1.1-.939,1.1-1.162,0-.1.484-.126,2.42-.126h2.42V-498h-1.694c-1.675,0-1.7,0-1.936.242l-.242.232v2.13a17.049,17.049,0,0,0,.1,2.382.661.661,0,0,0,.387.349c.29.107.29.107.29.871v.765h-1.694l-.426-1.21c-.455-1.307-.775-1.733-1.375-1.859a.648.648,0,0,1-.436-.329c-.194-.378-.416-.474-1.1-.474-.533,0-.629-.029-.881-.281-.271-.281-.281-.31-.281-1.317,0-.958-.019-1.036-.242-1.259s-.281-.242-1.549-.242h-1.307v-1.549H114C115.582-499.553,115.65-499.543,115.708-499.349Zm5.79,10.224c.126.2.445.736.707,1.181a2.216,2.216,0,0,1,.474,1.559,1.743,1.743,0,0,1-.29,1.22,2.618,2.618,0,0,1-.765.765,1.73,1.73,0,0,1-1.21.29c-.726,0-.765-.019-4.27-1.491-1.946-.823-3.66-1.491-3.8-1.491a.709.709,0,0,0-.455.184c-.1.1-.91,2.014-1.8,4.25s-1.627,4.086-1.646,4.1a3.329,3.329,0,0,1-.7-.232l-.678-.261,1.578-4.725c.871-2.6,1.656-4.86,1.743-5.015a1.833,1.833,0,0,1,.523-.494c.339-.194.455-.2,5.354-.2h5.015Zm-14.5,11.608a5.2,5.2,0,0,1,.765.339,4.319,4.319,0,0,1-.523,1.568,32.627,32.627,0,0,1-4.066-.416c0-.068,2.924-1.733,3.05-1.743A7.286,7.286,0,0,1,106.994-477.518Zm13.99,12.867v.823h-3.727l.823-.823.823-.823h2.082Z" transform="translate(-99.973 511.939)"/></g></svg>