<svg xmlns="http://www.w3.org/2000/svg" width="43.186" height="49.801" viewBox="0 0 43.186 49.801"><defs><style>.a{fill:#0a89ba;}</style></defs><g transform="translate(0 0)"><path class="a" d="M61.235-495.642a4.317,4.317,0,0,0-2.4,1.952c-.789,1.235-.976,1.339-2.979,1.754-1.713.343-1.806.374-1.941.633A1.156,1.156,0,0,0,54-490.192a21.771,21.771,0,0,0,4.4,1.588,7.139,7.139,0,0,0,1.484.041,7.839,7.839,0,0,0,2.606-.789c.436-.27.457-.259.457.2,0,.488-.3.8-.882.9a2.588,2.588,0,0,0-1.484.82,2.754,2.754,0,0,0-.9,1.568c-.062.363-.374.716-2.7,3.062-1.443,1.453-2.824,2.927-3.052,3.26a6.139,6.139,0,0,0-.021,6.561l.311.457H52.982c-1.754,0-1.661-.145-1.661,2.492,0,2.657-.125,2.491,1.869,2.491h1.453v3.083l-.9.052a6.266,6.266,0,0,0-5.346,3.976,4.312,4.312,0,0,0-.343,2.336,4.311,4.311,0,0,0,.343,2.336,6.935,6.935,0,0,0,1.734,2.481l.363.28v2.9H49.453c-1.484,0-1.453-.042-1.453,2.076,0,1.526.021,1.682.208,1.868.208.208.343.208,19.723.208H87.446l.218-.218c.2-.2.208-.322.187-2.014l-.021-1.806.5-.426a8.7,8.7,0,0,0,2.647-4.3,9.952,9.952,0,0,0,0-4.069,9.115,9.115,0,0,0-1.536-3.135,8.785,8.785,0,0,0-4.484-2.917,2.3,2.3,0,0,1-.851-.332c-.073-.145-3.4-13.827-3.4-14,0-.052.176-.145.394-.208.789-.207,1.547-.778,3.062-2.273,1.91-1.868,2.086-2.138,2.024-3.125a1.475,1.475,0,0,0-.353-1.1,1.882,1.882,0,0,0-1.651-.768c-.841,0-1.2.239-2.907,1.962l-1.349,1.36H77.553l-.436-.405a3.07,3.07,0,0,0-1.931-.737,3.962,3.962,0,0,0-1.941.727l-.706.415H69.228l-1.246-1.246a7.7,7.7,0,0,1-1.121-1.246,3.667,3.667,0,0,0,1.8-.934c.82-.831.934-1.277.934-3.633s-.114-2.8-.934-3.633A3.139,3.139,0,0,0,66-494.926c-.768.021-1,0-1.152-.135a3.037,3.037,0,0,0-2.159-.685A5.163,5.163,0,0,0,61.235-495.642Zm5.875,2.637a1.278,1.278,0,0,1,.384.353c.125.187.083.2-.727.2h-.851l-.664.643-.664.654.073-.519a1.635,1.635,0,0,1,1.194-1.516A1.817,1.817,0,0,1,67.11-493.005Zm.82,3.208a3.565,3.565,0,0,1-.166,1.36,1.649,1.649,0,0,1-2.19.768,1.713,1.713,0,0,1-.924-1.131c-.052-.259-.021-.311.187-.363a4.987,4.987,0,0,0,1.017-.851l.768-.779H67.93Zm-4.6,3.27a27.542,27.542,0,0,1,2.678,2.491l2.4,2.377h4.765l.83-.519a2.387,2.387,0,0,1,1.246-.519,1.011,1.011,0,0,1,.83,1.661,40.246,40.246,0,0,1-7.837,1.8c-1.567.01-1.744-.1-4.433-2.761a16.107,16.107,0,0,1-2.429-2.647A1.5,1.5,0,0,1,63.332-486.528Zm21.093,1.692c.2.228.062.394-1.526,1.962-1.817,1.775-2.118,1.941-3.768,2.024L78-480.8v-.27c0-.582.021-.592,1.433-.592H80.74l1.671-1.661a20.6,20.6,0,0,1,1.785-1.661A.356.356,0,0,1,84.425-484.836ZM59.46-478.971l1.869,1.869-.436.467c-.446.478-.54.82-.343,1.194a9.155,9.155,0,0,0,1.142,1,7.75,7.75,0,0,1,1.048.872c0,.031-.623.685-1.391,1.453l-1.381,1.381L58.162-471.8a18.4,18.4,0,0,1-2.253-1.484,4.307,4.307,0,0,1-1.183-3.6,4.786,4.786,0,0,1,1.692-2.854,14.337,14.337,0,0,1,1.121-1.09C57.571-480.829,58.443-479.988,59.46-478.971Zm22.92,14.284c1.931,7.941,3.509,14.471,3.509,14.512a1.731,1.731,0,0,1-.747.052l-.747-.031-3.509-14.429c-1.931-7.941-3.509-14.471-3.509-14.512a1.739,1.739,0,0,1,.747-.052l.747.031Zm-5.543-9.062c.7,2.875,1.266,5.253,1.266,5.294a18.143,18.143,0,0,1-2.1.1c-1.163.021-2.17.062-2.253.094-.1.031-.457-.737-1.3-2.813-1.287-3.208-1.495-3.6-2.211-4.267-1.225-1.152-1.9-1.339-4.692-1.339H63.415l.841-.841.841-.841.509.26c1.63.831,2.554.81,6.633-.125,1.713-.395,3.166-.716,3.228-.727S76.142-476.635,76.837-473.749Zm-9.145-1.111a3.546,3.546,0,0,1,1.7,1.142,33.248,33.248,0,0,1,1.453,3.3L72.02-467.5l-.363.259c-.2.145-.592.5-.882.768l-.54.5-.322-.509a1.731,1.731,0,0,1-.322-1.225,5.477,5.477,0,0,0-2.408-4.62l-.913-.716v-1.972h.446A4.325,4.325,0,0,1,67.692-474.86Zm-2.107,3.426c1.547,1.2,1.92,1.682,2.2,2.751a3.541,3.541,0,0,1-.27,2.543c-.249.509-.789,1.1-2.99,3.3l-2.689,2.689-1.131-.228c-.623-.125-1.152-.239-1.163-.259s1.111-1.516,2.512-3.322c2.574-3.312,2.709-3.519,2.45-4a9.1,9.1,0,0,0-1.567-1.038l-1.464-.862,1.329-1.329c.737-.737,1.349-1.339,1.36-1.339S64.816-472.036,65.584-471.434Zm-7.879,1.36c.737.426,1.36.8,1.391.831s-1.339.042-3.031.042H52.982v-1.661h3.374Zm4.536,2.678c.187.135-.021.436-2.377,3.426l-.239.3v-3.872h1.225A3.6,3.6,0,0,1,62.242-467.4Zm6.851,2.772c.125.2.125.3-.062.81a6.35,6.35,0,0,0-.249,1.578l-.042.986-1.339-.311-1.339-.311,1.225-1.246a18.114,18.114,0,0,0,1.36-1.495C68.8-464.9,68.906-464.9,69.093-464.625Zm8.17,1.682a8.157,8.157,0,0,0-2.689,6.2,7.851,7.851,0,0,0,2.263,5.73l.872.914H73.764l.052-5.522c.021-3.436.083-5.7.156-5.969a2.756,2.756,0,0,1,1.142-1.443,4.359,4.359,0,0,1,1.9-.343h.727Zm-20.564.654c1.1.259,1.557.4,1.505.488a16.336,16.336,0,0,1-1.526,1.827c-.664.633-.633.7,1.547,3.747,1.059,1.474,1.92,2.709,1.92,2.741a63.591,63.591,0,0,1-6.54-.052,4.638,4.638,0,0,1-3.488-6.457,4.667,4.667,0,0,1,2.678-2.45C53.989-462.829,54.4-462.818,56.7-462.289Zm10.972,2.6c1.6.384,3.239.768,3.633.861l.727.166.031,2.626.021,2.616H62.5l.633-.664c.488-.509.644-.737.644-.966,0-.166-.166-1.121-.363-2.107l-.363-1.806.7-.706a3.321,3.321,0,0,1,.862-.706C64.692-460.379,66.072-460.067,67.671-459.694Zm-7.806.861c.789.166,1.453.322,1.495.353s.2.747.363,1.588l.311,1.526-.322.311c-.176.176-.332.3-.353.27-.073-.073-2.927-4.08-3.021-4.225S58.183-459.175,59.865-458.832Zm-7.09,6.914a4.655,4.655,0,0,0,.914.156c.176,0,.332.021.332.052s-.176.395-.384.831l-.384.779h-1.1v-.986a7.157,7.157,0,0,1,.031-.986C52.193-452.074,52.463-452,52.775-451.919Zm15.81.934c.208.436.384.81.384.831s-3.083.052-6.851.052-6.851-.021-6.851-.052.176-.395.384-.831l.384-.779H68.2Zm3.5.052v.831h-1.1l-.384-.779c-.208-.436-.384-.81-.384-.831a4.131,4.131,0,0,1,.934-.052h.934ZM86.2-448.026v.415H49.66v-.831H86.2Z" transform="translate(-48 495.751)"/></g></svg>