<svg xmlns="http://www.w3.org/2000/svg" width="29.636" height="31.089" viewBox="0 0 29.636 31.089"><defs><style>.a,.b{fill:#fafbfc;}.b{stroke:#fafcfc;}</style></defs><g transform="translate(2.992 1.375)"><circle class="a" cx="2.32" cy="2.32" r="2.32" transform="translate(2.484 4.826)"/><path class="b" d="M38.1,67.393a.47.47,0,0,0-.539.366,12.345,12.345,0,0,1-6.882,8.058,10.825,10.825,0,0,1-6.653,1.36c-4.875-3.429-7.868-11.43-8.74-13.99a7.56,7.56,0,0,0,2.351.366,7.7,7.7,0,0,0,7.65-7.589h0a7.715,7.715,0,1,0-11.206,6.858c.356,1.143,3.5,11.2,9.382,15.247h0a3.314,3.314,0,0,0,1.48.274,15.181,15.181,0,0,0,6.033-1.612,13.237,13.237,0,0,0,7.455-8.7h0a.48.48,0,0,0-.333-.64ZM11.33,55.963h0a6.251,6.251,0,1,1,6.251,6.229A6.24,6.24,0,0,1,11.33,55.963Z" transform="translate(-12.326 -49.133)"/><path class="b" d="M24.24,66.23a7.52,7.52,0,0,0-3.4-4.92h0a.41.41,0,0,0-.56.16.4.4,0,0,0,.15.54,6.73,6.73,0,0,1,3,4.4.4.4,0,0,0,.45.32h0a.41.41,0,0,0,.36-.5Z" transform="translate(-8.589 -45.665)"/><path class="b" d="M24.4,64.69h0a.42.42,0,0,0,.37-.42A4.81,4.81,0,0,1,25.87,61a5,5,0,0,1,2.95-1.59,6.39,6.39,0,0,0,.49,1.92h0a.41.41,0,0,0,.56.17h0a.42.42,0,0,0,.18-.53,5.33,5.33,0,0,1,2.68-7,.42.42,0,0,0,.22-.51h0a.41.41,0,0,0-.54-.2,6.06,6.06,0,0,0-3.6,5.32,5.54,5.54,0,0,0-4.86,5.7h0a.39.39,0,0,0,.45.41Z" transform="translate(-8.324 -48.408)"/><path class="b" d="M29.81,64.05a4.4,4.4,0,0,1-2.4,3.72.4.4,0,0,0-.19.52h0a.41.41,0,0,0,.55.18,5.22,5.22,0,0,0,2.85-4.4h0a.41.41,0,0,0-.82,0Z" transform="translate(-8.426 -45.424)"/></g></svg>