<svg xmlns="http://www.w3.org/2000/svg" width="46.223" height="46.288" viewBox="0 0 46.223 46.288">
    <defs>
        <style>
            .cls-1{fill:#7d2f84}
        </style>
    </defs>
    <g id="Layer_2" transform="translate(-0.664 -0.67)">
        <g id="Layer_1" transform="translate(0.664 0.67)">
            <path id="Path_20469" d="M39.843 1.4c-.045.9-.619 13.887 4.953 17.229a.72.72 0 0 0 1.007-.2.765.765 0 0 0 .141-.429 14.366 14.366 0 0 1 .549-3.574 9.161 9.161 0 0 1 1.364-2.8.725.725 0 0 0 .1-.75 23.591 23.591 0 0 1-1.419-9.407.73.73 0 0 0-.659-.8h-5.316a.72.72 0 0 0-.72.72z" class="cls-1" transform="translate(-20.104 -0.67)"/>
            <path id="Subtraction_1" d="M24.25 39.612a19.162 19.162 0 0 1-3.977-.418 14.24 14.24 0 0 1-7.842-4.794l-.026-.031a5.474 5.474 0 0 0-2.239-1.591 2.018 2.018 0 0 0-1.42 0 2.32 2.32 0 0 0-1.067 1.007 5.792 5.792 0 0 0-.664 2.885.714.714 0 0 1-.578.7A5.853 5.853 0 0 1 .129 34.8a.721.721 0 0 1-.091-.644c1-3.77 2.3-6.39 3.95-8.011a6.8 6.8 0 0 1 4.99-1.989 21.106 21.106 0 0 1 5.3.954 20.167 20.167 0 0 0 3.877.792c.123.007.245.011.365.011 2.59 0 5.324-1.467 5.963-12.343-.013-.08-1.21-8.124 3.9-11.908A8.5 8.5 0 0 1 33.562 0a12.837 12.837 0 0 1 3.981.687 11.16 11.16 0 0 1 6.111 4.933 18.673 18.673 0 0 1 2.441 7.8A27.587 27.587 0 0 1 44.9 24.53a18.335 18.335 0 0 1-6.4 9.685 24.168 24.168 0 0 1-8.7 4.575 19.141 19.141 0 0 1-5.55.822zm12.213-18.251a.723.723 0 0 0-.406.125L29.771 27.8a.72.72 0 0 0 .275 1.282.777.777 0 0 0 .153.015.723.723 0 0 0 .578-.291l6.286-6.312a.725.725 0 0 0-.6-1.132zm.424-6.443a.723.723 0 0 0-.406.125L30.2 21.36a.725.725 0 0 0 .265 1.31.678.678 0 0 0 .145.014.723.723 0 0 0 .6-.317l6.282-6.317a.725.725 0 0 0-.6-1.132zm.625-6.646a.724.724 0 0 0-.6.318l-6.291 6.327a.724.724 0 0 0 .6 1.131.719.719 0 0 0 .406-.124L37.92 9.6a.724.724 0 0 0-.263-1.31.712.712 0 0 0-.145-.018z" class="cls-1" transform="translate(0 6.676)"/>
        </g>
    </g>
</svg>
