<svg xmlns="http://www.w3.org/2000/svg" width="41.517" height="49.801" viewBox="0 0 41.517 49.801"><defs><style>.a{fill:#0a89ba;}</style></defs><path class="a" d="M40.192-495.793c-.183.2-.192.342-.192,3.527s.01,3.33.192,3.527.317.207,2.114.207c2.3,0,2.307,0,2.307-1.037v-.623H45c.279,0,.384.042.384.156,0,.176,2.585,7.21,2.912,7.916.365.788.971,1.307,3.671,3.133l2.643,1.774v4.036l-1.49,10.509c-.826,5.768-1.509,10.592-1.538,10.717-.029.156-.605.581-1.912,1.421a15.069,15.069,0,0,0-1.922,1.38,10.291,10.291,0,0,0-.058,1.349c0,1.753-.413,1.6,4.229,1.6,4.565,0,4.229.1,4.229-1.276,0-.83.058-1.058,2.278-8.6,1.259-4.274,2.306-7.76,2.335-7.76s1.076,3.486,2.335,7.75c2.22,7.553,2.278,7.781,2.278,8.611,0,1.38-.336,1.276,4.229,1.276,4.642,0,4.229.156,4.229-1.6a10.293,10.293,0,0,0-.058-1.349,15.071,15.071,0,0,0-1.922-1.38c-1.307-.84-1.884-1.266-1.912-1.421-.029-.124-.711-4.949-1.538-10.717l-1.49-10.509V-477.2l2.633-1.774c2.7-1.826,3.316-2.345,3.681-3.143.327-.706,2.912-7.739,2.912-7.916,0-.114.106-.156.384-.156H76.9v.623c0,1.037.01,1.037,2.307,1.037,1.8,0,1.932-.01,2.114-.207s.192-.342.192-3.527-.01-3.33-.192-3.527S81.008-496,79.211-496c-2.3,0-2.307,0-2.307,1.038v.622H69.985v-.622c0-1.038-.01-1.038-2.307-1.038-1.8,0-1.932.01-2.114.208s-.192.342-.192,3.527.01,3.33.192,3.527.317.207,2.114.207c2.3,0,2.307,0,2.307-1.037v-.623h.384c.336,0,.384.031.384.228a14.3,14.3,0,0,1-1.038,2.106l-1.038,1.867-2.153.591c-1.192.332-2.278.622-2.422.653l-.269.073v-2.168c0-2.127-.01-2.179-.25-2.708a2.373,2.373,0,0,0-2.278-1.473,2.916,2.916,0,0,0-.971.145,18.544,18.544,0,0,0-2.528,1.805,7.981,7.981,0,0,0-.125,2.283v2.116l-.259-.073c-.154-.031-1.24-.322-2.431-.653l-2.153-.591L51.8-487.856a14.3,14.3,0,0,1-1.038-2.106c0-.2.048-.228.384-.228h.384v.623c0,1.037.01,1.037,2.307,1.037,1.8,0,1.932-.01,2.114-.207s.192-.342.192-3.527-.01-3.33-.192-3.527S55.636-496,53.839-496c-2.3,0-2.307,0-2.307,1.038v.622H44.613v-.622c0-1.038-.01-1.038-2.307-1.038C40.509-496,40.375-495.99,40.192-495.793Zm2.883,3.527v2.075H41.538v-4.15h1.538Zm11.532,0v2.075H53.07v-4.15h1.538Zm13.839,0v2.075H66.909v-4.15h1.538Zm11.532,0v2.075H78.442v-4.15h1.538ZM49.226-490.9v1.795l1.249,2.251a22.241,22.241,0,0,0,1.422,2.355,2.429,2.429,0,0,0,.529.166c.192.041.384.114.4.166a9.156,9.156,0,0,1-.49,1.535c-.615,1.67-.442,1.587-1.6.768a4.1,4.1,0,0,1-.855-.778c-.24-.353-2.874-7.407-2.874-7.688,0-.093.115-.674.25-1.266l.25-1.089h1.711Zm25.026-.7c.135.591.25,1.172.25,1.266,0,.29-2.633,7.335-2.883,7.708a3.767,3.767,0,0,1-.855.768c-1.153.8-.971.882-1.586-.778a9.157,9.157,0,0,1-.49-1.535c.019-.052.211-.124.4-.166a2.429,2.429,0,0,0,.529-.166,22.239,22.239,0,0,0,1.422-2.355l1.249-2.251v-3.579H74ZM61.681-489.2a1.284,1.284,0,0,1,.615,1.193v.311H60.759c-1.9,0-1.951-.073-.692-.944C61.191-489.433,61.181-489.433,61.681-489.2Zm.615,4.16a3.825,3.825,0,0,1-.154,1.359,1.478,1.478,0,0,1-2.028.768c-.692-.374-.836-.716-.875-2.013l-.038-1.11H62.3Zm-5.978,1.826,1.6.425.481.571a2.867,2.867,0,0,0,2.355,1.162,2.867,2.867,0,0,0,2.355-1.162l.481-.571,1.7-.456a15.314,15.314,0,0,1,1.749-.4c.019.031.317.809.663,1.732l.625,1.67-1.2.809c-.663.446-1.326.913-1.48,1.058l-.279.249v4.544H56.146v-4.544l-.279-.249c-.154-.145-.817-.612-1.48-1.058l-1.192-.8.625-1.712a6.95,6.95,0,0,1,.759-1.7C54.646-483.654,55.434-483.457,56.319-483.219ZM65.468-471.9c0,.021.24,1.712.529,3.756s.519,3.735.5,3.756a38.991,38.991,0,0,1-3.758,1.3c-.019-.042-.327-1.037-.673-2.22-.673-2.262-.778-2.469-1.307-2.469s-.634.208-1.307,2.469c-.346,1.183-.654,2.179-.673,2.22a38.992,38.992,0,0,1-3.758-1.3c-.019-.021.2-1.712.5-3.756s.529-3.735.529-3.756,2.124-.031,4.709-.031S65.468-471.921,65.468-471.9Zm-8.861,9.866a8.26,8.26,0,0,1,1.653.716c-.01.166-3.229,11.07-3.3,11.132a8.5,8.5,0,0,1-1.8-1.463c0-.062.346-2.542.769-5.5s.769-5.426.769-5.478.058-.073.125-.052S55.694-462.356,56.607-462.034Zm10.206-.56c0,.062.346,2.511.769,5.457s.769,5.416.769,5.488a7.711,7.711,0,0,1-1.788,1.473c-.067-.073-3.3-10.966-3.306-11.142a8.524,8.524,0,0,1,1.711-.737C66.861-462.75,66.813-462.739,66.813-462.594ZM53.455-449.211c1.711,1.39,1.759,1.349-1.538,1.349-2.5,0-2.691-.01-2.691-.187,0-.114.471-.487,1.47-1.131.8-.529,1.5-.954,1.538-.965A14.2,14.2,0,0,1,53.455-449.211Zm17.356.021c1.009.664,1.48,1.017,1.48,1.141,0,.176-.192.187-2.691.187-3.3,0-3.239.041-1.557-1.338a13.938,13.938,0,0,1,1.2-.934A16.961,16.961,0,0,1,70.811-449.19Z" transform="translate(-40 496)"/><path class="a" d="M16.009,23.257H26.154l1.187,9.066-5.072,1.618L20.65,29.193l-1.835,4.748-5.072-2.158Z"/></svg>