<svg xmlns="http://www.w3.org/2000/svg" xmlns:xlink="http://www.w3.org/1999/xlink" width="70" height="70" viewBox="0 0 70 70"><defs><style>.a,.b{fill:#e0474e;}.a{opacity:0.4;}.c{fill:none;stroke:#fafafa;stroke-width:1.5px;}.d{fill:#fafafa;}.e{filter:url(#e);}.f{filter:url(#c);}.g{filter:url(#a);}</style><filter id="a" x="0" y="0" width="70" height="70" filterUnits="userSpaceOnUse"><feOffset dy="3" input="SourceAlpha"/><feGaussianBlur stdDeviation="3" result="b"/><feFlood flood-opacity="0.102"/><feComposite operator="in" in2="b"/><feComposite in="SourceGraphic"/></filter><filter id="c" x="2" y="1" width="67" height="68" filterUnits="userSpaceOnUse"><feOffset dy="3" input="SourceAlpha"/><feGaussianBlur stdDeviation="3" result="d"/><feFlood flood-opacity="0.102"/><feComposite operator="in" in2="d"/><feComposite in="SourceGraphic"/></filter><filter id="e" x="2" y="3" width="65" height="65" filterUnits="userSpaceOnUse"><feOffset dy="3" input="SourceAlpha"/><feGaussianBlur stdDeviation="3" result="f"/><feFlood flood-opacity="0.102"/><feComposite operator="in" in2="f"/><feComposite in="SourceGraphic"/></filter></defs><g transform="translate(8.717 6)"><g class="g" transform="matrix(1, 0, 0, 1, -8.72, -6)"><rect class="a" width="52" height="52" rx="5" transform="translate(9 6)"/></g><g class="f" transform="matrix(1, 0, 0, 1, -8.72, -6)"><rect class="b" width="49" height="50" rx="5" transform="translate(11 7)"/></g><g class="e" transform="matrix(1, 0, 0, 1, -8.72, -6)"><rect class="b" width="47" height="47" rx="5" transform="translate(11 9)"/></g><g transform="translate(15.108 8.898)"><g transform="translate(0 0)"><path class="c" d="M20.187,27.711a2.052,2.052,0,0,0-1.984,1.2V28a2.055,2.055,0,0,0-2.059-2.055h0a2.055,2.055,0,0,0-1.762,1v-.122a2.055,2.055,0,0,0-2.055-2.055h0a2.063,2.063,0,0,0-2.009,1.616V20.79a2.116,2.116,0,0,0-1.805-2.127A2.059,2.059,0,0,0,6.206,20.7V32.783a.136.136,0,0,1-.254.061l-2.02-3.993A2.061,2.061,0,1,0,.194,30.588l3.5,9.333,2.684,4.908A.715.715,0,0,0,7,45.187H19.493a.715.715,0,0,0,.715-.561l1.769-8.075a5.18,5.18,0,0,0,.161-1.287V29.855a2.145,2.145,0,0,0-1.952-2.145Z" transform="translate(-0.002 -11.982)"/><path class="d" d="M20.615,4.765A.715.715,0,0,1,19.9,4.05V.715a.715.715,0,1,1,1.43,0V4.054A.715.715,0,0,1,20.615,4.765Z" transform="translate(-12.787)"/><path class="d" d="M25.621,7.3a.676.676,0,0,1-.39-.118.715.715,0,0,1-.2-.99l1.837-2.767a.716.716,0,0,1,1.194.79L26.222,7A.715.715,0,0,1,25.621,7.3Z" transform="translate(-16.006 -1.993)"/><path class="d" d="M12.314,7.234a.715.715,0,0,1-.6-.322L9.89,4.12a.715.715,0,0,1,1.2-.783l1.827,2.792a.715.715,0,0,1-.6,1.1Z" transform="translate(-6.281 -1.936)"/><path class="d" d="M6.78,13.542a.715.715,0,0,1-.3-.064L3.452,12.084a.715.715,0,1,1,.593-1.3L7.08,12.177a.715.715,0,0,1-.3,1.365Z" transform="translate(-1.923 -6.876)"/><path class="d" d="M28.845,13.429a.715.715,0,0,1-.3-1.362l3.02-1.43a.715.715,0,1,1,.608,1.294l-3.017,1.43A.715.715,0,0,1,28.845,13.429Z" transform="translate(-18.076 -6.791)"/></g></g></g></svg>