<svg xmlns="http://www.w3.org/2000/svg" xmlns:xlink="http://www.w3.org/1999/xlink" width="39" height="39" viewBox="0 0 39 39"><defs><style>.a{fill:#fff;stroke:#707070;}.b{clip-path:url(#a);}.c{fill:#475677;}</style><clipPath id="a"><rect class="a" width="39" height="39" transform="translate(211.896 862)"/></clipPath></defs><g class="b" transform="translate(-211.896 -862)"><g transform="translate(-292.163 1.653)"><g transform="translate(505.064 864.347)"><path class="c" d="M36.991,39.287,19.6,25.075a1.533,1.533,0,0,0-1.941,0l-4.454,3.641v-1.89a.738.738,0,0,0-.739-.738H8.182a.738.738,0,0,0-.739.738v6.6L.272,39.287a.739.739,0,0,0,.935,1.144L4.93,37.388V55.923a.738.738,0,0,0,.738.738H31.6a.739.739,0,0,0,.739-.738V37.388l3.723,3.044a.739.739,0,0,0,.934-1.145ZM8.92,27.564H11.73v2.359l-2.809,2.3Zm21.937,27.62H6.405v-19L18,26.706a1,1,0,0,1,1.264,0l11.594,9.476Z" transform="translate(-0.001 -24.729)"/></g><g transform="translate(515.976 873.268)"><circle class="c" cx="0.512" cy="0.512" r="0.512" transform="translate(8.743 6.816)"/><circle class="c" cx="0.512" cy="0.512" r="0.512" transform="translate(5.671 6.816)"/><path class="c" d="M219.263,241.623a1.628,1.628,0,0,0,1.532-1.083.406.406,0,0,0-.766-.271.813.813,0,0,1-1.533,0,.406.406,0,0,0-.766.271A1.628,1.628,0,0,0,219.263,241.623Z" transform="translate(-211.544 -230.248)"/><ellipse class="c" cx="0.512" cy="0.256" rx="0.512" ry="0.256" transform="translate(11.303 20.129)"/><path class="c" d="M79.61,19.988a.406.406,0,0,0,0,.813h1.422a.406.406,0,0,0,.406-.406V17.038A3.657,3.657,0,0,0,78.3,13.418l-1.632-.233a1.065,1.065,0,0,1-.894-.844A7.014,7.014,0,0,0,78,9.75h.184a1.621,1.621,0,0,0,.752-3.06S79,5.287,79,5.281a5.281,5.281,0,1,0-10.563,0c0,.006,0,.012,0,.018L68.5,6.69a1.621,1.621,0,0,0,.752,3.06h.184a7.014,7.014,0,0,0,2.232,2.591,1.066,1.066,0,0,1-.894.844l-1.632.233A3.657,3.657,0,0,0,66,17.038v3.357a.406.406,0,0,0,.406.406h9.547a.406.406,0,1,0,0-.813H74.125V16.8L76.4,13.96c.051.012.1.022.155.03l.824.118v2.7a1.219,1.219,0,1,0,.813,0V14.224a2.858,2.858,0,0,1,2.438,2.814v2.95Zm-5.891-3.982L71.793,13.6a1.868,1.868,0,0,0,.608-.866,3.371,3.371,0,0,0,2.635,0,1.868,1.868,0,0,0,.608.867Zm0-15.194a4.474,4.474,0,0,1,4.469,4.46l-.05,1.158a1.158,1.158,0,0,1-.762-1.086V5.281a.406.406,0,0,0-.406-.406H75.537a2.52,2.52,0,0,1-2.267-1.4.406.406,0,0,0-.77.182,1.22,1.22,0,0,1-1.219,1.219h-.813a.406.406,0,0,0-.406.406v.064A1.158,1.158,0,0,1,69.3,6.431L69.25,5.273A4.474,4.474,0,0,1,73.719.813ZM70.046,9.164a.406.406,0,0,0-.364-.226H69.25a.813.813,0,0,1-.813-.813c0-.647.617-.772.7-.826a1.974,1.974,0,0,0,1.707-1.611h.436a2.033,2.033,0,0,0,1.793-1.077,3.327,3.327,0,0,0,2.462,1.077h1.056A1.974,1.974,0,0,0,78.3,7.3c.082.053.7.183.7.827a.813.813,0,0,1-.813.813h-.432a.406.406,0,0,0-.364.226c-.715,1.442-2.062,3.024-3.673,3.024s-2.947-1.56-3.673-3.024ZM66.813,19.988v-2.95a2.858,2.858,0,0,1,2.438-2.814v1.255a2.035,2.035,0,0,0-1.625,1.99v1.3a.406.406,0,0,0,.406.406h.813a.406.406,0,1,0,0-.813h-.406v-.894a1.219,1.219,0,1,1,2.438,0v.894h-.406a.406.406,0,1,0,0,.813h.813a.406.406,0,0,0,.406-.406v-1.3a2.035,2.035,0,0,0-1.625-1.99V14.107l.824-.118c.052-.008.1-.018.155-.03L73.313,16.8v3.189Zm10.969-1.625a.406.406,0,1,1,.406-.406A.407.407,0,0,1,77.782,18.363Z" transform="translate(-66)"/></g></g></g></svg>