<svg xmlns="http://www.w3.org/2000/svg" width="36.889" height="35.918" viewBox="0 0 36.889 35.918">
  <g id="component_43___39" transform="translate(0 0)">
    <rect id="Rectangle_6645" data-name="Rectangle 6645" width="36.889" height="35.918" rx="8" transform="translate(0 0)" fill="#7047ea" opacity="0.2"/>
    <g id="Group_27560" data-name="Group 27560" transform="translate(10.875 11.009)">
      <g id="pharmacy">
        <path id="Path_20728" data-name="Path 20728" d="M7.328-490.929c-.257.145-7.163,5.2-7.216,5.273a.755.755,0,0,0,.1.781c.163.192.225.2,1.011.2h.713l.006,3.6.009,3.6.074.109a.641.641,0,0,0,.219.183l.148.074H12.835l.148-.074a.641.641,0,0,0,.219-.183l.074-.109.009-3.6.006-3.6H14c.787,0,.849-.012,1.011-.2a.755.755,0,0,0,.1-.781c-.053-.077-6.959-5.128-7.216-5.273A.52.52,0,0,0,7.612-491,.52.52,0,0,0,7.328-490.929Zm.867,5.06a3.8,3.8,0,0,1,3.144,3.185,4.448,4.448,0,0,1-.068,1.414,3.8,3.8,0,0,1-2.928,2.813,4.05,4.05,0,0,1-1.461,0,3.8,3.8,0,0,1-2.928-2.813,4.448,4.448,0,0,1-.068-1.414,3.8,3.8,0,0,1,2.629-3.064A3.847,3.847,0,0,1,8.195-485.869Z" transform="translate(-0.042 491)" fill="#7c60dc"/>
        <path id="Path_20729" data-name="Path 20729" d="M161.893-287.054v.946H160v1.922h1.893v1.893h1.893v-1.893h1.893v-1.922h-1.893V-288h-1.893Z" transform="translate(-155.269 294.004)" fill="#7c60dc"/>
      </g>
    </g>
  </g>
</svg>
