<svg xmlns="http://www.w3.org/2000/svg" width="36.889" height="35.918" viewBox="0 0 36.889 35.918">
  <g id="component_44___2" transform="translate(0 0)">
    <rect id="Rectangle_6646" data-name="Rectangle 6646" width="36.889" height="35.918" rx="8" transform="translate(0 0)" fill="#7047ea" opacity="0.2"/>
    <g id="Group_27561" data-name="Group 27561" transform="translate(8.332 10.525)">
      <g id="hospital-buildings" transform="translate(0 0)">
        <path id="Path_20726" data-name="Path 20726" d="M6.818-431.836a.734.734,0,0,0-.474.363c-.059.126-.063.652-.063,6.048v5.909H6.067c-.205,0-.213,0-.237-.122-.012-.067-.024-2.149-.024-4.622v-4.5H3.784a8.158,8.158,0,0,0-2.184.075.683.683,0,0,0-.371.371c-.032.075-.043,1.473-.043,4.456v4.341H0v1.541H20.224v-1.541H19.138l.012-4.313.008-4.313-.1-.2a.8.8,0,0,0-.241-.3l-.15-.1-2.125-.012-2.125-.012v4.5c0,2.477-.012,4.558-.024,4.625-.024.119-.032.122-.237.122h-.213v-5.905c0-5.807,0-5.909-.079-6.063a.659.659,0,0,0-.478-.352C13.165-431.888,7.035-431.888,6.818-431.836Zm3.895.415a2.493,2.493,0,0,1,1.623,3.527,2.649,2.649,0,0,1-1.118,1.106,2.357,2.357,0,0,1-2.212,0,2.649,2.649,0,0,1-1.118-1.106A2.492,2.492,0,0,1,9.46-431.41,3.037,3.037,0,0,1,10.713-431.422Zm-7.394,4.973v.494H2.331v-.987h.988Zm1.58,0v.494H3.911v-.987H4.9Zm11.692,0v.494H15.6v-.987h.988Zm1.58,0v.494h-.988v-.987h.988ZM3.318-424.711v.494H2.331v-.987h.988Zm1.58,0v.494H3.911v-.987H4.9Zm11.692,0v.494H15.6v-.987h.988Zm1.58,0v.494h-.988v-.987h.988ZM3.318-422.894v.494H2.331v-.988h.988Zm1.58,0v.494H3.911v-.988H4.9Zm11.692,0v.494H15.6v-.988h.988Zm1.58,0v.494h-.988v-.988h.988Zm-6.478,1.481v1.857H8.73v-3.713h2.963Z" transform="translate(0 431.875)" fill="#7c60dc"/>
        <path id="Path_20727" data-name="Path 20727" d="M215.988-399.526v.474H215v1.3h.988v.948h1.264v-.948h.987v-1.3h-.987V-400h-1.264Z" transform="translate(-206.507 401.259)" fill="#7c60dc"/>
      </g>
    </g>
  </g>
</svg>
