<svg xmlns="http://www.w3.org/2000/svg" xmlns:xlink="http://www.w3.org/1999/xlink" width="39" height="39" viewBox="0 0 39 39"><defs><style>.a{fill:#fff;stroke:#707070;}.b{clip-path:url(#a);}.c{fill:#475677;}</style><clipPath id="a"><rect class="a" width="39" height="39" transform="translate(742.896 865)"/></clipPath></defs><g class="b" transform="translate(-742.896 -865)"><g transform="translate(742.634 865)"><path class="c" d="M37.14,34.178h-.592V7.517a.592.592,0,0,0-.592-.592H29.438V1.592A.592.592,0,0,0,28.846,1H9.887a.592.592,0,0,0-.592.592V6.925H2.777a.592.592,0,0,0-.592.592V34.178H1.592A.592.592,0,0,0,1,34.77v2.37a.592.592,0,0,0,.592.592H37.14a.592.592,0,0,0,.592-.592V34.77A.592.592,0,0,0,37.14,34.178Zm-5.332,0V32.993h3.555v1.185Zm3.555-14.219h-7.11V14.034h7.11Zm-8.294,0H19.959V14.034h7.109Zm-8.294,0h-7.11V14.034h7.11Zm-8.294,0H3.37V14.034h7.11Zm24.883,1.185V31.808H31.808v-.592a4.147,4.147,0,1,0-8.294,0v.592H15.219v-.592a4.147,4.147,0,1,0-8.294,0v.592H3.37V21.144ZM8.11,31.215a2.962,2.962,0,0,1,5.925,0v2.962H8.11Zm7.11,1.777h8.294v1.185H15.219ZM24.7,31.215a2.962,2.962,0,0,1,5.925,0v2.962H24.7ZM10.479,2.185H28.253v8.294H10.479ZM9.294,8.11v2.962a.592.592,0,0,0,.592.592H28.846a.592.592,0,0,0,.592-.592V8.11h5.925v4.74H3.37V8.11ZM3.37,32.993H6.925v1.185H3.37Zm33.178,3.555H2.185V35.363H36.548Z"/><path class="c" d="M20.185,5H19v5.332a.592.592,0,0,0,.592.592h2.962V9.74h-2.37Z" transform="translate(-7.336 -1.63)"/><path class="c" d="M29.37,5A2.372,2.372,0,0,0,27,7.37v3.555h1.185V9.74h2.37v1.185H31.74V7.37A2.372,2.372,0,0,0,29.37,5ZM28.185,8.555V7.37a1.185,1.185,0,1,1,2.37,0V8.555Z" transform="translate(-10.596 -1.63)"/><path class="c" d="M39.962,5h-2.37A.592.592,0,0,0,37,5.592v4.74a.592.592,0,0,0,.592.592h2.37a1.77,1.77,0,0,0,1.315-2.962A1.77,1.77,0,0,0,39.962,5ZM38.185,6.185h1.777a.592.592,0,1,1,0,1.185H38.185ZM39.962,9.74H38.185V8.555h1.777a.592.592,0,1,1,0,1.185Z" transform="translate(-14.672 -1.63)"/><path class="c" d="M11.592,40.555H18.7a.592.592,0,0,0,.592-.592v-2.37A.592.592,0,0,0,18.7,37h-7.11a.592.592,0,0,0-.592.592v2.37A.592.592,0,0,0,11.592,40.555Zm.592-2.37H18.11V39.37H12.185Z" transform="translate(-4.075 -14.672)"/><path class="c" d="M39.592,40.555H46.7a.592.592,0,0,0,.592-.592v-2.37A.592.592,0,0,0,46.7,37H39.592a.592.592,0,0,0-.592.592v2.37A.592.592,0,0,0,39.592,40.555Zm.592-2.37H46.11V39.37H40.185Z" transform="translate(-15.487 -14.672)"/></g></g></svg>