<svg xmlns="http://www.w3.org/2000/svg" width="18.134" height="18.134" viewBox="0 0 18.134 18.134"><defs><style>.a{fill:#e22c24;}</style></defs><path class="a" d="M12.923,9.626a3.3,3.3,0,1,0,3.3,3.3A3.3,3.3,0,0,0,12.923,9.626ZM20.292,12.1a7.414,7.414,0,0,0-6.545-6.545v-1.7H12.1v1.7A7.414,7.414,0,0,0,5.554,12.1h-1.7v1.649h1.7A7.414,7.414,0,0,0,12.1,20.292v1.7h1.649v-1.7a7.414,7.414,0,0,0,6.545-6.545h1.7V12.1h-1.7Zm-7.369,6.594a5.77,5.77,0,1,1,5.77-5.77A5.771,5.771,0,0,1,12.923,18.693Z" transform="translate(-3.856 -3.856)"/></svg>