<svg width="39" height="39" viewBox="0 0 39 39" fill="none" xmlns="http://www.w3.org/2000/svg">
<path d="M20.795 25.6948L25.605 20.8848C25.9442 20.5457 26.1137 20.114 26.1137 19.5898C26.1137 19.0657 25.9442 18.634 25.605 18.2948L20.7488 13.4386C20.4096 13.0994 19.9859 12.9372 19.4778 12.952C18.9684 12.9681 18.5442 13.1457 18.205 13.4848C17.8658 13.824 17.6962 14.2557 17.6962 14.7798C17.6962 15.304 17.8658 15.7357 18.205 16.0748L19.87 17.7398H13.9038C13.3796 17.7398 12.9479 17.9168 12.6087 18.2708C12.2696 18.626 12.1 19.0657 12.1 19.5898C12.1 20.114 12.2776 20.5531 12.6328 20.907C12.9868 21.2622 13.4258 21.4398 13.95 21.4398H19.87L18.1587 23.1511C17.8196 23.4903 17.6574 23.9145 17.6722 24.4239C17.6882 24.932 17.8658 25.3557 18.205 25.6948C18.5442 26.034 18.9758 26.2036 19.5 26.2036C20.0242 26.2036 20.4558 26.034 20.795 25.6948ZM19.5 38.0898C16.9408 38.0898 14.5358 37.6039 12.285 36.632C10.0342 35.6614 8.07625 34.3436 6.41125 32.6786C4.74625 31.0136 3.42843 29.0557 2.4578 26.8048C1.48593 24.554 1 22.149 1 19.5898C1 17.0307 1.48593 14.6257 2.4578 12.3748C3.42843 10.124 4.74625 8.16609 6.41125 6.50109C8.07625 4.83609 10.0342 3.51766 12.285 2.54579C14.5358 1.57516 16.9408 1.08984 19.5 1.08984C22.0592 1.08984 24.4642 1.57516 26.715 2.54579C28.9658 3.51766 30.9238 4.83609 32.5888 6.50109C34.2538 8.16609 35.5716 10.124 36.5422 12.3748C37.5141 14.6257 38 17.0307 38 19.5898C38 22.149 37.5141 24.554 36.5422 26.8048C35.5716 29.0557 34.2538 31.0136 32.5888 32.6786C30.9238 34.3436 28.9658 35.6614 26.715 36.632C24.4642 37.6039 22.0592 38.0898 19.5 38.0898Z" stroke="#0062DD"/>
</svg>
