<svg xmlns="http://www.w3.org/2000/svg" width="98.244" height="26.842" viewBox="0 0 98.244 26.842"><defs><style>.a,.b{fill:#e22c24;}.b{fill-rule:evenodd;}</style></defs><g transform="translate(0 0.262)"><g transform="translate(0 -0.246)"><g transform="translate(0 -0.015)"><path class="a" d="M18.392,44.935a2.845,2.845,0,0,1-2.875,2.878h-.189a2.886,2.886,0,0,1-.833-.114,6,6,0,0,0-.947-.189,1.931,1.931,0,0,0-1.022.114,7.763,7.763,0,0,1-3.059.565,9.451,9.451,0,0,1-3.708-.717,9.58,9.58,0,0,1-3-2.047,10.548,10.548,0,0,1-2-2.975A9.542,9.542,0,0,1,0,38.731a9.1,9.1,0,0,1,.757-3.673,9.475,9.475,0,0,1,8.709-5.788,8.736,8.736,0,0,1,3.481.7,8.926,8.926,0,0,1,4.744,4.75,8.7,8.7,0,0,1,.7,3.484ZM9.466,44.86a5.95,5.95,0,0,0,3.216-.871,5.95,5.95,0,0,0,2.948-5.258,6.078,6.078,0,0,0-2.954-5.261A5.95,5.95,0,0,0,9.466,32.6a5.742,5.742,0,0,0-2.386.492,5.929,5.929,0,0,0-1.058.541,5.547,5.547,0,0,0-.909.736,7.73,7.73,0,0,0-1.328,1.977,6.364,6.364,0,0,0-.454,2.386,5.988,5.988,0,0,0,.454,2.383,7.73,7.73,0,0,0,1.325,1.969,7.706,7.706,0,0,0,1.966,1.323A6.364,6.364,0,0,0,9.466,44.86Z" transform="translate(0 -21.349)"/><path class="a" d="M86.509,6.879a1.893,1.893,0,0,1-.568,1.4,1.853,1.853,0,0,1-1.352.568,1.939,1.939,0,0,1-1.969-1.966,1.858,1.858,0,0,1,.568-1.352,1.893,1.893,0,0,1,1.4-.568,1.94,1.94,0,0,1,1.92,1.92ZM84.543,11.91a1.674,1.674,0,0,0-1.231.511,1.726,1.726,0,0,0-.511,1.269V28.295a1.726,1.726,0,0,0,.511,1.269,1.674,1.674,0,0,0,1.231.511,1.747,1.747,0,0,0,1.777-1.78V13.689a1.747,1.747,0,0,0-1.777-1.78Z" transform="translate(-60.273 -3.613)"/><path class="a" d="M126.486,1.736A1.642,1.642,0,0,1,126.77.8a1.931,1.931,0,0,1,.738-.655,1.893,1.893,0,0,1,.89-.157,1.78,1.78,0,0,1,.8.27,1.818,1.818,0,0,1,.584.606,1.661,1.661,0,0,1,.227.871V24.669a1.726,1.726,0,0,1-.511,1.269,1.669,1.669,0,0,1-1.228.511,1.707,1.707,0,0,1-.833-.17,1.745,1.745,0,0,1-.492-.4,1.128,1.128,0,0,0-.776-.435,1.315,1.315,0,0,0-.89.208,4.243,4.243,0,0,1-.541.322l-.568.27a7.957,7.957,0,0,1-3.067.565,9.588,9.588,0,0,1-3.708-.755,8.807,8.807,0,0,1-2.975-2.007,8.528,8.528,0,0,1-1.136-1.4,11.338,11.338,0,0,1-.871-1.623,9.28,9.28,0,0,1,0-7.343,9.594,9.594,0,0,1,2.007-2.989,9.134,9.134,0,0,1,1.379-1.136,13.412,13.412,0,0,1,1.609-.909,9.588,9.588,0,0,1,3.708-.755h3.635a1.685,1.685,0,0,0,1.739-1.742Zm.038,18.582a6.107,6.107,0,0,0,.757-2.951,6.034,6.034,0,0,0-.757-2.916,5.68,5.68,0,0,0-2.231-2.345,6.021,6.021,0,0,0-3.181-.871,5.721,5.721,0,0,0-2.383.492,5.861,5.861,0,0,0-1.06.541,5.785,5.785,0,0,0-.909.736,6.548,6.548,0,0,0-1.323,1.969,6.364,6.364,0,0,0-.446,2.394,5.988,5.988,0,0,0,.454,2.383,6.548,6.548,0,0,0,1.323,1.969,5.785,5.785,0,0,0,.909.736,5.861,5.861,0,0,0,1.06.541,6.145,6.145,0,0,0,5.564-.379,5.461,5.461,0,0,0,2.231-2.307Z" transform="translate(-81.452 0.015)"/><path class="a" d="M200.089,6.879a1.893,1.893,0,0,1-.568,1.4,1.858,1.858,0,0,1-1.352.568A1.939,1.939,0,0,1,196.2,6.879a1.858,1.858,0,0,1,.568-1.352,1.893,1.893,0,0,1,1.4-.568,1.94,1.94,0,0,1,1.92,1.92ZM198.12,11.91a1.68,1.68,0,0,0-1.231.511,1.726,1.726,0,0,0-.511,1.269V28.295a1.726,1.726,0,0,0,.511,1.269,1.68,1.68,0,0,0,1.231.511,1.747,1.747,0,0,0,1.78-1.78V13.689a1.747,1.747,0,0,0-1.78-1.78Z" transform="translate(-143.132 -3.613)"/><path class="a" d="M239.039,33.234l-6.886,14.8a2.194,2.194,0,0,1-.757.852,1.975,1.975,0,0,1-1.1.319,1.893,1.893,0,0,1-1.082-.319,2.256,2.256,0,0,1-.738-.852l-6.924-14.8a1.566,1.566,0,0,1-.17-.909,2.118,2.118,0,0,1,.284-.833,1.7,1.7,0,0,1,.625-.606,1.785,1.785,0,0,1,.89-.227,1.723,1.723,0,0,1,.963.284,1.85,1.85,0,0,1,.663.738l4.92,10.635a.644.644,0,0,0,1.136,0l4.96-10.635a1.909,1.909,0,0,1,.644-.738,1.623,1.623,0,0,1,.944-.284,1.785,1.785,0,0,1,.89.227,1.7,1.7,0,0,1,.625.606,2.118,2.118,0,0,1,.284.833,1.566,1.566,0,0,1-.17.909Z" transform="translate(-161.497 -22.363)"/><path class="a" d="M313.607,44.935a2.845,2.845,0,0,1-2.878,2.878h-.189a2.9,2.9,0,0,1-.833-.114,5.95,5.95,0,0,0-.944-.189,1.931,1.931,0,0,0-1.022.114,7.776,7.776,0,0,1-3.067.565,9.45,9.45,0,0,1-3.708-.717,9.57,9.57,0,0,1-2.989-2.047,10.609,10.609,0,0,1-2.012-2.975,9.588,9.588,0,0,1-.755-3.708,9.139,9.139,0,0,1,.755-3.684,9.486,9.486,0,0,1,8.709-5.788,8.739,8.739,0,0,1,3.484.7,8.95,8.95,0,0,1,4.75,4.75,8.752,8.752,0,0,1,.7,3.484Zm-8.926-.076a6.076,6.076,0,0,0,6.159-6.129,6.091,6.091,0,0,0-6.167-6.132,5.729,5.729,0,0,0-2.383.492,5.95,5.95,0,0,0-1.06.541,5.786,5.786,0,0,0-.909.736A7.72,7.72,0,0,0,299,36.337a6.365,6.365,0,0,0-.454,2.386A5.989,5.989,0,0,0,299,41.105a7.72,7.72,0,0,0,1.323,1.969,7.719,7.719,0,0,0,1.969,1.323,6.361,6.361,0,0,0,2.383.454Z" transform="translate(-215.363 -21.348)"/><path class="b" d="M322.014,52.28a3.194,3.194,0,1,1-3.194,3.194A3.194,3.194,0,0,1,322.014,52.28Z" transform="translate(-232.587 -38.135)"/><path class="b" d="M26.7,52.28a3.194,3.194,0,1,1-3.194,3.194A3.194,3.194,0,0,1,26.7,52.28Z" transform="translate(-17.151 -38.135)"/></g></g></g></svg>