<svg width="140" height="140" viewBox="0 0 140 140" fill="none" xmlns="http://www.w3.org/2000/svg">
<path d="M70.1096 63.7685C60.6311 55.7513 48.52 51.343 35.9926 51.3502H23.8933C23.5881 51.3502 23.2828 51.3242 22.9732 51.3242C18.1808 51.3972 13.61 53.3118 10.2474 56.6547C6.88473 59.9975 5 64.5006 5 69.1917C5 73.8829 6.88473 78.3859 10.2474 81.7287C13.61 85.0716 18.1808 86.9862 22.9732 87.0592H23.0926V87.0809H35.9926C40.1944 87.0854 44.2232 88.7191 47.1972 91.6243C50.1712 94.5294 51.8482 98.4695 51.8611 102.582C51.8645 95.2074 53.4971 87.9206 56.6468 81.2212C59.7966 74.5218 64.3891 68.5682 70.1096 63.7685V63.7685Z" fill="#8CC63F"/>
<path d="M51.9615 116.568H51.8597V114.057C51.8288 114.49 51.8066 114.923 51.8066 115.356C51.8066 120.094 53.7297 124.638 57.1528 127.988C60.5759 131.339 65.2186 133.221 70.0596 133.221H70.1126C65.4964 133.206 61.0573 131.48 57.6894 128.39C54.3214 125.3 52.2747 121.076 51.9615 116.568V116.568Z" fill="#8CC63F"/>
<path d="M117.25 51.3266C116.941 51.3266 116.635 51.3266 116.33 51.3526H104.231C91.7021 51.3455 79.5896 55.7537 70.1094 63.7708C75.8305 68.5693 80.4239 74.522 83.5744 81.2207C86.725 87.9194 88.3583 95.2057 88.3623 102.58C88.3752 98.4676 90.0521 94.5275 93.0261 91.6223C96.0001 88.7171 100.029 87.0835 104.231 87.0789H117.131V87.0573H117.25C122.043 86.9842 126.613 85.0697 129.976 81.7268C133.339 78.3839 135.223 73.8809 135.223 69.1898C135.223 64.4986 133.339 59.9956 129.976 56.6527C126.613 53.3099 122.043 51.3953 117.25 51.3223V51.3266Z" fill="#2EB2FF"/>
<path d="M70.1098 63.7695C64.3899 68.5688 59.7978 74.5217 56.648 81.2203C53.4983 87.9189 51.8654 95.2048 51.8613 102.579V114.001C51.8635 114.02 51.8635 114.039 51.8613 114.057V116.569H51.9631C52.2601 121.084 54.3019 125.318 57.6737 128.413C61.0454 131.507 65.4943 133.229 70.1165 133.229C74.7386 133.229 79.1875 131.507 82.5592 128.413C85.931 125.318 87.9728 121.084 88.2698 116.569H88.3672V102.579C88.3626 95.2041 86.7286 87.9175 83.5773 81.2188C80.4259 74.5201 75.8318 68.5676 70.1098 63.7695V63.7695Z" fill="#0062DD"/>
<path d="M69.842 42.5014C80.1402 42.5014 88.4886 34.3303 88.4886 24.2507C88.4886 14.1711 80.1402 6 69.842 6C59.5437 6 51.1953 14.1711 51.1953 24.2507C51.1953 34.3303 59.5437 42.5014 69.842 42.5014Z" fill="#0062DD"/>
<path d="M21.6719 22.6621C21.6719 22.6621 21.9417 31.5688 26.4275 36.2711C27.0162 36.9533 27.7482 37.5032 28.5736 37.8835C29.3991 38.2638 30.2985 38.4655 31.2108 38.4748C32.123 38.4842 33.0266 38.301 33.86 37.9377C34.6934 37.5744 35.437 37.0396 36.0401 36.3697C36.6433 35.6998 37.0918 34.9105 37.3552 34.0556C37.6186 33.2007 37.6906 32.3003 37.5664 31.4156C37.4422 30.531 37.1246 29.683 36.6354 28.9294C36.1461 28.1757 35.4966 27.5342 34.7312 27.0483C30.845 24.4934 26.342 22.981 21.6719 22.6621V22.6621Z" fill="#0062DD"/>
<path d="M118.69 22.6621C118.69 22.6621 118.416 31.5688 113.93 36.2711C113.34 36.9495 112.609 37.4959 111.784 37.8731C110.96 38.2503 110.062 38.4495 109.152 38.4571C108.243 38.4648 107.342 38.2808 106.511 37.9176C105.68 37.5544 104.939 37.0205 104.337 36.3521C103.736 35.6838 103.288 34.8966 103.025 34.044C102.762 33.1914 102.689 32.2934 102.812 31.4109C102.935 30.5284 103.25 29.682 103.736 28.9293C104.223 28.1766 104.869 27.5351 105.631 27.0483C109.517 24.4925 114.02 22.98 118.69 22.6621Z" fill="#0062DD"/>
<path d="M21.6719 117.023C21.6719 117.023 21.9417 108.116 26.4275 103.409C27.017 102.729 27.7492 102.181 28.5744 101.802C29.3996 101.424 30.2983 101.223 31.2096 101.215C32.1209 101.207 33.0234 101.391 33.8556 101.754C34.6879 102.117 35.4304 102.652 36.0328 103.321C36.6351 103.991 37.0832 104.779 37.3465 105.633C37.6098 106.487 37.6822 107.387 37.5587 108.27C37.4352 109.154 37.1187 110.001 36.6308 110.755C36.1429 111.508 35.495 112.15 34.7312 112.636C30.8441 115.19 26.3416 116.702 21.6719 117.023V117.023Z" fill="#2EB2FF"/>
<path d="M118.69 117.023C118.69 117.023 118.415 108.116 113.929 103.41C113.34 102.728 112.608 102.179 111.783 101.799C110.957 101.419 110.057 101.218 109.145 101.209C108.233 101.2 107.33 101.384 106.497 101.748C105.664 102.112 104.92 102.647 104.318 103.317C103.715 103.987 103.267 104.776 103.004 105.631C102.741 106.486 102.669 107.386 102.794 108.271C102.918 109.155 103.236 110.003 103.726 110.757C104.215 111.51 104.865 112.151 105.63 112.637C109.517 115.191 114.02 116.703 118.69 117.023V117.023Z" fill="#8CC63F"/>
</svg>
