<svg xmlns="http://www.w3.org/2000/svg" width="47.464" height="47.488" viewBox="0 0 47.464 47.488"><defs><style>.a{fill:#0a89ba;}</style></defs><g transform="translate(-0.006 0.009)"><g transform="translate(0.006 -0.009)"><path class="a" d="M41.656,41.765a2.91,2.91,0,1,1-4.06,4.1L24.919,31.991A8.075,8.075,0,0,1,22,31.344l4.609-4.617,3.008,3.008ZM15.039,26.539l5.677-5.684L14.964,15.1,3.122,3.238a1.632,1.632,0,0,0-1.414-.5A1.333,1.333,0,0,0,.671,4.1C.265,7.953,3.092,14.622,13.152,24.7,13.814,25.366,14.453,25.975,15.039,26.539ZM25.566,10.75,26.318,10h0ZM46.822,9.464a1.456,1.456,0,0,0-1.97-.346l-9.023,9.023a1.346,1.346,0,0,1-1.857-.233,1.353,1.353,0,0,1-.135-1.917l9.023-9.023c.444-.444.286-1.331-.353-1.97a1.456,1.456,0,0,0-1.97-.346l-9.023,9.023a1.353,1.353,0,0,1-1.865-.233,1.346,1.346,0,0,1-.226-1.857l9.023-9.023A1.482,1.482,0,0,0,38.1.584C37.468-.055,36.521-.2,36.092.253L26.318,9.975c-3.173,3.18-2.158,5.391-.346,7.391L.979,42.389A3.053,3.053,0,0,0,.8,46.675a3.008,3.008,0,0,0,4.278-.188l25-25.023c2.008,1.812,4.218,2.827,7.406-.353L47.213,11.4c.451-.444.293-1.331-.346-1.97Z" transform="translate(-0.006 0.009)"/></g></g></svg>