<svg xmlns="http://www.w3.org/2000/svg" width="11.814" height="18.129" viewBox="0 0 11.814 18.129"><defs><style>.a{fill:#e22c24;}</style></defs><path class="a" d="M21980.949,22242.779h0l-5.42-10.254h.008a5.361,5.361,0,0,1-.4-3.262,5.505,5.505,0,0,1,1.584-2.916,6.133,6.133,0,0,1,6.461-1.279,5.863,5.863,0,0,1,2.676,2.076,5.406,5.406,0,0,1,1,3.141,5.312,5.312,0,0,1-.492,2.24h0l-5.418,10.254Zm-.066-15.146a3.117,3.117,0,1,0,3.27,3.115A3.2,3.2,0,0,0,21980.883,22227.633Z" transform="translate(-21975.041 -22224.65)"/></svg>