<svg xmlns="http://www.w3.org/2000/svg" xmlns:xlink="http://www.w3.org/1999/xlink" width="26" height="26" viewBox="0 0 26 26"><defs><style>.a{fill:#fff;stroke:#707070;}.b{clip-path:url(#a);}.c,.d{fill:#481ca9;}.c{stroke:#481ca9;stroke-width:0.5px;}</style><clipPath id="a"><rect class="a" width="26" height="26" transform="translate(-74 -32)"/></clipPath></defs><g class="b" transform="translate(74 32)"><g transform="translate(-69.51 -31.13)"><g transform="translate(0 0)"><path class="c" d="M17.242,14.744c.023-3.345.5-6.717-.066-10.043-.229-1.339-.695-1.246-2-1.265s-2.549,0-3.822-.054h-.031c-.194-.12-.388-.237-.6-.388-.66-.431-.307-.47-.21-1.164A1.669,1.669,0,0,0,10.281.6,2.322,2.322,0,0,0,7.386.409c-.858.636-.272,1.3-.466,2.068-.089.341-.815.559-1.23.865H5.644C4.227,3.37,2.229,3.06.886,3.607.281,3.843.18,4.216.13,4.825.04,5.9.079,7,.056,8.073.013,10.933.013,13.8.04,16.66q0,1.649.047,3.294A6.607,6.607,0,0,0,.32,22.7c.776,1.552,2.693,1.265,4.121,1.284,2.522.031,5.045-.1,7.555-.085,1,0,1.995-.1,2.992-.089.823,0,1.416.078,1.905-.691.613-.97.334-2.472.341-3.558C17.25,17.953,17.235,16.346,17.242,14.744ZM7.386,3a.276.276,0,0,0,.132-.287c-.163-.776-.435-1.641.555-2.026C8.667.46,9.7.526,9.97,1.236a2.03,2.03,0,0,1-.291,1.412.287.287,0,0,0,.043.33c.617.512,1.552.8,2.018,1.44a1.184,1.184,0,0,1,.268.978c-.244,1.017-1.327.861-2.161.873-1.028,0-2.061.035-3.1.031a3.19,3.19,0,0,1-.962-.023C5.209,6.047,5.392,6,5.3,5.527a5.867,5.867,0,0,1,0-.776C5.423,3.839,6.672,3.343,7.386,3Zm5.219,2.612c.5,0,1.009.07,1.509.062.175,0,.57.062.539,0,.074.113,0,.539,0,.667,0,.99,0,1.979.027,2.969q.023,4.237,0,8.479c0,.993,0,1.987-.027,2.98,0,.1.047.586-.027.656-.248.241-1.634,0-2.018.043a30.733,30.733,0,0,1-3.434.155c-1.284-.035-2.538.058-3.83.07-.8,0-2.231.21-2.561-.563a5.641,5.641,0,0,1-.167-1.7c-.147-2.561-.031-5.118-.113-7.679,0-1.164.031-2.328.043-3.473,0-.466-.287-2.076-.035-2.476s1.552-.252,2.208-.217A1.235,1.235,0,0,0,5.209,6.75c.7.341,2.076.047,2.813.039h2.825c1.234-.066,1.769-.26,1.766-1.176Zm4.164,6.733c-.113,2.565-.05,5.134-.078,7.7,0,1.409.295,3.1-1.525,3.221-.842.047-1.7.089-2.546.093-1.866,0-3.721.031-5.588.074-1.048.023-2.1,0-3.143,0a8.863,8.863,0,0,1-1.758-.047C.553,23,.654,21.7.634,20.432c0-.993-.031-1.991-.043-2.984C.564,15.225.545,13,.56,10.774c0-1.226.023-2.456.058-3.683A8.311,8.311,0,0,1,.7,4.6c.427-.97,3.05-.776,4.435-.733A1.645,1.645,0,0,0,4.8,4.6a.26.26,0,0,0-.031.128v.338a5.733,5.733,0,0,0-2.414.1c-.5.287-.334.97-.318,1.494.054,1.7-.047,3.411-.031,5.114.081,2.716-.054,5.433.14,8.149.047.636,0,1.63.52,2.064a4.1,4.1,0,0,0,1.529.248,15.177,15.177,0,0,0,2.142,0,38.758,38.758,0,0,1,4.3-.116c1.164.023,2.328-.054,3.492-.1.415,0,.861,0,1.075-.407a6.155,6.155,0,0,0,.062-2.169c.027-3.205,0-6.41,0-9.616,0-1.257.035-2.522-.035-3.776s-1.638-.986-2.646-.97a1.605,1.605,0,0,0-.058-.31,1.626,1.626,0,0,0-.438-.819h1.409l1.471.019c.958,0,1.409-.113,1.707.869C17.351,7.107,16.874,10.013,16.769,12.345Z" transform="translate(-0.022 0.004)"/><path class="d" d="M19.4,23.844a14.552,14.552,0,0,0-2.468,0c-.341.035-.345.574,0,.539a14.164,14.164,0,0,1,2.468.027,6.43,6.43,0,0,0,1.164-.07,10.741,10.741,0,0,1,1.731.027.27.27,0,0,0,0-.539c-.423-.019-.842-.1-1.265-.081C20.481,23.751,19.957,23.89,19.4,23.844Z" transform="translate(-10.214 -14.529)"/><path class="d" d="M16.689,31.4c-.345,0-.349.555,0,.543.966-.035,1.94-.043,2.887,0a20.9,20.9,0,0,0,2.658-.062c.345,0,.345-.563,0-.539C20.387,31.467,18.548,31.335,16.689,31.4Z" transform="translate(-10.062 -19.176)"/><path class="d" d="M22.227,39c-.97.039-1.94.062-2.914.05a10.149,10.149,0,0,0-2.829.128.272.272,0,0,0,.144.52,11.337,11.337,0,0,1,3.035-.1c.854,0,1.711,0,2.565-.054C22.572,39.5,22.576,38.963,22.227,39Z" transform="translate(-9.992 -23.862)"/><path class="d" d="M22.275,46.452c-1.909.248-3.787-.349-5.665,0-.345.062-.2.582.144.52,1.812-.334,3.671.264,5.522.019C22.612,46.945,22.616,46.406,22.275,46.452Z" transform="translate(-10.052 -28.357)"/><path class="d" d="M13.25,24.154a2.992,2.992,0,0,0-.493,0c-.349,0-.349.555,0,.539a3.494,3.494,0,0,1,.493,0C13.6,24.732,13.591,24.193,13.25,24.154Z" transform="translate(-7.655 -14.774)"/><path class="d" d="M12.55,32.035s.248,0,.2-.07h0a.295.295,0,0,0,.423-.043h0a.276.276,0,0,0-.039-.33c-.159-.179-.532-.116-.73-.066C12.069,31.6,12.212,32.12,12.55,32.035Z" transform="translate(-7.483 -19.259)"/><path class="d" d="M13.1,39.53h-.473a.272.272,0,0,0,0,.539h.485a.272.272,0,0,0-.012-.539Z" transform="translate(-7.587 -24.189)"/><path class="d" d="M13.025,46.669h-.446c-.345,0-.349.555,0,.543h.446C13.359,47.186,13.359,46.654,13.025,46.669Z" transform="translate(-7.547 -28.558)"/><path class="d" d="M21.923,4.149h0a.272.272,0,0,0,0-.539h0a.272.272,0,0,0,0,.539Z" transform="translate(-13.278 -2.208)"/><path class="d" d="M15.574,11.521a1.137,1.137,0,0,1,.081-.691,1.288,1.288,0,0,1,.532-.415c.314-.151.039-.617-.272-.47a1.8,1.8,0,0,0-.73.621c-.206.307-.12.613-.147.955S15.547,11.866,15.574,11.521Z" transform="translate(-9.211 -6.067)"/><path class="d" d="M18.993,9.539a.272.272,0,1,0-.239-.27A.272.272,0,0,0,18.993,9.539Z" transform="translate(-11.485 -5.506)"/></g></g></g></svg>