<svg xmlns="http://www.w3.org/2000/svg" width="55" height="55" viewBox="0 0 55 55">
    <defs>
        <clipPath id="clip-path">
            <path id="Rectangle_843" fill="#00b592" stroke="#ffbe58" d="M0 0H55V55H0z" transform="translate(58 38)"/>
        </clipPath>
        <style>
            .cls-4,.cls-5{fill:#00b592}.cls-3{fill:none;stroke:#00b592;stroke-linecap:round;stroke-miterlimit:10;stroke-width:2.5px}.cls-3,.cls-4{opacity:.6}.cls-6,.cls-7{stroke:none}.cls-7{fill:#00b592}
        </style>
    </defs>
    <g id="Mask_Group_47" clip-path="url(#clip-path)" transform="translate(-58 -38)">
        <g id="ortho23" transform="translate(64 41)">
            <g id="Layer_2">
                <g id="Layer_15">
                    <path id="Line_247" d="M0 0L2.983 1.705" class="cls-3" transform="translate(3.268 19.879)"/>
                    <path id="Line_248" d="M0 0.8L3.243 0" class="cls-3" transform="translate(0 29.369)"/>
                    <path id="Line_249" d="M0 2.564L1.668 0" class="cls-3" transform="translate(7.625 34.476)"/>
                    <path id="Line_250" d="M0 0L2.87 0.83" class="cls-3" transform="translate(38.013 27.726)"/>
                    <path id="Line_251" d="M0 0.905L4.085 0" class="cls-3" transform="translate(38.231 19.795)"/>
                    <path id="Line_252" d="M0 3.197L1.739 0" class="cls-3" transform="translate(31 10.465)"/>
                    <circle id="Ellipse_179" cx=".473" cy=".473" r=".473" class="cls-4" transform="translate(7.118 27.844)"/>
                    <circle id="Ellipse_180" cx=".473" cy=".473" r=".473" class="cls-4" transform="translate(8.43 24.069)"/>
                    <circle id="Ellipse_181" cx=".473" cy=".473" r=".473" class="cls-4" transform="translate(10.501 30.57)"/>
                    <circle id="Ellipse_182" cx=".473" cy=".473" r=".473" class="cls-4" transform="translate(35.361 25.715)"/>
                    <circle id="Ellipse_183" cx=".473" cy=".473" r=".473" class="cls-4" transform="translate(34.549 20.436)"/>
                    <circle id="Ellipse_184" cx=".473" cy=".473" r=".473" class="cls-4" transform="translate(29.529 16.356)"/>
                    <g id="Path_7064" class="cls-5">
                        <path d="M52.993 84.628c-.032 0-.063 0-.094-.002h-.026c-1.326 0-2.941-.567-4.802-1.684l-.516-.31-.514.31c-1.857 1.117-3.471 1.683-4.8 1.683-.831 0-1.536-.218-2.155-.667-1.684-1.221-1.881-3.729-1.676-4.52.196-.76 1.11-1.738 1.994-2.684 1.334-1.408 2.083-2.325 2.218-3.139.251-1.5.075-8.513.014-10.653v-.13l-.003-.036v-.037l.008-.104-.012-.084c1.276.438 2.984 1.017 3.628 1.218l.33.103.325-.124c.287-.11.81-.318 1.255-.504h2.293l.172-.066.596-.228 1.258-.395-.01.067.012.11-.004.036V62.986c-.065 2.13-.253 9.106.015 10.66.147.868 1.014 1.846 2.221 3.133l.066.07c.893.955 1.737 1.858 1.927 2.609.106.413.107 1.263-.14 2.155-.198.716-.624 1.707-1.53 2.366-.603.424-1.312.649-2.05.649z" class="cls-6" transform="translate(-24.039 -37.387)"/>
                        <path d="M52.993 83.628c.528 0 1.036-.16 1.469-.462 1.275-.936 1.414-2.947 1.282-3.462-.127-.502-.993-1.428-1.689-2.172l-.064-.069c-1.329-1.416-2.285-2.507-2.478-3.652-.246-1.438-.142-6.779-.057-9.857l-.811.31h-2.279c-.407.168-.843.34-1.097.438l-.648.248-.662-.207c-.438-.136-1.353-.443-2.295-.762.09 3.469.17 8.451-.055 9.799-.18 1.072-.975 2.074-2.477 3.66-.686.733-1.622 1.736-1.754 2.248-.128.494.025 2.54 1.296 3.46.442.321.954.477 1.567.477 1.128 0 2.61-.532 4.284-1.54l1.03-.619 1.03.619c1.68 1.008 3.162 1.541 4.288 1.541h.052l.068.002m0 2c-.04 0-.08 0-.12-.002-1.517 0-3.293-.612-5.317-1.827-3.406 2.05-6.117 2.376-8.057.968-2.057-1.491-2.359-4.416-2.057-5.58.26-1.006 1.22-2.033 2.233-3.118.838-.884 1.856-1.99 1.96-2.618.194-1.152.118-6.356 0-10.475v-.109c-.003-.06-.003-.12 0-.18-.02-.156-.006-.315.043-.465.084-.248.265-.452.501-.565.237-.114.51-.127.756-.038 1.44.494 3.029 1.03 3.62 1.215.284-.109.8-.314 1.231-.494l.18-.076h2.31l.623-.239 1.333-.419c.246-.077.513-.053.741.066.229.12.4.325.478.571.043.135.054.279.033.42.007.059.007.12 0 .18v.159c-.125 4.105-.2 9.31 0 10.474.105.628 1.136 1.734 1.965 2.618 1.014 1.086 1.974 2.095 2.234 3.118.297 1.164 0 4.089-2.058 5.58-.77.544-1.69.836-2.632.836z" class="cls-7" transform="translate(-24.039 -37.387)"/>
                    </g>
                    <g id="Path_7065" class="cls-5">
                        <path d="M31.216 26.898l.008-.066-.006-.098v-.044l.002-.035v-.128c.047-1.537.26-9.057-.014-10.657-.146-.869-1.013-1.848-2.222-3.136l-.015-.016c-.877-.943-1.784-1.917-1.98-2.668-.204-.791-.007-3.3 1.677-4.52.619-.449 1.324-.667 2.155-.667 1.33 0 2.945.566 4.804 1.683l.515.31.516-.31c1.856-1.117 3.47-1.683 4.799-1.683.831 0 1.536.218 2.155.667 1.684 1.22 1.881 3.729 1.676 4.52-.195.75-1.102 1.725-1.979 2.668l-.015.016c-1.335 1.408-2.084 2.326-2.218 3.14-.251 1.498-.075 8.512-.014 10.651v.13l.003.036v.043l-.008.105.008.055c-1.297-.445-2.968-1.01-3.61-1.211l-.324-.102-.32.117c-.386.142-1.062.423-1.268.509H33.25l-.173.066-.596.228-1.264.397z" class="cls-6" transform="translate(-17.404 -3.863)"/>
                        <path d="M32.25 25.518l.814-.311h2.278c.299-.124.8-.33 1.122-.447l.64-.235.65.204c.436.137 1.338.438 2.278.757-.09-3.468-.17-8.433.055-9.776.178-1.073.973-2.075 2.477-3.661l.011-.013c.68-.73 1.612-1.732 1.743-2.236.128-.495-.025-2.54-1.296-3.46-.441-.321-.954-.477-1.567-.477-1.128 0-2.61.532-4.284 1.54l-1.03.619-1.03-.62c-1.678-1.007-3.16-1.54-4.29-1.54-.613 0-1.125.157-1.568.478-1.27.92-1.423 2.965-1.295 3.459.131.505 1.063 1.506 1.743 2.237l.015.017c1.37 1.46 2.283 2.504 2.476 3.65.244 1.437.142 6.733.058 9.815m-1.062 2.39c-.416 0-.802-.267-.934-.684-.04-.136-.052-.279-.034-.42-.004-.06-.004-.122 0-.184v-.109c.126-4.101.201-9.305 0-10.474-.105-.633-1.135-1.735-1.965-2.619-1.014-1.089-1.973-2.115-2.233-3.117-.302-1.165 0-4.089 2.057-5.58 1.94-1.408 4.65-1.081 8.061.967 3.406-2.048 6.117-2.375 8.057-.967 2.057 1.491 2.359 4.415 2.057 5.58-.26 1.002-1.22 2.028-2.233 3.117-.838.884-1.856 1.986-1.96 2.619-.194 1.152-.118 6.356 0 10.474v.11c.004.06.004.122 0 .184.02.154.006.312-.043.46-.143.39-.515.646-.93.641-.107 0-.213-.018-.314-.054-1.441-.494-3.033-1.03-3.62-1.215-.285.105-.8.314-1.232.494l-.184.076h-2.304l-.625.239-1.332.419c-.096.03-.193.043-.29.043z" class="cls-7" transform="translate(-17.404 -3.863)"/>
                    </g>
                </g>
            </g>
        </g>
    </g>
</svg>
