<svg xmlns="http://www.w3.org/2000/svg" xmlns:xlink="http://www.w3.org/1999/xlink" width="48.804" height="44.854" viewBox="0 0 48.804 44.854">
  <defs>
    <linearGradient id="linear-gradient" x1="1.264" y1="-0.461" x2="0.031" y2="0.853" gradientUnits="objectBoundingBox">
      <stop offset="0" stop-color="#7047ea"/>
      <stop offset="1" stop-color="#9847ea"/>
    </linearGradient>
  </defs>
  <g id="Layer_2" data-name="Layer 2" transform="translate(0.56 0)">
    <g id="Layer_3" data-name="Layer 3" transform="translate(0.12 0)">
      <path id="Path_20491" data-name="Path 20491" d="M21.732,47.23C9.8,47.23.12,48.545.12,50.169H2.513c0-1.185,8.6-2.144,19.22-2.144S40.944,49,40.944,50.169h2.389C43.344,48.545,33.666,47.23,21.732,47.23Z" transform="translate(-0.12 -29.682)" fill="url(#linear-gradient)"/>
      <path id="Path_20492" data-name="Path 20492" d="M25.78,48.78c-10.615,0-19.22.962-19.22,2.144s8.6,2.144,19.22,2.144,19.212-.959,19.212-2.144S36.394,48.78,25.78,48.78Z" transform="translate(-4.167 -30.657)" fill="none"/>
      <path id="Path_20493" data-name="Path 20493" d="M71.1,27.836c-.193-.152-.424-.186-.494-.067-.234.372-.743,1.148-1.048,1.564L66.33,33.561c-.372.505-5.38,6.688-5.38,6.688,1.011.743,13.409.063,13.78-.457l3.1-4.325a15.646,15.646,0,0,1,1.2-1.486c.093-.1,0-.312-.208-.453-1.538-1.055-3-2.1-4.172-2.972C73.6,29.779,72.378,28.842,71.1,27.836Z" transform="translate(-38.349 -17.407)" fill="url(#linear-gradient)"/>
      <path id="Path_20494" data-name="Path 20494" d="M107.988,2.278,106.58,1.234c-2.6-1.932-6.023-1.572-7.631.921a.424.424,0,0,0,.067.55c1.367,1.185,2.883,2.4,4.5,3.589,1.806,1.338,3.6,2.552,5.3,3.593a.42.42,0,0,0,.561-.126A5.435,5.435,0,0,0,107.988,2.278Z" transform="translate(-62.185 0)" fill="url(#linear-gradient)"/>
      <path id="Path_20495" data-name="Path 20495" d="M99.75,7.532C99.8,7.436,99.69,7.625,99.75,7.532Z" transform="translate(-62.722 -4.716)" fill="#7c60dc"/>
      <path id="Path_20496" data-name="Path 20496" d="M125.384,26.62c-.074.089-.152.178-.234.264C125.232,26.8,125.31,26.709,125.384,26.62Z" transform="translate(-78.697 -16.73)" fill="#7c60dc"/>
      <path id="Path_20497" data-name="Path 20497" d="M94.548,22.192c-1.115-.814-2.411-1.839-3.741-2.972a.42.42,0,0,0-.635.126c-.234.412-.594,1.04-.929,1.59a.424.424,0,0,0,.078.539c1.115.947,2.356,1.91,3.634,2.853,1.486,1.1,2.95,2.11,4.369,3.013a.416.416,0,0,0,.528-.082L99.115,25.9a.42.42,0,0,0-.071-.639C97.372,24.21,95.8,23.11,94.548,22.192Z" transform="translate(-56.091 -12.02)" fill="url(#linear-gradient)"/>
      <path id="Path_20498" data-name="Path 20498" d="M98.33,8.285c.052-.1.1-.208.156-.3Z" transform="translate(-61.841 -5.015)" fill="#7c60dc"/>
      <path id="Path_20499" data-name="Path 20499" d="M105.008,17.519a.424.424,0,0,0-.048-.665c-1.858-1.163-3.648-2.4-5.019-3.411-1.226-.907-2.716-2.077-4.2-3.344a.42.42,0,0,0-.65.156q-.4.862-.825,1.672a.412.412,0,0,0,.089.509c1.234,1.048,2.578,2.114,3.994,3.162,1.62,1.2,3.236,2.3,4.778,3.266a.412.412,0,0,0,.5-.056C103.949,18.507,104.536,17.957,105.008,17.519Z" transform="translate(-59.254 -6.288)" fill="url(#linear-gradient)"/>
      <path id="Path_20500" data-name="Path 20500" d="M124.648,27.39l-.268.256Z" transform="translate(-78.213 -17.214)" fill="#7c60dc"/>
      <path id="Path_20501" data-name="Path 20501" d="M98.75,8Z" transform="translate(-62.105 -5.028)" fill="#7c60dc"/>
      <path id="Path_20502" data-name="Path 20502" d="M125.1,27.352l.019-.022Z" transform="translate(-78.665 -17.176)" fill="#7c60dc"/>
      <path id="Path_20503" data-name="Path 20503" d="M97.87,9.491h0c.026-.056.056-.111.082-.171C97.918,9.379,97.9,9.435,97.87,9.491Z" transform="translate(-61.552 -5.857)" fill="#7c60dc"/>
      <path id="Path_20504" data-name="Path 20504" d="M125.78,26.62h0v0Z" transform="translate(-79.093 -16.73)" fill="#7c60dc"/>
      <path id="Path_20505" data-name="Path 20505" d="M123.7,28.549c.033-.026.063-.059.1-.089C123.763,28.49,123.733,28.523,123.7,28.549Z" transform="translate(-77.786 -17.886)" fill="#7c60dc"/>
      <path id="Path_20506" data-name="Path 20506" d="M108.252,14.4h0a64.368,64.368,0,0,1-5.35-3.585c-1.627-1.2-3.154-2.437-4.514-3.637-.059.093-.115.186-.171.282h0c-.052.1-.1.2-.156.3l-.089.193c-.026.059-.056.115-.082.171,1.538,1.345,3.11,2.6,4.384,3.533,1.408,1.04,3.277,2.326,5.2,3.5.033-.026.063-.059.1-.089l.156-.141.268-.256.019-.022A1.894,1.894,0,0,0,108.252,14.4Z" transform="translate(-61.565 -4.512)" fill="none"/>
      <path id="Path_20507" data-name="Path 20507" d="M117.043,33.85c-.256.256-.505.516-.743.777C116.538,34.366,116.787,34.106,117.043,33.85Z" transform="translate(-73.135 -21.274)" fill="#7c60dc"/>
      <path id="Path_20508" data-name="Path 20508" d="M94.134,16.43c-.074.145-.156.282-.234.424C93.978,16.712,94.06,16.575,94.134,16.43Z" transform="translate(-59.057 -10.326)" fill="#7c60dc"/>
      <path id="Path_20509" data-name="Path 20509" d="M97.675,19.644c-1.438-1.063-2.8-2.147-4.031-3.214-.074.145-.156.282-.234.424s-.189.353-.29.528c1.386,1.185,2.772,2.278,3.916,3.125,1.282.947,2.939,2.092,4.681,3.173h0c.253-.26.5-.52.743-.777h0C100.93,21.951,99.3,20.851,97.675,19.644Z" transform="translate(-58.567 -10.326)" fill="none"/>
      <path id="Path_20510" data-name="Path 20510" d="M92.111,28.229c-1.312-.973-2.56-1.962-3.715-2.939-.189.3-.372.606-.576.9h0c1.293,1.1,2.575,2.1,3.645,2.894,1.2.892,2.746,1.958,4.373,2.972l.7-.814h0C95.113,30.361,93.612,29.34,92.111,28.229Z" transform="translate(-55.236 -15.894)" fill="none"/>
      <path id="Path_20511" data-name="Path 20511" d="M19.666,59.294A120.75,120.75,0,0,1,6.424,57.321c-1.115-.215,1.375.323.554.13L1,56.05A64.569,64.569,0,0,0,3.136,66.806a35.931,35.931,0,0,0,2.79,6.9,8.319,8.319,0,0,0,5.517,4.228A49.467,49.467,0,0,0,22.3,79.2,49.526,49.526,0,0,0,33.156,77.93,8.311,8.311,0,0,0,38.67,73.7a36.158,36.158,0,0,0,2.794-6.9,86.909,86.909,0,0,0,1.9-9.508c-.033.074.085-.5-.063-.424a37.719,37.719,0,0,1-6.844,1.557c-1.289.2-2.675.394-4.087.539a84.156,84.156,0,0,1-12.7.323Z" transform="translate(-0.673 -35.225)" fill="none" stroke="#7c60dc" stroke-width="1.75"/>
      <path id="Path_20512" data-name="Path 20512" d="M21.732,56.984c-10.615,0-19.22-.97-19.22-2.144H.12c0,1.624,9.679,2.939,21.612,2.939s21.612-1.315,21.612-2.939h-2.4C40.944,56.014,32.347,56.984,21.732,56.984Z" transform="translate(-0.12 -34.465)" fill="url(#linear-gradient)"/>
      <g id="Group_1" data-name="Group 1" transform="translate(12.154 28.368)" opacity="0.2">
        <path id="Path_20513" data-name="Path 20513" d="M33.044,76.412a.189.189,0,0,1-.16.2c-.03,0-.082.085-.026.074a.338.338,0,0,0,.268-.316C33.126,76.326,33.044,76.378,33.044,76.412Z" transform="translate(-32.834 -76.354)" fill="#7c60dc"/>
      </g>
      <path id="Path_20514" data-name="Path 20514" d="M47,35.928a.632.632,0,0,0-.32-.119,10.979,10.979,0,0,0-3.128-.264,3.8,3.8,0,0,0-2.712,1.412,2.333,2.333,0,0,0-.178.29,3.6,3.6,0,0,0-.3-1.969A5.2,5.2,0,0,0,38.751,33.6c-.68-.52-1.371-1.029-2.062-1.534a.409.409,0,0,0-.23-.1c-.137,0-.23.13-.3.249a6.119,6.119,0,0,0,.071,6.141,3.232,3.232,0,0,0,1.378,1.319c-.334.033-.706.063-1.115.074a3.66,3.66,0,0,0-2.512,1.612,9.348,9.348,0,0,0-1.386,2.7.825.825,0,0,0-.048.613.814.814,0,0,0,.524.372,5.9,5.9,0,0,0,1.709.372,6.625,6.625,0,0,0,3.589-1.371,2.552,2.552,0,0,0,1.115-1.051,1.345,1.345,0,0,0,.1-.546,6.1,6.1,0,0,0,1.59,1.364,7.371,7.371,0,0,0,1.757.888.6.6,0,0,0,.9-.416,4.217,4.217,0,0,0-.1-3.113,3.009,3.009,0,0,0-.175-.346,2.367,2.367,0,0,0,1.624-.743,11.938,11.938,0,0,0,1.025-1.757c.427-.672,1.115-1.334.955-2.114A.505.505,0,0,0,47,35.928Z" transform="translate(-20.475 -20.086)" fill="url(#linear-gradient)"/>
      <g id="Group_2" data-name="Group 2" transform="translate(20.486 37.083)" opacity="0.6">
        <path id="Path_20515" data-name="Path 20515" d="M55.331,99.881c.022-.026.048-.045.071-.071a.407.407,0,0,0-.141.041Z" transform="translate(-55.26 -99.81)" fill="#7c60dc"/>
      </g>
    </g>
  </g>
</svg>
