<svg id="Layer_2" data-name="Layer 2" xmlns="http://www.w3.org/2000/svg" xmlns:xlink="http://www.w3.org/1999/xlink" width="30.811" height="61.683" viewBox="0 0 30.811 61.683">
  <defs>
    <linearGradient id="linear-gradient" x1="1.264" y1="-0.461" x2="0.031" y2="0.853" gradientUnits="objectBoundingBox">
      <stop offset="0" stop-color="#7047ea"/>
      <stop offset="1" stop-color="#9847ea"/>
    </linearGradient>
  </defs>
  <g id="Layer_3" data-name="Layer 3">
    <path id="Path_20497" data-name="Path 20497" d="M15.22,63.809,16.826,66.2l1.632,1.762L17.138,61.8Z" transform="translate(-8.615 -34.981)" fill="none"/>
    <path id="Path_20498" data-name="Path 20498" d="M30.777,41.591c-.564-7.876-8.562-11.93-8.562-11.93A3.376,3.376,0,0,0,24.272,26.3c-.213-2.825-5.3-4.105-7.733-8.51l.573-1.4s1.736,1.232,2.491,1.028.79-1.115,1.115-1.3.846-.325.729-.868l.412-.03a1.115,1.115,0,0,0,.135-.512.755.755,0,0,1,.265-.508s1.263.113,1.3-.239-.33-1.905-.243-2.6a13.848,13.848,0,0,0,1.64-2.968,18.226,18.226,0,0,0-.135-2.422S23.456,1.189,19.676.221a5.576,5.576,0,0,0-1.6-.169V0c-7.508.838-8.037,6.466-9.443,13.236a12.494,12.494,0,0,1-.755,2.435C6.015,19.563,2.469,20.635,2.6,25.1a4.114,4.114,0,0,1-.525.508A7.825,7.825,0,0,0,0,29.271,16.212,16.212,0,0,0,.156,31.28a30.592,30.592,0,0,1,3.237,1.983,35.963,35.963,0,0,0,6.917,3.932,6,6,0,0,0-.378,3.3c.378,1.562.126,1.606.126,1.606s-.72,1.384-.534,1.979l-.03.534-.5.568a40.1,40.1,0,0,0-1.614,6.978c-.217,2.686.8,5.234,4.01,6.982l.547.95a3.168,3.168,0,0,0,2.751,1.593h2.747A6.437,6.437,0,0,0,23.6,53.3c-.03-.082-.061-.169-.091-.247l1.3-.946A10.4,10.4,0,0,0,30.777,41.591ZM8.211,31.219,6.6,28.828l1.918-2.009,1.324,6.162Z" fill="url(#linear-gradient)"/>
    <path id="Path_20499" data-name="Path 20499" d="M41.81,92.993a5.008,5.008,0,0,1-4.465-2.725l-.122-.234A18.864,18.864,0,0,1,35.587,81.7c.082-3.09.924-5.594,2.309-6.87a2.773,2.773,0,0,1,1.948-.694c3.424,0,8.245,4.192,9.013,7.872.82,3.836-.6,7.377-4,9.951a5,5,0,0,1-3.038,1.033Z" transform="translate(-20.137 -41.963)" fill="#fff"/>
    <path id="Path_20500" data-name="Path 20500" d="M40.43,92.375a4.671,4.671,0,0,0,1.449,2.708h.03a3.342,3.342,0,0,0,4.708-4.509,2.709,2.709,0,0,0-.547-.49,1.853,1.853,0,0,0-.92-.217l-.612-.955a.786.786,0,0,0-.486.3,1.393,1.393,0,0,0-1.623-.139h0l-.087.056h0l-.1.074h0l-.091.082h-.026l-.074.069h0a6.362,6.362,0,0,0,.039-1.345c.039-.208.074-.434.1-.621a.907.907,0,0,0,.325-.291l.3.169h0l.66.378s.191.582.265.555.143-.1.108-.256c0,0,.395.247.564.143s.395-.538-.434-.868c0,0-.182-.169-.434-.382h0l-.126,0h0l-.065-.052h0l-.074-.056h0l-.156-.122h0l-.065-.048h0L43,86.512h-.026l-.03-.022c.534-1.042,1.094-2.317,2.231-.955,1.688,2.031,3.064,3.038,4.045.477l-.482-.777c-.825,3.493-2.534.36-3.585-.495s-1.788-.312-2.6,1.241c-.039.074-.074.143-.108.2h-.052L42.3,86.1h-.022l-.074-.026h-.026l-.035.026h0l-.035.03h0l-.043.035h0l-.052.043h0l-.056.048h0L41.9,86.3h0l-.065.056h0c-.043-.108-.087-.217-.135-.317h.061l.1-.035h.03l.117-.048h.017l.069-.039h.026l.082-.061h0a.4.4,0,0,0,.061-.061h0a.361.361,0,0,0,.035-.052h0a.616.616,0,0,0,.035-.078h0v-.2a.248.248,0,0,0,0-.056v-.1a.056.056,0,0,1,0-.026,1.436,1.436,0,0,0-.052-.182s0,0,0-.026l.017-.148v-.026a.434.434,0,0,1-.03-.065.069.069,0,0,0,0-.03s-.026-.048-.039-.074h0a2.2,2.2,0,0,0-.117-.187h0l-.052-.074h0l-.052-.069v-.022l-.143-.13h0l-.152-.169h0l-.061-.065h0a.833.833,0,0,0,.651-.9c-.117-.291-.933-.269-1.493-.234s-.573.647-.573.647l.573,1.128s-1.883-.868-3.155.252a1.667,1.667,0,0,0-.126.117C34.958,86.933,37.128,90.952,40.43,92.375Z" transform="translate(-20.603 -46.905)" fill="url(#linear-gradient)"/>
  </g>
</svg>
