<svg xmlns="http://www.w3.org/2000/svg" width="35.738" height="44.53" viewBox="0 0 35.738 44.53">
    <g>
        <g>
            <g>
                <path fill="#0693ea" d="M34.847 35.2l.085-.156V35l.043-.081.166-.327.332-.635.645-1.119c.033-.062.052-.1.076-.156l.052-.095c.19-.645.394-1.337.626-2.077a47.827 47.827 0 0 0 2.636-15.541c0-6.832-3.7-11.212-9.425-11.212a29.282 29.282 0 0 0-8.06 1.743s-1.034.474-1.327.346L19.415 5.1l-1.034-.474-.7-.275a21.136 21.136 0 0 0-4.481-.567C7.468 3.784 3.77 8.183 3.77 15a47.08 47.08 0 0 0 2.612 15.314c.175.588.356 1.128.5 1.655a9.978 9.978 0 0 0 .474.887l.616 1.1.322.635.171.327.046.082v.043l.095.156.721 1.285 1.546 2.143-1.944-1.84-.949-1.129-.114-.137-.133-.166-.062-.119c-.123.332-.251.659-.284.721l-.071.294c-.062.251-.137.5-.19.749a16.456 16.456 0 0 0-.365 2.029A16.214 16.214 0 0 0 6.7 42.5a18.4 18.4 0 0 0 .427 2.707 2.93 2.93 0 0 0 .2.607l.2.5c.052.123.095.237.137.332.123.3.209.474.209.474a2.129 2.129 0 0 0 .749.844 2.01 2.01 0 0 0 1.517.223 2.039 2.039 0 0 0 1.242-.92 5.137 5.137 0 0 0 .251-.474c.052-.119.123-.251.194-.408.137-.294.318-.65.5-1 .313-.474.659-1.024 1.057-1.669l.209-.313c.147-.242.3-.474.474-.721.066-.085.137-.19.213-.3a4.684 4.684 0 0 1 .55-.744c.052-.071.128-.19.209-.294a7.072 7.072 0 0 1 .616-.74c.066-.076.137-.166.223-.261l.166-.209.474-.474c.19-.2.389-.389.6-.574.114-.095.218-.2.332-.3a.327.327 0 0 1 .085-.076 2.787 2.787 0 0 0 .356-.28 3.708 3.708 0 0 1 .626-.474 6.026 6.026 0 0 1 1.778-.9c.043 0 .085-.033.123-.043a.436.436 0 0 1 .119-.043h.164a1.479 1.479 0 0 1 .384-.062 1.1 1.1 0 0 1 .337-.033h.1a.389.389 0 0 1 .1 0l.65.033a1.067 1.067 0 0 1 .365.081h.095a.849.849 0 0 1 .166.052 6.543 6.543 0 0 1 1.925.948 3.276 3.276 0 0 1 .564.408 2.493 2.493 0 0 0 .356.28.308.308 0 0 1 .081.076c.1.095.209.19.313.294a6.281 6.281 0 0 1 .631.6l.54.578a4.864 4.864 0 0 0 .327.375 5.689 5.689 0 0 1 .593.721c.085.1.156.213.242.3a7.111 7.111 0 0 1 .474.668 3.9 3.9 0 0 0 .251.37c.19.251.356.512.512.759l.156.265c.275.408.5.815.725 1.19l.332.574c.2.346.356.64.474.877l.209.365c.156.284.251.441.251.441l.175.27a1.835 1.835 0 0 0 .782.683 1.9 1.9 0 0 0 2.56-.9 5.058 5.058 0 0 0 .223-.522 3.689 3.689 0 0 1 .123-.365 9.657 9.657 0 0 0 .441-1.185l.043-.2a15.365 15.365 0 0 0 .389-2.371 16.456 16.456 0 0 0-.066-3.489 14.222 14.222 0 0 0-.356-2.005c-.062-.27-.123-.522-.2-.773l-.081-.322s-.085-.275-.166-.588l-.128.166-.123.137-.939 1.134-1.944 1.84 1.555-2.14zm-3.574-13.585c-.2.73-.346 1.47-.593 2.181a18.444 18.444 0 0 1-1.93 4.068 13.749 13.749 0 0 1-1.422 1.8.076.076 0 0 1-.123-.076c.545-1.346 1.071-2.7 1.508-4.077a39.137 39.137 0 0 0 1.1-4.205 34.454 34.454 0 0 0 .621-4.281c.062-.721.09-1.422.09-2.167a18.235 18.235 0 0 0-.09-2.162.076.076 0 0 1 .062-.085.081.081 0 0 1 .076.043 11.051 11.051 0 0 1 1.053 4.438 18.163 18.163 0 0 1-.346 4.528z" transform="translate(-0.817 0.449) translate(0.817 0.814) translate(-3.77 -5.023)"/>
            </g>
        </g>
    </g>
</svg>
