<svg xmlns="http://www.w3.org/2000/svg" width="29.97" height="60" viewBox="0 0 29.97 60"><defs><style>.a{fill:none;}.b{fill:#0a89ba;}.c{fill:#fff;}</style></defs><path class="a" d="M15.22,63.754l1.562,2.326,1.587,1.714L17.086,61.8Z" transform="translate(-8.795 -35.713)"/><path class="b" d="M29.937,40.456c-.549-7.661-8.328-11.6-8.328-11.6a3.284,3.284,0,0,0,2-3.267c-.207-2.748-5.154-3.993-7.522-8.278l.557-1.359s1.688,1.2,2.423,1,.768-1.085,1.085-1.266.823-.317.709-.844l.4-.03a1.085,1.085,0,0,0,.131-.5.734.734,0,0,1,.257-.494s1.228.11,1.266-.232-.321-1.853-.236-2.533a13.47,13.47,0,0,0,1.6-2.887,17.728,17.728,0,0,0-.131-2.355S22.816,1.157,19.139.215A5.424,5.424,0,0,0,17.585.051V0C10.283.815,9.768,6.29,8.4,12.875a12.153,12.153,0,0,1-.734,2.368C5.851,19.029,2.4,20.072,2.533,24.411a4,4,0,0,1-.511.494A7.611,7.611,0,0,0,0,28.472a15.77,15.77,0,0,0,.152,1.954A29.756,29.756,0,0,1,3.3,32.355,34.982,34.982,0,0,0,10.03,36.18a5.839,5.839,0,0,0-.367,3.208c.367,1.52.122,1.562.122,1.562s-.7,1.347-.519,1.925l-.03.519-.49.553a39.006,39.006,0,0,0-1.57,6.788c-.211,2.613.781,5.091,3.9,6.792l.532.924A3.081,3.081,0,0,0,14.285,60h2.672a6.261,6.261,0,0,0,6-8.151c-.03-.08-.059-.165-.089-.241l1.266-.92A10.115,10.115,0,0,0,29.937,40.456ZM7.986,30.367,6.425,28.041,8.29,26.087l1.287,5.994Z"/><path class="c" d="M41.639,92.478A4.871,4.871,0,0,1,37.3,89.827l-.118-.228a18.35,18.35,0,0,1-1.591-8.1c.08-3.005.9-5.441,2.246-6.682a2.7,2.7,0,0,1,1.9-.675c3.331,0,8.02,4.078,8.767,7.657.8,3.732-.587,7.176-3.892,9.679a4.859,4.859,0,0,1-2.955,1Z" transform="translate(-20.559 -42.841)"/><path class="b" d="M40.32,92.116a4.544,4.544,0,0,0,1.41,2.634h.03a3.251,3.251,0,0,0,4.58-4.386,2.634,2.634,0,0,0-.532-.477,1.8,1.8,0,0,0-.895-.211l-.6-.929a.764.764,0,0,0-.473.287,1.355,1.355,0,0,0-1.579-.135h0l-.084.055h0l-.1.072h0l-.089.08h-.025l-.072.068h0a6.188,6.188,0,0,0,.038-1.309c.038-.2.072-.422.1-.6a.882.882,0,0,0,.317-.283l.287.165h0l.642.367s.186.566.257.54.139-.093.106-.249c0,0,.384.241.549.139s.384-.523-.422-.844c0,0-.177-.165-.422-.371h0l-.122,0h0l-.063-.051h0l-.072-.055h0l-.152-.118h0l-.063-.046h0l-.055-.038H42.8l-.03-.021c.519-1.013,1.064-2.254,2.17-.929,1.642,1.976,2.98,2.955,3.934.464l-.469-.756c-.8,3.4-2.465.35-3.487-.481s-1.739-.3-2.533,1.207c-.038.072-.072.139-.106.2h-.051l-.089-.084h-.021l-.072-.025h-.025l-.034.025h0l-.034.03h0l-.042.034h0l-.051.042h0l-.055.046h0l-.059.046h0l-.063.055h0c-.042-.106-.084-.211-.131-.308h.059l.1-.034h.03l.114-.046h.017l.068-.038h.025l.08-.059h0a.392.392,0,0,0,.059-.059h0a.35.35,0,0,0,.034-.051h0a.6.6,0,0,0,.034-.076h0v-.2a.241.241,0,0,0,0-.055v-.093a.055.055,0,0,1,0-.025,1.4,1.4,0,0,0-.051-.177V85.02l.017-.144v-.025a.422.422,0,0,1-.03-.063.068.068,0,0,0,0-.03s-.025-.046-.038-.072h0q-.052-.094-.114-.182h0l-.051-.072h0l-.051-.068v-.021l-.139-.127h0l-.148-.165h0l-.059-.063h0a.81.81,0,0,0,.633-.878c-.114-.283-.908-.262-1.452-.228s-.557.629-.557.629l.557,1.1s-1.832-.844-3.069.245a1.621,1.621,0,0,0-.122.114C35,86.822,37.108,90.731,40.32,92.116Z" transform="translate(-21.034 -47.886)"/></svg>