<svg xmlns="http://www.w3.org/2000/svg" width="26.764" height="32.646" viewBox="0 0 26.764 32.646"><defs><style>.a{fill:none;stroke:#333;stroke-miterlimit:10;stroke-width:2px;}.a,.b{opacity:0.8;}</style></defs><g transform="translate(-52.378 1.189)"><path class="a" d="M28.809,26.369a8.967,8.967,0,0,0,.942-4.177V7.562C23.388,9.809,17.371,5.94,17.371,5.94S11.354,9.809,4.991,7.562V22.192a8.957,8.957,0,0,0,.941,4.177c1.335,2.653,4.428,6.9,11.291,9.948a22.84,22.84,0,0,0,5.091-2.688A20.025,20.025,0,0,0,28.809,26.369Z" transform="translate(48.389 -5.94)"/><path class="b" d="M47.415,61.32a.641.641,0,0,1-.634-.634V58.764a.641.641,0,0,0-.634-.634H44.22a.641.641,0,0,0-.634.634v1.917a.641.641,0,0,1-.634.634H41.024a.641.641,0,0,0-.634.634v1.917a.641.641,0,0,0,.634.634h1.917a.641.641,0,0,1,.634.634v1.917a.641.641,0,0,0,.634.64h1.929a.641.641,0,0,0,.634-.64v-1.9a.641.641,0,0,1,.634-.634h1.934a.641.641,0,0,0,.634-.634V61.96a.641.641,0,0,0-.634-.634Z" transform="translate(20.55 -47.728)"/></g></svg>