<svg xmlns="http://www.w3.org/2000/svg" width="63" height="63" viewBox="0 0 63 63">
    <defs>
        <clipPath id="ne6iwl98ta">
            <path fill="#fff" stroke="#ffbe58" d="M0 0H63V63H0z" transform="translate(58.14 38.14)"/>
        </clipPath>
    </defs>
    <g clip-path="url(#ne6iwl98ta)" transform="translate(-58.14 -38.14)">
        <g fill="#ffbe58">
            <path d="M33.991 11.6a9.254 9.254 0 1 0 9.254 9.25 9.254 9.254 0 0 0-9.254-9.25zm0 13.115a3.866 3.866 0 1 1 3.866-3.866 3.866 3.866 0 0 1-3.866 3.866zm0-13.115a9.254 9.254 0 1 0 9.254 9.25 9.254 9.254 0 0 0-9.254-9.25zm0 13.115a3.866 3.866 0 1 1 3.866-3.866 3.866 3.866 0 0 1-3.866 3.866zm0-13.115a9.254 9.254 0 1 0 9.254 9.25 9.254 9.254 0 0 0-9.254-9.25zm0 13.115a3.866 3.866 0 1 1 3.866-3.866 3.866 3.866 0 0 1-3.866 3.866zm0-13.115a9.254 9.254 0 1 0 9.254 9.25 9.254 9.254 0 0 0-9.254-9.25zm0 13.115a3.866 3.866 0 1 1 3.866-3.866 3.866 3.866 0 0 1-3.866 3.866zm0-13.115a9.254 9.254 0 1 0 9.254 9.25 9.254 9.254 0 0 0-9.254-9.25zm0 13.115a3.866 3.866 0 1 1 3.866-3.866 3.866 3.866 0 0 1-3.866 3.866zm0-13.115a9.254 9.254 0 1 0 9.254 9.25 9.254 9.254 0 0 0-9.254-9.25zm0 13.115a3.866 3.866 0 1 1 3.866-3.866 3.866 3.866 0 0 1-3.866 3.866zm0-13.115a9.254 9.254 0 1 0 9.254 9.25 9.254 9.254 0 0 0-9.254-9.25zm0 13.115a3.866 3.866 0 1 1 3.866-3.866 3.866 3.866 0 0 1-3.866 3.866zm0-13.115a9.254 9.254 0 1 0 9.254 9.25 9.254 9.254 0 0 0-9.254-9.25zm0 13.115a3.866 3.866 0 1 1 3.866-3.866 3.866 3.866 0 0 1-3.866 3.866zm0-13.115a9.254 9.254 0 1 0 9.254 9.25 9.254 9.254 0 0 0-9.254-9.25zm0 13.115a3.866 3.866 0 1 1 3.866-3.866 3.866 3.866 0 0 1-3.866 3.866zm0-13.115a9.254 9.254 0 1 0 9.254 9.25 9.254 9.254 0 0 0-9.254-9.25zm0 13.115a3.866 3.866 0 1 1 3.866-3.866 3.866 3.866 0 0 1-3.866 3.866zm0-13.115a9.254 9.254 0 1 0 9.254 9.25 9.254 9.254 0 0 0-9.254-9.25zm0 13.115a3.866 3.866 0 1 1 3.866-3.866 3.866 3.866 0 0 1-3.866 3.866zm0-13.115a9.254 9.254 0 1 0 9.254 9.25 9.254 9.254 0 0 0-9.254-9.25zm0 13.115a3.866 3.866 0 1 1 3.866-3.866 3.866 3.866 0 0 1-3.866 3.866zm0-13.115a9.254 9.254 0 1 0 9.254 9.25 9.254 9.254 0 0 0-9.254-9.25zm0 13.115a3.866 3.866 0 1 1 3.866-3.866 3.866 3.866 0 0 1-3.866 3.866zm0-13.115a9.254 9.254 0 1 0 9.254 9.25 9.254 9.254 0 0 0-9.254-9.25zm0 13.115a3.866 3.866 0 1 1 3.866-3.866 3.866 3.866 0 0 1-3.866 3.866zm0-13.115a9.254 9.254 0 1 0 9.254 9.25 9.254 9.254 0 0 0-9.254-9.25zm0 13.115a3.866 3.866 0 1 1 3.866-3.866 3.866 3.866 0 0 1-3.866 3.866zm0-13.115a9.254 9.254 0 1 0 9.254 9.25 9.254 9.254 0 0 0-9.254-9.25zm0 13.115a3.866 3.866 0 1 1 3.866-3.866 3.866 3.866 0 0 1-3.866 3.866zm0-13.115a9.254 9.254 0 1 0 9.254 9.25 9.254 9.254 0 0 0-9.254-9.25zm0 13.115a3.866 3.866 0 1 1 3.866-3.866 3.866 3.866 0 0 1-3.866 3.866zm0-13.115a9.254 9.254 0 1 0 9.254 9.25 9.254 9.254 0 0 0-9.254-9.25zm0 13.115a3.866 3.866 0 1 1 3.866-3.866 3.866 3.866 0 0 1-3.866 3.866zm0-13.115a9.254 9.254 0 1 0 9.254 9.25 9.254 9.254 0 0 0-9.254-9.25zm0 13.115a3.866 3.866 0 1 1 3.866-3.866 3.866 3.866 0 0 1-3.866 3.866zm0-13.115a9.254 9.254 0 1 0 9.254 9.25 9.254 9.254 0 0 0-9.254-9.25zm0 13.115a3.866 3.866 0 1 1 3.866-3.866 3.866 3.866 0 0 1-3.866 3.866zm0-13.115a9.254 9.254 0 1 0 9.254 9.25 9.254 9.254 0 0 0-9.254-9.25zm0 13.115a3.866 3.866 0 1 1 3.866-3.866 3.866 3.866 0 0 1-3.866 3.866zm0-13.115a9.254 9.254 0 1 0 9.254 9.25 9.254 9.254 0 0 0-9.254-9.25zm0 13.115a3.866 3.866 0 1 1 3.866-3.866 3.866 3.866 0 0 1-3.866 3.866zm0-13.115a9.254 9.254 0 1 0 9.254 9.25 9.254 9.254 0 0 0-9.254-9.25zm0 13.115a3.866 3.866 0 1 1 3.866-3.866 3.866 3.866 0 0 1-3.866 3.866zm0-13.115a9.254 9.254 0 1 0 9.254 9.25 9.254 9.254 0 0 0-9.254-9.25zm0 13.115a3.866 3.866 0 1 1 3.866-3.866 3.866 3.866 0 0 1-3.866 3.866zm0-13.115a9.254 9.254 0 1 0 9.254 9.25 9.254 9.254 0 0 0-9.254-9.25zm0 13.115a3.866 3.866 0 1 1 3.866-3.866 3.866 3.866 0 0 1-3.866 3.866zm0-13.115a9.254 9.254 0 1 0 9.254 9.25 9.254 9.254 0 0 0-9.254-9.25zm0 13.115a3.866 3.866 0 1 1 3.866-3.866 3.866 3.866 0 0 1-3.866 3.866zm0-13.115a9.254 9.254 0 1 0 9.254 9.25 9.254 9.254 0 0 0-9.254-9.25zm0 13.115a3.866 3.866 0 1 1 3.866-3.866 3.866 3.866 0 0 1-3.866 3.866zm0-13.115a9.254 9.254 0 1 0 9.254 9.25 9.254 9.254 0 0 0-9.254-9.25zm0 13.115a3.866 3.866 0 1 1 3.866-3.866 3.866 3.866 0 0 1-3.866 3.866zm0-13.115a9.254 9.254 0 1 0 9.254 9.25 9.254 9.254 0 0 0-9.254-9.25zm0 13.115a3.866 3.866 0 1 1 3.866-3.866 3.866 3.866 0 0 1-3.866 3.866zm0-13.115a9.254 9.254 0 1 0 9.254 9.25 9.254 9.254 0 0 0-9.254-9.25zm0 13.115a3.866 3.866 0 1 1 3.866-3.866 3.866 3.866 0 0 1-3.866 3.866zm0-13.115a9.254 9.254 0 1 0 9.254 9.25 9.254 9.254 0 0 0-9.254-9.25zm0 13.115a3.866 3.866 0 1 1 3.866-3.866 3.866 3.866 0 0 1-3.866 3.866zm0-13.115a9.254 9.254 0 1 0 9.254 9.25 9.254 9.254 0 0 0-9.254-9.25zm0 13.115a3.866 3.866 0 1 1 3.866-3.866 3.866 3.866 0 0 1-3.866 3.866zm0-13.115a9.254 9.254 0 1 0 9.254 9.25 9.254 9.254 0 0 0-9.254-9.25zm0 13.115a3.866 3.866 0 1 1 3.866-3.866 3.866 3.866 0 0 1-3.866 3.866zm0-13.115a9.254 9.254 0 1 0 9.254 9.25 9.254 9.254 0 0 0-9.254-9.25zm0 13.115a3.866 3.866 0 1 1 3.866-3.866 3.866 3.866 0 0 1-3.866 3.866zm0-13.115a9.254 9.254 0 1 0 9.254 9.25 9.254 9.254 0 0 0-9.254-9.25zm0 13.115a3.866 3.866 0 1 1 3.866-3.866 3.866 3.866 0 0 1-3.866 3.866zm0-13.115a9.254 9.254 0 1 0 9.254 9.25 9.254 9.254 0 0 0-9.254-9.25zm0 13.115a3.866 3.866 0 1 1 3.866-3.866 3.866 3.866 0 0 1-3.866 3.866zm0-13.115a9.254 9.254 0 1 0 9.254 9.25 9.254 9.254 0 0 0-9.254-9.25zm0 13.115a3.866 3.866 0 1 1 3.866-3.866 3.866 3.866 0 0 1-3.866 3.866zm0-13.115a9.254 9.254 0 1 0 9.254 9.25 9.254 9.254 0 0 0-9.254-9.25zm0 13.115a3.866 3.866 0 1 1 3.866-3.866 3.866 3.866 0 0 1-3.866 3.866zm0-13.115a9.254 9.254 0 1 0 9.254 9.25 9.254 9.254 0 0 0-9.254-9.25zm0 13.115a3.866 3.866 0 1 1 3.866-3.866 3.866 3.866 0 0 1-3.866 3.866zm0-13.115a9.254 9.254 0 1 0 9.254 9.25 9.254 9.254 0 0 0-9.254-9.25zm0 13.115a3.866 3.866 0 1 1 3.866-3.866 3.866 3.866 0 0 1-3.866 3.866zm0-13.115a9.254 9.254 0 1 0 9.254 9.25 9.254 9.254 0 0 0-9.254-9.25zm0 13.115a3.866 3.866 0 1 1 3.866-3.866 3.866 3.866 0 0 1-3.866 3.866zm0-13.115a9.254 9.254 0 1 0 9.254 9.25 9.254 9.254 0 0 0-9.254-9.25zm0 13.115a3.866 3.866 0 1 1 3.866-3.866 3.866 3.866 0 0 1-3.866 3.866zm0-13.115a9.254 9.254 0 1 0 9.254 9.25 9.254 9.254 0 0 0-9.254-9.25zm0 13.115a3.866 3.866 0 1 1 3.866-3.866 3.866 3.866 0 0 1-3.866 3.866zm0-13.115a9.254 9.254 0 1 0 9.254 9.25 9.254 9.254 0 0 0-9.254-9.25zm0 13.115a3.866 3.866 0 1 1 3.866-3.866 3.866 3.866 0 0 1-3.866 3.866zm0-13.115a9.254 9.254 0 1 0 9.254 9.25 9.254 9.254 0 0 0-9.254-9.25zm0 13.115a3.866 3.866 0 1 1 3.866-3.866 3.866 3.866 0 0 1-3.866 3.866zm0-13.115a9.254 9.254 0 1 0 9.254 9.25 9.254 9.254 0 0 0-9.254-9.25zm0 13.115a3.866 3.866 0 1 1 3.866-3.866 3.866 3.866 0 0 1-3.866 3.866zm-.062-20.3C20.814 4.42 9.107 11.061 4.62 20.851a26.143 26.143 0 0 0 9.748 10.881c1.067-2.338 2.182-4.454 2.419-4.886a.806.806 0 0 1 .721-.436.83.83 0 0 1 .73.436 73.6 73.6 0 0 1 3.937 8.595 37.89 37.89 0 0 0 11.816 1.869h.062c13.12 0 24.822-6.641 29.309-16.436C58.874 11.032 47.082 4.4 33.929 4.42zm.062 28.147a11.716 11.716 0 1 1 11.716-11.711 11.716 11.716 0 0 1-11.716 11.716zm0-20.966a9.254 9.254 0 1 0 9.254 9.25 9.254 9.254 0 0 0-9.254-9.246zm0 13.115a3.866 3.866 0 1 1 3.866-3.866 3.866 3.866 0 0 1-3.866 3.866zm0-13.115a9.254 9.254 0 1 0 9.254 9.25 9.254 9.254 0 0 0-9.254-9.246zm0 13.115a3.866 3.866 0 1 1 3.866-3.866 3.866 3.866 0 0 1-3.866 3.866zm0-13.115a9.254 9.254 0 1 0 9.254 9.25 9.254 9.254 0 0 0-9.254-9.246zm0 13.115a3.866 3.866 0 1 1 3.866-3.866 3.866 3.866 0 0 1-3.866 3.866zm0-13.115a9.254 9.254 0 1 0 9.254 9.25 9.254 9.254 0 0 0-9.254-9.246zm0 13.115a3.866 3.866 0 1 1 3.866-3.866 3.866 3.866 0 0 1-3.866 3.866zm0-13.115a9.254 9.254 0 1 0 9.254 9.25 9.254 9.254 0 0 0-9.254-9.246zm0 13.115a3.866 3.866 0 1 1 3.866-3.866 3.866 3.866 0 0 1-3.866 3.866zm0-13.115a9.254 9.254 0 1 0 9.254 9.25 9.254 9.254 0 0 0-9.254-9.246zm0 13.115a3.866 3.866 0 1 1 3.866-3.866 3.866 3.866 0 0 1-3.866 3.866zm0-13.115a9.254 9.254 0 1 0 9.254 9.25 9.254 9.254 0 0 0-9.254-9.246zm0 13.115a3.866 3.866 0 1 1 3.866-3.866 3.866 3.866 0 0 1-3.866 3.866zm0-13.115a9.254 9.254 0 1 0 9.254 9.25 9.254 9.254 0 0 0-9.254-9.246zm0 13.115a3.866 3.866 0 1 1 3.866-3.866 3.866 3.866 0 0 1-3.866 3.866zm0-13.115a9.254 9.254 0 1 0 9.254 9.25 9.254 9.254 0 0 0-9.254-9.246zm0 13.115a3.866 3.866 0 1 1 3.866-3.866 3.866 3.866 0 0 1-3.866 3.866zm0-13.115a9.254 9.254 0 1 0 9.254 9.25 9.254 9.254 0 0 0-9.254-9.246zm0 13.115a3.866 3.866 0 1 1 3.866-3.866 3.866 3.866 0 0 1-3.866 3.866zm0-13.115a9.254 9.254 0 1 0 9.254 9.25 9.254 9.254 0 0 0-9.254-9.246zm0 13.115a3.866 3.866 0 1 1 3.866-3.866 3.866 3.866 0 0 1-3.866 3.866zm0-13.115a9.254 9.254 0 1 0 9.254 9.25 9.254 9.254 0 0 0-9.254-9.246zm0 13.115a3.866 3.866 0 1 1 3.866-3.866 3.866 3.866 0 0 1-3.866 3.866zm0-13.115a9.254 9.254 0 1 0 9.254 9.25 9.254 9.254 0 0 0-9.254-9.246zm0 13.115a3.866 3.866 0 1 1 3.866-3.866 3.866 3.866 0 0 1-3.866 3.866zm0-13.115a9.254 9.254 0 1 0 9.254 9.25 9.254 9.254 0 0 0-9.254-9.246zm0 13.115a3.866 3.866 0 1 1 3.866-3.866 3.866 3.866 0 0 1-3.866 3.866zm0-13.115a9.254 9.254 0 0 0-9.254 9.256c0 5.11 18.511 5.105 18.509-.006a9.259 9.259 0 0 0-9.255-9.246zm0 13.115a3.866 3.866 0 1 1 3.866-3.866 3.866 3.866 0 0 1-3.866 3.866zm0-13.115a9.254 9.254 0 1 0 9.254 9.25 9.254 9.254 0 0 0-9.254-9.246zm0 13.115a3.866 3.866 0 1 1 3.866-3.866 3.866 3.866 0 0 1-3.866 3.866zm0-13.115a9.254 9.254 0 1 0 9.254 9.25 9.254 9.254 0 0 0-9.254-9.246zm0 13.115a3.866 3.866 0 1 1 3.866-3.866 3.866 3.866 0 0 1-3.866 3.866zm0-13.115a9.254 9.254 0 1 0 9.254 9.25 9.254 9.254 0 0 0-9.254-9.246zm0 13.115a3.866 3.866 0 1 1 3.866-3.866 3.866 3.866 0 0 1-3.866 3.866zm0-13.115a9.254 9.254 0 1 0 9.254 9.25 9.254 9.254 0 0 0-9.254-9.246zm0 13.115a3.866 3.866 0 1 1 3.866-3.866 3.866 3.866 0 0 1-3.866 3.866zm0-13.115a9.254 9.254 0 1 0 9.254 9.25 9.254 9.254 0 0 0-9.254-9.246zm0 13.115a3.866 3.866 0 1 1 3.866-3.866 3.866 3.866 0 0 1-3.866 3.866zm0-13.115a9.254 9.254 0 1 0 9.254 9.25 9.254 9.254 0 0 0-9.254-9.246zm0 13.115a3.866 3.866 0 1 1 3.866-3.866 3.866 3.866 0 0 1-3.866 3.866zm0-13.115a9.254 9.254 0 1 0 9.254 9.25 9.254 9.254 0 0 0-9.254-9.246zm0 13.115a3.866 3.866 0 1 1 3.866-3.866 3.866 3.866 0 0 1-3.866 3.866zm0-13.115a9.254 9.254 0 1 0 9.254 9.25 9.254 9.254 0 0 0-9.254-9.246zm0 13.115a3.866 3.866 0 1 1 3.866-3.866 3.866 3.866 0 0 1-3.866 3.866zm0-13.115a9.254 9.254 0 1 0 9.254 9.25 9.254 9.254 0 0 0-9.254-9.246zm0 13.115a3.866 3.866 0 1 1 3.866-3.866 3.866 3.866 0 0 1-3.866 3.866zm0-13.115a9.254 9.254 0 1 0 9.254 9.25 9.254 9.254 0 0 0-9.254-9.246zm0 13.115a3.866 3.866 0 1 1 3.866-3.866 3.866 3.866 0 0 1-3.866 3.866zm0-13.115a9.254 9.254 0 1 0 9.254 9.25 9.254 9.254 0 0 0-9.254-9.246zm0 13.115a3.866 3.866 0 1 1 3.866-3.866 3.866 3.866 0 0 1-3.866 3.866zm0-13.115a9.254 9.254 0 1 0 9.254 9.25 9.254 9.254 0 0 0-9.254-9.246zm0 13.115a3.866 3.866 0 1 1 3.866-3.866 3.866 3.866 0 0 1-3.866 3.866zm0-13.115a9.254 9.254 0 1 0 9.254 9.25 9.254 9.254 0 0 0-9.254-9.246zm0 13.115a3.866 3.866 0 1 1 3.866-3.866 3.866 3.866 0 0 1-3.866 3.866zm0-13.115a9.254 9.254 0 1 0 9.254 9.25 9.254 9.254 0 0 0-9.254-9.246zm0 13.115a3.866 3.866 0 1 1 3.866-3.866 3.866 3.866 0 0 1-3.866 3.866zm0-13.115a9.254 9.254 0 1 0 9.254 9.25 9.254 9.254 0 0 0-9.254-9.246zm0 13.115a3.866 3.866 0 1 1 3.866-3.866 3.866 3.866 0 0 1-3.866 3.866zm0-13.115a9.254 9.254 0 1 0 9.254 9.25 9.254 9.254 0 0 0-9.254-9.246zm0 13.115a3.866 3.866 0 1 1 3.866-3.866 3.866 3.866 0 0 1-3.866 3.866zm0-13.115a9.254 9.254 0 1 0 9.254 9.25 9.254 9.254 0 0 0-9.254-9.246zm0 13.115a3.866 3.866 0 1 1 3.866-3.866 3.866 3.866 0 0 1-3.866 3.866zm0-13.115a9.254 9.254 0 1 0 9.254 9.25 9.254 9.254 0 0 0-9.254-9.246zm0 13.115a3.866 3.866 0 1 1 3.866-3.866 3.866 3.866 0 0 1-3.866 3.866zm0-13.115a9.254 9.254 0 1 0 9.254 9.25 9.254 9.254 0 0 0-9.254-9.246zm0 13.115a3.866 3.866 0 1 1 3.866-3.866 3.866 3.866 0 0 1-3.866 3.866zm0-13.115a9.254 9.254 0 1 0 9.254 9.25 9.254 9.254 0 0 0-9.254-9.246zm0 13.115a3.866 3.866 0 1 1 3.866-3.866 3.866 3.866 0 0 1-3.866 3.866zm0-13.115a9.254 9.254 0 1 0 9.254 9.25 9.254 9.254 0 0 0-9.254-9.246zm0 13.115a3.866 3.866 0 1 1 3.866-3.866 3.866 3.866 0 0 1-3.866 3.866zm0-13.115a9.254 9.254 0 1 0 9.254 9.25 9.254 9.254 0 0 0-9.254-9.246zm0 13.115a3.866 3.866 0 1 1 3.866-3.866 3.866 3.866 0 0 1-3.866 3.866zm0-13.115a9.254 9.254 0 1 0 9.254 9.25 9.254 9.254 0 0 0-9.254-9.246zm0 13.115a3.866 3.866 0 1 1 3.866-3.866 3.866 3.866 0 0 1-3.866 3.866zm0-13.115a9.254 9.254 0 1 0 9.254 9.25 9.254 9.254 0 0 0-9.254-9.246zm0 13.115a3.866 3.866 0 1 1 3.866-3.866 3.866 3.866 0 0 1-3.866 3.866zm0-13.115a9.254 9.254 0 1 0 9.254 9.25 9.254 9.254 0 0 0-9.254-9.246zm0 13.115a3.866 3.866 0 1 1 3.866-3.866 3.866 3.866 0 0 1-3.866 3.866zm0-13.115a9.254 9.254 0 1 0 9.254 9.25 9.254 9.254 0 0 0-9.254-9.246zm0 13.115a3.866 3.866 0 1 1 3.866-3.866 3.866 3.866 0 0 1-3.866 3.866zm0-13.115a9.254 9.254 0 1 0 9.254 9.25 9.254 9.254 0 0 0-9.254-9.246zm0 13.115a3.866 3.866 0 1 1 3.866-3.866 3.866 3.866 0 0 1-3.866 3.866zm0-13.115a9.254 9.254 0 1 0 9.254 9.25 9.254 9.254 0 0 0-9.254-9.246zm0 13.115a3.866 3.866 0 1 1 3.866-3.866 3.866 3.866 0 0 1-3.866 3.866zm0-13.115a9.254 9.254 0 1 0 9.254 9.25 9.254 9.254 0 0 0-9.254-9.246zm0 13.115a3.866 3.866 0 1 1 3.866-3.866 3.866 3.866 0 0 1-3.866 3.866zm0-13.115a9.254 9.254 0 1 0 9.254 9.25 9.254 9.254 0 0 0-9.254-9.246zm0 13.115a3.866 3.866 0 1 1 3.866-3.866 3.866 3.866 0 0 1-3.866 3.866zm0-13.115a9.254 9.254 0 1 0 9.254 9.25 9.254 9.254 0 0 0-9.254-9.246zm0 13.115a3.866 3.866 0 1 1 3.866-3.866 3.866 3.866 0 0 1-3.866 3.866zm0-13.115a9.254 9.254 0 1 0 9.254 9.25 9.254 9.254 0 0 0-9.254-9.246zm0 13.115a3.866 3.866 0 1 1 3.866-3.866 3.866 3.866 0 0 1-3.866 3.866z" transform="translate(59.65 51.661) translate(-4.62 -4.42)"/>
            <path d="M31.4 65.218a3.619 3.619 0 1 1-7.238 0c0-.949.849-3.116 1.9-5.417.555-1.224 1.167-2.481 1.727-3.591.9 1.769 1.9 3.9 2.633 5.692a11.629 11.629 0 0 1 .978 3.316z" opacity="0.6" transform="translate(59.65 51.661) translate(-14.892 -31.644)"/>
        </g>
    </g>
</svg>
