<svg xmlns="http://www.w3.org/2000/svg" xmlns:xlink="http://www.w3.org/1999/xlink" width="78.693" height="62.279" viewBox="0 0 78.693 62.279"><defs><style>.a{opacity:0.15;}.b{fill:url(#a);}</style><linearGradient id="a" x1="-1.005" y1="0.082" x2="0.743" y2="0.883" gradientUnits="objectBoundingBox"><stop offset="0" stop-color="#481ca9"/><stop offset="1" stop-color="#8721a3"/></linearGradient></defs><g transform="translate(0 0)"><g class="a"><path class="b" d="M18.053,0A18.028,18.028,0,1,0,32.777,28.4,31.162,31.162,0,0,1,1.663,59a1.639,1.639,0,1,0,0,3.278A34.457,34.457,0,0,0,36.081,27.862V18.028A18.048,18.048,0,0,0,18.053,0Z" transform="translate(36.081 62.279) rotate(180)"/><path class="b" d="M18.053,0A18.028,18.028,0,1,0,32.777,28.4,31.163,31.163,0,0,1,1.664,59a1.639,1.639,0,0,0,0,3.278A34.457,34.457,0,0,0,36.081,27.862V18.028A18.048,18.048,0,0,0,18.053,0Z" transform="translate(78.693 62.279) rotate(180)"/></g></g></svg>