<svg xmlns="http://www.w3.org/2000/svg" width="62" height="22" viewBox="0 0 62 22">
  <g id="Group_26086" data-name="Group 26086" transform="translate(-8395.102 -8142.295)">
    <g id="Group_26085" data-name="Group 26085" transform="translate(8394.644 8142.481)">
      <rect id="Rectangle_467" data-name="Rectangle 467" width="62" height="22" rx="4" transform="translate(0.458 -0.186)" fill="#1bce46"/>
      <text id="Safe" transform="translate(28.458 13.813)" fill="#fff" font-size="9" font-family="Poppins-Medium, Poppins" font-weight="500"><tspan x="0" y="0">Safe</tspan></text>
    </g>
    <g id="surface1" transform="translate(8405.601 8145.295)">
      <path id="Path_11463" data-name="Path 11463" d="M12.657,4.037V4.025c-.006-.143-.011-.294-.013-.462a1.577,1.577,0,0,0-1.485-1.545A6.12,6.12,0,0,1,6.993.262L6.984.253a.952.952,0,0,0-1.294,0L5.68.262A6.121,6.121,0,0,1,1.514,2.018,1.577,1.577,0,0,0,.029,3.563c0,.167-.007.318-.013.462v.027A16.128,16.128,0,0,0,.667,9.939a7.494,7.494,0,0,0,1.8,2.8A9.4,9.4,0,0,0,5.983,14.82a1.089,1.089,0,0,0,.144.039,1.065,1.065,0,0,0,.419,0,1.093,1.093,0,0,0,.145-.039A9.411,9.411,0,0,0,10.2,12.738a7.5,7.5,0,0,0,1.8-2.8A16.152,16.152,0,0,0,12.657,4.037Zm-1.474,5.6A7.22,7.22,0,0,1,6.4,14L6.375,14A.2.2,0,0,1,6.3,14L6.27,14A7.212,7.212,0,0,1,1.486,9.637a15.216,15.216,0,0,1-.6-5.568v-.01C.9,3.908.9,3.75.9,3.576a.7.7,0,0,1,.661-.686,7.661,7.661,0,0,0,2.6-.572A6.8,6.8,0,0,0,6.282.894a.081.081,0,0,1,.108,0A6.806,6.806,0,0,0,8.51,2.318a7.662,7.662,0,0,0,2.6.572.7.7,0,0,1,.661.686c0,.175.007.333.014.483A15.223,15.223,0,0,1,11.183,9.635Zm0,0" transform="translate(0 0.001)" fill="#fff"/>
      <path id="Path_11464" data-name="Path 11464" d="M94.107,128.41a3.709,3.709,0,1,0,3.709,3.709A3.713,3.713,0,0,0,94.107,128.41Zm0,6.544a2.835,2.835,0,1,1,2.835-2.835A2.839,2.839,0,0,1,94.107,134.954Zm0,0" transform="translate(-87.771 -124.678)" fill="#fff"/>
      <path id="Path_11465" data-name="Path 11465" d="M156.608,212.119l-1.723,1.722-.468-.468a.437.437,0,0,0-.618.617l.776.776a.437.437,0,0,0,.617,0l2.031-2.031a.437.437,0,1,0-.618-.617Zm0,0" transform="translate(-149.206 -205.83)" fill="#fff"/>
    </g>
  </g>
</svg>
