<svg xmlns="http://www.w3.org/2000/svg" width="24.288" height="28.027" viewBox="0 0 24.288 28.027"><defs><style>.a,.c{fill:#fafbfc;}.b{fill:none;stroke:#fafbfc;stroke-miterlimit:10;stroke-width:1.74px;}.c{stroke:#fafcfc;}</style></defs><g transform="translate(1.068)"><circle class="a" cx="4.27" cy="4.27" r="4.27" transform="translate(1.347 0)"/><circle class="b" cx="3.4" cy="3.4" r="3.4" transform="translate(2.216 0.87)"/><path class="c" d="M32.09,128.28h0a8.09,8.09,0,0,0-4.68-1.49,8.9,8.9,0,0,0-5.58,2.42,9.89,9.89,0,0,0-1.91,2.22,5.65,5.65,0,0,1-1.77,1.87,7,7,0,0,1-2.78,1,.61.61,0,0,0-.5.65h0a.61.61,0,0,0,.67.54h0a8.24,8.24,0,0,0,3.24-1.22,7.07,7.07,0,0,0,2.11-2.21,8.87,8.87,0,0,1,1.69-2l.11-.09v.07a9.11,9.11,0,0,1,1.65,2.16,5,5,0,0,1,.62,3,4.85,4.85,0,0,1-1.92,3.09,4.12,4.12,0,0,1-1.4.75,7.34,7.34,0,0,0-1.48.68,8.36,8.36,0,0,0-2.87,3.15.6.6,0,0,0,.23.82h0a.59.59,0,0,0,.79-.26,7.08,7.08,0,0,1,2.45-2.7,5.832,5.832,0,0,1,1.24-.58,5.12,5.12,0,0,0,1.75-.94,6,6,0,0,0,2.36-3.85,6.12,6.12,0,0,0-.72-3.68,10.12,10.12,0,0,0-1.85-2.46A7.71,7.71,0,0,1,27.41,128a6.79,6.79,0,0,1,4,1.27.61.61,0,0,0,.82-.12.59.59,0,0,0-.14-.87Z" transform="translate(-14.054 -119.43)"/><path class="c" d="M31.39,140.86a5.79,5.79,0,0,0,3.13-1,.6.6,0,0,0,.18-.83v-.05h0a.59.59,0,0,0-.79-.12,4.64,4.64,0,0,1-2.64.75,4.84,4.84,0,0,1-3.61-2.07.6.6,0,0,0-.77-.16h0a.61.61,0,0,0-.23.82.43.43,0,0,1,0,.07,6.08,6.08,0,0,0,4.53,2.54Z" transform="translate(-14.054 -118.43)"/><path class="c" d="M16.79,145.15h0a.59.59,0,0,0-.3-.71A2.1,2.1,0,0,1,15.24,143a1.62,1.62,0,0,1,0-.44.62.62,0,0,0-.38-.64h0a.62.62,0,0,0-.78.36.74.74,0,0,0,0,.14,2.91,2.91,0,0,0,0,.78A3.3,3.3,0,0,0,16,145.53a.6.6,0,0,0,.79-.31A.14.14,0,0,0,16.79,145.15Z" transform="translate(-14.622 -119.43)"/><path class="c" d="M34.85,143.58a.61.61,0,0,0,.82.26l.12-.09a3.53,3.53,0,0,0,.51-.58,3.32,3.32,0,0,0,.17-3,.6.6,0,0,0-.78-.32H35.6a.59.59,0,0,0-.25.73,2.12,2.12,0,0,1-.06,1.93,1.38,1.38,0,0,1-.3.34.62.62,0,0,0-.14.73Z" transform="translate(-14.054 -116.43)"/></g></svg>