<svg xmlns="http://www.w3.org/2000/svg" xmlns:xlink="http://www.w3.org/1999/xlink" width="70" height="70" viewBox="0 0 70 70"><defs><style>.a,.b{fill:#fec56c;}.a{opacity:0.4;}.c{fill:#fafafa;}.d{filter:url(#e);}.e{filter:url(#c);}.f{filter:url(#a);}</style><filter id="a" x="0" y="0" width="70" height="70" filterUnits="userSpaceOnUse"><feOffset dy="3" input="SourceAlpha"/><feGaussianBlur stdDeviation="3" result="b"/><feFlood flood-opacity="0.102"/><feComposite operator="in" in2="b"/><feComposite in="SourceGraphic"/></filter><filter id="c" x="2" y="1" width="67" height="68" filterUnits="userSpaceOnUse"><feOffset dy="3" input="SourceAlpha"/><feGaussianBlur stdDeviation="3" result="d"/><feFlood flood-opacity="0.102"/><feComposite operator="in" in2="d"/><feComposite in="SourceGraphic"/></filter><filter id="e" x="3" y="3" width="65" height="65" filterUnits="userSpaceOnUse"><feOffset dy="3" input="SourceAlpha"/><feGaussianBlur stdDeviation="3" result="f"/><feFlood flood-opacity="0.102"/><feComposite operator="in" in2="f"/><feComposite in="SourceGraphic"/></filter></defs><g transform="translate(9.168 6)"><g class="f" transform="matrix(1, 0, 0, 1, -9.17, -6)"><rect class="a" width="52" height="52" rx="5" transform="translate(9 6)"/></g><g class="e" transform="matrix(1, 0, 0, 1, -9.17, -6)"><rect class="b" width="49" height="50" rx="5" transform="translate(11 7)"/></g><g class="d" transform="matrix(1, 0, 0, 1, -9.17, -6)"><rect class="b" width="47" height="47" rx="5" transform="translate(12 9)"/></g><path class="c" d="M28.6,14.929a1.14,1.14,0,0,0-.337-.822,1.093,1.093,0,0,0-1.6,0,1.17,1.17,0,0,0,0,1.644,1.093,1.093,0,0,0,1.6,0,1.14,1.14,0,0,0,.337-.822Zm2.273,0a3.436,3.436,0,0,1-.63,2.028A3.475,3.475,0,0,1,28.6,18.235v7.216a6.379,6.379,0,0,1-2.335,4.96,8.214,8.214,0,0,1-5.62,2.055,8.214,8.214,0,0,1-5.62-2.055,6.379,6.379,0,0,1-2.335-4.96V23.04A8.046,8.046,0,0,1,7.823,20.7a6.34,6.34,0,0,1-1.953-4.6V6.745a1.14,1.14,0,0,1,.337-.822,1.077,1.077,0,0,1,.8-.347,1.486,1.486,0,0,1,.284.037,2.341,2.341,0,0,1,.835-.877,2.212,2.212,0,0,1,2.761.356,2.286,2.286,0,0,1,.666,1.653A2.285,2.285,0,0,1,10.885,8.4a2.159,2.159,0,0,1-1.607.685,2.187,2.187,0,0,1-1.136-.329V16.1A4.145,4.145,0,0,0,9.811,19.4a6.122,6.122,0,0,0,4.013,1.37,6.122,6.122,0,0,0,4.013-1.37A4.145,4.145,0,0,0,19.506,16.1V8.755a2.188,2.188,0,0,1-1.136.329A2.159,2.159,0,0,1,16.763,8.4,2.286,2.286,0,0,1,16.1,6.745a2.286,2.286,0,0,1,.666-1.653,2.212,2.212,0,0,1,2.761-.356,2.341,2.341,0,0,1,.835.877,1.487,1.487,0,0,1,.284-.037,1.077,1.077,0,0,1,.8.347,1.14,1.14,0,0,1,.337.822V16.1a6.34,6.34,0,0,1-1.953,4.6A8.046,8.046,0,0,1,14.96,23.04v2.411a4.145,4.145,0,0,0,1.669,3.306,6.122,6.122,0,0,0,4.013,1.37,6.122,6.122,0,0,0,4.013-1.37,4.145,4.145,0,0,0,1.669-3.306V18.235a3.475,3.475,0,0,1-1.642-1.279,3.59,3.59,0,0,1,.364-4.512,3.362,3.362,0,0,1,4.83,0,3.432,3.432,0,0,1,.994,2.484Z" transform="translate(8.131 7.564)"/></g></svg>