<svg xmlns="http://www.w3.org/2000/svg" width="29.022" height="28.678" viewBox="0 0 29.022 28.678"><defs><style>.a,.b{fill:#fafbfc;}.a{stroke:#fafcfc;}</style></defs><g transform="translate(1.504 1.003)"><path class="a" d="M165.348,135.18a.348.348,0,1,0,.348.348A.348.348,0,0,0,165.348,135.18Z" transform="translate(-142.562 -119.572)"/><path class="a" d="M163.131,135.181a.348.348,0,1,0,.356.149.348.348,0,0,0-.356-.149Z" transform="translate(-146.153 -119.574)"/><path class="a" d="M164.251,135.181a.348.348,0,1,0,.283.342A.348.348,0,0,0,164.251,135.181Z" transform="translate(-144.465 -119.574)"/><circle class="a" cx="1.904" cy="1.904" r="1.904" transform="translate(7.826 23.366)"/><path class="b" d="M169.065,128.7a7.082,7.082,0,0,1-1.245,3.983l-12.906-2.9a7.912,7.912,0,0,1-.075-1.083v-.1a7.106,7.106,0,0,1,14.2.1Z" transform="translate(-144.047 -122.835)"/><circle class="a" cx="1.904" cy="1.904" r="1.904" transform="translate(21.687 23.366)"/><path class="a" d="M172.553,131.811a.56.56,0,0,1-.548.436h-.124l-3.485-.784-12.9-2.913-2.489-.56a.572.572,0,0,1-.411-.684.548.548,0,0,1,.535-.436h.124l2.2.5,13.565,3.049,3.149.709a.56.56,0,0,1,.423.684Z" transform="translate(-145.598 -120.604)"/><path class="a" d="M150.392,124.8l-2.738-.311c-.436,0-.747-.336-.672-.647h0a.846.846,0,0,1,.933-.473l2.738.324c.436,0,.747.336.672.647h0a.821.821,0,0,1-.933.46Z" transform="translate(-147.971 -121.464)"/><path class="a" d="M152.743,141.187l-3.161-16.814a.572.572,0,0,1,.448-.672h0a.572.572,0,0,1,.647.448l3.161,16.826a.572.572,0,0,1-.448.672h0A.572.572,0,0,1,152.743,141.187Z" transform="translate(-147.335 -121.381)"/><path class="a" d="M152.1,137.922h0a.585.585,0,0,1,.56-.585h0l18.668-.7a.573.573,0,0,1,.61.535h0a.572.572,0,0,1-.572.585h0l-18.668.709a.585.585,0,0,1-.6-.544Z" transform="translate(-146.717 -118.216)"/><path class="a" d="M167.719,139.288h0a.6.6,0,0,1-.5-.684l.647-7.753a.573.573,0,0,1,.6-.56h0a.61.61,0,0,1,.51.672l-.647,7.766a.6.6,0,0,1-.61.56Z" transform="translate(-142.021 -119.768)"/></g></svg>