<svg xmlns="http://www.w3.org/2000/svg" xmlns:xlink="http://www.w3.org/1999/xlink" width="70" height="70" viewBox="0 0 70 70"><defs><style>.a,.b{fill:#00b592;}.a{opacity:0.4;}.c{fill:none;stroke:#fafafa;stroke-linecap:round;stroke-linejoin:round;stroke-width:2px;}.d{filter:url(#e);}.e{filter:url(#c);}.f{filter:url(#a);}</style><filter id="a" x="0" y="0" width="70" height="70" filterUnits="userSpaceOnUse"><feOffset dy="3" input="SourceAlpha"/><feGaussianBlur stdDeviation="3" result="b"/><feFlood flood-opacity="0.102"/><feComposite operator="in" in2="b"/><feComposite in="SourceGraphic"/></filter><filter id="c" x="2" y="1" width="67" height="68" filterUnits="userSpaceOnUse"><feOffset dy="3" input="SourceAlpha"/><feGaussianBlur stdDeviation="3" result="d"/><feFlood flood-opacity="0.102"/><feComposite operator="in" in2="d"/><feComposite in="SourceGraphic"/></filter><filter id="e" x="3" y="3" width="65" height="65" filterUnits="userSpaceOnUse"><feOffset dy="3" input="SourceAlpha"/><feGaussianBlur stdDeviation="3" result="f"/><feFlood flood-opacity="0.102"/><feComposite operator="in" in2="f"/><feComposite in="SourceGraphic"/></filter></defs><g transform="translate(9 6)"><g class="f" transform="matrix(1, 0, 0, 1, -9, -6)"><rect class="a" width="52" height="52" rx="5" transform="translate(9 6)"/></g><g class="e" transform="matrix(1, 0, 0, 1, -9, -6)"><rect class="b" width="49" height="50" rx="5" transform="translate(11 7)"/></g><g class="d" transform="matrix(1, 0, 0, 1, -9, -6)"><rect class="b" width="47" height="47" rx="5" transform="translate(12 9)"/></g><g transform="translate(14 14.75)"><rect class="c" width="25" height="18.5" rx="2"/><line class="c" x2="8" transform="translate(8.5 22.5)"/><line class="c" y2="4" transform="translate(12.5 18.5)"/></g></g></svg>