<svg xmlns="http://www.w3.org/2000/svg" width="41" height="41" viewBox="0 0 41 41"><defs><style>.a{fill:none;opacity:0.2;}.a,.b{stroke:#475677;}.b{fill:#475677;stroke-width:0.1px;}</style></defs><g transform="translate(-258.5 -1.5)"><circle class="a" cx="20" cy="20" r="20" transform="translate(259 2)"/><g transform="translate(269.692 12.692)"><path class="b" d="M15.889,12.034a9.272,9.272,0,0,0-3.537-2.218,5.381,5.381,0,1,0-6.089,0A9.322,9.322,0,0,0,0,18.615H1.454a7.853,7.853,0,0,1,15.707,0h1.454A9.247,9.247,0,0,0,15.889,12.034ZM9.308,9.308a3.927,3.927,0,1,1,3.927-3.927A3.931,3.931,0,0,1,9.308,9.308Z" transform="translate(0 0)"/></g></g></svg>