<svg id="Component_46_2" data-name="Component 46 – 2" xmlns="http://www.w3.org/2000/svg" width="36" height="36" viewBox="0 0 36 36">
  <rect id="Rectangle_6517" data-name="Rectangle 6517" width="36" height="36" rx="8" fill="#7047ea" opacity="0.2"/>
  <g id="Group_27559" data-name="Group 27559" transform="translate(9.276 12.93)">
    <g id="video-camera" transform="translate(0 0)">
      <path id="Path_20730" data-name="Path 20730" d="M1.4-406.9a1.951,1.951,0,0,0-1.492,1.39c-.075.278-.075,7.115,0,7.394a1.95,1.95,0,0,0,1.306,1.343,32.565,32.565,0,0,0,4.494.064h4.307l.237-.075A2,2,0,0,0,11.5-398l.075-.2.01-3.517c.01-3.92.017-3.754-.22-4.209a1.924,1.924,0,0,0-.8-.787c-.465-.227-.271-.22-4.874-.217C3.4-406.924,1.473-406.911,1.4-406.9Z" transform="translate(0.15 406.929)" fill="#7c60dc"/>
      <path id="Path_20731" data-name="Path 20731" d="M376.293-376.66a4.446,4.446,0,0,0-.729.363c-.319.183-1.028.59-1.574.906l-.99.573.007,2.221.01,2.218,1.526.878c.858.492,1.608.9,1.709.929a1.172,1.172,0,0,0,1.367-.6l.078-.146.01-3.229c.007-3.154.007-3.229-.061-3.408A1.153,1.153,0,0,0,376.293-376.66Z" transform="translate(-360.345 377.713)" fill="#7c60dc"/>
    </g>
  </g>
</svg>
