<svg xmlns="http://www.w3.org/2000/svg" xmlns:xlink="http://www.w3.org/1999/xlink" width="26" height="26" viewBox="0 0 26 26"><defs><style>.a{fill:#fff;stroke:#707070;}.b{clip-path:url(#a);}.c,.d{fill:#481ca9;}.c{stroke:#481ca9;stroke-width:0.5px;}</style><clipPath id="a"><rect class="a" width="26" height="26" transform="translate(-74 -71)"/></clipPath></defs><g class="b" transform="translate(74 71)"><g transform="translate(-73 -70)"><g transform="translate(0 0)"><path class="c" d="M23.255,3.113C21.541,1.171,18.417,1.928,16.1,1.9A5.031,5.031,0,0,0,12.348,0,4.646,4.646,0,0,0,8.441,1.987c-1.637,0-3.3-.132-4.929,0a3.287,3.287,0,0,0-2.366.953A4.56,4.56,0,0,0,.233,5.594C.137,6.989.147,8.421.092,9.82c-.059,1.578.064,3.133.027,4.7-.046,1.824-.182,3.648-.082,5.472.078,1.509.278,3.547,2.02,3.926,2.923.634,6.288.26,9.261.214,3.164-.05,6.338.178,9.5-.036,2.371-.164,3.392-.784,3.4-3.283,0-3.3,0-6.6.041-9.9C24.295,8.548,24.951,5.056,23.255,3.113ZM12.348.637c2.1.233,3.739,1.309,3.835,3.566a3.974,3.974,0,0,1-3.9,4.3A4.1,4.1,0,0,1,8.272,4.522,3.981,3.981,0,0,1,12.348.637ZM23.643,9.7c-.046,2.485-.059,4.975-.064,7.46V20.59a4.979,4.979,0,0,1-.119,1.71c-.488,1.195-1.888,1.126-2.909,1.186-2.376.141-4.76.036-7.136,0s-4.765.1-7.15.046a29.637,29.637,0,0,1-3.429-.178C1.369,23.144.913,22.141.744,20.841c-.369-2.549.05-5.216.023-7.779-.023-2.435,0-4.865.1-7.3a2.949,2.949,0,0,1,3.192-3.16c1.331-.059,2.672,0,4,0a4.272,4.272,0,0,0-.424,1.66A4.833,4.833,0,0,0,12.312,9.2a4.624,4.624,0,0,0,4.514-4.733,5.016,5.016,0,0,0-.41-1.938c.775,0,1.55-.046,2.325-.027,1.012,0,2.385-.164,3.26.374C24.167,4.207,23.711,7.518,23.643,9.7Z" transform="translate(-0.001 0.002)"/><path class="d" d="M25.174,7.55a.752.752,0,0,0,1.149-.1.807.807,0,0,0,0-.976.264.264,0,0,0-.046-.1c.173-.456.337-.939.506-1.414.137-.383-.456-.552-.616-.169l-.461,1.345C25,6.164,24.454,7,25.174,7.55Zm.547-.78.082.036h0c.192.141-.15.5-.319.164C25.416,6.825,25.576,6.762,25.722,6.771Z" transform="translate(-13.511 -2.488)"/><path class="c" d="M24.672,22.507a9.961,9.961,0,0,0-.1-3.374,1.705,1.705,0,0,0-1.432-1.144,6.461,6.461,0,0,0-3.037.2c-.351.182-.62.684-.912.944a5.727,5.727,0,0,1-2.28,1.181,6,6,0,0,1-5.659-1.455c-.912-.821-3.456-.844-4.514-.328-1.414.693-.912,2.645-.912,3.9.064,2.376-.246,4.975.164,7.318a2.026,2.026,0,0,0,1.787,1.874,32.587,32.587,0,0,0,4.432.283c1.464.068,2.932,0,4.4-.073,1.345-.068,2.69-.155,4.04-.173,1.072,0,2.1.228,3.037-.369C25.237,30.3,24.7,28.3,24.64,26.7,24.595,25.293,24.626,23.916,24.672,22.507Zm-.72,7.478c-.456,1.094-1.4.985-2.453,1.026-2.6.091-5.212.264-7.815.269-1.277,0-2.526-.141-3.794-.219-1.154-.073-2.736.306-3.192-1.072a10.9,10.9,0,0,1-.169-3.383c0-1.213,0-2.426-.041-3.648s-.584-3.342.839-3.94c.748-.315,2.859-.283,3.479.269a6.87,6.87,0,0,0,5.121,1.888,7.136,7.136,0,0,0,2.617-.8c.821-.456,1.436-1.4,2.312-1.673a5.066,5.066,0,0,1,1.573-.055c.8-.164,1.336.251,1.6,1.249,0,.292.032.584.036.875,0,1.263-.087,2.522-.1,3.785s.078,2.412.109,3.62a4.642,4.642,0,0,1-.128,1.81Z" transform="translate(-3.124 -9.739)"/><path class="d" d="M20.231,6.256A2.449,2.449,0,0,1,21.357,4.3c.356-.2.036-.748-.324-.547a3.11,3.11,0,0,0-1.445,2.508C19.552,6.662,20.186,6.662,20.231,6.256Z" transform="translate(-10.656 -2.014)"/><path class="d" d="M19.815,10.73a.319.319,0,1,0,.281.317A.319.319,0,0,0,19.815,10.73Z" transform="translate(-10.627 -5.836)"/></g></g></g></svg>