<svg xmlns="http://www.w3.org/2000/svg" width="22.71" height="27.076" viewBox="0 0 22.71 27.076"><defs><style>.a,.c{fill:#fafbfc;}.b{fill:none;}.c,.d{stroke:#fafcfc;}.d{fill:#fafcfc;}</style></defs><g transform="translate(0.5)"><circle class="a" cx="2.66" cy="2.66" r="2.66" transform="translate(8.09 0.6)"/><circle class="a" cx="3.32" cy="3.32" r="3.32" transform="translate(7.48 0)"/><circle class="b" cx="2.67" cy="2.67" r="2.67" transform="translate(8.13 0.65)"/><path class="c" d="M77.16,176h0a.43.43,0,0,1,0-.63A8.71,8.71,0,0,0,80,169.73a10.41,10.41,0,0,0-.07-1.48,4.25,4.25,0,0,1,.45-3,4.43,4.43,0,0,1,3.06-1.74.46.46,0,0,1,.53.37h0a.45.45,0,0,1-.37.5,3.56,3.56,0,0,0-2.47,1.35,3.47,3.47,0,0,0-.3,2.39,12.161,12.161,0,0,1,.07,1.6A9.6,9.6,0,0,1,77.81,176a.46.46,0,0,1-.65,0Z" transform="translate(-75.86 -156.53)"/><path class="c" d="M81.83,175.72h0a.45.45,0,0,1-.1-.62,7.27,7.27,0,0,0,1-2,7.77,7.77,0,0,0,.19-3.86.45.45,0,0,1,.33-.53h0a.46.46,0,0,1,.55.33h0a8.7,8.7,0,0,1-.22,4.3,8.37,8.37,0,0,1-1.1,2.27.44.44,0,0,1-.62.12Z" transform="translate(-75.86 -156.53)"/><path class="c" d="M96.36,176.18a.46.46,0,0,1-.64,0h0A9.6,9.6,0,0,1,92.58,170a10.657,10.657,0,0,1,.08-1.6,3.56,3.56,0,0,0-.3-2.4,3.6,3.6,0,0,0-2.48-1.34.45.45,0,0,1-.37-.5h0a.46.46,0,0,1,.51-.39h0a4.39,4.39,0,0,1,3.06,1.74,4.25,4.25,0,0,1,.45,3,10.34,10.34,0,0,0-.07,1.47,8.68,8.68,0,0,0,2.87,5.62.45.45,0,0,1,0,.63Z" transform="translate(-75.86 -156.53)"/><path class="c" d="M91.7,175.92a.46.46,0,0,1-.64-.08h0a8.45,8.45,0,0,1-1.1-2.26,8.75,8.75,0,0,1-.21-4.31.45.45,0,0,1,.53-.35h0a.44.44,0,0,1,.33.52,7.65,7.65,0,0,0,1.17,5.88.45.45,0,0,1-.09.62Z" transform="translate(-75.86 -156.53)"/><path class="d" d="M94.15,177l-.53-.09a.45.45,0,0,0-.52.37s0,.05,0,.07h0a.45.45,0,0,0,.39.45h.23a12.47,12.47,0,0,1,2.17.52.45.45,0,0,1,.26.58.41.41,0,0,1-.26.27,12.47,12.47,0,0,1-2.17.52,49,49,0,0,1-14,0,12.359,12.359,0,0,1-2.16-.52.45.45,0,0,1,0-.85,12.36,12.36,0,0,1,2.16-.52l.63-.1a.45.45,0,0,0,.39-.45h0a.46.46,0,0,0-.46-.45h-.06a4.731,4.731,0,0,0-.94.15c-3.06.56-3.42,1.29-3.42,1.79s.35,1.24,3.42,1.8a49.479,49.479,0,0,0,14.88,0c3.06-.56,3.41-1.3,3.41-1.8S97.21,177.56,94.15,177Z" transform="translate(-75.86 -154.53)"/><path class="c" d="M90.18,178.54a.22.22,0,0,0-.11.05h-.06a4.43,4.43,0,0,1-.8.19,18.118,18.118,0,0,1-5.2,0,4.431,4.431,0,0,1-.8-.19h-.06a.22.22,0,0,0-.11-.05h0a.173.173,0,0,0-.07.33,3.609,3.609,0,0,0,.92.27,18.24,18.24,0,0,0,5.52,0,3.609,3.609,0,0,0,.92-.27.174.174,0,0,0-.07-.33Z" transform="translate(-75.86 -156.53)"/></g></svg>