<svg xmlns="http://www.w3.org/2000/svg" width="49.588" height="49.801" viewBox="0 0 49.588 49.801"><defs><style>.a{fill:#0a89ba;}</style></defs><path class="a" d="M.213-511.928a.83.83,0,0,0-.213.564,13.113,13.113,0,0,0,1.075,3.189,9.669,9.669,0,0,0,2.567.574c1.307.214,2.392.409,2.4.428s1.036,1.886,2.276,4.162a34.229,34.229,0,0,1,2.2,4.327c-.019.107-.116.457-.2.778A4.125,4.125,0,0,0,10.2-496.4a4.579,4.579,0,0,0,1.84,3.6c.484.379.707.69,1.685,2.314l1.123,1.877.814,12.709c.446,6.991.833,12.806.862,12.932a.926.926,0,0,0,.232.408c.174.175.329.194,1.8.194a9.268,9.268,0,0,0,1.772-.1c.261-.136.358-.457.784-2.577l.387-1.945.823-1.235c1.075-1.624,1.075-1.585.029-3.17l-.785-1.2.358-6.388c.194-3.51.387-6.515.426-6.67.058-.243.349-.428,2.3-1.507,1.23-.681,6.5-3.6,11.719-6.5s10.286-5.659,11.254-6.145a10.7,10.7,0,0,0,1.869-1.07,13.531,13.531,0,0,0,.1-2.236v-2.042l-.252-.194a1.012,1.012,0,0,0-.533-.2,17.052,17.052,0,0,0-2.334.827l-2.063.826H42.712c-1.356,0-1.743.029-1.908.146a3.732,3.732,0,0,0-.6,1.342l-.407,1.206-7.022,3.131-7.031,3.141-.571-.253a7.132,7.132,0,0,0-4.165-.506c-1.211.224-1.153.253-1.153-.408v-.564l1.482-.72,1.472-.729,4.552-4.541,4.552-4.541,2.373-.4a22.794,22.794,0,0,0,2.567-.525,12.022,12.022,0,0,0,1.114-1.517c1.007-1.527,1.1-1.838.678-2.285l-.223-.243H34.615c-3.613,0-3.835.01-4.339.2-.465.175-1.114.739-5.114,4.434-2.518,2.324-4.765,4.414-4.988,4.628l-.407.389.581-1.352a7.513,7.513,0,0,0,.862-2.83c0-.389.019-.418.271-.418a2.9,2.9,0,0,0,1.646-.642,2.526,2.526,0,0,0-.455-4.152,2.559,2.559,0,0,0-3.545,1.322l-.165.428-.484-.146a4.375,4.375,0,0,0-2.615.195,4.011,4.011,0,0,0-1.656,1.468c-.126.224-.446.924-.7,1.546a8.128,8.128,0,0,1-.533,1.147c-.039,0-.823-1.147-1.753-2.538a24.214,24.214,0,0,0-2.14-2.956c-.794-.719-.881-.729-5.017-.729H.416Zm7.4,1.556c.048.039-.232.389-.61.768l-.688.691-2-.331c-2.189-.36-2.053-.3-2.237-1.021l-.058-.243,2.76.029C6.3-510.46,7.574-510.411,7.613-510.372Zm28.8-.078a1.97,1.97,0,0,1-.717.875c-.31.068-4.291.729-4.407.729a3.841,3.841,0,0,1-.881-1.138c0-.058.184-.194.416-.311.378-.194.562-.2,3-.2C35.254-510.5,36.416-510.479,36.416-510.45Zm-20.368,3.287a9.3,9.3,0,0,0,2.044,2.207,2.524,2.524,0,0,1,.6.544,4.816,4.816,0,0,1-.339.788,1.847,1.847,0,0,1-1.782,1.274,1.9,1.9,0,0,1-1.8-.846,1.435,1.435,0,0,1-.291-1.109,4.244,4.244,0,0,1,.571-2.042,9.219,9.219,0,0,1,.63-1.332A2.532,2.532,0,0,1,16.048-507.164Zm31.893,4.521v.749l-1.327.671c-1.123.554-3.719,1.964-5.7,3.083l-.494.272-.455-.632a3.329,3.329,0,0,1-.436-.661c.019-.019.349-.175.736-.35a3.768,3.768,0,0,0,.852-.486,6.475,6.475,0,0,0,.475-1.128l.32-.963,1.492-.058,1.492-.049,1.453-.6c.8-.321,1.482-.593,1.53-.6A2.148,2.148,0,0,1,47.942-502.642ZM19.855-472.6c0,.535.029.6.736,1.663l.736,1.1-.726,1.1-.726,1.1-.368,1.808-.358,1.809h-.513c-.523,0-.523,0-.523-.3,0-.331-.455-7.516-.523-8.333l-.048-.506h2.315Z" transform="translate(0 512.168)"/></svg>