<svg xmlns="http://www.w3.org/2000/svg" width="54.49" height="61.06" viewBox="0 0 54.49 61.06">
  <g id="Layer_2" data-name="Layer 2" transform="translate(-0.017 0.001)">
    <g id="Layer_3" data-name="Layer 3" transform="translate(0.017 -0.001)">
      <path id="Path_21660" data-name="Path 21660" d="M152.313,182.306a1.043,1.043,0,0,1-.978-.686c-.261-.522-.472-1.043-.7-1.578a1.578,1.578,0,0,0-1.3-1.064,1.153,1.153,0,0,1-1-.819c-.06-.159-.128-.316-.19-.472-.41-1.023-.858-1.273-1.93-1.043a3.258,3.258,0,0,0-2.2,1.409.869.869,0,0,0-.047.686,2.478,2.478,0,0,0,1.565,1.336c1.44.584,2.869,1.2,4.3,1.808a.313.313,0,0,1,.193.211c-.217-.026-.436-.037-.647-.078-1.492-.3-2.989-.59-4.474-.929-.467-.107-.895-.383-1.356-.537a2.33,2.33,0,0,0-1-.2,19.754,19.754,0,0,0-5.76,1.9c-1.1.522-2.215,1.009-3.331,1.495a7.041,7.041,0,0,1-.913.261l-.057-.125a14.368,14.368,0,0,1,1.4-.856c2.069-.968,4.155-1.9,6.229-2.854.845-.389,1.677-.806,2.507-1.223a.962.962,0,0,0,.459-.381,1.636,1.636,0,0,0,.1-.814c0-.076-.381-.162-.571-.138a9.953,9.953,0,0,0-1.74.308c-1.724.548-3.461,1.075-5.133,1.75a20.215,20.215,0,0,0-2.642,1.565c-.209.13-.4.29-.743.54.07-.973.076-1.8.2-2.608a1.461,1.461,0,0,1,1.581-1.351c1.62-.115,3.242-.24,4.865-.318a19.5,19.5,0,0,0,5.136-1.137c1.3-.423,2.645-.683,3.968-1.023.279-.07.42.044.579.261a5.675,5.675,0,0,0,2.058,2.055,1.526,1.526,0,0,1,.631.824c.323.905.569,1.826.845,2.76.034.11.07.219.1.331Z" transform="translate(-97.824 -129.588)" fill="#f0662e"/>
      <path id="Path_21661" data-name="Path 21661" d="M102.55,213.534a2.644,2.644,0,0,1-.451-.308,4.383,4.383,0,0,0-3.407-1.124,19.539,19.539,0,0,1-3.214-.329,1.766,1.766,0,0,1-1.534-1.437c-.076-.41.026-.725.454-.824a9.054,9.054,0,0,1,1.735-.318,6.55,6.55,0,0,1,3.949.829,5.138,5.138,0,0,0,3.156.537c.59-.042.783-.37.449-.858a20.83,20.83,0,0,0-1.654-2.173,2.728,2.728,0,0,0-.965-.522c-.336-.151-.655-.245-1.023-.381a1.914,1.914,0,0,1,2.507.261c.164.217.316.441.472.66l1.787,2.52a9.855,9.855,0,0,1,.6.876,1.293,1.293,0,0,1-.678,2.087c-.441.2-.913.334-1.372.5Z" transform="translate(-69.427 -152.474)" fill="#f0662e"/>
      <path id="Path_21662" data-name="Path 21662" d="M94.185,107.634c.475-.261.843-.451,1.213-.644a5.8,5.8,0,0,0,2.958-4.32,2.33,2.33,0,0,0,0-.556c0-.29-.167-.472-.449-.415a8.76,8.76,0,0,0-1.753.441c-.783.336-1.526.8-2.293,1.2-.386.2-.783.368-1.252.587.07-.642.128-1.174.188-1.706a2.071,2.071,0,0,0-.874-2c-1.007-.746-2.045-1.445-3.073-2.162-.274-.19-.561-.365-.929-.605.522-.248.963-.475,1.414-.657a3.993,3.993,0,0,0,2.682-3.561,3.563,3.563,0,0,1,.65-1.565,2.038,2.038,0,0,0,.224-2.329,14.461,14.461,0,0,0-1.636-2.181,37.484,37.484,0,0,0-5-4.3,1.779,1.779,0,0,1-.475-.5,7.64,7.64,0,0,1,1.263.48c1.722,1.009,3.477,1.972,5.113,3.107a38.9,38.9,0,0,1,8.18,7.272,4.7,4.7,0,0,1,1.281,4.1c-.1.5-.175,1-.3,1.495-.743,2.935-1.505,5.866-2.233,8.806a.827.827,0,0,1-.923.723,10.215,10.215,0,0,1-3.978-.71Z" transform="translate(-63.409 -60.876)" fill="#f0662e"/>
      <path id="Path_21663" data-name="Path 21663" d="M7.908,52.088c-2.027,2.434-1.085,4.492.876,6.414l-.138.107c-.537-.057-1.085-.073-1.615-.177A21.82,21.82,0,0,1,4.371,57.8a5.782,5.782,0,0,1-4.2-5.389A35.9,35.9,0,0,1,2.084,37.355a9.727,9.727,0,0,1,4.145-5.3c1.471-.931,2.984-1.826,4.536-2.608,2.382-1.2,4.68-.673,6.866.6a3.673,3.673,0,0,0,2.222.707,1.356,1.356,0,0,0,1.33-1.437c0-.415-.177-.54-.545-.522s-.756,0-1.132,0v-.141l1.356-.522a1.4,1.4,0,0,0,1.015-1.255,4.61,4.61,0,0,1,.436-1.127l.183.068c-.078.373-.138.751-.24,1.116-.24.863-.522,1.719-.749,2.585a2.369,2.369,0,0,1-1.75,1.732c-.522.154-1.017.363-1.526.553a.49.49,0,0,0-.318.751c.37.835.746,1.667,1.1,2.507.5,1.182.983,2.371,1.471,3.558a.391.391,0,0,1,0,.261,6.386,6.386,0,0,1-2.181-3.13,14.375,14.375,0,0,0-.783-2.462,5.454,5.454,0,0,0-6.365-2.955A15.755,15.755,0,0,0,4.9,33.724a6.586,6.586,0,0,0-1.416,1.9,26.068,26.068,0,0,0-2.366,7.327c-.149.746-.3,1.492-.449,2.241-.3,1.5.123,2.087,1.654,2.23.43.037.683.162.811.579a5.272,5.272,0,0,0,2.919,3.148C6.62,51.438,7.194,51.725,7.908,52.088Z" transform="translate(-0.017 -19.033)" fill="#f0662e"/>
      <path id="Path_21664" data-name="Path 21664" d="M67.454,135.77c.167.248.464.49.472.741a1.6,1.6,0,0,0,1.043,1.437l.616.326c-.336.277-.631.537-.947.77-.449.334-.929.626-1.367.97a3.383,3.383,0,0,0-1.1,4.341,7.966,7.966,0,0,0,2.123,2.822c1.077.952,2.183,1.876,3.284,2.8a15.39,15.39,0,0,1,3.652,4.458c.078.143.146.295.261.522-.767.12-1.492.185-2.189.36a5.3,5.3,0,0,0-1.581.642,1.955,1.955,0,0,0-.438,3c.133.167.261.342.441.595a4.264,4.264,0,0,1-2.348-.261.863.863,0,0,1-.378-.571,3.728,3.728,0,0,1,.574-2.525c.261-.4.522-.783.762-1.2a1.827,1.827,0,0,0-.235-2.58c-.934-.952-1.951-1.826-2.953-2.713-.623-.548-1.3-1.043-1.933-1.565a3.565,3.565,0,0,1-1.1-4.547c.143-.344.355-.663.472-1.012a3.352,3.352,0,0,0,.214-1.119.756.756,0,0,1,.365-.759c.2-.13.381-.282.574-.423a2.666,2.666,0,0,0,1.114-2.126c.031-.556.091-1.111.175-1.664a3.289,3.289,0,0,1,.243-.652Z" transform="translate(-47.113 -100.354)" fill="#f0662e"/>
      <path id="Path_21665" data-name="Path 21665" d="M20.782,86.883v1.925c-.245-.227-.449-.438-.678-.621a1.466,1.466,0,0,0-1.349-.412.9.9,0,0,0-.626,1.435c.248.441.556.845.85,1.283-.522.261-1.007.522-1.495.783a2.061,2.061,0,0,0-1.176,2.087l.162,2.608a9.543,9.543,0,0,1-.994-.284,6.433,6.433,0,0,1-3.5-6.153A3.19,3.19,0,0,1,15.07,86.8a8.466,8.466,0,0,1,4.3.357A1.332,1.332,0,0,0,20.782,86.883Z" transform="translate(-8.829 -64.079)" fill="#f0662e"/>
      <path id="Path_21666" data-name="Path 21666" d="M50.086,180.69c.115,1.007.172,1.868.318,2.713a1.7,1.7,0,0,0,1.448,1.617,1.205,1.205,0,0,1,.347.175,2.769,2.769,0,0,0,1.688,3.668,1.3,1.3,0,0,1,.636.584c.261.608.089.85-.553.957a5.439,5.439,0,0,1-4.119-.845q-1.862-1.281-3.707-2.582c-.824-.587-.856-.973-.177-1.732a7.652,7.652,0,0,1,.678-.686,12.8,12.8,0,0,0,2.577-2.919A6.941,6.941,0,0,1,50.086,180.69Z" transform="translate(-33.628 -133.557)" fill="#f0662e"/>
      <path id="Path_21667" data-name="Path 21667" d="M51.2,8a6.693,6.693,0,0,1-.485-3.686A4.831,4.831,0,0,1,57.631.479a5.822,5.822,0,0,1,1.432,1.1,1.351,1.351,0,0,1,.373.77c.159,1.2,0,1.349-1.122,1.286-.4-.023-.8-.133-1.205-.172-.613-.06-.876.18-.908.8v.407a1.374,1.374,0,0,1-1.909,1.393c-.37-.115-.72-.3-1.085-.433a.9.9,0,0,0-1.3.483,12.691,12.691,0,0,0-.543,1.416C51.31,7.642,51.276,7.765,51.2,8Z" transform="translate(-37.435 0.001)" fill="#f0662e"/>
      <path id="Path_21668" data-name="Path 21668" d="M38,112.908c.84-.047,1.539-.083,2.241-.13a3.563,3.563,0,0,0,.6-.1,1.692,1.692,0,0,0,1.516-1.805,4.573,4.573,0,0,0-1.122-3.13,1.473,1.473,0,0,0-1.909-.438c-.386.143-.783.235-1.189.352l-.052-.123a1.174,1.174,0,0,1,.245-.214.522.522,0,0,0,.277-.712c-.11-.323-.1-.582.261-.741s.42-.475.329-.848a2.327,2.327,0,0,1,.7-2.582c.11.759.206,1.505.331,2.246a2.809,2.809,0,0,0,1.072,1.784,5.308,5.308,0,0,1,1.826,2.971,1.5,1.5,0,0,1-.026.939,10.248,10.248,0,0,0-.7,3.608c-.227,2.029-.438,1.826-2.123,1.669a11.737,11.737,0,0,1-1.565-.35l.016-.141c.138-.013.277-.034.415-.044a2.4,2.4,0,0,0,.7-.055c.329-.13.843-.308.884-.535.078-.428-.381-.668-.77-.816-.443-.17-.9-.295-1.343-.462A5.417,5.417,0,0,1,38,112.908Z" transform="translate(-28.092 -75.718)" fill="#f0662e"/>
      <path id="Path_21669" data-name="Path 21669" d="M98.759,170.044c-.172-.321-.357-.634-.522-.965-.451-.965-.916-1.925-1.33-2.908a7.119,7.119,0,0,0-3.13-3.5c-.616-.355-1.2-.764-1.789-1.161a7.63,7.63,0,0,1-.608-.522,3.21,3.21,0,0,1,1.805-.639c.929-.164,1.862-.3,2.8-.443v2.037l-1.638.159a9.594,9.594,0,0,0,.566.85c.488.584,1,1.15,1.5,1.722a10.121,10.121,0,0,1,2.371,4.927c.023.128.023.261.037.391Z" transform="translate(-67.548 -118.197)" fill="#f0662e"/>
      <path id="Path_21670" data-name="Path 21670" d="M84.675,85.61c.983,1.565,2.022,3.083,2.924,4.7a7.541,7.541,0,0,1,.783,2.434,2.222,2.222,0,0,1-.355,1.523A9.6,9.6,0,0,0,86.094,98.4a.994.994,0,0,1-.063.167l-.185-.034c.125-.858.224-1.719.381-2.572.2-1.1.472-2.181.66-3.279a4.633,4.633,0,0,0-.446-2.768c-.522-1.106-1.025-2.209-1.526-3.318-.138-.3-.237-.618-.355-.926Z" transform="translate(-62.507 -63.279)" fill="#f0662e"/>
      <path id="Path_21671" data-name="Path 21671" d="M34.68,67.891c.41-.141.816-.3,1.234-.415a.473.473,0,0,0,.326-.764,11.218,11.218,0,0,0-.631-.944c.48-.047.955-.083,1.427-.141.389-.05.6-.227.522-.678a3.313,3.313,0,0,1,0-.978c1.216,1.39,1.432,3.323,2.608,4.789-.832-.4-1.416.037-2.037.613-.783-1.38-2.048-1.539-3.438-1.343Z" transform="translate(-25.638 -47.283)" fill="#f0662e"/>
      <path id="Path_21672" data-name="Path 21672" d="M79.513,107.415c-.055-2.04-1.372-3.61-2.063-5.514.55.083.965.136,1.375.211a.522.522,0,0,0,.657-.381c.125-.339.31-.655.522-1.1a4.98,4.98,0,0,1,.284,2.562c-.19,1.4-.43,2.8-.647,4.2Z" transform="translate(-57.252 -74.381)" fill="#f0662e"/>
      <path id="Path_21673" data-name="Path 21673" d="M60.34,139.54a4.256,4.256,0,0,0,1.132.616,5.087,5.087,0,0,0,1.377-.117c-.326,1.985-1.75,3.078-3.229,4.08C59.855,142.634,60.087,141.144,60.34,139.54Z" transform="translate(-44.073 -103.141)" fill="#f0662e"/>
      <path id="Path_21674" data-name="Path 21674" d="M67.438,100.156c-1.093-3.477-1.664-7.079-3.328-10.366.157.146.329.279.472.441a9.767,9.767,0,0,1,1.862,3.516A21.228,21.228,0,0,1,67.5,99.621v.4C67.5,100.052,67.472,100.075,67.438,100.156Z" transform="translate(-47.391 -66.368)" fill="#f0662e"/>
      <path id="Path_21675" data-name="Path 21675" d="M50.68,155.469a.707.707,0,0,1,.725.725c.162,1.6.18,1.6,1.789,1.565h.913a1.862,1.862,0,0,1-1.4.456,3.569,3.569,0,0,1-.783-.162c-1.1-.336-1.252-.55-1.236-1.7C50.683,156.08,50.68,155.79,50.68,155.469Z" transform="translate(-37.465 -114.915)" fill="#f0662e"/>
    </g>
  </g>
</svg>
