<svg xmlns="http://www.w3.org/2000/svg" width="50.989" height="68.277" viewBox="0 0 50.989 68.277">
  <g id="Layer_2" data-name="Layer 2" transform="translate(-0.524 0.01)">
    <g id="Layer_3" data-name="Layer 3" transform="translate(0.999 -0.01)">
      <path id="Path_21655" data-name="Path 21655" d="M175.554,11.313a5.661,5.661,0,1,1,5.679-5.655A5.661,5.661,0,0,1,175.554,11.313Zm.3-8.385A.875.875,0,0,0,176.365,4a7.376,7.376,0,0,1,.745.535,1.179,1.179,0,0,0,1.965-.627c.06-.182.128-.361.194-.543.31-.947.3-.97-.489-1.626-1-.825-1.05-.826-2.084-.072a2.9,2.9,0,0,1-.367.262.794.794,0,0,0-.471,1Zm-.516.014c-.047-.237-.012-.567-.155-.695a4.578,4.578,0,0,0-1.531-1.075c-.341-.1-.885.295-1.261.57-.324.239-.834.452-.708,1a14.008,14.008,0,0,0,.508,1.581.512.512,0,0,0,.272.262c.594.223,1.191.438,1.725-.159a2.173,2.173,0,0,1,.551-.407.983.983,0,0,0,.605-1.079Zm.355,4.891h-.438c-1.244,0-1.626.543-1.218,1.731.081.235.142.477.233.708.047.114.14.3.217.3a10.081,10.081,0,0,0,2.152-.023c.229-.043.363-.636.528-.984a1.075,1.075,0,0,0,.134-.437,1.581,1.581,0,0,0-.1-.619,1.235,1.235,0,0,0-1.5-.677Zm-3.415.627c1.319.146,2.053-.776,1.4-2.024-.113-.217-.144-.475-.241-.7-.054-.13-.14-.3-.254-.343-.582-.241-1.164-.473-1.719.124a6.76,6.76,0,0,1-.681.518c-.1.08-.229.231-.206.307a8.7,8.7,0,0,0,.669,1.861c.13.213.681.18,1.04.26ZM179,8.377c.97.085.852.13,1.189-.658.739-1.734.423-1.494-.623-2.258a1.159,1.159,0,0,0-.695-.3c-.646.1-1.288.268-1.358,1.114a3.2,3.2,0,0,1-.215.654,1.073,1.073,0,0,0,1.176,1.478c.194-.016.386-.021.532-.029Zm-3.434-1.085c1.024,0,1.024,0,1.358-.97.34-1.009.34-1.009-.528-1.63-.83-.594-.83-.594-1.663,0s-.846.609-.539,1.57c.413,1.284.18.991,1.377,1.03ZM174.2.7c1.216,1.218,1.839,1.2,2.672,0Zm5.9,2.5c-.813,1.315-.714,1.663.646,2.278-.246-.83-.45-1.558-.654-2.278ZM170.447,5.32c1.335-.456,1.476-1.007.623-2.186C170.845,3.923,170.647,4.621,170.447,5.32ZM171.9,9.006l-.093.149,1.833,1.292C173.3,8.707,173.437,8.9,171.9,9ZM177.6,10.17l.138.177,1.7-1.282c-1.461-.308-1.552-.244-1.837,1.09Z" transform="translate(-137.14 0.01)" fill="#f0662e"/>
      <path id="Path_21656" data-name="Path 21656" d="M200.408,7.595a.791.791,0,0,1,.466-.991,2.9,2.9,0,0,0,.372-.266c1.034-.755,1.083-.753,2.084.072.788.648.8.679.489,1.626-.06.182-.128.361-.194.543a1.18,1.18,0,0,1-1.965.627,7.371,7.371,0,0,0-.745-.535A.877.877,0,0,1,200.408,7.595Z" transform="translate(-161.689 -4.657)" fill="#fff"/>
      <path id="Path_21657" data-name="Path 21657" d="M9.159,124.352a1.911,1.911,0,0,1-.813-2.458c.535-1.418.927-2.891,1.385-4.338.376-1.189.97-1.473,2.08-.892.939.495,1.525-.147,2.024-.658,1.358-1.383,2.609-2.862,4.125-4.548-1.133.083-2,.149-2.873.21-1.451.1-2.91.279-4.354.279-2.716,0-5.182.958-7.692,1.783-.582.194-1.164.359-1.765.547a1.694,1.694,0,0,1,.307-2.235c1.2-1.081,2.316-2.254,3.475-3.382.883-.856,1.538-.828,2.188.18a1.056,1.056,0,0,0,1.3.551c1.478-.452,2.974-.873,4.406-1.447a10.422,10.422,0,0,1,5.692-.679c1.552.25,1.705.149,2.01-1.414.361-1.866.582-3.76.97-5.626a20.232,20.232,0,0,1,1.164-3.88,8.074,8.074,0,0,0-.405-7.017c-.706-1.451-1.467-3.093-3.178-3.768a5.85,5.85,0,0,0-2.3-.6,15.959,15.959,0,0,1-6.226-1.228A1.626,1.626,0,0,1,9.5,81.951a8.727,8.727,0,0,1,1.048-4.074,10.8,10.8,0,0,0,1.407-4.691c.138-1.273,2.1-2.805,3.609-2.736a10.393,10.393,0,0,1-.438,1.3,26.127,26.127,0,0,0-2.561,8.37c-.1.832.045,1.3,1.073,1.075a9.313,9.313,0,0,1,1.83.014q1.1,0,2.19-.05c.887-.043,1.771-.113,2.716-.175a1.5,1.5,0,0,0-1.09-1.537,3.31,3.31,0,0,1-2.542-3.36,3.413,3.413,0,0,1,2.522-3.2,3.451,3.451,0,0,1,3.894,1.449c.481.689.943,1.391,1.428,2.076a1.3,1.3,0,0,1-.21,1.961c-.233.208-.295.609-.435.922.34-.035.764.05,1.007-.122a7.061,7.061,0,0,1,4.109-1.2,24.347,24.347,0,0,0,8.168-1.4A28.413,28.413,0,0,1,42.484,75.3a17.232,17.232,0,0,0,7.652-3.032,3.988,3.988,0,0,1,.834-.341c0,.508.13.947-.023,1.23-.627,1.164-1.121,2.313-2.7,2.763-2.124.6-4.1,1.707-6.175,2.51C40.608,79,39.1,79.48,37.589,79.9c-2.208.615-4.441,1.139-6.662,1.7-.815.208-1.046.555-.665,1.447a14.189,14.189,0,0,1,.7,7.725c-.543,3.8-.941,7.646-1.764,11.392a44.9,44.9,0,0,1-2.734,7.842c-.956,2.258-3.265,3.234-5.106,4.621a22.913,22.913,0,0,1-2.792,1.746,29.665,29.665,0,0,0-8.672,7.041C9.648,123.714,9.413,124.03,9.159,124.352ZM50.621,72.424a5.354,5.354,0,0,0-.5.291A16.361,16.361,0,0,1,44.128,75.3a59.121,59.121,0,0,0-6.79,1.591,26.122,26.122,0,0,1-8.269,1.4,6.654,6.654,0,0,0-4,1.213c-.452.332-.922.644-1.428.021-.539-.665-.025-.993.388-1.327a1.053,1.053,0,0,0,.215-1.667c-.555-.755-1.032-1.568-1.6-2.315a3.154,3.154,0,0,0-5.578,1.948,2.951,2.951,0,0,0,2.152,2.91,1.944,1.944,0,0,1,1.455,1.358c.31.776.062,1.079-.776,1.017a16,16,0,0,0-1.725-.045c-1.94.066-3.88.153-5.956.239,0-3.935,1.329-7.384,2.91-10.787a3.484,3.484,0,0,0-2.877,2.569,10.591,10.591,0,0,1-1.434,4.685,8.329,8.329,0,0,0-.97,3.711A1.453,1.453,0,0,0,10.9,83.455,15.764,15.764,0,0,0,16.83,84.64,6.771,6.771,0,0,1,19.4,85.3c1.775.7,2.576,2.4,3.3,3.917a8.549,8.549,0,0,1,.388,7.312,20.477,20.477,0,0,0-1.131,3.88c-.388,1.826-.615,3.686-.982,5.52-.361,1.795-.611,1.975-2.435,1.659a9.626,9.626,0,0,0-5.223.582c-1.595.6-3.24,1.067-4.875,1.552A1.164,1.164,0,0,1,7,109.074c-.5-.819-.97-.865-1.63-.231-1.247,1.189-2.483,2.379-3.663,3.618-.26.274-.287.776-.423,1.164l.279.173,1.183-.318a54.088,54.088,0,0,1,6.34-1.665c3.9-.565,7.832-.858,11.753-1.236a3.9,3.9,0,0,0,3.019-1.711c1.414-2.154,2.716-4.375,4.061-6.579a9.576,9.576,0,0,0,.485-1.073c.171.151.206.248.177.32a23.281,23.281,0,0,1-5.011,8.108,3.864,3.864,0,0,1-2.171,1.094,6.536,6.536,0,0,0-4.8,2.716,35.724,35.724,0,0,1-2.46,2.745,1.988,1.988,0,0,1-2.745.6c-.689-.279-1.059.07-1.251.658-.547,1.657-1.1,3.314-1.564,5-.1.363.146.825.277,1.453a10.809,10.809,0,0,0,.865-.8,31.466,31.466,0,0,1,9.188-7.326,18.171,18.171,0,0,0,2.134-1.337c1.83-1.4,4.162-2.342,5.128-4.6a45.148,45.148,0,0,0,2.687-7.654c.776-3.4,1.088-6.891,1.624-10.339.493-3.174.629-6.305-.761-9.332a.979.979,0,0,1,.307-.852,3.455,3.455,0,0,1,1.236-.532c2.289-.568,4.59-1.085,6.876-1.668a25.089,25.089,0,0,0,3.025-.97c2.576-1.022,5.132-2.1,7.7-3.141A4.052,4.052,0,0,0,50.621,72.424Z" transform="translate(-0.999 -56.779)" fill="#f0662e" stroke="#f0662e" stroke-width="1"/>
    </g>
  </g>
</svg>
