<svg xmlns="http://www.w3.org/2000/svg" width="295.237" height="243.878" viewBox="0 0 295.237 243.878">
  <g id="Group_27059" data-name="Group 27059" transform="translate(0 0)">
    <path id="Path_20500" data-name="Path 20500" d="M94.3,60.89S42.345,50.107,26.171,78.864s3.592,53.725,10.783,75.607-8.087,34.161-8.99,63.066S52.9,243.82,121.248,243.82s152.927-.984,161.91-.984,26.681-30.434-3.956-54.311-14-38.023,10.028-54.089S337.247,47.85,279.2,13.716s-114.567,2.7-128.315,31.9S94.3,60.89,94.3,60.89Z" transform="translate(-19.972 -0.003)" fill="#e0eaff"/>
    <g id="Layer_2" data-name="Layer 2" transform="translate(56.169 72.72)">
      <g id="Layer_3" data-name="Layer 3">
        <path id="Path_20548" data-name="Path 20548" d="M157.44,78.72A78.72,78.72,0,1,1,78.72,0a78.72,78.72,0,0,1,78.72,78.72Z" fill="#e22c24"/>
        <path id="Path_20549" data-name="Path 20549" d="M156.82,88.62a78.78,78.78,0,0,1-61.95,67.16L36.45,91.08l63-56.17Z" fill="#ba231d"/>
        <path id="Path_20550" data-name="Path 20550" d="M135.77,124.82c-1.47,3.62-4.76,3.68-8,3.68q-28,.08-55.95.14c-5.1,0-7.25-2.49-6.61-7.57.18-1.49.54-3,.59-4.45.12-4.36-2.1-6.53-6.38-6.28-1.83.1-3.64.52-5.46.56-4.77.09-6.6-1.93-6.2-6.77.09-1.22.42-2.42.6-3.63q.007-.145,0-.29a8.5,8.5,0,0,0-.19-3.76c-.78-2.52-3-3.83-6.56-3.71-9.07.32-10.09-.64-10.1-9.58,0-12.66.07-25.32-.11-38,0-1.6-1.41-3.17-2.12-4.77s-2.08-3.4-1.85-4.9c.14-1,2.64-2.23,4.1-2.26,10.82-.19,21.64-.1,32.47-.1H95a14.35,14.35,0,0,1,4.92.53,4.19,4.19,0,0,1,2.28,2.78c.17,1.09-.57,3.3-1.18,3.39-4.22.69-3.45,3.77-3.46,6.48v38a29.1,29.1,0,0,0,.21,3.83c.48,3.28,1.89,4.28,5.68,4.47H106c.76,0,1.46,0,2.09.06,4.53.33,6.14,2.18,5.83,6.74-.05.73-.15,1.53-.29,2.4a11.42,11.42,0,0,0,.19,5.7c1,2.66,3.54,3.65,7.89,2.9,5.52-1,9.21,0,10.37,6a2.07,2.07,0,0,0,.84,1.18C135.48,119.41,137.06,121.64,135.77,124.82Z" fill="#fff"/>
        <rect id="Rectangle_6489" data-name="Rectangle 6489" width="75.57" height="6.89" rx="1.11" transform="translate(26.67 33.12)" fill="#dfbd03"/>
        <rect id="Rectangle_6490" data-name="Rectangle 6490" width="6.98" height="2.02" rx="0.95" transform="translate(40.88 45.76)" fill="#777"/>
        <rect id="Rectangle_6491" data-name="Rectangle 6491" width="6.98" height="2.22" rx="0.95" transform="translate(40.94 54.92)" fill="#777"/>
        <rect id="Rectangle_6492" data-name="Rectangle 6492" width="5.79" height="2.02" rx="0.95" transform="translate(50.41 45.69)" fill="#777"/>
        <rect id="Rectangle_6493" data-name="Rectangle 6493" width="4.85" height="2.12" rx="0.95" transform="translate(41.18 50.31)" fill="#777"/>
        <rect id="Rectangle_6494" data-name="Rectangle 6494" width="4.85" height="2.22" rx="0.95" transform="translate(50.94 54.9)" fill="#777"/>
        <rect id="Rectangle_6495" data-name="Rectangle 6495" width="12.09" height="2.02" rx="0.95" transform="translate(57.64 45.76)" fill="#777"/>
        <rect id="Rectangle_6496" data-name="Rectangle 6496" width="8.85" height="2.12" rx="0.95" transform="translate(60.84 50.38)" fill="#777"/>
        <rect id="Rectangle_6497" data-name="Rectangle 6497" width="12.09" height="2.12" rx="0.95" transform="translate(47.47 50.44)" fill="#777"/>
        <rect id="Rectangle_6498" data-name="Rectangle 6498" width="12.09" height="2.22" rx="0.95" transform="translate(57.88 54.98)" fill="#777"/>
        <rect id="Rectangle_6499" data-name="Rectangle 6499" width="6.81" height="2.02" rx="0.95" transform="translate(72.71 45.63)" fill="#777"/>
        <rect id="Rectangle_6500" data-name="Rectangle 6500" width="5.11" height="2.12" rx="0.95" transform="translate(71.47 50.38)" fill="#777"/>
        <rect id="Rectangle_6501" data-name="Rectangle 6501" width="6.81" height="2.02" rx="0.95" transform="translate(80.71 45.82)" fill="#777"/>
        <rect id="Rectangle_6502" data-name="Rectangle 6502" width="10.81" height="2.12" rx="0.95" transform="translate(78.28 50.38)" fill="#777"/>
        <rect id="Rectangle_6503" data-name="Rectangle 6503" width="4.85" height="2.18" rx="0.95" transform="translate(40.73 59.31)" fill="#777"/>
        <rect id="Rectangle_6504" data-name="Rectangle 6504" width="8.85" height="2.18" rx="0.95" transform="translate(60.39 59.38)" fill="#777"/>
        <rect id="Rectangle_6505" data-name="Rectangle 6505" width="12.09" height="2.18" rx="0.95" transform="translate(47.03 59.45)" fill="#777"/>
        <rect id="Rectangle_6506" data-name="Rectangle 6506" width="5.11" height="2.18" rx="0.95" transform="translate(71.03 59.38)" fill="#777"/>
        <rect id="Rectangle_6507" data-name="Rectangle 6507" width="10.81" height="2.18" rx="0.95" transform="translate(77.84 59.38)" fill="#777"/>
        <rect id="Rectangle_6508" data-name="Rectangle 6508" width="4.85" height="2" rx="0.95" transform="translate(40.79 68.69)" fill="#777"/>
        <rect id="Rectangle_6509" data-name="Rectangle 6509" width="8.85" height="2" rx="0.95" transform="translate(60.45 68.76)" fill="#777"/>
        <rect id="Rectangle_6510" data-name="Rectangle 6510" width="12.09" height="2" rx="0.95" transform="translate(47.09 68.82)" fill="#777"/>
        <rect id="Rectangle_6511" data-name="Rectangle 6511" width="5.11" height="2" rx="0.95" transform="translate(71.09 68.76)" fill="#777"/>
        <rect id="Rectangle_6512" data-name="Rectangle 6512" width="10.81" height="2" rx="0.95" transform="translate(77.9 68.76)" fill="#777"/>
        <rect id="Rectangle_6513" data-name="Rectangle 6513" width="4.85" height="2.24" rx="0.95" transform="translate(40.67 77.65)" fill="#777"/>
        <rect id="Rectangle_6514" data-name="Rectangle 6514" width="8.85" height="2.24" rx="0.95" transform="translate(60.32 77.72)" fill="#777"/>
        <rect id="Rectangle_6515" data-name="Rectangle 6515" width="12.09" height="2.24" rx="0.95" transform="translate(46.96 77.79)" fill="#777"/>
        <rect id="Rectangle_6516" data-name="Rectangle 6516" width="5.11" height="2.24" rx="0.95" transform="translate(70.96 77.72)" fill="#777"/>
        <rect id="Rectangle_6517" data-name="Rectangle 6517" width="10.81" height="2.24" rx="0.95" transform="translate(77.77 77.72)" fill="#777"/>
        <rect id="Rectangle_6518" data-name="Rectangle 6518" width="8.04" height="2.22" rx="0.95" transform="translate(80.84 54.86)" fill="#777"/>
        <rect id="Rectangle_6519" data-name="Rectangle 6519" width="6.77" height="2.22" rx="0.95" transform="translate(72.79 54.92)" fill="#777"/>
        <rect id="Rectangle_6520" data-name="Rectangle 6520" width="6.98" height="2.24" rx="0.95" transform="translate(41.26 63.92)" fill="#777"/>
        <rect id="Rectangle_6521" data-name="Rectangle 6521" width="4.85" height="2.24" rx="0.95" transform="translate(51.26 63.9)" fill="#777"/>
        <rect id="Rectangle_6522" data-name="Rectangle 6522" width="12.09" height="2.24" rx="0.95" transform="translate(58.2 63.99)" fill="#777"/>
        <rect id="Rectangle_6523" data-name="Rectangle 6523" width="8.04" height="2.24" rx="0.95" transform="translate(81.15 63.86)" fill="#777"/>
        <rect id="Rectangle_6524" data-name="Rectangle 6524" width="6.77" height="2.24" rx="0.95" transform="translate(73.11 63.92)" fill="#777"/>
        <rect id="Rectangle_6525" data-name="Rectangle 6525" width="6.98" height="2.1" rx="0.95" transform="translate(40.88 73.44)" fill="#777"/>
        <rect id="Rectangle_6526" data-name="Rectangle 6526" width="4.85" height="2.1" rx="0.95" transform="translate(50.88 73.43)" fill="#777"/>
        <rect id="Rectangle_6527" data-name="Rectangle 6527" width="12.09" height="2.1" rx="0.95" transform="translate(57.81 73.51)" fill="#777"/>
        <rect id="Rectangle_6528" data-name="Rectangle 6528" width="8.04" height="2.1" rx="0.95" transform="translate(80.77 73.4)" fill="#777"/>
        <rect id="Rectangle_6529" data-name="Rectangle 6529" width="6.77" height="2.1" rx="0.95" transform="translate(72.73 73.44)" fill="#777"/>
        <path id="Path_20551" data-name="Path 20551" d="M48.4,100.21a8.5,8.5,0,0,0-.19-3.76l28.24,4.33-28.1-.28a2.932,2.932,0,0,0,.05-.29Z" fill="#a5a5a5"/>
        <path id="Path_20552" data-name="Path 20552" d="M103.48,92.61,77.3,92.1l20.5-4C98.28,91.42,99.69,92.42,103.48,92.61Z" fill="#a5a5a5"/>
        <path id="Path_20553" data-name="Path 20553" d="M108.07,92.7H106A11.907,11.907,0,0,1,108.07,92.7Z" fill="#777"/>
        <path id="Path_20554" data-name="Path 20554" d="M113.8,107.54l-42.45-.29,42.55-7.81c-.05.73-.15,1.53-.29,2.4a11.42,11.42,0,0,0,.19,5.7Z" fill="#a5a5a5"/>
        <path id="Path_20555" data-name="Path 20555" d="M72.71,129l60.46-.36s8.27-5-1-11.66l-59.94.18S81.84,123.59,72.71,129Z" fill="#a5a5a5"/>
      </g>
    </g>
  </g>
</svg>
