<svg xmlns="http://www.w3.org/2000/svg" width="295.237" height="243.878" viewBox="0 0 295.237 243.878">
  <g id="Group_27058" data-name="Group 27058" transform="translate(0 0)">
    <path id="Path_20500" data-name="Path 20500" d="M94.3,60.89S42.345,50.107,26.171,78.864s3.592,53.725,10.783,75.607-8.087,34.161-8.99,63.066S52.9,243.82,121.248,243.82s152.927-.984,161.91-.984,26.681-30.434-3.956-54.311-14-38.023,10.028-54.089S337.247,47.85,279.2,13.716s-114.567,2.7-128.315,31.9S94.3,60.89,94.3,60.89Z" transform="translate(-19.972 -0.004)" fill="#e0eaff"/>
    <g id="Layer_2" data-name="Layer 2" transform="translate(63.541 96.469)">
      <g id="Layer_3" data-name="Layer 3">
        <path id="Path_20564" data-name="Path 20564" d="M137.48,48.69h-8.23q-4.26,7.53-8.53,15.06-4.45-7.53-8.93-15.06H80.3q-4.08,7.22-8.15,14.45-4.41-7.23-8.84-14.45H31.92Q27.74,56,23.56,63.27l-8.7-14.58H6.3a3,3,0,0,1-3-3V7a3,3,0,0,1,3-3H137.48a3,3,0,0,1,3,3V45.7A3,3,0,0,1,137.48,48.69Z" fill="#b4211a"/>
        <path id="Path_20565" data-name="Path 20565" d="M137.48,44.66h-8.23q-4.26,7.53-8.53,15.06-4.45-7.53-8.93-15.06H80.3q-4.08,7.22-8.15,14.45-4.41-7.23-8.84-14.45H31.92Q27.74,52,23.56,59.24l-8.7-14.58H6.3a3,3,0,0,1-3-3V3a3,3,0,0,1,3-3H137.48a3,3,0,0,1,3,3V41.7a3,3,0,0,1-3,2.96Z" fill="#e22c24"/>
        <rect id="Rectangle_6536" data-name="Rectangle 6536" width="54.61" height="5.84" rx="2.55" transform="translate(44.4 6.71)" fill="#b4211a"/>
        <rect id="Rectangle_6537" data-name="Rectangle 6537" width="54.61" height="5.84" rx="2.55" transform="translate(34 20.49)" fill="#b4211a"/>
        <rect id="Rectangle_6538" data-name="Rectangle 6538" width="36.75" height="5.84" rx="2.55" transform="translate(26.18 30.88)" fill="#b4211a"/>
        <rect id="Rectangle_6539" data-name="Rectangle 6539" width="27.29" height="5.84" rx="2.55" transform="translate(66.93 30.88)" fill="#b4211a"/>
        <rect id="Rectangle_6540" data-name="Rectangle 6540" width="19.24" height="5.84" rx="2.55" transform="translate(98.34 30.76)" fill="#b4211a"/>
        <rect id="Rectangle_6541" data-name="Rectangle 6541" width="17.37" height="5.84" rx="2.55" transform="translate(92.85 20.49)" fill="#b4211a"/>
        <circle id="Ellipse_766" data-name="Ellipse 766" cx="24.34" cy="24.34" r="24.34" transform="translate(0 73.57)" fill="#ef5a9d"/>
        <path id="Path_20566" data-name="Path 20566" d="M48.69,97.91a24.347,24.347,0,1,1-48.695,0,24.69,24.69,0,0,1,.3-3.77,24.34,24.34,0,0,0,48.1,0,23.48,23.48,0,0,1,.3,3.77Z" fill="#e43d91"/>
        <circle id="Ellipse_767" data-name="Ellipse 767" cx="3.163" cy="3.163" r="3.163" transform="translate(29.815 94.356) rotate(-74.995)" fill="#a72973"/>
        <circle id="Ellipse_774" data-name="Ellipse 774" cx="3.163" cy="3.163" r="3.163" transform="translate(9.778 94.356) rotate(-74.995)" fill="#a72973"/>
        <path id="Path_20567" data-name="Path 20567" d="M12.12,105.88a2.27,2.27,0,0,1,.42-2.44,2.69,2.69,0,0,1,3.37.21,14.68,14.68,0,0,0,7.93,3.14,11.69,11.69,0,0,0,4.32-.51,10.32,10.32,0,0,0,2.91-1.41c1.23-.9,3.81-2.76,5.24-1.18a2.52,2.52,0,0,1-.5,3.4,20.6,20.6,0,0,1-9.24,4.43c-5.49,1-10.17-1.44-14-5.16a2,2,0,0,1-.34-.37Z" fill="#a72973"/>
        <circle id="Ellipse_768" data-name="Ellipse 768" cx="19.41" cy="19.41" r="19.41" transform="translate(52.39 83.77)" fill="#417504"/>
        <path id="Path_20568" data-name="Path 20568" d="M91.21,103.18a19.41,19.41,0,1,1-38.81,0,18.5,18.5,0,0,1,.23-3,19.41,19.41,0,0,0,38.35,0A18.5,18.5,0,0,1,91.21,103.18Z" fill="#265624"/>
        <circle id="Ellipse_769" data-name="Ellipse 769" cx="2.51" cy="2.51" r="2.51" transform="translate(62.31 95.63)" fill="#265624"/>
        <circle id="Ellipse_770" data-name="Ellipse 770" cx="2.51" cy="2.51" r="2.51" transform="translate(75.849 100.324) rotate(-75.02)" fill="#265624"/>
        <path id="Path_20569" data-name="Path 20569" d="M62.06,109.53a1.82,1.82,0,0,1,.33-1.94,2.13,2.13,0,0,1,2.69.17,11.72,11.72,0,0,0,6.32,2.5,9.35,9.35,0,0,0,3.45-.41,8.3,8.3,0,0,0,2.32-1.12c1-.72,3-2.2,4.18-.94a2,2,0,0,1-.4,2.71,16.52,16.52,0,0,1-7.37,3.5c-4.38.78-8.11-1.15-11.21-4.12a1.8,1.8,0,0,1-.26-.29.41.41,0,0,1-.05-.06Z" fill="#265624"/>
        <circle id="Ellipse_771" data-name="Ellipse 771" cx="27.99" cy="27.99" r="27.99" transform="translate(94.72 67.02)" fill="#1caee4"/>
        <path id="Path_20570" data-name="Path 20570" d="M150.7,95a28,28,0,1,1-56,0,27,27,0,0,1,.34-4.34,28,28,0,0,0,55.3,0A27,27,0,0,1,150.7,95Z" fill="#1686b1"/>
        <circle id="Ellipse_772" data-name="Ellipse 772" cx="3.62" cy="3.62" r="3.62" transform="translate(109.02 84.12)" fill="#1686b1"/>
        <circle id="Ellipse_773" data-name="Ellipse 773" cx="3.62" cy="3.62" r="3.62" transform="translate(128.548 90.897) rotate(-75.02)" fill="#1686b1"/>
        <path id="Path_20571" data-name="Path 20571" d="M108.65,104.17a2.65,2.65,0,0,1,.48-2.81c1.13-1,2.84-.57,3.88.25a17,17,0,0,0,9.12,3.61,13.69,13.69,0,0,0,5-.59,11.27,11.27,0,0,0,3.34-1.63c1.42-1,4.38-3.16,6-1.35,1,1.11.47,3-.57,3.91a23.76,23.76,0,0,1-10.63,5.1c-6.31,1.12-11.7-1.67-16.16-5.94a2.21,2.21,0,0,1-.38-.43Z" fill="#1686b1"/>
      </g>
    </g>
  </g>
</svg>
