<svg xmlns="http://www.w3.org/2000/svg" width="295.237" height="243.878" viewBox="0 0 295.237 243.878"><defs><style>.a{fill:#e0eaff;}.b{opacity:0.59;}.c{fill:none;stroke:#78cad3;stroke-miterlimit:10;stroke-width:2px;}.d{opacity:0.54;}.e,.h,.i,.j,.k,.l{fill:#78cad3;}.f{opacity:0.45;}.g{fill:#5698b2;}.h{opacity:0.55;}.i{opacity:0.56;}.j{opacity:0.57;}.k{opacity:0.15;}.l{opacity:0.29;}.m,.n,.o{fill:#c44a3a;}.n,.t{opacity:0.49;}.o,.z{opacity:0.38;}.p,.r{fill:#96c7e0;}.q,.v,.w{fill:#1e90bc;}.q{opacity:0.46;}.r,.x{opacity:0.41;}.s{fill:#7ad3d3;}.t{fill:#540d07;}.u{fill:#fdfaf6;}.v{opacity:0.22;}.y,.z{fill:#055f7a;}.aa,.ac{fill:#7c7c7c;}.aa{font-size:4px;font-family:Helvetica;}.ab{letter-spacing:-0.109em;}</style></defs><g transform="translate(0 37)"><path class="a" d="M94.3,60.89S42.345,50.107,26.171,78.864s3.592,53.725,10.783,75.607-8.087,34.161-8.99,63.066S52.9,243.82,121.248,243.82s152.927-.984,161.91-.984,26.681-30.434-3.956-54.311-14-38.023,10.028-54.089S337.247,47.85,279.2,13.716s-114.567,2.7-128.315,31.9S94.3,60.89,94.3,60.89Z" transform="translate(-19.972 -37.004)"/><g transform="translate(68.389 43.72)"><g class="b" transform="translate(3.084 1.138)"><path class="c" d="M109.431,284.427v4.481h-5.907v5.9H99.043v-5.9h-5.9v-4.481h5.9V278.52h4.481v5.907Z" transform="translate(-66.79 -191.638)"/><path class="c" d="M19.263,406.588V409.2H15.818v3.442H13.2V409.2H9.76v-2.614H13.2V403.14h2.614v3.448Z" transform="translate(-9.76 -276.874)"/><path class="c" d="M286.811,9.507v4.481H280.9v5.9h-4.481v-5.9h-5.9V9.507h5.9V3.6H280.9V9.507Z" transform="translate(-188.113 -3.6)"/><path class="c" d="M339.766,47.3v3.053h-4.023v4.023H332.69V50.356h-4.02V47.3h4.02V43.28h3.053V47.3Z" transform="translate(-227.886 -30.74)"/></g><g class="d" transform="translate(9.426 73.115)"><path class="e" d="M30.46,325.209a.632.632,0,0,1-.5-1.021l2.87-3.72a.632.632,0,0,1,.98-.025l2.93,3.419a.632.632,0,0,1-.948.822l-2.433-2.819-2.392,3.081a.632.632,0,0,1-.506.262Z" transform="translate(-29.827 -292.139)"/><path class="e" d="M30.46,316.068a.632.632,0,0,1-.5-1.021l2.87-3.694a.633.633,0,0,1,.98-.022l2.93,3.416a.632.632,0,1,1-.948.825l-2.427-2.844-2.4,3.088A.632.632,0,0,1,30.46,316.068Z" transform="translate(-29.827 -285.905)"/><path class="e" d="M286.14,231.987a.632.632,0,0,1,1.021-.5l3.694,2.87a.633.633,0,0,1,.022.98l-3.416,2.93a.632.632,0,0,1-.825-.948l2.844-2.427-3.084-2.4A.632.632,0,0,1,286.14,231.987Z" transform="translate(-205.138 -231.357)"/><path class="e" d="M295.28,231.987a.632.632,0,0,1,1.021-.5l3.694,2.87a.632.632,0,0,1,.025.98l-3.419,2.93a.632.632,0,1,1-.822-.948l2.828-2.427-3.081-2.4A.632.632,0,0,1,295.28,231.987Z" transform="translate(-211.389 -231.357)"/></g><path class="e" d="M428.891,398.119a.633.633,0,0,1,.5,1.021l-2.873,3.682a.632.632,0,0,1-.977.025l-2.933-3.419a.632.632,0,1,1,.948-.822l2.427,2.828,2.4-3.081A.632.632,0,0,1,428.891,398.119Z" transform="translate(-288.91 -272.302)"/><path class="e" d="M428.891,407.27a.607.607,0,0,1,.386.133.632.632,0,0,1,.114.885l-2.873,3.7a.632.632,0,0,1-.484.243.613.613,0,0,1-.493-.221l-2.933-3.419a.632.632,0,1,1,.948-.822l2.427,2.844,2.4-3.084A.632.632,0,0,1,428.891,407.27Z" transform="translate(-288.91 -278.561)"/><g class="f"><path class="g" d="M323.447,385.994H312.272a.632.632,0,0,1,0-1.264h11.175a.632.632,0,0,1,0,1.264Z" transform="translate(-213.153 -263.145)"/><path class="g" d="M337.267,396.594H326.1a.632.632,0,0,1,0-1.264h11.165a.632.632,0,0,1,0,1.264Z" transform="translate(-222.612 -270.395)"/><path class="g" d="M404.957,1.264H393.792a.632.632,0,0,1,0-1.264h11.165a.632.632,0,0,1,0,1.264Z" transform="translate(-268.91)"/><path class="g" d="M418.794,11.864H407.632a.632.632,0,0,1,0-1.264H418.8a.632.632,0,1,1,0,1.264Z" transform="translate(-278.377 -7.25)"/><path class="g" d="M11.8,146.484H.632a.632.632,0,0,1,0-1.264H11.8a.632.632,0,0,1,0,1.264Z" transform="translate(0 -99.326)"/><path class="g" d="M25.63,157.084H14.462a.632.632,0,0,1,0-1.264H25.63a.632.632,0,1,1,0,1.264Z" transform="translate(-9.459 -106.577)"/></g><path class="e" d="M21.345,57.79,22.9,60.438l-2.282.923-2.449.992-1.312.528-.645-1.571,1.008-.689,2.411-1.653Z" transform="translate(-11.087 -39.527)"/><path class="h" d="M17.245,66.75a8.479,8.479,0,0,1,.948,1.732l-1.312.528-.632-1.58Z" transform="translate(-11.115 -45.655)"/><path class="i" d="M28.726,57.79l1.552,2.648L28,61.361a7.585,7.585,0,0,1-1-2.392Z" transform="translate(-18.467 -39.527)"/><path class="e" d="M14.3,66.487c.673,1.349.948,2.582.594,2.753-.167.085-.452-.1-.771-.465a7.806,7.806,0,0,1-1.074-1.662,8.944,8.944,0,0,1-.556-1.365c-.228-.733-.259-1.264-.038-1.391C12.8,64.186,13.627,65.138,14.3,66.487Z" transform="translate(-8.416 -44.005)"/><path class="j" d="M12.9,68.8a1.9,1.9,0,0,1,1.182,1.049,3.985,3.985,0,0,1,.449,1.978,7.806,7.806,0,0,1-1.074-1.662A8.944,8.944,0,0,1,12.9,68.8Z" transform="translate(-8.823 -47.057)"/><path class="e" d="M18.542,38.64l1.074.028,1.261.035,2.023.051L22.461,42.2l-1.988-.866-1.248-.54-1.135-.493Z" transform="translate(-12.373 -26.429)"/><path class="i" d="M18.542,38.64l1.074.028a19.078,19.078,0,0,1-.392,2.13l-1.135-.493Z" transform="translate(-12.373 -26.429)"/><path class="i" d="M26.028,38.84l2.023.051-.439,3.451-1.991-.866a22.7,22.7,0,0,1,.408-2.636Z" transform="translate(-17.523 -26.565)"/><path class="e" d="M17.13,34.366c.344.047.493,1.024.316,2.181a4.336,4.336,0,0,1-.585,1.789c-.111.155-.228.234-.338.218-.316-.044-.474-.948-.348-2.023l.019-.158C16.371,35.213,16.785,34.315,17.13,34.366Z" transform="translate(-11.034 -23.504)"/><path class="j" d="M16.213,41.166c.879-.218.812,1.043.686,1.8-.111.155-.228.234-.338.218C16.235,43.144,16.087,42.253,16.213,41.166Z" transform="translate(-11.058 -28.139)"/><path class="e" d="M36.991,71.48l2.019,1.441-1,.891-.348.31-.935.834-.5.452-.689-.752.281-.61.265-.588.313-.676Z" transform="translate(-24.308 -48.89)"/><path class="i" d="M38.848,71.48l2.023,1.428-1,.891a6.02,6.02,0,0,1-1.615-1.03Z" transform="translate(-26.169 -48.89)"/><path class="h" d="M35.821,79.6a4.766,4.766,0,0,1,.91.91l-.506.452-.686-.752Z" transform="translate(-24.308 -54.444)"/><path class="e" d="M32.619,79.765a6.532,6.532,0,0,1,.506.487c.8.85,1.239,1.738.983,1.975-.174.164-.632-.022-1.166-.436a6.2,6.2,0,0,1-.74-.676c-.8-.853-1.239-1.738-.986-1.975C31.414,78.95,31.993,79.222,32.619,79.765Z" transform="translate(-21.302 -54.088)"/><path class="j" d="M32.6,79.765a2.111,2.111,0,0,1,.316,2.026,6.194,6.194,0,0,1-.74-.676c-.8-.853-1.239-1.738-.986-1.975C31.4,78.95,31.979,79.222,32.6,79.765Z" transform="translate(-21.288 -54.088)"/><path class="e" d="M71.57,69.829l2.3-2.029,1.343,2.067,1.438,2.215.768,1.185L76,74.2l-.869-.856-2.079-2.051Z" transform="translate(-48.952 -46.373)"/><path class="h" d="M82.85,82.6a8.58,8.58,0,0,1,1.52-1.264l.771,1.188-1.422.948Z" transform="translate(-56.667 -55.634)"/><path class="i" d="M71.57,69.829,73.877,67.8l1.34,2.067a7.692,7.692,0,0,1-2.162,1.425Z" transform="translate(-48.952 -46.373)"/><path class="e" d="M83.458,82.676c1.195-.92,2.358-1.413,2.591-1.109.114.149,0,.465-.316.847a7.825,7.825,0,0,1-1.425,1.372,9.02,9.02,0,0,1-1.229.806c-.676.363-1.207.5-1.359.316C81.486,84.588,82.264,83.592,83.458,82.676Z" transform="translate(-55.866 -55.728)"/><path class="j" d="M86.11,86.6a1.855,1.855,0,0,1,.806-1.368,3.944,3.944,0,0,1,1.855-.819,7.824,7.824,0,0,1-1.432,1.381A9.019,9.019,0,0,1,86.11,86.6Z" transform="translate(-58.897 -57.734)"/><path class="e" d="M53.681,80.776l-.18-1.059-.205-1.245-.335-1.994,3.47-.228-.468,2.117-.294,1.33L55.4,80.905Z" transform="translate(-36.223 -52.153)"/><path class="i" d="M54.85,88.191l-.18-1.059a19.359,19.359,0,0,1,2.168-.019l-.269,1.214Z" transform="translate(-37.393 -59.568)"/><path class="i" d="M53.316,78.492,53,76.508l3.476-.228L55.99,78.4A22.531,22.531,0,0,1,53.316,78.492Z" transform="translate(-36.251 -52.173)"/><path class="e" d="M51.089,89.972c-.019-.348.91-.676,2.079-.736a4.248,4.248,0,0,1,1.865.234c.174.079.275.177.278.288.019.316-.828.632-1.921.727h-.158C52.066,90.553,51.105,90.32,51.089,89.972Z" transform="translate(-34.944 -61.021)"/><path class="j" d="M58.221,91.034c-.376-.822.872-1,1.643-1.014.174.079.275.177.278.288C60.161,90.646,59.314,90.962,58.221,91.034Z" transform="translate(-39.774 -61.571)"/><path class="e" d="M83.55,59.206l1.03-2.256,1.065.809.37.281,1,.758.54.408-.607.819-.651-.158-.629-.152-.724-.177Z" transform="translate(-57.146 -38.952)"/><path class="i" d="M83.55,59.2l1.03-2.26,1.065.812a6,6,0,0,1-.689,1.779Z" transform="translate(-57.146 -38.945)"/><path class="h" d="M92.23,63.868a4.74,4.74,0,0,1,.717-1.068l.54.408-.607.819Z" transform="translate(-63.083 -42.953)"/><path class="e" d="M93,62.2c.111-.19.24-.389.382-.588.686-.948,1.47-1.549,1.751-1.343.2.142.1.632-.205,1.229a6,6,0,0,1-.537.869c-.683.948-1.466,1.549-1.751,1.343C92.415,63.534,92.573,62.921,93,62.2Z" transform="translate(-63.293 -41.197)"/><path class="j" d="M93,64.895a2.114,2.114,0,0,1,1.928-.7,6,6,0,0,1-.537.869c-.683.948-1.466,1.549-1.751,1.343C92.415,66.225,92.573,65.612,93,64.895Z" transform="translate(-63.293 -43.888)"/><path class="e" d="M47.19,10.275,44.3,11.325l-.5-2.411-.534-2.588L42.99,4.941l1.662-.351.5,1.116L46.34,8.373Z" transform="translate(-29.404 -3.139)"/><path class="h" d="M45.155,5.706a8.533,8.533,0,0,1-1.874.632L43,4.941l1.662-.351Z" transform="translate(-29.411 -3.139)"/><path class="i" d="M48.961,18.462l-2.885,1.049-.5-2.411a7.638,7.638,0,0,1,2.528-.54Z" transform="translate(-31.175 -11.327)"/><path class="e" d="M39.529,2.885c-1.447.42-2.708.458-2.816.088-.054-.18.18-.427.6-.676a7.85,7.85,0,0,1,1.83-.755,9.013,9.013,0,0,1,1.441-.316c.762-.092,1.305-.022,1.375.215C42.064,1.823,40.977,2.465,39.529,2.885Z" transform="translate(-25.106 -0.812)"/><path class="j" d="M41.88,1.35a1.861,1.861,0,0,1-1.264.973,3.954,3.954,0,0,1-2.026.085,7.85,7.85,0,0,1,1.83-.755,9.013,9.013,0,0,1,1.46-.3Z" transform="translate(-26.394 -0.923)"/><path class="e" d="M68.339,11.686l-.221,1.052-.259,1.236-.417,1.978L64.13,14.9l1.207-1.8.758-1.131.686-1.027Z" transform="translate(-43.863 -7.483)"/><path class="i" d="M72.594,11.686l-.221,1.052a19.186,19.186,0,0,1-2.023-.771l.686-1.027Z" transform="translate(-48.117 -7.483)"/><path class="i" d="M67.859,18.642l-.417,1.981L64.13,19.571l1.223-1.8a22.7,22.7,0,0,1,2.506.872Z" transform="translate(-43.863 -12.154)"/><path class="e" d="M72.968,10.452c-.111.332-1.1.3-2.212-.07a4.27,4.27,0,0,1-1.653-.9c-.133-.136-.19-.265-.155-.37.1-.316,1.008-.3,2.054.022l.152.047C72.27,9.555,73.066,10.124,72.968,10.452Z" transform="translate(-47.152 -6.078)"/><path class="j" d="M71.029,9.14c.054.9-1.172.61-1.9.348-.133-.136-.19-.265-.155-.37C69.079,8.805,69.983,8.818,71.029,9.14Z" transform="translate(-47.172 -6.081)"/><path class="e" d="M33.369,23.327l-1.782,1.729-.7-1.141-.24-.4L30,22.449l-.357-.578.866-.54.55.386.531.37.61.427Z" transform="translate(-20.273 -14.589)"/><path class="i" d="M36.068,25.885l-1.782,1.729-.7-1.141a6,6,0,0,1,1.305-1.4Z" transform="translate(-22.975 -17.147)"/><path class="h" d="M31.053,21.688a4.772,4.772,0,0,1-1.059.733l-.354-.591.863-.54Z" transform="translate(-20.273 -14.562)"/><path class="e" d="M26.709,18.652c-.171.136-.363.275-.569.408-.983.632-1.934.907-2.121.613-.13-.2.136-.632.632-1.071a6.352,6.352,0,0,1,.8-.6c.983-.632,1.931-.907,2.121-.613C27.726,17.619,27.357,18.131,26.709,18.652Z" transform="translate(-16.406 -11.81)"/><path class="j" d="M28.161,18.652A2.117,2.117,0,0,1,26.11,18.6a6.352,6.352,0,0,1,.8-.6c.983-.632,1.931-.907,2.121-.613C29.179,17.619,28.809,18.131,28.161,18.652Z" transform="translate(-17.859 -11.81)"/><path class="e" d="M78.332,22.759,76.17,20.578l1.981-1.463,2.127-1.567,1.141-.837,1.014,1.362-.806.92-1.925,2.2Z" transform="translate(-52.098 -11.429)"/><path class="h" d="M90.526,18.992a8.532,8.532,0,0,1-1.346-1.444l1.138-.837,1.018,1.356Z" transform="translate(-60.997 -11.429)"/><path class="i" d="M78.322,27.971,76.16,25.787l1.981-1.457a7.635,7.635,0,0,1,1.552,2.07Z" transform="translate(-52.091 -16.641)"/><path class="e" d="M90.211,13.9c-.989-1.138-1.552-2.269-1.264-2.528.142-.126.465,0,.866.259a7.9,7.9,0,0,1,1.451,1.343,9.3,9.3,0,0,1,.879,1.182c.4.654.566,1.179.379,1.34C92.234,15.759,91.2,15.039,90.211,13.9Z" transform="translate(-60.786 -7.745)"/><path class="j" d="M94.189,14.828a1.855,1.855,0,0,1-1.4-.733,3.938,3.938,0,0,1-.926-1.8,7.9,7.9,0,0,1,1.451,1.343A9.3,9.3,0,0,1,94.189,14.828Z" transform="translate(-62.83 -8.406)"/><path class="e" d="M90.17,45.821l-1.049.24-1.229.278-1.972.452-.43-3.451,2.143.344,1.343.215,1.22.2Z" transform="translate(-58.473 -29.643)"/><path class="i" d="M97.728,47.066l-1.043.256a19.355,19.355,0,0,1-.145-2.162l1.22.193Z" transform="translate(-66.031 -30.888)"/><path class="i" d="M87.892,46.339l-1.972.452-.43-3.451,2.143.344A22.753,22.753,0,0,1,87.892,46.339Z" transform="translate(-58.473 -29.643)"/><path class="e" d="M99.606,46.164c-.348.038-.73-.872-.86-2.032a4.257,4.257,0,0,1,.123-1.877c.07-.177.161-.284.272-.3.316-.035.7.79.841,1.877l.019.155C100.131,45.153,99.95,46.126,99.606,46.164Z" transform="translate(-67.504 -28.697)"/><path class="j" d="M100.362,43.835c-.8.427-1.046-.812-1.112-1.58.07-.177.161-.284.272-.3C99.85,41.923,100.217,42.748,100.362,43.835Z" transform="translate(-67.884 -28.697)"/><path class="e" d="M47.689,28.455v.155a9.775,9.775,0,1,1-13.273-9.288,9.658,9.658,0,0,1,3.5-.632,9.8,9.8,0,0,1,9.724,8.754C47.667,27.775,47.689,28.114,47.689,28.455Z" transform="translate(-19.247 -12.783)"/><path class="k" d="M47.678,33.986A9.778,9.778,0,1,1,31.371,26.55c-.819,3.571-1.454,9.051,3.606,11.693C41.4,41.59,46.309,37.9,47.678,33.986Z" transform="translate(-19.235 -18.159)"/><path class="l" d="M60.282,27.444A7.954,7.954,0,0,1,46.63,21.894a7.79,7.79,0,0,1,.433-2.572,9.658,9.658,0,0,1,3.5-.632A9.8,9.8,0,0,1,60.282,27.444Z" transform="translate(-31.894 -12.783)"/><circle class="l" cx="2.986" cy="2.986" r="2.986" transform="translate(17.976 17.903)"/><circle class="l" cx="1.422" cy="1.422" r="1.422" transform="translate(13.567 15.672)"/><path class="e" d="M128.233,67.76l1.014,1.735-1.492.6-1.605.648-.856.348-.423-1.03.66-.452,1.577-1.081Z" transform="translate(-85.408 -46.346)"/><path class="h" d="M125.6,73.62a5.568,5.568,0,0,1,.632,1.135l-.856.348-.423-1.03Z" transform="translate(-85.462 -50.354)"/><path class="i" d="M133.075,67.76l1.014,1.735-1.492.6a4.981,4.981,0,0,1-.648-1.58Z" transform="translate(-90.25 -46.346)"/><path class="e" d="M123.62,73.471c.439.882.613,1.691.389,1.8-.111.057-.3-.063-.506-.316a5.3,5.3,0,0,1-.7-1.09,5.891,5.891,0,0,1-.363-.869c-.149-.48-.167-.837-.025-.91C122.638,71.963,123.178,72.589,123.62,73.471Z" transform="translate(-83.659 -49.295)"/><path class="j" d="M122.7,75a1.223,1.223,0,0,1,.774.686,2.633,2.633,0,0,1,.294,1.3,5.3,5.3,0,0,1-.7-1.09A5.891,5.891,0,0,1,122.7,75Z" transform="translate(-83.923 -51.298)"/><path class="e" d="M126.394,55.22l.7.019.825.022,1.324.032-.288,2.26-1.3-.566-.815-.354-.743-.322Z" transform="translate(-86.249 -37.769)"/><path class="i" d="M126.364,55.22l.7.019a12.932,12.932,0,0,1-.256,1.394l-.743-.316Z" transform="translate(-86.228 -37.769)"/><path class="i" d="M131.275,55.35l1.324.032-.288,2.26L131,57.076a14.934,14.934,0,0,1,.275-1.726Z" transform="translate(-89.6 -37.858)"/><path class="e" d="M125.481,52.417c.228.032.316.673.215,1.428a2.809,2.809,0,0,1-.382,1.172c-.073.1-.149.152-.218.142-.215-.032-.316-.613-.231-1.324v-.1C124.985,52.974,125.256,52.386,125.481,52.417Z" transform="translate(-85.383 -35.851)"/><path class="j" d="M124.869,56.875c.578-.142.534.683.449,1.182-.073.1-.149.152-.218.142C124.891,58.167,124.787,57.586,124.869,56.875Z" transform="translate(-85.388 -38.89)"/><path class="e" d="M138.471,76.72l1.321.945-.651.581-.228.205L138.3,79l-.329.3-.452-.493.183-.4.177-.386.2-.442Z" transform="translate(-94.06 -52.474)"/><path class="i" d="M139.689,76.72l1.321.948-.651.581a3.878,3.878,0,0,1-1.059-.673Z" transform="translate(-95.277 -52.474)"/><path class="h" d="M137.738,82a3.037,3.037,0,0,1,.6.607l-.316.3-.452-.493Z" transform="translate(-94.094 -56.086)"/><path class="e" d="M135.6,82.12a4.338,4.338,0,0,1,.332.316c.521.559.812,1.141.632,1.3-.117.1-.417,0-.765-.288a3.818,3.818,0,0,1-.484-.442c-.525-.559-.812-1.138-.632-1.293S135.189,81.766,135.6,82.12Z" transform="translate(-92.083 -55.851)"/><path class="j" d="M135.627,82.12a1.384,1.384,0,0,1,.212,1.324,3.817,3.817,0,0,1-.484-.442c-.525-.559-.812-1.138-.632-1.293S135.217,81.766,135.627,82.12Z" transform="translate(-92.11 -55.851)"/><path class="e" d="M161.11,75.64l1.511-1.33.879,1.353.942,1.451.5.777-.929.61-.569-.563-1.362-1.34Z" transform="translate(-110.195 -50.826)"/><path class="h" d="M168.5,84a5.689,5.689,0,0,1,1-.825l.5.777-.929.61Z" transform="translate(-115.249 -56.893)"/><path class="i" d="M161.11,75.637l1.511-1.327.879,1.353a4.993,4.993,0,0,1-1.416.948Z" transform="translate(-110.195 -50.826)"/><path class="e" d="M168.879,84.05c.784-.6,1.542-.926,1.7-.727.076.1,0,.316-.205.556a5.148,5.148,0,0,1-.948.9,5.811,5.811,0,0,1-.806.528c-.442.237-.79.316-.888.2C167.586,85.3,168.1,84.651,168.879,84.05Z" transform="translate(-114.705 -56.951)"/><path class="j" d="M170.63,86.635a1.229,1.229,0,0,1,.528-.891,2.566,2.566,0,0,1,1.214-.534,5.148,5.148,0,0,1-.948.9,5.812,5.812,0,0,1-.793.528Z" transform="translate(-116.706 -58.281)"/><path class="e" d="M149.4,82.8l-.117-.692-.136-.815-.218-1.308,2.272-.149-.307,1.387-.193.869-.174.793Z" transform="translate(-101.864 -54.608)"/><path class="i" d="M150.167,87.675l-.117-.7a13.5,13.5,0,0,1,1.419,0l-.171.781Z" transform="translate(-102.63 -59.479)"/><path class="i" d="M149.148,81.3,148.93,80l2.272-.149-.316,1.384A15.452,15.452,0,0,1,149.148,81.3Z" transform="translate(-101.864 -54.615)"/><path class="e" d="M147.7,88.827c0-.228.6-.442,1.362-.484a2.844,2.844,0,0,1,1.223.155c.114.051.177.117.18.186,0,.218-.54.423-1.264.477h-.1C148.342,89.21,147.713,89.055,147.7,88.827Z" transform="translate(-101.023 -60.416)"/><path class="j" d="M152.372,89.564c-.247-.537.572-.651,1.078-.664.114.051.177.117.18.186C153.643,89.292,153.09,89.5,152.372,89.564Z" transform="translate(-104.187 -60.805)"/><path class="e" d="M168.96,68.679l.673-1.479.7.531.243.186.651.493.354.269-.4.537-.427-.1-.411-.1-.474-.117Z" transform="translate(-115.564 -45.963)"/><path class="i" d="M169,68.679l.673-1.479.7.531a3.922,3.922,0,0,1-.461,1.166Z" transform="translate(-115.591 -45.963)"/><path class="h" d="M174.64,71.711a3.1,3.1,0,0,1,.471-.711l.354.265-.4.55Z" transform="translate(-119.449 -48.562)"/><path class="e" d="M175.084,70.645c.073-.123.158-.256.25-.386.449-.632.964-1.014,1.147-.879.13.092.066.411-.133.806a4.134,4.134,0,0,1-.344.559c-.449.632-.948,1.011-1.147.879S174.815,71.116,175.084,70.645Z" transform="translate(-119.536 -47.436)"/><path class="j" d="M175.084,72.41a1.384,1.384,0,0,1,1.264-.458,4.134,4.134,0,0,1-.344.559c-.449.632-.948,1.011-1.147.879S174.815,72.881,175.084,72.41Z" transform="translate(-119.536 -49.201)"/><path class="e" d="M145.149,36.65l-1.887.689-.326-1.58-.351-1.694-.186-.907,1.09-.228.326.73.777,1.744Z" transform="translate(-97.398 -22.523)"/><path class="h" d="M143.819,33.66a5.663,5.663,0,0,1-1.223.4l-.186-.907,1.09-.228Z" transform="translate(-97.404 -22.523)"/><path class="i" d="M146.312,42.005l-1.9.689-.316-1.58a5.056,5.056,0,0,1,1.656-.354Z" transform="translate(-98.56 -27.879)"/><path class="e" d="M140.14,31.831c-.948.275-1.773.316-1.842.057-.038-.117.117-.278.389-.442a5.2,5.2,0,0,1,1.2-.5,6.355,6.355,0,0,1,.948-.2c.5-.06.853,0,.9.142C141.8,31.129,141.088,31.553,140.14,31.831Z" transform="translate(-94.588 -21.016)"/><path class="j" d="M141.683,30.8a1.213,1.213,0,0,1-.815.632,2.614,2.614,0,0,1-1.327.057,5.2,5.2,0,0,1,1.2-.5,6.355,6.355,0,0,1,.945-.193Z" transform="translate(-95.441 -21.066)"/><path class="e" d="M159,37.57l-.142.689-.171.809-.272,1.293-2.171-.689.79-1.179.5-.74.452-.673Z" transform="translate(-106.864 -25.362)"/><path class="i" d="M161.82,37.57l-.142.689a13,13,0,0,1-1.327-.506l.452-.673Z" transform="translate(-109.675 -25.362)"/><path class="i" d="M158.713,42.125l-.272,1.293-2.171-.689.79-1.179a14.345,14.345,0,0,1,1.653.575Z" transform="translate(-106.884 -28.419)"/><path class="e" d="M162.042,36.78c-.073.218-.717.2-1.444-.044a2.844,2.844,0,0,1-1.081-.588c-.088-.088-.123-.174-.1-.243.066-.205.661-.2,1.343,0l.1.032C161.587,36.185,162.124,36.558,162.042,36.78Z" transform="translate(-109.032 -24.455)"/><path class="j" d="M160.759,35.9c.035.591-.768.4-1.242.228-.088-.088-.123-.174-.1-.243C159.482,35.683,160.076,35.692,160.759,35.9Z" transform="translate(-109.032 -24.445)"/><path class="e" d="M136.1,45.2l-1.166,1.131-.455-.746-.158-.259-.427-.7-.234-.376.566-.354.36.253.348.24.4.281Z" transform="translate(-91.42 -30.02)"/><path class="i" d="M137.871,46.844l-1.166,1.135-.455-.749a4.108,4.108,0,0,1,.853-.92Z" transform="translate(-93.191 -31.675)"/><path class="h" d="M134.586,44.133a2.977,2.977,0,0,1-.692.48l-.234-.379.566-.354Z" transform="translate(-91.42 -30.013)"/><path class="e" d="M131.744,42.134a4.053,4.053,0,0,1-.373.265c-.632.414-1.264.594-1.387.4-.085-.133.088-.408.417-.7a4.36,4.36,0,0,1,.521-.4c.632-.414,1.264-.594,1.387-.4S132.167,41.786,131.744,42.134Z" transform="translate(-88.89 -28.197)"/><path class="j" d="M132.693,42.134a1.391,1.391,0,0,1-1.343-.035,4.362,4.362,0,0,1,.521-.4c.632-.414,1.264-.594,1.387-.4S133.117,41.786,132.693,42.134Z" transform="translate(-89.84 -28.197)"/><path class="e" d="M165.543,44.82l-1.413-1.428,1.3-.954,1.394-1.027.746-.55.664.894-.528.6-1.261,1.438Z" transform="translate(-112.26 -27.947)"/><path class="h" d="M173.522,42.355a5.616,5.616,0,0,1-.882-.948l.746-.547.664.894Z" transform="translate(-118.081 -27.947)"/><path class="i" d="M165.543,48.247l-1.413-1.428,1.3-.948a4.981,4.981,0,0,1,1.018,1.356Z" transform="translate(-112.26 -31.374)"/><path class="e" d="M173.323,39.033c-.632-.743-1.014-1.482-.822-1.65.092-.079.3,0,.566.171a5.1,5.1,0,0,1,.948.882,5.535,5.535,0,0,1,.575.774c.265.427.373.768.25.875C174.651,40.25,173.971,39.769,173.323,39.033Z" transform="translate(-117.952 -25.548)"/><path class="j" d="M175.923,39.653a1.226,1.226,0,0,1-.92-.474A2.582,2.582,0,0,1,174.4,38a5.1,5.1,0,0,1,.948.882A5.535,5.535,0,0,1,175.923,39.653Z" transform="translate(-119.285 -25.991)"/><path class="e" d="M173.292,59.921l-.686.158-.806.183-1.289.3-.281-2.26,1.4.224.882.139.8.13Z" transform="translate(-116.433 -39.876)"/><path class="i" d="M178.231,60.708l-.686.158a12.639,12.639,0,0,1-.095-1.416l.8.13Z" transform="translate(-121.371 -40.662)"/><path class="i" d="M171.8,60.263l-1.289.3-.281-2.26,1.4.224A14.4,14.4,0,0,1,171.8,60.263Z" transform="translate(-116.433 -39.876)"/><path class="e" d="M179.469,60.151c-.228.025-.477-.572-.563-1.33a2.781,2.781,0,0,1,.082-1.229c.044-.117.1-.186.177-.193.215-.025.455.515.55,1.226v.1C179.813,59.484,179.7,60.116,179.469,60.151Z" transform="translate(-122.344 -39.258)"/><path class="j" d="M179.967,58.624c-.525.278-.686-.531-.727-1.033.044-.117.1-.186.177-.193C179.632,57.373,179.872,57.9,179.967,58.624Z" transform="translate(-122.595 -39.258)"/><path class="e" d="M145.465,48.533v.1a6.4,6.4,0,1,1-8.688-6.08,6.321,6.321,0,0,1,2.288-.423,6.4,6.4,0,0,1,6.368,5.739,6.571,6.571,0,0,1,.032.664Z" transform="translate(-90.735 -28.816)"/><path class="k" d="M145.457,52.17a6.4,6.4,0,1,1-10.672-4.87c-.537,2.339-.948,5.926,2.361,7.654C141.348,57.147,144.565,54.736,145.457,52.17Z" transform="translate(-90.73 -32.352)"/><path class="l" d="M153.727,47.869a5.2,5.2,0,0,1-8.937-3.631,5.12,5.12,0,0,1,.281-1.684,6.321,6.321,0,0,1,2.288-.423,6.4,6.4,0,0,1,6.368,5.739Z" transform="translate(-99.032 -28.816)"/><path class="l" d="M155.4,68.959a1.956,1.956,0,1,1-.572-1.385A1.956,1.956,0,0,1,155.4,68.959Z" transform="translate(-103.615 -45.826)"/><path class="l" d="M144.225,63.288a.932.932,0,1,1-.267-.669A.932.932,0,0,1,144.225,63.288Z" transform="translate(-97.371 -42.639)"/><path class="e" d="M102.973,402.29l.882,1.507-1.3.525-1.394.566-.746.3-.367-.894.572-.392,1.372-.942Z" transform="translate(-68.431 -275.155)"/><path class="h" d="M100.622,407.39a4.885,4.885,0,0,1,.54.986l-.746.3-.367-.894Z" transform="translate(-68.431 -278.643)"/><path class="i" d="M107.19,402.29l.885,1.507-1.293.525a4.289,4.289,0,0,1-.563-1.362Z" transform="translate(-72.652 -275.155)"/><path class="e" d="M98.957,407.26c.382.768.534,1.47.338,1.58-.1.047-.259-.057-.442-.265a4.522,4.522,0,0,1-.61-.948,4.766,4.766,0,0,1-.316-.774c-.13-.417-.149-.73-.022-.793C98.1,405.948,98.572,406.492,98.957,407.26Z" transform="translate(-66.906 -277.723)"/><path class="j" d="M98.16,408.56a1.062,1.062,0,0,1,.673.6,2.212,2.212,0,0,1,.253,1.125,4.523,4.523,0,0,1-.61-.948A4.768,4.768,0,0,1,98.16,408.56Z" transform="translate(-67.139 -279.444)"/><path class="e" d="M101.369,391.39l.61.016.717.019,1.154.028-.25,1.966-1.135-.493-.708-.31-.648-.278Z" transform="translate(-69.156 -267.7)"/><path class="i" d="M101.4,391.39l.61.016a10.859,10.859,0,0,1-.224,1.21l-.632-.278Z" transform="translate(-69.184 -267.7)"/><path class="i" d="M105.631,391.5l1.15.028-.246,1.966L105.4,393a13.552,13.552,0,0,1,.231-1.5Z" transform="translate(-72.091 -267.775)"/><path class="e" d="M100.578,388.995c.2.028.281.585.19,1.245a2.408,2.408,0,0,1-.335,1.018c-.06.085-.13.133-.19.123-.186-.025-.272-.534-.2-1.154v-.089C100.148,389.463,100.385,388.954,100.578,388.995Z" transform="translate(-68.41 -266.06)"/><path class="j" d="M100.044,392.82c.5-.123.461.594.389,1.03-.06.085-.13.133-.19.123C100.057,393.948,99.971,393.439,100.044,392.82Z" transform="translate(-68.41 -268.668)"/><path class="e" d="M111.875,410.08l1.15.822-.569.506-.2.177-.534.474-.288.259-.389-.43.158-.348.152-.335.177-.386Z" transform="translate(-75.955 -280.483)"/><path class="i" d="M112.928,410.08l1.15.822-.569.506a3.362,3.362,0,0,1-.92-.588Z" transform="translate(-77.008 -280.483)"/><path class="h" d="M111.208,414.7a2.677,2.677,0,0,1,.518.518l-.288.259-.389-.43Z" transform="translate(-75.955 -283.643)"/><path class="e" d="M109.383,414.769a3.911,3.911,0,0,1,.288.278c.455.483.7.989.559,1.122-.1.095-.36,0-.664-.246a3.559,3.559,0,0,1-.42-.386c-.455-.487-.7-.989-.563-1.125S109.026,414.459,109.383,414.769Z" transform="translate(-74.241 -283.415)"/><path class="j" d="M109.383,414.769a1.2,1.2,0,0,1,.183,1.154,3.559,3.559,0,0,1-.42-.386c-.455-.487-.7-.989-.563-1.125S109.026,414.459,109.383,414.769Z" transform="translate(-74.241 -283.415)"/><path class="e" d="M131.56,409.143l1.312-1.154.762,1.176.822,1.261.436.676-.809.528-.493-.487-1.185-1.169Z" transform="translate(-89.983 -279.054)"/><path class="h" d="M138,416.447a4.818,4.818,0,0,1,.866-.717l.436.676-.809.528Z" transform="translate(-94.388 -284.348)"/><path class="i" d="M131.56,409.143l1.312-1.154.762,1.176a4.339,4.339,0,0,1-1.229.812Z" transform="translate(-89.983 -279.054)"/><path class="e" d="M138.329,416.452c.679-.521,1.34-.806,1.473-.632.066.085,0,.265-.174.484a4.543,4.543,0,0,1-.815.781,5.158,5.158,0,0,1-.7.458c-.386.209-.686.284-.774.171C137.217,417.539,137.65,416.973,138.329,416.452Z" transform="translate(-93.921 -284.374)"/><path class="j" d="M139.83,418.7a1.059,1.059,0,0,1,.458-.774,2.241,2.241,0,0,1,1.059-.465,4.543,4.543,0,0,1-.815.781A5.158,5.158,0,0,1,139.83,418.7Z" transform="translate(-95.64 -285.531)"/><path class="e" d="M121.378,415.376l-.1-.6-.117-.708-.19-1.135,1.975-.13-.269,1.2-.167.755-.152.689Z" transform="translate(-82.74 -282.344)"/><path class="i" d="M122.041,419.658l-.1-.6a11.66,11.66,0,0,1,1.233,0l-.152.689Z" transform="translate(-83.404 -286.611)"/><path class="i" d="M121.153,414.064l-.193-1.135,1.978-.13-.269,1.2a12.76,12.76,0,0,1-1.517.06Z" transform="translate(-82.733 -282.344)"/><path class="e" d="M119.9,420.606c0-.2.518-.386,1.182-.42a2.456,2.456,0,0,1,1.062.133c.1.044.158.1.161.164,0,.19-.474.37-1.093.414h-.092C120.456,420.938,119.909,420.805,119.9,420.606Z" transform="translate(-82.008 -287.388)"/><path class="j" d="M123.962,421.208c-.218-.468.493-.566.948-.578.1.044.158.1.161.164C125.065,420.984,124.578,421.164,123.962,421.208Z" transform="translate(-84.759 -287.699)"/><path class="e" d="M138.38,403.1l.588-1.286.6.458.212.161.566.433.31.234-.348.465-.37-.092-.36-.085-.411-.1Z" transform="translate(-94.648 -274.827)"/><path class="i" d="M138.38,403.1l.585-1.286.607.458a3.369,3.369,0,0,1-.4,1.014Z" transform="translate(-94.648 -274.827)"/><path class="h" d="M143.32,405.747a2.676,2.676,0,0,1,.408-.607l.316.234-.344.465Z" transform="translate(-98.027 -277.104)"/><path class="e" d="M143.718,404.8c.063-.107.136-.221.218-.335.389-.54.837-.882,1-.765.111.079.057.357-.117.7a3.824,3.824,0,0,1-.3.484c-.389.54-.834.882-1,.765S143.484,405.208,143.718,404.8Z" transform="translate(-98.115 -276.104)"/><path class="j" d="M143.718,406.334a1.2,1.2,0,0,1,1.1-.4,3.823,3.823,0,0,1-.3.484c-.389.54-.834.882-1,.765S143.484,406.742,143.718,406.334Z" transform="translate(-98.115 -277.638)"/><path class="e" d="M117.679,375.239l-1.64.594-.284-1.372-.3-1.473-.161-.787.945-.2.284.635.676,1.52Z" transform="translate(-78.855 -254.438)"/><path class="h" d="M116.519,372.625a4.849,4.849,0,0,1-1.068.354l-.161-.787.948-.2Z" transform="translate(-78.855 -254.431)"/><path class="i" d="M118.685,379.88l-1.64.6-.284-1.372a4.345,4.345,0,0,1,1.441-.316Z" transform="translate(-79.861 -259.082)"/><path class="e" d="M113.322,371.054c-.825.237-1.542.259-1.6.047-.032-.1.1-.24.338-.382a4.288,4.288,0,0,1,1.043-.43,4.9,4.9,0,0,1,.819-.174c.436-.054.746,0,.784.123C114.763,370.447,114.147,370.813,113.322,371.054Z" transform="translate(-76.41 -253.134)"/><path class="j" d="M114.661,370.16a1.049,1.049,0,0,1-.708.553,2.251,2.251,0,0,1-1.154.051,4.289,4.289,0,0,1,1.043-.43A4.9,4.9,0,0,1,114.661,370.16Z" transform="translate(-77.152 -253.179)"/><path class="e" d="M129.715,376.043l-.123.6-.149.7-.237,1.125-1.887-.6.689-1.027.43-.642.392-.585Z" transform="translate(-87.083 -256.914)"/><path class="i" d="M132.137,376.083l-.123.6a10.748,10.748,0,0,1-1.153-.439l.392-.585Z" transform="translate(-89.505 -256.941)"/><path class="i" d="M129.383,380l-.237,1.125-1.9-.6.689-1.027a12.821,12.821,0,0,1,1.444.5Z" transform="translate(-87.035 -259.567)"/><path class="e" d="M132.329,375.339c-.063.19-.632.171-1.264-.041a2.4,2.4,0,0,1-.948-.509c-.076-.079-.107-.152-.089-.212.06-.177.575-.171,1.169,0l.085.028C131.931,374.827,132.392,375.153,132.329,375.339Z" transform="translate(-88.932 -256.112)"/><path class="j" d="M131.248,374.594c.032.515-.667.348-1.081.2-.076-.079-.107-.152-.088-.212C130.138,374.4,130.654,374.41,131.248,374.594Z" transform="translate(-88.966 -256.115)"/><path class="e" d="M109.811,382.668l-1.014.983-.4-.648-.139-.228-.37-.607-.2-.329.49-.31.313.221.3.209.348.243Z" transform="translate(-73.657 -260.956)"/><path class="i" d="M111.349,384.125l-1.014.983-.4-.648a3.476,3.476,0,0,1,.743-.8Z" transform="translate(-75.196 -262.413)"/><path class="h" d="M108.493,381.765a2.679,2.679,0,0,1-.6.417l-.2-.316.49-.316Z" transform="translate(-73.657 -260.97)"/><path class="e" d="M106.044,380.009c-.1.076-.209.155-.316.231-.559.36-1.1.515-1.207.348-.073-.114.079-.354.363-.61a3.706,3.706,0,0,1,.455-.341c.559-.36,1.1-.518,1.207-.351S106.411,379.712,106.044,380.009Z" transform="translate(-71.477 -259.375)"/><path class="j" d="M106.849,380.009a1.2,1.2,0,0,1-1.169-.032,3.71,3.71,0,0,1,.455-.341c.559-.36,1.1-.518,1.207-.351S107.216,379.712,106.849,380.009Z" transform="translate(-72.282 -259.375)"/><path class="e" d="M135.409,382.345,134.18,381.1l1.128-.831,1.21-.894.648-.477.578.777-.461.521-1.093,1.251Z" transform="translate(-91.775 -259.157)"/><path class="h" d="M142.345,380.189a4.79,4.79,0,0,1-.765-.822l.632-.477.578.777Z" transform="translate(-96.837 -259.15)"/><path class="i" d="M135.409,385.313l-1.229-1.242,1.128-.831a4.333,4.333,0,0,1,.882,1.179Z" transform="translate(-91.775 -262.125)"/><path class="e" d="M142.172,377.316c-.563-.648-.885-1.293-.717-1.435.079-.07.262,0,.493.149a4.423,4.423,0,0,1,.825.765,4.9,4.9,0,0,1,.5.686c.231.373.316.67.218.762C143.322,378.375,142.734,377.964,142.172,377.316Z" transform="translate(-96.72 -257.074)"/><path class="j" d="M144.434,377.888a1.065,1.065,0,0,1-.8-.411,2.238,2.238,0,0,1-.525-1.027,4.423,4.423,0,0,1,.825.765A4.9,4.9,0,0,1,144.434,377.888Z" transform="translate(-97.883 -257.481)"/><path class="e" d="M142.144,395.473l-.6.136-.7.158-1.122.259-.247-1.966,1.22.2.765.123.7.111Z" transform="translate(-95.4 -269.526)"/><path class="i" d="M146.426,396.191l-.6.149a11.379,11.379,0,0,1-.082-1.229l.7.111Z" transform="translate(-99.682 -270.244)"/><path class="i" d="M140.848,395.767l-1.122.259-.247-1.966,1.22.2A13.026,13.026,0,0,1,140.848,395.767Z" transform="translate(-95.4 -269.526)"/><path class="e" d="M147.516,395.671c-.2.022-.417-.5-.49-1.157a2.446,2.446,0,0,1,.07-1.068c.041-.1.095-.161.155-.167.186-.022.4.449.48,1.068v.088C147.813,395.086,147.712,395.652,147.516,395.671Z" transform="translate(-100.542 -268.991)"/><path class="j" d="M147.952,394.347c-.455.24-.6-.461-.632-.9.041-.1.095-.161.155-.167C147.658,393.256,147.867,393.727,147.952,394.347Z" transform="translate(-100.763 -268.991)"/><path class="e" d="M117.91,385.575v.089a5.565,5.565,0,1,1-7.553-5.287,5.471,5.471,0,0,1,1.988-.367A5.562,5.562,0,0,1,117.91,385Z" transform="translate(-73.034 -259.916)"/><path class="k" d="M117.912,388.735a5.565,5.565,0,1,1-9.279-4.235c-.468,2.035-.828,5.154,2.051,6.656C114.353,393.064,117.147,390.979,117.912,388.735Z" transform="translate(-73.036 -262.987)"/><path class="l" d="M125.181,385a4.529,4.529,0,0,1-7.771-3.16,4.4,4.4,0,0,1,.247-1.463,5.471,5.471,0,0,1,1.988-.367,5.562,5.562,0,0,1,5.537,4.99Z" transform="translate(-80.305 -259.916)"/><path class="l" d="M126.64,403.32a1.7,1.7,0,1,1-1.7-1.7A1.7,1.7,0,0,1,126.64,403.32Z" transform="translate(-84.293 -274.697)"/><path class="l" d="M116.864,398.429a.812.812,0,1,1-.812-.809.812.812,0,0,1,.812.809Z" transform="translate(-78.821 -271.961)"/><path class="e" d="M352.575,283l1.552,2.651-2.282.923-2.449.989-1.311.531-.645-1.574,1.008-.689,2.408-1.65Z" transform="translate(-237.639 -193.564)"/><path class="h" d="M348.482,292a8.7,8.7,0,0,1,.948,1.732l-1.308.531-.632-1.58Z" transform="translate(-237.673 -199.72)"/><path class="i" d="M359.969,283l1.552,2.651-2.282.923a7.666,7.666,0,0,1-.989-2.392Z" transform="translate(-245.033 -193.564)"/><path class="e" d="M345.527,291.7c.673,1.349.948,2.582.594,2.756-.167.085-.452-.1-.774-.468a7.727,7.727,0,0,1-1.071-1.662,8.964,8.964,0,0,1-.559-1.362c-.228-.733-.256-1.264-.035-1.391C344.026,289.4,344.851,290.356,345.527,291.7Z" transform="translate(-234.965 -198.048)"/><path class="j" d="M344.12,294a1.855,1.855,0,0,1,1.182,1.049,3.916,3.916,0,0,1,.449,1.975,7.727,7.727,0,0,1-1.071-1.662A8.962,8.962,0,0,1,344.12,294Z" transform="translate(-235.368 -201.088)"/><path class="e" d="M349.765,263.86l1.071.025,1.264.035,2.019.051-.439,3.451-1.988-.866-1.248-.54-1.135-.49Z" transform="translate(-238.918 -180.473)"/><path class="i" d="M349.762,263.86l1.078.025a19.788,19.788,0,0,1-.4,2.13l-1.135-.49Z" transform="translate(-238.918 -180.473)"/><path class="i" d="M357.258,264.05l2.019.051-.436,3.451-1.991-.866A22.14,22.14,0,0,1,357.258,264.05Z" transform="translate(-244.075 -180.603)"/><path class="e" d="M348.354,259.576c.348.051.493,1.024.316,2.184a4.228,4.228,0,0,1-.585,1.786c-.111.155-.228.237-.335.221-.316-.047-.477-.948-.348-2.026l.019-.158C347.6,260.426,348.013,259.529,348.354,259.576Z" transform="translate(-237.583 -177.542)"/><path class="j" d="M347.44,266.377c.879-.215.809,1.043.683,1.8-.111.155-.228.237-.335.221C347.462,268.356,347.31,267.464,347.44,266.377Z" transform="translate(-237.608 -182.178)"/><path class="e" d="M368.211,296.7l2.023,1.441-1,.888-.348.313-.932.831-.506.452-.689-.749.281-.613.269-.588.31-.676Z" transform="translate(-250.854 -202.935)"/><path class="i" d="M370.071,296.7l2.023,1.441-1,.888A5.944,5.944,0,0,1,369.48,298Z" transform="translate(-252.714 -202.935)"/><path class="h" d="M367.048,304.81a4.88,4.88,0,0,1,.913.91l-.506.452-.686-.749Z" transform="translate(-250.86 -208.482)"/><path class="e" d="M363.806,304.975c.164.145.335.316.5.487.8.853,1.242,1.738.986,1.975-.177.164-.632-.022-1.169-.436a6.178,6.178,0,0,1-.736-.676c-.8-.853-1.242-1.735-.986-1.975C362.618,304.16,363.193,304.432,363.806,304.975Z" transform="translate(-247.824 -208.126)"/><path class="j" d="M363.8,304.975a2.117,2.117,0,0,1,.316,2.026,6.176,6.176,0,0,1-.736-.676c-.8-.853-1.242-1.735-.986-1.975C362.611,304.16,363.186,304.432,363.8,304.975Z" transform="translate(-247.817 -208.126)"/><path class="e" d="M402.8,295.049l2.3-2.029,1.34,2.064,1.441,2.215.768,1.188-1.422.932-.866-.86-2.083-2.051Z" transform="translate(-275.504 -200.418)"/><path class="h" d="M414.08,307.814a8.418,8.418,0,0,1,1.52-1.264l.768,1.185-1.419.932Z" transform="translate(-283.219 -209.672)"/><path class="i" d="M402.8,295.049l2.3-2.029,1.34,2.064a7.623,7.623,0,0,1-2.162,1.425Z" transform="translate(-275.504 -200.418)"/><path class="e" d="M414.672,307.89c1.195-.917,2.354-1.413,2.588-1.106.117.149,0,.461-.316.847A7.791,7.791,0,0,1,415.516,309a8.791,8.791,0,0,1-1.233.809c-.676.36-1.207.5-1.359.3C412.7,309.8,413.478,308.81,414.672,307.89Z" transform="translate(-282.402 -209.77)"/><path class="j" d="M417.33,311.837a1.868,1.868,0,0,1,.806-1.362,3.947,3.947,0,0,1,1.855-.815,7.789,7.789,0,0,1-1.428,1.368A8.791,8.791,0,0,1,417.33,311.837Z" transform="translate(-285.442 -211.799)"/><path class="e" d="M384.907,306l-.177-1.062-.205-1.245-.335-1.991,3.47-.228-.471,2.117-.294,1.327-.265,1.207Z" transform="translate(-262.775 -206.197)"/><path class="i" d="M386.077,313.4l-.177-1.062a19.317,19.317,0,0,1,2.165-.019l-.265,1.207Z" transform="translate(-263.945 -213.606)"/><path class="i" d="M384.525,303.689l-.335-1.991,3.476-.228-.471,2.117a21.812,21.812,0,0,1-2.67.1Z" transform="translate(-262.775 -206.197)"/><path class="e" d="M382.309,315.185c-.019-.351.913-.679,2.079-.74a4.263,4.263,0,0,1,1.868.234c.171.079.272.18.278.288.016.332-.831.648-1.921.73h-.158C383.286,315.767,382.325,315.533,382.309,315.185Z" transform="translate(-261.489 -215.058)"/><path class="j" d="M389.448,316.248c-.379-.825.869-1,1.643-1.018.171.079.272.18.278.288C391.386,315.849,390.539,316.165,389.448,316.248Z" transform="translate(-266.324 -215.609)"/><path class="e" d="M414.78,284.42l1.03-2.26,1.062.809.373.281,1,.758.54.411-.607.815-.654-.158-.629-.152-.724-.174Z" transform="translate(-283.698 -192.99)"/><path class="i" d="M414.78,284.42l1.03-2.26,1.062.809a6.005,6.005,0,0,1-.7,1.782Z" transform="translate(-283.698 -192.99)"/><path class="h" d="M423.45,289.078a4.853,4.853,0,0,1,.721-1.068l.54.411-.607.815Z" transform="translate(-289.628 -196.991)"/><path class="e" d="M424.215,287.414a6.784,6.784,0,0,1,.379-.588c.686-.948,1.473-1.549,1.754-1.343.193.142.1.632-.205,1.232a6.505,6.505,0,0,1-.525.853c-.686.948-1.469,1.545-1.751,1.343C423.643,288.747,423.8,288.147,424.215,287.414Z" transform="translate(-289.843 -195.235)"/><path class="j" d="M424.215,290.11a2.111,2.111,0,0,1,1.928-.7,6.5,6.5,0,0,1-.525.853c-.686.948-1.47,1.545-1.751,1.343C423.643,291.444,423.8,290.844,424.215,290.11Z" transform="translate(-289.843 -197.931)"/><path class="e" d="M378.42,235.5l-2.885,1.049-.5-2.411-.534-2.588-.284-1.384,1.662-.351.5,1.116,1.191,2.667Z" transform="translate(-255.956 -157.184)"/><path class="h" d="M376.378,230.953a8.532,8.532,0,0,1-1.874.632l-.284-1.384,1.662-.351Z" transform="translate(-255.956 -157.211)"/><path class="i" d="M380.191,243.682l-2.885,1.049-.5-2.411a7.639,7.639,0,0,1,2.528-.54Z" transform="translate(-257.728 -165.371)"/><path class="e" d="M370.759,228.1c-1.447.417-2.708.458-2.816.089-.054-.183.18-.427.6-.679a8,8,0,0,1,1.83-.752,9.012,9.012,0,0,1,1.441-.316c.762-.092,1.305-.025,1.375.212C373.294,227.039,372.207,227.683,370.759,228.1Z" transform="translate(-251.658 -154.855)"/><path class="j" d="M373.121,226.57a1.9,1.9,0,0,1-1.245.973,3.947,3.947,0,0,1-2.026.082,8,8,0,0,1,1.83-.752A9.013,9.013,0,0,1,373.121,226.57Z" transform="translate(-252.967 -154.968)"/><path class="e" d="M399.563,236.9l-.221,1.052-.262,1.236-.414,1.978-3.315-1.052,1.21-1.8.755-1.128.689-1.03Z" transform="translate(-270.408 -161.52)"/><path class="i" d="M403.814,236.9l-.218,1.052a19.573,19.573,0,0,1-2.026-.768l.689-1.03Z" transform="translate(-274.663 -161.52)"/><path class="i" d="M399.079,243.849l-.414,1.975-3.315-1.052,1.21-1.8a22.211,22.211,0,0,1,2.519.879Z" transform="translate(-270.408 -166.185)"/><path class="e" d="M404.2,235.66c-.111.316-1.1.3-2.212-.07a4.27,4.27,0,0,1-1.653-.9c-.133-.133-.19-.265-.155-.367.1-.316,1.008-.316,2.054.022a.468.468,0,0,1,.152.047C403.5,234.762,404.309,235.325,404.2,235.66Z" transform="translate(-273.704 -160.11)"/><path class="j" d="M402.259,234.36c.054.9-1.172.61-1.9.344-.133-.133-.19-.265-.155-.367C400.309,234.025,401.213,234.038,402.259,234.36Z" transform="translate(-273.724 -160.125)"/><path class="e" d="M364.6,248.54l-1.782,1.726-.7-1.141-.243-.4-.651-1.068-.354-.581.863-.54.55.386.531.373.61.423Z" transform="translate(-246.825 -168.626)"/><path class="i" d="M367.284,251.1l-1.789,1.732-.7-1.141a5.938,5.938,0,0,1,1.305-1.406Z" transform="translate(-249.513 -171.185)"/><path class="h" d="M362.283,246.936a4.771,4.771,0,0,1-1.059.733l-.354-.581.863-.537Z" transform="translate(-246.825 -168.633)"/><path class="e" d="M357.939,243.85a6.429,6.429,0,0,1-.569.408c-.983.632-1.934.91-2.121.613-.13-.2.136-.632.632-1.068a6.065,6.065,0,0,1,.8-.6c.983-.632,1.931-.91,2.121-.632C358.956,242.817,358.587,243.335,357.939,243.85Z" transform="translate(-242.958 -165.835)"/><path class="j" d="M359.391,243.85a2.111,2.111,0,0,1-2.051-.047,6.064,6.064,0,0,1,.8-.6c.983-.632,1.931-.91,2.121-.632C360.409,242.817,360.039,243.335,359.391,243.85Z" transform="translate(-244.411 -165.835)"/><path class="e" d="M409.558,247.976,407.4,245.8l1.982-1.46,2.127-1.568,1.138-.837,1.014,1.362-.806.916-1.925,2.2Z" transform="translate(-278.65 -165.473)"/><path class="h" d="M421.746,244.209a8.533,8.533,0,0,1-1.346-1.441l1.138-.837,1.014,1.362Z" transform="translate(-287.542 -165.473)"/><path class="i" d="M409.558,253.181,407.4,251l1.982-1.46a7.585,7.585,0,0,1,1.549,2.073Z" transform="translate(-278.65 -170.678)"/><path class="e" d="M421.434,239.109c-.986-1.138-1.549-2.266-1.264-2.528.139-.123.461-.016.863.259a7.919,7.919,0,0,1,1.454,1.346,9.082,9.082,0,0,1,.879,1.182c.4.654.566,1.176.379,1.337C423.46,240.967,422.424,240.249,421.434,239.109Z" transform="translate(-287.334 -161.78)"/><path class="j" d="M425.412,240.068a1.871,1.871,0,0,1-1.406-.724,3.953,3.953,0,0,1-.926-1.8,7.921,7.921,0,0,1,1.454,1.346A9.083,9.083,0,0,1,425.412,240.068Z" transform="translate(-289.375 -162.471)"/><path class="e" d="M421.39,271.038l-1.046.24-1.232.281-1.969.449-.433-3.448,2.143.341,1.343.215,1.22.2Z" transform="translate(-285.018 -183.688)"/><path class="i" d="M428.935,272.241l-1.046.24a18.652,18.652,0,0,1-.149-2.162l1.22.2Z" transform="translate(-292.562 -184.891)"/><path class="i" d="M419.112,271.559l-1.969.449-.433-3.448,2.143.341A22.094,22.094,0,0,1,419.112,271.559Z" transform="translate(-285.018 -183.688)"/><path class="e" d="M430.836,271.38c-.348.038-.733-.869-.86-2.032a4.26,4.26,0,0,1,.123-1.877c.066-.177.161-.281.269-.294.316-.038.7.79.841,1.874a.392.392,0,0,0,.022.158C431.358,270.372,431.181,271.343,430.836,271.38Z" transform="translate(-294.056 -182.741)"/><path class="j" d="M431.6,269.051c-.8.427-1.043-.809-1.109-1.58.066-.177.161-.281.269-.294C431.084,267.139,431.451,267.967,431.6,269.051Z" transform="translate(-294.443 -182.741)"/><path class="e" d="M379.036,253.638v.155a9.746,9.746,0,1,1-.047-1.169C379.017,252.956,379.036,253.3,379.036,253.638Z" transform="translate(-245.919 -166.791)"/><path class="k" d="M378.887,259.206a9.778,9.778,0,1,1-16.3-7.436c-.818,3.571-1.457,9.048,3.606,11.693C372.611,266.807,377.525,263.125,378.887,259.206Z" transform="translate(-245.773 -172.204)"/><path class="l" d="M391.512,252.639a7.951,7.951,0,0,1-13.652-5.546,7.824,7.824,0,0,1,.43-2.576,9.8,9.8,0,0,1,13.223,8.122Z" transform="translate(-258.446 -166.805)"/><circle class="l" cx="2.986" cy="2.986" r="2.986" transform="translate(122.654 89.079)"/><circle class="l" cx="1.422" cy="1.422" r="1.422" transform="translate(118.245 86.848)"/><path class="m" d="M92.679,170.962a8.286,8.286,0,0,1-1.011,3.5,10.331,10.331,0,0,1-8.248,5.322c-5.524.344-11.551-3.754-11.27-9.361.357-6.994,6.858-13.94,9.038-15.8a2.449,2.449,0,0,1,.689-.49,9.412,9.412,0,0,1,2.506,1.931c2.958,2.765,7.515,8.071,8.217,13.156a8.849,8.849,0,0,1,.079,1.744Z" transform="translate(-49.342 -105.421)"/><path class="n" d="M91.667,175.52a10.331,10.331,0,0,1-8.248,5.322c-5.524.344-11.551-3.754-11.27-9.361.357-6.994,6.858-13.94,9.038-15.8C79.424,163.072,76.52,179.6,91.667,175.52Z" transform="translate(-49.342 -106.481)"/><path class="o" d="M114.941,173.376a8.056,8.056,0,0,1-2.3.24,8.154,8.154,0,0,1-7.822-8.47,8.052,8.052,0,0,1,1.9-4.927C109.686,162.995,114.243,168.291,114.941,173.376Z" transform="translate(-71.687 -109.586)"/><circle class="o" cx="4.216" cy="4.216" r="4.216" transform="translate(28.896 70.801) rotate(-88.63)"/><path class="m" d="M53.669,253.984a5.493,5.493,0,0,1-.67,2.323,6.871,6.871,0,0,1-5.483,3.536c-3.672.231-7.676-2.493-7.49-6.219.237-4.649,4.557-9.266,6-10.508a1.558,1.558,0,0,1,.458-.316,6.247,6.247,0,0,1,1.662,1.283c1.969,1.839,5,5.372,5.461,8.745A5.793,5.793,0,0,1,53.669,253.984Z" transform="translate(-27.373 -166.068)"/><path class="n" d="M53,256.991a6.871,6.871,0,0,1-5.483,3.536c-3.672.231-7.676-2.493-7.49-6.219.237-4.649,4.557-9.266,6-10.508C44.862,248.717,42.934,259.7,53,256.991Z" transform="translate(-27.373 -166.752)"/><path class="o" d="M68.423,255.574a5.335,5.335,0,0,1-1.53.158,5.417,5.417,0,0,1-3.931-8.9C64.947,248.669,67.971,252.2,68.423,255.574Z" transform="translate(-42.193 -168.825)"/><path class="o" d="M58.655,274.636a2.8,2.8,0,1,1-.741-2.013A2.8,2.8,0,0,1,58.655,274.636Z" transform="translate(-36.29 -185.851)"/><path class="p" d="M262.179,77.4a10.19,10.19,0,0,1-1.147.521c-6.431,2.633-35.357,12.129-42.894,13.251a56.318,56.318,0,0,1-7.107.5c-5.805.114-11.63-.126-16.715,1.8-.2.073-.389.152-.581.231a39.655,39.655,0,0,1-8.65,2.844c-2.092.316-3.562-.063-4.614-1.21-2.057-2.256,2.737-7.752,11.244-10.113l.806-.212c9.01-2.228,16.2-7.585,9.316-9.819s-12.047-1.014-17.517,5.372-8,12.151-11.44,11.443-1.921-7.392-.913-9.313,3.476-5.986,3.242-5.976c-.714.025-8,4.048-9.822,1.925s7.9-8.1,7.291-8.4-4.861,0-4.759-2.127,13.769-7.7,17.619-9.316a17,17,0,0,1,13.567-.316c4.962,2.111,16.4,8.3,19.847,7.8a19.442,19.442,0,0,0,4.093-1.808c5.426-2.844,14.67-8.447,21.057-12.391,2.6-1.6,4.74-2.933,5.929-3.691l1.014-.632c1.416-.91,2.329-1.112,3.138.316.49.856,3.6,9.016,6.1,15.95.446,1.245.875,2.449,1.264,3.568,1.037,2.968,1.8,5.309,1.95,6.1C263.655,74.517,264.508,75.984,262.179,77.4Z" transform="translate(-112.964 -32.169)"/><path class="g" d="M188.27,101.587a.348.348,0,0,1-.278-.145.335.335,0,0,1,.089-.468c6.814-4.69,13.431-8.586,13.494-8.624a.336.336,0,0,1,.341.578c-.066.038-6.662,3.925-13.456,8.6A.344.344,0,0,1,188.27,101.587Z" transform="translate(-128.541 -63.132)"/><path class="g" d="M196.275,121.227a.335.335,0,0,1-.278-.521,38.532,38.532,0,0,1,9.042-9.244h0a.316.316,0,0,1,.218-.082.338.338,0,0,1,.335.335.4.4,0,0,1-.167.294,37.785,37.785,0,0,0-8.874,9.067A.341.341,0,0,1,196.275,121.227Z" transform="translate(-134.018 -76.181)"/><path class="g" d="M445.861,77.372a10.188,10.188,0,0,1-1.147.521c-2.49-6.637-8.356-22.28-11-29.549l1.014-.632c1.416-.91,2.329-1.112,3.138.316s8.811,22.884,9.316,25.617C447.337,74.49,448.19,75.956,445.861,77.372Z" transform="translate(-296.646 -32.142)"/><path class="q" d="M361.459,121.835a10.194,10.194,0,0,1-1.147.521c-6.431,2.633-35.357,12.129-42.894,13.251a56.32,56.32,0,0,1-7.107.5c1-2.528,10.284-2.443,23.19-8.9,10.824-5.414,22.631-12.395,27.327-15.21,1.037,2.967,1.8,5.309,1.95,6.1C362.935,118.953,363.788,120.419,361.459,121.835Z" transform="translate(-212.243 -76.605)"/><path class="r" d="M360.73,71.9c-5.717,2.876-10.941,4.288-12.41,3.438,5.426-2.844,14.67-8.447,21.057-12.391.755.019,1.264.205,1.444.575C371.554,64.982,367.038,68.73,360.73,71.9Z" transform="translate(-238.241 -43.056)"/><circle class="r" cx="2.569" cy="2.569" r="2.569" transform="translate(108.291 38.18) rotate(-45)"/><path class="s" d="M185.433,186.743h0l-2.693.294-1.353.142h0l-.531.06-1.239.136-1.188.126-1.356.149-2.955.316-1.349.145h0l-2.528.272.095.771.149,1.226.828-.088.9-.1.8-.085,1.353-.149,2.952-.316,1.353-.149h0l1.289-.139.679-.076.894-.095h.079l1.353-.145h0l2.693-.291h0Zm0,0-2.693.294-1.353.142h0l-.531.06-1.239.136c-.259.518-.471.885-.664.948a3.964,3.964,0,0,1-.417.063c-.316.041-.787.092-1.356.149-.834.085-1.9.18-2.958.281l-1.356.12c-.907.085-1.789.161-2.528.228l.149,1.226.828-.088.9-.1.8-.085,1.353-.149,2.952-.316,1.353-.149h0l1.289-.139.679-.076.894-.095h.079l1.353-.145h0l2.693-.291Zm10.113,63.221L189.33,192.6l-.18-1.659h0l-.243-2.253v-.022a2.279,2.279,0,0,0-2.114-2.032,2.358,2.358,0,0,0-.4,0l-.948.1h0l-2.693.294-1.353.142h0l-.531.06-1.255.142-1.188.126-1.356.149-2.955.316-1.349.145h0l-2.528.272-1.356.149-1.409.152-.316.035a2.247,2.247,0,0,0-1.217.512,2.319,2.319,0,0,0-.316.316,2.288,2.288,0,0,0-.506,1.549.582.582,0,0,0,0,.13l.193,1.8,6.431,59.5A11.949,11.949,0,0,0,183.6,263.184a12.077,12.077,0,0,0,1.305-.07,11.949,11.949,0,0,0,10.628-13.166Zm-4.137,7.506a9.926,9.926,0,0,1-17.606-5.158l-6.441-59.439-.2-1.865a.212.212,0,0,1,0-.114.221.221,0,0,1,.041-.082.256.256,0,0,1,.183-.1l1.744-.186,1.353-.149.828-.089.9-.1.8-.085,1.353-.149,2.952-.316,1.353-.149h0l1.289-.139.679-.076.894-.095h.079l1.353-.145h0l2.693-.291h0l.929-.1h.028a.265.265,0,0,1,.265.237v.028l.288,2.648h0l.193,1.782,6.166,56.834a9.863,9.863,0,0,1-2.13,7.291Zm-5.976-70.727h0l-2.693.294-1.353.142h0l-.531.06-1.239.136-1.188.126-1.356.149-2.955.316-1.349.145h0l-2.528.272.095.771.149,1.226.828-.088.9-.1.8-.085,1.353-.149,2.952-.316,1.353-.149h0l1.289-.139.679-.076.894-.095h.079l1.353-.145h0l2.693-.291h0Z" transform="translate(-112.936 -127.645)"/><path class="m" d="M195.375,287.806a8.008,8.008,0,0,1-8.694-7.253l-5.42-50.16a.986.986,0,0,1,.891-1.071l.616-.057,13.368-1.2a.983.983,0,0,1,1.071.894l5.037,46.63.382,3.527a8,8,0,0,1-7.253,8.694Z" transform="translate(-123.975 -155.984)"/><path class="n" d="M195.375,290.421a8.008,8.008,0,0,1-8.694-7.253l-5.42-50.16a.986.986,0,0,1,.891-1.071l.616-.057c.746,8.2,4.9,45.173,19.477,46.32l.382,3.527a8,8,0,0,1-7.253,8.694Z" transform="translate(-123.975 -158.599)"/><path class="t" d="M198.875,245.835l-9.316,1.116-5.088-54.275,9.32-1.116Z" transform="translate(-126.172 -131.022)"/><path class="u" d="M201.8,246.545l-9.316,1.112L187.4,193.382l9.316-1.112Z" transform="translate(-128.176 -131.507)"/><path class="v" d="M181.979,184.009l.423,3.916a17.579,17.579,0,0,1-1.944.74c-4.213,1.3-6.469-.167-7.553-1.413l-12.47.948-2.01.152-.193-1.8a.571.571,0,0,1,0-.126l-.316.032-1.789.183a.654.654,0,0,1-.714-.581l-.423-4.213,2.354-.18,1.359-.1,1.64-.123,1.343-.1,1.359-.1h0l2.528-.193,1.359-.1,2.961-.224h0l1.359-.1,2.272-.171.392-.032.288-.019,1.359-.1,2.708-.205,1.359-.1,2.449-.183.344,3.543A.632.632,0,0,1,181.979,184.009Z" transform="translate(-106.009 -122.971)"/><path class="w" d="M181.188,173.813a.4.4,0,0,1-.136.032l-1.7.171-.161.016-1.195.12-2.7.272-1.356.139-2.945.316-1.356.136-2.952.316-1.356.133-2.528.259-1.356.133-1.988.2-1,.1-1.03.1-.316.032-1.789.183a.654.654,0,0,1-.714-.581l-.423-4.213-.354-3.476a.648.648,0,0,1,.36-.632.531.531,0,0,1,.224-.066l1.624-.164,1.356-.139,1.732-.174,1.229-.123,1.356-.139,2.528-.256,1.356-.136,2.955-.3,1.356-.133,2.942-.316,1.353-.136,2.7-.272,1.356-.139,1.9-.19a.734.734,0,0,1,.221,0,.679.679,0,0,1,.253.126.632.632,0,0,1,.237.442l.42,4.143.344,3.533A.632.632,0,0,1,181.188,173.813Z" transform="translate(-105.218 -112.776)"/><g class="x" transform="translate(50.814 52.28)"><path class="w" d="M163.217,181.063l-1.03.1-.326.032-.572-4.791-.411-3.413-.013-.126-.076-.629,1.356-.139.06.493.057.48.386,3.23.36,2.99Z" transform="translate(-160.79 -169.992)"/><path class="w" d="M176.9,179.683l-1.356.133-.174-1.419-.923-7.537,1.356-.139.926,7.553Z" transform="translate(-170.133 -169.048)"/><path class="w" d="M189.192,178.443l-1.353.133-.167-1.375-.932-7.585,1.356-.136.929,7.6Z" transform="translate(-178.539 -168.2)"/><path class="w" d="M202.832,177.069l-1.356.136-.164-1.346-.932-7.616,1.353-.133.935,7.6Z" transform="translate(-187.868 -167.263)"/><path class="w" d="M216.436,175.686l-1.356.139-.651-5.306-.449-3.653,1.353-.136.3,2.459Z" transform="translate(-197.17 -166.319)"/><path class="w" d="M229.256,174.389l-1.356.139-1.027-8.365-.073-.594,1.356-.139.044.367Z" transform="translate(-205.939 -165.43)"/></g><path class="q" d="M181.188,173.825a.4.4,0,0,1-.136.032l-1.7.171-.161.016-1.195.12-2.7.272-1.356.139L171,174.89l-1.356.136-2.952.316-1.356.133-2.528.259-1.356.133-1.988.2-1,.1-1.03.1-.316.032-1.789.183a.654.654,0,0,1-.714-.581l-.423-4.213-.354-3.476a.648.648,0,0,1,.36-.632.531.531,0,0,1,.224-.066l1.624-.164,1.356-.139,1.732-.174a3.5,3.5,0,0,0,.041.354c.025.234.054.512.085.818.092.913.205,2.086.284,3.081.047.594.085,1.128.095,1.507a4.108,4.108,0,0,0,.145,1.059c.2.632.54.7.79.664l.711-.07c.351-.028.819-.073,1.359-.123l2.528-.224,1.353-.123c1.078-.1,2.124-.2,2.958-.281.569-.057,1.04-.107,1.356-.145a3.635,3.635,0,0,0,.417-.066c.193-.057.4-.42.667-.948a23.206,23.206,0,0,1,1.2-2.288c.076-.123.161-.25.243-.37s.123-.177.193-.265a14.574,14.574,0,0,1,1-1.214,13.494,13.494,0,0,1,2.462-2.035h.022a8.07,8.07,0,0,1,.736-.433h0c.19-.1.367-.2.54-.281a11.012,11.012,0,0,1,2.051-.758.679.679,0,0,1,.253.126.632.632,0,0,1,.237.442l.42,4.143.357,3.536A.632.632,0,0,1,181.188,173.825Z" transform="translate(-105.218 -112.787)"/><path class="y" d="M181.3,163.723c.025.281-.632.607-1.808.948a71.025,71.025,0,0,1-11.282,1.789,68.877,68.877,0,0,1-11.8.316c-.98-.117-1.542-.316-1.58-.55-.076-.828,5.786-2.048,13.09-2.734S181.223,162.9,181.3,163.723Z" transform="translate(-105.898 -111.512)"/><path class="z" d="M181.336,163.7c.025.281-.632.607-1.808.948a101.737,101.737,0,0,0-23.07,2.089c-.98-.117-1.542-.316-1.58-.55-.076-.828,5.786-2.048,13.09-2.734S181.257,162.881,181.336,163.7Z" transform="translate(-105.932 -111.492)"/><path class="p" d="M226.408,176.121c-.2.073-.389.152-.581.231-7.288,3.037-11.134,3.95-13.273,1.621-2.057-2.256,2.737-7.752,11.244-10.113C224.287,169.434,225.5,173.277,226.408,176.121Z" transform="translate(-145.056 -114.812)"/><text class="aa" transform="translate(63.433 75.671) rotate(84.08)"><tspan class="ab" x="0" y="0">T</tspan><tspan y="0">est result</tspan></text><path class="ac" d="M211.387,312.51l-3.517.363.357,3.517,3.514-.363Zm-2.822,3.476-.288-2.778,2.778-.288.288,2.778Z" transform="translate(-142.177 -213.748)"/><path class="ac" d="M213.264,331l-3.514.367.344,3.337.019.177h.06l3.448-.363Zm-2.8,3.476-.288-2.781,2.778-.288.288,2.778Z" transform="translate(-143.463 -226.395)"/></g></g></svg>