<svg xmlns="http://www.w3.org/2000/svg" width="295.237" height="243.878" viewBox="0 0 295.237 243.878">
  <g id="Group_27060" data-name="Group 27060" transform="translate(0 37)">
    <path id="Path_20500" data-name="Path 20500" d="M94.3,60.89S42.345,50.107,26.171,78.864s3.592,53.725,10.783,75.607-8.087,34.161-8.99,63.066S52.9,243.82,121.248,243.82s152.927-.984,161.91-.984,26.681-30.434-3.956-54.311-14-38.023,10.028-54.089S337.247,47.85,279.2,13.716s-114.567,2.7-128.315,31.9S94.3,60.89,94.3,60.89Z" transform="translate(-19.972 -37.004)" fill="#e0eaff"/>
    <g id="Layer_2" data-name="Layer 2" transform="translate(47.416 28.713)">
      <g id="Layer_3" data-name="Layer 3">
        <path id="Path_20544" data-name="Path 20544" d="M167.551,146.128c2.046,0,3.938-.133,5.8.028a8.324,8.324,0,0,1,7.581,8.81,8.447,8.447,0,0,1-8.336,8.04H8.774a8.477,8.477,0,1,1-.212-16.949c1.151-.018,2.3,0,3.588,0V127.579A12.292,12.292,0,0,1,15,119.244a11.853,11.853,0,0,1,9.411-4.309q22.546-.016,45.092,0a11.932,11.932,0,0,1,12.107,10,10.519,10.519,0,0,1,.129,1.872q.014,8.969,0,17.936v1.232H97.968V127.262a11.966,11.966,0,0,1,12.224-12.327q22.6-.04,45.191,0a11.954,11.954,0,0,1,12.17,12.287V144.86Z" fill="#e4a22f"/>
        <path id="Path_20545" data-name="Path 20545" d="M73.578,65.411c.772-.623,1.371-1.115,1.985-1.588a19.087,19.087,0,0,0,5.515-5.877,6.372,6.372,0,0,0-1.786-8.318c-4.94-3.985-8.6-8.864-10.025-15.141-1.786-7.857.232-14.859,5.277-21,5.3-6.45,12.287-10.237,20.3-12.1,11.632-2.717,22.824-1.524,33.331,4.4,5.529,3.118,10.039,7.355,12.72,13.19,4.229,9.2,2.9,17.836-3.3,25.7-4.962,6.3-11.684,9.957-19.3,12.091a49.25,49.25,0,0,1-16,1.53,10.166,10.166,0,0,0-6.748,1.739,30.3,30.3,0,0,1-14.407,5.9,47.777,47.777,0,0,1-6.5-.085A4.486,4.486,0,0,1,73.578,65.411ZM83.662,29.246a5.359,5.359,0,1,0,3.27-4.985,5.307,5.307,0,0,0-3.27,4.985Zm22.885,5.309a5.359,5.359,0,1,0-4.832-2.651,5.4,5.4,0,0,0,4.832,2.651Zm17.664,0A5.359,5.359,0,1,0,118.89,29.2a5.359,5.359,0,0,0,5.321,5.359Z" fill="#e22c24"/>
        <path id="Path_20546" data-name="Path 20546" d="M132.745,109.316a21.705,21.705,0,1,1,21.72-21.5A21.6,21.6,0,0,1,132.745,109.316Z" fill="#e4a22f"/>
        <path id="Path_20547" data-name="Path 20547" d="M68.726,87.626a21.77,21.77,0,1,1-6.42-15.388,21.809,21.809,0,0,1,6.42,15.388Z" fill="#e4a22f"/>
      </g>
    </g>
  </g>
</svg>
