<svg xmlns="http://www.w3.org/2000/svg" width="295.237" height="243.878" viewBox="0 0 295.237 243.878">
  <g id="Group_27061" data-name="Group 27061" transform="translate(0 0)">
    <path id="Path_20528" data-name="Path 20528" d="M94.3,60.89S42.345,50.107,26.171,78.864s3.592,53.725,10.783,75.607-8.087,34.161-8.99,63.066S52.9,243.82,121.248,243.82s152.927-.984,161.91-.984,26.681-30.434-3.956-54.311-14-38.023,10.028-54.089S337.247,47.85,279.2,13.716s-114.567,2.7-128.315,31.9S94.3,60.89,94.3,60.89Z" transform="translate(-19.972 -0.004)" fill="#e0eaff"/>
    <g id="Layer_2" data-name="Layer 2" transform="translate(77 92.574)">
      <g id="Layer_3" data-name="Layer 3">
        <path id="Path_20572" data-name="Path 20572" d="M0,8.142A.951.951,0,0,1,.17,7.6C4.4,1.56,10.325-.1,17.555,0c20.306.295,40.62.07,60.93.081,10.767,0,15.243,4.425,15.277,15.048V28.606a.944.944,0,0,0,.675.892l5.188,1.534c16.575,4.875,26.947,21.317,23.82,37.758-3.079,16.184-18.477,28.024-35.185,27.058-17.6-1.018-31.671-14.432-32.246-30.727-.1-2.707-.409-5.738,3.381-6.051,3.658-.3,4.1,2.412,4.4,5.291,1.427,13.374,11.35,23.086,24.078,23.706,14.012.682,25.008-7.773,27.755-21.335,1.877-9.285-2.906-19.705-11.586-25.229-7.566-4.816-17.172-5.45-24.591-1.549a.937.937,0,0,0,.369,1.766,3.2,3.2,0,0,1,1.5.424,16.033,16.033,0,0,1,3.223,3.267.937.937,0,0,1,0,1.232c-1.106,1.2-2.157,2.762-3.319,2.847-5.631.395-11.309.236-16.962.14-3.61-.059-4.554-2.389-3.842-5.461a125.1,125.1,0,0,1,3.861-14.432c.616-1.81,2.828-4.3,4.344-4.3,2.979-.029,3.724,2.7,3.249,5.531a7.15,7.15,0,0,0-.055,1.449.94.94,0,0,0,1.191.855c3.894-1.106,7.622-2.12,11.235-3.429.841-.306,1.622-2,1.667-3.083.188-4.322.162-8.658.048-12.983-.107-4.056-2.471-6.032-6.416-6.036q-32.714-.044-65.417,0c-4.17,0-6.35,1.936-6.339,6.445q.114,48.452,0,96.9c0,4.521,2.028,6.438,6.268,6.442q32.718.029,65.428,0c4.539,0,6.685-2.308,6.556-6.836-.055-2-.45-4.163.181-5.944.531-1.5,2.367-3.569,3.547-3.521,1.361.055,3.514,1.987,3.805,3.411,2.212,10.859-.638,16.364-10.446,21a.959.959,0,0,1-.406.092H11.294l-.553-.181c-3.875-1.283-5.811-1.925-7.153-3.116a16.383,16.383,0,0,1-3.2-4.425l-.147-.288L0,117.258Z" fill="#e22c24"/>
        <path id="Path_20573" data-name="Path 20573" d="M96.487,66.8a2.5,2.5,0,0,0-2.636,2.648,13.918,13.918,0,0,1-.273,5.044,9.086,9.086,0,0,1-2.327,3.285,2.507,2.507,0,0,1-3.525.07c-1.106-1.051-2.161-2.109-2.378-3.319a31.394,31.394,0,0,1,.037-11.35,7.033,7.033,0,0,1,4.576-4.521,41.877,41.877,0,0,1,12.349,0c1.021.14,1.932,1.077,2.832,2.076a2.5,2.5,0,0,1,.026,3.337,7.47,7.47,0,0,1-3.075,2.452A16.541,16.541,0,0,1,96.487,66.8Z" fill="#b90b06"/>
        <path id="Path_20574" data-name="Path 20574" d="M34.455,62.906c4.137,0,8.33-.391,12.382.188a3.075,3.075,0,0,1,1.4.642,4.115,4.115,0,0,1,.077,6.611,2.039,2.039,0,0,1-1.106.45c-8.588.369-17.205.4-25.786,0a2.463,2.463,0,0,1-1.512-.837,4.108,4.108,0,0,1,.737-6.56,2.529,2.529,0,0,1,.937-.321C25.811,62.582,30.155,62.91,34.455,62.906Z" fill="#b90b06"/>
        <path id="Path_20575" data-name="Path 20575" d="M34.4,83.861c4.156,0,8.356-.347,12.448.162a2.924,2.924,0,0,1,.97.324,4.107,4.107,0,0,1,.756,6.593,2.47,2.47,0,0,1-1.475.8c-8.621.406-17.283.369-25.9,0a2.515,2.515,0,0,1-1.545-.911,4.119,4.119,0,0,1,.369-6.051,2.95,2.95,0,0,1,1.475-.737C25.708,83.522,30.07,83.865,34.4,83.861Z" fill="#b90b06"/>
        <path id="Path_20576" data-name="Path 20576" d="M34.1,20.9c4.159,0,8.378-.391,12.456.184,1.158.162,2.212,1.162,3.237,2.212a2.463,2.463,0,0,1,.133,3.319c-.992,1.173-1.984,2.3-3.031,2.356a239.324,239.324,0,0,1-24.934.026c-1.106-.059-2.179-1.268-3.238-2.515a2.459,2.459,0,0,1,.21-3.407,6.624,6.624,0,0,1,3.212-2C26.062,20.509,30.111,20.9,34.1,20.9Z" fill="#b90b06"/>
        <path id="Path_20577" data-name="Path 20577" d="M34.355,41.877c3.993,0,7.99.037,11.984,0,2.928-.037,5.336,1.268,4.9,4.148-.232,1.53-2.909,3.746-4.572,3.824-8.3.391-16.645.391-24.945,0-.933-.07-1.807-.94-2.71-1.914a2.95,2.95,0,0,1,.088-4.056,5.527,5.527,0,0,1,2.8-1.844C25.977,41.494,30.192,41.877,34.355,41.877Z" fill="#b90b06"/>
      </g>
    </g>
  </g>
</svg>
