<svg xmlns="http://www.w3.org/2000/svg" width="295.237" height="243.878" viewBox="0 0 295.237 243.878">
  <g id="Group_27057" data-name="Group 27057" transform="translate(0.001 0)">
    <path id="Path_20500" data-name="Path 20500" d="M94.3,60.89S42.345,50.107,26.171,78.864s3.592,53.725,10.783,75.607-8.087,34.161-8.99,63.066S52.9,243.82,121.248,243.82s152.927-.984,161.91-.984,26.681-30.434-3.956-54.311-14-38.023,10.028-54.089S337.247,47.85,279.2,13.716s-114.567,2.7-128.315,31.9S94.3,60.89,94.3,60.89Z" transform="translate(-19.973 -0.004)" fill="#e0eaff"/>
    <g id="Layer_2" data-name="Layer 2" transform="translate(30.617 60.998)">
      <g id="Layer_2-2" data-name="Layer 2" transform="translate(1 1)">
        <path id="Path_20533" data-name="Path 20533" d="M168.068,84.737c-.487,4.9-.941,9.487-1.386,13.907v.1l-4.949,41.762a14.143,14.143,0,0,1-.84,3.361,17.646,17.646,0,0,1-12.394,8.957h0a15.748,15.748,0,0,1-2.823.227c-25.645-.294-49.459-.655-74.743-.975H68.956l-10.033-.118a3.84,3.84,0,0,1-3.79-3.538q-3.361-42.653-6.764-85.305a1.344,1.344,0,0,1,1.37-1.437h28.3A6,6,0,0,1,83.7,65.7l1.68,4.772A2.714,2.714,0,0,0,87.9,72.284l57.416.538a1.907,1.907,0,0,1,1.874,1.6l.4,2.437c.723,3.806,1.05,4.563,5.134,4.563h12.327a2.983,2.983,0,0,1,2.361,1.151h0A3,3,0,0,1,168.068,84.737Z" transform="translate(-8.565 -10.692)" fill="#e22c24" stroke="#8a0903" stroke-width="3"/>
        <path id="Path_20534" data-name="Path 20534" d="M172.208,88.847l-1.613,13.6v.1l-4.949,41.762a14.008,14.008,0,0,1-13.234,12.352h-.84L74.819,155.9H72.87L78.3,87.923a2.6,2.6,0,0,1,2.6-2.4h88.347a2.991,2.991,0,0,1,2.109.84h0a2.983,2.983,0,0,1,.857,2.487Z" transform="translate(-12.479 -14.499)" fill="#fff" stroke="#8a0903" stroke-width="3"/>
        <line id="Line_467" data-name="Line 467" y1="3.218" x2="10.613" transform="translate(87.541 95.473)" fill="#008a2a"/>
        <path id="Path_20535" data-name="Path 20535" d="M105,117.082c1.681-.756,3.437-1.386,5.185-2,.882-.286,1.748-.6,2.638-.84s1.681-.79,2.79-.353l.37,1.218c-.672.975-1.681.933-2.521,1.26a27.15,27.15,0,0,1-2.672.739c-1.79.462-3.588.908-5.428,1.218Z" transform="translate(-17.611 -19.004)" fill="#8a0903"/>
        <line id="Line_468" data-name="Line 468" x2="10.714" y2="2.84" transform="translate(123.244 94.876)" fill="#008a2a"/>
        <path id="Path_20536" data-name="Path 20536" d="M147.8,113.17c1.849.252,3.655.63,5.462,1.034.9.21,1.807.412,2.7.647s1.857.218,2.563,1.168l-.328,1.227c-1.084.479-1.891-.076-2.8-.252s-1.781-.513-2.664-.773c-1.773-.546-3.529-1.118-5.26-1.815Z" transform="translate(-24.394 -18.916)" fill="#8a0903"/>
        <circle id="Ellipse_750" data-name="Ellipse 750" cx="3.403" cy="3.403" r="3.403" transform="translate(91.339 106.892)" fill="#8a0903"/>
        <circle id="Ellipse_751" data-name="Ellipse 751" cx="3.403" cy="3.403" r="3.403" transform="translate(123.244 106.892)" fill="#8a0903"/>
        <path id="Path_20537" data-name="Path 20537" d="M130.85,150.544a36.542,36.542,0,0,1,6.638-.311" transform="translate(-21.739 -24.829)" fill="none" stroke="#8a0903" stroke-width="2"/>
        <path id="Path_20538" data-name="Path 20538" d="M231.405,30.284c.26,11.814-8.327,20.444-9.983,22.1-5.882,5.882-13.705,9.041-19.52,11.369-2.958,1.185-5.487,1.991-7.294,2.521l3.647-6.453a28.175,28.175,0,0,1-9.067-2.773,32.183,32.183,0,0,1-6.722-4.7c-4.58-4.294-9.789-12.7-9.638-22.066C173.065,16.755,184.593,1,202.122,1,219.793,1,231.111,17.083,231.405,30.284Z" transform="translate(-28.444 -1)" fill="none" stroke="#8a0903" stroke-width="2"/>
        <path id="Path_20539" data-name="Path 20539" d="M195.78,27.629a16.713,16.713,0,0,1,9.781-5.613c2.092-.37,4.6-.345,5.739,1.773a6.722,6.722,0,0,1,.681,2.874,9.747,9.747,0,0,1-.521,3.907,7.655,7.655,0,0,1-2.7,3.277c-3.479,2.807-7.033,4.689-11.571,4.739a.538.538,0,0,1-.4-.109.42.42,0,0,1-.092-.311c0-.84.84-1.336,1.529-1.681a29.381,29.381,0,0,1,7.134-3.1,32.51,32.51,0,0,1,8.361-.714c1.47.067,3.176,1.185,2.9,2.849a4.084,4.084,0,0,1-1.328,2.017c-3.806,3.848-8.84,7.479-14.344,8.243,0,0,.4-.916.479-1.017a3.285,3.285,0,0,1,1.3-.765,39.435,39.435,0,0,1,11.251-2.521,2.067,2.067,0,0,1,1.134.134c1.26.681.605,1.966-.151,2.773-2.235,2.37-5.882,2.311-8,4.7" transform="translate(-32.11 -4.328)" fill="none" stroke="#8a0903" stroke-width="2"/>
        <circle id="Ellipse_752" data-name="Ellipse 752" cx="5.974" cy="5.974" r="5.974" transform="translate(176.888 102.514)" fill="#e22c24" stroke="#8a0903" stroke-width="2"/>
        <circle id="Ellipse_753" data-name="Ellipse 753" cx="4.227" cy="4.227" r="4.227" transform="translate(0 79.138)" fill="#e22c24" stroke="#8a0903" stroke-width="2"/>
        <circle id="Ellipse_754" data-name="Ellipse 754" cx="4.227" cy="4.227" r="4.227" transform="translate(90.515 29.939)" fill="#e22c24" stroke="#8a0903" stroke-width="2"/>
        <circle id="Ellipse_755" data-name="Ellipse 755" cx="3.109" cy="3.109" r="3.109" transform="translate(191.551 92.288)" fill="#e22c24" stroke="#8a0903" stroke-width="2"/>
        <path id="Path_20540" data-name="Path 20540" d="M57.64,33.18c.328,1.681,2.37,2.235,3.361,3.58.487.664.731,1.521,1.378,2.025" transform="translate(-10.046 -6.14)" fill="none" stroke="#8a0903" stroke-width="2"/>
        <path id="Path_20541" data-name="Path 20541" d="M57.31,38.664q3.033-2.647,5.882-5.5" transform="translate(-9.994 -6.137)" fill="none" stroke="#8a0903" stroke-width="2"/>
        <path id="Path_20542" data-name="Path 20542" d="M32.69,137.19A6.033,6.033,0,0,1,35,138.946l4.117,4.344" transform="translate(-6.061 -22.752)" fill="none" stroke="#8a0903" stroke-width="2"/>
        <path id="Path_20543" data-name="Path 20543" d="M32.65,143.133a2.109,2.109,0,0,0,1.865-.992c.479-.63.891-1.319,1.428-1.9s1.227-.908,1.765-1.47a2.227,2.227,0,0,0,.681-1.412" transform="translate(-6.055 -22.779)" fill="none" stroke="#8a0903" stroke-width="2"/>
      </g>
    </g>
    <ellipse id="Ellipse_756" data-name="Ellipse 756" cx="46.5" cy="8" rx="46.5" ry="8" transform="translate(84.617 214.939)" fill="#f1a4a4" opacity="0.5"/>
  </g>
</svg>
