<svg xmlns="http://www.w3.org/2000/svg" width="41.943" height="38.515" viewBox="0 0 41.943 38.515"><defs><style>.a{fill:#00b592;}.b,.f,.g{fill:none;}.c{fill:#329dd8;}.d{fill:#f9b978;}.e{fill:#f15a24;}.f{stroke:#00b592;stroke-width:3px;}.f,.g{stroke-miterlimit:10;}.g{stroke:#000;stroke-width:6px;}.h{opacity:0.2;}.i{opacity:0.6;}</style></defs><g transform="translate(-32.038 -43.221)"><g transform="translate(33.477 43.221)"><path class="a" d="M51.666,204.054c-10.046,0-18.189,1.107-18.189,2.472h2.011c0-1,7.243-1.8,16.179-1.8s16.179.808,16.179,1.8h2.011C69.856,205.161,61.712,204.054,51.666,204.054Z" transform="translate(-33.477 -189.375)"/><ellipse class="b" cx="16.179" cy="1.804" rx="16.179" ry="1.804" transform="translate(2.011 15.256)"/><g transform="translate(19.022)"><path class="a" d="M250.439,138.239c-.161-.127-.354-.154-.415-.057-.2.316-.612.967-.883,1.318l-2.718,3.557c-.326.426-4.529,5.614-4.529,5.614.848.628,11.286.054,11.6-.382l2.607-3.64a12.888,12.888,0,0,1,1.007-1.244c.079-.086,0-.265-.174-.383-1.294-.888-2.525-1.771-3.513-2.5C252.55,139.875,251.513,139.085,250.439,138.239Z" transform="translate(-241.895 -129.461)"/><g transform="translate(11.86)"><path class="a" d="M379.508,45.139l-1.186-.878c-2.2-1.627-5.069-1.326-6.422.774a.356.356,0,0,0,.054.464c1.151,1,2.429,2.019,3.784,3.021,1.519,1.124,3.033,2.148,4.46,3.023a.356.356,0,0,0,.473-.108A4.577,4.577,0,0,0,379.508,45.139Z" transform="translate(-371.838 -43.221)"/><path class="c" d="M374.774,68.968c.046-.081-.05.078,0,0Z" transform="translate(-374.492 -66.596)"/></g><path class="d" d="M462.05,134.446q-.094.112-.2.22C461.922,134.594,461.988,134.521,462.05,134.446Z" transform="translate(-441.778 -126.12)"/><path class="a" d="M343.124,111.448c-.925-.684-2.029-1.548-3.15-2.49a.354.354,0,0,0-.533.108c-.2.347-.5.876-.782,1.339a.351.351,0,0,0,.066.453c.954.8,1.981,1.607,3.058,2.4,1.244.921,2.484,1.774,3.677,2.534a.35.35,0,0,0,.445-.067l1.062-1.149a.353.353,0,0,0-.059-.539C345.5,113.146,344.17,112.221,343.124,111.448Z" transform="translate(-329.779 -102.886)"/><path class="d" d="M369.971,70.807c.041-.088.086-.175.132-.258C370.057,70.633,370.012,70.719,369.971,70.807Z" transform="translate(-358.282 -68.055)"/><path class="a" d="M364.939,83.783a.354.354,0,0,0-.042-.559c-1.569-.978-3.069-2.016-4.223-2.869-1.032-.764-2.286-1.75-3.538-2.819a.355.355,0,0,0-.548.133q-.335.711-.695,1.409a.349.349,0,0,0,.075.428c1.039.882,2.171,1.779,3.364,2.661,1.364,1.009,2.723,1.937,4.019,2.75a.349.349,0,0,0,.424-.048C364.049,84.615,364.548,84.151,364.939,83.783Z" transform="translate(-345.451 -74.33)"/><path class="d" d="M459.454,137.058c-.071.074-.145.146-.222.216C459.309,137.2,459.383,137.132,459.454,137.058Z" transform="translate(-439.396 -128.494)"/><path class="e" d="M371.416,70.447l.006-.01Z" transform="translate(-359.595 -67.953)"/><path class="e" d="M461.666,136.874l.017-.019Z" transform="translate(-441.608 -128.309)"/><path class="e" d="M368.377,75.311h0c.023-.048.047-.095.069-.143C368.424,75.216,368.4,75.263,368.377,75.311Z" transform="translate(-356.833 -72.252)"/><path class="e" d="M464.005,134.445Z" transform="translate(-443.733 -126.119)"/><path class="e" d="M456.88,140.824l.081-.075-.081.075Z" transform="translate(-437.258 -131.848)"/><path class="b" d="M377.1,73.9h0c-1.436-.859-2.967-1.884-4.5-3.019-1.371-1.014-2.657-2.052-3.8-3.062q-.074.117-.142.239l-.006.01q-.07.126-.132.258l-.076.163c-.022.048-.047.095-.069.143,1.294,1.131,2.617,2.18,3.69,2.973,1.186.878,2.76,1.957,4.388,2.945l.081-.075.134-.121c.077-.07.151-.142.222-.216l.017-.019Q377.011,74.008,377.1,73.9Z" transform="translate(-356.833 -65.569)"/><path class="e" d="M432.043,159.189c-.215.215-.426.435-.637.654C431.617,159.624,431.828,159.4,432.043,159.189Z" transform="translate(-414.109 -148.605)"/><path class="e" d="M354.99,99.527c-.064.12-.131.238-.2.357.065-.119.132-.237.2-.357Z" transform="translate(-344.49 -94.388)"/><path class="b" d="M355.958,102.232c-1.21-.9-2.353-1.809-3.392-2.705-.064.12-.131.237-.2.357-.081.147-.161.3-.243.442,1.165,1,2.332,1.919,3.3,2.632,1.077.8,2.474,1.76,3.94,2.67h0c.211-.22.422-.439.637-.655h0C358.7,104.174,357.329,103.247,355.958,102.232Z" transform="translate(-342.065 -94.388)"/><path class="b" d="M337.651,132.355c-1.105-.818-2.155-1.651-3.12-2.472q-.238.382-.484.76h0c1.089.924,2.167,1.77,3.067,2.437,1.014.75,2.31,1.648,3.682,2.51q.29-.346.587-.685h0C340.176,134.15,338.915,133.29,337.651,132.355Z" transform="translate(-325.636 -121.973)"/></g><path class="f" d="M52.187,238.007a102.83,102.83,0,0,1-11.146-1.66c-.93-.184,1.159.27.469.108-1.31-.309-5.033-1.178-5.033-1.178a54.242,54.242,0,0,0,1.8,9.051,30.374,30.374,0,0,0,2.351,5.806,6.988,6.988,0,0,0,4.643,3.557,39.451,39.451,0,0,0,18.273,0,6.987,6.987,0,0,0,4.643-3.557,30.358,30.358,0,0,0,2.351-5.806,73.011,73.011,0,0,0,1.6-8c-.031.062.071-.422-.055-.357a31.394,31.394,0,0,1-5.758,1.311c-1.085.174-2.252.333-3.436.455A71.023,71.023,0,0,1,52.187,238.007Z" transform="translate(-36.203 -217.748)"/><path class="g" d="M427.5,238.918" transform="translate(-391.538 -221.057)"/><path class="g" d="M426.263,240.918" transform="translate(-390.414 -222.874)"/><path class="g" d="M427.552,239.858" transform="translate(-391.585 -221.911)"/><path class="g" d="M426.552,238.858" transform="translate(-390.676 -221.002)"/><path class="a" d="M51.666,232.941c-8.935,0-16.179-.808-16.179-1.8H33.477c0,1.365,8.144,2.472,18.189,2.472s18.189-1.107,18.189-2.472H67.845C67.845,232.133,60.6,232.941,51.666,232.941Z" transform="translate(-33.477 -213.986)"/><g transform="translate(10.116 9.995)"><g transform="translate(0.113 13.882)"><g class="h"><path class="a" d="M145.728,304.884a.163.163,0,0,1-.134.17c-.026.005-.069.072-.023.062a.281.281,0,0,0,.225-.266C145.8,304.812,145.728,304.857,145.728,304.884Z" transform="translate(-145.55 -304.835)"/></g></g><path class="a" d="M156.523,156.072a.545.545,0,0,0-.271-.1,9.214,9.214,0,0,0-2.633-.22,3.2,3.2,0,0,0-2.284,1.188,1.752,1.752,0,0,0-.147.244,3.071,3.071,0,0,0-.258-1.659,4.389,4.389,0,0,0-1.349-1.413c-.573-.438-1.155-.865-1.737-1.291a.344.344,0,0,0-.194-.087c-.114,0-.2.109-.253.208a5.147,5.147,0,0,0,.061,5.171,2.7,2.7,0,0,0,1.158,1.109c-.282.03-.595.053-.945.064a3.072,3.072,0,0,0-2.112,1.358,7.822,7.822,0,0,0-1.168,2.272.522.522,0,0,0,.4.814,5.04,5.04,0,0,0,1.437.319,5.59,5.59,0,0,0,3.022-1.155,2.164,2.164,0,0,0,.925-.887,1.144,1.144,0,0,0,.089-.459,5.171,5.171,0,0,0,1.339,1.149,6.14,6.14,0,0,0,1.477.747.648.648,0,0,0,.522,0,.641.641,0,0,0,.237-.349,3.543,3.543,0,0,0-.085-2.624,3.054,3.054,0,0,0-.149-.289,2,2,0,0,0,1.368-.621,10.242,10.242,0,0,0,.861-1.482c.362-.566.952-1.121.805-1.777A.419.419,0,0,0,156.523,156.072Z" transform="translate(-144.315 -152.731)"/><g class="i" transform="translate(7.127 21.225)"><path class="a" d="M222.465,385.346a.78.78,0,0,1,.057-.059c-.039.011-.078.019-.116.032Z" transform="translate(-222.406 -385.287)"/></g></g><path class="g" d="M429.155,239.918" transform="translate(-393.042 -221.966)"/></g><path class="a" d="M52.682,134.776c-.112.236-.1.512-.193.758a1.215,1.215,0,0,1-1.493.64,1.876,1.876,0,0,1-1.141-1.294c.439-.2.918-.5.971-.983a.328.328,0,0,0-.032-.205c-.1-.167-.375-.106-.5.047a3.449,3.449,0,0,0-.245.53,1.137,1.137,0,0,1-1.405.384,3.316,3.316,0,0,1-1.208-1.015c.387-.016.827-.108.965-.514a.376.376,0,0,0-.347-.537c-.393,0-.468.626-.831.636-.418.01-.432-.77-.845-.842l-.221.471-2.373-2.17-.14.444a1.588,1.588,0,0,1,.153-1.295.679.679,0,0,0-.876.525c-.2-.081-.261-.337-.426-.475a.271.271,0,0,0-.36.074.924.924,0,0,0-.512-.765.375.375,0,0,0-.534.3.444.444,0,0,0,.215.37,9.648,9.648,0,0,0,1.045.766c-.262.032-.286.453-.078.616a1.025,1.025,0,0,0,.763.108.54.54,0,0,0-.032.727,1.036,1.036,0,0,1,1.769.054,2.613,2.613,0,0,0-1.046.67c.355.3.8-.406,1.262-.361a.82.82,0,0,1,.379.182l1.184.848a1.168,1.168,0,0,0-1.23.326,1.482,1.482,0,0,0,1.637-.065,2.707,2.707,0,0,0,1.412,1.048,1.41,1.41,0,0,0-1.3.477l.582.087a.936.936,0,0,0,.223.662c.286-.049.175-.553.416-.714a.474.474,0,0,1,.339-.035,4.332,4.332,0,0,1,1.561.576.439.439,0,0,0-.156.754,1.185,1.185,0,0,0-.642.354c-.148.2-.11.55.128.624.352.109.581-.44.947-.484-.164.2.088.52.348.513a1.042,1.042,0,0,0,.654-.387c.054.335-.283.581-.523.82-.262.26-.368.832.071.859a.469.469,0,0,0,.479-.4c.132-.921,1.165-1.03,1.888-.743.61.242,1.031.437,1.175.739l.412-.448c.1-.113-.511-.475-.654-.526a6.553,6.553,0,0,1-1.734-.711.476.476,0,0,1-.178-.213c-.083-.253.215-.444.42-.613s.243-.618-.021-.6a1.155,1.155,0,0,0,.5-.3.4.4,0,0,0,0-.53C53.117,134.366,52.793,134.54,52.682,134.776Z" transform="translate(-6.923 -78.095)"/></g></svg>