<svg xmlns="http://www.w3.org/2000/svg" width="19.73" height="39.468" viewBox="0 0 19.73 39.468"><defs><style>.a{fill:#fff;}.b{fill:#00b592;}.c{fill:#78d7c4;}.d{fill:#12ba99;}</style></defs><g transform="translate(-0.012)"><rect class="a" width="4.1" height="8.61" transform="translate(8.16 2.47)"/><rect class="b" width="4.1" height="2.47" transform="translate(8.16)"/><rect class="c" width="4.17" height="8.61" transform="translate(12.25 2.47)"/><rect class="d" width="4.17" height="2.47" transform="translate(12.25)"/><path class="b" d="M6.32,5.08V32.13h5.93V6.42Z"/><path class="b" d="M18.18,7.77,12.25,6.42V32.13h5.93Z"/><path class="c" d="M13.15,34.1a2.27,2.27,0,0,1-1.61,2.79L3.2,39.36A2.29,2.29,0,0,1,.33,37.89l-.24-.83A2.28,2.28,0,0,1,1.7,34.27L10,31.81a2.28,2.28,0,0,1,2.87,1.46Z"/><path class="c" d="M12.59,12.08a2,2,0,0,0-2,2V28.72a2,2,0,0,0,2,2H15V12.08Z"/><rect class="c" width="3.86" height="18.61" transform="translate(15.04 12.08)"/><path class="b" d="M15.72,29.42l-9.4,2.71,1.77,6.49,9.52-2.82c1.24-.36,2.56-1.49,2-3l-.71-2.08C18.56,29.52,17,29.05,15.72,29.42Z"/></g></svg>