<svg xmlns="http://www.w3.org/2000/svg" width="48.535" height="48.766" viewBox="0 0 48.535 48.766"><defs><style>.a{fill:#e0474e;}.b{fill:#fff;}</style></defs><g transform="translate(0.003 0.046)"><g transform="translate(-0.003 -0.046)"><path class="a" d="M32.251,45.126l.822-.3c-1.874-5.089-1.49-4.036.519-5.185,1.6,1.2,2.58,2.278,5.05,5.766l1.1-.774c-4.964-7.044-3.921-6.434-2.595-7.847a17.541,17.541,0,0,1,3.513,2.5l.557-.673a16.914,16.914,0,0,1-3.133-2.941c1.134-1.47.365-2.782,8.236.851l.557-1.211c-7.9-3.652-6.434-3.4-5.9-5.867a17.305,17.305,0,0,1,4.286.413L45.412,29c-5.146-.889-4.075-.639-4.075-2.854,1.749-.73,3.219-1.028,7.333-1.4L48.545,23.4c-8.5.774-7.237.293-7.909-1.874a17.061,17.061,0,0,1,4.08-1.922l-.3-.822a15.261,15.261,0,0,1-4.325,1.259c-.75-1.764-2.321-1.749,4.882-6.828l-.75-1.072c-3.489,2.465-4.613,3.306-6.679,3.791a15.15,15.15,0,0,0-1.158-1.2,17.268,17.268,0,0,1,2.5-3.513l-.673-.562A16.827,16.827,0,0,1,35.273,13.8c-1.475-1.139-2.782-.37.851-8.236L34.894,5c-4.257,9.212-6.5,7.688-5.454,1.615l-.865-.135a18.29,18.29,0,0,1-.961,4.195c-1.778-.216-2.494,1.072-3.272-7.448l-1.336.12c.356,4.094.524,5.536-.01,7.458a15.564,15.564,0,0,0-1.884.481,16.31,16.31,0,0,1-1.9-4.084l-.822.3a15.346,15.346,0,0,1,1.259,4.325c-1.773.75-1.749,2.316-6.828-4.882l-1.1.774c4.964,7.035,3.916,6.42,2.595,7.837a17.419,17.419,0,0,1-3.513-2.508l-.562.639a16.991,16.991,0,0,1,3.138,2.941c-1.139,1.48-.37,2.787-8.236-.846l-.562,1.2c7.856,3.628,6.439,3.364,5.9,5.867A17.55,17.55,0,0,1,6.2,22.441l-.149.86a18.488,18.488,0,0,1,4.195.961c-.216,1.773,1.076,2.494-7.448,3.272l.12,1.331c4.094-.37,5.545-.543,7.458,0,.375,2.081,1.442,1.922-3.628,3.786l.3.822c5.094-1.874,4.041-1.49,5.209.519-1.2,1.6-2.278,2.58-5.766,5.05l.774,1.1c3.489-2.465,4.613-3.311,6.679-3.8,1.182,1.374,1.922.764-1.36,4.738l.678.557c3.364-4.008,2.561-3.21,4.551-2.042-.24,1.922-.7,3.335-2.46,7.145l1.216.557c3.628-7.852,3.364-6.434,5.867-5.9a17.55,17.55,0,0,1-.413,4.286l.86.149a18.759,18.759,0,0,1,.961-4.195c1.773.216,2.494-1.076,3.272,7.448l1.336-.125c-.375-4.094-.543-5.54,0-7.453C30.545,41.129,30.387,40.071,32.251,45.126Z" transform="translate(-1.453 -1.656)"/><path class="b" d="M25.457,61.276c-.894.327-2.292-1.225-3.119-3.474s-.769-4.325.125-4.661,2.287,1.225,3.114,3.469S26.351,60.944,25.457,61.276Z" transform="translate(-11.299 -27.56)"/><path class="b" d="M71.919,37.165c-.745.279-1.922-1.024-2.6-2.883s-.644-3.628.1-3.9,1.922,1.024,2.609,2.883S72.669,36.906,71.919,37.165Z" transform="translate(-35.754 -15.741)"/><path class="b" d="M26.109,35.3c-.817-.481-.481-2.552.778-4.6s2.912-3.292,3.743-2.811.481,2.552-.778,4.6S26.921,35.793,26.109,35.3Z" transform="translate(-13.331 -14.412)"/><path class="b" d="M45.728,72.823c-.1,1.033-1.826,1.711-3.844,1.509S38.3,73.14,38.4,72.107s1.821-1.711,3.844-1.514S45.829,71.79,45.728,72.823Z" transform="translate(-19.947 -36.632)"/><path class="b" d="M54.6,23.633c-.1,1.033-1.821,1.706-3.844,1.509s-3.585-1.2-3.484-2.23S49.1,21.206,51.119,21.4,54.7,22.6,54.6,23.633Z" transform="translate(-24.555 -11.079)"/><path class="b" d="M67.781,67.52c.36.577-.259,1.624-1.389,2.335s-2.34.822-2.705.245.259-1.624,1.389-2.335S67.416,66.944,67.781,67.52Z" transform="translate(-33.029 -34.862)"/><path class="b" d="M75.092,51.288c.605.312.6,1.528,0,2.715s-1.634,1.912-2.239,1.576-.6-1.533,0-2.715S74.482,50.971,75.092,51.288Z" transform="translate(-37.61 -26.582)"/><path class="b" d="M49.2,40.227a2.1,2.1,0,1,1,1.183-1.092A2.1,2.1,0,0,1,49.2,40.227Z" transform="translate(-24.094 -18.764)"/><path class="b" d="M63.688,49.646a1.922,1.922,0,1,1,1.094-1A1.922,1.922,0,0,1,63.688,49.646Z" transform="translate(-31.746 -23.83)"/><path class="b" d="M57.128,62.67a1.288,1.288,0,1,1,.726-.67A1.288,1.288,0,0,1,57.128,62.67Z" transform="translate(-28.776 -31.237)"/><path class="b" d="M43.686,57.623a1.211,1.211,0,1,1,.716-1.552,1.211,1.211,0,0,1-.716,1.552Z" transform="translate(-21.845 -28.694)"/><path class="b" d="M36.01,45.564a1.773,1.773,0,1,1,1.052-2.273A1.773,1.773,0,0,1,36.01,45.564Z" transform="translate(-17.465 -21.862)"/><path class="b" d="M37.911,62.939a1.288,1.288,0,1,1,.727-.667,1.288,1.288,0,0,1-.727.667Z" transform="translate(-18.795 -31.376)"/><path class="b" d="M60.014,35.739a.726.726,0,1,1,.368-.895.726.726,0,0,1-.368.895Z" transform="translate(-30.634 -17.828)"/><path class="b" d="M43.365,35.793a1.124,1.124,0,1,1,.668-1.442A1.124,1.124,0,0,1,43.365,35.793Z" transform="translate(-21.74 -17.439)"/><path class="b" d="M51.708,52.564a1.129,1.129,0,1,1,.673-1.442A1.129,1.129,0,0,1,51.708,52.564Z" transform="translate(-26.07 -26.147)"/><path class="b" d="M66.992,60.654a1.691,1.691,0,1,1,1-2.177,1.691,1.691,0,0,1-1,2.177Z" transform="translate(-33.619 -29.783)"/><path class="b" d="M55.947,77.808a.726.726,0,1,1,.41-.376A.726.726,0,0,1,55.947,77.808Z" transform="translate(-28.556 -39.667)"/><path class="b" d="M20.591,45.141a.884.884,0,1,1,.548-1.12.884.884,0,0,1-.548,1.12Z" transform="translate(-10.086 -22.535)"/><path class="b" d="M40.373,24.677a.879.879,0,1,1,.5-.458.884.884,0,0,1-.5.458Z" transform="translate(-20.353 -11.907)"/><path class="a" d="M96.353,45.991c-.841.082-1.619-.826-1.739-2.037s.481-2.254,1.307-2.34,1.619.826,1.739,2.037S97.194,45.91,96.353,45.991Z" transform="translate(-49.14 -21.593)"/><path class="a" d="M91.119,70.751c-.793-.288-1.1-1.442-.687-2.59s1.4-1.831,2.191-1.542,1.1,1.442.687,2.59S91.911,71.039,91.119,70.751Z" transform="translate(-46.88 -34.551)"/><path class="a" d="M74.338,89.12c-.423-.73.082-1.816,1.129-2.427s2.244-.519,2.672.211-.077,1.816-1.129,2.431S74.766,89.851,74.338,89.12Z" transform="translate(-38.538 -44.804)"/><path class="a" d="M50.19,96.632c0-.846.961-1.538,2.182-1.552s2.206.658,2.22,1.5-.961,1.538-2.182,1.552S50.2,97.478,50.19,96.632Z" transform="translate(-26.071 -49.37)"/><path class="a" d="M25.883,91.583c.37-.764,1.552-.961,2.648-.428s1.682,1.571,1.317,2.331-1.547.961-2.643.428S25.518,92.366,25.883,91.583Z" transform="translate(-13.388 -47.175)"/><path class="a" d="M8.662,74.289c.721-.447,1.821.034,2.455,1.067s.572,2.234-.149,2.676-1.821-.038-2.441-1.086S7.941,74.731,8.662,74.289Z" transform="translate(-4.201 -38.483)"/><path class="a" d="M1.243,50.329c.841-.115,1.639.764,1.816,1.965s-.38,2.273-1.216,2.4S.2,53.918.027,52.712.407,50.44,1.243,50.329Z" transform="translate(0.003 -26.118)"/><path class="a" d="M5.727,26.554c.826.183,1.288,1.288,1.028,2.475s-1.139,2-1.941,1.826S3.531,29.567,3.786,28.38,4.9,26.376,5.727,26.554Z" transform="translate(-1.93 -13.76)"/><path class="a" d="M21.785,8.177c.557.634.269,1.8-.649,2.6s-2.1.932-2.662.3-.264-1.8.649-2.6S21.228,7.543,21.785,8.177Z" transform="translate(-9.449 -4.018)"/><path class="a" d="M45.706,1.283c.091.841-.817,1.624-2.023,1.754s-2.258-.452-2.35-1.288.8-1.624,2.028-1.773S45.619.457,45.706,1.283Z" transform="translate(-21.467 0.046)"/><path class="a" d="M70.62,6.453c-.341.774-1.518,1-2.628.514s-1.73-1.509-1.4-2.282,1.514-1,2.628-.519S70.957,5.679,70.62,6.453Z" transform="translate(-34.546 -2.01)"/><path class="a" d="M89.381,22.385a1.979,1.979,0,0,1-2.537-.865c-.721-.98-.75-2.177-.072-2.676s1.816-.115,2.537.865S90.058,21.885,89.381,22.385Z" transform="translate(-44.82 -9.653)"/><path class="a" d="M89.075,36.247c-.533.226-1.221-.216-1.538-.961s-.149-1.566.384-1.788,1.221.221,1.542.961A1.351,1.351,0,0,1,89.075,36.247Z" transform="translate(-45.389 -17.35)"/><path class="a" d="M89.868,57.69c-.572-.058-.961-.774-.879-1.6s.625-1.442,1.2-1.384.961.778.879,1.6S90.43,57.752,89.868,57.69Z" transform="translate(-46.221 -28.395)"/><path class="a" d="M79.456,76.857c-.481-.341-.452-1.158.034-1.826s1.259-.961,1.725-.605a1.337,1.337,0,0,1-.034,1.826C80.7,76.919,79.927,77.193,79.456,76.857Z" transform="translate(-41.095 -38.561)"/><path class="a" d="M61.836,89.206c-.187-.548.293-1.211,1.076-1.48s1.571-.048,1.759.481-.293,1.206-1.076,1.48S62.024,89.749,61.836,89.206Z" transform="translate(-32.1 -45.49)"/><path class="a" d="M40.755,89.862c.139-.557.9-.851,1.711-.644s1.341.817,1.2,1.379-.908.846-1.711.644S40.611,90.42,40.755,89.862Z" transform="translate(-21.158 -46.291)"/><path class="a" d="M21.391,79.959c.346-.481,1.163-.447,1.831.043s.932,1.264.591,1.73-1.163.442-1.826-.048S21.05,80.421,21.391,79.959Z" transform="translate(-11.034 -41.337)"/><path class="a" d="M9.56,62.432c.481-.274,1.235.1,1.634.822s.3,1.542-.216,1.807-1.235-.091-1.629-.822A1.326,1.326,0,0,1,9.56,62.432Z" transform="translate(-4.73 -32.364)"/><path class="a" d="M8.757,41.233c.572.077.961.8.841,1.624s-.658,1.442-1.23,1.35a1.336,1.336,0,0,1-.841-1.624C7.647,41.761,8.185,41.156,8.757,41.233Z" transform="translate(-3.897 -21.394)"/><path class="a" d="M18.272,21.692c.514.259.629,1.072.255,1.812s-1.1,1.124-1.61.865-.629-1.072-.255-1.812S17.757,21.433,18.272,21.692Z" transform="translate(-8.539 -11.205)"/><path class="a" d="M35.981,9.9c.207.538-.245,1.221-1.019,1.523s-1.566.111-1.778-.428.245-1.216,1.019-1.518S35.769,9.364,35.981,9.9Z" transform="translate(-17.21 -4.825)"/><path class="a" d="M57.248,9.138c0,.577-.663,1.048-1.494,1.052s-1.5-.481-1.5-1.038S54.918,8.1,55.744,8.1,57.248,8.561,57.248,9.138Z" transform="translate(-28.18 -4.186)"/><path class="a" d="M76.782,18.67a1.326,1.326,0,0,1-1.831,0c-.678-.481-.961-1.245-.625-1.715a1.33,1.33,0,0,1,1.826,0C76.83,17.435,77.114,18.2,76.782,18.67Z" transform="translate(-38.536 -8.6)"/></g></g></svg>