<svg xmlns="http://www.w3.org/2000/svg" xmlns:xlink="http://www.w3.org/1999/xlink" width="62" height="62" viewBox="0 0 62 62">
  <defs>
    <clipPath id="clip-path">
      <rect id="Rectangle_6711" data-name="Rectangle 6711" width="62" height="62" transform="translate(54.793 33.005)" fill="#fff" stroke="#707070" stroke-width="1"/>
    </clipPath>
    <linearGradient id="linear-gradient" x1="1.264" y1="-0.461" x2="0.031" y2="0.853" gradientUnits="objectBoundingBox">
      <stop offset="0" stop-color="#7047ea"/>
      <stop offset="1" stop-color="#9847ea"/>
    </linearGradient>
  </defs>
  <g id="Mask_Group_107" data-name="Mask Group 107" transform="translate(-54.793 -33.005)" clip-path="url(#clip-path)">
    <g id="Layer_3" data-name="Layer 3" transform="translate(59.514 50.439)">
      <path id="Path_1289" data-name="Path 1289" d="M31.336,10.952a8.418,8.418,0,1,0,8.418,8.414A8.418,8.418,0,0,0,31.336,10.952Zm0,11.93a3.516,3.516,0,1,1,3.516-3.516,3.516,3.516,0,0,1-3.516,3.516Zm0-11.93a8.418,8.418,0,1,0,8.418,8.414A8.418,8.418,0,0,0,31.336,10.952Zm0,11.93a3.516,3.516,0,1,1,3.516-3.516,3.516,3.516,0,0,1-3.516,3.516Zm0-11.93a8.418,8.418,0,1,0,8.418,8.414A8.418,8.418,0,0,0,31.336,10.952Zm0,11.93a3.516,3.516,0,1,1,3.516-3.516,3.516,3.516,0,0,1-3.516,3.516Zm0-11.93a8.418,8.418,0,1,0,8.418,8.414A8.418,8.418,0,0,0,31.336,10.952Zm0,11.93a3.516,3.516,0,1,1,3.516-3.516,3.516,3.516,0,0,1-3.516,3.516Zm0-11.93a8.418,8.418,0,1,0,8.418,8.414A8.418,8.418,0,0,0,31.336,10.952Zm0,11.93a3.516,3.516,0,1,1,3.516-3.516,3.516,3.516,0,0,1-3.516,3.516Zm0-11.93a8.418,8.418,0,1,0,8.418,8.414A8.418,8.418,0,0,0,31.336,10.952Zm0,11.93a3.516,3.516,0,1,1,3.516-3.516,3.516,3.516,0,0,1-3.516,3.516Zm0-11.93a8.418,8.418,0,1,0,8.418,8.414A8.418,8.418,0,0,0,31.336,10.952Zm0,11.93a3.516,3.516,0,1,1,3.516-3.516,3.516,3.516,0,0,1-3.516,3.516Zm0-11.93a8.418,8.418,0,1,0,8.418,8.414A8.418,8.418,0,0,0,31.336,10.952Zm0,11.93a3.516,3.516,0,1,1,3.516-3.516,3.516,3.516,0,0,1-3.516,3.516Zm0-11.93a8.418,8.418,0,1,0,8.418,8.414A8.418,8.418,0,0,0,31.336,10.952Zm0,11.93a3.516,3.516,0,1,1,3.516-3.516,3.516,3.516,0,0,1-3.516,3.516Zm0-11.93a8.418,8.418,0,1,0,8.418,8.414A8.418,8.418,0,0,0,31.336,10.952Zm0,11.93a3.516,3.516,0,1,1,3.516-3.516,3.516,3.516,0,0,1-3.516,3.516Zm0-11.93a8.418,8.418,0,1,0,8.418,8.414A8.418,8.418,0,0,0,31.336,10.952Zm0,11.93a3.516,3.516,0,1,1,3.516-3.516,3.516,3.516,0,0,1-3.516,3.516Zm0-11.93a8.418,8.418,0,1,0,8.418,8.414A8.418,8.418,0,0,0,31.336,10.952Zm0,11.93a3.516,3.516,0,1,1,3.516-3.516,3.516,3.516,0,0,1-3.516,3.516Zm0-11.93a8.418,8.418,0,1,0,8.418,8.414A8.418,8.418,0,0,0,31.336,10.952Zm0,11.93a3.516,3.516,0,1,1,3.516-3.516,3.516,3.516,0,0,1-3.516,3.516Zm0-11.93a8.418,8.418,0,1,0,8.418,8.414A8.418,8.418,0,0,0,31.336,10.952Zm0,11.93a3.516,3.516,0,1,1,3.516-3.516,3.516,3.516,0,0,1-3.516,3.516Zm0-11.93a8.418,8.418,0,1,0,8.418,8.414A8.418,8.418,0,0,0,31.336,10.952Zm0,11.93a3.516,3.516,0,1,1,3.516-3.516,3.516,3.516,0,0,1-3.516,3.516Zm0-11.93a8.418,8.418,0,1,0,8.418,8.414A8.418,8.418,0,0,0,31.336,10.952Zm0,11.93a3.516,3.516,0,1,1,3.516-3.516,3.516,3.516,0,0,1-3.516,3.516Zm0-11.93a8.418,8.418,0,1,0,8.418,8.414A8.418,8.418,0,0,0,31.336,10.952Zm0,11.93a3.516,3.516,0,1,1,3.516-3.516,3.516,3.516,0,0,1-3.516,3.516Zm0-11.93a8.418,8.418,0,1,0,8.418,8.414A8.418,8.418,0,0,0,31.336,10.952Zm0,11.93a3.516,3.516,0,1,1,3.516-3.516,3.516,3.516,0,0,1-3.516,3.516Zm0-11.93a8.418,8.418,0,1,0,8.418,8.414A8.418,8.418,0,0,0,31.336,10.952Zm0,11.93a3.516,3.516,0,1,1,3.516-3.516,3.516,3.516,0,0,1-3.516,3.516Zm0-11.93a8.418,8.418,0,1,0,8.418,8.414A8.418,8.418,0,0,0,31.336,10.952Zm0,11.93a3.516,3.516,0,1,1,3.516-3.516,3.516,3.516,0,0,1-3.516,3.516Zm0-11.93a8.418,8.418,0,1,0,8.418,8.414A8.418,8.418,0,0,0,31.336,10.952Zm0,11.93a3.516,3.516,0,1,1,3.516-3.516,3.516,3.516,0,0,1-3.516,3.516Zm0-11.93a8.418,8.418,0,1,0,8.418,8.414A8.418,8.418,0,0,0,31.336,10.952Zm0,11.93a3.516,3.516,0,1,1,3.516-3.516,3.516,3.516,0,0,1-3.516,3.516Zm0-11.93a8.418,8.418,0,1,0,8.418,8.414A8.418,8.418,0,0,0,31.336,10.952Zm0,11.93a3.516,3.516,0,1,1,3.516-3.516,3.516,3.516,0,0,1-3.516,3.516Zm0-11.93a8.418,8.418,0,1,0,8.418,8.414A8.418,8.418,0,0,0,31.336,10.952Zm0,11.93a3.516,3.516,0,1,1,3.516-3.516,3.516,3.516,0,0,1-3.516,3.516Zm0-11.93a8.418,8.418,0,1,0,8.418,8.414A8.418,8.418,0,0,0,31.336,10.952Zm0,11.93a3.516,3.516,0,1,1,3.516-3.516,3.516,3.516,0,0,1-3.516,3.516Zm0-11.93a8.418,8.418,0,1,0,8.418,8.414A8.418,8.418,0,0,0,31.336,10.952Zm0,11.93a3.516,3.516,0,1,1,3.516-3.516,3.516,3.516,0,0,1-3.516,3.516Zm0-11.93a8.418,8.418,0,1,0,8.418,8.414A8.418,8.418,0,0,0,31.336,10.952Zm0,11.93a3.516,3.516,0,1,1,3.516-3.516,3.516,3.516,0,0,1-3.516,3.516Zm0-11.93a8.418,8.418,0,1,0,8.418,8.414A8.418,8.418,0,0,0,31.336,10.952Zm0,11.93a3.516,3.516,0,1,1,3.516-3.516,3.516,3.516,0,0,1-3.516,3.516Zm0-11.93a8.418,8.418,0,1,0,8.418,8.414A8.418,8.418,0,0,0,31.336,10.952Zm0,11.93a3.516,3.516,0,1,1,3.516-3.516,3.516,3.516,0,0,1-3.516,3.516Zm0-11.93a8.418,8.418,0,1,0,8.418,8.414A8.418,8.418,0,0,0,31.336,10.952Zm0,11.93a3.516,3.516,0,1,1,3.516-3.516,3.516,3.516,0,0,1-3.516,3.516Zm0-11.93a8.418,8.418,0,1,0,8.418,8.414A8.418,8.418,0,0,0,31.336,10.952Zm0,11.93a3.516,3.516,0,1,1,3.516-3.516,3.516,3.516,0,0,1-3.516,3.516Zm0-11.93a8.418,8.418,0,1,0,8.418,8.414A8.418,8.418,0,0,0,31.336,10.952Zm0,11.93a3.516,3.516,0,1,1,3.516-3.516,3.516,3.516,0,0,1-3.516,3.516Zm0-11.93a8.418,8.418,0,1,0,8.418,8.414A8.418,8.418,0,0,0,31.336,10.952Zm0,11.93a3.516,3.516,0,1,1,3.516-3.516,3.516,3.516,0,0,1-3.516,3.516Zm0-11.93a8.418,8.418,0,1,0,8.418,8.414A8.418,8.418,0,0,0,31.336,10.952Zm0,11.93a3.516,3.516,0,1,1,3.516-3.516,3.516,3.516,0,0,1-3.516,3.516Zm0-11.93a8.418,8.418,0,1,0,8.418,8.414A8.418,8.418,0,0,0,31.336,10.952Zm0,11.93a3.516,3.516,0,1,1,3.516-3.516,3.516,3.516,0,0,1-3.516,3.516Zm0-11.93a8.418,8.418,0,1,0,8.418,8.414A8.418,8.418,0,0,0,31.336,10.952Zm0,11.93a3.516,3.516,0,1,1,3.516-3.516,3.516,3.516,0,0,1-3.516,3.516Zm0-11.93a8.418,8.418,0,1,0,8.418,8.414A8.418,8.418,0,0,0,31.336,10.952Zm0,11.93a3.516,3.516,0,1,1,3.516-3.516,3.516,3.516,0,0,1-3.516,3.516Zm0-11.93a8.418,8.418,0,1,0,8.418,8.414A8.418,8.418,0,0,0,31.336,10.952Zm0,11.93a3.516,3.516,0,1,1,3.516-3.516,3.516,3.516,0,0,1-3.516,3.516Zm0-11.93a8.418,8.418,0,1,0,8.418,8.414A8.418,8.418,0,0,0,31.336,10.952Zm0,11.93a3.516,3.516,0,1,1,3.516-3.516,3.516,3.516,0,0,1-3.516,3.516Zm0-11.93a8.418,8.418,0,1,0,8.418,8.414A8.418,8.418,0,0,0,31.336,10.952Zm0,11.93a3.516,3.516,0,1,1,3.516-3.516,3.516,3.516,0,0,1-3.516,3.516Zm0-11.93a8.418,8.418,0,1,0,8.418,8.414A8.418,8.418,0,0,0,31.336,10.952Zm0,11.93a3.516,3.516,0,1,1,3.516-3.516,3.516,3.516,0,0,1-3.516,3.516Zm0-11.93a8.418,8.418,0,1,0,8.418,8.414A8.418,8.418,0,0,0,31.336,10.952Zm0,11.93a3.516,3.516,0,1,1,3.516-3.516,3.516,3.516,0,0,1-3.516,3.516Zm0-11.93a8.418,8.418,0,1,0,8.418,8.414A8.418,8.418,0,0,0,31.336,10.952Zm0,11.93a3.516,3.516,0,1,1,3.516-3.516,3.516,3.516,0,0,1-3.516,3.516Zm0-11.93a8.418,8.418,0,1,0,8.418,8.414A8.418,8.418,0,0,0,31.336,10.952Zm0,11.93a3.516,3.516,0,1,1,3.516-3.516,3.516,3.516,0,0,1-3.516,3.516Zm0-11.93a8.418,8.418,0,1,0,8.418,8.414A8.418,8.418,0,0,0,31.336,10.952Zm0,11.93a3.516,3.516,0,1,1,3.516-3.516,3.516,3.516,0,0,1-3.516,3.516Zm0-11.93a8.418,8.418,0,1,0,8.418,8.414A8.418,8.418,0,0,0,31.336,10.952Zm0,11.93a3.516,3.516,0,1,1,3.516-3.516,3.516,3.516,0,0,1-3.516,3.516ZM31.28,4.42C19.35,4.42,8.7,10.46,4.62,19.366a23.781,23.781,0,0,0,8.867,9.9c.971-2.127,1.985-4.051,2.2-4.444a.733.733,0,0,1,.656-.4.755.755,0,0,1,.664.4,66.944,66.944,0,0,1,3.581,7.818,34.466,34.466,0,0,0,10.748,1.7h.056c11.934,0,22.579-6.041,26.66-14.95C53.971,10.435,43.245,4.4,31.28,4.42Zm.056,25.6A10.657,10.657,0,1,1,41.994,19.366,10.657,10.657,0,0,1,31.336,30.023Zm0-19.071a8.418,8.418,0,1,0,8.418,8.414A8.418,8.418,0,0,0,31.336,10.952Zm0,11.93a3.516,3.516,0,1,1,3.516-3.516,3.516,3.516,0,0,1-3.516,3.516Zm0-11.93a8.418,8.418,0,1,0,8.418,8.414A8.418,8.418,0,0,0,31.336,10.952Zm0,11.93a3.516,3.516,0,1,1,3.516-3.516,3.516,3.516,0,0,1-3.516,3.516Zm0-11.93a8.418,8.418,0,1,0,8.418,8.414A8.418,8.418,0,0,0,31.336,10.952Zm0,11.93a3.516,3.516,0,1,1,3.516-3.516,3.516,3.516,0,0,1-3.516,3.516Zm0-11.93a8.418,8.418,0,1,0,8.418,8.414A8.418,8.418,0,0,0,31.336,10.952Zm0,11.93a3.516,3.516,0,1,1,3.516-3.516,3.516,3.516,0,0,1-3.516,3.516Zm0-11.93a8.418,8.418,0,1,0,8.418,8.414A8.418,8.418,0,0,0,31.336,10.952Zm0,11.93a3.516,3.516,0,1,1,3.516-3.516,3.516,3.516,0,0,1-3.516,3.516Zm0-11.93a8.418,8.418,0,1,0,8.418,8.414A8.418,8.418,0,0,0,31.336,10.952Zm0,11.93a3.516,3.516,0,1,1,3.516-3.516,3.516,3.516,0,0,1-3.516,3.516Zm0-11.93a8.418,8.418,0,1,0,8.418,8.414A8.418,8.418,0,0,0,31.336,10.952Zm0,11.93a3.516,3.516,0,1,1,3.516-3.516,3.516,3.516,0,0,1-3.516,3.516Zm0-11.93a8.418,8.418,0,1,0,8.418,8.414A8.418,8.418,0,0,0,31.336,10.952Zm0,11.93a3.516,3.516,0,1,1,3.516-3.516,3.516,3.516,0,0,1-3.516,3.516Zm0-11.93a8.418,8.418,0,1,0,8.418,8.414A8.418,8.418,0,0,0,31.336,10.952Zm0,11.93a3.516,3.516,0,1,1,3.516-3.516,3.516,3.516,0,0,1-3.516,3.516Zm0-11.93a8.418,8.418,0,1,0,8.418,8.414A8.418,8.418,0,0,0,31.336,10.952Zm0,11.93a3.516,3.516,0,1,1,3.516-3.516,3.516,3.516,0,0,1-3.516,3.516Zm0-11.93a8.418,8.418,0,1,0,8.418,8.414A8.418,8.418,0,0,0,31.336,10.952Zm0,11.93a3.516,3.516,0,1,1,3.516-3.516,3.516,3.516,0,0,1-3.516,3.516Zm0-11.93a8.418,8.418,0,1,0,8.418,8.414A8.418,8.418,0,0,0,31.336,10.952Zm0,11.93a3.516,3.516,0,1,1,3.516-3.516,3.516,3.516,0,0,1-3.516,3.516Zm0-11.93a8.418,8.418,0,1,0,8.418,8.414A8.418,8.418,0,0,0,31.336,10.952Zm0,11.93a3.516,3.516,0,1,1,3.516-3.516,3.516,3.516,0,0,1-3.516,3.516Zm0-11.93a8.418,8.418,0,1,0,8.418,8.414A8.418,8.418,0,0,0,31.336,10.952Zm0,11.93a3.516,3.516,0,1,1,3.516-3.516,3.516,3.516,0,0,1-3.516,3.516Zm0-11.93a8.418,8.418,0,0,0-8.418,8.419c0,4.648,16.838,4.644,16.836-.006A8.422,8.422,0,0,0,31.336,10.952Zm0,11.93a3.516,3.516,0,1,1,3.516-3.516,3.516,3.516,0,0,1-3.516,3.516Zm0-11.93a8.418,8.418,0,1,0,8.418,8.414A8.418,8.418,0,0,0,31.336,10.952Zm0,11.93a3.516,3.516,0,1,1,3.516-3.516,3.516,3.516,0,0,1-3.516,3.516Zm0-11.93a8.418,8.418,0,1,0,8.418,8.414A8.418,8.418,0,0,0,31.336,10.952Zm0,11.93a3.516,3.516,0,1,1,3.516-3.516,3.516,3.516,0,0,1-3.516,3.516Zm0-11.93a8.418,8.418,0,1,0,8.418,8.414A8.418,8.418,0,0,0,31.336,10.952Zm0,11.93a3.516,3.516,0,1,1,3.516-3.516,3.516,3.516,0,0,1-3.516,3.516Zm0-11.93a8.418,8.418,0,1,0,8.418,8.414A8.418,8.418,0,0,0,31.336,10.952Zm0,11.93a3.516,3.516,0,1,1,3.516-3.516,3.516,3.516,0,0,1-3.516,3.516Zm0-11.93a8.418,8.418,0,1,0,8.418,8.414A8.418,8.418,0,0,0,31.336,10.952Zm0,11.93a3.516,3.516,0,1,1,3.516-3.516,3.516,3.516,0,0,1-3.516,3.516Zm0-11.93a8.418,8.418,0,1,0,8.418,8.414A8.418,8.418,0,0,0,31.336,10.952Zm0,11.93a3.516,3.516,0,1,1,3.516-3.516,3.516,3.516,0,0,1-3.516,3.516Zm0-11.93a8.418,8.418,0,1,0,8.418,8.414A8.418,8.418,0,0,0,31.336,10.952Zm0,11.93a3.516,3.516,0,1,1,3.516-3.516,3.516,3.516,0,0,1-3.516,3.516Zm0-11.93a8.418,8.418,0,1,0,8.418,8.414A8.418,8.418,0,0,0,31.336,10.952Zm0,11.93a3.516,3.516,0,1,1,3.516-3.516,3.516,3.516,0,0,1-3.516,3.516Zm0-11.93a8.418,8.418,0,1,0,8.418,8.414A8.418,8.418,0,0,0,31.336,10.952Zm0,11.93a3.516,3.516,0,1,1,3.516-3.516,3.516,3.516,0,0,1-3.516,3.516Zm0-11.93a8.418,8.418,0,1,0,8.418,8.414A8.418,8.418,0,0,0,31.336,10.952Zm0,11.93a3.516,3.516,0,1,1,3.516-3.516,3.516,3.516,0,0,1-3.516,3.516Zm0-11.93a8.418,8.418,0,1,0,8.418,8.414A8.418,8.418,0,0,0,31.336,10.952Zm0,11.93a3.516,3.516,0,1,1,3.516-3.516,3.516,3.516,0,0,1-3.516,3.516Zm0-11.93a8.418,8.418,0,1,0,8.418,8.414A8.418,8.418,0,0,0,31.336,10.952Zm0,11.93a3.516,3.516,0,1,1,3.516-3.516,3.516,3.516,0,0,1-3.516,3.516Zm0-11.93a8.418,8.418,0,1,0,8.418,8.414A8.418,8.418,0,0,0,31.336,10.952Zm0,11.93a3.516,3.516,0,1,1,3.516-3.516,3.516,3.516,0,0,1-3.516,3.516Zm0-11.93a8.418,8.418,0,1,0,8.418,8.414A8.418,8.418,0,0,0,31.336,10.952Zm0,11.93a3.516,3.516,0,1,1,3.516-3.516,3.516,3.516,0,0,1-3.516,3.516Zm0-11.93a8.418,8.418,0,1,0,8.418,8.414A8.418,8.418,0,0,0,31.336,10.952Zm0,11.93a3.516,3.516,0,1,1,3.516-3.516,3.516,3.516,0,0,1-3.516,3.516Zm0-11.93a8.418,8.418,0,1,0,8.418,8.414A8.418,8.418,0,0,0,31.336,10.952Zm0,11.93a3.516,3.516,0,1,1,3.516-3.516,3.516,3.516,0,0,1-3.516,3.516Zm0-11.93a8.418,8.418,0,1,0,8.418,8.414A8.418,8.418,0,0,0,31.336,10.952Zm0,11.93a3.516,3.516,0,1,1,3.516-3.516,3.516,3.516,0,0,1-3.516,3.516Zm0-11.93a8.418,8.418,0,1,0,8.418,8.414A8.418,8.418,0,0,0,31.336,10.952Zm0,11.93a3.516,3.516,0,1,1,3.516-3.516,3.516,3.516,0,0,1-3.516,3.516Zm0-11.93a8.418,8.418,0,1,0,8.418,8.414A8.418,8.418,0,0,0,31.336,10.952Zm0,11.93a3.516,3.516,0,1,1,3.516-3.516,3.516,3.516,0,0,1-3.516,3.516Zm0-11.93a8.418,8.418,0,1,0,8.418,8.414A8.418,8.418,0,0,0,31.336,10.952Zm0,11.93a3.516,3.516,0,1,1,3.516-3.516,3.516,3.516,0,0,1-3.516,3.516Zm0-11.93a8.418,8.418,0,1,0,8.418,8.414A8.418,8.418,0,0,0,31.336,10.952Zm0,11.93a3.516,3.516,0,1,1,3.516-3.516,3.516,3.516,0,0,1-3.516,3.516Zm0-11.93a8.418,8.418,0,1,0,8.418,8.414A8.418,8.418,0,0,0,31.336,10.952Zm0,11.93a3.516,3.516,0,1,1,3.516-3.516,3.516,3.516,0,0,1-3.516,3.516Zm0-11.93a8.418,8.418,0,1,0,8.418,8.414A8.418,8.418,0,0,0,31.336,10.952Zm0,11.93a3.516,3.516,0,1,1,3.516-3.516,3.516,3.516,0,0,1-3.516,3.516Zm0-11.93a8.418,8.418,0,1,0,8.418,8.414A8.418,8.418,0,0,0,31.336,10.952Zm0,11.93a3.516,3.516,0,1,1,3.516-3.516,3.516,3.516,0,0,1-3.516,3.516Zm0-11.93a8.418,8.418,0,1,0,8.418,8.414A8.418,8.418,0,0,0,31.336,10.952Zm0,11.93a3.516,3.516,0,1,1,3.516-3.516,3.516,3.516,0,0,1-3.516,3.516Zm0-11.93a8.418,8.418,0,1,0,8.418,8.414A8.418,8.418,0,0,0,31.336,10.952Zm0,11.93a3.516,3.516,0,1,1,3.516-3.516,3.516,3.516,0,0,1-3.516,3.516Zm0-11.93a8.418,8.418,0,1,0,8.418,8.414A8.418,8.418,0,0,0,31.336,10.952Zm0,11.93a3.516,3.516,0,1,1,3.516-3.516,3.516,3.516,0,0,1-3.516,3.516Zm0-11.93a8.418,8.418,0,1,0,8.418,8.414A8.418,8.418,0,0,0,31.336,10.952Zm0,11.93a3.516,3.516,0,1,1,3.516-3.516,3.516,3.516,0,0,1-3.516,3.516Zm0-11.93a8.418,8.418,0,1,0,8.418,8.414A8.418,8.418,0,0,0,31.336,10.952Zm0,11.93a3.516,3.516,0,1,1,3.516-3.516,3.516,3.516,0,0,1-3.516,3.516Zm0-11.93a8.418,8.418,0,1,0,8.418,8.414A8.418,8.418,0,0,0,31.336,10.952Zm0,11.93a3.516,3.516,0,1,1,3.516-3.516,3.516,3.516,0,0,1-3.516,3.516Zm0-11.93a8.418,8.418,0,1,0,8.418,8.414A8.418,8.418,0,0,0,31.336,10.952Zm0,11.93a3.516,3.516,0,1,1,3.516-3.516,3.516,3.516,0,0,1-3.516,3.516Zm0-11.93a8.418,8.418,0,1,0,8.418,8.414A8.418,8.418,0,0,0,31.336,10.952Zm0,11.93a3.516,3.516,0,1,1,3.516-3.516,3.516,3.516,0,0,1-3.516,3.516Z" transform="translate(-4.62 -4.42)" fill="url(#linear-gradient)"/>
      <path id="Path_1290" data-name="Path 1290" d="M30.744,64.4a3.292,3.292,0,1,1-6.584,0,17.687,17.687,0,0,1,1.726-4.927c.5-1.113,1.061-2.257,1.571-3.266.82,1.609,1.726,3.547,2.395,5.178A10.578,10.578,0,0,1,30.744,64.4Z" transform="translate(-15.729 -33.864)" opacity="0.6" fill="url(#linear-gradient)"/>
    </g>
  </g>
</svg>
