<svg xmlns="http://www.w3.org/2000/svg" width="29.701" height="50.632" viewBox="0 0 29.701 50.632"><defs><style>.a{fill:#f7e07e;}.b{fill:#fff;}.c{fill:#00b592;}.d{fill:#f79e39;}</style></defs><g transform="translate(0.006)"><g transform="translate(-0.006)"><rect class="a" width="3.657" height="19.854" transform="translate(13.075)"/><path class="b" d="M18.128,59.629a3.766,3.766,0,0,1-6.417-.019C4.475,60.583-.973,64.981.138,73.9c1.254,10.137,5.032,21.707,14.585,21.9h.242c9.553-.2,13.331-11.766,14.585-21.9C30.655,65.032,25.294,60.642,18.128,59.629Z" transform="translate(0.006 -45.175)"/><path class="c" d="M27.347,63.724A3.761,3.761,0,0,1,22.7,63.7c-4.625.911-10.311,4.5-9.226,12.817,1.259,9.64,7.265,18.987,11.362,19.355v.012h.247v-.012c4.088-.368,10.1-9.715,11.362-19.355C37.527,68.277,31.95,64.676,27.347,63.724Z" transform="translate(-10.111 -48.275)"/><rect class="a" width="17.803" height="11.781" rx="5.89" transform="translate(6.029 20.259)"/><circle class="d" cx="3.688" cy="3.688" r="3.688" transform="translate(3.15 36.788) rotate(-20.78)"/><path class="d" d="M74.506,170.429c1.642,0,2.976-1.937,2.976-4.359H71.53C71.53,168.475,72.855,170.429,74.506,170.429Z" transform="translate(-54.207 -125.855)"/><path class="d" d="M81.936,138.58c-1.644,0-2.976,1.937-2.976,4.359h5.952C84.912,140.529,83.571,138.58,81.936,138.58Z" transform="translate(-59.838 -105.022)"/><path class="b" d="M87.2,142.94l-1.293,2.24H88.5Z" transform="translate(-65.105 -108.326)"/><path class="b" d="M79.766,172.66l1.293-2.24H78.47Z" transform="translate(-59.467 -129.152)"/><path class="b" d="M25.283,157.142a2.351,2.351,0,0,1-1.107-4.429.344.344,0,0,1,.324.608,1.664,1.664,0,1,0,1.562,0,.344.344,0,1,1,.324-.608,2.351,2.351,0,0,1-1.1,4.429Z" transform="translate(-17.372 -115.702)"/><path class="b" d="M31.576,153.5a.346.346,0,0,1-.346-.346v-2.223a.346.346,0,0,1,.69,0v2.223a.346.346,0,0,1-.344.346Z" transform="translate(-23.666 -114.139)"/><path class="d" d="M72.98,96.453l-.385.4-.385-.4V93.77l.385-.4.385.4Z" transform="translate(-54.723 -70.76)"/><path class="d" d="M88.862,112.173l-.387.4-.385-.4v-2.685l.385-.4.387.4Z" transform="translate(-66.757 -82.673)"/><path class="d" d="M77.633,106.77l.4.385-.4.385H74.95l-.4-.385.4-.385Z" transform="translate(-56.496 -80.915)"/><path class="d" d="M77.633,91.24l.4.387-.4.385H74.95l-.4-.385.4-.387Z" transform="translate(-56.496 -69.146)"/><path class="d" d="M77.633,122.29l.4.387-.4.385H74.95l-.4-.385.4-.387Z" transform="translate(-56.496 -92.677)"/><path class="d" d="M50.012,96.453l-.387.4-.385-.4V93.77l.385-.4.387.4Z" transform="translate(-37.315 -70.76)"/><path class="d" d="M65.892,112.173l-.387.4-.385-.4v-2.685l.385-.4.387.4Z" transform="translate(-49.349 -82.673)"/><path class="d" d="M65.892,96.453l-.387.4-.385-.4V93.77l.385-.4.387.4Z" transform="translate(-49.349 -70.76)"/><path class="d" d="M54.663,106.77l.4.385-.4.385H51.98l-.4-.385.4-.385Z" transform="translate(-39.088 -80.915)"/><path class="d" d="M54.663,91.24l.4.387-.4.385H51.98l-.4-.385.4-.387Z" transform="translate(-39.088 -69.146)"/><path class="d" d="M54.663,122.29l.4.387-.4.385H51.98l-.4-.385.4-.387Z" transform="translate(-39.088 -92.677)"/></g></g></svg>