<svg xmlns="http://www.w3.org/2000/svg" width="36.158" height="49.641" viewBox="0 0 36.158 49.641"><defs><style>.a{fill:#475677;}.b{fill:#fff;}.c{fill:#00b592;}</style></defs><g transform="translate(-3.203 1.384)"><g transform="translate(3.209 -13.384)"><g transform="translate(-0.006)"><rect class="a" width="4.452" height="12.171" transform="translate(15.918 12)"/><path class="b" d="M22.071,59.634a4.584,4.584,0,0,1-7.812-.024C5.45,60.8-1.183,66.149.17,77.012,1.7,89.353,6.3,103.438,17.926,103.677h.295c11.63-.239,16.229-14.325,17.756-26.665C37.321,66.211,30.794,60.866,22.071,59.634Z" transform="translate(0.006 -42.037)"/><path class="c" d="M30.391,63.729A4.578,4.578,0,0,1,24.74,63.7c-5.631,1.108-12.553,5.483-11.232,15.6,1.533,11.736,8.844,23.116,13.832,23.564v.015h.3v-.015c4.976-.448,12.3-11.828,13.832-23.564C42.785,69.272,36,64.888,30.391,63.729Z" transform="translate(-9.408 -44.921)"/><rect class="a" width="21.674" height="14.342" rx="7.171" transform="translate(7.339 24.663)"/><circle class="a" cx="4.49" cy="4.49" r="4.49" transform="translate(3.835 44.787) rotate(-20.78)"/><path class="a" d="M75.153,171.376c2,0,3.623-2.358,3.623-5.306H71.53C71.53,169,73.143,171.376,75.153,171.376Z" transform="translate(-50.441 -117.112)"/><path class="a" d="M82.583,138.58c-2,0-3.623,2.358-3.623,5.306h7.246C86.206,140.953,84.573,138.58,82.583,138.58Z" transform="translate(-55.681 -97.726)"/><path class="c" d="M87.484,142.94l-1.574,2.727h3.149Z" transform="translate(-60.582 -100.801)"/><path class="c" d="M80.047,173.147l1.574-2.727H78.47Z" transform="translate(-55.335 -120.18)"/><path class="c" d="M25.8,158.114a2.863,2.863,0,0,1-1.347-5.392.419.419,0,1,1,.4.74,2.025,2.025,0,1,0,1.9,0,.419.419,0,1,1,.4-.74,2.863,2.863,0,0,1-1.344,5.392Z" transform="translate(-16.165 -107.664)"/><path class="c" d="M31.652,154.124a.422.422,0,0,1-.422-.422V151a.422.422,0,0,1,.84,0V153.7a.422.422,0,0,1-.419.422Z" transform="translate(-22.022 -106.209)"/><path class="c" d="M73.147,97.123l-.469.486-.469-.486V93.856l.469-.486.469.486Z" transform="translate(-53.119 -65.844)"/><path class="c" d="M89.03,112.843l-.472.486-.469-.486v-3.269l.469-.483.472.483Z" transform="translate(-64.318 -76.93)"/><path class="c" d="M78.3,106.77l.486.469-.486.469H75.036l-.486-.469.486-.469Z" transform="translate(-54.77 -75.294)"/><path class="c" d="M78.3,91.24l.486.472-.486.469H75.036l-.486-.469.486-.472Z" transform="translate(-54.77 -64.342)"/><path class="c" d="M78.3,122.29l.486.472-.486.469H75.036l-.486-.469.486-.472Z" transform="translate(-54.77 -86.238)"/><path class="c" d="M50.18,97.123l-.472.486-.469-.486V93.856l.469-.486.472.486Z" transform="translate(-36.921 -65.844)"/><path class="c" d="M66.06,112.843l-.472.486-.469-.486v-3.269l.469-.483.472.483Z" transform="translate(-48.12 -76.93)"/><path class="c" d="M66.06,97.123l-.472.486-.469-.486V93.856l.469-.486.472.486Z" transform="translate(-48.12 -65.844)"/><path class="c" d="M55.333,106.77l.486.469-.486.469H52.066l-.486-.469.486-.469Z" transform="translate(-38.571 -75.294)"/><path class="c" d="M55.333,91.24l.486.472-.486.469H52.066l-.486-.469.486-.472Z" transform="translate(-38.571 -64.342)"/><path class="c" d="M55.333,122.29l.486.472-.486.469H52.066l-.486-.469.486-.472Z" transform="translate(-38.571 -86.238)"/></g></g></g></svg>