<svg xmlns="http://www.w3.org/2000/svg" xmlns:xlink="http://www.w3.org/1999/xlink" width="46.234" height="46.731" viewBox="0 0 46.234 46.731"><defs><style>.a{fill:url(#a);}.b{fill:#8721a3;}.c{fill:#475677;}.d{fill:#fff;font-size:9px;font-family:Poppins-Medium, Poppins;font-weight:500;}</style><linearGradient id="a" x1="0.005" y1="0.005" x2="0.978" y2="0.978" gradientUnits="objectBoundingBox"><stop offset="0" stop-color="#8721a3"/><stop offset="0.82" stop-color="#8721a3" stop-opacity="0.82"/><stop offset="1" stop-color="#8721a3" stop-opacity="0.588"/></linearGradient></defs><g transform="translate(-43.121 -24.252)"><g transform="translate(43.121 28.88)"><g transform="translate(0 0)"><path class="a" d="M21.048,23.35a19.079,19.079,0,0,0,1.4-3.433,20.2,20.2,0,0,1,1.579-3.8,10.663,10.663,0,0,1,3.885-3.832v-10A2.286,2.286,0,0,0,25.631,0H16.484A2.288,2.288,0,0,0,14.2,2.288V14.2H2.288A2.288,2.288,0,0,0,0,16.484v9.147a2.286,2.286,0,0,0,2.288,2.286H14.11a9.381,9.381,0,0,0,6.938-4.567Z" transform="translate(0 0)"/><path class="b" d="M86.871,61.24H74.984a8.9,8.9,0,0,0-2.506,2.74,18.691,18.691,0,0,0-1.444,3.5A20.287,20.287,0,0,1,69.5,71.189a11.034,11.034,0,0,1-8.262,5.385V86.862a2.286,2.286,0,0,0,2.288,2.286h9.147a2.283,2.283,0,0,0,2.286-2.286v-11.9h11.91a2.283,2.283,0,0,0,2.286-2.286V63.528a2.286,2.286,0,0,0-2.286-2.288Z" transform="translate(-47.044 -47.044)"/></g></g><g transform="translate(-13 1)"><circle class="c" cx="7.49" cy="7.49" r="7.49" transform="matrix(0.966, -0.259, 0.259, 0.966, 84.009, 27.129)"/><text class="d" transform="translate(87.678 36)"><tspan x="0" y="0">60</tspan></text></g></g></svg>