<svg xmlns="http://www.w3.org/2000/svg" width="49.678" height="41.154" viewBox="0 0 49.678 41.154"><defs><style>.a{fill:#9249b2;}</style></defs><g transform="matrix(0.891, 0.454, -0.454, 0.891, 11.551, -11.901)"><path class="a" d="M32.415,21.527H11.557a.872.872,0,0,1-.869-.869V17.182a.872.872,0,0,1,.869-.869H32.415a.872.872,0,0,1,.869.869v3.476A.872.872,0,0,1,32.415,21.527Z" transform="translate(4.599 3.986)"/><path class="a" d="M26.578,34.421V11.39A2.4,2.4,0,0,1,28.968,9h0a2.4,2.4,0,0,1,2.39,2.39V34.421a2.4,2.4,0,0,1-2.39,2.39h0A2.4,2.4,0,0,1,26.578,34.421Z" transform="translate(13.261 0)"/><path class="a" d="M33.11,13.5h-1.3a.872.872,0,0,0-.869.869V26.537a.872.872,0,0,0,.869.869h1.3a2.179,2.179,0,0,0,2.173-2.173v-9.56A2.179,2.179,0,0,0,33.11,13.5Z" transform="translate(15.637 2.453)"/><path class="a" d="M11.108,34.421V11.39A2.4,2.4,0,0,0,8.718,9h0a2.4,2.4,0,0,0-2.39,2.39V34.421a2.4,2.4,0,0,0,2.39,2.39h0A2.4,2.4,0,0,0,11.108,34.421Z" transform="translate(2.223 0)"/><path class="a" d="M5.726,13.5h-1.3A2.179,2.179,0,0,0,2.25,15.673v9.56a2.179,2.179,0,0,0,2.173,2.173h1.3a.872.872,0,0,0,.869-.869V14.369A.872.872,0,0,0,5.726,13.5Z" transform="translate(0 2.453)"/></g></svg>