<svg xmlns="http://www.w3.org/2000/svg" xmlns:xlink="http://www.w3.org/1999/xlink" width="62" height="62" viewBox="0 0 62 62">
  <defs>
    <clipPath id="clip-path">
      <rect id="Rectangle_6708" data-name="Rectangle 6708" width="62" height="62" transform="translate(56 40)" fill="#fff" stroke="#707070" stroke-width="1"/>
    </clipPath>
    <linearGradient id="linear-gradient" x1="1.264" y1="-0.461" x2="0.031" y2="0.853" gradientUnits="objectBoundingBox">
      <stop offset="0" stop-color="#7047ea"/>
      <stop offset="1" stop-color="#9847ea"/>
    </linearGradient>
  </defs>
  <g id="Mask_Group_104" data-name="Mask Group 104" transform="translate(-56 -40)" clip-path="url(#clip-path)">
    <g id="Layer_2" data-name="Layer 2" transform="translate(65.543 49.127)">
      <g id="Layer_1" data-name="Layer 1" transform="translate(0.664 0.67)">
        <path id="Path_20469" data-name="Path 20469" d="M39.839,1.327c-.041.806-.557,12.494,4.456,15.5h0a.648.648,0,0,0,.906-.177.688.688,0,0,0,.127-.389,12.925,12.925,0,0,1,.494-3.215,8.242,8.242,0,0,1,1.227-2.522h0a.652.652,0,0,0,.091-.675,21.224,21.224,0,0,1-1.277-8.464h0A.657.657,0,0,0,45.269.67H40.487a.648.648,0,0,0-.648.648Z" transform="translate(-22.08 -0.67)" fill="url(#linear-gradient)"/>
        <path id="Subtraction_1" data-name="Subtraction 1" d="M21.817,35.638a17.24,17.24,0,0,1-3.578-.376,12.811,12.811,0,0,1-7.055-4.311l-.023-.028a4.925,4.925,0,0,0-2.015-1.431,1.815,1.815,0,0,0-1.278,0,2.087,2.087,0,0,0-.96.906,5.211,5.211,0,0,0-.6,2.6.643.643,0,0,1-.52.633A5.266,5.266,0,0,1,.116,31.308a.649.649,0,0,1-.082-.579c.9-3.391,2.065-5.749,3.554-7.208a6.116,6.116,0,0,1,4.489-1.79,18.989,18.989,0,0,1,4.773.858,18.144,18.144,0,0,0,3.488.712c.11.006.221.01.328.01,2.33,0,4.79-1.319,5.364-11.105-.011-.072-1.088-7.309,3.509-10.713A7.648,7.648,0,0,1,30.2,0a11.549,11.549,0,0,1,3.581.619,10.04,10.04,0,0,1,5.5,4.438,16.8,16.8,0,0,1,2.2,7.015,24.819,24.819,0,0,1-1.073,10,16.5,16.5,0,0,1-5.759,8.714,21.744,21.744,0,0,1-7.83,4.116A17.221,17.221,0,0,1,21.817,35.638Zm10.988-16.42a.65.65,0,0,0-.365.112l-5.655,5.679a.648.648,0,0,0,.248,1.154.7.7,0,0,0,.138.014.651.651,0,0,0,.52-.262l5.655-5.679a.652.652,0,0,0-.541-1.018Zm.381-5.8a.651.651,0,0,0-.366.112l-5.652,5.683a.652.652,0,0,0,.238,1.179.61.61,0,0,0,.13.012.65.65,0,0,0,.537-.285l5.652-5.683a.652.652,0,0,0-.54-1.018Zm.562-5.979a.651.651,0,0,0-.539.286l-5.66,5.693a.652.652,0,0,0,.541,1.017.647.647,0,0,0,.365-.111l5.66-5.693a.651.651,0,0,0-.237-1.178A.64.64,0,0,0,33.749,7.442Z" transform="translate(0 6.007)" fill="url(#linear-gradient)"/>
      </g>
    </g>
  </g>
</svg>
