<svg xmlns="http://www.w3.org/2000/svg" width="42.647" height="46.045" viewBox="0 0 42.647 46.045"><defs><style>.a{fill:#00b592;}</style></defs><g transform="translate(0.041 0.039)"><g transform="translate(-0.041 -0.039)"><path class="a" d="M41.774,5.947a.5.5,0,0,0-.4-.227.688.688,0,0,0-.579.411.672.672,0,0,0,.076.747A1.83,1.83,0,0,1,41.06,8.81a1.629,1.629,0,0,1-1.478.949H39.4a7.876,7.876,0,0,1-1.914-.529l-.445-.168a9.076,9.076,0,0,0-3.056-.722h-.176a3.359,3.359,0,0,0-1.478-1,5.172,5.172,0,0,0-1.62-.227H29.2a5.315,5.315,0,0,1-1.369-.151H27.7l.092-.1a3.694,3.694,0,0,0,.747-1.52,2.376,2.376,0,0,0-.3-2.116,2.275,2.275,0,0,0-1.805-.84,2.1,2.1,0,0,0-1.637.705,2.393,2.393,0,0,0-.453,2,3.5,3.5,0,0,0,.789,1.679l.092.109H25.09a9.488,9.488,0,0,1-1.3.16H23.5a5.76,5.76,0,0,1-3.661-1.52h0l.042-.092a9.975,9.975,0,0,0,.84-4.9c0-.756-1.209-.764-1.175,0a9.723,9.723,0,0,1-1.31,5.508,10.076,10.076,0,0,0-1.167,3.5H17.03a4.685,4.685,0,0,0-4.2,2.385,4.123,4.123,0,0,0-3.56-2.519,4.453,4.453,0,0,0-4.752,4.475,4.005,4.005,0,0,0,.445,2.065,1.73,1.73,0,0,0-.218,0c-2.485.067-4.408,1.394-4.752,3.98-.344,2.88,1.931,4.618,4.593,4.744h.445a4.425,4.425,0,0,0-1.058,2.855c-.059,2.779,2.317,4.3,4.861,4.307h.294A4.408,4.408,0,0,0,7.81,34.981c-.076,2.712,2.259,4.223,4.719,4.282A4.6,4.6,0,0,0,11.8,41.7c-.05,2.8,2.317,4.291,4.861,4.307a3.98,3.98,0,0,0,3.963-4.366,5.953,5.953,0,0,0-.68-2.292,5.794,5.794,0,0,0,1.327.151,3.98,3.98,0,0,0,3.963-4.366,5.768,5.768,0,0,0-.747-2.393,5.146,5.146,0,0,0,.621.042,3.98,3.98,0,0,0,3.963-4.366A5.777,5.777,0,0,0,28.314,26h.63a3.98,3.98,0,0,0,3.963-4.366c-.227-2.41-1.6-4.2-4.064-4.408H28.7a3.98,3.98,0,0,0,.521-2.385c-.227-2.418-1.6-4.2-4.064-4.416A4.66,4.66,0,0,0,20.9,12.865a4.257,4.257,0,0,0-2.687-3.081A9.689,9.689,0,0,1,19.3,6.711,6.961,6.961,0,0,0,23.638,8.39a7.414,7.414,0,0,0,1.041-.076,7.683,7.683,0,0,0,1.805-.453,4.551,4.551,0,0,0,.579.269,5.71,5.71,0,0,0,2.116.353h1.679a3.207,3.207,0,0,1,1.36.243l.151.076-.151.076A3.678,3.678,0,0,0,30.044,12a3.006,3.006,0,0,0,.756,2.1,1.679,1.679,0,0,0,1.259.521h.059a2.334,2.334,0,0,0,1.839-.949,4.845,4.845,0,0,0,.655-3.778V9.767h.126a2.368,2.368,0,0,1,.579.118,13.434,13.434,0,0,1,1.511.546,8.119,8.119,0,0,0,2.888.8,2.385,2.385,0,0,0,.966-.185A2.981,2.981,0,0,0,42.5,9.02,3.443,3.443,0,0,0,41.774,5.947ZM16.585,37.223h-.453a3.854,3.854,0,0,0,.411-1.016,3.888,3.888,0,0,0,.4,1.041,2.518,2.518,0,0,0-.386-.025Zm-.042-2.956a5.533,5.533,0,0,0-.689-1.839,6.793,6.793,0,0,0,.84.059,4.047,4.047,0,0,0,.722-.067,4.274,4.274,0,0,0-.9,1.847ZM8,23.126a4.2,4.2,0,0,0,.512-1.066A3.879,3.879,0,0,0,8.961,23.1l-.243-.042A5.038,5.038,0,0,0,8,23.126Zm12.46,4.047a5.349,5.349,0,0,0-.487-1.285,5.793,5.793,0,0,0,1.016.134,4.475,4.475,0,0,0-.529,1.15Zm-3.8,4.139c-1.881,0-3.745-1.041-3.686-3.132a3.332,3.332,0,0,1,3.585-3.291C20.145,25.183,20.615,31.253,16.66,31.312ZM9.532,20.85a3.333,3.333,0,0,1,3.585-3.3c3.543.319,4.055,6.373.109,6.432C11.337,24.007,9.473,22.933,9.532,20.85Zm7.254,2.9a1.839,1.839,0,0,0-.227,0h-.3a3.233,3.233,0,0,0,.319-.437A2.656,2.656,0,0,0,16.786,23.747Zm-4.114-7.33.151-.243c.042.076.092.143.143.218-.1,0-.193.017-.294.025ZM8.616,19.44a5.088,5.088,0,0,0-.5-1.36,6.054,6.054,0,0,0,1.108.126,4.123,4.123,0,0,0-.6,1.234Zm4.4,5.743a3.51,3.51,0,0,0-.579.772,4.828,4.828,0,0,0-.42-.89,7.733,7.733,0,0,0,1,.118Zm-.84,4.853a2.914,2.914,0,0,0,.285.5,6.582,6.582,0,0,0-.722.067,4.786,4.786,0,0,0,.428-.6Zm8.262-.218a3.778,3.778,0,0,0,.453.966,5.273,5.273,0,0,0-1.05.168,4.3,4.3,0,0,0,.588-1.167Zm4.2-5.877.059.084h-.109Zm-.076-4.257a4.92,4.92,0,0,0-.269-.512l.537.059a4.031,4.031,0,0,0-.243.437Zm-3.526-1.251c3.543.311,4.055,6.364.109,6.423-1.889,0-3.753-1.041-3.686-3.132a3.374,3.374,0,0,1,3.6-3.308Zm-4.148,1.075a5.332,5.332,0,0,0-.563-1.234,6.113,6.113,0,0,0,.781.059,4.148,4.148,0,0,0,.924-.109,4.2,4.2,0,0,0-1.117,1.268Zm-7.657-8.9c3.543.319,4.064,6.373.109,6.432-1.889,0-3.753-1.05-3.686-3.132A3.35,3.35,0,0,1,9.229,10.607Zm-8.019,9.4a3.353,3.353,0,0,1,3.535-2.93c3.678.252,3.971,6.616-.126,6.415C2.621,23.394.942,22.169,1.211,20.011Zm3.921,7.557a3.332,3.332,0,0,1,3.585-3.291c3.543.311,4.055,6.364.1,6.423-1.881-.017-3.745-1.083-3.686-3.174Zm3.837,7.439a3.333,3.333,0,0,1,3.585-3.3c3.543.319,4.055,6.373.1,6.432-1.881-.017-3.745-1.092-3.686-3.174ZM16.66,44.83c-1.881,0-3.745-1.05-3.686-3.132a3.344,3.344,0,0,1,3.585-3.3C20.145,38.718,20.615,44.771,16.66,44.83Zm4.61-6.507c-1.889,0-3.745-1.041-3.686-3.132A3.312,3.312,0,0,1,21.169,31.9C24.712,32.211,25.224,38.264,21.27,38.323Zm3.837-6.717c-1.881,0-3.745-1.05-3.686-3.132a3.317,3.317,0,0,1,3.585-3.291c3.535.294,4.055,6.348.1,6.406Zm3.837-6.717c-1.881,0-3.745-1.041-3.686-3.132a3.382,3.382,0,0,1,3.585-3.342c3.543.311,4.055,6.364.1,6.423ZM25.182,11.623c3.543.319,4.055,6.373.109,6.432-1.889,0-3.753-1.05-3.694-3.132A3.33,3.33,0,0,1,25.182,11.623Zm-4.568,4.668a3.98,3.98,0,0,0,.462.949,5.877,5.877,0,0,0-1.469.227,3.871,3.871,0,0,0,.982-1.175Zm-3.459.84c-1.881,0-3.745-1.05-3.686-3.132a3.344,3.344,0,0,1,3.585-3.3c3.518.327,4.03,6.381.076,6.44ZM27.03,5.611a2.175,2.175,0,0,1-.487.6l-.059.05-.05-.05a2.074,2.074,0,0,1-.84-1.629,1.041,1.041,0,0,1,.9-1.058.84.84,0,0,1,.529.2C27.7,4.276,27.105,5.477,27.03,5.611Zm5.533,7.414a1.1,1.1,0,0,1-.521.168.6.6,0,0,1-.554-.378,2.452,2.452,0,0,1,.243-2.091,2.8,2.8,0,0,1,1.369-.94h.084v.076C33.579,10.833,33.5,12.5,32.563,13.025Z" transform="translate(0.041 0.039)"/><path class="a" d="M9.267,17.518a1.453,1.453,0,0,1-.218-1.679c.453-.613-.571-1.192-1.016-.6a2.519,2.519,0,0,0,.218,2.88C8.7,18.7,9.72,18.114,9.267,17.518Z" transform="translate(-1.197 -2.372)"/><path class="a" d="M9.328,14.655a.588.588,0,1,0-.588-.588.588.588,0,0,0,.588.588Z" transform="translate(-1.367 -2.129)"/></g></g></svg>