<svg xmlns="http://www.w3.org/2000/svg" width="49.426" height="54.142" viewBox="0 0 49.426 54.142"><defs><style>.a,.b,.c{fill:#9249b2;}.a,.b{stroke:#9249b2;}.a{stroke-width:0.5px;}.c{stroke:#8c46ab;}</style></defs><g transform="translate(0.501 0.5)"><g transform="translate(-0.001)"><path class="a" d="M56.013,206.361q0,.024-.976-6.506-.257-1.66-.635-4.394-.306-2.21-.453-3.027-.145-.9-.353-1.966-.171-.88-.184-.952a.313.313,0,0,1,.147-.294.307.307,0,0,1,.306-.049q.341.122.5.72a15.065,15.065,0,0,1,.213,1.521q.024.329.136,1.6.136,1.586.408,3.5a74.417,74.417,0,0,0,1.245,7.433q.171.343.343-1.329,0-.037.256-1.661.294-1.745.476-3.356.355-2.977.6-5.724.1-1.392.208-2.311.061-.5.427-.44a.408.408,0,0,1,.39.328,5.466,5.466,0,0,1-.147,1.331q-.526,3.014-1.049,7.958-.514,4.92-1.039,7.447c-.065.292-.215.439-.451.439A.392.392,0,0,1,56.013,206.361Z" transform="translate(-46.15 -163.412)"/><path class="a" d="M109.219,206.075q1.631-.086,1.586.378.037.257-2.685.184a3.039,3.039,0,0,1-1.2-.073,6.44,6.44,0,0,1-.049-1.368q-.012-.28,0-1.807.024-1.721.024-2.295-.024-8.348-.061-10.424-.11-1.476.544-1.5a12.3,12.3,0,0,1,1.782,0,3.468,3.468,0,0,0,.39.012c.22,0,.392,0,.512.012.416.033.586.143.514.33q-.086.208-1.661.158c-.992-.023-1.48.082-1.464.318l-.049,3.534a30.028,30.028,0,0,0,.2,3.015q.012.122,1.5-.012c.136,0,.272.118.378.353s.086.339-.084.33a8.474,8.474,0,0,0-1.209-.012c-.408.065-.61.182-.61.353q-.184,6.408-.171,6.933.012,1.319.22,1.5A4.389,4.389,0,0,0,109.219,206.075Z" transform="translate(-92.302 -163.43)"/><path class="a" d="M156.4,202.227v4.089q0,.355-.294.355-.45,0-.451-.586-.012-.184-.208-.024a3.024,3.024,0,0,1-.39.28,3.547,3.547,0,0,1-1.16.272,3.313,3.313,0,0,1-2.38-.574,4.033,4.033,0,0,1-.939-2.478,61.182,61.182,0,0,1-.037-9.436q.194-3.051,1.317-4.224a2.212,2.212,0,0,1,2.662-.5,1.6,1.6,0,0,1,1.013.915q.159.526-.219.453a.649.649,0,0,1-.306-.257,1.886,1.886,0,0,0-.544-.451q-2.417-1.329-3.15,2.719a34.444,34.444,0,0,0-.17,4.456q-.086,2.4-.061,3.577.049,1.359.136,2.331a4.9,4.9,0,0,0,.609,2.123,1.99,1.99,0,0,0,1.831.733,1.827,1.827,0,0,0,1.892-.964,6.369,6.369,0,0,0,.122-2.21q-.037-.756-.257-.756c-.145,0-.451.029-.915.084-.351,0-.525-.125-.525-.378,0-.147.223-.272.672-.366a5.6,5.6,0,0,1,1.1-.1Q156.4,201.312,156.4,202.227Z" transform="translate(-129.932 -163.452)"/><path class="a" d="M210.144,206.094a.562.562,0,0,1-.073.329.446.446,0,0,1-.343.22q-.487.049-.451-.22a10.467,10.467,0,0,0-.184-4.107c-.082-.171-.488-.3-1.223-.39a4.359,4.359,0,0,0-2.05.182,1.259,1.259,0,0,0-.408.831,15.3,15.3,0,0,0-.367,2.429q.037,1.257-.136,1.294a.592.592,0,0,1-.586-.306,14.4,14.4,0,0,1,.392-3.136q.086-.544.378-2.882.281-2.281.476-3.4.073-.464.647-4.214.122-.892.22-1.305t.256-.952q.367-1.317.659-1.319.355,0,.61.733a13.827,13.827,0,0,1,.61,2.311q.575,3.151.6,3.43.049.44.122,1.172.147,1.368.245,2.272.366,3.515.6,6.786Zm-1.671-11.438q-.585-4.3-1.062-4.163a8.192,8.192,0,0,0-.464,2.113q-.049.23-.294,1.464-.272,1.27-.408,2.1-.159.892-.353,2.428-.171,1.453-.22,1.7c-.136.68-.094,1.033.11,1.049q3.185.11,3.211-.245A48.089,48.089,0,0,0,208.473,194.656Z" transform="translate(-176.527 -163.437)"/><path class="a" d="M263.456,198.857q0,.477.049,2.454.012.281,0,.964-.015.772-.015,1.014a15.029,15.029,0,0,1,.049,1.745q-.061.977-.1,1.123-.122.544-.439.544-.245,0-.647-1.416-2.235-7.995-2.393-8.836-.841-4.114-.867-4.248a7.8,7.8,0,0,0-.241-.844q-.171-.453-.2-.147a8.869,8.869,0,0,0,.024,1.074q.061.976.061,1.257v6.253q0,1.892.024,3.492a31.236,31.236,0,0,1,.024,3.2.454.454,0,0,1-.355.22.283.283,0,0,1-.292-.122,3.078,3.078,0,0,1-.086-.988l.037-8.143v-2.991q.025-3.76.024-4.273,0-.964.378-.977.343-.011.68,1.245.024.086.659,2.735.633,2.7.745,3.087.073.318.39,1.417.343,1.21.544,1.941.22.806.5,1.928c.2.757.3,1.169.318,1.233q.536,1.966.6,1.782a12.616,12.616,0,0,0,.037-1.476l-.1-7.349-.063-3.536q-.012-2.2-.012-2.5.012-.477.306-.477.378,0,.378.806Q263.48,190.728,263.456,198.857Z" transform="translate(-222.979 -163.488)"/><path class="b" d="M46.219,145.923a.388.388,0,0,0-.011-.069,2.761,2.761,0,0,0-.344-.9,13.61,13.61,0,0,0-2.4-3.863,12.143,12.143,0,0,0-10.083-4.107,26.806,26.806,0,0,0-3.012.408c-2.278.234-4.573,1.116-6.805.212-.408-.164-.58.493-.181.655a5.444,5.444,0,0,0,.856.272.33.33,0,0,0,.185.508,13.8,13.8,0,0,0,6.142-.231,17.5,17.5,0,0,1,3.729-.386l.93.2c.68.147,1.368.29,2.051.443.067.029.136.058.2.09a13.429,13.429,0,0,1,5.212,4.109,13.579,13.579,0,0,1,2.276,5.383c.841,4.305-.014,9.217-2.991,12.542-3.091,3.446-7.652,5.363-12,6.661a24.53,24.53,0,0,1-8.447,1.136c-.366-.022-.729-.057-1.088-.1q-1.309-.336-2.583-.773c-1.819-.859-3.56-1.911-5.272-2.921a.321.321,0,0,0-.094-.484c-.843-.477-1.722-.919-2.526-1.46-.858-.579-1.115-1.385-1.726-2.155a3.629,3.629,0,0,0-.791-.68,4.894,4.894,0,0,1-1.059-1.052,14.717,14.717,0,0,0-1.43-1.259c-.313-.586-.65-1.157-1.01-1.718-.249-.553-.472-1.119-.695-1.676a19.758,19.758,0,0,1-.933-2.8,20.222,20.222,0,0,1-.42-3.208,10.817,10.817,0,0,1,.084-3.351.328.328,0,0,0-.192-.389c.026-.106.052-.212.079-.318a6.5,6.5,0,0,1,.366-.779,17.05,17.05,0,0,1,1.788-2.516,11.081,11.081,0,0,1,2.3-2.057,11.035,11.035,0,0,1,2.794-1.554,12.536,12.536,0,0,1,3.125-.534,16.774,16.774,0,0,1,3.242-.024,7.511,7.511,0,0,1,1.209.253,14.916,14.916,0,0,1,1.411.544,12.888,12.888,0,0,1,2.788,1.876.34.34,0,0,0,.381.05c.147.117.292.235.435.359.33.284.816-.194.481-.481a15.52,15.52,0,0,0-3.612-2.323,9.74,9.74,0,0,0-1.782-.7,15.993,15.993,0,0,0-4.894-.779,15,15,0,0,0-5.548,1.028,6.531,6.531,0,0,0-3.968,3.755c-.234.593-.458,1.206-.663,1.83-.294.487-.582.976-.832,1.483a9.492,9.492,0,0,0-.865,4.74,5.654,5.654,0,0,0,1.058,3.525.3.3,0,0,0-.03.182,7.086,7.086,0,0,0,1.512,3q.353.518.7,1.044c.2.419.408.827.633,1.223.084.152.175.3.272.447q.34.587.7,1.17a12.839,12.839,0,0,0,1.373,2.507,11.911,11.911,0,0,0,2.406,2.262,30.6,30.6,0,0,0,4.606,2.781.363.363,0,0,0-.012.68A33.2,33.2,0,0,0,19,169.356c.348.136.7.272,1.051.4A14.724,14.724,0,0,0,26,170.6a14.826,14.826,0,0,0,1.582-.222,7.6,7.6,0,0,0,1.132-.253,28.5,28.5,0,0,0,3.587-1.206,29.3,29.3,0,0,0,2.745-1.274,4.453,4.453,0,0,0,.942-.345,4,4,0,0,1,1.342-.6.262.262,0,0,0,.22-.031.309.309,0,0,0,.136-.1A25.2,25.2,0,0,0,44,159.885a.337.337,0,0,0,.05-.15,17.327,17.327,0,0,0,2.855-8.37A14.427,14.427,0,0,0,46.219,145.923Z" transform="translate(0.001 -117.502)"/><path class="c" d="M200.282,0q-3.525.329-7.028.886a56.08,56.08,0,0,0-6.783,1.374,14.479,14.479,0,0,0-8.381,6.4,14.214,14.214,0,0,0-1.941,5.564c-.057.432.623.428.68,0,.012-.1.027-.2.042-.294a.409.409,0,0,0,.042-.042c1.374-1.669,2-3.742,3.118-5.565a11.087,11.087,0,0,1,5.224-4.35,24.484,24.484,0,0,1,6.911-1.7c1.1-.106,2.175-.358,3.275-.461.952-.091,1.91-.175,2.864-.261a30.166,30.166,0,0,1-1.267,5.5,13.425,13.425,0,0,1-3.617,5.284A12.472,12.472,0,0,1,191,14.395c-.054.03-.11.057-.166.083-.128.053-.257.1-.386.154a8.15,8.15,0,0,1-2.518.272,11.623,11.623,0,0,0-2.818.3,16.914,16.914,0,0,1-3.369.136.328.328,0,0,0-.226.1l-.3-.031c-.435-.048-.431.632,0,.68a20.746,20.746,0,0,0,9.213-.745,4.182,4.182,0,0,0,.816-.309l.094-.05c.05-.022.1-.044.154-.068,3.369-1.528,5.292-4.524,6.638-7.846.892-2.175,1.66-4.421,2.475-6.638A.341.341,0,0,0,200.282,0Z" transform="translate(-152.2)"/><path class="c" d="M203.383,26.941a24.032,24.032,0,0,0-8.472,6.374,12.623,12.623,0,0,0-2.664,2.515A40.1,40.1,0,0,1,189.1,39.7a.353.353,0,0,0,.288.585.314.314,0,0,0,.544.136c1.725-2.126,3.452-4.422,5.355-6.525l.205-.163,3.723-3a17.158,17.158,0,0,1,3.978-2.792.355.355,0,0,0,.217-.272l.154-.067C203.965,27.433,203.788,26.775,203.383,26.941Z" transform="translate(-163.318 -23.256)"/></g></g></svg>