<svg xmlns="http://www.w3.org/2000/svg" xmlns:xlink="http://www.w3.org/1999/xlink" width="62" height="62" viewBox="0 0 62 62">
  <defs>
    <clipPath id="clip-path">
      <rect id="Rectangle_6710" data-name="Rectangle 6710" width="62" height="62" transform="translate(54 40)" fill="#fff" stroke="#707070" stroke-width="1"/>
    </clipPath>
    <linearGradient id="linear-gradient" x1="1.264" y1="-0.461" x2="0.031" y2="0.853" gradientUnits="objectBoundingBox">
      <stop offset="0" stop-color="#7047ea"/>
      <stop offset="1" stop-color="#9847ea"/>
    </linearGradient>
  </defs>
  <g id="Mask_Group_106" data-name="Mask Group 106" transform="translate(-54 -40)" clip-path="url(#clip-path)">
    <g id="teeth" transform="translate(68.031 51.639)">
      <g id="Layer_2" data-name="Layer 2" transform="translate(0.817 -0.449)">
        <g id="Layer_11" data-name="Layer 11">
          <path id="Path_20474" data-name="Path 20474" d="M31.862,32.182l.077-.141V32h0l.039-.073.15-.3.3-.574.583-1.011c.03-.056.047-.094.069-.141l.047-.086c.171-.583.356-1.209.566-1.877A43.232,43.232,0,0,0,36.075,13.9c0-6.175-3.343-10.135-8.52-10.135a26.469,26.469,0,0,0-7.285,1.577s-.934.429-1.2.313l-1.157-.681-.934-.429-.634-.249a19.105,19.105,0,0,0-4.046-.51c-5.186,0-8.528,3.977-8.528,10.135A42.558,42.558,0,0,0,6.131,27.763c.159.531.321,1.02.454,1.5a9.02,9.02,0,0,0,.429.8l.557.994h0l.291.574.154.3L8.056,32h0v.039l.086.141.651,1.161,1.4,1.937L8.433,33.613h0l-.857-1.02-.1-.124-.12-.15L7.3,32.212c-.111.3-.227.6-.257.651l-.064.266c-.056.227-.124.454-.171.677a14.875,14.875,0,0,0-.33,1.834,14.657,14.657,0,0,0-.056,3.137A16.628,16.628,0,0,0,6.8,41.224a2.649,2.649,0,0,0,.18.549l.18.454c.047.111.086.214.124.3.111.274.189.429.189.429a1.924,1.924,0,0,0,.677.763,1.817,1.817,0,0,0,1.371.2,1.843,1.843,0,0,0,1.123-.831,4.644,4.644,0,0,0,.227-.429c.047-.107.111-.227.176-.369.124-.266.287-.587.454-.9.283-.429.6-.926.956-1.509l.189-.283c.133-.219.274-.429.429-.651.06-.077.124-.171.193-.274a4.234,4.234,0,0,1,.5-.673c.047-.064.116-.171.189-.266a6.393,6.393,0,0,1,.557-.669c.06-.069.124-.15.2-.236l.15-.189.429-.429c.171-.18.351-.351.54-.519.1-.086.2-.18.3-.274a.3.3,0,0,1,.077-.069,2.519,2.519,0,0,0,.321-.253,3.351,3.351,0,0,1,.566-.429,5.447,5.447,0,0,1,1.607-.81c.039,0,.077-.03.111-.039a.394.394,0,0,1,.107-.039h.15a1.337,1.337,0,0,1,.347-.056.994.994,0,0,1,.3-.03h.094a.352.352,0,0,1,.094,0l.587.03a.964.964,0,0,1,.33.073h.086a.767.767,0,0,1,.15.047,5.914,5.914,0,0,1,1.74.857,2.961,2.961,0,0,1,.51.369,2.254,2.254,0,0,0,.321.253.279.279,0,0,1,.073.069c.094.086.189.171.283.266a5.678,5.678,0,0,1,.57.544l.489.523a4.4,4.4,0,0,0,.3.339,5.142,5.142,0,0,1,.536.651c.077.094.141.193.219.274a6.427,6.427,0,0,1,.429.6,3.527,3.527,0,0,0,.227.334c.171.227.321.463.463.686l.141.24c.249.369.454.737.656,1.076l.3.519c.18.313.321.579.429.793l.189.33c.141.257.227.4.227.4l.159.244a1.659,1.659,0,0,0,.707.617,1.714,1.714,0,0,0,2.314-.814,4.572,4.572,0,0,0,.2-.471,3.335,3.335,0,0,1,.111-.33,8.73,8.73,0,0,0,.4-1.071l.039-.18a13.889,13.889,0,0,0,.351-2.143,14.875,14.875,0,0,0-.06-3.154,12.856,12.856,0,0,0-.321-1.813c-.056-.244-.111-.471-.18-.7l-.073-.291s-.077-.249-.15-.531l-.116.15-.111.124-.857,1.02h0l-1.757,1.663,1.406-1.937ZM28.631,19.9c-.18.66-.313,1.329-.536,1.971a16.672,16.672,0,0,1-1.744,3.677,12.429,12.429,0,0,1-1.286,1.624h0a.069.069,0,0,1-.111-.069c.493-1.217.969-2.438,1.363-3.686a35.377,35.377,0,0,0,.99-3.8,31.144,31.144,0,0,0,.561-3.87c.056-.651.081-1.286.081-1.959a16.483,16.483,0,0,0-.081-1.954.069.069,0,0,1,.056-.077.073.073,0,0,1,.069.039h0a9.99,9.99,0,0,1,.951,4.011,16.418,16.418,0,0,1-.313,4.093Z" transform="translate(-3.77 -3.76)" fill="url(#linear-gradient)"/>
        </g>
      </g>
    </g>
  </g>
</svg>
