<svg xmlns="http://www.w3.org/2000/svg" width="39.81" height="36.589" viewBox="0 0 39.81 36.589"><defs><style>.a,.b{fill:#9249b2;}.a{opacity:0.5;}.c{fill:#c6a0d6;}</style></defs><path class="a" d="M28.4,8.31A11.43,11.43,0,0,0,17,19.06H39.81A11.44,11.44,0,0,0,28.4,8.31Z"/><path class="b" d="M17,20.34a11.42,11.42,0,0,0,22.81,0Z"/><path class="c" d="M7.34,0A7.36,7.36,0,0,0,0,7.33V29.52a7.34,7.34,0,0,0,14.67,0V7.33A7.36,7.36,0,0,0,7.34,0ZM13.1,18.83H1.57V7.58a5.77,5.77,0,0,1,11.53,0Z"/><path class="b" d="M13.05,20.75v8.38a5.74,5.74,0,0,1-11.48,0V20.75Z"/></svg>