<svg xmlns="http://www.w3.org/2000/svg" xmlns:xlink="http://www.w3.org/1999/xlink" width="38.724" height="33.996" viewBox="0 0 38.724 33.996"><defs><style>.a{fill:#e0474e;}.b{fill:url(#a);}</style><linearGradient id="a" x1="0.5" y1="0.025" x2="0.5" y2="1.023" gradientUnits="objectBoundingBox"><stop offset="0" stop-color="#e0474e"/><stop offset="0.82" stop-color="#e0474e" stop-opacity="0.788"/><stop offset="1" stop-color="#e0474e" stop-opacity="0.51"/></linearGradient></defs><g transform="translate(-17.056 -3.262)"><g transform="translate(17.053 3.264)"><g transform="translate(0.002 -0.002)"><path class="a" d="M7.552,11.413a.655.655,0,0,1,1.179.028l2.21,4.865h5.848a.649.649,0,0,1,.545.292l.561.85.535-.84a.661.661,0,0,1,.552-.3H20.1l2.569-7.246a.655.655,0,0,1,1.259.09l2.105,10.522,2.317-8.7a.653.653,0,0,1,1.256-.03l2.186,6.83,1.327-2.116a.659.659,0,0,1,.561-.307H38.55a15.024,15.024,0,0,0-1.577-9.343C34.994,2.336,31.7.032,28.363,0h-.079C25.9,0,22.5,1.1,19.364,6.116c-3.17-5.069-6.613-6.138-9-6.117C7.028.032,3.733,2.336,1.757,6.009A14.951,14.951,0,0,0,.376,16.3H5.035Z" transform="translate(-0.002 0.002)"/><path class="b" d="M35.405,70.629a.655.655,0,0,1-1.179-.15L32.3,64.44,29.84,73.69a.655.655,0,0,1-.632.487h-.021a.655.655,0,0,1-.621-.526L26.377,62.7l-1.931,5.447a.655.655,0,0,1-.618.436H22.6l-.883,1.383a.653.653,0,0,1-.545.3.646.646,0,0,1-.561-.292l-.936-1.392h-5.9a.657.657,0,0,1-.6-.374l-1.824-4.023L9.269,68.228a.661.661,0,0,1-.591.356H4A14.117,14.117,0,0,0,5.521,71.7c3.136,4.833,8.632,9.126,16.8,13.123l.288.14.288-.14c8.168-4,13.66-8.29,16.8-13.123a13.958,13.958,0,0,0,1.811-4.068H37.288Z" transform="translate(-3.252 -50.967)"/></g></g></g></svg>