<svg xmlns="http://www.w3.org/2000/svg" width="60" height="60" viewBox="0 0 60 60">
  <g id="Layer_2" data-name="Layer 2" transform="translate(1.303 -0.155)">
    <g id="Rectangle_6550" data-name="Rectangle 6550" transform="translate(-1.303 0.155)" fill="#df6868" stroke="#707070" stroke-width="1" opacity="0">
      <rect width="60" height="60" stroke="none"/>
      <rect x="0.5" y="0.5" width="59" height="59" fill="none"/>
    </g>
    <g id="Layer_2-2" data-name="Layer 2" transform="translate(-1.302 5.393)">
      <g id="Layer_14" data-name="Layer 14" transform="translate(-0.001 0.02)">
        <path id="Path_20671" data-name="Path 20671" d="M59.49,26.969c-.057-.214-.113-.415-.176-.628-.132-.4-.276-.8-.44-1.181L58.811,25l-.044-.082.082-.258a11.523,11.523,0,0,0,0-7.044,11.693,11.693,0,0,0-8.168-7.8L50.228,9.7l-.075-.459q-.113-.553-.264-1.074a8.369,8.369,0,0,0-7.955-5.931,7.929,7.929,0,0,0-2.419.371l-.364.119-.346-.2A11.938,11.938,0,0,0,27.985.548a11.718,11.718,0,0,0-5.743,3.984l-.383.5-.54-.289A9.318,9.318,0,0,0,7.986,10.362l-.138.478-.49.044a8.589,8.589,0,0,0-1.665.333A8.068,8.068,0,0,0,.9,15.32a8.533,8.533,0,0,0-.5,6.415,8.357,8.357,0,0,0,7.942,5.919,7.86,7.86,0,0,0,1.081-.075l.628-.082.226.71a6.861,6.861,0,0,0,6.516,4.87,6.283,6.283,0,0,0,1.257-.113l.741-.145.126.735a7.087,7.087,0,0,0,.27,1.106A8.35,8.35,0,0,0,27.131,40.6a8.036,8.036,0,0,0,5.806-2.513l.364-.383.484.232a9.752,9.752,0,0,0,1.508.591l.226.069.05.063.094.126a13.075,13.075,0,0,0,1.709,1.885,13.61,13.61,0,0,0,9.218,3.669,13.339,13.339,0,0,0,11.938-7.4,13.974,13.974,0,0,0,.961-9.978Zm-9.852-6.981L48.13,21.515l-4.116,3.418a1.885,1.885,0,0,1-2.432,0l-4.122-3.418-1.527-1.527a4.3,4.3,0,0,1,6.076-6.076l.773.767.767-.767a4.3,4.3,0,1,1,6.089,6.076Z" transform="translate(0.001 -0.02)" fill="#7c60dc"/>
        <path id="Path_20672" data-name="Path 20672" d="M57.861,72.2c-2.45.8-6.283,1.213-8.263-.974-2.231-2.45-2.884-7.037-6.717-7.546h-.075c-.383-.044.2-.628.628-.792a.528.528,0,0,1,.258-.069h.05a4.4,4.4,0,0,1,1.294.352c2.036.861,3.223,3.041,4.285,5.027a6.638,6.638,0,0,0,7.7,3.575c-1.621-1.565-2.161-3.142-.679-5.133h0a2.237,2.237,0,0,1,.88-.465h0c.126,0,.207,0,.207.057a.364.364,0,0,1-.082.176,5.453,5.453,0,0,0-.327.484c-1.056,1.847.069,3.242,1.6,4.581C58.848,71.648,57.962,72.17,57.861,72.2Z" transform="translate(-15.863 -23.361)" fill="#7c60dc"/>
      </g>
    </g>
  </g>
</svg>
