<svg xmlns="http://www.w3.org/2000/svg" xmlns:xlink="http://www.w3.org/1999/xlink" width="62" height="62" viewBox="0 0 62 62">
  <defs>
    <clipPath id="clip-path">
      <rect id="Rectangle_6712" data-name="Rectangle 6712" width="62" height="62" transform="translate(54 40)" fill="#fff" stroke="#707070" stroke-width="1"/>
    </clipPath>
    <linearGradient id="linear-gradient" x1="1.264" y1="-0.461" x2="0.031" y2="0.853" gradientUnits="objectBoundingBox">
      <stop offset="0" stop-color="#7047ea"/>
      <stop offset="1" stop-color="#9847ea"/>
    </linearGradient>
  </defs>
  <g id="Mask_Group_108" data-name="Mask Group 108" transform="translate(-54 -40)" clip-path="url(#clip-path)">
    <g id="ortho23" transform="translate(65.966 49.697)">
      <g id="Layer_2" data-name="Layer 2" transform="translate(0)">
        <g id="Layer_15" data-name="Layer 15">
          <path id="Line_247" data-name="Line 247" d="M1.979,2.291-.62.806.461-1.085,3.059.4Z" transform="translate(3.188 17.458)" opacity="0.6" fill="url(#linear-gradient)"/>
          <path id="Line_248" data-name="Line 248" d="M.222,1.6-.3-.516l2.825-.7L3.047.9Z" transform="translate(0.299 25.742)" opacity="0.6" fill="url(#linear-gradient)"/>
          <path id="Line_249" data-name="Line 249" d="M.778,2.74-1.048,1.552.4-.681,2.231.506Z" transform="translate(7.039 30.123)" opacity="0.6" fill="url(#linear-gradient)"/>
          <path id="Line_250" data-name="Line 250" d="M2.153,1.614-.347.891.258-1.2l2.5.723Z" transform="translate(33.423 24.31)" opacity="0.6" fill="url(#linear-gradient)"/>
          <path id="Line_251" data-name="Line 251" d="M.2,1.694-.27-.432,3.288-1.22,3.76.906Z" transform="translate(33.603 17.403)" opacity="0.6" fill="url(#linear-gradient)"/>
          <path id="Line_252" data-name="Line 252" d="M.815,3.228-1.1,2.188.417-.6,2.33.443Z" transform="translate(27.409 9.194)" opacity="0.6" fill="url(#linear-gradient)"/>
          <g id="Group_179" data-name="Group 179" transform="translate(6.027 23.822)" opacity="0.6">
            <circle id="Ellipse_179" data-name="Ellipse 179" cx="0.412" cy="0.412" r="0.412" transform="translate(0.436 0.436)" fill="url(#linear-gradient)"/>
            <path id="Ellipse_179_-_Outline" data-name="Ellipse 179 - Outline" d="M.348-.5A.848.848,0,1,1-.5.348.849.849,0,0,1,.348-.5Z" transform="translate(0.5 0.5)" fill="url(#linear-gradient)"/>
          </g>
          <g id="Group_180" data-name="Group 180" transform="translate(7.169 20.533)" opacity="0.6">
            <circle id="Ellipse_180" data-name="Ellipse 180" cx="0.412" cy="0.412" r="0.412" transform="translate(0.436 0.436)" fill="url(#linear-gradient)"/>
            <path id="Ellipse_180_-_Outline" data-name="Ellipse 180 - Outline" d="M.348-.5A.848.848,0,1,1-.5.348.849.849,0,0,1,.348-.5Z" transform="translate(0.5 0.5)" fill="url(#linear-gradient)"/>
          </g>
          <g id="Group_181" data-name="Group 181" transform="translate(8.974 26.197)" opacity="0.6">
            <circle id="Ellipse_181" data-name="Ellipse 181" cx="0.412" cy="0.412" r="0.412" transform="translate(0.436 0.436)" fill="url(#linear-gradient)"/>
            <path id="Ellipse_181_-_Outline" data-name="Ellipse 181 - Outline" d="M.348-.5A.848.848,0,1,1-.5.348.849.849,0,0,1,.348-.5Z" transform="translate(0.5 0.5)" fill="url(#linear-gradient)"/>
          </g>
          <g id="Group_182" data-name="Group 182" transform="translate(30.632 21.967)" opacity="0.6">
            <circle id="Ellipse_182" data-name="Ellipse 182" cx="0.412" cy="0.412" r="0.412" transform="translate(0.436 0.436)" fill="url(#linear-gradient)"/>
            <path id="Ellipse_182_-_Outline" data-name="Ellipse 182 - Outline" d="M.348-.5A.848.848,0,1,1-.5.348.849.849,0,0,1,.348-.5Z" transform="translate(0.5 0.5)" fill="url(#linear-gradient)"/>
          </g>
          <g id="Group_183" data-name="Group 183" transform="translate(29.924 17.368)" opacity="0.6">
            <circle id="Ellipse_183" data-name="Ellipse 183" cx="0.412" cy="0.412" r="0.412" transform="translate(0.436 0.436)" fill="url(#linear-gradient)"/>
            <path id="Ellipse_183_-_Outline" data-name="Ellipse 183 - Outline" d="M.348-.5A.848.848,0,1,1-.5.348.849.849,0,0,1,.348-.5Z" transform="translate(0.5 0.5)" fill="url(#linear-gradient)"/>
          </g>
          <g id="Group_184" data-name="Group 184" transform="translate(25.551 13.813)" opacity="0.6">
            <circle id="Ellipse_184" data-name="Ellipse 184" cx="0.412" cy="0.412" r="0.412" transform="translate(0.436 0.436)" fill="url(#linear-gradient)"/>
            <path id="Ellipse_184_-_Outline" data-name="Ellipse 184 - Outline" d="M.348-.5A.848.848,0,1,1-.5.348.849.849,0,0,1,.348-.5Z" transform="translate(0.5 0.5)" fill="url(#linear-gradient)"/>
          </g>
          <path id="Path_7064" data-name="Path 7064" d="M50.872,82.526a9.362,9.362,0,0,1-4.632-1.591c-2.968,1.785-5.329,2.07-7.019.843a5.15,5.15,0,0,1-1.792-4.862A7.556,7.556,0,0,1,39.375,74.2a7.083,7.083,0,0,0,1.708-2.281c.168-1,.1-5.537,0-9.125V62.7a1.094,1.094,0,0,1,0-.157.909.909,0,0,1,.036-.405.85.85,0,0,1,1.1-.526c1.256.431,2.639.9,3.154,1.059.248-.095.7-.274,1.073-.431l.157-.066h2.011l.544-.208,1.161-.365a.847.847,0,0,1,1.062.555.81.81,0,0,1,.029.365.731.731,0,0,1,0,.157v.139c-.11,3.577-.175,8.11,0,9.125a7.216,7.216,0,0,0,1.712,2.281,7.435,7.435,0,0,1,1.945,2.716A5.158,5.158,0,0,1,53.27,81.8,3.979,3.979,0,0,1,50.872,82.526Z" transform="translate(-25.492 -40.5)" fill="url(#linear-gradient)"/>
          <path id="Path_7064_-_Outline" data-name="Path 7064 - Outline" d="M50.977,80.785a2.224,2.224,0,0,0,1.28-.4,3.467,3.467,0,0,0,1.117-3.016A7.228,7.228,0,0,0,51.9,75.474l-.056-.06c-1.158-1.234-1.99-2.185-2.159-3.182a81.775,81.775,0,0,1-.049-8.587l-.707.27H46.946c-.355.146-.734.3-.956.382l-.564.216-.577-.18c-.381-.119-1.179-.386-2-.664a83.16,83.16,0,0,1-.048,8.537c-.156.935-.849,1.808-2.158,3.189a7.776,7.776,0,0,0-1.528,1.959,3.508,3.508,0,0,0,1.129,3.015,2.241,2.241,0,0,0,1.365.415,7.86,7.86,0,0,0,3.732-1.341l.9-.54.9.539a7.886,7.886,0,0,0,3.735,1.343h.1m0,1.742h-.1a9.362,9.362,0,0,1-4.632-1.591c-2.968,1.785-5.329,2.07-7.019.843a5.15,5.15,0,0,1-1.792-4.862A7.556,7.556,0,0,1,39.375,74.2a7.083,7.083,0,0,0,1.708-2.281c.168-1,.1-5.537,0-9.125V62.7a1.094,1.094,0,0,1,0-.157.909.909,0,0,1,.036-.405.85.85,0,0,1,1.1-.526c1.256.431,2.639.9,3.154,1.059.248-.095.7-.274,1.073-.431l.157-.066h2.011l.544-.208,1.161-.365a.847.847,0,0,1,1.062.555.81.81,0,0,1,.029.365.73.73,0,0,1,0,.157v.139c-.11,3.577-.175,8.11,0,9.125a7.216,7.216,0,0,0,1.712,2.281,7.435,7.435,0,0,1,1.945,2.716A5.158,5.158,0,0,1,53.27,81.8,3.979,3.979,0,0,1,50.977,82.528Z" transform="translate(-25.492 -40.5)" fill="url(#linear-gradient)"/>
          <path id="Path_7065" data-name="Path 7065" d="M39.135,24.81a.8.8,0,0,1-.274-.047c-1.256-.431-2.643-.9-3.154-1.059-.248.091-.7.274-1.073.431l-.161.066H32.466l-.544.208-1.161.365a.854.854,0,0,1-1.066-.558.9.9,0,0,1-.029-.365,1.143,1.143,0,0,1,0-.161v-.095c.11-3.573.175-8.107,0-9.125a7.176,7.176,0,0,0-1.712-2.281,7.618,7.618,0,0,1-1.945-2.716A5.15,5.15,0,0,1,27.8,4.61c1.69-1.226,4.052-.942,7.023.843,2.968-1.785,5.329-2.07,7.019-.843a5.15,5.15,0,0,1,1.792,4.862,7.618,7.618,0,0,1-1.945,2.716,7.045,7.045,0,0,0-1.708,2.281c-.168,1-.1,5.537,0,9.125v.095a1.14,1.14,0,0,1,0,.161.887.887,0,0,1-.036.4A.854.854,0,0,1,39.135,24.81Z" transform="translate(-18.24 -3.863)" fill="url(#linear-gradient)"/>
          <path id="Path_7065_-_Outline" data-name="Path 7065 - Outline" d="M31.435,22.729l.709-.271h1.984c.26-.108.7-.287.977-.389l.557-.2.566.178c.38.119,1.166.382,1.985.659a82.978,82.978,0,0,1,.048-8.516c.155-.935.848-1.808,2.158-3.19l.01-.011a7.835,7.835,0,0,0,1.518-1.948A3.508,3.508,0,0,0,40.82,6.02a2.242,2.242,0,0,0-1.365-.415,7.86,7.86,0,0,0-3.732,1.341l-.9.54-.9-.539A7.877,7.877,0,0,0,30.19,5.605a2.243,2.243,0,0,0-1.366.415A3.508,3.508,0,0,0,27.7,9.034a7.83,7.83,0,0,0,1.519,1.949l.013.014c1.194,1.272,1.989,2.182,2.157,3.181a81.378,81.378,0,0,1,.05,8.55m-.925,2.082a.854.854,0,0,1-.814-.6.9.9,0,0,1-.029-.365,1.143,1.143,0,0,1,0-.161v-.095c.11-3.573.175-8.107,0-9.125a7.177,7.177,0,0,0-1.712-2.281,7.618,7.618,0,0,1-1.945-2.716A5.15,5.15,0,0,1,27.8,4.61c1.69-1.226,4.052-.942,7.023.843,2.968-1.785,5.329-2.07,7.019-.843a5.15,5.15,0,0,1,1.792,4.862,7.618,7.618,0,0,1-1.945,2.716,7.045,7.045,0,0,0-1.708,2.281c-.168,1-.1,5.537,0,9.125v.095a1.141,1.141,0,0,1,0,.161.887.887,0,0,1-.037.4.854.854,0,0,1-.81.558.8.8,0,0,1-.274-.047c-1.256-.431-2.643-.9-3.154-1.059-.248.091-.7.274-1.073.431l-.161.066H32.466l-.544.208-1.161.365A.854.854,0,0,1,30.51,24.811Z" transform="translate(-18.24 -3.863)" fill="url(#linear-gradient)"/>
        </g>
      </g>
    </g>
  </g>
</svg>
