<svg xmlns="http://www.w3.org/2000/svg" width="36.007" height="36.007" viewBox="0 0 36.007 36.007"><defs><style>.a{fill:#ffbe58;}</style></defs><path class="a" d="M15.6,20.554a2.25,2.25,0,1,0,2.25,2.25A2.251,2.251,0,0,0,15.6,20.554Zm10.8,0a2.25,2.25,0,1,0,2.25,2.25A2.251,2.251,0,0,0,26.4,20.554ZM21,3a18,18,0,1,0,18,18A18.01,18.01,0,0,0,21,3Zm0,32.407A14.422,14.422,0,0,1,6.6,21a14.6,14.6,0,0,1,.09-1.548,18.115,18.115,0,0,0,9.38-9.668A17.957,17.957,0,0,0,30.762,17.4a17.572,17.572,0,0,0,4.051-.468A14.381,14.381,0,0,1,21,35.407Z" transform="translate(-3 -3)"/></svg>