<svg xmlns="http://www.w3.org/2000/svg" width="40.791" height="41.597" viewBox="0 0 40.791 41.597"><defs><style>.a,.c{fill:#8721a3;}.a,.b{stroke:#8721a3;}.b{fill:#0064ff;}</style></defs><g transform="translate(-3.739 -12.659)"><g transform="translate(2.808 13.144)"><g transform="translate(1.445 0.017)"><path class="a" d="M28.312,34.659a.293.293,0,0,1-.088,0L.988,27.354a.358.358,0,0,1-.251-.432.353.353,0,0,1,.432-.246l27.236,7.291a.348.348,0,0,1,.246.427A.353.353,0,0,1,28.312,34.659Z" transform="translate(-0.726 -14.29)"/><path class="b" d="M63.965,44.9a4.906,4.906,0,1,1,4.741-3.636A4.936,4.936,0,0,1,63.965,44.9Zm0-9.107a4.2,4.2,0,0,0-1.091,8.261,4.142,4.142,0,0,0,1.091.144,4.2,4.2,0,1,0,0-8.405Z" transform="translate(-31.977 -18.803)"/><path class="b" d="M66.217,45.186a3.074,3.074,0,0,1-.748-.084,3.048,3.048,0,1,1,.748.084Zm0-5.224a2.277,2.277,0,1,0,.608.079,2.322,2.322,0,0,0-.608-.06Z" transform="translate(-34.229 -21.046)"/><path class="a" d="M35.057,27.923a.353.353,0,0,1-.339-.26L27.423.474a.354.354,0,0,1,.678-.2l7.3,27.213a.353.353,0,0,1-.246.432Z" transform="translate(-15.017 -0.017)"/><path class="a" d="M40.758,68.077h0a4.966,4.966,0,1,1,1.272-.186A4.913,4.913,0,0,1,40.758,68.077Zm0-9.111a4.2,4.2,0,1,0,0,8.41h0a4.347,4.347,0,0,0,1.091-.144,4.2,4.2,0,0,0-1.087-8.266Z" transform="translate(-19.539 -31.213)"/><path class="a" d="M43.008,68.375h0a2.963,2.963,0,0,1-.766-5.823,2.875,2.875,0,0,1,.766-.1,2.963,2.963,0,0,1,.771,5.828A3.107,3.107,0,0,1,43.008,68.375Zm0-5.224a2.322,2.322,0,0,0-.585.079,2.262,2.262,0,0,0,.585,4.444h0a2.262,2.262,0,1,0,0-4.523Z" transform="translate(-21.789 -33.457)"/><path class="c" d="M37.225,78.586H.353a.353.353,0,0,1,0-.706H37.225a.353.353,0,1,1,0,.706Z" transform="translate(2.698 -41.722)"/><path class="c" d="M38.14,87.684H14.512a.353.353,0,1,1,0-.692H38.14a.353.353,0,0,1,0,.7Z" transform="translate(-4.849 -46.599)"/></g></g></g></svg>