<svg xmlns="http://www.w3.org/2000/svg" xmlns:xlink="http://www.w3.org/1999/xlink" width="35" height="35" viewBox="0 0 35 35">
  <defs>
    <clipPath id="clip-path">
      <rect id="Rectangle_6774" data-name="Rectangle 6774" width="35" height="35" transform="translate(528 139)" fill="#e4e4e4"/>
    </clipPath>
  </defs>
  <g id="fit_centre" data-name="fit centre" transform="translate(-528 -139)" clip-path="url(#clip-path)">
    <g id="Nurse" clip-path="url(#clip-path)">
      <g id="Layer_2" data-name="Layer 2" transform="translate(535.421 142.564)">
        <g id="Layer_1" data-name="Layer 1" transform="translate(0 0.01)">
          <path id="Path_21608" data-name="Path 21608" d="M9.963,27.532a28.632,28.632,0,0,1-3.474-3.2,27.947,27.947,0,0,1-4.056-5.492A20.167,20.167,0,0,1,.222,13.007,11.83,11.83,0,0,1,0,10.723C0,10.115,0,9.511.034,8.9A7.179,7.179,0,0,1,.463,6.949,9.975,9.975,0,0,1,6.028.853,9.958,9.958,0,0,1,9.056.05a9.589,9.589,0,0,1,1.891.014,9.027,9.027,0,0,1,2.38.486A10.01,10.01,0,0,1,19.9,7.907a10.392,10.392,0,0,1,.2,3.387,18.188,18.188,0,0,1-2.392,7.469,29.93,29.93,0,0,1-4.393,5.883,29.194,29.194,0,0,1-2.918,2.69c-.087.068-.179.131-.269.2ZM2.079,10a7.884,7.884,0,0,0,7.843,7.872A7.938,7.938,0,0,0,17.8,10.058,7.94,7.94,0,0,0,9.768,2.127,7.924,7.924,0,0,0,2.079,10Z" transform="translate(0 -0.01)" fill="#fff"/>
          <path id="Path_21609" data-name="Path 21609" d="M115.151,56.46c.263.008.289.02.356.267q.693,2.564,1.377,5.129c.1.4.191.806.29,1.209a.2.2,0,0,1-.129.261,4.131,4.131,0,0,1-.6.163c-.124.022-.191-.081-.226-.19-.11-.35-.228-.7-.324-1.054q-.706-2.631-1.4-5.266c-.066-.252-.007-.36.239-.431C114.865,56.506,115.009,56.489,115.151,56.46Z" transform="translate(-102.768 -50.692)" fill="#fff"/>
          <path id="Path_21610" data-name="Path 21610" d="M53.154,73.17c.282,0,.355.042.409.253.366,1.334.733,2.667,1.089,4,.2.761.384,1.526.574,2.29.048.192,0,.286-.178.349a3.09,3.09,0,0,1-.459.12c-.185.034-.249,0-.307-.182-.149-.465-.307-.93-.428-1.4Q53.2,76.18,52.57,73.754c-.085-.323-.034-.409.284-.511A2.488,2.488,0,0,1,53.154,73.17Z" transform="translate(-47.166 -65.695)" fill="#fff"/>
          <path id="Path_21611" data-name="Path 21611" d="M76.378,87.467c.009.1-.053.131-.135.152l-3.655.98c-.337.091-.676.172-1.013.265-.087.025-.124,0-.145-.075-.1-.39-.214-.781-.319-1.171-.026-.094.026-.128.112-.151,1-.275,2-.557,3-.831.525-.144,1.053-.279,1.581-.415.178-.046.209-.033.263.145C76.176,86.733,76.275,87.1,76.378,87.467Z" transform="translate(-63.84 -77.393)" fill="#fff"/>
          <path id="Path_21612" data-name="Path 21612" d="M45.584,89.249c-.2-.018-.249-.046-.307-.242q-.606-2.239-1.206-4.48a2.3,2.3,0,0,1-.058-.373c-.019-.194.026-.268.214-.32a2.232,2.232,0,0,1,.368-.062.2.2,0,0,1,.231.168c.113.384.24.765.343,1.151.314,1.171.62,2.343.928,3.515a2.007,2.007,0,0,1,.044.234c.025.188,0,.235-.179.307a3.792,3.792,0,0,1-.378.1Z" transform="translate(-39.513 -75.211)" fill="#fff"/>
          <path id="Path_21613" data-name="Path 21613" d="M130.586,66.016c.006.2-.05.288-.192.328-.556.16-.586.065-.706-.376q-.595-2.2-1.19-4.393c-.006-.022-.01-.046-.014-.068-.029-.141-.092-.294.04-.409a.715.715,0,0,1,.55-.155.228.228,0,0,1,.2.189c.191.652.393,1.3.573,1.957.234.849.451,1.7.671,2.554C130.554,65.782,130.571,65.932,130.586,66.016Z" transform="translate(-115.32 -54.711)" fill="#fff"/>
          <path id="Path_21614" data-name="Path 21614" d="M141.484,68.527a.35.35,0,0,1-.307.329c-.137.025-.218-.029-.266-.2q-.5-1.811-.993-3.623a.355.355,0,0,1,.231-.4.282.282,0,0,1,.318.215c.152.474.3.95.433,1.43.2.709.378,1.421.565,2.132C141.471,68.455,141.479,68.5,141.484,68.527Z" transform="translate(-125.617 -58.025)" fill="#fff"/>
          <path id="Path_21615" data-name="Path 21615" d="M39.673,96.07a.246.246,0,0,1-.22.285c-.181.031-.3-.029-.343-.182q-.221-.787-.434-1.574-.272-1.012-.534-2.026a.359.359,0,0,1,0-.225.273.273,0,0,1,.532.029c.21.7.429,1.4.625,2.1.135.488.239.986.356,1.48a.76.76,0,0,1,.018.111Z" transform="translate(-34.228 -82.734)" fill="#fff"/>
          <path id="Path_21616" data-name="Path 21616" d="M34.765,108.477l-.691.173c-.112-.438-.218-.852-.325-1.267a.123.123,0,0,1,.088-.163c.167-.058.333-.114.523-.179C34.494,107.526,34.628,107.994,34.765,108.477Z" transform="translate(-30.293 -96.104)" fill="#fff"/>
          <path id="Path_21617" data-name="Path 21617" d="M150.575,77.582c-.021-.023-.066-.052-.077-.089l-.307-1.188a.1.1,0,0,1,.074-.138c.126-.036.249-.076.374-.112a.143.143,0,0,1,.2.111c.091.317.189.632.275.951s.083.327-.249.409C150.779,77.542,150.7,77.557,150.575,77.582Z" transform="translate(-134.84 -68.272)" fill="#fff"/>
        </g>
      </g>
    </g>
  </g>
</svg>
