<svg xmlns="http://www.w3.org/2000/svg" xmlns:xlink="http://www.w3.org/1999/xlink" width="35" height="35" viewBox="0 0 35 35">
  <defs>
    <clipPath id="clip-path">
      <rect id="Rectangle_1702" data-name="Rectangle 1702" width="35" height="35" transform="translate(528 448)" fill="#e4e4e4"/>
    </clipPath>
  </defs>
  <g id="online_train" data-name="online train" transform="translate(3.984 6)">
    <g id="Shop" transform="translate(-531.984 -454)" clip-path="url(#clip-path)">
      <g id="Layer_2" data-name="Layer 2" transform="translate(529.761 454.612)">
        <g id="Layer_1" data-name="Layer 1" transform="translate(0 0)">
          <path id="Path_21618" data-name="Path 21618" d="M69.7,53.154H68.177V49.569a1.56,1.56,0,0,0-1.672-1.653H53.975a1.588,1.588,0,0,0-1.707,1.715c-.008,1.065-.014,2.1,0,3.147,0,.332-.109.413-.421.413-1.071,0-1.071,0-1.071-1.068V49.55a3.055,3.055,0,0,1,1.171-2.5.742.742,0,0,0,.247-.386c.6-3.058,2.647-4.123,5.085-4.259,1.971-.109,3.955-.06,5.933,0a6.8,6.8,0,0,1,2.028.435,4.605,4.605,0,0,1,2.99,3.7,1.033,1.033,0,0,0,.31.53A3.137,3.137,0,0,1,69.7,49.537Z" transform="translate(-36.974 -30.834)" fill="#fff"/>
          <path id="Path_21619" data-name="Path 21619" d="M73.26,4.2a4.539,4.539,0,1,1-3.246,1.325A4.574,4.574,0,0,1,73.26,4.2Z" transform="translate(-50.013 -3.058)" fill="#fff"/>
          <path id="Path_21620" data-name="Path 21620" d="M30.09,11.43a2.99,2.99,0,1,1-2.99,2.99,2.99,2.99,0,0,1,2.99-2.99Z" transform="translate(-19.734 -8.323)" fill="#fff"/>
          <path id="Path_21621" data-name="Path 21621" d="M20.636,40.25a2.783,2.783,0,0,1,.8-2.044,4.161,4.161,0,0,1,2.193-1.185.527.527,0,0,1,.4.155c.454.465.886.951,1.359,1.462.467-.511.9-1,1.359-1.465a.516.516,0,0,1,.367-.163,3.615,3.615,0,0,1,2.99,2.8c.024.133.03.272.046.435Z" transform="translate(-15.026 -26.951)" fill="#fff"/>
          <path id="Path_21622" data-name="Path 21622" d="M20.268,0,1.177.043S-.043.043.043,1.525L0,17.349a1.1,1.1,0,0,0,1,.815c.786,0,9.119.1,9.119.1l.022.992-3.474.087.087,1,5.436.13s-.565-4.009,1.7-5.624l-12.6.043L1.264,1.359l17.4.043A15.305,15.305,0,0,1,20.268,0Z" transform="translate(0 0)" fill="#fff"/>
        </g>
      </g>
    </g>
  </g>
</svg>
