<svg xmlns="http://www.w3.org/2000/svg" width="85.999" height="114.666" viewBox="0 0 85.999 114.666">
  <path id="Icon_awesome-award" data-name="Icon awesome-award" d="M21.751,81.213c-1.946-1.946-.932-1.4-5.626-2.654a16.158,16.158,0,0,1-5.7-2.983L.269,100.489a3.584,3.584,0,0,0,3.456,4.934l11.8-.45,8.116,8.573a3.583,3.583,0,0,0,5.919-1.111L41.217,83.854a16.072,16.072,0,0,1-19.466-2.64Zm63.979,19.276L75.569,75.576a16.122,16.122,0,0,1-5.7,2.983c-4.719,1.263-3.684.712-5.626,2.654a16.075,16.075,0,0,1-19.468,2.64l11.657,28.581a3.583,3.583,0,0,0,5.919,1.111l8.118-8.573,11.8.45a3.584,3.584,0,0,0,3.456-4.934ZM58.9,76.145c3.422-3.482,3.814-3.182,8.687-4.51a9.1,9.1,0,0,0,6.376-6.49c1.675-6.36,1.241-5.592,5.812-10.246a9.29,9.29,0,0,0,2.334-8.864c-1.673-6.356-1.675-5.469,0-11.831a9.29,9.29,0,0,0-2.334-8.864c-4.571-4.654-4.136-3.888-5.812-10.246A9.1,9.1,0,0,0,67.587,8.6C61.343,6.9,62.1,7.345,57.52,2.689A8.911,8.911,0,0,0,48.811.313c-6.242,1.7-5.37,1.7-11.623,0a8.906,8.906,0,0,0-8.71,2.376C23.907,7.342,24.66,6.9,18.414,8.6a9.1,9.1,0,0,0-6.376,6.49c-1.673,6.358-1.241,5.592-5.812,10.246A9.285,9.285,0,0,0,3.893,34.2c1.673,6.351,1.675,5.464,0,11.829A9.3,9.3,0,0,0,6.226,54.9c4.571,4.654,4.136,3.886,5.812,10.246a9.1,9.1,0,0,0,6.376,6.49C23.426,73,23.8,72.786,27.1,76.145a8.9,8.9,0,0,0,11.139,1.3,8.886,8.886,0,0,1,9.525,0A8.9,8.9,0,0,0,58.9,76.145ZM21.872,39.408A21.131,21.131,0,1,1,43,60.912a21.319,21.319,0,0,1-21.128-21.5Z" transform="translate(0 0.001)" fill="#d91e15"/>
</svg>
