<svg xmlns="http://www.w3.org/2000/svg" width="55.192" height="36.795" viewBox="0 0 55.192 36.795">
  <g id="Group_29266" data-name="Group 29266" transform="translate(-544.027 -1170.96)">
    <path id="Icon_material-computer" data-name="Icon material-computer" d="M45.994,38.2a4.593,4.593,0,0,0,4.576-4.6l.023-23a4.613,4.613,0,0,0-4.6-4.6H9.2a4.613,4.613,0,0,0-4.6,4.6v23a4.613,4.613,0,0,0,4.6,4.6H0v4.6H55.192V38.2ZM9.2,10.6H45.994v23H9.2Z" transform="translate(544.027 1164.96)"/>
    <path id="Icon_awesome-dollar-sign" data-name="Icon awesome-dollar-sign" d="M6.306,7.033,3.051,6.081A.889.889,0,0,1,3.3,4.339h2a1.839,1.839,0,0,1,1.031.316.47.47,0,0,0,.588-.06L7.966,3.571a.488.488,0,0,0-.054-.738,4.261,4.261,0,0,0-2.607-.9V.482A.484.484,0,0,0,4.823,0H3.859a.484.484,0,0,0-.482.482V1.929H3.3a3.3,3.3,0,0,0-3.285,3.6A3.45,3.45,0,0,0,2.542,8.444l3.089.9a.889.889,0,0,1-.25,1.742h-2a1.839,1.839,0,0,1-1.031-.316.47.47,0,0,0-.588.06L.716,11.858A.488.488,0,0,0,.77,12.6a4.261,4.261,0,0,0,2.607.9v1.446a.484.484,0,0,0,.482.482h.964a.484.484,0,0,0,.482-.482V13.494A3.4,3.4,0,0,0,8.49,11.3a3.309,3.309,0,0,0-2.185-4.27Z" transform="translate(567.282 1179.643)" fill="#d91e15"/>
  </g>
</svg>
