<svg xmlns="http://www.w3.org/2000/svg" xmlns:xlink="http://www.w3.org/1999/xlink" width="70.001" height="70" viewBox="0 0 70.001 70"><defs><style>.a{fill:#d91e15;}.b{fill:#fff;}.c{filter:url(#l);}.d{filter:url(#j);}.e{filter:url(#h);}.f{filter:url(#f);}.g{filter:url(#d);}.h{filter:url(#a);}</style><filter id="a" x="0" y="0" width="70.001" height="70" filterUnits="userSpaceOnUse"><feOffset input="SourceAlpha"/><feGaussianBlur stdDeviation="7.5" result="b"/><feFlood flood-color="#e5e5e5" flood-opacity="0.522" result="c"/><feComposite operator="out" in="SourceGraphic" in2="b"/><feComposite operator="in" in="c"/><feComposite operator="in" in2="SourceGraphic"/></filter><filter id="d" x="18.357" y="22.623" width="35.287" height="33.634" filterUnits="userSpaceOnUse"><feOffset dx="1" dy="2" input="SourceAlpha"/><feGaussianBlur stdDeviation="0.5" result="e"/><feFlood flood-opacity="0.161"/><feComposite operator="in" in2="e"/><feComposite in="SourceGraphic"/></filter><filter id="f" x="24.814" y="35.537" width="13.762" height="14.262" filterUnits="userSpaceOnUse"><feOffset dx="1" dy="2" input="SourceAlpha"/><feGaussianBlur stdDeviation="0.5" result="g"/><feFlood flood-opacity="0.161"/><feComposite operator="in" in2="g"/><feComposite in="SourceGraphic"/></filter><filter id="h" x="23.738" y="17.242" width="7.305" height="9.957" filterUnits="userSpaceOnUse"><feOffset dx="1" dy="2" input="SourceAlpha"/><feGaussianBlur stdDeviation="0.5" result="i"/><feFlood flood-opacity="0.161"/><feComposite operator="in" in2="i"/><feComposite in="SourceGraphic"/></filter><filter id="j" x="40.959" y="17.242" width="7.305" height="9.957" filterUnits="userSpaceOnUse"><feOffset dx="1" dy="2" input="SourceAlpha"/><feGaussianBlur stdDeviation="0.5" result="k"/><feFlood flood-opacity="0.161"/><feComposite operator="in" in2="k"/><feComposite in="SourceGraphic"/></filter><filter id="l" x="19.434" y="29.08" width="33.134" height="5.652" filterUnits="userSpaceOnUse"><feOffset dx="1" dy="2" input="SourceAlpha"/><feGaussianBlur stdDeviation="0.5" result="m"/><feFlood flood-opacity="0.161"/><feComposite operator="in" in2="m"/><feComposite in="SourceGraphic"/></filter></defs><g transform="matrix(1, 0, 0, 1, 22876.92, 23419.188)"><g data-type="innerShadowGroup"><rect class="a" width="70.001" height="70.001" rx="10" transform="translate(-22876.922 -23419.189)"/><g class="h" transform="matrix(1, 0, 0, 1, -22876.92, -23419.19)"><rect class="b" width="70.001" height="70.001" rx="10" transform="translate(0 0)"/></g></g><g transform="translate(-22858.064 -23401.947)"><g class="g" transform="matrix(1, 0, 0, 1, -18.86, -17.24)"><path class="b" d="M4.3,3.229A1.077,1.077,0,0,0,3.229,4.3V25.829A1.077,1.077,0,0,0,4.3,26.906H27.982a1.077,1.077,0,0,0,1.076-1.076V4.3a1.077,1.077,0,0,0-1.076-1.076H4.3M4.3,0H27.982a4.3,4.3,0,0,1,4.3,4.3V25.829a4.3,4.3,0,0,1-4.3,4.3H4.3a4.3,4.3,0,0,1-4.3-4.3V4.3A4.3,4.3,0,0,1,4.3,0Z" transform="translate(18.86 22.62)"/></g><g class="f" transform="matrix(1, 0, 0, 1, -18.86, -17.24)"><rect class="b" width="10.762" height="10.762" transform="translate(25.31 35.54)"/></g><g class="e" transform="matrix(1, 0, 0, 1, -18.86, -17.24)"><path class="b" d="M4.3,6.457H0V0H4.3Z" transform="translate(24.24 17.24)"/></g><g class="d" transform="matrix(1, 0, 0, 1, -18.86, -17.24)"><path class="b" d="M4.3,6.457H0V0H4.3Z" transform="translate(41.46 17.24)"/></g><g class="c" transform="matrix(1, 0, 0, 1, -18.86, -17.24)"><path class="b" d="M30.134,2.152H0V0H30.134Z" transform="translate(19.93 29.08)"/></g></g></g></svg>