<svg xmlns="http://www.w3.org/2000/svg" width="133.695" height="114.546" viewBox="0 0 133.695 114.546">
  <g id="Group_30015" data-name="Group 30015" transform="translate(-867 -1182.616)">
    <g id="Group_29263" data-name="Group 29263" transform="translate(943.068 1182.616)">
      <circle id="Ellipse_879" data-name="Ellipse 879" cx="13.831" cy="13.831" r="13.831" transform="translate(13.831)" fill="#d91e15"/>
      <path id="Rectangle_7341" data-name="Rectangle 7341" d="M9,0H48.627a9,9,0,0,1,9,9V27.271a5,5,0,0,1-5,5H5a5,5,0,0,1-5-5V9A9,9,0,0,1,9,0Z" transform="translate(0 32.271)" fill="#d91e15"/>
    </g>
    <g id="Group_29264" data-name="Group 29264" transform="translate(867 1182.616)">
      <circle id="Ellipse_879-2" data-name="Ellipse 879" cx="13.831" cy="13.831" r="13.831" transform="translate(13.831)" fill="#d91e15"/>
      <path id="Rectangle_7341-2" data-name="Rectangle 7341" d="M9,0H48.627a9,9,0,0,1,9,9V27.271a5,5,0,0,1-5,5H5a5,5,0,0,1-5-5V9A9,9,0,0,1,9,0Z" transform="translate(0 32.271)" fill="#d91e15"/>
    </g>
    <g id="Icon_feather-search" data-name="Icon feather-search" transform="translate(895.814 1196.387)">
      <g id="Path_57047" data-name="Path 57047" transform="translate(-4.5 -4.5)" fill="#fff" stroke-linecap="round" stroke-linejoin="round">
        <path d="M 46.431884765625 92.36376953125 C 40.23288345336914 92.36376953125 34.21718597412109 91.14878845214844 28.55189895629883 88.75257110595703 C 23.08188438415527 86.43895721435547 18.17014122009277 83.12763977050781 13.9531421661377 78.91062927246094 C 9.736127853393555 74.69361114501953 6.424813270568848 69.78188323974609 4.111198902130127 64.31186676025391 C 1.714984774589539 58.64658355712891 0.4999990463256836 52.63088607788086 0.4999990463256836 46.431884765625 C 0.4999990463256836 40.23288345336914 1.714984774589539 34.21718597412109 4.111198902130127 28.55189895629883 C 6.424813270568848 23.08188438415527 9.736127853393555 18.17014122009277 13.9531421661377 13.9531421661377 C 18.17014122009277 9.736127853393555 23.08188438415527 6.424813270568848 28.55189895629883 4.111198902130127 C 34.21718597412109 1.714984774589539 40.23288345336914 0.4999990463256836 46.431884765625 0.4999990463256836 C 52.63088607788086 0.4999990463256836 58.64658355712891 1.714984774589539 64.31186676025391 4.111198902130127 C 69.78188323974609 6.424813270568848 74.69362640380859 9.736127853393555 78.91062927246094 13.9531421661377 C 83.12763977050781 18.17014122009277 86.43895721435547 23.08188438415527 88.75257110595703 28.55189895629883 C 91.14878845214844 34.21718597412109 92.36376953125 40.23288345336914 92.36376953125 46.431884765625 C 92.36376953125 52.63088607788086 91.14878845214844 58.64658355712891 88.75257110595703 64.31186676025391 C 86.43895721435547 69.78188323974609 83.12763977050781 74.69362640380859 78.91062927246094 78.91062927246094 C 74.69361114501953 83.12763977050781 69.78188323974609 86.43895721435547 64.31186676025391 88.75257110595703 C 58.64658355712891 91.14878845214844 52.63088607788086 92.36376953125 46.431884765625 92.36376953125 Z" stroke="none"/>
        <path d="M 46.431884765625 4.500007629394531 C 23.27354431152344 4.500007629394531 4.500007629394531 23.27354431152344 4.500007629394531 46.431884765625 C 4.500007629394531 69.59022521972656 23.27354431152344 88.36376190185547 46.431884765625 88.36376190185547 C 69.59022521972656 88.36376190185547 88.36376190185547 69.59022521972656 88.36376190185547 46.431884765625 C 88.36376190185547 23.27354431152344 69.59022521972656 4.500007629394531 46.431884765625 4.500007629394531 M 46.431884765625 -3.499992370605469 C 73.96442413330078 -3.499992370605469 96.36376190185547 18.89934539794922 96.36376190185547 46.431884765625 C 96.36376190185547 73.96442413330078 73.96442413330078 96.36376190185547 46.431884765625 96.36376190185547 C 18.89934539794922 96.36376190185547 -3.499992370605469 73.96442413330078 -3.499992370605469 46.431884765625 C -3.499992370605469 18.89934539794922 18.89934539794922 -3.499992370605469 46.431884765625 -3.499992370605469 Z" stroke="none" fill="#fff"/>
      </g>
      <path id="Path_57048" data-name="Path 57048" d="M47.775,47.775l-22.8-22.8" transform="translate(46.571 46.571)" fill="#fff" stroke="#fff" stroke-linecap="round" stroke-linejoin="round" stroke-width="8"/>
    </g>
    <g id="Icon_feather-search-2" data-name="Icon feather-search" transform="translate(893.628 1194.202)">
      <g id="Path_57047-2" data-name="Path 57047" transform="translate(-4.5 -4.5)" fill="#fff" stroke-linecap="round" stroke-linejoin="round">
        <path d="M 48.3742790222168 89.24859619140625 C 42.85496520996094 89.24859619140625 37.50234985351562 88.16829681396484 32.46509552001953 86.0377197265625 C 27.59816551208496 83.97917938232422 23.22659492492676 81.03157806396484 19.47180938720703 77.27677917480469 C 15.71702289581299 73.52199554443359 12.76940822601318 69.15040588378906 10.71088027954102 64.28349304199219 C 8.58030891418457 59.24622344970703 7.500008583068848 53.89359283447266 7.500008583068848 48.3742790222168 C 7.500008583068848 42.85496520996094 8.58030891418457 37.50233840942383 10.71088027954102 32.46509552001953 C 12.76940822601318 27.59816551208496 15.71702289581299 23.22659492492676 19.47180938720703 19.47180938720703 C 23.22659492492676 15.71702289581299 27.59816551208496 12.76940822601318 32.46509552001953 10.71088027954102 C 37.50233840942383 8.58030891418457 42.85496520996094 7.500008583068848 48.3742790222168 7.500008583068848 C 53.89359283447266 7.500008583068848 59.24622344970703 8.58030891418457 64.28349304199219 10.71088027954102 C 69.15040588378906 12.76940822601318 73.52199554443359 15.71702289581299 77.27677917480469 19.47180938720703 C 81.03157806396484 23.22659492492676 83.97917938232422 27.59816551208496 86.0377197265625 32.46509552001953 C 88.16829681396484 37.50234985351562 89.24859619140625 42.85496520996094 89.24859619140625 48.3742790222168 C 89.24859619140625 53.89359283447266 88.16829681396484 59.24622344970703 86.0377197265625 64.28347778320312 C 83.97917938232422 69.15040588378906 81.03157806396484 73.52199554443359 77.27677917480469 77.27677917480469 C 73.52199554443359 81.03157806396484 69.15040588378906 83.97917938232422 64.28347778320312 86.0377197265625 C 59.24622344970703 88.16829681396484 53.89359283447266 89.24859619140625 48.3742790222168 89.24859619140625 Z" stroke="none"/>
        <path d="M 48.37429428100586 10.5 C 27.49033355712891 10.5 10.5 27.49033355712891 10.5 48.37429428100586 C 10.5 69.25825500488281 27.49033355712891 86.24858093261719 48.37429428100586 86.24858093261719 C 69.25825500488281 86.24858093261719 86.24858093261719 69.25825500488281 86.24858093261719 48.37429428100586 C 86.24858093261719 27.49033355712891 69.25825500488281 10.5 48.37429428100586 10.5 M 48.37429428100586 4.5 C 72.60538482666016 4.5 92.24858856201172 24.14320373535156 92.24858856201172 48.37429428100586 C 92.24858856201172 72.60538482666016 72.60538482666016 92.24858856201172 48.37429428100586 92.24858856201172 C 24.1431884765625 92.24858856201172 4.5 72.60538482666016 4.5 48.37429428100586 C 4.5 24.1431884765625 24.14320373535156 4.5 48.37429428100586 4.5 Z" stroke="none" fill="#d91e15"/>
      </g>
      <path id="Path_57048-2" data-name="Path 57048" d="M48.832,48.832,24.975,24.975" transform="translate(49.886 49.886)" fill="#fff" stroke="#d91e15" stroke-linecap="round" stroke-linejoin="round" stroke-width="6"/>
    </g>
    <g id="Group_29262" data-name="Group 29262" transform="translate(913.098 1209.176)">
      <g id="Ellipse_879-3" data-name="Ellipse 879" transform="translate(12.635 0)" fill="none" stroke="#fafafa" stroke-width="3">
        <circle cx="10.547" cy="10.547" r="10.547" stroke="none"/>
        <circle cx="10.547" cy="10.547" r="12.047" fill="none"/>
      </g>
      <g id="Rectangle_7341-3" data-name="Rectangle 7341" transform="translate(0 27.934)" fill="#d91e15" stroke="#d91e15" stroke-width="3">
        <path d="M9,0H39.3a9,9,0,0,1,9,9V22.046a5,5,0,0,1-5,5H5a5,5,0,0,1-5-5V9A9,9,0,0,1,9,0Z" stroke="none"/>
        <path d="M9,1.5H39.3A7.5,7.5,0,0,1,46.8,9V22.046a3.5,3.5,0,0,1-3.5,3.5H5a3.5,3.5,0,0,1-3.5-3.5V9A7.5,7.5,0,0,1,9,1.5Z" fill="none"/>
      </g>
      <g id="Ellipse_880" data-name="Ellipse 880" transform="translate(15.455 2.82)" fill="#d91e15" stroke="#d91e15" stroke-width="3">
        <circle cx="7.727" cy="7.727" r="7.727" stroke="none"/>
        <circle cx="7.727" cy="7.727" r="9.227" fill="none"/>
      </g>
    </g>
  </g>
</svg>
