<svg xmlns="http://www.w3.org/2000/svg" xmlns:xlink="http://www.w3.org/1999/xlink" width="48.238" height="50.088" viewBox="0 0 48.238 50.088">
  <defs>
    <filter id="Rectangle_7032" x="10.682" y="11.032" width="18.118" height="21.778" filterUnits="userSpaceOnUse">
      <feOffset dy="3" input="SourceAlpha"/>
      <feGaussianBlur stdDeviation="0.5" result="blur"/>
      <feFlood flood-opacity="0.161"/>
      <feComposite operator="in" in2="blur"/>
      <feComposite in="SourceGraphic"/>
    </filter>
    <filter id="Rectangle_7034" x="30.12" y="28.31" width="18.118" height="21.778" filterUnits="userSpaceOnUse">
      <feOffset dy="3" input="SourceAlpha"/>
      <feGaussianBlur stdDeviation="0.5" result="blur-2"/>
      <feFlood flood-opacity="0.161"/>
      <feComposite operator="in" in2="blur-2"/>
      <feComposite in="SourceGraphic"/>
    </filter>
    <filter id="Rectangle_7033" x="30.12" y="11.032" width="18.118" height="17.458" filterUnits="userSpaceOnUse">
      <feOffset dy="3" input="SourceAlpha"/>
      <feGaussianBlur stdDeviation="0.5" result="blur-3"/>
      <feFlood flood-opacity="0.161"/>
      <feComposite operator="in" in2="blur-3"/>
      <feComposite in="SourceGraphic"/>
    </filter>
    <filter id="Rectangle_7035" x="10.682" y="32.629" width="18.118" height="17.458" filterUnits="userSpaceOnUse">
      <feOffset dy="3" input="SourceAlpha"/>
      <feGaussianBlur stdDeviation="0.5" result="blur-4"/>
      <feFlood flood-opacity="0.161"/>
      <feComposite operator="in" in2="blur-4"/>
      <feComposite in="SourceGraphic"/>
    </filter>
  </defs>
  <g id="Group_29280" data-name="Group 29280" transform="translate(-210.762 -4214.743)">
    <path id="Path_22719" data-name="Path 22719" d="M18.52,2.776c18.073,0,18.755,4.514,18.755,17.05s-3.41,27.28-18.755,26.6S-.917,35.853-1.94,24.6.448,2.776,18.52,2.776Z" transform="translate(212.865 4211.967)" fill="#d91e15" opacity="0.16"/>
    <g id="Group_29279" data-name="Group 29279" transform="translate(222.944 4225.775)">
      <g transform="matrix(1, 0, 0, 1, -12.18, -11.03)" filter="url(#Rectangle_7032)">
        <g id="Rectangle_7032-2" data-name="Rectangle 7032" transform="translate(12.18 11.03)" fill="none" stroke="#d91e15" stroke-width="3">
          <rect width="15.118" height="17.278" rx="2" stroke="none"/>
          <rect x="1.5" y="1.5" width="12.118" height="14.278" rx="0.5" fill="none"/>
        </g>
      </g>
      <g transform="matrix(1, 0, 0, 1, -12.18, -11.03)" filter="url(#Rectangle_7034)">
        <g id="Rectangle_7034-2" data-name="Rectangle 7034" transform="translate(31.62 28.31)" fill="none" stroke="#d91e15" stroke-width="3">
          <rect width="15.118" height="17.278" rx="2" stroke="none"/>
          <rect x="1.5" y="1.5" width="12.118" height="14.278" rx="0.5" fill="none"/>
        </g>
      </g>
      <g transform="matrix(1, 0, 0, 1, -12.18, -11.03)" filter="url(#Rectangle_7033)">
        <g id="Rectangle_7033-2" data-name="Rectangle 7033" transform="translate(31.62 11.03)" fill="none" stroke="#d91e15" stroke-width="3">
          <rect width="15.118" height="12.958" rx="2" stroke="none"/>
          <rect x="1.5" y="1.5" width="12.118" height="9.958" rx="0.5" fill="none"/>
        </g>
      </g>
      <g transform="matrix(1, 0, 0, 1, -12.18, -11.03)" filter="url(#Rectangle_7035)">
        <g id="Rectangle_7035-2" data-name="Rectangle 7035" transform="translate(12.18 32.63)" fill="none" stroke="#d91e15" stroke-width="3">
          <rect width="15.118" height="12.958" rx="2" stroke="none"/>
          <rect x="1.5" y="1.5" width="12.118" height="9.958" rx="0.5" fill="none"/>
        </g>
      </g>
    </g>
  </g>
</svg>
