<svg xmlns="http://www.w3.org/2000/svg" xmlns:xlink="http://www.w3.org/1999/xlink" width="45" height="45" viewBox="0 0 45 45">
  <defs>
    <filter id="Rectangle_6969" x="10.633" y="11.289" width="25.734" height="24.719" filterUnits="userSpaceOnUse">
      <feOffset dx="1" dy="2" input="SourceAlpha"/>
      <feGaussianBlur stdDeviation="0.5" result="blur"/>
      <feFlood flood-opacity="0.161"/>
      <feComposite operator="in" in2="blur"/>
      <feComposite in="SourceGraphic"/>
    </filter>
    <filter id="Rectangle_6970" x="15.18" y="20.383" width="10.578" height="11.078" filterUnits="userSpaceOnUse">
      <feOffset dx="1" dy="2" input="SourceAlpha"/>
      <feGaussianBlur stdDeviation="0.5" result="blur-2"/>
      <feFlood flood-opacity="0.161"/>
      <feComposite operator="in" in2="blur-2"/>
      <feComposite in="SourceGraphic"/>
    </filter>
    <filter id="Line_564" x="14.422" y="7.5" width="6.031" height="8.047" filterUnits="userSpaceOnUse">
      <feOffset dx="1" dy="2" input="SourceAlpha"/>
      <feGaussianBlur stdDeviation="0.5" result="blur-3"/>
      <feFlood flood-opacity="0.161"/>
      <feComposite operator="in" in2="blur-3"/>
      <feComposite in="SourceGraphic"/>
    </filter>
    <filter id="Line_565" x="26.547" y="7.5" width="6.031" height="8.047" filterUnits="userSpaceOnUse">
      <feOffset dx="1" dy="2" input="SourceAlpha"/>
      <feGaussianBlur stdDeviation="0.5" result="blur-4"/>
      <feFlood flood-opacity="0.161"/>
      <feComposite operator="in" in2="blur-4"/>
      <feComposite in="SourceGraphic"/>
    </filter>
    <filter id="Line_566" x="11.391" y="15.836" width="24.219" height="5.016" filterUnits="userSpaceOnUse">
      <feOffset dx="1" dy="2" input="SourceAlpha"/>
      <feGaussianBlur stdDeviation="0.5" result="blur-5"/>
      <feFlood flood-opacity="0.161"/>
      <feComposite operator="in" in2="blur-5"/>
      <feComposite in="SourceGraphic"/>
    </filter>
  </defs>
  <g id="Group_29986" data-name="Group 29986" transform="translate(-346.494 -98.361)">
    <rect id="Rectangle_7382" data-name="Rectangle 7382" width="45" height="45" rx="8" transform="translate(346.494 98.361)" fill="#e11283" opacity="0.05"/>
    <g id="monitor" transform="translate(358.735 112.119)">
      <g id="Group_29994" data-name="Group 29994" transform="translate(-1.109 -6.257)">
        <g transform="matrix(1, 0, 0, 1, -11.13, -7.5)" filter="url(#Rectangle_6969)">
          <path id="Rectangle_6969-2" data-name="Rectangle 6969" d="M3.031,2.273a.759.759,0,0,0-.758.758V18.187a.759.759,0,0,0,.758.758H19.7a.759.759,0,0,0,.758-.758V3.031a.759.759,0,0,0-.758-.758H3.031M3.031,0H19.7a3.031,3.031,0,0,1,3.031,3.031V18.187A3.031,3.031,0,0,1,19.7,21.219H3.031A3.031,3.031,0,0,1,0,18.187V3.031A3.031,3.031,0,0,1,3.031,0Z" transform="translate(11.13 11.29)" fill="#f95266"/>
        </g>
        <g transform="matrix(1, 0, 0, 1, -11.13, -7.5)" filter="url(#Rectangle_6970)">
          <rect id="Rectangle_6970-2" data-name="Rectangle 6970" width="7.578" height="7.578" transform="translate(15.68 20.38)" fill="#f95266"/>
        </g>
        <g transform="matrix(1, 0, 0, 1, -11.13, -7.5)" filter="url(#Line_564)">
          <path id="Line_564-2" data-name="Line 564" d="M2.031,4.547H-1V0H2.031Z" transform="translate(15.92 7.5)" fill="#f95266"/>
        </g>
        <g transform="matrix(1, 0, 0, 1, -11.13, -7.5)" filter="url(#Line_565)">
          <path id="Line_565-2" data-name="Line 565" d="M2.031,4.547H-1V0H2.031Z" transform="translate(28.05 7.5)" fill="#f95266"/>
        </g>
        <g transform="matrix(1, 0, 0, 1, -11.13, -7.5)" filter="url(#Line_566)">
          <path id="Line_566-2" data-name="Line 566" d="M21.219,1.016H0V-.5H21.219Z" transform="translate(11.89 16.34)" fill="#f95266"/>
        </g>
      </g>
    </g>
  </g>
</svg>
