<svg xmlns="http://www.w3.org/2000/svg" xmlns:xlink="http://www.w3.org/1999/xlink" width="45" height="45" viewBox="0 0 45 45">
  <defs>
    <filter id="Icon_awesome-book-medical" x="9.474" y="9.327" width="26.052" height="30.845" filterUnits="userSpaceOnUse">
      <feOffset dy="3" input="SourceAlpha"/>
      <feGaussianBlur stdDeviation="0.5" result="blur"/>
      <feFlood flood-opacity="0.161"/>
      <feComposite operator="in" in2="blur"/>
      <feComposite in="SourceGraphic"/>
    </filter>
  </defs>
  <g id="Group_29983" data-name="Group 29983" transform="translate(-346.494 -98.361)">
    <rect id="Rectangle_7382" data-name="Rectangle 7382" width="45" height="45" rx="8" transform="translate(346.494 98.361)" fill="#9085e2" opacity="0.05"/>
    <g transform="matrix(1, 0, 0, 1, 346.49, 98.36)" filter="url(#Icon_awesome-book-medical)">
      <path id="Icon_awesome-book-medical-2" data-name="Icon awesome-book-medical" d="M23.052,18.442V1.317A1.212,1.212,0,0,0,21.735,0H4.94A4.852,4.852,0,0,0,0,4.94V21.406a4.852,4.852,0,0,0,4.94,4.94h16.8a1.3,1.3,0,0,0,1.317-1.317V24.2a1.423,1.423,0,0,0-.494-.988,14.564,14.564,0,0,1,0-3.787,1,1,0,0,0,.494-.988ZM7.41,8.645a.412.412,0,0,1,.412-.412H10.7V5.351a.412.412,0,0,1,.412-.412h2.47A.412.412,0,0,1,14,5.351V8.233h2.882a.412.412,0,0,1,.412.412v2.47a.412.412,0,0,1-.412.412H14v2.882a.412.412,0,0,1-.412.412h-2.47a.412.412,0,0,1-.412-.412V11.526H7.821a.412.412,0,0,1-.412-.412ZM19.594,23.052H4.94a1.556,1.556,0,0,1-1.647-1.647A1.65,1.65,0,0,1,4.94,19.759H19.594Z" transform="translate(10.97 9.33)" fill="#9085e2"/>
    </g>
  </g>
</svg>
