<svg xmlns="http://www.w3.org/2000/svg" xmlns:xlink="http://www.w3.org/1999/xlink" width="45" height="45" viewBox="0 0 45 45">
  <defs>
    <filter id="Path_22698" x="7.13" y="30.172" width="30.74" height="6.234" filterUnits="userSpaceOnUse">
      <feOffset dy="3" input="SourceAlpha"/>
      <feGaussianBlur stdDeviation="0.5" result="blur"/>
      <feFlood flood-opacity="0.161"/>
      <feComposite operator="in" in2="blur"/>
      <feComposite in="SourceGraphic"/>
    </filter>
    <filter id="Path_22700" x="7.13" y="13.094" width="30.74" height="19.856" filterUnits="userSpaceOnUse">
      <feOffset dy="3" input="SourceAlpha"/>
      <feGaussianBlur stdDeviation="0.5" result="blur-2"/>
      <feFlood flood-opacity="0.161"/>
      <feComposite operator="in" in2="blur-2"/>
      <feComposite in="SourceGraphic"/>
    </filter>
    <filter id="Path_22701" x="10.218" y="11.608" width="24.563" height="24.563" filterUnits="userSpaceOnUse">
      <feOffset dy="3" input="SourceAlpha"/>
      <feGaussianBlur stdDeviation="3" result="blur-3"/>
      <feFlood flood-opacity="0.161"/>
      <feComposite operator="in" in2="blur-3"/>
      <feComposite in="SourceGraphic"/>
    </filter>
  </defs>
  <g id="Group_29992" data-name="Group 29992" transform="translate(-346.494 -98.361)">
    <rect id="Rectangle_7382" data-name="Rectangle 7382" width="45" height="45" rx="8" transform="translate(346.494 98.361)" fill="#e11283" opacity="0.05"/>
    <g id="Icon_ionic-ios-cash" data-name="Icon ionic-ios-cash" transform="translate(352.874 105.824)">
      <g transform="matrix(1, 0, 0, 1, -6.38, -7.46)" filter="url(#Path_22698)">
        <path id="Path_22698-2" data-name="Path 22698" d="M29.123,25.024H3.117a.867.867,0,1,0,0,1.734H29.123a.867.867,0,1,0,0-1.734Z" transform="translate(6.38 5.15)" fill="#f95266"/>
      </g>
      <g transform="matrix(1, 0, 0, 1, -6.38, -7.46)" filter="url(#Path_22700)">
        <path id="Path_22700-2" data-name="Path 22700" d="M27.816,5.632H4.423A2.18,2.18,0,0,0,2.25,7.805V18.815a2.18,2.18,0,0,0,2.173,2.173H27.816a2.18,2.18,0,0,0,2.173-2.173V7.805A2.18,2.18,0,0,0,27.816,5.632ZM7.327,19.007H5.1a.867.867,0,1,1,0-1.734H7.327a.867.867,0,1,1,0,1.734Zm0-9.659H5.1a.867.867,0,0,1,0-1.734H7.327a.867.867,0,0,1,0,1.734Zm8.792,8.916a4.954,4.954,0,1,1,4.954-4.954A4.96,4.96,0,0,1,16.12,18.264Zm11.022.743H24.912a.867.867,0,1,1,0-1.734h2.229a.867.867,0,1,1,0,1.734Zm0-9.659H24.912a.867.867,0,1,1,0-1.734h2.229a.867.867,0,0,1,0,1.734Z" transform="translate(6.38 7.46)" fill="#f95266"/>
      </g>
      <g transform="matrix(1, 0, 0, 1, -6.38, -7.46)" filter="url(#Path_22701)">
        <path id="Path_22701-2" data-name="Path 22701" d="M20.837,14.04a3.282,3.282,0,1,1-3.282-3.282,3.282,3.282,0,0,1,3.282,3.282Z" transform="translate(4.94 6.85)" fill="#f95266"/>
      </g>
    </g>
  </g>
</svg>
