<svg xmlns="http://www.w3.org/2000/svg" xmlns:xlink="http://www.w3.org/1999/xlink" width="45" height="45" viewBox="0 0 45 45">
  <defs>
    <filter id="Icon_awesome-file-medical-alt" x="8.356" y="8.05" width="28.288" height="33.401" filterUnits="userSpaceOnUse">
      <feOffset dy="3" input="SourceAlpha"/>
      <feGaussianBlur stdDeviation="0.5" result="blur"/>
      <feFlood flood-opacity="0.161"/>
      <feComposite operator="in" in2="blur"/>
      <feComposite in="SourceGraphic"/>
    </filter>
  </defs>
  <g id="Group_29985" data-name="Group 29985" transform="translate(-346.494 -98.361)">
    <rect id="Rectangle_7382" data-name="Rectangle 7382" width="45" height="45" rx="8" transform="translate(346.494 98.361)" fill="#9085e2" opacity="0.05"/>
    <g transform="matrix(1, 0, 0, 1, 346.49, 98.36)" filter="url(#Icon_awesome-file-medical-alt)">
      <path id="Icon_awesome-file-medical-alt-2" data-name="Icon awesome-file-medical-alt" d="M16.257,7.677V0H4.967A1.351,1.351,0,0,0,3.613,1.355v13.1H.452A.453.453,0,0,0,0,14.9v.9a.453.453,0,0,0,.452.452H8.4a.46.46,0,0,1,.406.248l1.123,2.247,3.206-6.418a.451.451,0,0,1,.807,0l1.959,3.923h3.963a.9.9,0,1,1,0,1.806H14.795l-1.247-2.495-3.206,6.418a.451.451,0,0,1-.807,0L7.569,18.063H3.613v9.483A1.351,1.351,0,0,0,4.967,28.9H23.933a1.351,1.351,0,0,0,1.355-1.355V9.031H17.611A1.359,1.359,0,0,1,16.257,7.677Zm8.636-1.75L19.367.4a1.354,1.354,0,0,0-.96-.4h-.344V7.225h7.225V6.881A1.35,1.35,0,0,0,24.893,5.927Z" transform="translate(9.86 8.05)" fill="#9085e2"/>
    </g>
  </g>
</svg>
