<svg xmlns="http://www.w3.org/2000/svg" xmlns:xlink="http://www.w3.org/1999/xlink" width="45" height="45" viewBox="0 0 45 45">
  <defs>
    <filter id="Rectangle_7032" x="9.821" y="11.314" width="12.782" height="15.679" filterUnits="userSpaceOnUse">
      <feOffset dy="3" input="SourceAlpha"/>
      <feGaussianBlur stdDeviation="0.5" result="blur"/>
      <feFlood flood-opacity="0.161"/>
      <feComposite operator="in" in2="blur"/>
      <feComposite in="SourceGraphic"/>
    </filter>
    <filter id="Rectangle_7034" x="22.398" y="22.493" width="12.782" height="15.679" filterUnits="userSpaceOnUse">
      <feOffset dy="3" input="SourceAlpha"/>
      <feGaussianBlur stdDeviation="0.5" result="blur-2"/>
      <feFlood flood-opacity="0.161"/>
      <feComposite operator="in" in2="blur-2"/>
      <feComposite in="SourceGraphic"/>
    </filter>
    <filter id="Rectangle_7033" x="22.398" y="11.314" width="12.782" height="12.884" filterUnits="userSpaceOnUse">
      <feOffset dy="3" input="SourceAlpha"/>
      <feGaussianBlur stdDeviation="0.5" result="blur-3"/>
      <feFlood flood-opacity="0.161"/>
      <feComposite operator="in" in2="blur-3"/>
      <feComposite in="SourceGraphic"/>
    </filter>
    <filter id="Rectangle_7035" x="9.821" y="25.288" width="12.782" height="12.884" filterUnits="userSpaceOnUse">
      <feOffset dy="3" input="SourceAlpha"/>
      <feGaussianBlur stdDeviation="0.5" result="blur-4"/>
      <feFlood flood-opacity="0.161"/>
      <feComposite operator="in" in2="blur-4"/>
      <feComposite in="SourceGraphic"/>
    </filter>
  </defs>
  <g id="Group_29982" data-name="Group 29982" transform="translate(-346.494 -98.361)">
    <rect id="Rectangle_7382" data-name="Rectangle 7382" width="45" height="45" rx="8" transform="translate(346.494 98.361)" fill="#f85a6d" opacity="0.04"/>
    <g id="Group_29240" data-name="Group 29240" transform="translate(346.937 99.115)">
      <g transform="matrix(1, 0, 0, 1, -0.44, -0.75)" filter="url(#Rectangle_7032)">
        <g id="Rectangle_7032-2" data-name="Rectangle 7032" transform="translate(11.32 11.31)" fill="none" stroke="#f85a6d" stroke-width="2">
          <rect width="9.782" height="11.179" rx="2" stroke="none"/>
          <rect x="1" y="1" width="7.782" height="9.179" rx="1" fill="none"/>
        </g>
      </g>
      <g transform="matrix(1, 0, 0, 1, -0.44, -0.75)" filter="url(#Rectangle_7034)">
        <g id="Rectangle_7034-2" data-name="Rectangle 7034" transform="translate(23.9 22.49)" fill="none" stroke="#f85a6d" stroke-width="2">
          <rect width="9.782" height="11.179" rx="2" stroke="none"/>
          <rect x="1" y="1" width="7.782" height="9.179" rx="1" fill="none"/>
        </g>
      </g>
      <g transform="matrix(1, 0, 0, 1, -0.44, -0.75)" filter="url(#Rectangle_7033)">
        <g id="Rectangle_7033-2" data-name="Rectangle 7033" transform="translate(23.9 11.31)" fill="none" stroke="#f85a6d" stroke-width="2">
          <rect width="9.782" height="8.384" rx="2" stroke="none"/>
          <rect x="1" y="1" width="7.782" height="6.384" rx="1" fill="none"/>
        </g>
      </g>
      <g transform="matrix(1, 0, 0, 1, -0.44, -0.75)" filter="url(#Rectangle_7035)">
        <g id="Rectangle_7035-2" data-name="Rectangle 7035" transform="translate(11.32 25.29)" fill="none" stroke="#f85a6d" stroke-width="2">
          <rect width="9.782" height="8.384" rx="2" stroke="none"/>
          <rect x="1" y="1" width="7.782" height="6.384" rx="1" fill="none"/>
        </g>
      </g>
    </g>
  </g>
</svg>
