<svg xmlns="http://www.w3.org/2000/svg" width="66.87" height="49.405" viewBox="0 0 66.87 49.405">
  <g id="Group_29281" data-name="Group 29281" transform="translate(-210.762 -4214.743)">
    <path id="Path_22719" data-name="Path 22719" d="M18.52,2.776c18.073,0,18.755,4.514,18.755,17.05s-3.41,27.28-18.755,26.6S-.917,35.853-1.94,24.6.448,2.776,18.52,2.776Z" transform="translate(212.865 4211.967)" fill="#076d15" opacity="0.16"/>
    <g id="Group_29233" data-name="Group 29233" transform="translate(-281.049 4078.651)">
      <g id="Group_29234" data-name="Group 29234" transform="translate(511.5 147.688)">
        <path id="Line_696" data-name="Line 696" d="M47.181,8.555H0V-1.5H47.181Z" transform="translate(0 1.5)" fill="#d91e15"/>
        <rect id="Rectangle_7097" data-name="Rectangle 7097" width="5.551" height="5.551" transform="translate(4.163 2.252)" fill="#fff"/>
      </g>
      <g id="Group_29235" data-name="Group 29235" transform="translate(511.5 161.565)">
        <path id="Line_696-2" data-name="Line 696" d="M47.181,8.555H0V-1.5H47.181Z" transform="translate(0 1.5)" fill="#d91e15"/>
        <rect id="Rectangle_7097-2" data-name="Rectangle 7097" width="5.551" height="5.551" transform="translate(4.163 2.252)" fill="#fff"/>
      </g>
      <g id="Group_29236" data-name="Group 29236" transform="translate(511.5 175.442)">
        <path id="Line_696-3" data-name="Line 696" d="M47.181,8.555H0V-1.5H47.181Z" transform="translate(0 1.5)" fill="#d91e15"/>
        <rect id="Rectangle_7097-3" data-name="Rectangle 7097" width="5.551" height="5.551" transform="translate(4.163 2.252)" fill="#fff"/>
      </g>
    </g>
  </g>
</svg>
