<svg xmlns="http://www.w3.org/2000/svg" width="54.865" height="48.391" viewBox="0 0 54.865 48.391">
  <g id="Group_29282" data-name="Group 29282" transform="translate(-210.762 -4214.743)">
    <path id="Path_22719" data-name="Path 22719" d="M18.52,2.776c18.073,0,18.755,4.514,18.755,17.05s-3.41,27.28-18.755,26.6S-.917,35.853-1.94,24.6.448,2.776,18.52,2.776Z" transform="translate(212.865 4211.967)" fill="#17a2b8" opacity="0.32"/>
    <g id="Group_29237" data-name="Group 29237" transform="translate(-274.925 4023.319)">
      <g id="Ellipse_878" data-name="Ellipse 878" transform="translate(510.432 205.65)" fill="none" stroke="#d91e15" stroke-width="3">
        <circle cx="9.646" cy="9.646" r="9.646" stroke="none"/>
        <circle cx="9.646" cy="9.646" r="8.146" fill="none"/>
      </g>
      <g id="Intersection_4" data-name="Intersection 4" transform="translate(499.883 227.145)" fill="none">
        <path d="M4.294,12.67A5.21,5.21,0,0,1-.28,9.538,14.006,14.006,0,0,1,12.993,0H27.4A14.006,14.006,0,0,1,40.669,9.538,5.21,5.21,0,0,1,36.1,12.67Z" stroke="none"/>
        <path d="M 36.09540176391602 9.670200347900391 C 36.54835510253906 9.670200347900391 36.95009613037109 9.46187686920166 37.27940368652344 9.161948204040527 C 35.45364761352539 5.425014019012451 31.64265823364258 3.000000238418579 27.39599990844727 3.000000238418579 L 12.99330043792725 3.000000238418579 C 8.74664306640625 3.000000238418579 4.935653209686279 5.425014019012451 3.109898328781128 9.161948204040527 C 3.439205884933472 9.46187686920166 3.840946197509766 9.670200347900391 4.293900489807129 9.670200347900391 L 36.09540176391602 9.670200347900391 M 36.09540176391602 12.67020034790039 L 4.293900489807129 12.67020034790039 C 2.344010591506958 12.67020034790039 0.64042067527771 11.41215991973877 -0.2800093591213226 9.538129806518555 C 1.582880616188049 3.99396014213562 6.821560859680176 1.739501982456204e-07 12.99330043792725 1.739501982456204e-07 L 27.39599990844727 1.739501982456204e-07 C 33.56774139404297 1.739501982456204e-07 38.80641937255859 3.99396014213562 40.6693115234375 9.538129806518555 C 39.74888229370117 11.41215991973877 38.0452995300293 12.67020034790039 36.09540176391602 12.67020034790039 Z" stroke="none" fill="#d91e15"/>
      </g>
    </g>
  </g>
</svg>
