<svg xmlns="http://www.w3.org/2000/svg" xmlns:xlink="http://www.w3.org/1999/xlink" width="261.155" height="321.858" viewBox="0 0 261.155 321.858">
  <defs>
    <filter id="Rectangle_6767" x="0" y="0" width="89.608" height="89.608" filterUnits="userSpaceOnUse">
      <feOffset dx="-1" dy="3" input="SourceAlpha"/>
      <feGaussianBlur stdDeviation="5" result="blur"/>
      <feFlood flood-color="#f95266" flood-opacity="0.471"/>
      <feComposite operator="in" in2="blur"/>
      <feComposite in="SourceGraphic"/>
    </filter>
    <filter id="Rectangle_6767-2" x="0" y="0" width="89.608" height="89.608" filterUnits="userSpaceOnUse">
      <feOffset input="SourceAlpha"/>
      <feGaussianBlur stdDeviation="7.5" result="blur-2"/>
      <feFlood flood-color="#e5e5e5" flood-opacity="0.522" result="color"/>
      <feComposite operator="out" in="SourceGraphic" in2="blur-2"/>
      <feComposite operator="in" in="color"/>
      <feComposite operator="in" in2="SourceGraphic"/>
    </filter>
    <filter id="Rectangle_7032" x="31.537" y="33.091" width="14.786" height="17.007" filterUnits="userSpaceOnUse">
      <feOffset dy="3" input="SourceAlpha"/>
      <feGaussianBlur stdDeviation="0.5" result="blur-3"/>
      <feFlood flood-opacity="0.161"/>
      <feComposite operator="in" in2="blur-3"/>
      <feComposite in="SourceGraphic"/>
    </filter>
    <filter id="Rectangle_7034" x="45.664" y="38.41" width="14.786" height="17.007" filterUnits="userSpaceOnUse">
      <feOffset dy="3" input="SourceAlpha"/>
      <feGaussianBlur stdDeviation="0.5" result="blur-4"/>
      <feFlood flood-opacity="0.161"/>
      <feComposite operator="in" in2="blur-4"/>
      <feComposite in="SourceGraphic"/>
    </filter>
    <filter id="Rectangle_7033" x="42.07" y="29.048" width="13.888" height="14.667" filterUnits="userSpaceOnUse">
      <feOffset dy="3" input="SourceAlpha"/>
      <feGaussianBlur stdDeviation="0.5" result="blur-5"/>
      <feFlood flood-opacity="0.161"/>
      <feComposite operator="in" in2="blur-5"/>
      <feComposite in="SourceGraphic"/>
    </filter>
    <filter id="Rectangle_7035" x="36.03" y="44.794" width="13.888" height="14.667" filterUnits="userSpaceOnUse">
      <feOffset dy="3" input="SourceAlpha"/>
      <feGaussianBlur stdDeviation="0.5" result="blur-6"/>
      <feFlood flood-opacity="0.161"/>
      <feComposite operator="in" in2="blur-6"/>
      <feComposite in="SourceGraphic"/>
    </filter>
    <filter id="Rectangle_6767-3" x="97.74" y="87.091" width="77.056" height="77.056" filterUnits="userSpaceOnUse">
      <feOffset dx="-1" dy="3" input="SourceAlpha"/>
      <feGaussianBlur stdDeviation="5" result="blur-7"/>
      <feFlood flood-color="#887ce3" flood-opacity="0.471"/>
      <feComposite operator="in" in2="blur-7"/>
      <feComposite in="SourceGraphic"/>
    </filter>
    <filter id="Rectangle_6767-4" x="97.74" y="87.091" width="77.056" height="77.056" filterUnits="userSpaceOnUse">
      <feOffset input="SourceAlpha"/>
      <feGaussianBlur stdDeviation="7.5" result="blur-8"/>
      <feFlood flood-color="#e5e5e5" flood-opacity="0.522" result="color-2"/>
      <feComposite operator="out" in="SourceGraphic" in2="blur-8"/>
      <feComposite operator="in" in="color-2"/>
      <feComposite operator="in" in2="SourceGraphic"/>
    </filter>
    <filter id="Rectangle_6969" x="125.939" y="114.11" width="24.22" height="23.645" filterUnits="userSpaceOnUse">
      <feOffset dx="1" dy="2" input="SourceAlpha"/>
      <feGaussianBlur stdDeviation="0.5" result="blur-9"/>
      <feFlood flood-opacity="0.161"/>
      <feComposite operator="in" in2="blur-9"/>
      <feComposite in="SourceGraphic"/>
    </filter>
    <filter id="Rectangle_6970" x="130.218" y="122.141" width="10.132" height="10.632" filterUnits="userSpaceOnUse">
      <feOffset dx="1" dy="2" input="SourceAlpha"/>
      <feGaussianBlur stdDeviation="0.5" result="blur-10"/>
      <feFlood flood-opacity="0.161"/>
      <feComposite operator="in" in2="blur-10"/>
      <feComposite in="SourceGraphic"/>
    </filter>
    <filter id="Line_564" x="131.438" y="111.423" width="6.029" height="7.603" filterUnits="userSpaceOnUse">
      <feOffset dx="1" dy="2" input="SourceAlpha"/>
      <feGaussianBlur stdDeviation="0.5" result="blur-11"/>
      <feFlood flood-opacity="0.161"/>
      <feComposite operator="in" in2="blur-11"/>
      <feComposite in="SourceGraphic"/>
    </filter>
    <filter id="Line_565" x="141.443" y="112.829" width="6.029" height="7.603" filterUnits="userSpaceOnUse">
      <feOffset dx="1" dy="2" input="SourceAlpha"/>
      <feGaussianBlur stdDeviation="0.5" result="blur-12"/>
      <feFlood flood-opacity="0.161"/>
      <feComposite operator="in" in2="blur-12"/>
      <feComposite in="SourceGraphic"/>
    </filter>
    <filter id="Line_566" x="128.321" y="117.949" width="20.684" height="7.211" filterUnits="userSpaceOnUse">
      <feOffset dx="1" dy="2" input="SourceAlpha"/>
      <feGaussianBlur stdDeviation="0.5" result="blur-13"/>
      <feFlood flood-opacity="0.161"/>
      <feComposite operator="in" in2="blur-13"/>
      <feComposite in="SourceGraphic"/>
    </filter>
    <filter id="Rectangle_6767-5" x="148.147" y="243.372" width="78.486" height="78.486" filterUnits="userSpaceOnUse">
      <feOffset dx="-1" dy="3" input="SourceAlpha"/>
      <feGaussianBlur stdDeviation="5" result="blur-14"/>
      <feFlood flood-color="#25a6bb" flood-opacity="0.471"/>
      <feComposite operator="in" in2="blur-14"/>
      <feComposite in="SourceGraphic"/>
    </filter>
    <filter id="Rectangle_6767-6" x="148.147" y="243.372" width="78.486" height="78.486" filterUnits="userSpaceOnUse">
      <feOffset input="SourceAlpha"/>
      <feGaussianBlur stdDeviation="7.5" result="blur-15"/>
      <feFlood flood-color="#e5e5e5" flood-opacity="0.522" result="color-3"/>
      <feComposite operator="out" in="SourceGraphic" in2="blur-15"/>
      <feComposite operator="in" in="color-3"/>
      <feComposite operator="in" in2="SourceGraphic"/>
    </filter>
    <filter id="Path_14108" x="175.666" y="266.281" width="25.447" height="28.669" filterUnits="userSpaceOnUse">
      <feOffset dy="1" input="SourceAlpha"/>
      <feGaussianBlur stdDeviation="0.5" result="blur-16"/>
      <feFlood flood-opacity="0.161"/>
      <feComposite operator="in" in2="blur-16"/>
      <feComposite in="SourceGraphic"/>
    </filter>
    <filter id="Line_641" x="179.278" y="269.639" width="8.8" height="24.128" filterUnits="userSpaceOnUse">
      <feOffset dy="1" input="SourceAlpha"/>
      <feGaussianBlur stdDeviation="0.5" result="blur-17"/>
      <feFlood flood-opacity="0.161"/>
      <feComposite operator="in" in2="blur-17"/>
      <feComposite in="SourceGraphic"/>
    </filter>
    <filter id="Line_639" x="187.29" y="275.734" width="5.318" height="9.046" filterUnits="userSpaceOnUse">
      <feOffset dy="1" input="SourceAlpha"/>
      <feGaussianBlur stdDeviation="0.5" result="blur-18"/>
      <feFlood flood-opacity="0.161"/>
      <feComposite operator="in" in2="blur-18"/>
      <feComposite in="SourceGraphic"/>
    </filter>
    <filter id="Line_640" x="185.444" y="277.67" width="9.046" height="5.318" filterUnits="userSpaceOnUse">
      <feOffset dy="1" input="SourceAlpha"/>
      <feGaussianBlur stdDeviation="0.5" result="blur-19"/>
      <feFlood flood-opacity="0.161"/>
      <feComposite operator="in" in2="blur-19"/>
      <feComposite in="SourceGraphic"/>
    </filter>
    <filter id="Rectangle_6767-7" x="176.266" y="29.804" width="70.733" height="70.733" filterUnits="userSpaceOnUse">
      <feOffset dx="-1" dy="3" input="SourceAlpha"/>
      <feGaussianBlur stdDeviation="5" result="blur-20"/>
      <feFlood flood-color="#f95266" flood-opacity="0.471"/>
      <feComposite operator="in" in2="blur-20"/>
      <feComposite in="SourceGraphic"/>
    </filter>
    <filter id="Rectangle_6767-8" x="176.266" y="29.804" width="70.733" height="70.733" filterUnits="userSpaceOnUse">
      <feOffset input="SourceAlpha"/>
      <feGaussianBlur stdDeviation="7.5" result="blur-21"/>
      <feFlood flood-color="#e5e5e5" flood-opacity="0.522" result="color-4"/>
      <feComposite operator="out" in="SourceGraphic" in2="blur-21"/>
      <feComposite operator="in" in="color-4"/>
      <feComposite operator="in" in2="SourceGraphic"/>
    </filter>
    <filter id="Path_22693" x="203.265" y="52.173" width="18.737" height="24.492" filterUnits="userSpaceOnUse">
      <feOffset dy="3" input="SourceAlpha"/>
      <feGaussianBlur stdDeviation="0.5" result="blur-22"/>
      <feFlood flood-opacity="0.161"/>
      <feComposite operator="in" in2="blur-22"/>
      <feComposite in="SourceGraphic"/>
    </filter>
    <filter id="Path_22694" x="203.996" y="66.469" width="14.883" height="9.465" filterUnits="userSpaceOnUse">
      <feOffset dy="3" input="SourceAlpha"/>
      <feGaussianBlur stdDeviation="0.5" result="blur-23"/>
      <feFlood flood-opacity="0.161"/>
      <feComposite operator="in" in2="blur-23"/>
      <feComposite in="SourceGraphic"/>
    </filter>
    <filter id="Path_22695" x="206.651" y="53.343" width="14.542" height="7.534" filterUnits="userSpaceOnUse">
      <feOffset dy="3" input="SourceAlpha"/>
      <feGaussianBlur stdDeviation="0.5" result="blur-24"/>
      <feFlood flood-opacity="0.161"/>
      <feComposite operator="in" in2="blur-24"/>
      <feComposite in="SourceGraphic"/>
    </filter>
    <filter id="Line_695" x="208.092" y="68.468" width="7.154" height="6.187" filterUnits="userSpaceOnUse">
      <feOffset dy="3" input="SourceAlpha"/>
      <feGaussianBlur stdDeviation="0.5" result="blur-25"/>
      <feFlood flood-opacity="0.161"/>
      <feComposite operator="in" in2="blur-25"/>
      <feComposite in="SourceGraphic"/>
    </filter>
    <filter id="Rectangle_6767-9" x="20.984" y="163.958" width="96.235" height="96.235" filterUnits="userSpaceOnUse">
      <feOffset dx="-1" dy="3" input="SourceAlpha"/>
      <feGaussianBlur stdDeviation="5" result="blur-26"/>
      <feFlood flood-color="#f95266" flood-opacity="0.471"/>
      <feComposite operator="in" in2="blur-26"/>
      <feComposite in="SourceGraphic"/>
    </filter>
    <filter id="Rectangle_6767-10" x="20.984" y="163.958" width="96.235" height="96.235" filterUnits="userSpaceOnUse">
      <feOffset input="SourceAlpha"/>
      <feGaussianBlur stdDeviation="7.5" result="blur-27"/>
      <feFlood flood-color="#e5e5e5" flood-opacity="0.522" result="color-5"/>
      <feComposite operator="out" in="SourceGraphic" in2="blur-27"/>
      <feComposite operator="in" in="color-5"/>
      <feComposite operator="in" in2="SourceGraphic"/>
    </filter>
    <filter id="Path_14108-2" x="51.172" y="191.631" width="37.858" height="39.388" filterUnits="userSpaceOnUse">
      <feOffset dy="3" input="SourceAlpha"/>
      <feGaussianBlur stdDeviation="0.5" result="blur-28"/>
      <feFlood flood-opacity="0.161"/>
      <feComposite operator="in" in2="blur-28"/>
      <feComposite in="SourceGraphic"/>
    </filter>
    <filter id="Line_696" x="56.466" y="204.048" width="10.305" height="14.794" filterUnits="userSpaceOnUse">
      <feOffset dy="3" input="SourceAlpha"/>
      <feGaussianBlur stdDeviation="0.5" result="blur-29"/>
      <feFlood flood-opacity="0.161"/>
      <feComposite operator="in" in2="blur-29"/>
      <feComposite in="SourceGraphic"/>
    </filter>
    <filter id="Line_699" x="69.232" y="204.452" width="13.699" height="21.177" filterUnits="userSpaceOnUse">
      <feOffset dy="3" input="SourceAlpha"/>
      <feGaussianBlur stdDeviation="0.5" result="blur-30"/>
      <feFlood flood-opacity="0.161"/>
      <feComposite operator="in" in2="blur-30"/>
      <feComposite in="SourceGraphic"/>
    </filter>
    <filter id="Line_697" x="63.03" y="211.368" width="8.268" height="10.964" filterUnits="userSpaceOnUse">
      <feOffset dy="3" input="SourceAlpha"/>
      <feGaussianBlur stdDeviation="0.5" result="blur-31"/>
      <feFlood flood-opacity="0.161"/>
      <feComposite operator="in" in2="blur-31"/>
      <feComposite in="SourceGraphic"/>
    </filter>
    <filter id="Line_698" x="66.424" y="206.261" width="7.59" height="9.687" filterUnits="userSpaceOnUse">
      <feOffset dy="3" input="SourceAlpha"/>
      <feGaussianBlur stdDeviation="0.5" result="blur-32"/>
      <feFlood flood-opacity="0.161"/>
      <feComposite operator="in" in2="blur-32"/>
      <feComposite in="SourceGraphic"/>
    </filter>
    <filter id="Rectangle_6767-11" x="187.502" y="151.481" width="73.653" height="73.653" filterUnits="userSpaceOnUse">
      <feOffset dx="-1" dy="3" input="SourceAlpha"/>
      <feGaussianBlur stdDeviation="5" result="blur-33"/>
      <feFlood flood-color="#8d82e2" flood-opacity="0.471"/>
      <feComposite operator="in" in2="blur-33"/>
      <feComposite in="SourceGraphic"/>
    </filter>
    <filter id="Rectangle_6767-12" x="187.502" y="151.481" width="73.653" height="73.653" filterUnits="userSpaceOnUse">
      <feOffset input="SourceAlpha"/>
      <feGaussianBlur stdDeviation="7.5" result="blur-34"/>
      <feFlood flood-color="#e5e5e5" flood-opacity="0.522" result="color-6"/>
      <feComposite operator="out" in="SourceGraphic" in2="blur-34"/>
      <feComposite operator="in" in="color-6"/>
      <feComposite operator="in" in2="SourceGraphic"/>
    </filter>
    <filter id="Icon_open-arrow-thick-right" x="211.849" y="180.913" width="16.314" height="16.08" filterUnits="userSpaceOnUse">
      <feOffset dy="3" input="SourceAlpha"/>
      <feGaussianBlur stdDeviation="0.5" result="blur-35"/>
      <feFlood flood-opacity="0.161"/>
      <feComposite operator="in" in2="blur-35"/>
      <feComposite in="SourceGraphic"/>
    </filter>
    <filter id="Icon_open-arrow-thick-right-2" x="222.494" y="178.123" width="16.314" height="16.08" filterUnits="userSpaceOnUse">
      <feOffset dy="3" input="SourceAlpha"/>
      <feGaussianBlur stdDeviation="0.5" result="blur-36"/>
      <feFlood flood-opacity="0.161"/>
      <feComposite operator="in" in2="blur-36"/>
      <feComposite in="SourceGraphic"/>
    </filter>
  </defs>
  <g id="Group_29838" data-name="Group 29838" transform="translate(-67.016 -154.142)">
    <g id="Group_29239" data-name="Group 29239" transform="translate(83.016 185.098) rotate(-25)">
      <g data-type="innerShadowGroup">
        <g transform="matrix(0.91, 0.42, -0.42, 0.91, -1.42, -34.82)" filter="url(#Rectangle_6767)">
          <rect id="Rectangle_6767-13" data-name="Rectangle 6767" width="44.854" height="44.854" rx="5" transform="translate(16 30.96) rotate(-25)" fill="#f95266"/>
        </g>
        <g transform="matrix(0.91, 0.42, -0.42, 0.91, -1.42, -34.82)" filter="url(#Rectangle_6767-2)">
          <rect id="Rectangle_6767-14" data-name="Rectangle 6767" width="44.854" height="44.854" rx="5" transform="translate(16 30.96) rotate(-25)" fill="#fff"/>
        </g>
      </g>
      <g id="Group_29240" data-name="Group 29240" transform="matrix(0.998, 0.07, -0.07, 0.998, 13.21, 11.985)">
        <g transform="matrix(0.93, 0.36, -0.36, 0.93, -17.86, -45.67)" filter="url(#Rectangle_7032)">
          <g id="Rectangle_7032-2" data-name="Rectangle 7032" transform="translate(33.04 36.24) rotate(-21)" fill="none" stroke="#fff" stroke-width="2">
            <rect width="8.775" height="10.029" rx="2" stroke="none"/>
            <rect x="1" y="1" width="6.775" height="8.029" rx="1" fill="none"/>
          </g>
        </g>
        <g transform="matrix(0.93, 0.36, -0.36, 0.93, -17.86, -45.67)" filter="url(#Rectangle_7034)">
          <g id="Rectangle_7034-2" data-name="Rectangle 7034" transform="translate(47.16 41.55) rotate(-21)" fill="none" stroke="#fff" stroke-width="2">
            <rect width="8.775" height="10.029" rx="2" stroke="none"/>
            <rect x="1" y="1" width="6.775" height="8.029" rx="1" fill="none"/>
          </g>
        </g>
        <g transform="matrix(0.93, 0.36, -0.36, 0.93, -17.86, -45.67)" filter="url(#Rectangle_7033)">
          <g id="Rectangle_7033-2" data-name="Rectangle 7033" transform="translate(43.57 32.19) rotate(-21)" fill="none" stroke="#fff" stroke-width="2">
            <rect width="8.775" height="7.521" rx="2" stroke="none"/>
            <rect x="1" y="1" width="6.775" height="5.521" rx="1" fill="none"/>
          </g>
        </g>
        <g transform="matrix(0.93, 0.36, -0.36, 0.93, -17.86, -45.67)" filter="url(#Rectangle_7035)">
          <g id="Rectangle_7035-2" data-name="Rectangle 7035" transform="translate(37.53 47.94) rotate(-21)" fill="none" stroke="#fff" stroke-width="2">
            <rect width="8.775" height="7.521" rx="2" stroke="none"/>
            <rect x="1" y="1" width="6.775" height="5.521" rx="1" fill="none"/>
          </g>
        </g>
      </g>
    </g>
    <g id="Group_29241" data-name="Group 29241" transform="translate(186.554 253.233) rotate(8)">
      <g data-type="innerShadowGroup">
        <g transform="matrix(0.99, -0.14, 0.14, 0.99, -132.17, -81.49)" filter="url(#Rectangle_6767-3)">
          <rect id="Rectangle_6767-15" data-name="Rectangle 6767" width="41.663" height="41.663" rx="5" transform="translate(119.54 99.09) rotate(8)" fill="#887ce3"/>
        </g>
        <g transform="matrix(0.99, -0.14, 0.14, 0.99, -132.17, -81.49)" filter="url(#Rectangle_6767-4)">
          <rect id="Rectangle_6767-16" data-name="Rectangle 6767" width="41.663" height="41.663" rx="5" transform="translate(119.54 99.09) rotate(8)" fill="#fff"/>
        </g>
      </g>
      <g id="Group_28487" data-name="Group 28487" transform="translate(11.36 10.413)">
        <g transform="matrix(0.99, -0.14, 0.14, 0.99, -143.53, -91.9)" filter="url(#Rectangle_6969)">
          <path id="Rectangle_6969-2" data-name="Rectangle 6969" d="M2.526,1.894a.632.632,0,0,0-.631.631V15.155a.632.632,0,0,0,.631.631H16.418a.632.632,0,0,0,.631-.631V2.526a.632.632,0,0,0-.631-.631H2.526M2.526,0H16.418a2.526,2.526,0,0,1,2.526,2.526V15.155a2.526,2.526,0,0,1-2.526,2.526H2.526A2.526,2.526,0,0,1,0,15.155V2.526A2.526,2.526,0,0,1,2.526,0Z" transform="translate(128.9 114.11) rotate(8)" fill="#fff"/>
        </g>
        <g transform="matrix(0.99, -0.14, 0.14, 0.99, -143.53, -91.9)" filter="url(#Rectangle_6970)">
          <rect id="Rectangle_6970-2" data-name="Rectangle 6970" width="6.315" height="6.315" transform="translate(131.6 122.14) rotate(8)" fill="#fff"/>
        </g>
        <g transform="matrix(0.99, -0.14, 0.14, 0.99, -143.53, -91.9)" filter="url(#Line_564)">
          <path id="Line_564-2" data-name="Line 564" d="M2.526,3.789H0V0H2.526Z" transform="translate(132.47 111.42) rotate(8)" fill="#fff"/>
        </g>
        <g transform="matrix(0.99, -0.14, 0.14, 0.99, -143.53, -91.9)" filter="url(#Line_565)">
          <path id="Line_565-2" data-name="Line 565" d="M2.526,3.789H0V0H2.526Z" transform="translate(142.47 112.83) rotate(8)" fill="#fff"/>
        </g>
        <g transform="matrix(0.99, -0.14, 0.14, 0.99, -143.53, -91.9)" filter="url(#Line_566)">
          <path id="Line_566-2" data-name="Line 566" d="M17.681,1.263H0V0H17.681Z" transform="translate(129 117.95) rotate(8)" fill="#fff"/>
        </g>
      </g>
    </g>
    <g id="Group_29242" data-name="Group 29242" transform="translate(231.163 418.609) rotate(-13)">
      <g data-type="innerShadowGroup">
        <g transform="matrix(0.97, 0.22, -0.22, 0.97, -100.45, -294.61)" filter="url(#Rectangle_6767-5)">
          <rect id="Rectangle_6767-17" data-name="Rectangle 6767" width="40.428" height="40.428" rx="5" transform="translate(164.15 264.47) rotate(-13)" fill="#17a2b8"/>
        </g>
        <g transform="matrix(0.97, 0.22, -0.22, 0.97, -100.45, -294.61)" filter="url(#Rectangle_6767-6)">
          <rect id="Rectangle_6767-18" data-name="Rectangle 6767" width="40.428" height="40.428" rx="5" transform="translate(164.15 264.47) rotate(-13)" fill="#fff"/>
        </g>
      </g>
      <g id="Icon_feather-video" data-name="Icon feather-video" transform="translate(11.884 9.488)">
        <g transform="matrix(0.97, 0.22, -0.22, 0.97, -112.33, -304.1)" filter="url(#Path_14108)">
          <path id="Path_14108-3" data-name="Path 14108" d="M2.795,0h15.37A2.612,2.612,0,0,1,20.96,2.38v11.9a2.612,2.612,0,0,1-2.795,2.38H2.795A2.612,2.612,0,0,1,0,14.28V2.38A2.612,2.612,0,0,1,2.795,0Z" transform="matrix(0.22, 0.97, -0.97, 0.22, 194.15, 267.53)" fill="none" stroke="#fff" stroke-linecap="round" stroke-linejoin="round" stroke-width="1.25"/>
        </g>
        <g transform="matrix(0.97, 0.22, -0.22, 0.97, -112.33, -304.1)" filter="url(#Line_641)">
          <line id="Line_641-2" data-name="Line 641" y2="21.453" transform="matrix(0.97, -0.22, 0.22, 0.97, 181.27, 270.25)" fill="none" stroke="#fff" stroke-width="1"/>
        </g>
        <g transform="matrix(0.97, 0.22, -0.22, 0.97, -112.33, -304.1)" filter="url(#Line_639)">
          <line id="Line_639-2" data-name="Line 639" y2="4.974" transform="matrix(0.97, -0.22, 0.22, 0.97, 189.39, 276.83)" fill="none" stroke="#fff" stroke-linecap="round" stroke-width="1"/>
        </g>
        <g transform="matrix(0.97, 0.22, -0.22, 0.97, -112.33, -304.1)" filter="url(#Line_640)">
          <line id="Line_640-2" data-name="Line 640" x1="4.974" transform="matrix(0.97, -0.22, 0.22, 0.97, 187.54, 279.89)" fill="none" stroke="#fff" stroke-linecap="round" stroke-width="1"/>
        </g>
      </g>
    </g>
    <g id="Group_29243" data-name="Group 29243" transform="translate(266.422 195.946) rotate(12)">
      <g data-type="innerShadowGroup">
        <g transform="matrix(0.98, -0.21, 0.21, 0.98, -203.74, 0.57)" filter="url(#Rectangle_6767-7)">
          <rect id="Rectangle_6767-19" data-name="Rectangle 6767" width="34.343" height="34.343" rx="5" transform="translate(199.41 41.8) rotate(12)" fill="#f95266"/>
        </g>
        <g transform="matrix(0.98, -0.21, 0.21, 0.98, -203.74, 0.57)" filter="url(#Rectangle_6767-8)">
          <rect id="Rectangle_6767-20" data-name="Rectangle 6767" width="34.343" height="34.343" rx="5" transform="translate(199.41 41.8) rotate(12)" fill="#fff"/>
        </g>
      </g>
      <g id="Group_29231" data-name="Group 29231" transform="matrix(0.999, -0.035, 0.035, 0.999, 10.462, 8.377)">
        <g id="Group_29231-2" data-name="Group 29231" transform="translate(0 0)">
          <g transform="matrix(0.98, -0.17, 0.17, 0.98, -213.8, -15.28)" filter="url(#Path_22693)">
            <path id="Path_22693-2" data-name="Path 22693" d="M2.869,0H15.175a3.311,3.311,0,0,1,1.957.606,2.1,2.1,0,0,1,.912,1.674v8.24a2.1,2.1,0,0,1-.912,1.674,3.311,3.311,0,0,1-1.957.606H2.869a3.311,3.311,0,0,1-1.957-.606A2.1,2.1,0,0,1,0,10.519V2.279A2.1,2.1,0,0,1,.912.606,3.311,3.311,0,0,1,2.869,0ZM15.175,11.536c.856,0,1.606-.475,1.606-1.016V2.279c0-.541-.75-1.016-1.606-1.016H2.869c-.856,0-1.606.475-1.606,1.016v8.24c0,.541.75,1.016,1.606,1.016Z" transform="matrix(-0.17, 0.98, -0.98, -0.17, 220.5, 54.4)" fill="#fff"/>
          </g>
          <g transform="matrix(0.98, -0.17, 0.17, 0.98, -213.8, -15.28)" filter="url(#Path_22694)">
            <path id="Path_22694-2" data-name="Path 22694" d="M.4,0H2.607c.221,0,.4.738.4,1.648v8.24c0,.91-.18,1.648-.4,1.648H.4c-.221,0-.4-.738-.4-1.648V1.648C0,.738.18,0,.4,0Z" transform="matrix(-0.17, 0.98, -0.98, -0.17, 217.38, 68.47)" fill="#fff"/>
          </g>
          <g transform="matrix(0.98, -0.17, 0.17, 0.98, -213.8, -15.28)" filter="url(#Path_22695)">
            <path id="Path_22695-2" data-name="Path 22695" d="M.14,0H.907a4.984,4.984,0,0,1,.14,1.648v8.24a4.984,4.984,0,0,1-.14,1.648H.14A4.984,4.984,0,0,1,0,9.888V1.648A4.984,4.984,0,0,1,.14,0Z" transform="matrix(-0.17, 0.98, -0.98, -0.17, 219.69, 55.35)" fill="#fff"/>
          </g>
          <g transform="matrix(0.98, -0.17, 0.17, 0.98, -213.8, -15.28)" filter="url(#Line_695)">
            <line id="Line_695-2" data-name="Line 695" x2="4.041" transform="matrix(0.98, 0.17, -0.17, 0.98, 209.68, 68.96)" fill="none" stroke="#f6697a" stroke-width="1"/>
          </g>
        </g>
      </g>
    </g>
    <g id="Group_29244" data-name="Group 29244" transform="translate(126.992 330.1) rotate(28)">
      <g data-type="innerShadowGroup">
        <g transform="matrix(0.88, -0.47, 0.47, 0.88, -135.56, -127.2)" filter="url(#Rectangle_6767-9)">
          <rect id="Rectangle_6767-21" data-name="Rectangle 6767" width="48.975" height="48.975" rx="5" transform="translate(59.98 175.96) rotate(28)" fill="#e12a8e"/>
        </g>
        <g transform="matrix(0.88, -0.47, 0.47, 0.88, -135.56, -127.2)" filter="url(#Rectangle_6767-10)">
          <rect id="Rectangle_6767-22" data-name="Rectangle 6767" width="48.975" height="48.975" rx="5" transform="translate(59.98 175.96) rotate(28)" fill="#fff"/>
        </g>
      </g>
      <g id="Icon_feather-video-2" data-name="Icon feather-video" transform="translate(11.612 11.576)">
        <g transform="matrix(0.88, -0.47, 0.47, 0.88, -147.18, -138.78)" filter="url(#Path_14108-2)">
          <path id="Path_14108-4" data-name="Path 14108" d="M4.106,0h17.61a4.224,4.224,0,0,1,4.106,4.324v17.1a4.224,4.224,0,0,1-4.106,4.324H4.106A4.224,4.224,0,0,1,0,21.426V4.324A4.224,4.224,0,0,1,4.106,0Zm17.61,23.943a2.418,2.418,0,0,0,2.3-2.517V4.324a2.418,2.418,0,0,0-2.3-2.517H4.106a2.418,2.418,0,0,0-2.3,2.517v17.1a2.418,2.418,0,0,0,2.3,2.517Z" transform="translate(87.53 203.72) rotate(118)" fill="#fff"/>
        </g>
        <g transform="matrix(0.88, -0.47, 0.47, 0.88, -147.18, -138.78)" filter="url(#Line_696)">
          <path id="Line_696-2" data-name="Line 696" d="M1.446,10.121A1.446,1.446,0,0,1,0,8.675V1.446a1.446,1.446,0,1,1,2.892,0V8.675A1.446,1.446,0,0,1,1.446,10.121Z" transform="translate(62.72 204.05) rotate(28)" fill="#fff"/>
        </g>
        <g transform="matrix(0.88, -0.47, 0.47, 0.88, -147.18, -138.78)" filter="url(#Line_699)">
          <path id="Line_699-2" data-name="Line 699" d="M1.446,17.35A1.446,1.446,0,0,1,0,15.9V1.446a1.446,1.446,0,1,1,2.892,0V15.9A1.446,1.446,0,0,1,1.446,17.35Z" transform="translate(78.88 204.45) rotate(28)" fill="#fff"/>
        </g>
        <g transform="matrix(0.88, -0.47, 0.47, 0.88, -147.18, -138.78)" filter="url(#Line_697)">
          <path id="Line_697-2" data-name="Line 697" d="M1.446,5.783A1.446,1.446,0,0,1,0,4.338V1.446a1.446,1.446,0,1,1,2.892,0V4.338A1.446,1.446,0,0,1,1.446,5.783Z" transform="translate(67.25 211.37) rotate(28)" fill="#fff"/>
        </g>
        <g transform="matrix(0.88, -0.47, 0.47, 0.88, -147.18, -138.78)" filter="url(#Line_698)">
          <path id="Line_698-2" data-name="Line 698" d="M1.446,4.338A1.446,1.446,0,0,1,0,2.892V1.446a1.446,1.446,0,1,1,2.892,0V2.892A1.446,1.446,0,0,1,1.446,4.338Z" transform="translate(69.96 206.26) rotate(28)" fill="#fff"/>
        </g>
      </g>
    </g>
    <g id="Group_29246" data-name="Group 29246" transform="translate(281.699 317.623) rotate(19)">
      <g data-type="innerShadowGroup">
        <g transform="matrix(0.95, -0.33, 0.33, 0.95, -256.21, -84.68)" filter="url(#Rectangle_6767-11)">
          <rect id="Rectangle_6767-23" data-name="Rectangle 6767" width="34.343" height="34.343" rx="5" transform="translate(214.68 163.48) rotate(19)" fill="#35cba2"/>
        </g>
        <g transform="matrix(0.95, -0.33, 0.33, 0.95, -256.21, -84.68)" filter="url(#Rectangle_6767-12)">
          <rect id="Rectangle_6767-24" data-name="Rectangle 6767" width="34.343" height="34.343" rx="5" transform="translate(214.68 163.48) rotate(19)" fill="#fff"/>
        </g>
      </g>
      <g id="Group_29232" data-name="Group 29232" transform="translate(6.997 9.923)">
        <g transform="matrix(0.95, -0.33, 0.33, 0.95, -263.21, -94.6)" filter="url(#Icon_open-arrow-thick-right)">
          <path id="Icon_open-arrow-thick-right-3" data-name="Icon open-arrow-thick-right" d="M6.995,0V2.8H0V5.6H6.995v2.8l4.2-4.239Z" transform="translate(216.08 180.91) rotate(19)" fill="#fff"/>
        </g>
        <g transform="matrix(0.95, -0.33, 0.33, 0.95, -263.21, -94.6)" filter="url(#Icon_open-arrow-thick-right-2)">
          <path id="Icon_open-arrow-thick-right-4" data-name="Icon open-arrow-thick-right" d="M4.2,0V2.8h6.994V5.6H4.2v2.8L0,4.155Z" transform="translate(226.73 178.12) rotate(19)" fill="#fff"/>
        </g>
      </g>
    </g>
  </g>
</svg>
