<svg xmlns="http://www.w3.org/2000/svg" width="107.352" height="96.479" viewBox="0 0 107.352 96.479">
  <g id="Group_29265" data-name="Group 29265" transform="translate(-867 -1163.874)">
    <path id="Icon_ionic-ios-lock" data-name="Icon ionic-ios-lock" d="M26.994,13.786H25.259V10.41a6.941,6.941,0,1,0-13.882-.094v3.47H9.642A2.9,2.9,0,0,0,6.75,16.678V30.56a2.9,2.9,0,0,0,2.892,2.892H26.994a2.9,2.9,0,0,0,2.892-2.892V16.678A2.9,2.9,0,0,0,26.994,13.786ZM19.33,22.809v4.974a1.037,1.037,0,0,1-.962,1.041,1.013,1.013,0,0,1-1.063-1.012v-5a2.314,2.314,0,1,1,2.024,0Zm3.9-9.023H13.4v-3.47a4.916,4.916,0,0,1,9.833,0Z" transform="translate(903.283 1160.5)" fill="#d91e15"/>
    <g id="Group_29263" data-name="Group 29263" transform="translate(928.08 1182.616)">
      <circle id="Ellipse_879" data-name="Ellipse 879" cx="11.105" cy="11.105" r="11.105" transform="translate(11.105)" fill="#d91e15"/>
      <path id="Rectangle_7341" data-name="Rectangle 7341" d="M9,0H37.272a9,9,0,0,1,9,9V20.913a5,5,0,0,1-5,5H5a5,5,0,0,1-5-5V9A9,9,0,0,1,9,0Z" transform="translate(0 25.913)" fill="#d91e15"/>
    </g>
    <g id="Group_29264" data-name="Group 29264" transform="translate(867 1182.616)">
      <circle id="Ellipse_879-2" data-name="Ellipse 879" cx="11.105" cy="11.105" r="11.105" transform="translate(11.105)" fill="#d91e15"/>
      <path id="Rectangle_7341-2" data-name="Rectangle 7341" d="M9,0H37.272a9,9,0,0,1,9,9V20.913a5,5,0,0,1-5,5H5a5,5,0,0,1-5-5V9A9,9,0,0,1,9,0Z" transform="translate(0 25.913)" fill="#d91e15"/>
    </g>
    <g id="Group_29262" data-name="Group 29262" transform="translate(898.465 1206.678)">
      <g id="Ellipse_879-3" data-name="Ellipse 879" transform="translate(12.105 1)" fill="none" stroke="#fafafa" stroke-width="3">
        <circle cx="10.105" cy="10.105" r="10.105" stroke="none"/>
        <circle cx="10.105" cy="10.105" r="11.605" fill="none"/>
      </g>
      <g id="Rectangle_7341-3" data-name="Rectangle 7341" transform="translate(0 27.763)" fill="none" stroke="#d91e15" stroke-width="3">
        <path d="M9,0H37.272a9,9,0,0,1,9,9V20.913a5,5,0,0,1-5,5H5a5,5,0,0,1-5-5V9A9,9,0,0,1,9,0Z" stroke="none"/>
        <path d="M9,1.5H37.272a7.5,7.5,0,0,1,7.5,7.5V20.913a3.5,3.5,0,0,1-3.5,3.5H5a3.5,3.5,0,0,1-3.5-3.5V9A7.5,7.5,0,0,1,9,1.5Z" fill="none"/>
      </g>
      <g id="Ellipse_880" data-name="Ellipse 880" transform="translate(14.807 3.702)" fill="none" stroke="#d91e15" stroke-width="3">
        <circle cx="7.404" cy="7.404" r="7.404" stroke="none"/>
        <circle cx="7.404" cy="7.404" r="8.904" fill="none"/>
      </g>
    </g>
  </g>
</svg>
