<svg xmlns="http://www.w3.org/2000/svg" width="19.804" height="28.341" viewBox="0 0 19.804 28.341">
  <g id="Layer_5" data-name="Layer 5" transform="translate(-11 8)">
    <path id="Path_705" data-name="Path 705" d="M10.031,1.21a10.029,10.029,0,0,0-8.6,15.2L9.343,29.164a.831.831,0,0,0,.7.387h0a.788.788,0,0,0,.7-.4l7.708-12.9A10.029,10.029,0,0,0,10.031,1.21Zm7.164,14.213L10.031,27.129,2.867,15.538a8.31,8.31,0,1,1,14.213-.115Z" transform="translate(11.002 -9.21)" fill="#1f60ef"/>
    <path id="Path_706" data-name="Path 706" d="M8.506,4.68a4.986,4.986,0,1,0,4.986,4.986A4.986,4.986,0,0,0,8.506,4.68Zm0,8.324a3.338,3.338,0,1,1,3.267-3.338A3.338,3.338,0,0,1,8.506,13Z" transform="translate(12.527 -7.708)" fill="#1f60ef"/>
  </g>
</svg>
