<svg xmlns="http://www.w3.org/2000/svg" width="24.551" height="24.563" viewBox="0 0 24.551 24.563">
  <g id="Layer_2" data-name="Layer 2" transform="translate(-0.003 -0.002)">
    <g id="Layer_4" data-name="Layer 4" transform="translate(0.003 0.002)">
      <path id="Path_719" data-name="Path 719" d="M23.918,18.1l-3.053-3.053a2.171,2.171,0,0,0-3.053,0L16.365,16.5a1.635,1.635,0,0,1-2.315,0L8.1,10.418a1.621,1.621,0,0,1,0-2.3L9.549,6.67a2.171,2.171,0,0,0,0-3.053L6.438.636a2.156,2.156,0,0,0-3.053,0L2.271,1.75a7.8,7.8,0,0,0,0,11l9.522,9.536a7.785,7.785,0,0,0,11.012,0l1.114-1.114a2.171,2.171,0,0,0,0-3.068Zm-4.081-2.04,3.053,3.053a.724.724,0,0,1,0,1.027l-.506.506-4.066-4.066.492-.521a.724.724,0,0,1,1.027,0ZM5.367,1.591,8.406,4.63a.695.695,0,0,1,0,1.013l-.449.579L3.891,2.155l.449-.506a.738.738,0,0,1,1.085,0ZM12.82,21.242,3.3,11.72a6.309,6.309,0,0,1-.405-8.538L6.945,7.234a3.1,3.1,0,0,0,.13,4.211l6.02,6.005h0a3.068,3.068,0,0,0,4.2.145l4.052,4.052a6.3,6.3,0,0,1-8.523-.405Z" transform="translate(-0.003 -0.002)" fill="#05840f"/>
    </g>
  </g>
</svg>
