<svg id="Component_33_1" data-name="Component 33 – 1" xmlns="http://www.w3.org/2000/svg" width="30" height="30" viewBox="0 0 30 30">
  <g id="Ellipse_700" data-name="Ellipse 700" fill="rgba(112,112,112,0.2)" stroke="rgba(112,112,112,0.37)" stroke-width="1" opacity="0.26">
    <circle cx="15" cy="15" r="15" stroke="none"/>
    <circle cx="15" cy="15" r="14.5" fill="none"/>
  </g>
  <g id="Path_20499" data-name="Path 20499" transform="translate(9.654 7.473)" fill="#707070">
    <path d="M 9.675381660461426 15.14172458648682 L 5.377695083618164 12.71178340911865 L 5.126625061035156 12.56983280181885 L 4.878045082092285 12.71609306335449 L 0.7572126984596252 15.14075946807861 C 0.6098025441169739 15.10338592529297 0.5000050067901611 14.99539279937744 0.5000050067901611 14.87197303771973 L 0.5000050067901611 0.7827330231666565 C 0.5000050067901611 0.6294729709625244 0.6693050265312195 0.5000029802322388 0.8697050213813782 0.5000029802322388 L 9.566764831542969 0.5000029802322388 C 9.767165184020996 0.5000029802322388 9.936474800109863 0.6294729709625244 9.936474800109863 0.7827330231666565 L 9.936474800109863 14.87197303771973 C 9.936474800109863 14.99647808074951 9.824751853942871 15.10527896881104 9.675381660461426 15.14172458648682 Z" stroke="none"/>
    <path d="M 0.999995231628418 1.000002861022949 L 0.999995231628418 14.41778564453125 L 5.121654987335205 11.99263286590576 L 9.436465263366699 14.43225860595703 L 9.436465263366699 1.000002861022949 L 0.999995231628418 1.000002861022949 M 0.8697052001953125 2.86102294921875e-06 L 9.566764831542969 2.86102294921875e-06 C 10.04709529876709 2.86102294921875e-06 10.4364652633667 0.3504428863525391 10.4364652633667 0.7827329635620117 L 10.4364652633667 14.87197303771973 C 10.4364652633667 15.3042631149292 10.04709529876709 15.65470314025879 9.566764831542969 15.65470314025879 L 5.13160514831543 13.14703273773193 L 0.8697052001953125 15.65470314025879 C 0.3893852233886719 15.65470314025879 -4.76837158203125e-06 15.3042631149292 -4.76837158203125e-06 14.87197303771973 L -4.76837158203125e-06 0.7827329635620117 C -4.76837158203125e-06 0.3504428863525391 0.3893852233886719 2.86102294921875e-06 0.8697052001953125 2.86102294921875e-06 Z" stroke="none" fill="#707070"/>
  </g>
</svg>
