<svg xmlns="http://www.w3.org/2000/svg" width="59.125" height="58.724" viewBox="0 0 59.125 58.724">
  <g id="Layer_3" data-name="Layer 3" transform="translate(0.624 0.517)">
    <path id="Path_21640" data-name="Path 21640" d="M59,7.614a6.372,6.372,0,0,0-.171.675c-.213,1.494-.427,3-.593,4.5-.1.907-.158,1.821-.177,2.732-.041,1.938-.807,2.824-2.734,3.076a11.009,11.009,0,0,1-4.771-.747,17.687,17.687,0,0,1-3.2-1.447c-1.477-.824-2.275-.745-3.52.388-.687.625-1.494,1.121-2.235,1.684a2.861,2.861,0,0,0-.826.7c-1,1.708-2.7,2.666-4.056,4-.213.2-.489.536-.427.719a.967.967,0,0,0,.7.5,14.785,14.785,0,0,1,6.444,2.719c.681.427,1.394.826,2.1,1.215,2.662,1.451,2.839,4.593.337,6.4a12.251,12.251,0,0,1-4.747,1.738c-2.546.568-5.072,1.24-7.592,1.921a3.255,3.255,0,0,0-1.379.719c-1.471,1.4-2.954,2.809-4.29,4.337a16.174,16.174,0,0,0-1.422,2.6c-.16.273-.512.427-.775.64-.171-.273-.491-.551-.482-.818a7.117,7.117,0,0,1,.327-2.448,10.956,10.956,0,0,0,.585-6c-.013,0-.088-.036-.1-.019-1.684,1.863-4.043,2.988-5.535,5.069a3.509,3.509,0,0,1-1.067.785c-1.151.719-2.348,1.351-3.458,2.135-2.775,2-5.55,4-8.241,6.126a21.8,21.8,0,0,0-2.664,2.944c-.327.371-.6.792-.918,1.17a1.914,1.914,0,0,0-.64,1.889c.1.363-.173.83-.275,1.251H2.749a3.9,3.9,0,0,1-1.155-5.321,18.073,18.073,0,0,0,1.185-3.368c.115-.348.181-.713.327-1.046a1.65,1.65,0,0,1,2.363-.978,1.346,1.346,0,0,0,1.667-.388,17.719,17.719,0,0,0,4.482-6.254,5.578,5.578,0,0,1,3.684-3.3,5.189,5.189,0,0,0,3.1-2.7A37.9,37.9,0,0,1,23.5,27.9a6.333,6.333,0,0,0,.779-1.676,15.526,15.526,0,0,1,1.018-2.07,14.248,14.248,0,0,1,1.543-1.774,19.568,19.568,0,0,0,4.579-9.146,12.177,12.177,0,0,0,.171-1.39,5.651,5.651,0,0,1-4.737-.828c-1.4.747-2.679,1.432-3.962,2.113-.427.233-.892.44-1.319.692a3.323,3.323,0,0,0-1.863,3.569,2.963,2.963,0,0,1-1.1,2.867,1.759,1.759,0,0,1-2.585-.055c-.327-.31-.677-.6-.982-.931-.64-.7-.576-1.142-.164-1.983,1.281-2.619,3.281-4.747,4.873-7.151.564-.854,1.116-1.708,1.639-2.581A3.212,3.212,0,0,1,24.7,5.941a40.905,40.905,0,0,0,4.218.134,5.688,5.688,0,0,1,3.3.777,2.7,2.7,0,0,0,2.606.213A5.819,5.819,0,0,1,36.818,6.8c.886-.017,1.778.124,2.662.083,1.093-.051,1.541-.54,1.661-1.612.036-.337.073-.677.079-1.016A2.894,2.894,0,0,1,43.179,1.49a5.193,5.193,0,0,1,3.908-.1,2.691,2.691,0,0,1,1.767,2.135A10.862,10.862,0,0,1,49,5.32c.023.721,0,1.447,0,1.974L47.723,9.655c.241.068.459.147.683.188A1.546,1.546,0,0,1,49.734,11.1a1.58,1.58,0,0,0,.657.884c.8.463,1.665.828,2.608,1.281a12.042,12.042,0,0,0,2.536-3.437c.115-.213-.1-.724-.318-.963a10.082,10.082,0,0,0-1.138-.826,1.3,1.3,0,0,1-.427-1.859c.152-.371.149-.815.333-1.165a1.956,1.956,0,0,1,.8-.937c1.494-.546,3.315-.314,4.019,1.708.051.145.128.282.192.427ZM31.844,11.488a11.161,11.161,0,0,1-.132,1.6,19.721,19.721,0,0,1-4.3,9.029,29.482,29.482,0,0,0-1.949,2.254,11.169,11.169,0,0,0-.922,1.859,7.825,7.825,0,0,1-.929,1.94,36.672,36.672,0,0,0-4.871,7.193,5.708,5.708,0,0,1-3.415,3.022,5.245,5.245,0,0,0-3.439,3.1A18.392,18.392,0,0,1,7.361,47.82a1.633,1.633,0,0,1-2.026.465,1.367,1.367,0,0,0-1.942.758,2.758,2.758,0,0,0-.282.811A13.685,13.685,0,0,1,1.575,54.2a3.24,3.24,0,0,0,.7,3.814,2.95,2.95,0,0,0,.781.395c.07-.292.265-.623.188-.869A2,2,0,0,1,3.9,55.5c.427-.5.768-1.057,1.187-1.556a14.321,14.321,0,0,1,2.028-2.265c3.281-2.523,6.555-5.037,9.953-7.381a24.8,24.8,0,0,0,4.792-3.682,48.481,48.481,0,0,1,4.566-4.056c.045-.038.137-.026.068-.015a22.538,22.538,0,0,0,.019,2.549,7.58,7.58,0,0,1-.472,3.535,11.527,11.527,0,0,0-.606,2.177,7.126,7.126,0,0,0,.12,1.607l.329.047c.184-.324.356-.655.553-.973a26.322,26.322,0,0,1,2-3.157,27.271,27.271,0,0,1,3.125-3.074A5.287,5.287,0,0,1,33.5,38.127q3.806-1.067,7.671-1.934A12.028,12.028,0,0,0,45.7,34.528a3.371,3.371,0,0,0-.314-6c-.854-.463-1.695-.939-2.506-1.462a13.963,13.963,0,0,0-5.9-2.425,1.39,1.39,0,0,1-.963-.741c-.083-.213.314-.687.581-.961,1.313-1.332,3.005-2.278,3.989-3.953a2.993,2.993,0,0,1,.822-.707c.762-.581,1.582-1.1,2.292-1.735,1.253-1.125,2.295-1.326,3.68-.41a15.643,15.643,0,0,0,6.64,2.2,5.018,5.018,0,0,0,1.635-.073,2.3,2.3,0,0,0,2.135-2.487c.034-.7,0-1.413.079-2.111.245-2.049.54-4.092.8-6.137.3-2.312-1.1-3.78-3.253-3.4-.677.12-1.294.327-1.163,1.247a1.157,1.157,0,0,1-.184.583c-.561,1.161-.508,1.387.544,2.135.192.137.4.254.593.384.837.561.965.993.4,1.821-.8,1.18-1.667,2.32-2.433,3.381-1.125-.568-2.135-1.033-3.093-1.586a1.462,1.462,0,0,1-.574-.873,1.435,1.435,0,0,0-1.281-1.183,6.176,6.176,0,0,1-1.259-.553L46.893,9.1c.854.48.886-.1,1.078-.485s.416-.771.613-1.165a1.247,1.247,0,0,0,.156-.478c.023-.544-.021-1.093.026-1.635.213-2.549-.922-3.928-3.347-4-2.608-.077-3.861,1.074-4,3.688a1.431,1.431,0,0,1-.013.235,1.792,1.792,0,0,1-1.9,1.874c-.832.038-1.673-.094-2.508-.073a6.791,6.791,0,0,0-2.135.263,2.755,2.755,0,0,1-2.619-.179,6.123,6.123,0,0,0-3.921-.775A16.436,16.436,0,0,1,25.2,6.261c-1.977-.256-2.754.12-3.825,1.831A28.507,28.507,0,0,1,18.137,12.8c-1.4,1.464-2,3.349-3.144,4.909a1.318,1.318,0,0,0,.062,1.174,7.286,7.286,0,0,0,1.142,1.1,1.463,1.463,0,0,0,2.107.16,2.718,2.718,0,0,0,1.146-2.736,3.5,3.5,0,0,1,1.932-3.767c.427-.252.869-.482,1.317-.7,1.409-.666,2.9-1.191,3.921-2.491A5.3,5.3,0,0,0,31.844,11.488Z" transform="translate(-1.001 -1.059)" fill="#e4208a" stroke="#e4208a" stroke-width="1"/>
    <path id="Path_21641" data-name="Path 21641" d="M121.81,147.612c1.562-1.4,2.956-2.824,4.536-4a5.023,5.023,0,0,1,2.538-.553c1.663-.107,3.334-.09,5.065-.124-.31.224-.64.489-.975.709-1.545.978-3.112,1.921-4.64,2.92a5.174,5.174,0,0,1-3.022.905C124.228,147.454,123.144,147.555,121.81,147.612Zm11-4.305c-1.59,0-3.187-.1-4.762.043a4.683,4.683,0,0,0-2.243.958,35.017,35.017,0,0,0-2.749,2.561,1.591,1.591,0,0,0-.2.333c.914,0,1.752.047,2.583-.017a4.462,4.462,0,0,0,1.887-.386C129.189,145.706,130.978,144.49,132.811,143.307Z" transform="translate(-96.023 -112.655)" fill="#e4208a" stroke="#e4208a" stroke-width="1"/>
  </g>
</svg>
