<svg xmlns="http://www.w3.org/2000/svg" xmlns:xlink="http://www.w3.org/1999/xlink" width="25" height="25" viewBox="0 0 25 25">
  <defs>
    <clipPath id="clip-path">
      <rect id="Rectangle_1696" data-name="Rectangle 1696" width="25" height="25" transform="translate(-0.375 -0.375)" fill="#475677"/>
    </clipPath>
  </defs>
  <g id="Icon_metro-stethoscope" data-name="Icon metro-stethoscope" transform="translate(6.359 3.346)">
    <g id="doctors" transform="translate(-5.984 -2.971)" clip-path="url(#clip-path)">
      <g id="Layer_2" data-name="Layer 2" transform="translate(0.569 0.411)">
        <g id="Layer_3" data-name="Layer 3">
          <path id="Path_21706" data-name="Path 21706" d="M203.455.5a1.09,1.09,0,0,1-.585-.5h.585Z" transform="translate(-179.733)" fill="#475677"/>
          <path id="Path_21707" data-name="Path 21707" d="M21.962,27.626H.022A.669.669,0,0,1,0,27.5a18.99,18.99,0,0,1,.624-4.113,6.183,6.183,0,0,1,1.244-2.4,5.785,5.785,0,0,1,2.406-1.5c.406-.153.81-.319,1.219-.459a.294.294,0,0,0,.228-.338c-.063-1.917-.155-3.833-.152-5.75a12.2,12.2,0,0,1,.744-4.4A5.163,5.163,0,0,1,8.192,6.016a5.055,5.055,0,0,1,2.589-.84,6.182,6.182,0,0,1,3.063.472,4.752,4.752,0,0,1,2.38,2.517,10.814,10.814,0,0,1,.817,3.407,35.087,35.087,0,0,1,.026,5.274c-.031.675-.06,1.349-.107,2.023-.015.2.065.269.251.336q.95.319,1.861.728a4.443,4.443,0,0,1,2.262,2.735,13.277,13.277,0,0,1,.627,3.649C21.982,26.74,21.962,27.171,21.962,27.626ZM7.014,18.581c-.06.007-.088,0-.106.014a14.578,14.578,0,0,1-2.67,1.151,5,5,0,0,0-3.23,3.238,15.107,15.107,0,0,0-.666,3.3c-.039.365-.052.733-.078,1.1h8.85A23.333,23.333,0,0,1,7.014,18.581ZM13.425,27.4h8.057c.136,0,.275.032.269-.182a17.774,17.774,0,0,0-.489-3.966,4.783,4.783,0,0,0-3.495-3.637c-.541-.161-1.068-.363-1.6-.55-.156-.054-.307-.121-.5-.2A24.208,24.208,0,0,1,13.425,27.4ZM7.452,10.451c-.021.183-.034.356-.062.526a2.765,2.765,0,0,1-.1.462,2.438,2.438,0,0,0-.057,1.479.8.8,0,0,0,.261.418.608.608,0,0,1,.244.367,6.021,6.021,0,0,0,1.026,2.1,3.316,3.316,0,0,0,2.027,1.326A2.979,2.979,0,0,0,13.62,16.1a5.778,5.778,0,0,0,1.288-2.422.986.986,0,0,1,.135-.254c.1-.151.269-.286.3-.447a3.914,3.914,0,0,0,.1-1.171c-.055-.459-.238-.9-.268-1.371,0-.01-.022-.019-.047-.04-.177.049-.364.095-.547.152-.137.043-.212.011-.25-.124-.047-.164-.114-.319-.163-.486l-.052.009v.736L12,10.961c-.063-.327-.114-.606-.171-.884a1.936,1.936,0,0,0-.162.639c-.015.2-.114.249-.312.235-.615-.043-1.229-.084-1.845-.112-.2-.01-.236-.084-.228-.254.016-.363,0-.727,0-1.136-.144.369-.285.7-.4,1.035-.064.184-.143.256-.363.2C8.175,10.589,7.824,10.53,7.452,10.451Zm1.483,5.925A9.069,9.069,0,0,1,8.8,17.486a6.245,6.245,0,0,0-.09,1.534,3.606,3.606,0,0,0,1.048,2.594A2.105,2.105,0,0,0,13,21.589a3.567,3.567,0,0,0,.971-2.6c0-.3.049-.607.022-.906-.051-.565-.141-1.128-.218-1.69,0-.018-.023-.034-.044-.064a3.4,3.4,0,0,1-2.369,1.078A3.44,3.44,0,0,1,8.935,16.376ZM10.1,27.382c-.106-.342-.209-.667-.306-.993a34.544,34.544,0,0,1-1.312-7.134,5.074,5.074,0,0,1,.095-1.9,2.258,2.258,0,0,0,.047-.392,1.085,1.085,0,0,0-1.369,1.039,18.317,18.317,0,0,0,.261,3.33,25.845,25.845,0,0,0,1.656,5.573C9.4,27.459,9.4,27.459,10.1,27.382ZM14.06,16.994c.026.176.054.34.075.5a8.41,8.41,0,0,1,.114.966c0,.355-.044.71-.073,1.065a33.466,33.466,0,0,1-1.458,7.43c-.043.136-.08.274-.12.411.495.1.552.082.7-.319.435-1.157.9-2.307,1.277-3.48a16.5,16.5,0,0,0,.843-5.2,2.233,2.233,0,0,0-.194-.877A1.009,1.009,0,0,0,14.06,16.994Z" transform="translate(0 -4.605)" fill="#475677"/>
        </g>
      </g>
    </g>
  </g>
</svg>
