<svg xmlns="http://www.w3.org/2000/svg" width="53.064" height="58.678" viewBox="0 0 53.064 58.678">
  <g id="Layer_2" data-name="Layer 2" transform="translate(0 -0.027)">
    <g id="Layer_3" data-name="Layer 3" transform="translate(0 0.027)">
      <path id="Path_21658" data-name="Path 21658" d="M22.572,38.108c-.666.138-1.342.259-2.006.427a.563.563,0,0,0-.319.366c-.652,2.8-1.286,5.6-1.933,8.433.723.067,1.328.118,1.933.178a2.589,2.589,0,0,1,1.9,1.305,1.075,1.075,0,0,1-.141,1.314,7.1,7.1,0,0,1-2.763,2.3,9.945,9.945,0,0,1-8.507-.315c-1.732-.776-3.4-1.688-5.1-2.537-.151-.077-.321-.139-.56-.244.03.709.047,1.339.089,1.966a1.037,1.037,0,0,1-.714,1.246,3.512,3.512,0,0,1-2.9.045,1.611,1.611,0,0,1-.868-2.32A2,2,0,0,0,.56,48,4.384,4.384,0,0,1,.03,45.22a1.319,1.319,0,0,1,.424-.787,3.136,3.136,0,0,1,2.4-.767c1.981.168,3.964.3,5.949.442.5.033,1.016-.048,1.513,0a12.811,12.811,0,0,1,1.446.3c.13-1.9.262-3.813.392-5.721a6.909,6.909,0,0,1-3.907-3.642c-.236-.507-.4-1.045-.605-1.569a4.356,4.356,0,0,1-.079-3.08,1.54,1.54,0,0,0-.11-1.343,4.283,4.283,0,0,1-.151-3.176,19.379,19.379,0,0,0,.454-5.766c-.092-1.44.056-2.894.068-4.343.014-1.718-.094-3.443.012-5.155a3.565,3.565,0,0,1,5.622-2.791,11.5,11.5,0,0,1,1.125.846.552.552,0,0,0,.97-.3,2.379,2.379,0,0,0,.067-.428,28.49,28.49,0,0,1,.29-3.013c.123-.625.209-1.234.274-1.87A3.648,3.648,0,0,1,20.963.174a5.651,5.651,0,0,1,1.2.487A2.412,2.412,0,0,1,23.614,2.9c0,.216.065.434.054.649a2.951,2.951,0,0,0,.656,2.41,1.009,1.009,0,0,1,.151.345c.194.511.113.635-.454.672-.182.012-.363,0-.543,0h-.554a7.783,7.783,0,0,1-.935,3.263c-.28.7-.508,1.414-.738,2.13a.408.408,0,0,0,.11.334A8.254,8.254,0,0,0,23.1,14.3a4.117,4.117,0,0,1,2.323,3.6c.086,1.094,0,2.2,0,3.3v.62a3.937,3.937,0,0,0,2.187.768,1.709,1.709,0,0,1,.827.265,1.121,1.121,0,0,1,.407,1.664,6.177,6.177,0,0,0-.587.865,2.43,2.43,0,0,0,.292-.248c.941-1.059,1.051-1.089,2.36-.5L52.1,34.136c.908.407,1.144.8.839,1.758a10.525,10.525,0,0,1-1,2.329A1.919,1.919,0,0,1,49.1,39c-3.441-1.609-6.879-3.226-10.325-4.822a1.706,1.706,0,0,0-.865-.127,2.314,2.314,0,0,1-2.349-1.133.994.994,0,0,0-.337-.4c-1.466-.7-2.94-1.387-4.565-2.146.183.5.3.882.454,1.252.4,1.026.83,2.043,1.224,3.074a5.736,5.736,0,0,1,.042,3.061c-.4,2.535-.844,5.066-1.3,7.592q-.508,2.8-1.107,5.584c-.251,1.163.439,1.8,1.225,2.378.712.523,1.475.976,2.2,1.476a2.811,2.811,0,0,0,1.745.638,1.093,1.093,0,0,1,1.23.847,1.114,1.114,0,0,1-.52,1.361A5.534,5.534,0,0,1,32.6,58.7c-1.348-.092-2.686-.327-4.026-.511q-1.883-.259-3.76-.545c-1-.151-1.2-.467-1.081-1.482.123-1.059.169-2.13.315-3.187a16.294,16.294,0,0,0-.505-4.78c-.343-2.236-.7-4.47-.951-6.716A31.151,31.151,0,0,1,22.572,38.108ZM21.126,28.013c.077-1.068.151-2.05.218-3.025a1.917,1.917,0,0,1-2.612.672,4.123,4.123,0,0,0-1-.254c-1.682-.274-2.461-.661-2.133-3.117.009-.071.02-.142.033-.215a3.291,3.291,0,0,0-1.036-3.1,9.746,9.746,0,0,0-3.406-2.36,2.608,2.608,0,0,1-1.569-1.767c-.054-.151.068-.372.109-.561a1.915,1.915,0,0,1,.475.322c.3.378.479.894.849,1.156A14.908,14.908,0,0,0,13.05,16.79c.194-1.711.244-3.441,2.49-3.821-.51-.738-.965-1.361-1.379-2.022-.1-.151-.165-.495-.076-.587.263-.275.439.015.591.21a8.742,8.742,0,0,1,1.815,3.424,5.363,5.363,0,0,0,2.245,3.4c.2.133.352.362.566.44.652.239,1.322.428,2.048.655a3.089,3.089,0,0,0,.348-1.75c-.012-.169.139-.349.215-.523.139.151.369.277.4.445a3.389,3.389,0,0,1-.39,2.151,1.363,1.363,0,0,0,.312,1.859,11.012,11.012,0,0,1,.849.756,1.359,1.359,0,0,0,1.712.374c0-.78.017-1.575,0-2.369a13.723,13.723,0,0,0-.138-2.205A2.943,2.943,0,0,0,22.941,15a5.653,5.653,0,0,1-2.26-2.137.87.87,0,0,0-.476-.324,3.064,3.064,0,0,1-2.057-1.175c-.393-.605-.8-1.21-1.139-1.839a2.143,2.143,0,0,1-.133-.954c0-.076.254-.228.36-.2s.192.215.247.349a5.223,5.223,0,0,0,.2.616c.271.469.625.894.856,1.379a2.187,2.187,0,0,0,1.933,1.175c.3.039.431-.106.523-.4.277-.894.619-1.768.908-2.661.186-.59.315-1.2.481-1.836-.4-.042-.647-.082-.9-.094A4.235,4.235,0,0,1,18.847,5.9,21.846,21.846,0,0,0,16.771,4.5a1.184,1.184,0,0,0-.186.346c-.116.894-.221,1.789-.319,2.686-.035.322,0,.656-.067.97a1.191,1.191,0,0,1-2.025.673c-.386-.325-.826-.587-1.21-.908C11.825,7.33,9.276,8.07,8.853,9.4a8.5,8.5,0,0,0-.44,2.481c-.026,3.222.059,6.444.044,9.664a32.543,32.543,0,0,1-.283,3.288c-.039.386-.138.765-.216,1.18.274.038.49.056.7.1,1.13.236,2.257.495,3.393.709A5.823,5.823,0,0,0,13.758,27a10.417,10.417,0,0,1,4.344.348C19.058,27.629,20.067,27.782,21.126,28.013Zm4.16,3.589c-.947-.165-1.889-.333-2.832-.493a1.436,1.436,0,0,1-1.21-.956.679.679,0,0,0-.454-.346c-.711-.124-1.434-.185-2.149-.293-1.724-.266-3.438-.78-5.188-.133a1.857,1.857,0,0,1-.694.1A5.788,5.788,0,0,0,8.336,31.3a.871.871,0,0,0-.325.985c.2.62.336,1.261.573,1.863.924,2.341,2.42,3.961,5.152,3.978,1.77.012,3.545.118,5.309,0a29.313,29.313,0,0,0,3.562-.694c.8-.151.957.048.744.817-.045.166,0,.508.077.534.953.3,1.921.57,2.922.855.166-2.789-.773-5.317-1.065-8.035Zm1.742,8.806c-.124,1.012-.3,2.556-.507,4.1-.3,2.295-.649,4.583-.936,6.879a13.527,13.527,0,0,0-.067,2.269.989.989,0,0,0,.439.684,1.456,1.456,0,0,0,1.664-.492,8.093,8.093,0,0,1,1.068-1.425,1.978,1.978,0,0,0,.623-1.277c.325-1.959.756-3.9,1.107-5.857.472-2.585.891-5.171,1.345-7.753a5.878,5.878,0,0,0-.405-3.6c-.546-1.177-.956-2.453-1.435-3.685a.855.855,0,0,0-.39-.393c-.478-.254-.985-.454-1.463-.709-.732-.389-.858-.691-.672-1.488.053-.228.136-.454.166-.684a.962.962,0,0,0-.1-.348c-.091.062-.209.1-.265.189-.3.469-.605.939-.889,1.425a1.985,1.985,0,0,0-.236.647,13.036,13.036,0,0,0,.3,5.274,23.914,23.914,0,0,1,.652,6.242Zm12-6.846,3.452,1.617,6.932,3.235c.929.431,1.455.331,1.988-.534a10.078,10.078,0,0,0,.886-2.025c.257-.756.178-.846-.528-1.162l-14.7-6.589c-2.228-1-4.464-1.98-6.681-3a.837.837,0,0,0-1.162.263,4.7,4.7,0,0,0-1.119,2.19c-.163.771-.171.812.546,1.15q3.12,1.466,6.242,2.921c.1.05.218.083.358.136a2.3,2.3,0,0,1,2.019-2.213,2.184,2.184,0,0,1,2.249,1.1A2.313,2.313,0,0,1,39.024,33.563ZM11.97,46.005l-.172-.056a4.036,4.036,0,0,0-1.345,2.506.6.6,0,0,0,.231.5,15.854,15.854,0,0,0,4.341,1.32,1.712,1.712,0,0,0,1.741-.823,8.055,8.055,0,0,0,1.168-3.013c.483-2.187.947-4.377,1.419-6.566.077-.362.151-.723.25-1.137-2.284.413-4.477.048-6.71,0a22.1,22.1,0,0,0-.272,2.292c-.035,2.08,0,4.16-.009,6.241a1.735,1.735,0,0,0,.454,1.395c.085.077.024.312.03.472-.16-.011-.368.039-.473-.042a1.729,1.729,0,0,1-.658-1.426C11.955,47.1,11.97,46.559,11.97,46.005Zm5.273,4.049.061.124c.525-.366,1.041-.746,1.581-1.089a1.737,1.737,0,0,1,.554-.132c-.036.2,0,.505-.123.584a9.555,9.555,0,0,1-2.08,1.21A6.067,6.067,0,0,1,13.7,50.7,47.44,47.44,0,0,1,4.74,46.861a3.784,3.784,0,0,0-2.163-.541c-.13.015-.343.053-.363.124a.693.693,0,0,0,.039.507,1.177,1.177,0,0,0,.454.36c2.819,1.443,5.612,2.946,8.486,4.278a9.124,9.124,0,0,0,6.025.814,6.625,6.625,0,0,0,4.138-2.481c.151-.215.287-.676.18-.8a3.026,3.026,0,0,0-1.21-.908,6.525,6.525,0,0,0-1.829-.151.534.534,0,0,0-.392.253C17.788,48.879,17.518,49.472,17.243,50.054Zm7.489,2.482h.056c-.138,1.277-.265,2.553-.419,3.828-.045.384.068.563.463.616,1.237.165,2.47.357,3.707.529,1.34.188,2.677.414,4.023.528a4.8,4.8,0,0,0,2.854-.908.847.847,0,0,0,.319-.656c-.015-.34-.328-.372-.644-.42a3.33,3.33,0,0,1-1.531-.43c-1.319-1.059-3.008-1.623-4.084-3.163A9.851,9.851,0,0,0,28.4,53.854a2.026,2.026,0,0,1-2.059,1.193,1.35,1.35,0,0,1-1.445-1.18c-.092-.433-.119-.883-.172-1.331ZM4.689,44.644c-.666-.11-1.289-.213-1.912-.313a2.381,2.381,0,0,0-1.815.523.676.676,0,0,0-.283.492,7.083,7.083,0,0,0,.479,2.348,2.633,2.633,0,0,1,.127,2.842.976.976,0,0,0,.578,1.478,2.934,2.934,0,0,0,2.269-.029.551.551,0,0,0,.393-.62c-.047-.666-.032-1.337-.091-2a.773.773,0,0,0-.316-.526c-.585-.355-1.21-.641-1.8-.992-.256-.151-.579-.358-.653-.605a2.269,2.269,0,0,1,.008-1.178c.1-.378.493-.419.861-.393.551.039,1.1.067,1.685.1ZM21.025,29.191c.121-.381.065-.534-.312-.605-1.275-.259-2.534-.605-3.813-.839a8.808,8.808,0,0,0-2.2-.136,8.612,8.612,0,0,1-3.266-.26,35.43,35.43,0,0,0-3.706-.756,11.583,11.583,0,0,0,.151,1.782c.182.688.708,1.292.395,2.1a3.933,3.933,0,0,0,.741-.531,3.789,3.789,0,0,1,2.3-.977c1.1-.121,2.178-.349,3.275-.445a10.874,10.874,0,0,1,2.251.05c1.408.151,2.794.4,4.191.611ZM18,17.59c-1.493-.994-1.854-2.517-2.314-3.957-1.1.189-1.54.567-1.746,1.567a10.949,10.949,0,0,0-.21,1.718.979.979,0,0,0,.266.65c.605.605,1.246,1.175,1.85,1.736C16.255,17.806,16.255,17.806,18,17.59Zm8.168,24.817-2.95-.687c.29,1.876.561,3.638.847,5.4a.392.392,0,0,0,.245.236c.374.106.756.182,1.163.275.224-1.75.451-3.459.685-5.221Zm-16.009,2.37c-.982,0-1.859,0-2.738.008a.454.454,0,0,0-.318.178c-.334.507-.659,1.021-.954,1.55a.41.41,0,0,0,.1.392c.768.383,1.553.735,2.379,1.116A5.681,5.681,0,0,1,10.158,44.777Zm15.18-15.46c-1.435.039-2.326-1.041-3.614-1.448a20,20,0,0,0,.151,2,.877.877,0,0,0,.57.548c.908.2,1.833.328,2.791.489C25.275,30.376,25.307,29.842,25.338,29.317Zm-2.284-7.059-1.361-1.175c-.1,1.059-.192,1.986-.253,2.915-.009.151.151.3.224.454C22.142,23.687,22.581,23,23.054,22.258Zm1.732,29.63h.056c.083-.517.166-1.035.256-1.584h-.433Z" transform="translate(0 -0.027)" fill="#e4208a"/>
      <path id="Path_21659" data-name="Path 21659" d="M163.191,334.021l-.121-1.581h.433c-.089.549-.172,1.066-.256,1.584Z" transform="translate(-138.405 -282.16)" fill="#e4208a"/>
    </g>
  </g>
</svg>
