<svg xmlns="http://www.w3.org/2000/svg" width="54.556" height="52.876" viewBox="0 0 54.556 52.876">
  <g id="Layer_2" data-name="Layer 2" transform="translate(0.427 0.426)">
    <g id="Layer_3" data-name="Layer 3" transform="translate(0.088 0.076)">
      <path id="Path_21642" data-name="Path 21642" d="M23,31.329a7.653,7.653,0,0,1-1.524-3.674,17.24,17.24,0,0,1,.172-3.089,30.921,30.921,0,0,0,.189-8.9,8.44,8.44,0,0,0-.637-2,1.763,1.763,0,0,0-2.1-1.03c-1.076.194-2.138.469-3.2.74-2.43.611-4.86,1.229-7.282,1.874a1.066,1.066,0,0,0-.608.515A2.329,2.329,0,0,1,4.93,16.9a1.79,1.79,0,0,1-1.081-1.733,1.876,1.876,0,0,1,1.263-1.742c2.416-.965,4.836-1.922,7.237-2.918,2.262-.953,4.479-1.993,6.75-2.892a15.146,15.146,0,0,1,6.909-.937,1.73,1.73,0,0,0,.717-.172c.293-.115.343-.311.172-.606-1.27-2.3-.041-5.4,3.36-5.791A5.492,5.492,0,0,1,33.5.75a1.732,1.732,0,0,0,1.867.172.7.7,0,0,1,.994.664A3.3,3.3,0,0,1,35.046,4.57a1.121,1.121,0,0,0-.407.635c-.22,1.172-.376,2.358-.594,3.53a1.361,1.361,0,0,1-1.577,1.225c-.42-.024-.839-.07-1.217-.1.405,1.2.858,2.341,1.164,3.522a12.317,12.317,0,0,1,.426,3.015A6.262,6.262,0,0,0,33.918,20c1.373,2.023,2.835,3.98,4.277,5.954.117.161.359.225.523.355a11.686,11.686,0,0,1,1.689,1.414,1.957,1.957,0,0,1-.024,2.458,2.09,2.09,0,0,1-2.2.9,2.054,2.054,0,0,1-1.651-1.9,1.506,1.506,0,0,0-.666-1.2c-1.067-.858-2.085-1.78-3.124-2.677l-.462-.4c-.117,1.03-.189,2-.343,2.948a16.531,16.531,0,0,1-.554,2.159.651.651,0,0,0,.172.777c.494.475.94,1,1.44,1.469a14.872,14.872,0,0,1,4.119,7.061c.662,2.356,1.419,4.685,2.114,7.036a.7.7,0,0,0,.686.578c1.613.194,3.223.429,4.835.64A1.512,1.512,0,0,1,45.36,50.4a4.4,4.4,0,0,1-3.244.736,3.278,3.278,0,0,0-2.1.328c-1.993.994-3.118.486-3.69-1.7a8.963,8.963,0,0,1-.1-1.725,1.623,1.623,0,0,0-.089-.553c-1.2-2.617-2.394-5.236-3.63-7.836a3.851,3.851,0,0,0-.975-1.3c-1.133-.93-2.331-1.781-3.558-2.706-.218.292-.419.546-.608.81A4.664,4.664,0,0,1,20.6,37.614q-5.461-3.879-10.893-7.8a1.785,1.785,0,0,0-1.574-.335c-1.888.436-3.776.843-5.677,1.26l-.4.091a1.514,1.514,0,0,1-1.694-.654,1.5,1.5,0,0,1,.065-1.811A4.735,4.735,0,0,1,3.493,26.35a3.22,3.22,0,0,0,2.059-1.215c.88-1.124,2.159-1.4,3.019-.657.484.419.868.953,1.316,1.414a3.588,3.588,0,0,0,.858.745c3.192,1.622,6.4,3.211,9.6,4.821A2.479,2.479,0,0,0,23,31.329Zm.953.12a3.019,3.019,0,0,1-3.808.783q-4.865-2.415-9.719-4.852a2.746,2.746,0,0,1-1.2-1.069,4.735,4.735,0,0,0-1.064-1.158,1.171,1.171,0,0,0-1.684.125c-.172.18-.343.369-.53.549a3.992,3.992,0,0,1-2.3,1.294,3.923,3.923,0,0,0-2.454,1.5c-.276.343-.458.711-.172,1.124.259.384.635.366,1.05.271,1.946-.446,3.9-.858,5.845-1.306a2.591,2.591,0,0,1,2.3.482c3.6,2.66,7.275,5.248,10.931,7.847a3.859,3.859,0,0,0,5.466-.892,13.942,13.942,0,0,0,.81-1.153c.232-.395.451-.391.789-.136,1.124.858,2.26,1.687,3.4,2.521a5.26,5.26,0,0,1,1.684,2.075q1.843,4,3.688,8a.779.779,0,0,1,.086.549,2.632,2.632,0,0,0,.227,2.209c.4.992.992,1.2,1.972.757q.242-.108.474-.237a3.4,3.4,0,0,1,2.387-.381,3.8,3.8,0,0,0,2.605-.484c.367-.208.714-.457.6-.963-.106-.479-.5-.542-.9-.6-1.728-.23-3.453-.472-5.183-.686a.616.616,0,0,1-.6-.515c-.752-2.533-1.563-5.049-2.284-7.591a14.282,14.282,0,0,0-3.918-6.709c-.642-.6-1.239-1.256-1.826-1.914a.717.717,0,0,1-.144-.6,14.545,14.545,0,0,0,.892-6.407c-.021-.3,0-.6,0-.9l.2-.122a2.708,2.708,0,0,0,.36.532c1.436,1.3,2.863,2.609,4.339,3.863a2.238,2.238,0,0,1,1.069,1.866,1.216,1.216,0,0,0,1.107,1.189,1.323,1.323,0,0,0,1.373-.7A1.215,1.215,0,0,0,39.657,28a10.618,10.618,0,0,0-1.073-.9,5.567,5.567,0,0,1-1.071-.8c-1.354-1.769-2.713-3.541-3.966-5.38a8.669,8.669,0,0,1-1.522-4.853,11.531,11.531,0,0,0-1.9-6.269c.74-.831.774-.843,1.8-.676,1.145.187,1.385-.027,1.515-1.162.136-1.184.331-2.362.525-3.539a.594.594,0,0,1,.29-.378,2.108,2.108,0,0,0,1.268-2.3A2.23,2.23,0,0,1,33.254,1.5a6.12,6.12,0,0,0-1.03-.439A3.879,3.879,0,0,0,28,2.018,2.966,2.966,0,0,0,27.74,5.77c.311.549.172.858-.343,1.2a2.5,2.5,0,0,1-1.824.443,11.1,11.1,0,0,0-5.542.716c-3.089,1.212-6.132,2.574-9.2,3.861-1.8.745-3.628,1.459-5.446,2.173a1.086,1.086,0,0,0,.148,2.094,1.32,1.32,0,0,0,1.692-.777A1.294,1.294,0,0,1,8.5,14.45a6.081,6.081,0,0,0,.686-.172c3.055-.777,6.1-1.574,9.165-2.325,2-.491,3.261.233,3.913,2.186a9.908,9.908,0,0,1,.366,1.479,28.63,28.63,0,0,1-.172,8.662c-.209,1.558-.566,3.11.132,4.62.393.853.877,1.653,1.358,2.549Z" transform="translate(-0.088 -0.076)" fill="#f0662e" stroke="#e4208a" stroke-width="1"/>
      <path id="Path_21643" data-name="Path 21643" d="M252.762,213.257a5.784,5.784,0,1,1,5.8-5.777A5.784,5.784,0,0,1,252.762,213.257Zm.306-8.567a.89.89,0,0,0,.515,1.1,7.1,7.1,0,0,1,.762.546,1.2,1.2,0,0,0,2.008-.64c.062-.185.13-.369.192-.554.316-.968.305-1-.5-1.663-1.03-.843-1.073-.843-2.128-.072a3.221,3.221,0,0,1-.381.273A.806.806,0,0,0,253.067,204.69Zm-.527.015c-.048-.242-.014-.58-.16-.711a4.6,4.6,0,0,0-1.563-1.1c-.343-.1-.9.3-1.289.583-.33.244-.858.462-.723,1.03a14.584,14.584,0,0,0,.515,1.615.515.515,0,0,0,.28.268c.608.228,1.217.448,1.761-.161a2.2,2.2,0,0,1,.565-.417A1.017,1.017,0,0,0,252.54,204.705Zm.362,5h-.45c-1.27,0-1.661.556-1.244,1.768.082.24.146.489.239.724.048.118.142.306.221.307a10.235,10.235,0,0,0,2.2-.024c.233-.043.369-.65.537-1.006a1.1,1.1,0,0,0,.137-.445,1.574,1.574,0,0,0-.108-.633A1.268,1.268,0,0,0,252.9,209.7Zm-3.491.64c1.351.151,2.1-.783,1.43-2.059-.117-.221-.148-.484-.247-.717a.652.652,0,0,0-.259-.343c-.6-.245-1.2-.484-1.756.127a6.955,6.955,0,0,1-.7.53c-.1.081-.233.235-.209.312a8.3,8.3,0,0,0,.686,1.9C248.483,210.3,249.051,210.261,249.412,210.341Zm6.865-.084c.985.089.872.134,1.215-.671.755-1.771.431-1.526-.637-2.307a1.165,1.165,0,0,0-.711-.307c-.657.1-1.315.273-1.4,1.136a3.157,3.157,0,0,1-.206.671,1.1,1.1,0,0,0,1.2,1.51c.194-.017.39-.024.539-.033Zm-3.508-1.105c1.047,0,1.047,0,1.383-1,.343-1.03.343-1.03-.539-1.665-.85-.608-.85-.608-1.7,0s-.858.621-.551,1.6c.434,1.316.189,1.018,1.412,1.059Zm-1.416-6.741c1.243,1.244,1.879,1.232,2.729,0Zm6.024,2.559c-.831,1.346-.729,1.7.659,2.329-.232-.858-.443-1.593-.652-2.329Zm-9.844,2.166c1.361-.467,1.509-1.03.635-2.231-.223.8-.426,1.517-.628,2.231Zm1.486,3.76-.094.153,1.872,1.318c-.343-1.771-.2-1.574-1.771-1.471Zm5.816,1.177.142.18,1.73-1.294c-1.478-.314-1.576-.249-1.866,1.114Z" transform="translate(-204.616 -167.089)" fill="#e4208a" stroke="#e4208a" stroke-width="0.2"/>
      <path id="Path_21644" data-name="Path 21644" d="M282.207,210.226a.8.8,0,0,1,.475-1.011,3.219,3.219,0,0,0,.381-.273c1.055-.771,1.1-.771,2.128.072.8.662.815.686.5,1.663-.062.185-.13.369-.192.554a1.2,1.2,0,0,1-2.008.64,7.1,7.1,0,0,0-.762-.546A.894.894,0,0,1,282.207,210.226Z" transform="translate(-233.756 -172.625)" fill="#fff" stroke="#e4208a" stroke-width="0.2"/>
      <path id="Path_21645" data-name="Path 21645" d="M261.214,210.417a1,1,0,0,1-.613,1.1,2.2,2.2,0,0,0-.565.417c-.544.609-1.153.39-1.761.161a.515.515,0,0,1-.28-.268,14.584,14.584,0,0,1-.515-1.615c-.13-.561.393-.779.723-1.03.384-.281.94-.687,1.289-.584a4.622,4.622,0,0,1,1.563,1.1C261.2,209.837,261.166,210.175,261.214,210.417Z" transform="translate(-213.29 -172.8)" fill="#fff" stroke="#e4208a" stroke-width="0.2"/>
      <path id="Path_21646" data-name="Path 21646" d="M272.491,248.21a1.268,1.268,0,0,1,1.533.686,1.576,1.576,0,0,1,.108.633,1.1,1.1,0,0,1-.137.444c-.172.355-.3.963-.537,1.006a10.236,10.236,0,0,1-2.2.024c-.079,0-.172-.189-.221-.307-.093-.235-.156-.484-.239-.724-.417-1.212-.026-1.768,1.244-1.768Z" transform="translate(-224.205 -205.597)" fill="#fff" stroke="#e4208a" stroke-width="0.2"/>
      <path id="Path_21647" data-name="Path 21647" d="M252.679,235.715c-.364-.081-.928-.046-1.055-.266a8.907,8.907,0,0,1-.686-1.9c-.024-.077.113-.232.209-.312a6.947,6.947,0,0,0,.7-.53c.556-.611,1.158-.372,1.756-.127a.652.652,0,0,1,.259.343c.1.233.13.5.247.717C254.778,234.933,254.034,235.87,252.679,235.715Z" transform="translate(-207.883 -192.463)" fill="#fff" stroke="#e4208a" stroke-width="0.2"/>
      <path id="Path_21648" data-name="Path 21648" d="M292.37,235.735c-.149,0-.343.015-.539.031a1.1,1.1,0,0,1-1.2-1.51,3.158,3.158,0,0,0,.213-.669c.081-.858.738-1.03,1.4-1.136a1.175,1.175,0,0,1,.711.307c1.067.781,1.392.535.637,2.307C293.242,235.869,293.355,235.825,292.37,235.735Z" transform="translate(-240.703 -192.567)" fill="#fff" stroke="#e4208a" stroke-width="0.2"/>
      <path id="Path_21649" data-name="Path 21649" d="M272.994,230.116c-1.224-.041-.985.257-1.406-1.054-.314-.982-.311-.983.551-1.6s.849-.613,1.7,0c.886.635.886.635.539,1.665C274.041,230.116,274.041,230.116,272.994,230.116Z" transform="translate(-224.835 -188.053)" fill="#fff" stroke="#e4208a" stroke-width="0.2"/>
      <path id="Path_21650" data-name="Path 21650" d="M272.45,205.89h2.729C274.329,207.122,273.693,207.134,272.45,205.89Z" transform="translate(-225.707 -170.568)" fill="#fff" stroke="#e4208a" stroke-width="0.2"/>
      <path id="Path_21651" data-name="Path 21651" d="M305,220.8c.209.736.417,1.471.659,2.329C304.276,222.5,304.174,222.146,305,220.8Z" transform="translate(-252.238 -182.919)" fill="#fff" stroke="#e4208a" stroke-width="0.2"/>
      <path id="Path_21652" data-name="Path 21652" d="M250.19,222.651c.2-.714.405-1.428.635-2.231C251.7,221.621,251.551,222.184,250.19,222.651Z" transform="translate(-207.267 -182.604)" fill="#fff" stroke="#e4208a" stroke-width="0.2"/>
      <path id="Path_21653" data-name="Path 21653" d="M258.394,255.024c1.567-.1,1.428-.3,1.778,1.471l-1.872-1.318Z" transform="translate(-213.985 -211.217)" fill="#fff" stroke="#e4208a" stroke-width="0.2"/>
      <path id="Path_21654" data-name="Path 21654" d="M292.74,256.063c.29-1.363.384-1.428,1.872-1.114l-1.73,1.294Z" transform="translate(-242.515 -211.079)" fill="#fff" stroke="#e4208a" stroke-width="0.2"/>
    </g>
  </g>
</svg>
